<?xml version="1.0" encoding="utf-8" standalone="no"?>
<!DOCTYPE svg PUBLIC "-//W3C//DTD SVG 1.1//EN"
  "http://www.w3.org/Graphics/SVG/1.1/DTD/svg11.dtd">
<svg xmlns:xlink="http://www.w3.org/1999/xlink" width="520.923775pt" height="415.629875pt" viewBox="0 0 520.923775 415.629875" xmlns="http://www.w3.org/2000/svg" version="1.1">
 <metadata>
  <rdf:RDF xmlns:dc="http://purl.org/dc/elements/1.1/" xmlns:cc="http://creativecommons.org/ns#" xmlns:rdf="http://www.w3.org/1999/02/22-rdf-syntax-ns#">
   <cc:Work>
    <dc:type rdf:resource="http://purl.org/dc/dcmitype/StillImage"/>
    <dc:date>2025-12-28T14:52:27.002561</dc:date>
    <dc:format>image/svg+xml</dc:format>
    <dc:creator>
     <cc:Agent>
      <dc:title>Matplotlib v3.9.2, https://matplotlib.org/</dc:title>
     </cc:Agent>
    </dc:creator>
   </cc:Work>
  </rdf:RDF>
 </metadata>
 <defs>
  <style type="text/css">*{stroke-linejoin: round; stroke-linecap: butt}</style>
 </defs>
 <g id="figure_1">
  <g id="patch_1">
   <path d="M 0 415.629875 
L 520.923775 415.629875 
L 520.923775 0 
L 0 0 
z
" style="fill: #ffffff"/>
  </g>
  <g id="axes_1">
   <g id="patch_2">
    <path d="M 64.856875 368.3955 
L 511.256875 368.3955 
L 511.256875 35.7555 
L 64.856875 35.7555 
z
" style="fill: #ffffff"/>
   </g>
   <g id="matplotlib.axis_1">
    <g id="xtick_1">
     <g id="line2d_1">
      <defs>
       <path id="m3aa10c77dc" d="M 0 0 
L 0 3.5 
" style="stroke: #000000; stroke-width: 0.8"/>
      </defs>
      <g>
       <use xlink:href="#m3aa10c77dc" x="109.797293" y="368.3955" style="stroke: #000000; stroke-width: 0.8"/>
      </g>
     </g>
     <g id="text_1">
      <!-- −40 -->
      <g transform="translate(95.024012 386.033312) scale(0.14 -0.14)">
       <defs>
        <path id="DejaVuSans-2212" d="M 678 2272 
L 4684 2272 
L 4684 1741 
L 678 1741 
L 678 2272 
z
" transform="scale(0.015625)"/>
        <path id="DejaVuSans-34" d="M 2419 4116 
L 825 1625 
L 2419 1625 
L 2419 4116 
z
M 2253 4666 
L 3047 4666 
L 3047 1625 
L 3713 1625 
L 3713 1100 
L 3047 1100 
L 3047 0 
L 2419 0 
L 2419 1100 
L 313 1100 
L 313 1709 
L 2253 4666 
z
" transform="scale(0.015625)"/>
        <path id="DejaVuSans-30" d="M 2034 4250 
Q 1547 4250 1301 3770 
Q 1056 3291 1056 2328 
Q 1056 1369 1301 889 
Q 1547 409 2034 409 
Q 2525 409 2770 889 
Q 3016 1369 3016 2328 
Q 3016 3291 2770 3770 
Q 2525 4250 2034 4250 
z
M 2034 4750 
Q 2819 4750 3233 4129 
Q 3647 3509 3647 2328 
Q 3647 1150 3233 529 
Q 2819 -91 2034 -91 
Q 1250 -91 836 529 
Q 422 1150 422 2328 
Q 422 3509 836 4129 
Q 1250 4750 2034 4750 
z
" transform="scale(0.015625)"/>
       </defs>
       <use xlink:href="#DejaVuSans-2212"/>
       <use xlink:href="#DejaVuSans-34" x="83.789062"/>
       <use xlink:href="#DejaVuSans-30" x="147.412109"/>
      </g>
     </g>
    </g>
    <g id="xtick_2">
     <g id="line2d_2">
      <g>
       <use xlink:href="#m3aa10c77dc" x="175.63379" y="368.3955" style="stroke: #000000; stroke-width: 0.8"/>
      </g>
     </g>
     <g id="text_2">
      <!-- −30 -->
      <g transform="translate(160.860509 386.033312) scale(0.14 -0.14)">
       <defs>
        <path id="DejaVuSans-33" d="M 2597 2516 
Q 3050 2419 3304 2112 
Q 3559 1806 3559 1356 
Q 3559 666 3084 287 
Q 2609 -91 1734 -91 
Q 1441 -91 1130 -33 
Q 819 25 488 141 
L 488 750 
Q 750 597 1062 519 
Q 1375 441 1716 441 
Q 2309 441 2620 675 
Q 2931 909 2931 1356 
Q 2931 1769 2642 2001 
Q 2353 2234 1838 2234 
L 1294 2234 
L 1294 2753 
L 1863 2753 
Q 2328 2753 2575 2939 
Q 2822 3125 2822 3475 
Q 2822 3834 2567 4026 
Q 2313 4219 1838 4219 
Q 1578 4219 1281 4162 
Q 984 4106 628 3988 
L 628 4550 
Q 988 4650 1302 4700 
Q 1616 4750 1894 4750 
Q 2613 4750 3031 4423 
Q 3450 4097 3450 3541 
Q 3450 3153 3228 2886 
Q 3006 2619 2597 2516 
z
" transform="scale(0.015625)"/>
       </defs>
       <use xlink:href="#DejaVuSans-2212"/>
       <use xlink:href="#DejaVuSans-33" x="83.789062"/>
       <use xlink:href="#DejaVuSans-30" x="147.412109"/>
      </g>
     </g>
    </g>
    <g id="xtick_3">
     <g id="line2d_3">
      <g>
       <use xlink:href="#m3aa10c77dc" x="241.470287" y="368.3955" style="stroke: #000000; stroke-width: 0.8"/>
      </g>
     </g>
     <g id="text_3">
      <!-- −20 -->
      <g transform="translate(226.697006 386.033312) scale(0.14 -0.14)">
       <defs>
        <path id="DejaVuSans-32" d="M 1228 531 
L 3431 531 
L 3431 0 
L 469 0 
L 469 531 
Q 828 903 1448 1529 
Q 2069 2156 2228 2338 
Q 2531 2678 2651 2914 
Q 2772 3150 2772 3378 
Q 2772 3750 2511 3984 
Q 2250 4219 1831 4219 
Q 1534 4219 1204 4116 
Q 875 4013 500 3803 
L 500 4441 
Q 881 4594 1212 4672 
Q 1544 4750 1819 4750 
Q 2544 4750 2975 4387 
Q 3406 4025 3406 3419 
Q 3406 3131 3298 2873 
Q 3191 2616 2906 2266 
Q 2828 2175 2409 1742 
Q 1991 1309 1228 531 
z
" transform="scale(0.015625)"/>
       </defs>
       <use xlink:href="#DejaVuSans-2212"/>
       <use xlink:href="#DejaVuSans-32" x="83.789062"/>
       <use xlink:href="#DejaVuSans-30" x="147.412109"/>
      </g>
     </g>
    </g>
    <g id="xtick_4">
     <g id="line2d_4">
      <g>
       <use xlink:href="#m3aa10c77dc" x="307.306784" y="368.3955" style="stroke: #000000; stroke-width: 0.8"/>
      </g>
     </g>
     <g id="text_4">
      <!-- −10 -->
      <g transform="translate(292.533503 386.033312) scale(0.14 -0.14)">
       <defs>
        <path id="DejaVuSans-31" d="M 794 531 
L 1825 531 
L 1825 4091 
L 703 3866 
L 703 4441 
L 1819 4666 
L 2450 4666 
L 2450 531 
L 3481 531 
L 3481 0 
L 794 0 
L 794 531 
z
" transform="scale(0.015625)"/>
       </defs>
       <use xlink:href="#DejaVuSans-2212"/>
       <use xlink:href="#DejaVuSans-31" x="83.789062"/>
       <use xlink:href="#DejaVuSans-30" x="147.412109"/>
      </g>
     </g>
    </g>
    <g id="xtick_5">
     <g id="line2d_5">
      <g>
       <use xlink:href="#m3aa10c77dc" x="373.143281" y="368.3955" style="stroke: #000000; stroke-width: 0.8"/>
      </g>
     </g>
     <g id="text_5">
      <!-- 0 -->
      <g transform="translate(368.689531 386.033312) scale(0.14 -0.14)">
       <use xlink:href="#DejaVuSans-30"/>
      </g>
     </g>
    </g>
    <g id="xtick_6">
     <g id="line2d_6">
      <g>
       <use xlink:href="#m3aa10c77dc" x="438.979778" y="368.3955" style="stroke: #000000; stroke-width: 0.8"/>
      </g>
     </g>
     <g id="text_6">
      <!-- 10 -->
      <g transform="translate(430.072278 386.033312) scale(0.14 -0.14)">
       <use xlink:href="#DejaVuSans-31"/>
       <use xlink:href="#DejaVuSans-30" x="63.623047"/>
      </g>
     </g>
    </g>
    <g id="xtick_7">
     <g id="line2d_7">
      <g>
       <use xlink:href="#m3aa10c77dc" x="504.816275" y="368.3955" style="stroke: #000000; stroke-width: 0.8"/>
      </g>
     </g>
     <g id="text_7">
      <!-- 20 -->
      <g transform="translate(495.908775 386.033312) scale(0.14 -0.14)">
       <use xlink:href="#DejaVuSans-32"/>
       <use xlink:href="#DejaVuSans-30" x="63.623047"/>
      </g>
     </g>
    </g>
    <g id="text_8">
     <!-- Fitness effect ($\Delta$) -->
     <g transform="translate(219.896875 405.102375) scale(0.16 -0.16)">
      <defs>
       <path id="DejaVuSans-46" d="M 628 4666 
L 3309 4666 
L 3309 4134 
L 1259 4134 
L 1259 2759 
L 3109 2759 
L 3109 2228 
L 1259 2228 
L 1259 0 
L 628 0 
L 628 4666 
z
" transform="scale(0.015625)"/>
       <path id="DejaVuSans-69" d="M 603 3500 
L 1178 3500 
L 1178 0 
L 603 0 
L 603 3500 
z
M 603 4863 
L 1178 4863 
L 1178 4134 
L 603 4134 
L 603 4863 
z
" transform="scale(0.015625)"/>
       <path id="DejaVuSans-74" d="M 1172 4494 
L 1172 3500 
L 2356 3500 
L 2356 3053 
L 1172 3053 
L 1172 1153 
Q 1172 725 1289 603 
Q 1406 481 1766 481 
L 2356 481 
L 2356 0 
L 1766 0 
Q 1100 0 847 248 
Q 594 497 594 1153 
L 594 3053 
L 172 3053 
L 172 3500 
L 594 3500 
L 594 4494 
L 1172 4494 
z
" transform="scale(0.015625)"/>
       <path id="DejaVuSans-6e" d="M 3513 2113 
L 3513 0 
L 2938 0 
L 2938 2094 
Q 2938 2591 2744 2837 
Q 2550 3084 2163 3084 
Q 1697 3084 1428 2787 
Q 1159 2491 1159 1978 
L 1159 0 
L 581 0 
L 581 3500 
L 1159 3500 
L 1159 2956 
Q 1366 3272 1645 3428 
Q 1925 3584 2291 3584 
Q 2894 3584 3203 3211 
Q 3513 2838 3513 2113 
z
" transform="scale(0.015625)"/>
       <path id="DejaVuSans-65" d="M 3597 1894 
L 3597 1613 
L 953 1613 
Q 991 1019 1311 708 
Q 1631 397 2203 397 
Q 2534 397 2845 478 
Q 3156 559 3463 722 
L 3463 178 
Q 3153 47 2828 -22 
Q 2503 -91 2169 -91 
Q 1331 -91 842 396 
Q 353 884 353 1716 
Q 353 2575 817 3079 
Q 1281 3584 2069 3584 
Q 2775 3584 3186 3129 
Q 3597 2675 3597 1894 
z
M 3022 2063 
Q 3016 2534 2758 2815 
Q 2500 3097 2075 3097 
Q 1594 3097 1305 2825 
Q 1016 2553 972 2059 
L 3022 2063 
z
" transform="scale(0.015625)"/>
       <path id="DejaVuSans-73" d="M 2834 3397 
L 2834 2853 
Q 2591 2978 2328 3040 
Q 2066 3103 1784 3103 
Q 1356 3103 1142 2972 
Q 928 2841 928 2578 
Q 928 2378 1081 2264 
Q 1234 2150 1697 2047 
L 1894 2003 
Q 2506 1872 2764 1633 
Q 3022 1394 3022 966 
Q 3022 478 2636 193 
Q 2250 -91 1575 -91 
Q 1294 -91 989 -36 
Q 684 19 347 128 
L 347 722 
Q 666 556 975 473 
Q 1284 391 1588 391 
Q 1994 391 2212 530 
Q 2431 669 2431 922 
Q 2431 1156 2273 1281 
Q 2116 1406 1581 1522 
L 1381 1569 
Q 847 1681 609 1914 
Q 372 2147 372 2553 
Q 372 3047 722 3315 
Q 1072 3584 1716 3584 
Q 2034 3584 2315 3537 
Q 2597 3491 2834 3397 
z
" transform="scale(0.015625)"/>
       <path id="DejaVuSans-20" transform="scale(0.015625)"/>
       <path id="DejaVuSans-66" d="M 2375 4863 
L 2375 4384 
L 1825 4384 
Q 1516 4384 1395 4259 
Q 1275 4134 1275 3809 
L 1275 3500 
L 2222 3500 
L 2222 3053 
L 1275 3053 
L 1275 0 
L 697 0 
L 697 3053 
L 147 3053 
L 147 3500 
L 697 3500 
L 697 3744 
Q 697 4328 969 4595 
Q 1241 4863 1831 4863 
L 2375 4863 
z
" transform="scale(0.015625)"/>
       <path id="DejaVuSans-63" d="M 3122 3366 
L 3122 2828 
Q 2878 2963 2633 3030 
Q 2388 3097 2138 3097 
Q 1578 3097 1268 2742 
Q 959 2388 959 1747 
Q 959 1106 1268 751 
Q 1578 397 2138 397 
Q 2388 397 2633 464 
Q 2878 531 3122 666 
L 3122 134 
Q 2881 22 2623 -34 
Q 2366 -91 2075 -91 
Q 1284 -91 818 406 
Q 353 903 353 1747 
Q 353 2603 823 3093 
Q 1294 3584 2113 3584 
Q 2378 3584 2631 3529 
Q 2884 3475 3122 3366 
z
" transform="scale(0.015625)"/>
       <path id="DejaVuSans-28" d="M 1984 4856 
Q 1566 4138 1362 3434 
Q 1159 2731 1159 2009 
Q 1159 1288 1364 580 
Q 1569 -128 1984 -844 
L 1484 -844 
Q 1016 -109 783 600 
Q 550 1309 550 2009 
Q 550 2706 781 3412 
Q 1013 4119 1484 4856 
L 1984 4856 
z
" transform="scale(0.015625)"/>
       <path id="DejaVuSans-394" d="M 2188 4044 
L 906 525 
L 3472 525 
L 2188 4044 
z
M 50 0 
L 1831 4666 
L 2547 4666 
L 4325 0 
L 50 0 
z
" transform="scale(0.015625)"/>
       <path id="DejaVuSans-29" d="M 513 4856 
L 1013 4856 
Q 1481 4119 1714 3412 
Q 1947 2706 1947 2009 
Q 1947 1309 1714 600 
Q 1481 -109 1013 -844 
L 513 -844 
Q 928 -128 1133 580 
Q 1338 1288 1338 2009 
Q 1338 2731 1133 3434 
Q 928 4138 513 4856 
z
" transform="scale(0.015625)"/>
      </defs>
      <use xlink:href="#DejaVuSans-46" transform="translate(0 0.015625)"/>
      <use xlink:href="#DejaVuSans-69" transform="translate(57.519531 0.015625)"/>
      <use xlink:href="#DejaVuSans-74" transform="translate(85.302734 0.015625)"/>
      <use xlink:href="#DejaVuSans-6e" transform="translate(124.511719 0.015625)"/>
      <use xlink:href="#DejaVuSans-65" transform="translate(187.890625 0.015625)"/>
      <use xlink:href="#DejaVuSans-73" transform="translate(249.414062 0.015625)"/>
      <use xlink:href="#DejaVuSans-73" transform="translate(301.513672 0.015625)"/>
      <use xlink:href="#DejaVuSans-20" transform="translate(353.613281 0.015625)"/>
      <use xlink:href="#DejaVuSans-65" transform="translate(385.400391 0.015625)"/>
      <use xlink:href="#DejaVuSans-66" transform="translate(446.923828 0.015625)"/>
      <use xlink:href="#DejaVuSans-66" transform="translate(482.128906 0.015625)"/>
      <use xlink:href="#DejaVuSans-65" transform="translate(517.333984 0.015625)"/>
      <use xlink:href="#DejaVuSans-63" transform="translate(578.857422 0.015625)"/>
      <use xlink:href="#DejaVuSans-74" transform="translate(633.837891 0.015625)"/>
      <use xlink:href="#DejaVuSans-20" transform="translate(673.046875 0.015625)"/>
      <use xlink:href="#DejaVuSans-28" transform="translate(704.833984 0.015625)"/>
      <use xlink:href="#DejaVuSans-394" transform="translate(743.847656 0.015625)"/>
      <use xlink:href="#DejaVuSans-29" transform="translate(812.255859 0.015625)"/>
     </g>
    </g>
   </g>
   <g id="matplotlib.axis_2">
    <g id="ytick_1">
     <g id="line2d_8">
      <defs>
       <path id="mafa809d517" d="M 0 0 
L -3.5 0 
" style="stroke: #000000; stroke-width: 0.8"/>
      </defs>
      <g>
       <use xlink:href="#mafa809d517" x="64.856875" y="368.3955" style="stroke: #000000; stroke-width: 0.8"/>
      </g>
     </g>
     <g id="text_9">
      <!-- 0.00 -->
      <g transform="translate(26.685 373.714406) scale(0.14 -0.14)">
       <defs>
        <path id="DejaVuSans-2e" d="M 684 794 
L 1344 794 
L 1344 0 
L 684 0 
L 684 794 
z
" transform="scale(0.015625)"/>
       </defs>
       <use xlink:href="#DejaVuSans-30"/>
       <use xlink:href="#DejaVuSans-2e" x="63.623047"/>
       <use xlink:href="#DejaVuSans-30" x="95.410156"/>
       <use xlink:href="#DejaVuSans-30" x="159.033203"/>
      </g>
     </g>
    </g>
    <g id="ytick_2">
     <g id="line2d_9">
      <g>
       <use xlink:href="#mafa809d517" x="64.856875" y="331.213748" style="stroke: #000000; stroke-width: 0.8"/>
      </g>
     </g>
     <g id="text_10">
      <!-- 0.02 -->
      <g transform="translate(26.685 336.532654) scale(0.14 -0.14)">
       <use xlink:href="#DejaVuSans-30"/>
       <use xlink:href="#DejaVuSans-2e" x="63.623047"/>
       <use xlink:href="#DejaVuSans-30" x="95.410156"/>
       <use xlink:href="#DejaVuSans-32" x="159.033203"/>
      </g>
     </g>
    </g>
    <g id="ytick_3">
     <g id="line2d_10">
      <g>
       <use xlink:href="#mafa809d517" x="64.856875" y="294.031995" style="stroke: #000000; stroke-width: 0.8"/>
      </g>
     </g>
     <g id="text_11">
      <!-- 0.04 -->
      <g transform="translate(26.685 299.350901) scale(0.14 -0.14)">
       <use xlink:href="#DejaVuSans-30"/>
       <use xlink:href="#DejaVuSans-2e" x="63.623047"/>
       <use xlink:href="#DejaVuSans-30" x="95.410156"/>
       <use xlink:href="#DejaVuSans-34" x="159.033203"/>
      </g>
     </g>
    </g>
    <g id="ytick_4">
     <g id="line2d_11">
      <g>
       <use xlink:href="#mafa809d517" x="64.856875" y="256.850243" style="stroke: #000000; stroke-width: 0.8"/>
      </g>
     </g>
     <g id="text_12">
      <!-- 0.06 -->
      <g transform="translate(26.685 262.169149) scale(0.14 -0.14)">
       <defs>
        <path id="DejaVuSans-36" d="M 2113 2584 
Q 1688 2584 1439 2293 
Q 1191 2003 1191 1497 
Q 1191 994 1439 701 
Q 1688 409 2113 409 
Q 2538 409 2786 701 
Q 3034 994 3034 1497 
Q 3034 2003 2786 2293 
Q 2538 2584 2113 2584 
z
M 3366 4563 
L 3366 3988 
Q 3128 4100 2886 4159 
Q 2644 4219 2406 4219 
Q 1781 4219 1451 3797 
Q 1122 3375 1075 2522 
Q 1259 2794 1537 2939 
Q 1816 3084 2150 3084 
Q 2853 3084 3261 2657 
Q 3669 2231 3669 1497 
Q 3669 778 3244 343 
Q 2819 -91 2113 -91 
Q 1303 -91 875 529 
Q 447 1150 447 2328 
Q 447 3434 972 4092 
Q 1497 4750 2381 4750 
Q 2619 4750 2861 4703 
Q 3103 4656 3366 4563 
z
" transform="scale(0.015625)"/>
       </defs>
       <use xlink:href="#DejaVuSans-30"/>
       <use xlink:href="#DejaVuSans-2e" x="63.623047"/>
       <use xlink:href="#DejaVuSans-30" x="95.410156"/>
       <use xlink:href="#DejaVuSans-36" x="159.033203"/>
      </g>
     </g>
    </g>
    <g id="ytick_5">
     <g id="line2d_12">
      <g>
       <use xlink:href="#mafa809d517" x="64.856875" y="219.66849" style="stroke: #000000; stroke-width: 0.8"/>
      </g>
     </g>
     <g id="text_13">
      <!-- 0.08 -->
      <g transform="translate(26.685 224.987396) scale(0.14 -0.14)">
       <defs>
        <path id="DejaVuSans-38" d="M 2034 2216 
Q 1584 2216 1326 1975 
Q 1069 1734 1069 1313 
Q 1069 891 1326 650 
Q 1584 409 2034 409 
Q 2484 409 2743 651 
Q 3003 894 3003 1313 
Q 3003 1734 2745 1975 
Q 2488 2216 2034 2216 
z
M 1403 2484 
Q 997 2584 770 2862 
Q 544 3141 544 3541 
Q 544 4100 942 4425 
Q 1341 4750 2034 4750 
Q 2731 4750 3128 4425 
Q 3525 4100 3525 3541 
Q 3525 3141 3298 2862 
Q 3072 2584 2669 2484 
Q 3125 2378 3379 2068 
Q 3634 1759 3634 1313 
Q 3634 634 3220 271 
Q 2806 -91 2034 -91 
Q 1263 -91 848 271 
Q 434 634 434 1313 
Q 434 1759 690 2068 
Q 947 2378 1403 2484 
z
M 1172 3481 
Q 1172 3119 1398 2916 
Q 1625 2713 2034 2713 
Q 2441 2713 2670 2916 
Q 2900 3119 2900 3481 
Q 2900 3844 2670 4047 
Q 2441 4250 2034 4250 
Q 1625 4250 1398 4047 
Q 1172 3844 1172 3481 
z
" transform="scale(0.015625)"/>
       </defs>
       <use xlink:href="#DejaVuSans-30"/>
       <use xlink:href="#DejaVuSans-2e" x="63.623047"/>
       <use xlink:href="#DejaVuSans-30" x="95.410156"/>
       <use xlink:href="#DejaVuSans-38" x="159.033203"/>
      </g>
     </g>
    </g>
    <g id="ytick_6">
     <g id="line2d_13">
      <g>
       <use xlink:href="#mafa809d517" x="64.856875" y="182.486738" style="stroke: #000000; stroke-width: 0.8"/>
      </g>
     </g>
     <g id="text_14">
      <!-- 0.10 -->
      <g transform="translate(26.685 187.805644) scale(0.14 -0.14)">
       <use xlink:href="#DejaVuSans-30"/>
       <use xlink:href="#DejaVuSans-2e" x="63.623047"/>
       <use xlink:href="#DejaVuSans-31" x="95.410156"/>
       <use xlink:href="#DejaVuSans-30" x="159.033203"/>
      </g>
     </g>
    </g>
    <g id="ytick_7">
     <g id="line2d_14">
      <g>
       <use xlink:href="#mafa809d517" x="64.856875" y="145.304985" style="stroke: #000000; stroke-width: 0.8"/>
      </g>
     </g>
     <g id="text_15">
      <!-- 0.12 -->
      <g transform="translate(26.685 150.623891) scale(0.14 -0.14)">
       <use xlink:href="#DejaVuSans-30"/>
       <use xlink:href="#DejaVuSans-2e" x="63.623047"/>
       <use xlink:href="#DejaVuSans-31" x="95.410156"/>
       <use xlink:href="#DejaVuSans-32" x="159.033203"/>
      </g>
     </g>
    </g>
    <g id="ytick_8">
     <g id="line2d_15">
      <g>
       <use xlink:href="#mafa809d517" x="64.856875" y="108.123233" style="stroke: #000000; stroke-width: 0.8"/>
      </g>
     </g>
     <g id="text_16">
      <!-- 0.14 -->
      <g transform="translate(26.685 113.442139) scale(0.14 -0.14)">
       <use xlink:href="#DejaVuSans-30"/>
       <use xlink:href="#DejaVuSans-2e" x="63.623047"/>
       <use xlink:href="#DejaVuSans-31" x="95.410156"/>
       <use xlink:href="#DejaVuSans-34" x="159.033203"/>
      </g>
     </g>
    </g>
    <g id="ytick_9">
     <g id="line2d_16">
      <g>
       <use xlink:href="#mafa809d517" x="64.856875" y="70.94148" style="stroke: #000000; stroke-width: 0.8"/>
      </g>
     </g>
     <g id="text_17">
      <!-- 0.16 -->
      <g transform="translate(26.685 76.260386) scale(0.14 -0.14)">
       <use xlink:href="#DejaVuSans-30"/>
       <use xlink:href="#DejaVuSans-2e" x="63.623047"/>
       <use xlink:href="#DejaVuSans-31" x="95.410156"/>
       <use xlink:href="#DejaVuSans-36" x="159.033203"/>
      </g>
     </g>
    </g>
    <g id="text_18">
     <!-- Density -->
     <g transform="translate(19.3575 232.48925) rotate(-90) scale(0.16 -0.16)">
      <defs>
       <path id="DejaVuSans-44" d="M 1259 4147 
L 1259 519 
L 2022 519 
Q 2988 519 3436 956 
Q 3884 1394 3884 2338 
Q 3884 3275 3436 3711 
Q 2988 4147 2022 4147 
L 1259 4147 
z
M 628 4666 
L 1925 4666 
Q 3281 4666 3915 4102 
Q 4550 3538 4550 2338 
Q 4550 1131 3912 565 
Q 3275 0 1925 0 
L 628 0 
L 628 4666 
z
" transform="scale(0.015625)"/>
       <path id="DejaVuSans-79" d="M 2059 -325 
Q 1816 -950 1584 -1140 
Q 1353 -1331 966 -1331 
L 506 -1331 
L 506 -850 
L 844 -850 
Q 1081 -850 1212 -737 
Q 1344 -625 1503 -206 
L 1606 56 
L 191 3500 
L 800 3500 
L 1894 763 
L 2988 3500 
L 3597 3500 
L 2059 -325 
z
" transform="scale(0.015625)"/>
      </defs>
      <use xlink:href="#DejaVuSans-44"/>
      <use xlink:href="#DejaVuSans-65" x="77.001953"/>
      <use xlink:href="#DejaVuSans-6e" x="138.525391"/>
      <use xlink:href="#DejaVuSans-73" x="201.904297"/>
      <use xlink:href="#DejaVuSans-69" x="254.003906"/>
      <use xlink:href="#DejaVuSans-74" x="281.787109"/>
      <use xlink:href="#DejaVuSans-79" x="320.996094"/>
     </g>
    </g>
   </g>
   <g id="patch_3">
    <path d="M 266.36529 368.3955 
L 266.36529 368.371764 
L 268.943555 368.371764 
L 268.943555 368.3955 
L 271.521821 368.3955 
L 271.521821 368.324291 
L 274.100086 368.324291 
L 274.100086 368.348027 
L 276.678352 368.348027 
L 276.678352 368.276818 
L 279.256617 368.276818 
L 279.256617 368.181873 
L 281.834882 368.181873 
L 281.834882 368.181873 
L 284.413148 368.181873 
L 284.413148 367.920774 
L 286.991413 367.920774 
L 286.991413 367.730883 
L 289.569678 367.730883 
L 289.569678 367.398575 
L 292.147944 367.398575 
L 292.147944 366.686485 
L 294.726209 366.686485 
L 294.726209 366.164286 
L 297.304474 366.164286 
L 297.304474 365.072416 
L 299.88274 365.072416 
L 299.88274 363.339665 
L 302.461005 363.339665 
L 302.461005 360.823615 
L 305.03927 360.823615 
L 305.03927 358.236357 
L 307.617536 358.236357 
L 307.617536 354.41481 
L 310.195801 354.41481 
L 310.195801 348.456995 
L 312.774066 348.456995 
L 312.774066 343.875886 
L 315.352332 343.875886 
L 315.352332 335.28334 
L 317.930597 335.28334 
L 317.930597 323.723754 
L 320.508863 323.723754 
L 320.508863 309.387019 
L 323.087128 309.387019 
L 323.087128 299.84502 
L 325.665393 299.84502 
L 325.665393 276.179913 
L 328.243659 276.179913 
L 328.243659 260.893726 
L 330.821924 260.893726 
L 330.821924 240.76533 
L 333.400189 240.76533 
L 333.400189 220.257154 
L 335.978455 220.257154 
L 335.978455 194.716878 
L 338.55672 194.716878 
L 338.55672 172.784522 
L 341.134985 172.784522 
L 341.134985 152.798544 
L 343.713251 152.798544 
L 343.713251 132.693885 
L 346.291516 132.693885 
L 346.291516 112.30439 
L 348.869781 112.30439 
L 348.869781 98.276227 
L 351.448047 98.276227 
L 351.448047 81.82696 
L 354.026312 81.82696 
L 354.026312 82.111796 
L 356.604577 82.111796 
L 356.604577 80.046737 
L 359.182843 80.046737 
L 359.182843 88.496865 
L 361.761108 88.496865 
L 361.761108 96.662158 
L 364.339374 96.662158 
L 364.339374 116.387036 
L 366.917639 116.387036 
L 366.917639 143.280282 
L 369.495904 143.280282 
L 369.495904 175.775298 
L 372.07417 175.775298 
L 372.07417 215.391209 
L 374.652435 215.391209 
L 374.652435 253.820304 
L 377.2307 253.820304 
L 377.2307 284.32147 
L 379.808966 284.32147 
L 379.808966 306.799761 
L 382.387231 306.799761 
L 382.387231 325.598923 
L 384.965496 325.598923 
L 384.965496 339.603349 
L 387.543762 339.603349 
L 387.543762 347.507542 
L 390.122027 347.507542 
L 390.122027 354.747118 
L 392.700292 354.747118 
L 392.700292 358.758556 
L 395.278558 358.758556 
L 395.278558 362.413948 
L 397.856823 362.413948 
L 397.856823 364.289117 
L 400.435088 364.289117 
L 400.435088 365.713296 
L 403.013354 365.713296 
L 403.013354 366.852639 
L 405.591619 366.852639 
L 405.591619 367.540993 
L 408.169885 367.540993 
L 408.169885 367.707147 
L 410.74815 367.707147 
L 410.74815 367.968246 
L 413.326415 367.968246 
L 413.326415 368.181873 
L 415.904681 368.181873 
L 415.904681 368.253082 
L 418.482946 368.253082 
L 418.482946 368.348027 
L 421.061211 368.348027 
L 421.061211 368.3955 
" clip-path="url(#p18d6034740)" style="fill: none; opacity: 0.5; stroke: #322694; stroke-width: 2; stroke-linejoin: miter"/>
   </g>
   <g id="line2d_17">
    <path d="M 266.36529 368.037967 
L 273.361588 367.679232 
L 278.803153 367.177854 
L 282.689985 366.626941 
L 286.576818 365.840112 
L 289.686283 364.978987 
L 292.795749 363.845049 
L 295.127848 362.768748 
L 297.459948 361.454516 
L 299.792047 359.854839 
L 302.124146 357.914276 
L 304.456246 355.568616 
L 306.010978 353.743792 
L 307.565711 351.682041 
L 309.120444 349.356983 
L 310.675177 346.740161 
L 312.22991 343.801059 
L 313.784643 340.507169 
L 315.339376 336.82412 
L 316.894109 332.715882 
L 318.448841 328.145063 
L 320.003574 323.073309 
L 321.558307 317.461837 
L 323.11304 311.272104 
L 325.445139 300.821875 
L 327.777239 288.870571 
L 330.109338 275.322753 
L 332.441437 260.116267 
L 334.773537 243.237657 
L 337.105636 224.74051 
L 340.215102 197.820298 
L 344.101934 161.533702 
L 349.543499 110.258876 
L 351.875598 90.375994 
L 353.430331 78.611427 
L 354.985064 68.47409 
L 356.539797 60.361143 
L 357.317163 57.191118 
L 358.09453 54.680078 
L 358.871896 52.878228 
L 359.649263 51.834422 
L 360.426629 51.5955 
L 361.203996 52.205565 
L 361.981362 53.705198 
L 362.758728 56.13061 
L 363.536095 59.512753 
L 364.313461 63.876374 
L 365.090828 69.239039 
L 365.868194 75.61013 
L 367.422927 91.36817 
L 368.97766 111.024025 
L 370.532393 134.259057 
L 372.087126 160.539168 
L 374.419225 203.940886 
L 378.306057 277.736742 
L 379.86079 303.987338 
L 381.415523 326.455024 
L 382.970256 344.177769 
L 383.747622 351.085271 
L 384.524989 356.674542 
L 385.302355 360.991156 
L 386.079722 364.129944 
L 386.857088 366.234373 
L 387.634454 367.491387 
L 388.411821 368.119896 
L 389.189187 368.350624 
L 391.521287 368.3955 
L 421.061211 368.3955 
L 421.061211 368.3955 
" clip-path="url(#p18d6034740)" style="fill: none; stroke: #322694; stroke-width: 2.5; stroke-linecap: square"/>
   </g>
   <g id="patch_4">
    <path d="M 225.789465 368.3955 
L 225.789465 368.343974 
L 229.352617 368.343974 
L 229.352617 368.36115 
L 232.915768 368.36115 
L 232.915768 368.343974 
L 236.478919 368.343974 
L 236.478919 368.36115 
L 240.04207 368.36115 
L 240.04207 368.240923 
L 243.605222 368.240923 
L 243.605222 368.326799 
L 247.168373 368.326799 
L 247.168373 368.137872 
L 250.731524 368.137872 
L 250.731524 368.00047 
L 254.294676 368.00047 
L 254.294676 367.708491 
L 257.857827 367.708491 
L 257.857827 367.622615 
L 261.420978 367.622615 
L 261.420978 367.193235 
L 264.984129 367.193235 
L 264.984129 366.334474 
L 268.547281 366.334474 
L 268.547281 365.389836 
L 272.110432 365.389836 
L 272.110432 363.72384 
L 275.673583 363.72384 
L 275.673583 362.281122 
L 279.236734 362.281122 
L 279.236734 359.258283 
L 282.799886 359.258283 
L 282.799886 354.672499 
L 286.363037 354.672499 
L 286.363037 350.49892 
L 289.926188 350.49892 
L 289.926188 345.535282 
L 293.48934 345.535282 
L 293.48934 336.483941 
L 297.052491 336.483941 
L 297.052491 327.157796 
L 300.615642 327.157796 
L 300.615642 317.041591 
L 304.178793 317.041591 
L 304.178793 303.009436 
L 307.741945 303.009436 
L 307.741945 287.156708 
L 311.305096 287.156708 
L 311.305096 271.836411 
L 314.868247 271.836411 
L 314.868247 257.958833 
L 318.431399 257.958833 
L 318.431399 239.083266 
L 321.99455 239.083266 
L 321.99455 224.776308 
L 325.557701 224.776308 
L 325.557701 205.591586 
L 329.120852 205.591586 
L 329.120852 194.238766 
L 332.684004 194.238766 
L 332.684004 180.910795 
L 336.247155 180.910795 
L 336.247155 170.863291 
L 339.810306 170.863291 
L 339.810306 164.869139 
L 343.373458 164.869139 
L 343.373458 159.424594 
L 346.936609 159.424594 
L 346.936609 166.947341 
L 350.49976 166.947341 
L 350.49976 167.514123 
L 354.062911 167.514123 
L 354.062911 178.866944 
L 357.626063 178.866944 
L 357.626063 192.864748 
L 361.189214 192.864748 
L 361.189214 212.100995 
L 364.752365 212.100995 
L 364.752365 233.501319 
L 368.315517 233.501319 
L 368.315517 250.968519 
L 371.878668 250.968519 
L 371.878668 279.513735 
L 375.441819 279.513735 
L 375.441819 304.606732 
L 379.00497 304.606732 
L 379.00497 324.238009 
L 382.568122 324.238009 
L 382.568122 336.827445 
L 386.131273 336.827445 
L 386.131273 347.201278 
L 389.694424 347.201278 
L 389.694424 353.676336 
L 393.257576 353.676336 
L 393.257576 358.330821 
L 396.820727 358.330821 
L 396.820727 362.349822 
L 400.383878 362.349822 
L 400.383878 364.410849 
L 403.947029 364.410849 
L 403.947029 366.214247 
L 407.510181 366.214247 
L 407.510181 366.952781 
L 411.073332 366.952781 
L 411.073332 367.571089 
L 414.636483 367.571089 
L 414.636483 367.622615 
L 418.199635 367.622615 
L 418.199635 368.137872 
L 421.762786 368.137872 
L 421.762786 368.155047 
L 425.325937 368.155047 
L 425.325937 368.292449 
L 428.889088 368.292449 
L 428.889088 368.326799 
L 432.45224 368.326799 
L 432.45224 368.378325 
L 436.015391 368.378325 
L 436.015391 368.378325 
L 439.578542 368.378325 
L 439.578542 368.3955 
" clip-path="url(#p18d6034740)" style="fill: none; opacity: 0.5; stroke: #802f95; stroke-width: 2; stroke-linejoin: miter"/>
   </g>
   <g id="line2d_18">
    <path d="M 225.789465 368.230827 
L 237.606952 367.946293 
L 245.127171 367.560848 
L 251.573073 366.994437 
L 255.87034 366.430809 
L 260.167608 365.657323 
L 263.390559 364.898121 
L 266.61351 363.945443 
L 269.836461 362.755808 
L 273.059412 361.277929 
L 275.208046 360.103361 
L 277.35668 358.754313 
L 279.505314 357.20897 
L 281.653948 355.443659 
L 283.802582 353.432876 
L 285.951216 351.149379 
L 288.099849 348.564342 
L 290.248483 345.647592 
L 292.397117 342.367944 
L 294.545751 338.693648 
L 296.694385 334.592958 
L 298.843019 330.034856 
L 300.991653 324.989924 
L 303.140287 319.43139 
L 305.288921 313.336357 
L 307.437555 306.687206 
L 309.586189 299.473191 
L 311.734823 291.692196 
L 314.957774 278.97939 
L 318.180725 265.096245 
L 321.403676 250.205435 
L 325.700943 229.242485 
L 333.221162 192.305812 
L 336.444113 177.882044 
L 338.592747 169.264568 
L 340.741381 161.721761 
L 341.815698 158.42913 
L 342.890015 155.49599 
L 343.964332 152.952027 
L 345.038649 150.826128 
L 346.112966 149.14605 
L 347.187283 147.938078 
L 348.2616 147.226657 
L 349.335917 147.034023 
L 350.410234 147.379822 
L 351.484551 148.280726 
L 352.558868 149.750052 
L 353.633185 151.797392 
L 354.707502 154.428258 
L 355.781819 157.643749 
L 356.856136 161.440249 
L 357.930453 165.80917 
L 359.00477 170.736737 
L 361.153403 182.185898 
L 363.302037 195.569571 
L 365.450671 210.584162 
L 368.673622 235.308782 
L 376.193841 294.866678 
L 378.342475 310.113635 
L 380.491109 323.781206 
L 382.639743 335.581301 
L 384.788377 345.351754 
L 385.862694 349.462549 
L 386.937011 353.067089 
L 388.011328 356.183006 
L 389.085645 358.835226 
L 390.159962 361.055026 
L 391.234279 362.878895 
L 392.308596 364.347231 
L 393.382913 365.502918 
L 394.45723 366.389841 
L 395.531547 367.051427 
L 396.605863 367.529257 
L 398.754497 368.083627 
L 400.903131 368.308317 
L 405.200399 368.393768 
L 439.578542 368.3955 
L 439.578542 368.3955 
" clip-path="url(#p18d6034740)" style="fill: none; stroke: #802f95; stroke-width: 2.5; stroke-linecap: square"/>
   </g>
   <g id="patch_5">
    <path d="M 177.60273 368.3955 
L 177.60273 368.356291 
L 182.285235 368.356291 
L 182.285235 368.330152 
L 186.96774 368.330152 
L 186.96774 368.317083 
L 191.650245 368.317083 
L 191.650245 368.330152 
L 196.332751 368.330152 
L 196.332751 368.212526 
L 201.015256 368.212526 
L 201.015256 368.042622 
L 205.697761 368.042622 
L 205.697761 367.715884 
L 210.380266 367.715884 
L 210.380266 367.768162 
L 215.062771 367.768162 
L 215.062771 367.23231 
L 219.745276 367.23231 
L 219.745276 366.866363 
L 224.427781 366.866363 
L 224.427781 365.716243 
L 229.110286 365.716243 
L 229.110286 364.618401 
L 233.792792 364.618401 
L 233.792792 362.880152 
L 238.475297 362.880152 
L 238.475297 361.220319 
L 243.157802 361.220319 
L 243.157802 358.018281 
L 247.840307 358.018281 
L 247.840307 354.973077 
L 252.522812 354.973077 
L 252.522812 350.516362 
L 257.205317 350.516362 
L 257.205317 345.288543 
L 261.887822 345.288543 
L 261.887822 337.459886 
L 266.570328 337.459886 
L 266.570328 331.0166 
L 271.252833 331.0166 
L 271.252833 323.109524 
L 275.935338 323.109524 
L 275.935338 313.529548 
L 280.617843 313.529548 
L 280.617843 300.159402 
L 285.300348 300.159402 
L 285.300348 288.99801 
L 289.982853 288.99801 
L 289.982853 279.548729 
L 294.665358 279.548729 
L 294.665358 266.309279 
L 299.347863 266.309279 
L 299.347863 253.671029 
L 304.030369 253.671029 
L 304.030369 243.019349 
L 308.712874 243.019349 
L 308.712874 235.935655 
L 313.395379 235.935655 
L 313.395379 230.106638 
L 318.077884 230.106638 
L 318.077884 225.519227 
L 322.760389 225.519227 
L 322.760389 223.375822 
L 327.442894 223.375822 
L 327.442894 223.205918 
L 332.125399 223.205918 
L 332.125399 225.950522 
L 336.807905 225.950522 
L 336.807905 230.420307 
L 341.49041 230.420307 
L 341.49041 237.621627 
L 346.172915 237.621627 
L 346.172915 247.502203 
L 350.85542 247.502203 
L 350.85542 261.787217 
L 355.537925 261.787217 
L 355.537925 272.255923 
L 360.22043 272.255923 
L 360.22043 287.050648 
L 364.902935 287.050648 
L 364.902935 298.49957 
L 369.585441 298.49957 
L 369.585441 313.281226 
L 374.267946 313.281226 
L 374.267946 327.775352 
L 378.950451 327.775352 
L 378.950451 338.858327 
L 383.632956 338.858327 
L 383.632956 348.111565 
L 388.315461 348.111565 
L 388.315461 354.084348 
L 392.997966 354.084348 
L 392.997966 358.737106 
L 397.680471 358.737106 
L 397.680471 361.468641 
L 402.362976 361.468641 
L 402.362976 364.043341 
L 407.045482 364.043341 
L 407.045482 365.690104 
L 411.727987 365.690104 
L 411.727987 366.814085 
L 416.410492 366.814085 
L 416.410492 367.101615 
L 421.092997 367.101615 
L 421.092997 367.728953 
L 425.775502 367.728953 
L 425.775502 367.951135 
L 430.458007 367.951135 
L 430.458007 368.042622 
L 435.140512 368.042622 
L 435.140512 368.225596 
L 439.823018 368.225596 
L 439.823018 368.356291 
L 444.505523 368.356291 
L 444.505523 368.343222 
L 449.188028 368.343222 
L 449.188028 368.38243 
L 453.870533 368.38243 
L 453.870533 368.38243 
L 458.553038 368.38243 
L 458.553038 368.3955 
" clip-path="url(#p18d6034740)" style="fill: none; opacity: 0.5; stroke: #ff4126; stroke-width: 2; stroke-linejoin: miter"/>
   </g>
   <g id="line2d_19">
    <path d="M 177.60273 368.211394 
L 191.720836 367.915078 
L 201.60351 367.479931 
L 208.662563 366.965103 
L 214.309805 366.370292 
L 219.957048 365.552696 
L 224.19248 364.750934 
L 228.427911 363.747542 
L 232.663343 362.500134 
L 236.898775 360.960142 
L 239.722396 359.74415 
L 242.546017 358.356234 
L 245.369638 356.777662 
L 248.19326 354.988795 
L 251.016881 352.969302 
L 253.840502 350.698437 
L 256.664123 348.155389 
L 259.487744 345.319721 
L 262.311366 342.171893 
L 265.134987 338.693882 
L 267.958608 334.869891 
L 270.782229 330.687156 
L 273.60585 326.136838 
L 276.429472 321.214985 
L 279.253093 315.923566 
L 282.076714 310.271521 
L 286.312146 301.15689 
L 290.547577 291.367785 
L 296.19482 277.532785 
L 307.489305 249.326797 
L 311.724736 239.564341 
L 314.548358 233.618676 
L 317.371979 228.271343 
L 320.1956 223.650082 
L 321.607411 221.650798 
L 323.019221 219.879114 
L 324.431032 218.349313 
L 325.842842 217.074918 
L 327.254653 216.068538 
L 328.666463 215.341729 
L 330.078274 214.904846 
L 331.490085 214.766904 
L 332.901895 214.935438 
L 334.313706 215.416379 
L 335.725516 216.213926 
L 337.137327 217.330444 
L 338.549138 218.766364 
L 339.960948 220.520104 
L 341.372759 222.588002 
L 342.784569 224.964279 
L 344.19638 227.641009 
L 345.608191 230.608123 
L 348.431812 237.362678 
L 351.255433 245.106039 
L 354.079054 253.686163 
L 356.902675 262.925298 
L 361.138107 277.584067 
L 369.608971 307.169875 
L 372.432592 316.370922 
L 375.256213 324.954954 
L 378.079834 332.794218 
L 380.903455 339.797551 
L 383.727077 345.91258 
L 386.550698 351.125472 
L 387.962508 353.399219 
L 389.374319 355.458255 
L 390.78613 357.31014 
L 392.19794 358.96397 
L 393.609751 360.430144 
L 395.021561 361.720115 
L 396.433372 362.846134 
L 397.845183 363.821001 
L 400.668804 365.369757 
L 403.492425 366.470702 
L 406.316046 367.222772 
L 409.139667 367.714485 
L 413.375099 368.123589 
L 419.022341 368.33208 
L 430.316826 368.394409 
L 458.553038 368.3955 
L 458.553038 368.3955 
" clip-path="url(#p18d6034740)" style="fill: none; stroke: #ff4126; stroke-width: 2.5; stroke-linecap: square"/>
   </g>
   <g id="patch_6">
    <path d="M 64.856875 368.3955 
L 64.856875 368.387274 
L 72.296875 368.387274 
L 72.296875 368.3955 
L 79.736875 368.3955 
L 79.736875 368.379049 
L 87.176875 368.379049 
L 87.176875 368.3955 
L 94.616875 368.3955 
L 94.616875 368.379049 
L 102.056875 368.379049 
L 102.056875 368.32147 
L 109.496875 368.32147 
L 109.496875 368.305019 
L 116.936875 368.305019 
L 116.936875 368.288568 
L 124.376875 368.288568 
L 124.376875 368.263892 
L 131.816875 368.263892 
L 131.816875 367.951322 
L 139.256875 367.951322 
L 139.256875 367.786811 
L 146.696875 367.786811 
L 146.696875 367.252152 
L 154.136875 367.252152 
L 154.136875 366.742169 
L 161.576875 366.742169 
L 161.576875 366.010098 
L 169.016875 366.010098 
L 169.016875 364.677563 
L 176.456875 364.677563 
L 176.456875 363.205194 
L 183.896875 363.205194 
L 183.896875 360.622379 
L 191.336875 360.622379 
L 191.336875 357.455551 
L 198.776875 357.455551 
L 198.776875 353.482623 
L 206.216875 353.482623 
L 206.216875 349.040839 
L 213.656875 349.040839 
L 213.656875 342.633155 
L 221.096875 342.633155 
L 221.096875 334.860033 
L 228.536875 334.860033 
L 228.536875 327.119814 
L 235.976875 327.119814 
L 235.976875 318.787357 
L 243.416875 318.787357 
L 243.416875 309.632347 
L 250.856875 309.632347 
L 250.856875 298.527888 
L 258.296875 298.527888 
L 258.296875 289.150789 
L 265.736875 289.150789 
L 265.736875 279.831269 
L 273.176875 279.831269 
L 273.176875 273.127466 
L 280.616875 273.127466 
L 280.616875 268.34021 
L 288.056875 268.34021 
L 288.056875 263.668112 
L 295.496875 263.668112 
L 295.496875 265.864327 
L 302.936875 265.864327 
L 302.936875 266.859615 
L 310.376875 266.859615 
L 310.376875 271.013506 
L 317.816875 271.013506 
L 317.816875 276.195587 
L 325.256875 276.195587 
L 325.256875 284.70078 
L 332.696875 284.70078 
L 332.696875 293.362258 
L 340.136875 293.362258 
L 340.136875 304.080118 
L 347.576875 304.080118 
L 347.576875 313.078842 
L 355.016875 313.078842 
L 355.016875 322.480618 
L 362.456875 322.480618 
L 362.456875 333.741362 
L 369.896875 333.741362 
L 369.896875 342.937499 
L 377.336875 342.937499 
L 377.336875 350.916259 
L 384.776875 350.916259 
L 384.776875 355.95028 
L 392.216875 355.95028 
L 392.216875 360.41674 
L 399.656875 360.41674 
L 399.656875 362.966653 
L 407.096875 362.966653 
L 407.096875 365.278026 
L 414.536875 365.278026 
L 414.536875 366.248638 
L 421.976875 366.248638 
L 421.976875 366.997161 
L 429.416875 366.997161 
L 429.416875 367.69633 
L 436.856875 367.69633 
L 436.856875 367.877292 
L 444.296875 367.877292 
L 444.296875 368.165185 
L 451.736875 368.165185 
L 451.736875 368.255666 
L 459.176875 368.255666 
L 459.176875 368.247441 
L 466.616875 368.247441 
L 466.616875 368.346147 
L 474.056875 368.346147 
L 474.056875 368.370823 
L 481.496875 368.370823 
L 481.496875 368.3955 
L 488.936875 368.3955 
L 488.936875 368.387274 
L 496.376875 368.387274 
L 496.376875 368.387274 
L 503.816875 368.387274 
L 503.816875 368.387274 
L 511.256875 368.387274 
L 511.256875 368.3955 
" clip-path="url(#p18d6034740)" style="fill: none; opacity: 0.5; stroke: #e69508; stroke-width: 2; stroke-linejoin: miter"/>
   </g>
   <g id="line2d_20">
    <path d="M 64.856875 368.377354 
L 102.991548 368.234131 
L 120.937277 367.976825 
L 134.396573 367.568899 
L 143.369438 367.117352 
L 152.342302 366.448229 
L 159.07195 365.7521 
L 165.801599 364.839281 
L 172.531247 363.655609 
L 177.017679 362.685478 
L 181.504111 361.54689 
L 185.990543 360.218065 
L 190.476976 358.676209 
L 194.963408 356.897925 
L 199.44984 354.859777 
L 203.936272 352.538983 
L 208.422704 349.914275 
L 212.909136 346.966899 
L 217.395568 343.681776 
L 221.882001 340.04878 
L 226.368433 336.064126 
L 230.854865 331.731816 
L 235.341297 327.065078 
L 239.827729 322.087753 
L 244.314161 316.83551 
L 251.04381 308.551385 
L 268.989538 285.87259 
L 273.47597 280.602161 
L 277.962403 275.723828 
L 282.448835 271.36197 
L 284.692051 269.413263 
L 286.935267 267.639308 
L 289.178483 266.054397 
L 291.421699 264.672099 
L 293.664915 263.505094 
L 295.908131 262.565014 
L 298.151347 261.862281 
L 300.394563 261.405955 
L 302.63778 261.203589 
L 304.880996 261.261098 
L 307.124212 261.582636 
L 309.367428 262.170497 
L 311.610644 263.025028 
L 313.85386 264.144571 
L 316.097076 265.525417 
L 318.340292 267.161794 
L 320.583508 269.04588 
L 322.826724 271.167839 
L 325.06994 273.515887 
L 327.313156 276.076385 
L 329.556372 278.83396 
L 334.042805 284.871077 
L 338.529237 291.475712 
L 343.015669 298.480269 
L 358.718182 323.618582 
L 363.204614 330.305767 
L 367.691046 336.527419 
L 372.177478 342.192054 
L 376.66391 347.238649 
L 378.907126 349.519501 
L 381.150342 351.636721 
L 383.393558 353.590969 
L 385.636774 355.384485 
L 387.879991 357.020953 
L 390.123207 358.505338 
L 392.366423 359.84372 
L 394.609639 361.043111 
L 399.096071 363.056555 
L 403.582503 364.613614 
L 408.068935 365.785976 
L 412.555367 366.644316 
L 417.0418 367.25453 
L 421.528232 367.675102 
L 428.25788 368.056306 
L 437.230744 368.28652 
L 452.933257 368.385753 
L 511.256875 368.3955 
L 511.256875 368.3955 
" clip-path="url(#p18d6034740)" style="fill: none; stroke: #e69508; stroke-width: 2.5; stroke-linecap: square"/>
   </g>
   <g id="line2d_21">
    <path d="M 373.143281 368.3955 
L 373.143281 35.7555 
" clip-path="url(#p18d6034740)" style="fill: none; stroke-dasharray: 3.7,1.6; stroke-dashoffset: 0; stroke: #808080; stroke-opacity: 0.5"/>
   </g>
   <g id="patch_7">
    <path d="M 64.856875 368.3955 
L 64.856875 35.7555 
" style="fill: none; stroke: #000000; stroke-width: 0.8; stroke-linejoin: miter; stroke-linecap: square"/>
   </g>
   <g id="patch_8">
    <path d="M 511.256875 368.3955 
L 511.256875 35.7555 
" style="fill: none; stroke: #000000; stroke-width: 0.8; stroke-linejoin: miter; stroke-linecap: square"/>
   </g>
   <g id="patch_9">
    <path d="M 64.856875 368.3955 
L 511.256875 368.3955 
" style="fill: none; stroke: #000000; stroke-width: 0.8; stroke-linejoin: miter; stroke-linecap: square"/>
   </g>
   <g id="patch_10">
    <path d="M 64.856875 35.7555 
L 511.256875 35.7555 
" style="fill: none; stroke: #000000; stroke-width: 0.8; stroke-linejoin: miter; stroke-linecap: square"/>
   </g>
   <g id="text_19">
    <!-- NK Model DFE (Walk 60%) -->
    <g transform="translate(209.741875 16.318125) scale(0.12 -0.12)">
     <defs>
      <path id="DejaVuSans-4e" d="M 628 4666 
L 1478 4666 
L 3547 763 
L 3547 4666 
L 4159 4666 
L 4159 0 
L 3309 0 
L 1241 3903 
L 1241 0 
L 628 0 
L 628 4666 
z
" transform="scale(0.015625)"/>
      <path id="DejaVuSans-4b" d="M 628 4666 
L 1259 4666 
L 1259 2694 
L 3353 4666 
L 4166 4666 
L 1850 2491 
L 4331 0 
L 3500 0 
L 1259 2247 
L 1259 0 
L 628 0 
L 628 4666 
z
" transform="scale(0.015625)"/>
      <path id="DejaVuSans-4d" d="M 628 4666 
L 1569 4666 
L 2759 1491 
L 3956 4666 
L 4897 4666 
L 4897 0 
L 4281 0 
L 4281 4097 
L 3078 897 
L 2444 897 
L 1241 4097 
L 1241 0 
L 628 0 
L 628 4666 
z
" transform="scale(0.015625)"/>
      <path id="DejaVuSans-6f" d="M 1959 3097 
Q 1497 3097 1228 2736 
Q 959 2375 959 1747 
Q 959 1119 1226 758 
Q 1494 397 1959 397 
Q 2419 397 2687 759 
Q 2956 1122 2956 1747 
Q 2956 2369 2687 2733 
Q 2419 3097 1959 3097 
z
M 1959 3584 
Q 2709 3584 3137 3096 
Q 3566 2609 3566 1747 
Q 3566 888 3137 398 
Q 2709 -91 1959 -91 
Q 1206 -91 779 398 
Q 353 888 353 1747 
Q 353 2609 779 3096 
Q 1206 3584 1959 3584 
z
" transform="scale(0.015625)"/>
      <path id="DejaVuSans-64" d="M 2906 2969 
L 2906 4863 
L 3481 4863 
L 3481 0 
L 2906 0 
L 2906 525 
Q 2725 213 2448 61 
Q 2172 -91 1784 -91 
Q 1150 -91 751 415 
Q 353 922 353 1747 
Q 353 2572 751 3078 
Q 1150 3584 1784 3584 
Q 2172 3584 2448 3432 
Q 2725 3281 2906 2969 
z
M 947 1747 
Q 947 1113 1208 752 
Q 1469 391 1925 391 
Q 2381 391 2643 752 
Q 2906 1113 2906 1747 
Q 2906 2381 2643 2742 
Q 2381 3103 1925 3103 
Q 1469 3103 1208 2742 
Q 947 2381 947 1747 
z
" transform="scale(0.015625)"/>
      <path id="DejaVuSans-6c" d="M 603 4863 
L 1178 4863 
L 1178 0 
L 603 0 
L 603 4863 
z
" transform="scale(0.015625)"/>
      <path id="DejaVuSans-45" d="M 628 4666 
L 3578 4666 
L 3578 4134 
L 1259 4134 
L 1259 2753 
L 3481 2753 
L 3481 2222 
L 1259 2222 
L 1259 531 
L 3634 531 
L 3634 0 
L 628 0 
L 628 4666 
z
" transform="scale(0.015625)"/>
      <path id="DejaVuSans-57" d="M 213 4666 
L 850 4666 
L 1831 722 
L 2809 4666 
L 3519 4666 
L 4500 722 
L 5478 4666 
L 6119 4666 
L 4947 0 
L 4153 0 
L 3169 4050 
L 2175 0 
L 1381 0 
L 213 4666 
z
" transform="scale(0.015625)"/>
      <path id="DejaVuSans-61" d="M 2194 1759 
Q 1497 1759 1228 1600 
Q 959 1441 959 1056 
Q 959 750 1161 570 
Q 1363 391 1709 391 
Q 2188 391 2477 730 
Q 2766 1069 2766 1631 
L 2766 1759 
L 2194 1759 
z
M 3341 1997 
L 3341 0 
L 2766 0 
L 2766 531 
Q 2569 213 2275 61 
Q 1981 -91 1556 -91 
Q 1019 -91 701 211 
Q 384 513 384 1019 
Q 384 1609 779 1909 
Q 1175 2209 1959 2209 
L 2766 2209 
L 2766 2266 
Q 2766 2663 2505 2880 
Q 2244 3097 1772 3097 
Q 1472 3097 1187 3025 
Q 903 2953 641 2809 
L 641 3341 
Q 956 3463 1253 3523 
Q 1550 3584 1831 3584 
Q 2591 3584 2966 3190 
Q 3341 2797 3341 1997 
z
" transform="scale(0.015625)"/>
      <path id="DejaVuSans-6b" d="M 581 4863 
L 1159 4863 
L 1159 1991 
L 2875 3500 
L 3609 3500 
L 1753 1863 
L 3688 0 
L 2938 0 
L 1159 1709 
L 1159 0 
L 581 0 
L 581 4863 
z
" transform="scale(0.015625)"/>
      <path id="DejaVuSans-25" d="M 4653 2053 
Q 4381 2053 4226 1822 
Q 4072 1591 4072 1178 
Q 4072 772 4226 539 
Q 4381 306 4653 306 
Q 4919 306 5073 539 
Q 5228 772 5228 1178 
Q 5228 1588 5073 1820 
Q 4919 2053 4653 2053 
z
M 4653 2450 
Q 5147 2450 5437 2106 
Q 5728 1763 5728 1178 
Q 5728 594 5436 251 
Q 5144 -91 4653 -91 
Q 4153 -91 3862 251 
Q 3572 594 3572 1178 
Q 3572 1766 3864 2108 
Q 4156 2450 4653 2450 
z
M 1428 4353 
Q 1159 4353 1004 4120 
Q 850 3888 850 3481 
Q 850 3069 1003 2837 
Q 1156 2606 1428 2606 
Q 1700 2606 1854 2837 
Q 2009 3069 2009 3481 
Q 2009 3884 1853 4118 
Q 1697 4353 1428 4353 
z
M 4250 4750 
L 4750 4750 
L 1831 -91 
L 1331 -91 
L 4250 4750 
z
M 1428 4750 
Q 1922 4750 2215 4408 
Q 2509 4066 2509 3481 
Q 2509 2891 2217 2550 
Q 1925 2209 1428 2209 
Q 931 2209 642 2551 
Q 353 2894 353 3481 
Q 353 4063 643 4406 
Q 934 4750 1428 4750 
z
" transform="scale(0.015625)"/>
     </defs>
     <use xlink:href="#DejaVuSans-4e"/>
     <use xlink:href="#DejaVuSans-4b" x="74.804688"/>
     <use xlink:href="#DejaVuSans-20" x="140.380859"/>
     <use xlink:href="#DejaVuSans-4d" x="172.167969"/>
     <use xlink:href="#DejaVuSans-6f" x="258.447266"/>
     <use xlink:href="#DejaVuSans-64" x="319.628906"/>
     <use xlink:href="#DejaVuSans-65" x="383.105469"/>
     <use xlink:href="#DejaVuSans-6c" x="444.628906"/>
     <use xlink:href="#DejaVuSans-20" x="472.412109"/>
     <use xlink:href="#DejaVuSans-44" x="504.199219"/>
     <use xlink:href="#DejaVuSans-46" x="581.201172"/>
     <use xlink:href="#DejaVuSans-45" x="638.720703"/>
     <use xlink:href="#DejaVuSans-20" x="701.904297"/>
     <use xlink:href="#DejaVuSans-28" x="733.691406"/>
     <use xlink:href="#DejaVuSans-57" x="772.705078"/>
     <use xlink:href="#DejaVuSans-61" x="865.207031"/>
     <use xlink:href="#DejaVuSans-6c" x="926.486328"/>
     <use xlink:href="#DejaVuSans-6b" x="954.269531"/>
     <use xlink:href="#DejaVuSans-20" x="1012.179688"/>
     <use xlink:href="#DejaVuSans-36" x="1043.966797"/>
     <use xlink:href="#DejaVuSans-30" x="1107.589844"/>
     <use xlink:href="#DejaVuSans-25" x="1171.212891"/>
     <use xlink:href="#DejaVuSans-29" x="1266.232422"/>
    </g>
    <!-- Fit: Reflected Gamma ($k=K+1$) -->
    <g transform="translate(190.016875 29.7555) scale(0.12 -0.12)">
     <defs>
      <path id="DejaVuSans-3a" d="M 750 794 
L 1409 794 
L 1409 0 
L 750 0 
L 750 794 
z
M 750 3309 
L 1409 3309 
L 1409 2516 
L 750 2516 
L 750 3309 
z
" transform="scale(0.015625)"/>
      <path id="DejaVuSans-52" d="M 2841 2188 
Q 3044 2119 3236 1894 
Q 3428 1669 3622 1275 
L 4263 0 
L 3584 0 
L 2988 1197 
Q 2756 1666 2539 1819 
Q 2322 1972 1947 1972 
L 1259 1972 
L 1259 0 
L 628 0 
L 628 4666 
L 2053 4666 
Q 2853 4666 3247 4331 
Q 3641 3997 3641 3322 
Q 3641 2881 3436 2590 
Q 3231 2300 2841 2188 
z
M 1259 4147 
L 1259 2491 
L 2053 2491 
Q 2509 2491 2742 2702 
Q 2975 2913 2975 3322 
Q 2975 3731 2742 3939 
Q 2509 4147 2053 4147 
L 1259 4147 
z
" transform="scale(0.015625)"/>
      <path id="DejaVuSans-47" d="M 3809 666 
L 3809 1919 
L 2778 1919 
L 2778 2438 
L 4434 2438 
L 4434 434 
Q 4069 175 3628 42 
Q 3188 -91 2688 -91 
Q 1594 -91 976 548 
Q 359 1188 359 2328 
Q 359 3472 976 4111 
Q 1594 4750 2688 4750 
Q 3144 4750 3555 4637 
Q 3966 4525 4313 4306 
L 4313 3634 
Q 3963 3931 3569 4081 
Q 3175 4231 2741 4231 
Q 1884 4231 1454 3753 
Q 1025 3275 1025 2328 
Q 1025 1384 1454 906 
Q 1884 428 2741 428 
Q 3075 428 3337 486 
Q 3600 544 3809 666 
z
" transform="scale(0.015625)"/>
      <path id="DejaVuSans-6d" d="M 3328 2828 
Q 3544 3216 3844 3400 
Q 4144 3584 4550 3584 
Q 5097 3584 5394 3201 
Q 5691 2819 5691 2113 
L 5691 0 
L 5113 0 
L 5113 2094 
Q 5113 2597 4934 2840 
Q 4756 3084 4391 3084 
Q 3944 3084 3684 2787 
Q 3425 2491 3425 1978 
L 3425 0 
L 2847 0 
L 2847 2094 
Q 2847 2600 2669 2842 
Q 2491 3084 2119 3084 
Q 1678 3084 1418 2786 
Q 1159 2488 1159 1978 
L 1159 0 
L 581 0 
L 581 3500 
L 1159 3500 
L 1159 2956 
Q 1356 3278 1631 3431 
Q 1906 3584 2284 3584 
Q 2666 3584 2933 3390 
Q 3200 3197 3328 2828 
z
" transform="scale(0.015625)"/>
      <path id="DejaVuSans-Oblique-6b" d="M 1172 4863 
L 1747 4863 
L 1197 2028 
L 3169 3500 
L 3916 3500 
L 1716 1825 
L 3322 0 
L 2625 0 
L 1131 1709 
L 800 0 
L 225 0 
L 1172 4863 
z
" transform="scale(0.015625)"/>
      <path id="DejaVuSans-3d" d="M 678 2906 
L 4684 2906 
L 4684 2381 
L 678 2381 
L 678 2906 
z
M 678 1631 
L 4684 1631 
L 4684 1100 
L 678 1100 
L 678 1631 
z
" transform="scale(0.015625)"/>
      <path id="DejaVuSans-Oblique-4b" d="M 1081 4666 
L 1716 4666 
L 1331 2700 
L 3781 4666 
L 4622 4666 
L 1850 2438 
L 3878 0 
L 3109 0 
L 1247 2272 
L 806 0 
L 172 0 
L 1081 4666 
z
" transform="scale(0.015625)"/>
      <path id="DejaVuSans-2b" d="M 2944 4013 
L 2944 2272 
L 4684 2272 
L 4684 1741 
L 2944 1741 
L 2944 0 
L 2419 0 
L 2419 1741 
L 678 1741 
L 678 2272 
L 2419 2272 
L 2419 4013 
L 2944 4013 
z
" transform="scale(0.015625)"/>
     </defs>
     <use xlink:href="#DejaVuSans-46" transform="translate(0 0.015625)"/>
     <use xlink:href="#DejaVuSans-69" transform="translate(57.519531 0.015625)"/>
     <use xlink:href="#DejaVuSans-74" transform="translate(85.302734 0.015625)"/>
     <use xlink:href="#DejaVuSans-3a" transform="translate(124.511719 0.015625)"/>
     <use xlink:href="#DejaVuSans-20" transform="translate(158.203125 0.015625)"/>
     <use xlink:href="#DejaVuSans-52" transform="translate(189.990234 0.015625)"/>
     <use xlink:href="#DejaVuSans-65" transform="translate(259.472656 0.015625)"/>
     <use xlink:href="#DejaVuSans-66" transform="translate(320.996094 0.015625)"/>
     <use xlink:href="#DejaVuSans-6c" transform="translate(356.201172 0.015625)"/>
     <use xlink:href="#DejaVuSans-65" transform="translate(383.984375 0.015625)"/>
     <use xlink:href="#DejaVuSans-63" transform="translate(445.507812 0.015625)"/>
     <use xlink:href="#DejaVuSans-74" transform="translate(500.488281 0.015625)"/>
     <use xlink:href="#DejaVuSans-65" transform="translate(539.697266 0.015625)"/>
     <use xlink:href="#DejaVuSans-64" transform="translate(601.220703 0.015625)"/>
     <use xlink:href="#DejaVuSans-20" transform="translate(664.697266 0.015625)"/>
     <use xlink:href="#DejaVuSans-47" transform="translate(696.484375 0.015625)"/>
     <use xlink:href="#DejaVuSans-61" transform="translate(773.974609 0.015625)"/>
     <use xlink:href="#DejaVuSans-6d" transform="translate(835.253906 0.015625)"/>
     <use xlink:href="#DejaVuSans-6d" transform="translate(932.666016 0.015625)"/>
     <use xlink:href="#DejaVuSans-61" transform="translate(1030.078125 0.015625)"/>
     <use xlink:href="#DejaVuSans-20" transform="translate(1091.357422 0.015625)"/>
     <use xlink:href="#DejaVuSans-28" transform="translate(1123.144531 0.015625)"/>
     <use xlink:href="#DejaVuSans-Oblique-6b" transform="translate(1162.158203 0.015625)"/>
     <use xlink:href="#DejaVuSans-3d" transform="translate(1239.550781 0.015625)"/>
     <use xlink:href="#DejaVuSans-Oblique-4b" transform="translate(1342.822266 0.015625)"/>
     <use xlink:href="#DejaVuSans-2b" transform="translate(1427.880859 0.015625)"/>
     <use xlink:href="#DejaVuSans-31" transform="translate(1531.152344 0.015625)"/>
     <use xlink:href="#DejaVuSans-29" transform="translate(1594.775391 0.015625)"/>
    </g>
   </g>
   <g id="legend_1">
    <g id="line2d_22">
     <path d="M 74.756875 50.163781 
L 85.756875 50.163781 
L 96.756875 50.163781 
" style="fill: none; stroke: #322694; stroke-width: 2; stroke-linecap: square"/>
    </g>
    <g id="text_20">
     <!-- K=4 -->
     <g transform="translate(105.556875 54.013781) scale(0.11 -0.11)">
      <use xlink:href="#DejaVuSans-4b"/>
      <use xlink:href="#DejaVuSans-3d" x="65.576172"/>
      <use xlink:href="#DejaVuSans-34" x="149.365234"/>
     </g>
    </g>
    <g id="line2d_23">
     <path d="M 74.756875 66.309719 
L 85.756875 66.309719 
L 96.756875 66.309719 
" style="fill: none; stroke: #802f95; stroke-width: 2; stroke-linecap: square"/>
    </g>
    <g id="text_21">
     <!-- K=8 -->
     <g transform="translate(105.556875 70.159719) scale(0.11 -0.11)">
      <use xlink:href="#DejaVuSans-4b"/>
      <use xlink:href="#DejaVuSans-3d" x="65.576172"/>
      <use xlink:href="#DejaVuSans-38" x="149.365234"/>
     </g>
    </g>
    <g id="line2d_24">
     <path d="M 74.756875 82.455656 
L 85.756875 82.455656 
L 96.756875 82.455656 
" style="fill: none; stroke: #ff4126; stroke-width: 2; stroke-linecap: square"/>
    </g>
    <g id="text_22">
     <!-- K=16 -->
     <g transform="translate(105.556875 86.305656) scale(0.11 -0.11)">
      <use xlink:href="#DejaVuSans-4b"/>
      <use xlink:href="#DejaVuSans-3d" x="65.576172"/>
      <use xlink:href="#DejaVuSans-31" x="149.365234"/>
      <use xlink:href="#DejaVuSans-36" x="212.988281"/>
     </g>
    </g>
    <g id="line2d_25">
     <path d="M 74.756875 98.601594 
L 85.756875 98.601594 
L 96.756875 98.601594 
" style="fill: none; stroke: #e69508; stroke-width: 2; stroke-linecap: square"/>
    </g>
    <g id="text_23">
     <!-- K=32 -->
     <g transform="translate(105.556875 102.451594) scale(0.11 -0.11)">
      <use xlink:href="#DejaVuSans-4b"/>
      <use xlink:href="#DejaVuSans-3d" x="65.576172"/>
      <use xlink:href="#DejaVuSans-33" x="149.365234"/>
      <use xlink:href="#DejaVuSans-32" x="212.988281"/>
     </g>
    </g>
    <g id="line2d_26">
     <path d="M 74.756875 114.747531 
L 85.756875 114.747531 
L 96.756875 114.747531 
" style="fill: none; stroke: #000000; stroke-opacity: 0.5; stroke-linecap: square"/>
    </g>
    <g id="text_24">
     <!-- Sim. -->
     <g transform="translate(105.556875 118.597531) scale(0.11 -0.11)">
      <defs>
       <path id="DejaVuSans-53" d="M 3425 4513 
L 3425 3897 
Q 3066 4069 2747 4153 
Q 2428 4238 2131 4238 
Q 1616 4238 1336 4038 
Q 1056 3838 1056 3469 
Q 1056 3159 1242 3001 
Q 1428 2844 1947 2747 
L 2328 2669 
Q 3034 2534 3370 2195 
Q 3706 1856 3706 1288 
Q 3706 609 3251 259 
Q 2797 -91 1919 -91 
Q 1588 -91 1214 -16 
Q 841 59 441 206 
L 441 856 
Q 825 641 1194 531 
Q 1563 422 1919 422 
Q 2459 422 2753 634 
Q 3047 847 3047 1241 
Q 3047 1584 2836 1778 
Q 2625 1972 2144 2069 
L 1759 2144 
Q 1053 2284 737 2584 
Q 422 2884 422 3419 
Q 422 4038 858 4394 
Q 1294 4750 2059 4750 
Q 2388 4750 2728 4690 
Q 3069 4631 3425 4513 
z
" transform="scale(0.015625)"/>
      </defs>
      <use xlink:href="#DejaVuSans-53"/>
      <use xlink:href="#DejaVuSans-69" x="63.476562"/>
      <use xlink:href="#DejaVuSans-6d" x="91.259766"/>
      <use xlink:href="#DejaVuSans-2e" x="188.671875"/>
     </g>
    </g>
    <g id="line2d_27">
     <path d="M 74.756875 130.893469 
L 85.756875 130.893469 
L 96.756875 130.893469 
" style="fill: none; stroke: #000000; stroke-width: 2.5; stroke-linecap: square"/>
    </g>
    <g id="text_25">
     <!-- Gamma Fit -->
     <g transform="translate(105.556875 134.743469) scale(0.11 -0.11)">
      <use xlink:href="#DejaVuSans-47"/>
      <use xlink:href="#DejaVuSans-61" x="77.490234"/>
      <use xlink:href="#DejaVuSans-6d" x="138.769531"/>
      <use xlink:href="#DejaVuSans-6d" x="236.181641"/>
      <use xlink:href="#DejaVuSans-61" x="333.59375"/>
      <use xlink:href="#DejaVuSans-20" x="394.873047"/>
      <use xlink:href="#DejaVuSans-46" x="426.660156"/>
      <use xlink:href="#DejaVuSans-69" x="476.929688"/>
      <use xlink:href="#DejaVuSans-74" x="504.712891"/>
     </g>
    </g>
   </g>
  </g>
 </g>
 <defs>
  <clipPath id="p18d6034740">
   <rect x="64.856875" y="35.7555" width="446.4" height="332.64"/>
  </clipPath>
 </defs>
</svg>
