<?xml version="1.0" encoding="utf-8" standalone="no"?>
<!DOCTYPE svg PUBLIC "-//W3C//DTD SVG 1.1//EN"
  "http://www.w3.org/Graphics/SVG/1.1/DTD/svg11.dtd">
<svg xmlns:xlink="http://www.w3.org/1999/xlink" width="1081.780937pt" height="423.627pt" viewBox="0 0 1081.780937 423.627" xmlns="http://www.w3.org/2000/svg" version="1.1">
 <metadata>
  <rdf:RDF xmlns:dc="http://purl.org/dc/elements/1.1/" xmlns:cc="http://creativecommons.org/ns#" xmlns:rdf="http://www.w3.org/1999/02/22-rdf-syntax-ns#">
   <cc:Work>
    <dc:type rdf:resource="http://purl.org/dc/dcmitype/StillImage"/>
    <dc:date>2026-01-17T18:50:18.588279</dc:date>
    <dc:format>image/svg+xml</dc:format>
    <dc:creator>
     <cc:Agent>
      <dc:title>Matplotlib v3.9.4, https://matplotlib.org/</dc:title>
     </cc:Agent>
    </dc:creator>
   </cc:Work>
  </rdf:RDF>
 </metadata>
 <defs>
  <style type="text/css">*{stroke-linejoin: round; stroke-linecap: butt}</style>
 </defs>
 <g id="figure_1">
  <g id="patch_1">
   <path d="M 0 423.627 
L 1081.780937 423.627 
L 1081.780937 0 
L 0 0 
z
" style="fill: #ffffff"/>
  </g>
  <g id="axes_1">
   <g id="patch_2">
    <path d="M 70.180937 373.892625 
L 357.152366 373.892625 
L 357.152366 41.252625 
L 70.180937 41.252625 
z
" style="fill: #ffffff"/>
   </g>
   <g id="PolyCollection_1">
    <defs>
     <path id="m74d2ea9641" d="M 83.225093 -367.254375 
L 83.225093 -367.254375 
L 88.442756 -361.108545 
L 93.660418 -354.413095 
L 98.87808 -347.988351 
L 104.095743 -341.485849 
L 109.313405 -335.451492 
L 114.531067 -327.364934 
L 119.74873 -320.118534 
L 124.966392 -313.472427 
L 130.184054 -305.440584 
L 135.401717 -297.800397 
L 140.619379 -289.781667 
L 145.837041 -283.401228 
L 151.054704 -272.823439 
L 156.272366 -264.09035 
L 161.490028 -251.887449 
L 166.707691 -240.138225 
L 171.925353 -232.927762 
L 177.143015 -222.332507 
L 182.360678 -224.731248 
L 187.57834 -207.780719 
L 192.796002 -190.548726 
L 198.013665 -187.016199 
L 203.231327 -184.072203 
L 208.448989 -175.55423 
L 213.666652 -165.349034 
L 218.884314 -164.52337 
L 224.101976 -157.911865 
L 229.319639 -151.021791 
L 234.537301 -147.1145 
L 239.754963 -137.356253 
L 244.972626 -125.272731 
L 250.190288 -126.579818 
L 255.40795 -123.237744 
L 260.625613 -128.121112 
L 265.843275 -119.064453 
L 271.060937 -114.707239 
L 276.2786 -109.173612 
L 281.496262 -100.64845 
L 286.713925 -99.176302 
L 291.931587 -111.062857 
L 297.149249 -105.637025 
L 302.366912 -93.984384 
L 307.584574 -96.298565 
L 312.802236 -95.149395 
L 318.019899 -82.284072 
L 323.237561 -89.061469 
L 328.455223 -67.548914 
L 333.672886 -73.751562 
L 338.890548 -72.566042 
L 344.10821 -64.854375 
L 344.10821 -287.842009 
L 344.10821 -287.842009 
L 338.890548 -285.080433 
L 333.672886 -285.620338 
L 328.455223 -292.547938 
L 323.237561 -287.683815 
L 318.019899 -296.038748 
L 312.802236 -287.86699 
L 307.584574 -289.767611 
L 302.366912 -297.604542 
L 297.149249 -296.995331 
L 291.931587 -299.022787 
L 286.713925 -303.637364 
L 281.496262 -298.888073 
L 276.2786 -297.563853 
L 271.060937 -297.091157 
L 265.843275 -298.919497 
L 260.625613 -297.798738 
L 255.40795 -304.221627 
L 250.190288 -304.773611 
L 244.972626 -312.889823 
L 239.754963 -310.296059 
L 234.537301 -312.611518 
L 229.319639 -316.851385 
L 224.101976 -314.692103 
L 218.884314 -316.167778 
L 213.666652 -322.114091 
L 208.448989 -321.199442 
L 203.231327 -322.187866 
L 198.013665 -327.899875 
L 192.796002 -330.363145 
L 187.57834 -327.608201 
L 182.360678 -326.721014 
L 177.143015 -333.928668 
L 171.925353 -335.066145 
L 166.707691 -335.274965 
L 161.490028 -335.227943 
L 156.272366 -336.030161 
L 151.054704 -337.901387 
L 145.837041 -338.272627 
L 140.619379 -340.306485 
L 135.401717 -342.160339 
L 130.184054 -344.258686 
L 124.966392 -346.591367 
L 119.74873 -348.963807 
L 114.531067 -351.424787 
L 109.313405 -353.733893 
L 104.095743 -355.988664 
L 98.87808 -358.859484 
L 93.660418 -361.756064 
L 88.442756 -364.481417 
L 83.225093 -367.254375 
z
" style="stroke: #802f95; stroke-opacity: 0.2"/>
    </defs>
    <g clip-path="url(#p058b26c918)">
     <use xlink:href="#m74d2ea9641" x="0" y="423.627" style="fill: #802f95; fill-opacity: 0.2; stroke: #802f95; stroke-opacity: 0.2"/>
    </g>
   </g>
   <g id="matplotlib.axis_1">
    <g id="xtick_1">
     <g id="line2d_1">
      <defs>
       <path id="me48a39f717" d="M 0 0 
L 0 6 
" style="stroke: #000000; stroke-width: 1.5"/>
      </defs>
      <g>
       <use xlink:href="#me48a39f717" x="83.225093" y="373.892625" style="stroke: #000000; stroke-width: 1.5"/>
      </g>
     </g>
     <g id="text_1">
      <!-- 0 -->
      <g transform="translate(78.771343 394.030437) scale(0.14 -0.14)">
       <defs>
        <path id="DejaVuSans-30" d="M 2034 4250 
Q 1547 4250 1301 3770 
Q 1056 3291 1056 2328 
Q 1056 1369 1301 889 
Q 1547 409 2034 409 
Q 2525 409 2770 889 
Q 3016 1369 3016 2328 
Q 3016 3291 2770 3770 
Q 2525 4250 2034 4250 
z
M 2034 4750 
Q 2819 4750 3233 4129 
Q 3647 3509 3647 2328 
Q 3647 1150 3233 529 
Q 2819 -91 2034 -91 
Q 1250 -91 836 529 
Q 422 1150 422 2328 
Q 422 3509 836 4129 
Q 1250 4750 2034 4750 
z
" transform="scale(0.015625)"/>
       </defs>
       <use xlink:href="#DejaVuSans-30"/>
      </g>
     </g>
    </g>
    <g id="xtick_2">
     <g id="line2d_2">
      <g>
       <use xlink:href="#me48a39f717" x="132.448323" y="373.892625" style="stroke: #000000; stroke-width: 1.5"/>
      </g>
     </g>
     <g id="text_2">
      <!-- 500 -->
      <g transform="translate(119.087073 394.030437) scale(0.14 -0.14)">
       <defs>
        <path id="DejaVuSans-35" d="M 691 4666 
L 3169 4666 
L 3169 4134 
L 1269 4134 
L 1269 2991 
Q 1406 3038 1543 3061 
Q 1681 3084 1819 3084 
Q 2600 3084 3056 2656 
Q 3513 2228 3513 1497 
Q 3513 744 3044 326 
Q 2575 -91 1722 -91 
Q 1428 -91 1123 -41 
Q 819 9 494 109 
L 494 744 
Q 775 591 1075 516 
Q 1375 441 1709 441 
Q 2250 441 2565 725 
Q 2881 1009 2881 1497 
Q 2881 1984 2565 2268 
Q 2250 2553 1709 2553 
Q 1456 2553 1204 2497 
Q 953 2441 691 2322 
L 691 4666 
z
" transform="scale(0.015625)"/>
       </defs>
       <use xlink:href="#DejaVuSans-35"/>
       <use xlink:href="#DejaVuSans-30" x="63.623047"/>
       <use xlink:href="#DejaVuSans-30" x="127.246094"/>
      </g>
     </g>
    </g>
    <g id="xtick_3">
     <g id="line2d_3">
      <g>
       <use xlink:href="#me48a39f717" x="181.671553" y="373.892625" style="stroke: #000000; stroke-width: 1.5"/>
      </g>
     </g>
     <g id="text_3">
      <!-- 1000 -->
      <g transform="translate(163.856553 394.030437) scale(0.14 -0.14)">
       <defs>
        <path id="DejaVuSans-31" d="M 794 531 
L 1825 531 
L 1825 4091 
L 703 3866 
L 703 4441 
L 1819 4666 
L 2450 4666 
L 2450 531 
L 3481 531 
L 3481 0 
L 794 0 
L 794 531 
z
" transform="scale(0.015625)"/>
       </defs>
       <use xlink:href="#DejaVuSans-31"/>
       <use xlink:href="#DejaVuSans-30" x="63.623047"/>
       <use xlink:href="#DejaVuSans-30" x="127.246094"/>
       <use xlink:href="#DejaVuSans-30" x="190.869141"/>
      </g>
     </g>
    </g>
    <g id="xtick_4">
     <g id="line2d_4">
      <g>
       <use xlink:href="#me48a39f717" x="230.894782" y="373.892625" style="stroke: #000000; stroke-width: 1.5"/>
      </g>
     </g>
     <g id="text_4">
      <!-- 1500 -->
      <g transform="translate(213.079782 394.030437) scale(0.14 -0.14)">
       <use xlink:href="#DejaVuSans-31"/>
       <use xlink:href="#DejaVuSans-35" x="63.623047"/>
       <use xlink:href="#DejaVuSans-30" x="127.246094"/>
       <use xlink:href="#DejaVuSans-30" x="190.869141"/>
      </g>
     </g>
    </g>
    <g id="xtick_5">
     <g id="line2d_5">
      <g>
       <use xlink:href="#me48a39f717" x="280.118012" y="373.892625" style="stroke: #000000; stroke-width: 1.5"/>
      </g>
     </g>
     <g id="text_5">
      <!-- 2000 -->
      <g transform="translate(262.303012 394.030437) scale(0.14 -0.14)">
       <defs>
        <path id="DejaVuSans-32" d="M 1228 531 
L 3431 531 
L 3431 0 
L 469 0 
L 469 531 
Q 828 903 1448 1529 
Q 2069 2156 2228 2338 
Q 2531 2678 2651 2914 
Q 2772 3150 2772 3378 
Q 2772 3750 2511 3984 
Q 2250 4219 1831 4219 
Q 1534 4219 1204 4116 
Q 875 4013 500 3803 
L 500 4441 
Q 881 4594 1212 4672 
Q 1544 4750 1819 4750 
Q 2544 4750 2975 4387 
Q 3406 4025 3406 3419 
Q 3406 3131 3298 2873 
Q 3191 2616 2906 2266 
Q 2828 2175 2409 1742 
Q 1991 1309 1228 531 
z
" transform="scale(0.015625)"/>
       </defs>
       <use xlink:href="#DejaVuSans-32"/>
       <use xlink:href="#DejaVuSans-30" x="63.623047"/>
       <use xlink:href="#DejaVuSans-30" x="127.246094"/>
       <use xlink:href="#DejaVuSans-30" x="190.869141"/>
      </g>
     </g>
    </g>
    <g id="xtick_6">
     <g id="line2d_6">
      <g>
       <use xlink:href="#me48a39f717" x="329.341241" y="373.892625" style="stroke: #000000; stroke-width: 1.5"/>
      </g>
     </g>
     <g id="text_6">
      <!-- 2500 -->
      <g transform="translate(311.526241 394.030437) scale(0.14 -0.14)">
       <use xlink:href="#DejaVuSans-32"/>
       <use xlink:href="#DejaVuSans-35" x="63.623047"/>
       <use xlink:href="#DejaVuSans-30" x="127.246094"/>
       <use xlink:href="#DejaVuSans-30" x="190.869141"/>
      </g>
     </g>
    </g>
    <g id="text_7">
     <!-- Time (steps) -->
     <g transform="translate(163.835402 413.0995) scale(0.16 -0.16)">
      <defs>
       <path id="DejaVuSans-54" d="M -19 4666 
L 3928 4666 
L 3928 4134 
L 2272 4134 
L 2272 0 
L 1638 0 
L 1638 4134 
L -19 4134 
L -19 4666 
z
" transform="scale(0.015625)"/>
       <path id="DejaVuSans-69" d="M 603 3500 
L 1178 3500 
L 1178 0 
L 603 0 
L 603 3500 
z
M 603 4863 
L 1178 4863 
L 1178 4134 
L 603 4134 
L 603 4863 
z
" transform="scale(0.015625)"/>
       <path id="DejaVuSans-6d" d="M 3328 2828 
Q 3544 3216 3844 3400 
Q 4144 3584 4550 3584 
Q 5097 3584 5394 3201 
Q 5691 2819 5691 2113 
L 5691 0 
L 5113 0 
L 5113 2094 
Q 5113 2597 4934 2840 
Q 4756 3084 4391 3084 
Q 3944 3084 3684 2787 
Q 3425 2491 3425 1978 
L 3425 0 
L 2847 0 
L 2847 2094 
Q 2847 2600 2669 2842 
Q 2491 3084 2119 3084 
Q 1678 3084 1418 2786 
Q 1159 2488 1159 1978 
L 1159 0 
L 581 0 
L 581 3500 
L 1159 3500 
L 1159 2956 
Q 1356 3278 1631 3431 
Q 1906 3584 2284 3584 
Q 2666 3584 2933 3390 
Q 3200 3197 3328 2828 
z
" transform="scale(0.015625)"/>
       <path id="DejaVuSans-65" d="M 3597 1894 
L 3597 1613 
L 953 1613 
Q 991 1019 1311 708 
Q 1631 397 2203 397 
Q 2534 397 2845 478 
Q 3156 559 3463 722 
L 3463 178 
Q 3153 47 2828 -22 
Q 2503 -91 2169 -91 
Q 1331 -91 842 396 
Q 353 884 353 1716 
Q 353 2575 817 3079 
Q 1281 3584 2069 3584 
Q 2775 3584 3186 3129 
Q 3597 2675 3597 1894 
z
M 3022 2063 
Q 3016 2534 2758 2815 
Q 2500 3097 2075 3097 
Q 1594 3097 1305 2825 
Q 1016 2553 972 2059 
L 3022 2063 
z
" transform="scale(0.015625)"/>
       <path id="DejaVuSans-20" transform="scale(0.015625)"/>
       <path id="DejaVuSans-28" d="M 1984 4856 
Q 1566 4138 1362 3434 
Q 1159 2731 1159 2009 
Q 1159 1288 1364 580 
Q 1569 -128 1984 -844 
L 1484 -844 
Q 1016 -109 783 600 
Q 550 1309 550 2009 
Q 550 2706 781 3412 
Q 1013 4119 1484 4856 
L 1984 4856 
z
" transform="scale(0.015625)"/>
       <path id="DejaVuSans-73" d="M 2834 3397 
L 2834 2853 
Q 2591 2978 2328 3040 
Q 2066 3103 1784 3103 
Q 1356 3103 1142 2972 
Q 928 2841 928 2578 
Q 928 2378 1081 2264 
Q 1234 2150 1697 2047 
L 1894 2003 
Q 2506 1872 2764 1633 
Q 3022 1394 3022 966 
Q 3022 478 2636 193 
Q 2250 -91 1575 -91 
Q 1294 -91 989 -36 
Q 684 19 347 128 
L 347 722 
Q 666 556 975 473 
Q 1284 391 1588 391 
Q 1994 391 2212 530 
Q 2431 669 2431 922 
Q 2431 1156 2273 1281 
Q 2116 1406 1581 1522 
L 1381 1569 
Q 847 1681 609 1914 
Q 372 2147 372 2553 
Q 372 3047 722 3315 
Q 1072 3584 1716 3584 
Q 2034 3584 2315 3537 
Q 2597 3491 2834 3397 
z
" transform="scale(0.015625)"/>
       <path id="DejaVuSans-74" d="M 1172 4494 
L 1172 3500 
L 2356 3500 
L 2356 3053 
L 1172 3053 
L 1172 1153 
Q 1172 725 1289 603 
Q 1406 481 1766 481 
L 2356 481 
L 2356 0 
L 1766 0 
Q 1100 0 847 248 
Q 594 497 594 1153 
L 594 3053 
L 172 3053 
L 172 3500 
L 594 3500 
L 594 4494 
L 1172 4494 
z
" transform="scale(0.015625)"/>
       <path id="DejaVuSans-70" d="M 1159 525 
L 1159 -1331 
L 581 -1331 
L 581 3500 
L 1159 3500 
L 1159 2969 
Q 1341 3281 1617 3432 
Q 1894 3584 2278 3584 
Q 2916 3584 3314 3078 
Q 3713 2572 3713 1747 
Q 3713 922 3314 415 
Q 2916 -91 2278 -91 
Q 1894 -91 1617 61 
Q 1341 213 1159 525 
z
M 3116 1747 
Q 3116 2381 2855 2742 
Q 2594 3103 2138 3103 
Q 1681 3103 1420 2742 
Q 1159 2381 1159 1747 
Q 1159 1113 1420 752 
Q 1681 391 2138 391 
Q 2594 391 2855 752 
Q 3116 1113 3116 1747 
z
" transform="scale(0.015625)"/>
       <path id="DejaVuSans-29" d="M 513 4856 
L 1013 4856 
Q 1481 4119 1714 3412 
Q 1947 2706 1947 2009 
Q 1947 1309 1714 600 
Q 1481 -109 1013 -844 
L 513 -844 
Q 928 -128 1133 580 
Q 1338 1288 1338 2009 
Q 1338 2731 1133 3434 
Q 928 4138 513 4856 
z
" transform="scale(0.015625)"/>
      </defs>
      <use xlink:href="#DejaVuSans-54"/>
      <use xlink:href="#DejaVuSans-69" x="57.958984"/>
      <use xlink:href="#DejaVuSans-6d" x="85.742188"/>
      <use xlink:href="#DejaVuSans-65" x="183.154297"/>
      <use xlink:href="#DejaVuSans-20" x="244.677734"/>
      <use xlink:href="#DejaVuSans-28" x="276.464844"/>
      <use xlink:href="#DejaVuSans-73" x="315.478516"/>
      <use xlink:href="#DejaVuSans-74" x="367.578125"/>
      <use xlink:href="#DejaVuSans-65" x="406.787109"/>
      <use xlink:href="#DejaVuSans-70" x="468.310547"/>
      <use xlink:href="#DejaVuSans-73" x="531.787109"/>
      <use xlink:href="#DejaVuSans-29" x="583.886719"/>
     </g>
    </g>
   </g>
   <g id="matplotlib.axis_2">
    <g id="ytick_1">
     <g id="line2d_7">
      <defs>
       <path id="m6a0d5cd103" d="M 0 0 
L -6 0 
" style="stroke: #000000; stroke-width: 1.5"/>
      </defs>
      <g>
       <use xlink:href="#m6a0d5cd103" x="70.180937" y="334.016965" style="stroke: #000000; stroke-width: 1.5"/>
      </g>
     </g>
     <g id="text_8">
      <!-- −2.5 -->
      <g transform="translate(26.685 339.335871) scale(0.14 -0.14)">
       <defs>
        <path id="DejaVuSans-2212" d="M 678 2272 
L 4684 2272 
L 4684 1741 
L 678 1741 
L 678 2272 
z
" transform="scale(0.015625)"/>
        <path id="DejaVuSans-2e" d="M 684 794 
L 1344 794 
L 1344 0 
L 684 0 
L 684 794 
z
" transform="scale(0.015625)"/>
       </defs>
       <use xlink:href="#DejaVuSans-2212"/>
       <use xlink:href="#DejaVuSans-32" x="83.789062"/>
       <use xlink:href="#DejaVuSans-2e" x="147.412109"/>
       <use xlink:href="#DejaVuSans-35" x="179.199219"/>
      </g>
     </g>
    </g>
    <g id="ytick_2">
     <g id="line2d_8">
      <g>
       <use xlink:href="#m6a0d5cd103" x="70.180937" y="278.488097" style="stroke: #000000; stroke-width: 1.5"/>
      </g>
     </g>
     <g id="text_9">
      <!-- −2.0 -->
      <g transform="translate(26.685 283.807003) scale(0.14 -0.14)">
       <use xlink:href="#DejaVuSans-2212"/>
       <use xlink:href="#DejaVuSans-32" x="83.789062"/>
       <use xlink:href="#DejaVuSans-2e" x="147.412109"/>
       <use xlink:href="#DejaVuSans-30" x="179.199219"/>
      </g>
     </g>
    </g>
    <g id="ytick_3">
     <g id="line2d_9">
      <g>
       <use xlink:href="#m6a0d5cd103" x="70.180937" y="222.959229" style="stroke: #000000; stroke-width: 1.5"/>
      </g>
     </g>
     <g id="text_10">
      <!-- −1.5 -->
      <g transform="translate(26.685 228.278135) scale(0.14 -0.14)">
       <use xlink:href="#DejaVuSans-2212"/>
       <use xlink:href="#DejaVuSans-31" x="83.789062"/>
       <use xlink:href="#DejaVuSans-2e" x="147.412109"/>
       <use xlink:href="#DejaVuSans-35" x="179.199219"/>
      </g>
     </g>
    </g>
    <g id="ytick_4">
     <g id="line2d_10">
      <g>
       <use xlink:href="#m6a0d5cd103" x="70.180937" y="167.430361" style="stroke: #000000; stroke-width: 1.5"/>
      </g>
     </g>
     <g id="text_11">
      <!-- −1.0 -->
      <g transform="translate(26.685 172.749267) scale(0.14 -0.14)">
       <use xlink:href="#DejaVuSans-2212"/>
       <use xlink:href="#DejaVuSans-31" x="83.789062"/>
       <use xlink:href="#DejaVuSans-2e" x="147.412109"/>
       <use xlink:href="#DejaVuSans-30" x="179.199219"/>
      </g>
     </g>
    </g>
    <g id="ytick_5">
     <g id="line2d_11">
      <g>
       <use xlink:href="#m6a0d5cd103" x="70.180937" y="111.901493" style="stroke: #000000; stroke-width: 1.5"/>
      </g>
     </g>
     <g id="text_12">
      <!-- −0.5 -->
      <g transform="translate(26.685 117.220399) scale(0.14 -0.14)">
       <use xlink:href="#DejaVuSans-2212"/>
       <use xlink:href="#DejaVuSans-30" x="83.789062"/>
       <use xlink:href="#DejaVuSans-2e" x="147.412109"/>
       <use xlink:href="#DejaVuSans-35" x="179.199219"/>
      </g>
     </g>
    </g>
    <g id="ytick_6">
     <g id="line2d_12">
      <g>
       <use xlink:href="#m6a0d5cd103" x="70.180937" y="56.372625" style="stroke: #000000; stroke-width: 1.5"/>
      </g>
     </g>
     <g id="text_13">
      <!-- 0.0 -->
      <g transform="translate(38.416562 61.691531) scale(0.14 -0.14)">
       <use xlink:href="#DejaVuSans-30"/>
       <use xlink:href="#DejaVuSans-2e" x="63.623047"/>
       <use xlink:href="#DejaVuSans-30" x="95.410156"/>
      </g>
     </g>
    </g>
    <g id="text_14">
     <!-- Log Correlation -->
     <g transform="translate(19.3575 268.516375) rotate(-90) scale(0.16 -0.16)">
      <defs>
       <path id="DejaVuSans-4c" d="M 628 4666 
L 1259 4666 
L 1259 531 
L 3531 531 
L 3531 0 
L 628 0 
L 628 4666 
z
" transform="scale(0.015625)"/>
       <path id="DejaVuSans-6f" d="M 1959 3097 
Q 1497 3097 1228 2736 
Q 959 2375 959 1747 
Q 959 1119 1226 758 
Q 1494 397 1959 397 
Q 2419 397 2687 759 
Q 2956 1122 2956 1747 
Q 2956 2369 2687 2733 
Q 2419 3097 1959 3097 
z
M 1959 3584 
Q 2709 3584 3137 3096 
Q 3566 2609 3566 1747 
Q 3566 888 3137 398 
Q 2709 -91 1959 -91 
Q 1206 -91 779 398 
Q 353 888 353 1747 
Q 353 2609 779 3096 
Q 1206 3584 1959 3584 
z
" transform="scale(0.015625)"/>
       <path id="DejaVuSans-67" d="M 2906 1791 
Q 2906 2416 2648 2759 
Q 2391 3103 1925 3103 
Q 1463 3103 1205 2759 
Q 947 2416 947 1791 
Q 947 1169 1205 825 
Q 1463 481 1925 481 
Q 2391 481 2648 825 
Q 2906 1169 2906 1791 
z
M 3481 434 
Q 3481 -459 3084 -895 
Q 2688 -1331 1869 -1331 
Q 1566 -1331 1297 -1286 
Q 1028 -1241 775 -1147 
L 775 -588 
Q 1028 -725 1275 -790 
Q 1522 -856 1778 -856 
Q 2344 -856 2625 -561 
Q 2906 -266 2906 331 
L 2906 616 
Q 2728 306 2450 153 
Q 2172 0 1784 0 
Q 1141 0 747 490 
Q 353 981 353 1791 
Q 353 2603 747 3093 
Q 1141 3584 1784 3584 
Q 2172 3584 2450 3431 
Q 2728 3278 2906 2969 
L 2906 3500 
L 3481 3500 
L 3481 434 
z
" transform="scale(0.015625)"/>
       <path id="DejaVuSans-43" d="M 4122 4306 
L 4122 3641 
Q 3803 3938 3442 4084 
Q 3081 4231 2675 4231 
Q 1875 4231 1450 3742 
Q 1025 3253 1025 2328 
Q 1025 1406 1450 917 
Q 1875 428 2675 428 
Q 3081 428 3442 575 
Q 3803 722 4122 1019 
L 4122 359 
Q 3791 134 3420 21 
Q 3050 -91 2638 -91 
Q 1578 -91 968 557 
Q 359 1206 359 2328 
Q 359 3453 968 4101 
Q 1578 4750 2638 4750 
Q 3056 4750 3426 4639 
Q 3797 4528 4122 4306 
z
" transform="scale(0.015625)"/>
       <path id="DejaVuSans-72" d="M 2631 2963 
Q 2534 3019 2420 3045 
Q 2306 3072 2169 3072 
Q 1681 3072 1420 2755 
Q 1159 2438 1159 1844 
L 1159 0 
L 581 0 
L 581 3500 
L 1159 3500 
L 1159 2956 
Q 1341 3275 1631 3429 
Q 1922 3584 2338 3584 
Q 2397 3584 2469 3576 
Q 2541 3569 2628 3553 
L 2631 2963 
z
" transform="scale(0.015625)"/>
       <path id="DejaVuSans-6c" d="M 603 4863 
L 1178 4863 
L 1178 0 
L 603 0 
L 603 4863 
z
" transform="scale(0.015625)"/>
       <path id="DejaVuSans-61" d="M 2194 1759 
Q 1497 1759 1228 1600 
Q 959 1441 959 1056 
Q 959 750 1161 570 
Q 1363 391 1709 391 
Q 2188 391 2477 730 
Q 2766 1069 2766 1631 
L 2766 1759 
L 2194 1759 
z
M 3341 1997 
L 3341 0 
L 2766 0 
L 2766 531 
Q 2569 213 2275 61 
Q 1981 -91 1556 -91 
Q 1019 -91 701 211 
Q 384 513 384 1019 
Q 384 1609 779 1909 
Q 1175 2209 1959 2209 
L 2766 2209 
L 2766 2266 
Q 2766 2663 2505 2880 
Q 2244 3097 1772 3097 
Q 1472 3097 1187 3025 
Q 903 2953 641 2809 
L 641 3341 
Q 956 3463 1253 3523 
Q 1550 3584 1831 3584 
Q 2591 3584 2966 3190 
Q 3341 2797 3341 1997 
z
" transform="scale(0.015625)"/>
       <path id="DejaVuSans-6e" d="M 3513 2113 
L 3513 0 
L 2938 0 
L 2938 2094 
Q 2938 2591 2744 2837 
Q 2550 3084 2163 3084 
Q 1697 3084 1428 2787 
Q 1159 2491 1159 1978 
L 1159 0 
L 581 0 
L 581 3500 
L 1159 3500 
L 1159 2956 
Q 1366 3272 1645 3428 
Q 1925 3584 2291 3584 
Q 2894 3584 3203 3211 
Q 3513 2838 3513 2113 
z
" transform="scale(0.015625)"/>
      </defs>
      <use xlink:href="#DejaVuSans-4c"/>
      <use xlink:href="#DejaVuSans-6f" x="53.962891"/>
      <use xlink:href="#DejaVuSans-67" x="115.144531"/>
      <use xlink:href="#DejaVuSans-20" x="178.621094"/>
      <use xlink:href="#DejaVuSans-43" x="210.408203"/>
      <use xlink:href="#DejaVuSans-6f" x="280.232422"/>
      <use xlink:href="#DejaVuSans-72" x="341.414062"/>
      <use xlink:href="#DejaVuSans-72" x="380.777344"/>
      <use xlink:href="#DejaVuSans-65" x="419.640625"/>
      <use xlink:href="#DejaVuSans-6c" x="481.164062"/>
      <use xlink:href="#DejaVuSans-61" x="508.947266"/>
      <use xlink:href="#DejaVuSans-74" x="570.226562"/>
      <use xlink:href="#DejaVuSans-69" x="609.435547"/>
      <use xlink:href="#DejaVuSans-6f" x="637.21875"/>
      <use xlink:href="#DejaVuSans-6e" x="698.400391"/>
     </g>
    </g>
   </g>
   <g id="line2d_13">
    <path d="M 83.225093 56.372625 
L 88.442756 60.832019 
L 93.660418 65.542421 
L 98.87808 70.203082 
L 104.095743 74.889743 
L 109.313405 79.034308 
L 114.531067 84.23214 
L 119.74873 89.085829 
L 124.966392 93.595103 
L 130.184054 98.777365 
L 135.401717 103.646632 
L 140.619379 108.582924 
L 145.837041 112.790073 
L 151.054704 118.264587 
L 156.272366 123.566745 
L 161.490028 130.069304 
L 166.707691 135.920405 
L 171.925353 139.630046 
L 177.143015 145.496412 
L 182.360678 147.900869 
L 187.57834 155.93254 
L 192.796002 163.171065 
L 198.013665 166.168963 
L 203.231327 170.496966 
L 208.448989 175.250164 
L 213.666652 179.895438 
L 218.884314 183.281426 
L 224.101976 187.325016 
L 229.319639 189.690412 
L 234.537301 193.763991 
L 239.754963 199.800844 
L 244.972626 204.545723 
L 250.190288 207.950286 
L 255.40795 209.897315 
L 260.625613 210.667075 
L 265.843275 214.635025 
L 271.060937 217.727802 
L 276.2786 220.258267 
L 281.496262 223.858738 
L 286.713925 222.220167 
L 291.931587 218.584178 
L 297.149249 222.310822 
L 302.366912 227.832537 
L 307.584574 230.593912 
L 312.802236 232.118807 
L 318.019899 234.46559 
L 323.237561 235.254358 
L 328.455223 243.578574 
L 333.672886 243.94105 
L 338.890548 244.803763 
L 344.10821 247.278808 
" clip-path="url(#p058b26c918)" style="fill: none; stroke: #802f95; stroke-width: 2; stroke-linecap: square"/>
   </g>
   <g id="line2d_14">
    <path d="M 83.225093 56.372625 
L 85.860276 58.602193 
L 88.495459 60.831761 
L 91.130642 63.06133 
L 93.765825 65.290898 
L 96.401008 67.520466 
L 99.036191 69.750034 
L 101.671374 71.979602 
L 104.306557 74.20917 
L 106.94174 76.438739 
L 109.576923 78.668307 
L 112.212106 80.897875 
L 114.847289 83.127443 
L 117.482472 85.357011 
L 120.117655 87.58658 
L 122.752838 89.816148 
L 125.388021 92.045716 
L 128.023204 94.275284 
L 130.658387 96.504852 
L 133.29357 98.734421 
L 135.928753 100.963989 
L 138.563936 103.193557 
L 141.199119 105.423125 
L 143.834302 107.652693 
L 146.469485 109.882261 
L 149.104668 112.11183 
L 151.739851 114.341398 
L 154.375034 116.570966 
L 157.010217 118.800534 
L 159.6454 121.030102 
L 162.280583 123.259671 
L 164.915766 125.489239 
L 167.550949 127.718807 
L 170.186132 129.948375 
L 172.821315 132.177943 
L 175.456498 134.407511 
L 178.091681 136.63708 
L 180.726864 138.866648 
L 183.362047 141.096216 
L 185.99723 143.325784 
L 188.632413 145.555352 
L 191.267596 147.784921 
L 193.902779 150.014489 
L 196.537962 152.244057 
L 199.173145 154.473625 
L 201.808328 156.703193 
L 204.443511 158.932761 
L 207.078694 161.16233 
L 209.713877 163.391898 
L 212.34906 165.621466 
L 214.984243 167.851034 
L 217.619426 170.080602 
L 220.254609 172.310171 
L 222.889792 174.539739 
L 225.524975 176.769307 
L 228.160158 178.998875 
L 230.795341 181.228443 
L 233.430524 183.458012 
L 236.065707 185.68758 
L 238.70089 187.917148 
L 241.336073 190.146716 
L 243.971256 192.376284 
L 246.606439 194.605852 
L 249.241622 196.835421 
L 251.876805 199.064989 
L 254.511988 201.294557 
L 257.147171 203.524125 
L 259.782354 205.753693 
L 262.417537 207.983262 
L 265.05272 210.21283 
L 267.687903 212.442398 
L 270.323086 214.671966 
L 272.958269 216.901534 
L 275.593452 219.131102 
L 278.228635 221.360671 
L 280.863818 223.590239 
L 283.499001 225.819807 
L 286.134184 228.049375 
L 288.769367 230.278943 
L 291.40455 232.508512 
L 294.039733 234.73808 
L 296.674916 236.967648 
L 299.310099 239.197216 
L 301.945282 241.426784 
L 304.580465 243.656353 
L 307.215648 245.885921 
L 309.850831 248.115489 
L 312.486014 250.345057 
L 315.121197 252.574625 
L 317.75638 254.804193 
L 320.391563 257.033762 
L 323.026746 259.26333 
L 325.661929 261.492898 
L 328.297112 263.722466 
L 330.932295 265.952034 
L 333.567478 268.181603 
L 336.202661 270.411171 
L 338.837844 272.640739 
L 341.473027 274.870307 
L 344.10821 277.099875 
" clip-path="url(#p058b26c918)" style="fill: none; stroke-dasharray: 7.4,3.2; stroke-dashoffset: 0; stroke: #ff0000; stroke-width: 2"/>
   </g>
   <g id="line2d_15">
    <path d="M 83.225093 56.372625 
L 85.860276 58.564088 
L 88.495459 60.755551 
L 91.130642 62.947015 
L 93.765825 65.138478 
L 96.401008 67.329941 
L 99.036191 69.521404 
L 101.671374 71.712867 
L 104.306557 73.904331 
L 106.94174 76.095794 
L 109.576923 78.287257 
L 112.212106 80.47872 
L 114.847289 82.670183 
L 117.482472 84.861647 
L 120.117655 87.05311 
L 122.752838 89.244573 
L 125.388021 91.436036 
L 128.023204 93.627499 
L 130.658387 95.818963 
L 133.29357 98.010426 
L 135.928753 100.201889 
L 138.563936 102.393352 
L 141.199119 104.584815 
L 143.834302 106.776278 
L 146.469485 108.967742 
L 149.104668 111.159205 
L 151.739851 113.350668 
L 154.375034 115.542131 
L 157.010217 117.733594 
L 159.6454 119.925058 
L 162.280583 122.116521 
L 164.915766 124.307984 
L 167.550949 126.499447 
L 170.186132 128.69091 
L 172.821315 130.882374 
L 175.456498 133.073837 
L 178.091681 135.2653 
L 180.726864 137.456763 
L 183.362047 139.648226 
L 185.99723 141.83969 
L 188.632413 144.031153 
L 191.267596 146.222616 
L 193.902779 148.414079 
L 196.537962 150.605542 
L 199.173145 152.797006 
L 201.808328 154.988469 
L 204.443511 157.179932 
L 207.078694 159.371395 
L 209.713877 161.562858 
L 212.34906 163.754322 
L 214.984243 165.945785 
L 217.619426 168.137248 
L 220.254609 170.328711 
L 222.889792 172.520174 
L 225.524975 174.711638 
L 228.160158 176.903101 
L 230.795341 179.094564 
L 233.430524 181.286027 
L 236.065707 183.47749 
L 238.70089 185.668954 
L 241.336073 187.860417 
L 243.971256 190.05188 
L 246.606439 192.243343 
L 249.241622 194.434806 
L 251.876805 196.62627 
L 254.511988 198.817733 
L 257.147171 201.009196 
L 259.782354 203.200659 
L 262.417537 205.392122 
L 265.05272 207.583585 
L 267.687903 209.775049 
L 270.323086 211.966512 
L 272.958269 214.157975 
L 275.593452 216.349438 
L 278.228635 218.540901 
L 280.863818 220.732365 
L 283.499001 222.923828 
L 286.134184 225.115291 
L 288.769367 227.306754 
L 291.40455 229.498217 
L 294.039733 231.689681 
L 296.674916 233.881144 
L 299.310099 236.072607 
L 301.945282 238.26407 
L 304.580465 240.455533 
L 307.215648 242.646997 
L 309.850831 244.83846 
L 312.486014 247.029923 
L 315.121197 249.221386 
L 317.75638 251.412849 
L 320.391563 253.604313 
L 323.026746 255.795776 
L 325.661929 257.987239 
L 328.297112 260.178702 
L 330.932295 262.370165 
L 333.567478 264.561629 
L 336.202661 266.753092 
L 338.837844 268.944555 
L 341.473027 271.136018 
L 344.10821 273.327481 
" clip-path="url(#p058b26c918)" style="fill: none; stroke-dasharray: 7.4,3.2; stroke-dashoffset: 0; stroke: #322694; stroke-width: 2"/>
   </g>
   <g id="patch_3">
    <path d="M 70.180937 373.892625 
L 70.180937 41.252625 
" style="fill: none; stroke: #000000; stroke-width: 1.5; stroke-linejoin: miter; stroke-linecap: square"/>
   </g>
   <g id="patch_4">
    <path d="M 357.152366 373.892625 
L 357.152366 41.252625 
" style="fill: none; stroke: #000000; stroke-width: 1.5; stroke-linejoin: miter; stroke-linecap: square"/>
   </g>
   <g id="patch_5">
    <path d="M 70.180937 373.892625 
L 357.152366 373.892625 
" style="fill: none; stroke: #000000; stroke-width: 1.5; stroke-linejoin: miter; stroke-linecap: square"/>
   </g>
   <g id="patch_6">
    <path d="M 70.180937 41.252625 
L 357.152366 41.252625 
" style="fill: none; stroke: #000000; stroke-width: 1.5; stroke-linejoin: miter; stroke-linecap: square"/>
   </g>
   <g id="text_15">
    <!-- A -->
    <g transform="translate(41.483795 20.877187) scale(0.18 -0.18)">
     <defs>
      <path id="DejaVuSans-Bold-41" d="M 3419 850 
L 1538 850 
L 1241 0 
L 31 0 
L 1759 4666 
L 3194 4666 
L 4922 0 
L 3713 0 
L 3419 850 
z
M 1838 1716 
L 3116 1716 
L 2478 3572 
L 1838 1716 
z
" transform="scale(0.015625)"/>
     </defs>
     <use xlink:href="#DejaVuSans-Bold-41"/>
    </g>
   </g>
   <g id="legend_1">
    <g id="line2d_16">
     <path d="M 82.780937 312.382312 
L 96.780937 312.382312 
L 110.780937 312.382312 
" style="fill: none; stroke: #802f95; stroke-width: 2; stroke-linecap: square"/>
    </g>
    <g id="text_16">
     <!-- Simulation -->
     <g transform="translate(121.980937 317.282312) scale(0.14 -0.14)">
      <defs>
       <path id="DejaVuSans-53" d="M 3425 4513 
L 3425 3897 
Q 3066 4069 2747 4153 
Q 2428 4238 2131 4238 
Q 1616 4238 1336 4038 
Q 1056 3838 1056 3469 
Q 1056 3159 1242 3001 
Q 1428 2844 1947 2747 
L 2328 2669 
Q 3034 2534 3370 2195 
Q 3706 1856 3706 1288 
Q 3706 609 3251 259 
Q 2797 -91 1919 -91 
Q 1588 -91 1214 -16 
Q 841 59 441 206 
L 441 856 
Q 825 641 1194 531 
Q 1563 422 1919 422 
Q 2459 422 2753 634 
Q 3047 847 3047 1241 
Q 3047 1584 2836 1778 
Q 2625 1972 2144 2069 
L 1759 2144 
Q 1053 2284 737 2584 
Q 422 2884 422 3419 
Q 422 4038 858 4394 
Q 1294 4750 2059 4750 
Q 2388 4750 2728 4690 
Q 3069 4631 3425 4513 
z
" transform="scale(0.015625)"/>
       <path id="DejaVuSans-75" d="M 544 1381 
L 544 3500 
L 1119 3500 
L 1119 1403 
Q 1119 906 1312 657 
Q 1506 409 1894 409 
Q 2359 409 2629 706 
Q 2900 1003 2900 1516 
L 2900 3500 
L 3475 3500 
L 3475 0 
L 2900 0 
L 2900 538 
Q 2691 219 2414 64 
Q 2138 -91 1772 -91 
Q 1169 -91 856 284 
Q 544 659 544 1381 
z
M 1991 3584 
L 1991 3584 
z
" transform="scale(0.015625)"/>
      </defs>
      <use xlink:href="#DejaVuSans-53"/>
      <use xlink:href="#DejaVuSans-69" x="63.476562"/>
      <use xlink:href="#DejaVuSans-6d" x="91.259766"/>
      <use xlink:href="#DejaVuSans-75" x="188.671875"/>
      <use xlink:href="#DejaVuSans-6c" x="252.050781"/>
      <use xlink:href="#DejaVuSans-61" x="279.833984"/>
      <use xlink:href="#DejaVuSans-74" x="341.113281"/>
      <use xlink:href="#DejaVuSans-69" x="380.322266"/>
      <use xlink:href="#DejaVuSans-6f" x="408.105469"/>
      <use xlink:href="#DejaVuSans-6e" x="469.287109"/>
     </g>
    </g>
    <g id="line2d_17">
     <path d="M 82.780937 332.931687 
L 96.780937 332.931687 
L 110.780937 332.931687 
" style="fill: none; stroke-dasharray: 7.4,3.2; stroke-dashoffset: 0; stroke: #ff0000; stroke-width: 2"/>
    </g>
    <g id="text_17">
     <!-- Constant R approx. (eq. A16) -->
     <g transform="translate(121.980937 337.831687) scale(0.14 -0.14)">
      <defs>
       <path id="DejaVuSans-52" d="M 2841 2188 
Q 3044 2119 3236 1894 
Q 3428 1669 3622 1275 
L 4263 0 
L 3584 0 
L 2988 1197 
Q 2756 1666 2539 1819 
Q 2322 1972 1947 1972 
L 1259 1972 
L 1259 0 
L 628 0 
L 628 4666 
L 2053 4666 
Q 2853 4666 3247 4331 
Q 3641 3997 3641 3322 
Q 3641 2881 3436 2590 
Q 3231 2300 2841 2188 
z
M 1259 4147 
L 1259 2491 
L 2053 2491 
Q 2509 2491 2742 2702 
Q 2975 2913 2975 3322 
Q 2975 3731 2742 3939 
Q 2509 4147 2053 4147 
L 1259 4147 
z
" transform="scale(0.015625)"/>
       <path id="DejaVuSans-78" d="M 3513 3500 
L 2247 1797 
L 3578 0 
L 2900 0 
L 1881 1375 
L 863 0 
L 184 0 
L 1544 1831 
L 300 3500 
L 978 3500 
L 1906 2253 
L 2834 3500 
L 3513 3500 
z
" transform="scale(0.015625)"/>
       <path id="DejaVuSans-71" d="M 947 1747 
Q 947 1113 1208 752 
Q 1469 391 1925 391 
Q 2381 391 2643 752 
Q 2906 1113 2906 1747 
Q 2906 2381 2643 2742 
Q 2381 3103 1925 3103 
Q 1469 3103 1208 2742 
Q 947 2381 947 1747 
z
M 2906 525 
Q 2725 213 2448 61 
Q 2172 -91 1784 -91 
Q 1150 -91 751 415 
Q 353 922 353 1747 
Q 353 2572 751 3078 
Q 1150 3584 1784 3584 
Q 2172 3584 2448 3432 
Q 2725 3281 2906 2969 
L 2906 3500 
L 3481 3500 
L 3481 -1331 
L 2906 -1331 
L 2906 525 
z
" transform="scale(0.015625)"/>
       <path id="DejaVuSans-41" d="M 2188 4044 
L 1331 1722 
L 3047 1722 
L 2188 4044 
z
M 1831 4666 
L 2547 4666 
L 4325 0 
L 3669 0 
L 3244 1197 
L 1141 1197 
L 716 0 
L 50 0 
L 1831 4666 
z
" transform="scale(0.015625)"/>
       <path id="DejaVuSans-36" d="M 2113 2584 
Q 1688 2584 1439 2293 
Q 1191 2003 1191 1497 
Q 1191 994 1439 701 
Q 1688 409 2113 409 
Q 2538 409 2786 701 
Q 3034 994 3034 1497 
Q 3034 2003 2786 2293 
Q 2538 2584 2113 2584 
z
M 3366 4563 
L 3366 3988 
Q 3128 4100 2886 4159 
Q 2644 4219 2406 4219 
Q 1781 4219 1451 3797 
Q 1122 3375 1075 2522 
Q 1259 2794 1537 2939 
Q 1816 3084 2150 3084 
Q 2853 3084 3261 2657 
Q 3669 2231 3669 1497 
Q 3669 778 3244 343 
Q 2819 -91 2113 -91 
Q 1303 -91 875 529 
Q 447 1150 447 2328 
Q 447 3434 972 4092 
Q 1497 4750 2381 4750 
Q 2619 4750 2861 4703 
Q 3103 4656 3366 4563 
z
" transform="scale(0.015625)"/>
      </defs>
      <use xlink:href="#DejaVuSans-43"/>
      <use xlink:href="#DejaVuSans-6f" x="69.824219"/>
      <use xlink:href="#DejaVuSans-6e" x="131.005859"/>
      <use xlink:href="#DejaVuSans-73" x="194.384766"/>
      <use xlink:href="#DejaVuSans-74" x="246.484375"/>
      <use xlink:href="#DejaVuSans-61" x="285.693359"/>
      <use xlink:href="#DejaVuSans-6e" x="346.972656"/>
      <use xlink:href="#DejaVuSans-74" x="410.351562"/>
      <use xlink:href="#DejaVuSans-20" x="449.560547"/>
      <use xlink:href="#DejaVuSans-52" x="481.347656"/>
      <use xlink:href="#DejaVuSans-20" x="550.830078"/>
      <use xlink:href="#DejaVuSans-61" x="582.617188"/>
      <use xlink:href="#DejaVuSans-70" x="643.896484"/>
      <use xlink:href="#DejaVuSans-70" x="707.373047"/>
      <use xlink:href="#DejaVuSans-72" x="770.849609"/>
      <use xlink:href="#DejaVuSans-6f" x="809.712891"/>
      <use xlink:href="#DejaVuSans-78" x="867.769531"/>
      <use xlink:href="#DejaVuSans-2e" x="926.949219"/>
      <use xlink:href="#DejaVuSans-20" x="958.736328"/>
      <use xlink:href="#DejaVuSans-28" x="990.523438"/>
      <use xlink:href="#DejaVuSans-65" x="1029.537109"/>
      <use xlink:href="#DejaVuSans-71" x="1091.060547"/>
      <use xlink:href="#DejaVuSans-2e" x="1154.537109"/>
      <use xlink:href="#DejaVuSans-20" x="1186.324219"/>
      <use xlink:href="#DejaVuSans-41" x="1218.111328"/>
      <use xlink:href="#DejaVuSans-31" x="1286.519531"/>
      <use xlink:href="#DejaVuSans-36" x="1350.142578"/>
      <use xlink:href="#DejaVuSans-29" x="1413.765625"/>
     </g>
    </g>
    <g id="line2d_18">
     <path d="M 82.780937 353.481063 
L 96.780937 353.481063 
L 110.780937 353.481063 
" style="fill: none; stroke-dasharray: 7.4,3.2; stroke-dashoffset: 0; stroke: #322694; stroke-width: 2"/>
    </g>
    <g id="text_18">
     <!-- Linear Fit -->
     <g transform="translate(121.980937 358.381062) scale(0.14 -0.14)">
      <defs>
       <path id="DejaVuSans-46" d="M 628 4666 
L 3309 4666 
L 3309 4134 
L 1259 4134 
L 1259 2759 
L 3109 2759 
L 3109 2228 
L 1259 2228 
L 1259 0 
L 628 0 
L 628 4666 
z
" transform="scale(0.015625)"/>
      </defs>
      <use xlink:href="#DejaVuSans-4c"/>
      <use xlink:href="#DejaVuSans-69" x="55.712891"/>
      <use xlink:href="#DejaVuSans-6e" x="83.496094"/>
      <use xlink:href="#DejaVuSans-65" x="146.875"/>
      <use xlink:href="#DejaVuSans-61" x="208.398438"/>
      <use xlink:href="#DejaVuSans-72" x="269.677734"/>
      <use xlink:href="#DejaVuSans-20" x="310.791016"/>
      <use xlink:href="#DejaVuSans-46" x="342.578125"/>
      <use xlink:href="#DejaVuSans-69" x="392.847656"/>
      <use xlink:href="#DejaVuSans-74" x="420.630859"/>
     </g>
    </g>
   </g>
  </g>
  <g id="axes_2">
   <g id="patch_7">
    <path d="M 428.895223 373.892625 
L 715.866652 373.892625 
L 715.866652 41.252625 
L 428.895223 41.252625 
z
" style="fill: #ffffff"/>
   </g>
   <g id="PolyCollection_2">
    <defs>
     <path id="m04d3dbe9b4" d="M 441.939379 -367.254375 
L 441.939379 -367.254375 
L 453.797703 -357.608629 
L 465.656026 -347.795849 
L 477.51435 -337.113384 
L 489.372673 -327.064768 
L 501.230997 -316.196533 
L 513.08932 -303.338873 
L 524.947644 -291.269479 
L 536.805967 -275.083445 
L 548.664291 -260.530737 
L 560.522614 -243.772839 
L 572.380938 -227.377042 
L 584.239261 -209.966557 
L 596.097584 -191.289901 
L 607.955908 -170.72928 
L 619.814231 -154.217749 
L 631.672555 -137.660332 
L 643.530878 -118.111987 
L 655.389202 -92.603364 
L 667.247525 -65.316938 
L 679.105849 -64.854375 
L 690.964172 -72.992378 
L 702.822496 -109.541465 
L 702.822496 -208.942455 
L 702.822496 -208.942455 
L 690.964172 -208.033714 
L 679.105849 -222.955062 
L 667.247525 -241.279171 
L 655.389202 -246.958053 
L 643.530878 -258.926652 
L 631.672555 -265.738933 
L 619.814231 -269.21614 
L 607.955908 -279.798191 
L 596.097584 -285.348208 
L 584.239261 -294.384117 
L 572.380938 -301.807288 
L 560.522614 -310.091732 
L 548.664291 -316.25109 
L 536.805967 -323.512213 
L 524.947644 -330.190465 
L 513.08932 -337.331711 
L 501.230997 -342.000069 
L 489.372673 -347.835622 
L 477.51435 -352.988101 
L 465.656026 -357.913184 
L 453.797703 -362.522495 
L 441.939379 -367.254375 
z
" style="stroke: #802f95; stroke-opacity: 0.2"/>
    </defs>
    <g clip-path="url(#p84aaf0f311)">
     <use xlink:href="#m04d3dbe9b4" x="0" y="423.627" style="fill: #802f95; fill-opacity: 0.2; stroke: #802f95; stroke-opacity: 0.2"/>
    </g>
   </g>
   <g id="matplotlib.axis_3">
    <g id="xtick_7">
     <g id="line2d_19">
      <g>
       <use xlink:href="#me48a39f717" x="441.939379" y="373.892625" style="stroke: #000000; stroke-width: 1.5"/>
      </g>
     </g>
     <g id="text_19">
      <!-- 0 -->
      <g transform="translate(437.485629 394.030437) scale(0.14 -0.14)">
       <use xlink:href="#DejaVuSans-30"/>
      </g>
     </g>
    </g>
    <g id="xtick_8">
     <g id="line2d_20">
      <g>
       <use xlink:href="#me48a39f717" x="501.230997" y="373.892625" style="stroke: #000000; stroke-width: 1.5"/>
      </g>
     </g>
     <g id="text_20">
      <!-- 5 -->
      <g transform="translate(496.777247 394.030437) scale(0.14 -0.14)">
       <use xlink:href="#DejaVuSans-35"/>
      </g>
     </g>
    </g>
    <g id="xtick_9">
     <g id="line2d_21">
      <g>
       <use xlink:href="#me48a39f717" x="560.522614" y="373.892625" style="stroke: #000000; stroke-width: 1.5"/>
      </g>
     </g>
     <g id="text_21">
      <!-- 10 -->
      <g transform="translate(551.615114 394.030437) scale(0.14 -0.14)">
       <use xlink:href="#DejaVuSans-31"/>
       <use xlink:href="#DejaVuSans-30" x="63.623047"/>
      </g>
     </g>
    </g>
    <g id="xtick_10">
     <g id="line2d_22">
      <g>
       <use xlink:href="#me48a39f717" x="619.814231" y="373.892625" style="stroke: #000000; stroke-width: 1.5"/>
      </g>
     </g>
     <g id="text_22">
      <!-- 15 -->
      <g transform="translate(610.906731 394.030437) scale(0.14 -0.14)">
       <use xlink:href="#DejaVuSans-31"/>
       <use xlink:href="#DejaVuSans-35" x="63.623047"/>
      </g>
     </g>
    </g>
    <g id="xtick_11">
     <g id="line2d_23">
      <g>
       <use xlink:href="#me48a39f717" x="679.105849" y="373.892625" style="stroke: #000000; stroke-width: 1.5"/>
      </g>
     </g>
     <g id="text_23">
      <!-- 20 -->
      <g transform="translate(670.198349 394.030437) scale(0.14 -0.14)">
       <use xlink:href="#DejaVuSans-32"/>
       <use xlink:href="#DejaVuSans-30" x="63.623047"/>
      </g>
     </g>
    </g>
    <g id="text_24">
     <!-- Time (steps) -->
     <g transform="translate(522.549688 413.0995) scale(0.16 -0.16)">
      <use xlink:href="#DejaVuSans-54"/>
      <use xlink:href="#DejaVuSans-69" x="57.958984"/>
      <use xlink:href="#DejaVuSans-6d" x="85.742188"/>
      <use xlink:href="#DejaVuSans-65" x="183.154297"/>
      <use xlink:href="#DejaVuSans-20" x="244.677734"/>
      <use xlink:href="#DejaVuSans-28" x="276.464844"/>
      <use xlink:href="#DejaVuSans-73" x="315.478516"/>
      <use xlink:href="#DejaVuSans-74" x="367.578125"/>
      <use xlink:href="#DejaVuSans-65" x="406.787109"/>
      <use xlink:href="#DejaVuSans-70" x="468.310547"/>
      <use xlink:href="#DejaVuSans-73" x="531.787109"/>
      <use xlink:href="#DejaVuSans-29" x="583.886719"/>
     </g>
    </g>
   </g>
   <g id="matplotlib.axis_4">
    <g id="ytick_7">
     <g id="line2d_24">
      <g>
       <use xlink:href="#m6a0d5cd103" x="428.895223" y="366.698577" style="stroke: #000000; stroke-width: 1.5"/>
      </g>
     </g>
     <g id="text_25">
      <!-- −0.14 -->
      <g transform="translate(376.491786 372.017483) scale(0.14 -0.14)">
       <defs>
        <path id="DejaVuSans-34" d="M 2419 4116 
L 825 1625 
L 2419 1625 
L 2419 4116 
z
M 2253 4666 
L 3047 4666 
L 3047 1625 
L 3713 1625 
L 3713 1100 
L 3047 1100 
L 3047 0 
L 2419 0 
L 2419 1100 
L 313 1100 
L 313 1709 
L 2253 4666 
z
" transform="scale(0.015625)"/>
       </defs>
       <use xlink:href="#DejaVuSans-2212"/>
       <use xlink:href="#DejaVuSans-30" x="83.789062"/>
       <use xlink:href="#DejaVuSans-2e" x="147.412109"/>
       <use xlink:href="#DejaVuSans-31" x="179.199219"/>
       <use xlink:href="#DejaVuSans-34" x="242.822266"/>
      </g>
     </g>
    </g>
    <g id="ytick_8">
     <g id="line2d_25">
      <g>
       <use xlink:href="#m6a0d5cd103" x="428.895223" y="322.366298" style="stroke: #000000; stroke-width: 1.5"/>
      </g>
     </g>
     <g id="text_26">
      <!-- −0.12 -->
      <g transform="translate(376.491786 327.685204) scale(0.14 -0.14)">
       <use xlink:href="#DejaVuSans-2212"/>
       <use xlink:href="#DejaVuSans-30" x="83.789062"/>
       <use xlink:href="#DejaVuSans-2e" x="147.412109"/>
       <use xlink:href="#DejaVuSans-31" x="179.199219"/>
       <use xlink:href="#DejaVuSans-32" x="242.822266"/>
      </g>
     </g>
    </g>
    <g id="ytick_9">
     <g id="line2d_26">
      <g>
       <use xlink:href="#m6a0d5cd103" x="428.895223" y="278.034019" style="stroke: #000000; stroke-width: 1.5"/>
      </g>
     </g>
     <g id="text_27">
      <!-- −0.10 -->
      <g transform="translate(376.491786 283.352926) scale(0.14 -0.14)">
       <use xlink:href="#DejaVuSans-2212"/>
       <use xlink:href="#DejaVuSans-30" x="83.789062"/>
       <use xlink:href="#DejaVuSans-2e" x="147.412109"/>
       <use xlink:href="#DejaVuSans-31" x="179.199219"/>
       <use xlink:href="#DejaVuSans-30" x="242.822266"/>
      </g>
     </g>
    </g>
    <g id="ytick_10">
     <g id="line2d_27">
      <g>
       <use xlink:href="#m6a0d5cd103" x="428.895223" y="233.70174" style="stroke: #000000; stroke-width: 1.5"/>
      </g>
     </g>
     <g id="text_28">
      <!-- −0.08 -->
      <g transform="translate(376.491786 239.020647) scale(0.14 -0.14)">
       <defs>
        <path id="DejaVuSans-38" d="M 2034 2216 
Q 1584 2216 1326 1975 
Q 1069 1734 1069 1313 
Q 1069 891 1326 650 
Q 1584 409 2034 409 
Q 2484 409 2743 651 
Q 3003 894 3003 1313 
Q 3003 1734 2745 1975 
Q 2488 2216 2034 2216 
z
M 1403 2484 
Q 997 2584 770 2862 
Q 544 3141 544 3541 
Q 544 4100 942 4425 
Q 1341 4750 2034 4750 
Q 2731 4750 3128 4425 
Q 3525 4100 3525 3541 
Q 3525 3141 3298 2862 
Q 3072 2584 2669 2484 
Q 3125 2378 3379 2068 
Q 3634 1759 3634 1313 
Q 3634 634 3220 271 
Q 2806 -91 2034 -91 
Q 1263 -91 848 271 
Q 434 634 434 1313 
Q 434 1759 690 2068 
Q 947 2378 1403 2484 
z
M 1172 3481 
Q 1172 3119 1398 2916 
Q 1625 2713 2034 2713 
Q 2441 2713 2670 2916 
Q 2900 3119 2900 3481 
Q 2900 3844 2670 4047 
Q 2441 4250 2034 4250 
Q 1625 4250 1398 4047 
Q 1172 3844 1172 3481 
z
" transform="scale(0.015625)"/>
       </defs>
       <use xlink:href="#DejaVuSans-2212"/>
       <use xlink:href="#DejaVuSans-30" x="83.789062"/>
       <use xlink:href="#DejaVuSans-2e" x="147.412109"/>
       <use xlink:href="#DejaVuSans-30" x="179.199219"/>
       <use xlink:href="#DejaVuSans-38" x="242.822266"/>
      </g>
     </g>
    </g>
    <g id="ytick_11">
     <g id="line2d_28">
      <g>
       <use xlink:href="#m6a0d5cd103" x="428.895223" y="189.369462" style="stroke: #000000; stroke-width: 1.5"/>
      </g>
     </g>
     <g id="text_29">
      <!-- −0.06 -->
      <g transform="translate(376.491786 194.688368) scale(0.14 -0.14)">
       <use xlink:href="#DejaVuSans-2212"/>
       <use xlink:href="#DejaVuSans-30" x="83.789062"/>
       <use xlink:href="#DejaVuSans-2e" x="147.412109"/>
       <use xlink:href="#DejaVuSans-30" x="179.199219"/>
       <use xlink:href="#DejaVuSans-36" x="242.822266"/>
      </g>
     </g>
    </g>
    <g id="ytick_12">
     <g id="line2d_29">
      <g>
       <use xlink:href="#m6a0d5cd103" x="428.895223" y="145.037183" style="stroke: #000000; stroke-width: 1.5"/>
      </g>
     </g>
     <g id="text_30">
      <!-- −0.04 -->
      <g transform="translate(376.491786 150.356089) scale(0.14 -0.14)">
       <use xlink:href="#DejaVuSans-2212"/>
       <use xlink:href="#DejaVuSans-30" x="83.789062"/>
       <use xlink:href="#DejaVuSans-2e" x="147.412109"/>
       <use xlink:href="#DejaVuSans-30" x="179.199219"/>
       <use xlink:href="#DejaVuSans-34" x="242.822266"/>
      </g>
     </g>
    </g>
    <g id="ytick_13">
     <g id="line2d_30">
      <g>
       <use xlink:href="#m6a0d5cd103" x="428.895223" y="100.704904" style="stroke: #000000; stroke-width: 1.5"/>
      </g>
     </g>
     <g id="text_31">
      <!-- −0.02 -->
      <g transform="translate(376.491786 106.02381) scale(0.14 -0.14)">
       <use xlink:href="#DejaVuSans-2212"/>
       <use xlink:href="#DejaVuSans-30" x="83.789062"/>
       <use xlink:href="#DejaVuSans-2e" x="147.412109"/>
       <use xlink:href="#DejaVuSans-30" x="179.199219"/>
       <use xlink:href="#DejaVuSans-32" x="242.822266"/>
      </g>
     </g>
    </g>
    <g id="ytick_14">
     <g id="line2d_31">
      <g>
       <use xlink:href="#m6a0d5cd103" x="428.895223" y="56.372625" style="stroke: #000000; stroke-width: 1.5"/>
      </g>
     </g>
     <g id="text_32">
      <!-- 0.00 -->
      <g transform="translate(388.223348 61.691531) scale(0.14 -0.14)">
       <use xlink:href="#DejaVuSans-30"/>
       <use xlink:href="#DejaVuSans-2e" x="63.623047"/>
       <use xlink:href="#DejaVuSans-30" x="95.410156"/>
       <use xlink:href="#DejaVuSans-30" x="159.033203"/>
      </g>
     </g>
    </g>
   </g>
   <g id="line2d_32">
    <path d="M 441.939379 56.372625 
L 453.797703 63.561438 
L 465.656026 70.772484 
L 477.51435 78.576257 
L 489.372673 86.176805 
L 501.230997 94.528699 
L 513.08932 103.291708 
L 524.947644 112.897028 
L 536.805967 124.329171 
L 548.664291 135.236087 
L 560.522614 146.694715 
L 572.380938 159.034835 
L 584.239261 171.451663 
L 596.097584 185.307945 
L 607.955908 198.363265 
L 619.814231 211.910055 
L 631.672555 221.927368 
L 643.530878 235.107681 
L 655.389202 253.846291 
L 667.247525 270.328946 
L 679.105849 279.722282 
L 690.964172 283.113954 
L 702.822496 264.38504 
" clip-path="url(#p84aaf0f311)" style="fill: none; stroke: #802f95; stroke-width: 2; stroke-linecap: square"/>
   </g>
   <g id="line2d_33">
    <path d="M 441.939379 56.372625 
L 444.574562 57.850368 
L 447.209745 59.32811 
L 449.844928 60.805853 
L 452.480111 62.283596 
L 455.115294 63.761338 
L 457.750477 65.239081 
L 460.38566 66.716823 
L 463.020843 68.194566 
L 465.656026 69.672309 
L 468.291209 71.150051 
L 470.926392 72.627794 
L 473.561575 74.105537 
L 476.196758 75.583279 
L 478.831941 77.061022 
L 481.467124 78.538764 
L 484.102307 80.016507 
L 486.73749 81.49425 
L 489.372673 82.971992 
L 492.007856 84.449735 
L 494.643039 85.927478 
L 497.278222 87.40522 
L 499.913405 88.882963 
L 502.548588 90.360705 
L 505.183771 91.838448 
L 507.818954 93.316191 
L 510.454137 94.793933 
L 513.08932 96.271676 
L 515.724503 97.749419 
L 518.359686 99.227161 
L 520.994869 100.704904 
L 523.630052 102.182647 
L 526.265235 103.660389 
L 528.900418 105.138132 
L 531.535601 106.615874 
L 534.170784 108.093617 
L 536.805967 109.57136 
L 539.44115 111.049102 
L 542.076333 112.526845 
L 544.711516 114.004588 
L 547.346699 115.48233 
L 549.981882 116.960073 
L 552.617065 118.437815 
L 555.252248 119.915558 
L 557.887431 121.393301 
L 560.522614 122.871043 
L 563.157797 124.348786 
L 565.79298 125.826529 
L 568.428163 127.304271 
L 571.063346 128.782014 
L 573.698529 130.259756 
L 576.333712 131.737499 
L 578.968895 133.215242 
L 581.604078 134.692984 
L 584.239261 136.170727 
L 586.874444 137.64847 
L 589.509627 139.126212 
L 592.14481 140.603955 
L 594.779993 142.081697 
L 597.415176 143.55944 
L 600.050359 145.037183 
L 602.685542 146.514925 
L 605.320725 147.992668 
L 607.955908 149.470411 
L 610.591091 150.948153 
L 613.226274 152.425896 
L 615.861457 153.903639 
L 618.49664 155.381381 
L 621.131823 156.859124 
L 623.767006 158.336866 
L 626.402189 159.814609 
L 629.037372 161.292352 
L 631.672555 162.770094 
L 634.307738 164.247837 
L 636.942921 165.72558 
L 639.578104 167.203322 
L 642.213287 168.681065 
L 644.84847 170.158807 
L 647.483653 171.63655 
L 650.118836 173.114293 
L 652.754019 174.592035 
L 655.389202 176.069778 
L 658.024385 177.547521 
L 660.659568 179.025263 
L 663.294751 180.503006 
L 665.929934 181.980748 
L 668.565117 183.458491 
L 671.2003 184.936234 
L 673.835483 186.413976 
L 676.470666 187.891719 
L 679.105849 189.369462 
L 681.741032 190.847204 
L 684.376215 192.324947 
L 687.011398 193.80269 
L 689.646581 195.280432 
L 692.281764 196.758175 
L 694.916947 198.235917 
L 697.55213 199.71366 
L 700.187313 201.191403 
L 702.822496 202.669145 
" clip-path="url(#p84aaf0f311)" style="fill: none; stroke-dasharray: 9.25,4; stroke-dashoffset: 0; stroke: #ff0000; stroke-width: 2.5"/>
   </g>
   <g id="patch_8">
    <path d="M 428.895223 373.892625 
L 428.895223 41.252625 
" style="fill: none; stroke: #000000; stroke-width: 1.5; stroke-linejoin: miter; stroke-linecap: square"/>
   </g>
   <g id="patch_9">
    <path d="M 715.866652 373.892625 
L 715.866652 41.252625 
" style="fill: none; stroke: #000000; stroke-width: 1.5; stroke-linejoin: miter; stroke-linecap: square"/>
   </g>
   <g id="patch_10">
    <path d="M 428.895223 373.892625 
L 715.866652 373.892625 
" style="fill: none; stroke: #000000; stroke-width: 1.5; stroke-linejoin: miter; stroke-linecap: square"/>
   </g>
   <g id="patch_11">
    <path d="M 428.895223 41.252625 
L 715.866652 41.252625 
" style="fill: none; stroke: #000000; stroke-width: 1.5; stroke-linejoin: miter; stroke-linecap: square"/>
   </g>
   <g id="text_33">
    <!-- B -->
    <g transform="translate(400.19808 20.877187) scale(0.18 -0.18)">
     <defs>
      <path id="DejaVuSans-Bold-42" d="M 2456 2859 
Q 2741 2859 2887 2984 
Q 3034 3109 3034 3353 
Q 3034 3594 2887 3720 
Q 2741 3847 2456 3847 
L 1791 3847 
L 1791 2859 
L 2456 2859 
z
M 2497 819 
Q 2859 819 3042 972 
Q 3225 1125 3225 1434 
Q 3225 1738 3044 1889 
Q 2863 2041 2497 2041 
L 1791 2041 
L 1791 819 
L 2497 819 
z
M 3616 2497 
Q 4003 2384 4215 2081 
Q 4428 1778 4428 1338 
Q 4428 663 3972 331 
Q 3516 0 2584 0 
L 588 0 
L 588 4666 
L 2394 4666 
Q 3366 4666 3802 4372 
Q 4238 4078 4238 3431 
Q 4238 3091 4078 2852 
Q 3919 2613 3616 2497 
z
" transform="scale(0.015625)"/>
     </defs>
     <use xlink:href="#DejaVuSans-Bold-42"/>
    </g>
   </g>
   <g id="legend_2">
    <g id="line2d_34">
     <path d="M 441.495223 332.931687 
L 455.495223 332.931687 
L 469.495223 332.931687 
" style="fill: none; stroke: #802f95; stroke-width: 2; stroke-linecap: square"/>
    </g>
    <g id="text_34">
     <!-- Simulation -->
     <g transform="translate(480.695223 337.831687) scale(0.14 -0.14)">
      <use xlink:href="#DejaVuSans-53"/>
      <use xlink:href="#DejaVuSans-69" x="63.476562"/>
      <use xlink:href="#DejaVuSans-6d" x="91.259766"/>
      <use xlink:href="#DejaVuSans-75" x="188.671875"/>
      <use xlink:href="#DejaVuSans-6c" x="252.050781"/>
      <use xlink:href="#DejaVuSans-61" x="279.833984"/>
      <use xlink:href="#DejaVuSans-74" x="341.113281"/>
      <use xlink:href="#DejaVuSans-69" x="380.322266"/>
      <use xlink:href="#DejaVuSans-6f" x="408.105469"/>
      <use xlink:href="#DejaVuSans-6e" x="469.287109"/>
     </g>
    </g>
    <g id="line2d_35">
     <path d="M 441.495223 353.481063 
L 455.495223 353.481063 
L 469.495223 353.481063 
" style="fill: none; stroke-dasharray: 9.25,4; stroke-dashoffset: 0; stroke: #ff0000; stroke-width: 2.5"/>
    </g>
    <g id="text_35">
     <!-- Constant R approx. (eq. A16) -->
     <g transform="translate(480.695223 358.381062) scale(0.14 -0.14)">
      <use xlink:href="#DejaVuSans-43"/>
      <use xlink:href="#DejaVuSans-6f" x="69.824219"/>
      <use xlink:href="#DejaVuSans-6e" x="131.005859"/>
      <use xlink:href="#DejaVuSans-73" x="194.384766"/>
      <use xlink:href="#DejaVuSans-74" x="246.484375"/>
      <use xlink:href="#DejaVuSans-61" x="285.693359"/>
      <use xlink:href="#DejaVuSans-6e" x="346.972656"/>
      <use xlink:href="#DejaVuSans-74" x="410.351562"/>
      <use xlink:href="#DejaVuSans-20" x="449.560547"/>
      <use xlink:href="#DejaVuSans-52" x="481.347656"/>
      <use xlink:href="#DejaVuSans-20" x="550.830078"/>
      <use xlink:href="#DejaVuSans-61" x="582.617188"/>
      <use xlink:href="#DejaVuSans-70" x="643.896484"/>
      <use xlink:href="#DejaVuSans-70" x="707.373047"/>
      <use xlink:href="#DejaVuSans-72" x="770.849609"/>
      <use xlink:href="#DejaVuSans-6f" x="809.712891"/>
      <use xlink:href="#DejaVuSans-78" x="867.769531"/>
      <use xlink:href="#DejaVuSans-2e" x="926.949219"/>
      <use xlink:href="#DejaVuSans-20" x="958.736328"/>
      <use xlink:href="#DejaVuSans-28" x="990.523438"/>
      <use xlink:href="#DejaVuSans-65" x="1029.537109"/>
      <use xlink:href="#DejaVuSans-71" x="1091.060547"/>
      <use xlink:href="#DejaVuSans-2e" x="1154.537109"/>
      <use xlink:href="#DejaVuSans-20" x="1186.324219"/>
      <use xlink:href="#DejaVuSans-41" x="1218.111328"/>
      <use xlink:href="#DejaVuSans-31" x="1286.519531"/>
      <use xlink:href="#DejaVuSans-36" x="1350.142578"/>
      <use xlink:href="#DejaVuSans-29" x="1413.765625"/>
     </g>
    </g>
   </g>
  </g>
  <g id="axes_3">
   <g id="patch_12">
    <path d="M 787.609509 373.892625 
L 1074.580938 373.892625 
L 1074.580938 41.252625 
L 787.609509 41.252625 
z
" style="fill: #ffffff"/>
   </g>
   <g id="PolyCollection_3">
    <defs>
     <path id="m3ada88595f" d="M 800.653665 -367.254375 
L 800.653665 -367.254375 
L 803.186511 -366.703923 
L 805.719356 -366.175532 
L 808.252202 -365.620709 
L 810.785048 -365.020091 
L 813.317894 -364.430438 
L 815.85074 -363.849599 
L 818.383585 -363.285322 
L 820.916431 -362.662639 
L 823.449277 -362.001405 
L 825.982123 -361.353137 
L 828.514969 -360.765892 
L 831.047814 -360.105801 
L 833.58066 -359.420051 
L 836.113506 -358.62744 
L 838.646352 -357.897254 
L 841.179197 -357.179856 
L 843.712043 -356.387551 
L 846.244889 -355.762497 
L 848.777735 -355.029232 
L 851.310581 -354.211491 
L 853.843426 -353.521008 
L 856.376272 -352.725811 
L 858.909118 -351.868347 
L 861.441964 -351.294227 
L 863.97481 -350.601004 
L 866.507655 -349.877692 
L 869.040501 -349.027404 
L 871.573347 -348.020799 
L 874.106193 -347.076098 
L 876.639039 -346.324706 
L 879.171884 -345.364305 
L 881.70473 -344.665152 
L 884.237576 -343.810354 
L 886.770422 -342.722399 
L 889.303268 -341.53623 
L 891.836113 -340.200443 
L 894.368959 -339.111331 
L 896.901805 -337.777493 
L 899.434651 -336.559142 
L 901.967497 -335.597175 
L 904.500342 -334.523182 
L 907.033188 -333.160803 
L 909.566034 -331.938135 
L 912.09888 -330.382691 
L 914.631726 -329.003359 
L 917.164571 -327.688996 
L 919.697417 -326.268939 
L 922.230263 -324.329386 
L 924.763109 -322.931359 
L 927.295955 -321.291595 
L 929.8288 -319.966165 
L 932.361646 -317.788166 
L 934.894492 -315.957831 
L 937.427338 -313.828045 
L 939.960183 -311.915495 
L 942.493029 -309.808293 
L 945.025875 -308.053658 
L 947.558721 -305.508821 
L 950.091567 -303.128302 
L 952.624412 -300.496123 
L 955.157258 -298.123682 
L 957.690104 -295.142194 
L 960.22295 -293.829855 
L 962.755796 -290.934382 
L 965.288641 -288.651807 
L 967.821487 -285.116791 
L 970.354333 -281.050634 
L 972.887179 -276.989841 
L 975.420025 -273.52052 
L 977.95287 -268.016988 
L 980.485716 -263.880251 
L 983.018562 -258.159387 
L 985.551408 -253.173092 
L 988.084254 -248.213222 
L 990.617099 -241.680837 
L 993.149945 -236.696623 
L 995.682791 -230.314531 
L 998.215637 -223.317799 
L 1000.748483 -218.599925 
L 1003.281328 -214.482852 
L 1005.814174 -207.873713 
L 1008.34702 -200.724766 
L 1010.879866 -192.237459 
L 1013.412712 -187.013883 
L 1015.945557 -183.080789 
L 1018.478403 -176.937683 
L 1021.011249 -170.657221 
L 1023.544095 -170.295005 
L 1026.076941 -165.566615 
L 1028.609786 -157.948865 
L 1031.142632 -151.063818 
L 1033.675478 -154.46533 
L 1036.208324 -151.098112 
L 1038.74117 -148.127112 
L 1041.274015 -155.945185 
L 1043.806861 -150.178519 
L 1046.339707 -169.954112 
L 1048.872553 -161.324176 
L 1051.405398 -240.750576 
L 1053.938244 -228.08717 
L 1053.938244 -263.672682 
L 1053.938244 -263.672682 
L 1051.405398 -265.231693 
L 1048.872553 -276.740172 
L 1046.339707 -273.28446 
L 1043.806861 -269.506873 
L 1041.274015 -262.966881 
L 1038.74117 -257.604735 
L 1036.208324 -261.483309 
L 1033.675478 -264.898343 
L 1031.142632 -270.167992 
L 1028.609786 -272.731714 
L 1026.076941 -276.509451 
L 1023.544095 -277.924357 
L 1021.011249 -276.893151 
L 1018.478403 -279.410092 
L 1015.945557 -283.137747 
L 1013.412712 -283.802586 
L 1010.879866 -287.978735 
L 1008.34702 -288.685437 
L 1005.814174 -291.622244 
L 1003.281328 -295.13883 
L 1000.748483 -299.192992 
L 998.215637 -301.663326 
L 995.682791 -303.379182 
L 993.149945 -306.113633 
L 990.617099 -308.950273 
L 988.084254 -311.067506 
L 985.551408 -313.594585 
L 983.018562 -315.60605 
L 980.485716 -317.1629 
L 977.95287 -319.000572 
L 975.420025 -320.543636 
L 972.887179 -322.554025 
L 970.354333 -324.131028 
L 967.821487 -325.227301 
L 965.288641 -326.455948 
L 962.755796 -328.410092 
L 960.22295 -329.721872 
L 957.690104 -332.139587 
L 955.157258 -332.625323 
L 952.624412 -334.099655 
L 950.091567 -335.33149 
L 947.558721 -336.222264 
L 945.025875 -337.151227 
L 942.493029 -338.051647 
L 939.960183 -339.056101 
L 937.427338 -339.840559 
L 934.894492 -341.111048 
L 932.361646 -342.163328 
L 929.8288 -343.092301 
L 927.295955 -343.879155 
L 924.763109 -344.764442 
L 922.230263 -345.290255 
L 919.697417 -345.78796 
L 917.164571 -347.042445 
L 914.631726 -347.773079 
L 912.09888 -348.661854 
L 909.566034 -349.447988 
L 907.033188 -349.902136 
L 904.500342 -350.506273 
L 901.967497 -351.068804 
L 899.434651 -351.496909 
L 896.901805 -352.080317 
L 894.368959 -352.55624 
L 891.836113 -353.251062 
L 889.303268 -354.06272 
L 886.770422 -354.481644 
L 884.237576 -354.894143 
L 881.70473 -355.362122 
L 879.171884 -355.789636 
L 876.639039 -356.192779 
L 874.106193 -356.652786 
L 871.573347 -357.198718 
L 869.040501 -357.599286 
L 866.507655 -357.970038 
L 863.97481 -358.346446 
L 861.441964 -358.835659 
L 858.909118 -359.332841 
L 856.376272 -359.818535 
L 853.843426 -360.215055 
L 851.310581 -360.595635 
L 848.777735 -360.894672 
L 846.244889 -361.272625 
L 843.712043 -361.669117 
L 841.179197 -361.989666 
L 838.646352 -362.468106 
L 836.113506 -362.7532 
L 833.58066 -363.136862 
L 831.047814 -363.423907 
L 828.514969 -363.73373 
L 825.982123 -364.118797 
L 823.449277 -364.432478 
L 820.916431 -364.760039 
L 818.383585 -365.074725 
L 815.85074 -365.425351 
L 813.317894 -365.753622 
L 810.785048 -366.056616 
L 808.252202 -366.383852 
L 805.719356 -366.709592 
L 803.186511 -366.988951 
L 800.653665 -367.254375 
z
" style="stroke: #802f95; stroke-opacity: 0.2"/>
    </defs>
    <g clip-path="url(#p90b9f9b7f4)">
     <use xlink:href="#m3ada88595f" x="0" y="423.627" style="fill: #802f95; fill-opacity: 0.2; stroke: #802f95; stroke-opacity: 0.2"/>
    </g>
   </g>
   <g id="matplotlib.axis_5">
    <g id="xtick_12">
     <g id="line2d_36">
      <g>
       <use xlink:href="#me48a39f717" x="800.653665" y="373.892625" style="stroke: #000000; stroke-width: 1.5"/>
      </g>
     </g>
     <g id="text_36">
      <!-- 0 -->
      <g transform="translate(796.199915 394.030437) scale(0.14 -0.14)">
       <use xlink:href="#DejaVuSans-30"/>
      </g>
     </g>
    </g>
    <g id="xtick_13">
     <g id="line2d_37">
      <g>
       <use xlink:href="#me48a39f717" x="851.310581" y="373.892625" style="stroke: #000000; stroke-width: 1.5"/>
      </g>
     </g>
     <g id="text_37">
      <!-- 20 -->
      <g transform="translate(842.403081 394.030437) scale(0.14 -0.14)">
       <use xlink:href="#DejaVuSans-32"/>
       <use xlink:href="#DejaVuSans-30" x="63.623047"/>
      </g>
     </g>
    </g>
    <g id="xtick_14">
     <g id="line2d_38">
      <g>
       <use xlink:href="#me48a39f717" x="901.967497" y="373.892625" style="stroke: #000000; stroke-width: 1.5"/>
      </g>
     </g>
     <g id="text_38">
      <!-- 40 -->
      <g transform="translate(893.059997 394.030437) scale(0.14 -0.14)">
       <use xlink:href="#DejaVuSans-34"/>
       <use xlink:href="#DejaVuSans-30" x="63.623047"/>
      </g>
     </g>
    </g>
    <g id="xtick_15">
     <g id="line2d_39">
      <g>
       <use xlink:href="#me48a39f717" x="952.624412" y="373.892625" style="stroke: #000000; stroke-width: 1.5"/>
      </g>
     </g>
     <g id="text_39">
      <!-- 60 -->
      <g transform="translate(943.716912 394.030437) scale(0.14 -0.14)">
       <use xlink:href="#DejaVuSans-36"/>
       <use xlink:href="#DejaVuSans-30" x="63.623047"/>
      </g>
     </g>
    </g>
    <g id="xtick_16">
     <g id="line2d_40">
      <g>
       <use xlink:href="#me48a39f717" x="1003.281328" y="373.892625" style="stroke: #000000; stroke-width: 1.5"/>
      </g>
     </g>
     <g id="text_40">
      <!-- 80 -->
      <g transform="translate(994.373828 394.030437) scale(0.14 -0.14)">
       <use xlink:href="#DejaVuSans-38"/>
       <use xlink:href="#DejaVuSans-30" x="63.623047"/>
      </g>
     </g>
    </g>
    <g id="xtick_17">
     <g id="line2d_41">
      <g>
       <use xlink:href="#me48a39f717" x="1053.938244" y="373.892625" style="stroke: #000000; stroke-width: 1.5"/>
      </g>
     </g>
     <g id="text_41">
      <!-- 100 -->
      <g transform="translate(1040.576994 394.030437) scale(0.14 -0.14)">
       <use xlink:href="#DejaVuSans-31"/>
       <use xlink:href="#DejaVuSans-30" x="63.623047"/>
       <use xlink:href="#DejaVuSans-30" x="127.246094"/>
      </g>
     </g>
    </g>
    <g id="text_42">
     <!-- Time (steps) -->
     <g transform="translate(881.263973 413.0995) scale(0.16 -0.16)">
      <use xlink:href="#DejaVuSans-54"/>
      <use xlink:href="#DejaVuSans-69" x="57.958984"/>
      <use xlink:href="#DejaVuSans-6d" x="85.742188"/>
      <use xlink:href="#DejaVuSans-65" x="183.154297"/>
      <use xlink:href="#DejaVuSans-20" x="244.677734"/>
      <use xlink:href="#DejaVuSans-28" x="276.464844"/>
      <use xlink:href="#DejaVuSans-73" x="315.478516"/>
      <use xlink:href="#DejaVuSans-74" x="367.578125"/>
      <use xlink:href="#DejaVuSans-65" x="406.787109"/>
      <use xlink:href="#DejaVuSans-70" x="468.310547"/>
      <use xlink:href="#DejaVuSans-73" x="531.787109"/>
      <use xlink:href="#DejaVuSans-29" x="583.886719"/>
     </g>
    </g>
   </g>
   <g id="matplotlib.axis_6">
    <g id="ytick_15">
     <g id="line2d_42">
      <g>
       <use xlink:href="#m6a0d5cd103" x="787.609509" y="342.906496" style="stroke: #000000; stroke-width: 1.5"/>
      </g>
     </g>
     <g id="text_43">
      <!-- −0.4 -->
      <g transform="translate(744.113571 348.225402) scale(0.14 -0.14)">
       <use xlink:href="#DejaVuSans-2212"/>
       <use xlink:href="#DejaVuSans-30" x="83.789062"/>
       <use xlink:href="#DejaVuSans-2e" x="147.412109"/>
       <use xlink:href="#DejaVuSans-34" x="179.199219"/>
      </g>
     </g>
    </g>
    <g id="ytick_16">
     <g id="line2d_43">
      <g>
       <use xlink:href="#m6a0d5cd103" x="787.609509" y="271.273028" style="stroke: #000000; stroke-width: 1.5"/>
      </g>
     </g>
     <g id="text_44">
      <!-- −0.3 -->
      <g transform="translate(744.113571 276.591934) scale(0.14 -0.14)">
       <defs>
        <path id="DejaVuSans-33" d="M 2597 2516 
Q 3050 2419 3304 2112 
Q 3559 1806 3559 1356 
Q 3559 666 3084 287 
Q 2609 -91 1734 -91 
Q 1441 -91 1130 -33 
Q 819 25 488 141 
L 488 750 
Q 750 597 1062 519 
Q 1375 441 1716 441 
Q 2309 441 2620 675 
Q 2931 909 2931 1356 
Q 2931 1769 2642 2001 
Q 2353 2234 1838 2234 
L 1294 2234 
L 1294 2753 
L 1863 2753 
Q 2328 2753 2575 2939 
Q 2822 3125 2822 3475 
Q 2822 3834 2567 4026 
Q 2313 4219 1838 4219 
Q 1578 4219 1281 4162 
Q 984 4106 628 3988 
L 628 4550 
Q 988 4650 1302 4700 
Q 1616 4750 1894 4750 
Q 2613 4750 3031 4423 
Q 3450 4097 3450 3541 
Q 3450 3153 3228 2886 
Q 3006 2619 2597 2516 
z
" transform="scale(0.015625)"/>
       </defs>
       <use xlink:href="#DejaVuSans-2212"/>
       <use xlink:href="#DejaVuSans-30" x="83.789062"/>
       <use xlink:href="#DejaVuSans-2e" x="147.412109"/>
       <use xlink:href="#DejaVuSans-33" x="179.199219"/>
      </g>
     </g>
    </g>
    <g id="ytick_17">
     <g id="line2d_44">
      <g>
       <use xlink:href="#m6a0d5cd103" x="787.609509" y="199.63956" style="stroke: #000000; stroke-width: 1.5"/>
      </g>
     </g>
     <g id="text_45">
      <!-- −0.2 -->
      <g transform="translate(744.113571 204.958467) scale(0.14 -0.14)">
       <use xlink:href="#DejaVuSans-2212"/>
       <use xlink:href="#DejaVuSans-30" x="83.789062"/>
       <use xlink:href="#DejaVuSans-2e" x="147.412109"/>
       <use xlink:href="#DejaVuSans-32" x="179.199219"/>
      </g>
     </g>
    </g>
    <g id="ytick_18">
     <g id="line2d_45">
      <g>
       <use xlink:href="#m6a0d5cd103" x="787.609509" y="128.006093" style="stroke: #000000; stroke-width: 1.5"/>
      </g>
     </g>
     <g id="text_46">
      <!-- −0.1 -->
      <g transform="translate(744.113571 133.324999) scale(0.14 -0.14)">
       <use xlink:href="#DejaVuSans-2212"/>
       <use xlink:href="#DejaVuSans-30" x="83.789062"/>
       <use xlink:href="#DejaVuSans-2e" x="147.412109"/>
       <use xlink:href="#DejaVuSans-31" x="179.199219"/>
      </g>
     </g>
    </g>
    <g id="ytick_19">
     <g id="line2d_46">
      <g>
       <use xlink:href="#m6a0d5cd103" x="787.609509" y="56.372625" style="stroke: #000000; stroke-width: 1.5"/>
      </g>
     </g>
     <g id="text_47">
      <!-- 0.0 -->
      <g transform="translate(755.845134 61.691531) scale(0.14 -0.14)">
       <use xlink:href="#DejaVuSans-30"/>
       <use xlink:href="#DejaVuSans-2e" x="63.623047"/>
       <use xlink:href="#DejaVuSans-30" x="95.410156"/>
      </g>
     </g>
    </g>
   </g>
   <g id="line2d_47">
    <path d="M 800.653665 56.372625 
L 803.186511 56.780563 
L 805.719356 57.184438 
L 808.252202 57.624719 
L 810.785048 58.088647 
L 813.317894 58.53497 
L 815.85074 58.989525 
L 818.383585 59.446977 
L 820.916431 59.915661 
L 823.449277 60.410058 
L 825.982123 60.891033 
L 828.514969 61.377189 
L 831.047814 61.862146 
L 833.58066 62.348544 
L 836.113506 62.93668 
L 838.646352 63.44432 
L 841.179197 64.042239 
L 843.712043 64.598666 
L 846.244889 65.109439 
L 848.777735 65.665048 
L 851.310581 66.223437 
L 853.843426 66.758968 
L 856.376272 67.354827 
L 858.909118 68.026406 
L 861.441964 68.562057 
L 863.97481 69.153275 
L 866.507655 69.703135 
L 869.040501 70.313655 
L 871.573347 71.017241 
L 874.106193 71.762558 
L 876.639039 72.368258 
L 879.171884 73.050029 
L 881.70473 73.613363 
L 884.237576 74.274751 
L 886.770422 75.024979 
L 889.303268 75.827525 
L 891.836113 76.901248 
L 894.368959 77.793214 
L 896.901805 78.698095 
L 899.434651 79.598974 
L 901.967497 80.294011 
L 904.500342 81.112273 
L 907.033188 82.09553 
L 909.566034 82.933938 
L 912.09888 84.104727 
L 914.631726 85.238781 
L 917.164571 86.261279 
L 919.697417 87.598551 
L 922.230263 88.81718 
L 924.763109 89.779099 
L 927.295955 91.041625 
L 929.8288 92.097767 
L 932.361646 93.651253 
L 934.894492 95.09256 
L 937.427338 96.792698 
L 939.960183 98.141202 
L 942.493029 99.69703 
L 945.025875 101.024557 
L 947.558721 102.761457 
L 950.091567 104.397104 
L 952.624412 106.329111 
L 955.157258 108.252498 
L 957.690104 109.98611 
L 960.22295 111.851137 
L 962.755796 113.954763 
L 965.288641 116.073122 
L 967.821487 118.454954 
L 970.354333 121.036169 
L 972.887179 123.855067 
L 975.420025 126.594922 
L 977.95287 130.11822 
L 980.485716 133.105424 
L 983.018562 136.744281 
L 985.551408 140.243162 
L 988.084254 143.986636 
L 990.617099 148.311445 
L 993.149945 152.221872 
L 995.682791 156.780143 
L 998.215637 161.136437 
L 1000.748483 164.730542 
L 1003.281328 168.816159 
L 1005.814174 173.879021 
L 1008.34702 178.921898 
L 1010.879866 183.518903 
L 1013.412712 188.218766 
L 1015.945557 190.517732 
L 1018.478403 195.453112 
L 1021.011249 199.851814 
L 1023.544095 199.517319 
L 1026.076941 202.588967 
L 1028.609786 208.28671 
L 1031.142632 213.011095 
L 1033.675478 213.945163 
L 1036.208324 217.336289 
L 1038.74117 220.761076 
L 1041.274015 214.170967 
L 1043.806861 213.784304 
L 1046.339707 202.007714 
L 1048.872553 204.594826 
L 1051.405398 170.635866 
L 1053.938244 177.747074 
L 1056.47109 207.637157 
L 1059.003936 188.150383 
L 1061.536782 188.358695 
" clip-path="url(#p90b9f9b7f4)" style="fill: none; stroke: #802f95; stroke-width: 2; stroke-linecap: square"/>
   </g>
   <g id="line2d_48">
    <path d="M 800.653665 56.372625 
L 803.186511 56.693609 
L 805.719356 57.020804 
L 808.252202 57.354486 
L 810.785048 57.69493 
L 813.317894 58.042268 
L 815.85074 58.396648 
L 818.383585 58.75832 
L 820.916431 59.127466 
L 823.449277 59.504224 
L 825.982123 59.88885 
L 828.514969 60.28162 
L 831.047814 60.682763 
L 833.58066 61.092453 
L 836.113506 61.511325 
L 838.646352 61.939637 
L 841.179197 62.377608 
L 843.712043 62.825784 
L 846.244889 63.284304 
L 848.777735 63.75317 
L 851.310581 64.232816 
L 853.843426 64.723815 
L 856.376272 65.226465 
L 858.909118 65.741085 
L 861.441964 66.268176 
L 863.97481 66.808479 
L 866.507655 67.362631 
L 869.040501 67.931027 
L 871.573347 68.514409 
L 874.106193 69.113548 
L 876.639039 69.728661 
L 879.171884 70.360465 
L 881.70473 71.009904 
L 884.237576 71.677106 
L 886.770422 72.36268 
L 889.303268 73.067425 
L 891.836113 73.792219 
L 894.368959 74.538186 
L 896.901805 75.306002 
L 899.434651 76.096538 
L 901.967497 76.910763 
L 904.500342 77.749614 
L 907.033188 78.613731 
L 909.566034 79.50458 
L 912.09888 80.42409 
L 914.631726 81.373861 
L 917.164571 82.355536 
L 919.697417 83.370632 
L 922.230263 84.420755 
L 924.763109 85.507244 
L 927.295955 86.632368 
L 929.8288 87.798347 
L 932.361646 89.007469 
L 934.894492 90.262539 
L 937.427338 91.566339 
L 939.960183 92.921498 
L 942.493029 94.330012 
L 945.025875 95.79499 
L 947.558721 97.320308 
L 950.091567 98.909832 
L 952.624412 100.56691 
L 955.157258 102.295957 
L 957.690104 104.101478 
L 960.22295 105.986648 
L 962.755796 107.958815 
L 965.288641 110.026113 
L 967.821487 112.19571 
L 970.354333 114.477038 
L 972.887179 116.877954 
L 975.420025 119.405791 
L 977.95287 122.069741 
L 980.485716 124.880057 
L 983.018562 127.84646 
L 985.551408 130.980727 
L 988.084254 134.299103 
L 990.617099 137.82301 
L 993.149945 141.557367 
L 995.682791 145.50596 
L 998.215637 149.69626 
L 1000.748483 154.142304 
L 1003.281328 158.833971 
L 1005.814174 163.767341 
L 1008.34702 168.929929 
L 1010.879866 174.285752 
L 1013.412712 179.862083 
L 1015.945557 185.682387 
L 1018.478403 191.698689 
L 1021.011249 197.910467 
L 1023.544095 204.28072 
L 1026.076941 210.759259 
L 1028.609786 217.392063 
L 1031.142632 224.156668 
L 1033.675478 230.993727 
L 1036.208324 237.901908 
L 1038.74117 244.878258 
L 1041.274015 251.944504 
L 1043.806861 259.151425 
L 1046.339707 266.552528 
L 1048.872553 274.096606 
L 1051.405398 281.575375 
L 1053.938244 288.808664 
L 1056.47109 295.924944 
L 1059.003936 303.231985 
L 1061.536782 310.884389 
" clip-path="url(#p90b9f9b7f4)" style="fill: none; stroke-dasharray: 9.25,4; stroke-dashoffset: 0; stroke: #322694; stroke-width: 2.5"/>
   </g>
   <g id="line2d_49">
    <path d="M 800.653665 56.372625 
L 816.38531 58.466646 
L 830.805985 60.621416 
L 843.915689 62.811081 
L 855.714423 65.002286 
L 866.202187 67.153994 
L 876.68995 69.528021 
L 885.866743 71.815318 
L 895.043536 74.328334 
L 902.909359 76.687714 
L 910.775181 79.263493 
L 918.641004 82.085917 
L 925.195856 84.652121 
L 931.750708 87.439045 
L 938.305561 90.475406 
L 944.860413 93.794972 
L 950.104295 96.681133 
L 955.348176 99.797848 
L 960.592058 103.172695 
L 965.83594 106.837667 
L 971.079822 110.830059 
L 975.012733 114.065238 
L 978.945644 117.530255 
L 982.878555 121.249205 
L 986.811467 125.249515 
L 990.744378 129.562512 
L 994.677289 134.224116 
L 998.610201 139.27566 
L 1002.543112 144.764904 
L 1006.476023 150.747255 
L 1010.408935 157.287268 
L 1014.341846 164.460489 
L 1016.963787 169.637646 
L 1019.585728 175.165515 
L 1022.207669 181.077844 
L 1024.829609 187.412494 
L 1027.45155 194.212029 
L 1030.073491 201.524397 
L 1032.695432 209.403725 
L 1035.317373 217.911232 
L 1037.939314 227.116299 
L 1040.561255 237.097686 
L 1043.183196 247.944957 
L 1045.805136 259.760097 
L 1048.427077 272.659374 
L 1051.049018 286.775438 
L 1053.670959 302.25968 
L 1056.2929 319.28484 
L 1058.914841 338.047815 
L 1061.536782 358.772625 
L 1061.536782 358.772625 
" clip-path="url(#p90b9f9b7f4)" style="fill: none; stroke-dasharray: 9.25,4; stroke-dashoffset: 0; stroke: #ff4126; stroke-width: 2.5"/>
   </g>
   <g id="patch_13">
    <path d="M 787.609509 373.892625 
L 787.609509 41.252625 
" style="fill: none; stroke: #000000; stroke-width: 1.5; stroke-linejoin: miter; stroke-linecap: square"/>
   </g>
   <g id="patch_14">
    <path d="M 1074.580938 373.892625 
L 1074.580938 41.252625 
" style="fill: none; stroke: #000000; stroke-width: 1.5; stroke-linejoin: miter; stroke-linecap: square"/>
   </g>
   <g id="patch_15">
    <path d="M 787.609509 373.892625 
L 1074.580938 373.892625 
" style="fill: none; stroke: #000000; stroke-width: 1.5; stroke-linejoin: miter; stroke-linecap: square"/>
   </g>
   <g id="patch_16">
    <path d="M 787.609509 41.252625 
L 1074.580938 41.252625 
" style="fill: none; stroke: #000000; stroke-width: 1.5; stroke-linejoin: miter; stroke-linecap: square"/>
   </g>
   <g id="text_48">
    <!-- C -->
    <g transform="translate(758.912366 20.877187) scale(0.18 -0.18)">
     <defs>
      <path id="DejaVuSans-Bold-43" d="M 4288 256 
Q 3956 84 3597 -3 
Q 3238 -91 2847 -91 
Q 1681 -91 1000 561 
Q 319 1213 319 2328 
Q 319 3447 1000 4098 
Q 1681 4750 2847 4750 
Q 3238 4750 3597 4662 
Q 3956 4575 4288 4403 
L 4288 3438 
Q 3953 3666 3628 3772 
Q 3303 3878 2944 3878 
Q 2300 3878 1931 3465 
Q 1563 3053 1563 2328 
Q 1563 1606 1931 1193 
Q 2300 781 2944 781 
Q 3303 781 3628 887 
Q 3953 994 4288 1222 
L 4288 256 
z
" transform="scale(0.015625)"/>
     </defs>
     <use xlink:href="#DejaVuSans-Bold-43"/>
    </g>
   </g>
   <g id="legend_3">
    <g id="line2d_50">
     <path d="M 800.209509 312.321062 
L 814.209509 312.321062 
L 828.209509 312.321062 
" style="fill: none; stroke: #802f95; stroke-width: 2; stroke-linecap: square"/>
    </g>
    <g id="text_49">
     <!-- Simulation -->
     <g transform="translate(839.409509 317.221062) scale(0.14 -0.14)">
      <use xlink:href="#DejaVuSans-53"/>
      <use xlink:href="#DejaVuSans-69" x="63.476562"/>
      <use xlink:href="#DejaVuSans-6d" x="91.259766"/>
      <use xlink:href="#DejaVuSans-75" x="188.671875"/>
      <use xlink:href="#DejaVuSans-6c" x="252.050781"/>
      <use xlink:href="#DejaVuSans-61" x="279.833984"/>
      <use xlink:href="#DejaVuSans-74" x="341.113281"/>
      <use xlink:href="#DejaVuSans-69" x="380.322266"/>
      <use xlink:href="#DejaVuSans-6f" x="408.105469"/>
      <use xlink:href="#DejaVuSans-6e" x="469.287109"/>
     </g>
    </g>
    <g id="line2d_51">
     <path d="M 800.209509 332.872625 
L 814.209509 332.872625 
L 828.209509 332.872625 
" style="fill: none; stroke-dasharray: 9.25,4; stroke-dashoffset: 0; stroke: #322694; stroke-width: 2.5"/>
    </g>
    <g id="text_50">
     <!-- eq. A17 (using Simulated $R(t)$) -->
     <g transform="translate(839.409509 337.772625) scale(0.14 -0.14)">
      <defs>
       <path id="DejaVuSans-37" d="M 525 4666 
L 3525 4666 
L 3525 4397 
L 1831 0 
L 1172 0 
L 2766 4134 
L 525 4134 
L 525 4666 
z
" transform="scale(0.015625)"/>
       <path id="DejaVuSans-64" d="M 2906 2969 
L 2906 4863 
L 3481 4863 
L 3481 0 
L 2906 0 
L 2906 525 
Q 2725 213 2448 61 
Q 2172 -91 1784 -91 
Q 1150 -91 751 415 
Q 353 922 353 1747 
Q 353 2572 751 3078 
Q 1150 3584 1784 3584 
Q 2172 3584 2448 3432 
Q 2725 3281 2906 2969 
z
M 947 1747 
Q 947 1113 1208 752 
Q 1469 391 1925 391 
Q 2381 391 2643 752 
Q 2906 1113 2906 1747 
Q 2906 2381 2643 2742 
Q 2381 3103 1925 3103 
Q 1469 3103 1208 2742 
Q 947 2381 947 1747 
z
" transform="scale(0.015625)"/>
       <path id="DejaVuSans-Oblique-52" d="M 1613 4147 
L 1294 2491 
L 2106 2491 
Q 2584 2491 2879 2755 
Q 3175 3019 3175 3444 
Q 3175 3784 2976 3965 
Q 2778 4147 2406 4147 
L 1613 4147 
z
M 2772 2241 
Q 2972 2194 3105 2009 
Q 3238 1825 3413 1275 
L 3809 0 
L 3144 0 
L 2778 1197 
Q 2638 1659 2453 1815 
Q 2269 1972 1888 1972 
L 1191 1972 
L 806 0 
L 172 0 
L 1081 4666 
L 2503 4666 
Q 3150 4666 3495 4373 
Q 3841 4081 3841 3531 
Q 3841 3044 3547 2687 
Q 3253 2331 2772 2241 
z
" transform="scale(0.015625)"/>
       <path id="DejaVuSans-Oblique-74" d="M 2706 3500 
L 2619 3053 
L 1472 3053 
L 1100 1153 
Q 1081 1047 1072 975 
Q 1063 903 1063 863 
Q 1063 663 1183 572 
Q 1303 481 1569 481 
L 2150 481 
L 2053 0 
L 1503 0 
Q 991 0 739 200 
Q 488 400 488 806 
Q 488 878 497 964 
Q 506 1050 525 1153 
L 897 3053 
L 409 3053 
L 500 3500 
L 978 3500 
L 1172 4494 
L 1747 4494 
L 1556 3500 
L 2706 3500 
z
" transform="scale(0.015625)"/>
      </defs>
      <use xlink:href="#DejaVuSans-65" transform="translate(0 0.015625)"/>
      <use xlink:href="#DejaVuSans-71" transform="translate(61.523438 0.015625)"/>
      <use xlink:href="#DejaVuSans-2e" transform="translate(125 0.015625)"/>
      <use xlink:href="#DejaVuSans-20" transform="translate(156.787109 0.015625)"/>
      <use xlink:href="#DejaVuSans-41" transform="translate(188.574219 0.015625)"/>
      <use xlink:href="#DejaVuSans-31" transform="translate(256.982422 0.015625)"/>
      <use xlink:href="#DejaVuSans-37" transform="translate(320.605469 0.015625)"/>
      <use xlink:href="#DejaVuSans-20" transform="translate(384.228516 0.015625)"/>
      <use xlink:href="#DejaVuSans-28" transform="translate(416.015625 0.015625)"/>
      <use xlink:href="#DejaVuSans-75" transform="translate(455.029297 0.015625)"/>
      <use xlink:href="#DejaVuSans-73" transform="translate(518.408203 0.015625)"/>
      <use xlink:href="#DejaVuSans-69" transform="translate(570.507812 0.015625)"/>
      <use xlink:href="#DejaVuSans-6e" transform="translate(598.291016 0.015625)"/>
      <use xlink:href="#DejaVuSans-67" transform="translate(661.669922 0.015625)"/>
      <use xlink:href="#DejaVuSans-20" transform="translate(725.146484 0.015625)"/>
      <use xlink:href="#DejaVuSans-53" transform="translate(756.933594 0.015625)"/>
      <use xlink:href="#DejaVuSans-69" transform="translate(820.410156 0.015625)"/>
      <use xlink:href="#DejaVuSans-6d" transform="translate(848.193359 0.015625)"/>
      <use xlink:href="#DejaVuSans-75" transform="translate(945.605469 0.015625)"/>
      <use xlink:href="#DejaVuSans-6c" transform="translate(1008.984375 0.015625)"/>
      <use xlink:href="#DejaVuSans-61" transform="translate(1036.767578 0.015625)"/>
      <use xlink:href="#DejaVuSans-74" transform="translate(1098.046875 0.015625)"/>
      <use xlink:href="#DejaVuSans-65" transform="translate(1137.255859 0.015625)"/>
      <use xlink:href="#DejaVuSans-64" transform="translate(1198.779297 0.015625)"/>
      <use xlink:href="#DejaVuSans-20" transform="translate(1262.255859 0.015625)"/>
      <use xlink:href="#DejaVuSans-Oblique-52" transform="translate(1294.042969 0.015625)"/>
      <use xlink:href="#DejaVuSans-28" transform="translate(1363.525391 0.015625)"/>
      <use xlink:href="#DejaVuSans-Oblique-74" transform="translate(1402.539062 0.015625)"/>
      <use xlink:href="#DejaVuSans-29" transform="translate(1441.748047 0.015625)"/>
      <use xlink:href="#DejaVuSans-29" transform="translate(1480.761719 0.015625)"/>
     </g>
    </g>
    <g id="line2d_52">
     <path d="M 800.209509 353.452625 
L 814.209509 353.452625 
L 828.209509 353.452625 
" style="fill: none; stroke-dasharray: 9.25,4; stroke-dashoffset: 0; stroke: #ff4126; stroke-width: 2.5"/>
    </g>
    <g id="text_51">
     <!-- eq. A17 (using eq. A18 for $R(t)$) -->
     <g transform="translate(839.409509 358.352625) scale(0.14 -0.14)">
      <defs>
       <path id="DejaVuSans-66" d="M 2375 4863 
L 2375 4384 
L 1825 4384 
Q 1516 4384 1395 4259 
Q 1275 4134 1275 3809 
L 1275 3500 
L 2222 3500 
L 2222 3053 
L 1275 3053 
L 1275 0 
L 697 0 
L 697 3053 
L 147 3053 
L 147 3500 
L 697 3500 
L 697 3744 
Q 697 4328 969 4595 
Q 1241 4863 1831 4863 
L 2375 4863 
z
" transform="scale(0.015625)"/>
      </defs>
      <use xlink:href="#DejaVuSans-65" transform="translate(0 0.015625)"/>
      <use xlink:href="#DejaVuSans-71" transform="translate(61.523438 0.015625)"/>
      <use xlink:href="#DejaVuSans-2e" transform="translate(125 0.015625)"/>
      <use xlink:href="#DejaVuSans-20" transform="translate(156.787109 0.015625)"/>
      <use xlink:href="#DejaVuSans-41" transform="translate(188.574219 0.015625)"/>
      <use xlink:href="#DejaVuSans-31" transform="translate(256.982422 0.015625)"/>
      <use xlink:href="#DejaVuSans-37" transform="translate(320.605469 0.015625)"/>
      <use xlink:href="#DejaVuSans-20" transform="translate(384.228516 0.015625)"/>
      <use xlink:href="#DejaVuSans-28" transform="translate(416.015625 0.015625)"/>
      <use xlink:href="#DejaVuSans-75" transform="translate(455.029297 0.015625)"/>
      <use xlink:href="#DejaVuSans-73" transform="translate(518.408203 0.015625)"/>
      <use xlink:href="#DejaVuSans-69" transform="translate(570.507812 0.015625)"/>
      <use xlink:href="#DejaVuSans-6e" transform="translate(598.291016 0.015625)"/>
      <use xlink:href="#DejaVuSans-67" transform="translate(661.669922 0.015625)"/>
      <use xlink:href="#DejaVuSans-20" transform="translate(725.146484 0.015625)"/>
      <use xlink:href="#DejaVuSans-65" transform="translate(756.933594 0.015625)"/>
      <use xlink:href="#DejaVuSans-71" transform="translate(818.457031 0.015625)"/>
      <use xlink:href="#DejaVuSans-2e" transform="translate(881.933594 0.015625)"/>
      <use xlink:href="#DejaVuSans-20" transform="translate(913.720703 0.015625)"/>
      <use xlink:href="#DejaVuSans-41" transform="translate(945.507812 0.015625)"/>
      <use xlink:href="#DejaVuSans-31" transform="translate(1013.916016 0.015625)"/>
      <use xlink:href="#DejaVuSans-38" transform="translate(1077.539062 0.015625)"/>
      <use xlink:href="#DejaVuSans-20" transform="translate(1141.162109 0.015625)"/>
      <use xlink:href="#DejaVuSans-66" transform="translate(1172.949219 0.015625)"/>
      <use xlink:href="#DejaVuSans-6f" transform="translate(1208.154297 0.015625)"/>
      <use xlink:href="#DejaVuSans-72" transform="translate(1269.335938 0.015625)"/>
      <use xlink:href="#DejaVuSans-20" transform="translate(1310.449219 0.015625)"/>
      <use xlink:href="#DejaVuSans-Oblique-52" transform="translate(1342.236328 0.015625)"/>
      <use xlink:href="#DejaVuSans-28" transform="translate(1411.71875 0.015625)"/>
      <use xlink:href="#DejaVuSans-Oblique-74" transform="translate(1450.732422 0.015625)"/>
      <use xlink:href="#DejaVuSans-29" transform="translate(1489.941406 0.015625)"/>
      <use xlink:href="#DejaVuSans-29" transform="translate(1528.955078 0.015625)"/>
     </g>
    </g>
   </g>
  </g>
 </g>
 <defs>
  <clipPath id="p058b26c918">
   <rect x="70.180937" y="41.252625" width="286.971429" height="332.64"/>
  </clipPath>
  <clipPath id="p84aaf0f311">
   <rect x="428.895223" y="41.252625" width="286.971429" height="332.64"/>
  </clipPath>
  <clipPath id="p90b9f9b7f4">
   <rect x="787.609509" y="41.252625" width="286.971429" height="332.64"/>
  </clipPath>
 </defs>
</svg>
