<?xml version="1.0" encoding="utf-8" standalone="no"?>
<!DOCTYPE svg PUBLIC "-//W3C//DTD SVG 1.1//EN"
  "http://www.w3.org/Graphics/SVG/1.1/DTD/svg11.dtd">
<svg xmlns:xlink="http://www.w3.org/1999/xlink" width="843.74125pt" height="553.744pt" viewBox="0 0 843.74125 553.744" xmlns="http://www.w3.org/2000/svg" version="1.1">
 <metadata>
  <rdf:RDF xmlns:dc="http://purl.org/dc/elements/1.1/" xmlns:cc="http://creativecommons.org/ns#" xmlns:rdf="http://www.w3.org/1999/02/22-rdf-syntax-ns#">
   <cc:Work>
    <dc:type rdf:resource="http://purl.org/dc/dcmitype/StillImage"/>
    <dc:date>2025-11-16T16:40:32.394475</dc:date>
    <dc:format>image/svg+xml</dc:format>
    <dc:creator>
     <cc:Agent>
      <dc:title>Matplotlib v3.9.2, https://matplotlib.org/</dc:title>
     </cc:Agent>
    </dc:creator>
   </cc:Work>
  </rdf:RDF>
 </metadata>
 <defs>
  <style type="text/css">*{stroke-linejoin: round; stroke-linecap: butt}</style>
 </defs>
 <g id="figure_1">
  <g id="patch_1">
   <path d="M 0 553.744 
L 843.74125 553.744 
L 843.74125 0 
L 0 0 
z
" style="fill: #ffffff"/>
  </g>
  <g id="axes_1">
   <g id="patch_2">
    <path d="M 53.4225 214.649625 
L 408.7725 214.649625 
L 408.7725 33.669625 
L 53.4225 33.669625 
z
" style="fill: #ffffff"/>
   </g>
   <g id="patch_3">
    <path d="M 171.845336 214.649625 
L 171.845336 196.16635 
L 179.702313 196.16635 
L 179.702313 195.467703 
L 187.55929 195.467703 
L 187.55929 192.673116 
L 195.416268 192.673116 
L 195.416268 188.481234 
L 203.273245 188.481234 
L 203.273245 187.08394 
L 211.130222 187.08394 
L 211.130222 172.761677 
L 218.9872 172.761677 
L 218.9872 130.842858 
L 226.844177 130.842858 
L 226.844177 133.637446 
L 234.701154 133.637446 
L 234.701154 161.234001 
L 242.558132 161.234001 
L 242.558132 184.638675 
L 250.415109 184.638675 
L 250.415109 187.433263 
L 258.272086 187.433263 
L 258.272086 192.673116 
L 266.129064 192.673116 
L 266.129064 194.419733 
L 273.986041 194.419733 
L 273.986041 195.11838 
L 281.843018 195.11838 
L 281.843018 197.214321 
L 289.699996 197.214321 
L 289.699996 197.214321 
L 297.556973 197.214321 
L 297.556973 197.214321 
L 305.41395 197.214321 
L 305.41395 197.214321 
L 313.270928 197.214321 
L 313.270928 197.214321 
L 321.127905 197.214321 
L 321.127905 195.817027 
L 328.984882 195.817027 
L 328.984882 214.649625 
" clip-path="url(#pd50215c54d)" style="fill: #802f95; fill-opacity: 0.75; stroke: #000000; stroke-width: 1.1; stroke-linejoin: miter"/>
   </g>
   <g id="patch_4">
    <path d="M 134.312703 214.649625 
L 134.312703 196.250712 
L 139.140865 196.250712 
L 139.140865 197.214321 
L 143.969028 197.214321 
L 143.969028 196.250712 
L 148.79719 196.250712 
L 148.79719 195.479825 
L 153.625353 195.479825 
L 153.625353 195.865268 
L 158.453515 195.865268 
L 158.453515 195.479825 
L 163.281678 195.479825 
L 163.281678 196.636155 
L 168.10984 196.636155 
L 168.10984 196.250712 
L 172.938003 196.250712 
L 172.938003 195.479825 
L 177.766166 195.479825 
L 177.766166 195.094381 
L 182.594328 195.094381 
L 182.594328 192.588997 
L 187.422491 192.588997 
L 187.422491 194.130772 
L 192.250653 194.130772 
L 192.250653 190.469057 
L 197.078816 190.469057 
L 197.078816 188.156396 
L 201.906978 188.156396 
L 201.906978 189.69817 
L 206.735141 189.69817 
L 206.735141 184.494681 
L 211.563303 184.494681 
L 211.563303 175.8222 
L 216.391466 175.8222 
L 216.391466 158.669959 
L 221.219629 158.669959 
L 221.219629 124.365476 
L 226.047791 124.365476 
L 226.047791 118.583822 
L 230.875954 118.583822 
L 230.875954 143.444936 
L 235.704116 143.444936 
L 235.704116 162.717117 
L 240.532279 162.717117 
L 240.532279 176.978531 
L 245.360441 176.978531 
L 245.360441 187.385509 
L 250.188604 187.385509 
L 250.188604 189.312727 
L 255.016766 189.312727 
L 255.016766 192.010832 
L 259.844929 192.010832 
L 259.844929 194.130772 
L 264.673092 194.130772 
L 264.673092 195.287103 
L 269.501254 195.287103 
L 269.501254 196.636155 
L 274.329417 196.636155 
L 274.329417 195.094381 
L 279.157579 195.094381 
L 279.157579 214.649625 
" clip-path="url(#pd50215c54d)" style="fill: none; stroke: #ff4126; stroke-width: 1.1; stroke-linejoin: miter"/>
   </g>
   <g id="patch_5">
    <path d="M 53.4225 214.649625 
L 408.7725 214.649625 
L 408.7725 197.214321 
L 53.4225 197.214321 
z
" clip-path="url(#pd50215c54d)" style="fill: #ffffff"/>
   </g>
   <g id="patch_6">
    <path d="M 235.551261 214.649625 
L 235.551261 56.14686 
L 238.385654 56.14686 
L 238.385654 96.988063 
L 241.220047 96.988063 
L 241.220047 130.04999 
L 244.05444 130.04999 
L 244.05444 156.305049 
L 246.888833 156.305049 
L 246.888833 154.36023 
L 249.723227 154.36023 
L 249.723227 172.836012 
L 252.55762 172.836012 
L 252.55762 175.753241 
L 255.392013 175.753241 
L 255.392013 189.366975 
L 258.226406 189.366975 
L 258.226406 186.449747 
L 261.0608 186.449747 
L 261.0608 202.0083 
L 263.895193 202.0083 
L 263.895193 200.063481 
L 266.729586 200.063481 
L 266.729586 199.091071 
L 269.563979 199.091071 
L 269.563979 205.897939 
L 272.398372 205.897939 
L 272.398372 209.787577 
L 275.232766 209.787577 
L 275.232766 204.925529 
L 278.067159 204.925529 
L 278.067159 209.787577 
L 280.901552 209.787577 
L 280.901552 210.759987 
L 283.735945 210.759987 
L 283.735945 214.649625 
L 286.570338 214.649625 
L 286.570338 214.649625 
L 289.404732 214.649625 
L 289.404732 210.759987 
L 292.239125 210.759987 
L 292.239125 214.649625 
" clip-path="url(#pd50215c54d)" style="fill: #808080; fill-opacity: 0.4; stroke: #000000; stroke-width: 1.1; stroke-linejoin: miter"/>
   </g>
   <g id="matplotlib.axis_1">
    <g id="xtick_1">
     <g id="line2d_1">
      <defs>
       <path id="m327324f9fe" d="M 0 0 
L 0 6 
" style="stroke: #000000; stroke-width: 1.5"/>
      </defs>
      <g>
       <use xlink:href="#m327324f9fe" x="53.4225" y="224.649625" style="stroke: #000000; stroke-width: 1.5"/>
      </g>
     </g>
     <g id="text_1">
      <!-- −6 -->
      <g transform="translate(43.102969 244.787437) scale(0.14 -0.14)">
       <defs>
        <path id="DejaVuSans-2212" d="M 678 2272 
L 4684 2272 
L 4684 1741 
L 678 1741 
L 678 2272 
z
" transform="scale(0.015625)"/>
        <path id="DejaVuSans-36" d="M 2113 2584 
Q 1688 2584 1439 2293 
Q 1191 2003 1191 1497 
Q 1191 994 1439 701 
Q 1688 409 2113 409 
Q 2538 409 2786 701 
Q 3034 994 3034 1497 
Q 3034 2003 2786 2293 
Q 2538 2584 2113 2584 
z
M 3366 4563 
L 3366 3988 
Q 3128 4100 2886 4159 
Q 2644 4219 2406 4219 
Q 1781 4219 1451 3797 
Q 1122 3375 1075 2522 
Q 1259 2794 1537 2939 
Q 1816 3084 2150 3084 
Q 2853 3084 3261 2657 
Q 3669 2231 3669 1497 
Q 3669 778 3244 343 
Q 2819 -91 2113 -91 
Q 1303 -91 875 529 
Q 447 1150 447 2328 
Q 447 3434 972 4092 
Q 1497 4750 2381 4750 
Q 2619 4750 2861 4703 
Q 3103 4656 3366 4563 
z
" transform="scale(0.015625)"/>
       </defs>
       <use xlink:href="#DejaVuSans-2212"/>
       <use xlink:href="#DejaVuSans-36" x="83.789062"/>
      </g>
     </g>
    </g>
    <g id="xtick_2">
     <g id="line2d_2">
      <g>
       <use xlink:href="#m327324f9fe" x="112.6475" y="224.649625" style="stroke: #000000; stroke-width: 1.5"/>
      </g>
     </g>
     <g id="text_2">
      <!-- −4 -->
      <g transform="translate(102.327969 244.787437) scale(0.14 -0.14)">
       <defs>
        <path id="DejaVuSans-34" d="M 2419 4116 
L 825 1625 
L 2419 1625 
L 2419 4116 
z
M 2253 4666 
L 3047 4666 
L 3047 1625 
L 3713 1625 
L 3713 1100 
L 3047 1100 
L 3047 0 
L 2419 0 
L 2419 1100 
L 313 1100 
L 313 1709 
L 2253 4666 
z
" transform="scale(0.015625)"/>
       </defs>
       <use xlink:href="#DejaVuSans-2212"/>
       <use xlink:href="#DejaVuSans-34" x="83.789062"/>
      </g>
     </g>
    </g>
    <g id="xtick_3">
     <g id="line2d_3">
      <g>
       <use xlink:href="#m327324f9fe" x="171.8725" y="224.649625" style="stroke: #000000; stroke-width: 1.5"/>
      </g>
     </g>
     <g id="text_3">
      <!-- −2 -->
      <g transform="translate(161.552969 244.787437) scale(0.14 -0.14)">
       <defs>
        <path id="DejaVuSans-32" d="M 1228 531 
L 3431 531 
L 3431 0 
L 469 0 
L 469 531 
Q 828 903 1448 1529 
Q 2069 2156 2228 2338 
Q 2531 2678 2651 2914 
Q 2772 3150 2772 3378 
Q 2772 3750 2511 3984 
Q 2250 4219 1831 4219 
Q 1534 4219 1204 4116 
Q 875 4013 500 3803 
L 500 4441 
Q 881 4594 1212 4672 
Q 1544 4750 1819 4750 
Q 2544 4750 2975 4387 
Q 3406 4025 3406 3419 
Q 3406 3131 3298 2873 
Q 3191 2616 2906 2266 
Q 2828 2175 2409 1742 
Q 1991 1309 1228 531 
z
" transform="scale(0.015625)"/>
       </defs>
       <use xlink:href="#DejaVuSans-2212"/>
       <use xlink:href="#DejaVuSans-32" x="83.789062"/>
      </g>
     </g>
    </g>
    <g id="xtick_4">
     <g id="line2d_4">
      <g>
       <use xlink:href="#m327324f9fe" x="231.0975" y="224.649625" style="stroke: #000000; stroke-width: 1.5"/>
      </g>
     </g>
     <g id="text_4">
      <!-- 0 -->
      <g transform="translate(226.64375 244.787437) scale(0.14 -0.14)">
       <defs>
        <path id="DejaVuSans-30" d="M 2034 4250 
Q 1547 4250 1301 3770 
Q 1056 3291 1056 2328 
Q 1056 1369 1301 889 
Q 1547 409 2034 409 
Q 2525 409 2770 889 
Q 3016 1369 3016 2328 
Q 3016 3291 2770 3770 
Q 2525 4250 2034 4250 
z
M 2034 4750 
Q 2819 4750 3233 4129 
Q 3647 3509 3647 2328 
Q 3647 1150 3233 529 
Q 2819 -91 2034 -91 
Q 1250 -91 836 529 
Q 422 1150 422 2328 
Q 422 3509 836 4129 
Q 1250 4750 2034 4750 
z
" transform="scale(0.015625)"/>
       </defs>
       <use xlink:href="#DejaVuSans-30"/>
      </g>
     </g>
    </g>
    <g id="xtick_5">
     <g id="line2d_5">
      <g>
       <use xlink:href="#m327324f9fe" x="290.3225" y="224.649625" style="stroke: #000000; stroke-width: 1.5"/>
      </g>
     </g>
     <g id="text_5">
      <!-- 2 -->
      <g transform="translate(285.86875 244.787437) scale(0.14 -0.14)">
       <use xlink:href="#DejaVuSans-32"/>
      </g>
     </g>
    </g>
    <g id="xtick_6">
     <g id="line2d_6">
      <g>
       <use xlink:href="#m327324f9fe" x="349.5475" y="224.649625" style="stroke: #000000; stroke-width: 1.5"/>
      </g>
     </g>
     <g id="text_6">
      <!-- 4 -->
      <g transform="translate(345.09375 244.787437) scale(0.14 -0.14)">
       <use xlink:href="#DejaVuSans-34"/>
      </g>
     </g>
    </g>
    <g id="xtick_7">
     <g id="line2d_7">
      <g>
       <use xlink:href="#m327324f9fe" x="408.7725" y="224.649625" style="stroke: #000000; stroke-width: 1.5"/>
      </g>
     </g>
     <g id="text_7">
      <!-- 6 -->
      <g transform="translate(404.31875 244.787437) scale(0.14 -0.14)">
       <use xlink:href="#DejaVuSans-36"/>
      </g>
     </g>
    </g>
    <g id="text_8">
     <!-- Fitness effect $(\Delta)$ -->
     <g transform="translate(162.9375 263.8565) scale(0.16 -0.16)">
      <defs>
       <path id="DejaVuSans-46" d="M 628 4666 
L 3309 4666 
L 3309 4134 
L 1259 4134 
L 1259 2759 
L 3109 2759 
L 3109 2228 
L 1259 2228 
L 1259 0 
L 628 0 
L 628 4666 
z
" transform="scale(0.015625)"/>
       <path id="DejaVuSans-69" d="M 603 3500 
L 1178 3500 
L 1178 0 
L 603 0 
L 603 3500 
z
M 603 4863 
L 1178 4863 
L 1178 4134 
L 603 4134 
L 603 4863 
z
" transform="scale(0.015625)"/>
       <path id="DejaVuSans-74" d="M 1172 4494 
L 1172 3500 
L 2356 3500 
L 2356 3053 
L 1172 3053 
L 1172 1153 
Q 1172 725 1289 603 
Q 1406 481 1766 481 
L 2356 481 
L 2356 0 
L 1766 0 
Q 1100 0 847 248 
Q 594 497 594 1153 
L 594 3053 
L 172 3053 
L 172 3500 
L 594 3500 
L 594 4494 
L 1172 4494 
z
" transform="scale(0.015625)"/>
       <path id="DejaVuSans-6e" d="M 3513 2113 
L 3513 0 
L 2938 0 
L 2938 2094 
Q 2938 2591 2744 2837 
Q 2550 3084 2163 3084 
Q 1697 3084 1428 2787 
Q 1159 2491 1159 1978 
L 1159 0 
L 581 0 
L 581 3500 
L 1159 3500 
L 1159 2956 
Q 1366 3272 1645 3428 
Q 1925 3584 2291 3584 
Q 2894 3584 3203 3211 
Q 3513 2838 3513 2113 
z
" transform="scale(0.015625)"/>
       <path id="DejaVuSans-65" d="M 3597 1894 
L 3597 1613 
L 953 1613 
Q 991 1019 1311 708 
Q 1631 397 2203 397 
Q 2534 397 2845 478 
Q 3156 559 3463 722 
L 3463 178 
Q 3153 47 2828 -22 
Q 2503 -91 2169 -91 
Q 1331 -91 842 396 
Q 353 884 353 1716 
Q 353 2575 817 3079 
Q 1281 3584 2069 3584 
Q 2775 3584 3186 3129 
Q 3597 2675 3597 1894 
z
M 3022 2063 
Q 3016 2534 2758 2815 
Q 2500 3097 2075 3097 
Q 1594 3097 1305 2825 
Q 1016 2553 972 2059 
L 3022 2063 
z
" transform="scale(0.015625)"/>
       <path id="DejaVuSans-73" d="M 2834 3397 
L 2834 2853 
Q 2591 2978 2328 3040 
Q 2066 3103 1784 3103 
Q 1356 3103 1142 2972 
Q 928 2841 928 2578 
Q 928 2378 1081 2264 
Q 1234 2150 1697 2047 
L 1894 2003 
Q 2506 1872 2764 1633 
Q 3022 1394 3022 966 
Q 3022 478 2636 193 
Q 2250 -91 1575 -91 
Q 1294 -91 989 -36 
Q 684 19 347 128 
L 347 722 
Q 666 556 975 473 
Q 1284 391 1588 391 
Q 1994 391 2212 530 
Q 2431 669 2431 922 
Q 2431 1156 2273 1281 
Q 2116 1406 1581 1522 
L 1381 1569 
Q 847 1681 609 1914 
Q 372 2147 372 2553 
Q 372 3047 722 3315 
Q 1072 3584 1716 3584 
Q 2034 3584 2315 3537 
Q 2597 3491 2834 3397 
z
" transform="scale(0.015625)"/>
       <path id="DejaVuSans-20" transform="scale(0.015625)"/>
       <path id="DejaVuSans-66" d="M 2375 4863 
L 2375 4384 
L 1825 4384 
Q 1516 4384 1395 4259 
Q 1275 4134 1275 3809 
L 1275 3500 
L 2222 3500 
L 2222 3053 
L 1275 3053 
L 1275 0 
L 697 0 
L 697 3053 
L 147 3053 
L 147 3500 
L 697 3500 
L 697 3744 
Q 697 4328 969 4595 
Q 1241 4863 1831 4863 
L 2375 4863 
z
" transform="scale(0.015625)"/>
       <path id="DejaVuSans-63" d="M 3122 3366 
L 3122 2828 
Q 2878 2963 2633 3030 
Q 2388 3097 2138 3097 
Q 1578 3097 1268 2742 
Q 959 2388 959 1747 
Q 959 1106 1268 751 
Q 1578 397 2138 397 
Q 2388 397 2633 464 
Q 2878 531 3122 666 
L 3122 134 
Q 2881 22 2623 -34 
Q 2366 -91 2075 -91 
Q 1284 -91 818 406 
Q 353 903 353 1747 
Q 353 2603 823 3093 
Q 1294 3584 2113 3584 
Q 2378 3584 2631 3529 
Q 2884 3475 3122 3366 
z
" transform="scale(0.015625)"/>
       <path id="DejaVuSans-28" d="M 1984 4856 
Q 1566 4138 1362 3434 
Q 1159 2731 1159 2009 
Q 1159 1288 1364 580 
Q 1569 -128 1984 -844 
L 1484 -844 
Q 1016 -109 783 600 
Q 550 1309 550 2009 
Q 550 2706 781 3412 
Q 1013 4119 1484 4856 
L 1984 4856 
z
" transform="scale(0.015625)"/>
       <path id="DejaVuSans-394" d="M 2188 4044 
L 906 525 
L 3472 525 
L 2188 4044 
z
M 50 0 
L 1831 4666 
L 2547 4666 
L 4325 0 
L 50 0 
z
" transform="scale(0.015625)"/>
       <path id="DejaVuSans-29" d="M 513 4856 
L 1013 4856 
Q 1481 4119 1714 3412 
Q 1947 2706 1947 2009 
Q 1947 1309 1714 600 
Q 1481 -109 1013 -844 
L 513 -844 
Q 928 -128 1133 580 
Q 1338 1288 1338 2009 
Q 1338 2731 1133 3434 
Q 928 4138 513 4856 
z
" transform="scale(0.015625)"/>
      </defs>
      <use xlink:href="#DejaVuSans-46" transform="translate(0 0.015625)"/>
      <use xlink:href="#DejaVuSans-69" transform="translate(57.519531 0.015625)"/>
      <use xlink:href="#DejaVuSans-74" transform="translate(85.302734 0.015625)"/>
      <use xlink:href="#DejaVuSans-6e" transform="translate(124.511719 0.015625)"/>
      <use xlink:href="#DejaVuSans-65" transform="translate(187.890625 0.015625)"/>
      <use xlink:href="#DejaVuSans-73" transform="translate(249.414062 0.015625)"/>
      <use xlink:href="#DejaVuSans-73" transform="translate(301.513672 0.015625)"/>
      <use xlink:href="#DejaVuSans-20" transform="translate(353.613281 0.015625)"/>
      <use xlink:href="#DejaVuSans-65" transform="translate(385.400391 0.015625)"/>
      <use xlink:href="#DejaVuSans-66" transform="translate(446.923828 0.015625)"/>
      <use xlink:href="#DejaVuSans-66" transform="translate(482.128906 0.015625)"/>
      <use xlink:href="#DejaVuSans-65" transform="translate(517.333984 0.015625)"/>
      <use xlink:href="#DejaVuSans-63" transform="translate(578.857422 0.015625)"/>
      <use xlink:href="#DejaVuSans-74" transform="translate(633.837891 0.015625)"/>
      <use xlink:href="#DejaVuSans-20" transform="translate(673.046875 0.015625)"/>
      <use xlink:href="#DejaVuSans-28" transform="translate(704.833984 0.015625)"/>
      <use xlink:href="#DejaVuSans-394" transform="translate(743.847656 0.015625)"/>
      <use xlink:href="#DejaVuSans-29" transform="translate(812.255859 0.015625)"/>
     </g>
    </g>
    <g id="text_9">
     <!-- 1e−2 -->
     <g transform="translate(370.611562 261.336812) scale(0.14 -0.14)">
      <defs>
       <path id="DejaVuSans-31" d="M 794 531 
L 1825 531 
L 1825 4091 
L 703 3866 
L 703 4441 
L 1819 4666 
L 2450 4666 
L 2450 531 
L 3481 531 
L 3481 0 
L 794 0 
L 794 531 
z
" transform="scale(0.015625)"/>
      </defs>
      <use xlink:href="#DejaVuSans-31"/>
      <use xlink:href="#DejaVuSans-65" x="63.623047"/>
      <use xlink:href="#DejaVuSans-2212" x="125.146484"/>
      <use xlink:href="#DejaVuSans-32" x="208.935547"/>
     </g>
    </g>
   </g>
   <g id="matplotlib.axis_2">
    <g id="ytick_1">
     <g id="line2d_8">
      <defs>
       <path id="m9e23d7c8f2" d="M 0 0 
L -6 0 
" style="stroke: #000000; stroke-width: 1.5"/>
      </defs>
      <g>
       <use xlink:href="#m9e23d7c8f2" x="43.4225" y="214.649625" style="stroke: #000000; stroke-width: 1.5"/>
      </g>
     </g>
     <g id="text_10">
      <!-- 0 -->
      <g transform="translate(25.015 219.968531) scale(0.14 -0.14)">
       <use xlink:href="#DejaVuSans-30"/>
      </g>
     </g>
    </g>
    <g id="ytick_2">
     <g id="line2d_9">
      <g>
       <use xlink:href="#m9e23d7c8f2" x="43.4225" y="181.514832" style="stroke: #000000; stroke-width: 1.5"/>
      </g>
     </g>
     <g id="text_11">
      <!-- 50 -->
      <g transform="translate(16.1075 186.833738) scale(0.14 -0.14)">
       <defs>
        <path id="DejaVuSans-35" d="M 691 4666 
L 3169 4666 
L 3169 4134 
L 1269 4134 
L 1269 2991 
Q 1406 3038 1543 3061 
Q 1681 3084 1819 3084 
Q 2600 3084 3056 2656 
Q 3513 2228 3513 1497 
Q 3513 744 3044 326 
Q 2575 -91 1722 -91 
Q 1428 -91 1123 -41 
Q 819 9 494 109 
L 494 744 
Q 775 591 1075 516 
Q 1375 441 1709 441 
Q 2250 441 2565 725 
Q 2881 1009 2881 1497 
Q 2881 1984 2565 2268 
Q 2250 2553 1709 2553 
Q 1456 2553 1204 2497 
Q 953 2441 691 2322 
L 691 4666 
z
" transform="scale(0.015625)"/>
       </defs>
       <use xlink:href="#DejaVuSans-35"/>
       <use xlink:href="#DejaVuSans-30" x="63.623047"/>
      </g>
     </g>
    </g>
    <g id="ytick_3">
     <g id="line2d_10">
      <g>
       <use xlink:href="#m9e23d7c8f2" x="43.4225" y="148.380039" style="stroke: #000000; stroke-width: 1.5"/>
      </g>
     </g>
     <g id="text_12">
      <!-- 100 -->
      <g transform="translate(7.2 153.698945) scale(0.14 -0.14)">
       <use xlink:href="#DejaVuSans-31"/>
       <use xlink:href="#DejaVuSans-30" x="63.623047"/>
       <use xlink:href="#DejaVuSans-30" x="127.246094"/>
      </g>
     </g>
    </g>
    <g id="ytick_4">
     <g id="line2d_11">
      <g>
       <use xlink:href="#m9e23d7c8f2" x="43.4225" y="115.245246" style="stroke: #000000; stroke-width: 1.5"/>
      </g>
     </g>
     <g id="text_13">
      <!-- 150 -->
      <g transform="translate(7.2 120.564152) scale(0.14 -0.14)">
       <use xlink:href="#DejaVuSans-31"/>
       <use xlink:href="#DejaVuSans-35" x="63.623047"/>
       <use xlink:href="#DejaVuSans-30" x="127.246094"/>
      </g>
     </g>
    </g>
    <g id="ytick_5">
     <g id="line2d_12">
      <g>
       <use xlink:href="#m9e23d7c8f2" x="43.4225" y="82.110453" style="stroke: #000000; stroke-width: 1.5"/>
      </g>
     </g>
     <g id="text_14">
      <!-- 200 -->
      <g transform="translate(7.2 87.429359) scale(0.14 -0.14)">
       <use xlink:href="#DejaVuSans-32"/>
       <use xlink:href="#DejaVuSans-30" x="63.623047"/>
       <use xlink:href="#DejaVuSans-30" x="127.246094"/>
      </g>
     </g>
    </g>
    <g id="ytick_6">
     <g id="line2d_13">
      <g>
       <use xlink:href="#m9e23d7c8f2" x="43.4225" y="48.97566" style="stroke: #000000; stroke-width: 1.5"/>
      </g>
     </g>
     <g id="text_15">
      <!-- 250 -->
      <g transform="translate(7.2 54.294566) scale(0.14 -0.14)">
       <use xlink:href="#DejaVuSans-32"/>
       <use xlink:href="#DejaVuSans-35" x="63.623047"/>
       <use xlink:href="#DejaVuSans-30" x="127.246094"/>
      </g>
     </g>
    </g>
   </g>
   <g id="line2d_14">
    <path d="M 71.19 195.47079 
L 391.005 195.47079 
" clip-path="url(#pd50215c54d)" style="fill: none; stroke-dasharray: 3.7,1.6; stroke-dashoffset: 0; stroke: #808080"/>
   </g>
   <g id="line2d_15">
    <path d="M 53.4225 215.146647 
L 71.19 195.47079 
" clip-path="url(#pd50215c54d)" style="fill: none; stroke-dasharray: 3.7,1.6; stroke-dashoffset: 0; stroke: #808080"/>
   </g>
   <g id="line2d_16">
    <path d="M 408.7725 215.146647 
L 391.005 195.47079 
" clip-path="url(#pd50215c54d)" style="fill: none; stroke-dasharray: 3.7,1.6; stroke-dashoffset: 0; stroke: #808080"/>
   </g>
   <g id="line2d_17">
    <path d="M 142.26 215.146647 
L 151.14375 195.47079 
" clip-path="url(#pd50215c54d)" style="fill: none; stroke-dasharray: 3.7,1.6; stroke-dashoffset: 0; stroke: #808080"/>
   </g>
   <g id="line2d_18">
    <path d="M 319.935 215.146647 
L 311.05125 195.47079 
" clip-path="url(#pd50215c54d)" style="fill: none; stroke-dasharray: 3.7,1.6; stroke-dashoffset: 0; stroke: #808080"/>
   </g>
   <g id="line2d_19">
    <path d="M 231.0975 215.146647 
L 231.0975 195.47079 
" clip-path="url(#pd50215c54d)" style="fill: none; stroke-dasharray: 3.7,1.6; stroke-dashoffset: 0; stroke: #808080"/>
   </g>
   <g id="patch_7">
    <path d="M 43.4225 214.649625 
L 43.4225 33.669625 
" style="fill: none; stroke: #000000; stroke-width: 1.5; stroke-linejoin: miter; stroke-linecap: square"/>
   </g>
   <g id="patch_8">
    <path d="M 53.4225 224.649625 
L 408.7725 224.649625 
" style="fill: none; stroke: #000000; stroke-width: 1.5; stroke-linejoin: miter; stroke-linecap: square"/>
   </g>
   <g id="text_16">
    <!-- A -->
    <g transform="translate(17.8875 20.877187) scale(0.18 -0.18)">
     <defs>
      <path id="DejaVuSans-Bold-41" d="M 3419 850 
L 1538 850 
L 1241 0 
L 31 0 
L 1759 4666 
L 3194 4666 
L 4922 0 
L 3713 0 
L 3419 850 
z
M 1838 1716 
L 3116 1716 
L 2478 3572 
L 1838 1716 
z
" transform="scale(0.015625)"/>
     </defs>
     <use xlink:href="#DejaVuSans-Bold-41"/>
    </g>
   </g>
   <g id="text_17">
    <!-- $p_{KS} = 0.054$ -->
    <g transform="translate(71.19 51.812375) scale(0.12 -0.12)">
     <defs>
      <path id="DejaVuSans-Oblique-70" d="M 3175 2156 
Q 3175 2616 2975 2859 
Q 2775 3103 2400 3103 
Q 2144 3103 1911 2972 
Q 1678 2841 1497 2591 
Q 1319 2344 1212 1994 
Q 1106 1644 1106 1300 
Q 1106 863 1306 627 
Q 1506 391 1875 391 
Q 2147 391 2380 519 
Q 2613 647 2778 891 
Q 2956 1147 3065 1494 
Q 3175 1841 3175 2156 
z
M 1394 2969 
Q 1625 3272 1939 3428 
Q 2253 3584 2638 3584 
Q 3175 3584 3472 3232 
Q 3769 2881 3769 2247 
Q 3769 1728 3584 1258 
Q 3400 788 3053 416 
Q 2822 169 2531 39 
Q 2241 -91 1919 -91 
Q 1547 -91 1294 64 
Q 1041 219 916 525 
L 556 -1331 
L -19 -1331 
L 922 3500 
L 1497 3500 
L 1394 2969 
z
" transform="scale(0.015625)"/>
      <path id="DejaVuSans-Oblique-4b" d="M 1081 4666 
L 1716 4666 
L 1331 2700 
L 3781 4666 
L 4622 4666 
L 1850 2438 
L 3878 0 
L 3109 0 
L 1247 2272 
L 806 0 
L 172 0 
L 1081 4666 
z
" transform="scale(0.015625)"/>
      <path id="DejaVuSans-Oblique-53" d="M 3859 4513 
L 3738 3897 
Q 3422 4066 3111 4152 
Q 2800 4238 2509 4238 
Q 1944 4238 1609 3991 
Q 1275 3744 1275 3334 
Q 1275 3109 1398 2989 
Q 1522 2869 2034 2731 
L 2413 2638 
Q 3053 2472 3303 2217 
Q 3553 1963 3553 1503 
Q 3553 797 2998 353 
Q 2444 -91 1538 -91 
Q 1166 -91 791 -17 
Q 416 56 38 206 
L 166 856 
Q 513 641 861 531 
Q 1209 422 1556 422 
Q 2147 422 2503 684 
Q 2859 947 2859 1369 
Q 2859 1650 2717 1795 
Q 2575 1941 2106 2059 
L 1728 2156 
Q 1081 2325 845 2545 
Q 609 2766 609 3163 
Q 609 3859 1145 4304 
Q 1681 4750 2541 4750 
Q 2875 4750 3203 4690 
Q 3531 4631 3859 4513 
z
" transform="scale(0.015625)"/>
      <path id="DejaVuSans-3d" d="M 678 2906 
L 4684 2906 
L 4684 2381 
L 678 2381 
L 678 2906 
z
M 678 1631 
L 4684 1631 
L 4684 1100 
L 678 1100 
L 678 1631 
z
" transform="scale(0.015625)"/>
      <path id="DejaVuSans-2e" d="M 684 794 
L 1344 794 
L 1344 0 
L 684 0 
L 684 794 
z
" transform="scale(0.015625)"/>
     </defs>
     <use xlink:href="#DejaVuSans-Oblique-70" transform="translate(0 0.78125)"/>
     <use xlink:href="#DejaVuSans-Oblique-4b" transform="translate(63.476562 -15.625) scale(0.7)"/>
     <use xlink:href="#DejaVuSans-Oblique-53" transform="translate(109.379883 -15.625) scale(0.7)"/>
     <use xlink:href="#DejaVuSans-3d" transform="translate(176.030273 0.78125)"/>
     <use xlink:href="#DejaVuSans-30" transform="translate(279.301758 0.78125)"/>
     <use xlink:href="#DejaVuSans-2e" transform="translate(342.924805 0.78125)"/>
     <use xlink:href="#DejaVuSans-30" transform="translate(374.711914 0.78125)"/>
     <use xlink:href="#DejaVuSans-35" transform="translate(438.334961 0.78125)"/>
     <use xlink:href="#DejaVuSans-34" transform="translate(501.958008 0.78125)"/>
    </g>
   </g>
   <g id="legend_1">
    <g id="patch_9">
     <path d="M 311.345625 53.58775 
L 335.345625 53.58775 
L 335.345625 45.18775 
L 311.345625 45.18775 
z
" style="fill: #802f95; fill-opacity: 0.75; stroke: #000000; stroke-width: 1.1; stroke-linejoin: miter"/>
    </g>
    <g id="text_18">
     <!-- Evolved -->
     <g transform="translate(344.945625 53.58775) scale(0.12 -0.12)">
      <defs>
       <path id="DejaVuSans-45" d="M 628 4666 
L 3578 4666 
L 3578 4134 
L 1259 4134 
L 1259 2753 
L 3481 2753 
L 3481 2222 
L 1259 2222 
L 1259 531 
L 3634 531 
L 3634 0 
L 628 0 
L 628 4666 
z
" transform="scale(0.015625)"/>
       <path id="DejaVuSans-76" d="M 191 3500 
L 800 3500 
L 1894 563 
L 2988 3500 
L 3597 3500 
L 2284 0 
L 1503 0 
L 191 3500 
z
" transform="scale(0.015625)"/>
       <path id="DejaVuSans-6f" d="M 1959 3097 
Q 1497 3097 1228 2736 
Q 959 2375 959 1747 
Q 959 1119 1226 758 
Q 1494 397 1959 397 
Q 2419 397 2687 759 
Q 2956 1122 2956 1747 
Q 2956 2369 2687 2733 
Q 2419 3097 1959 3097 
z
M 1959 3584 
Q 2709 3584 3137 3096 
Q 3566 2609 3566 1747 
Q 3566 888 3137 398 
Q 2709 -91 1959 -91 
Q 1206 -91 779 398 
Q 353 888 353 1747 
Q 353 2609 779 3096 
Q 1206 3584 1959 3584 
z
" transform="scale(0.015625)"/>
       <path id="DejaVuSans-6c" d="M 603 4863 
L 1178 4863 
L 1178 0 
L 603 0 
L 603 4863 
z
" transform="scale(0.015625)"/>
       <path id="DejaVuSans-64" d="M 2906 2969 
L 2906 4863 
L 3481 4863 
L 3481 0 
L 2906 0 
L 2906 525 
Q 2725 213 2448 61 
Q 2172 -91 1784 -91 
Q 1150 -91 751 415 
Q 353 922 353 1747 
Q 353 2572 751 3078 
Q 1150 3584 1784 3584 
Q 2172 3584 2448 3432 
Q 2725 3281 2906 2969 
z
M 947 1747 
Q 947 1113 1208 752 
Q 1469 391 1925 391 
Q 2381 391 2643 752 
Q 2906 1113 2906 1747 
Q 2906 2381 2643 2742 
Q 2381 3103 1925 3103 
Q 1469 3103 1208 2742 
Q 947 2381 947 1747 
z
" transform="scale(0.015625)"/>
      </defs>
      <use xlink:href="#DejaVuSans-45"/>
      <use xlink:href="#DejaVuSans-76" x="63.183594"/>
      <use xlink:href="#DejaVuSans-6f" x="122.363281"/>
      <use xlink:href="#DejaVuSans-6c" x="183.544922"/>
      <use xlink:href="#DejaVuSans-76" x="211.328125"/>
      <use xlink:href="#DejaVuSans-65" x="270.507812"/>
      <use xlink:href="#DejaVuSans-64" x="332.03125"/>
     </g>
    </g>
    <g id="line2d_20">
     <path d="M 311.345625 67.0015 
L 335.345625 67.0015 
" style="fill: none; stroke: #ff4126; stroke-width: 1.1; stroke-linecap: square"/>
    </g>
    <g id="text_19">
     <!-- DFE Evo -->
     <g transform="translate(344.945625 71.2015) scale(0.12 -0.12)">
      <defs>
       <path id="DejaVuSans-44" d="M 1259 4147 
L 1259 519 
L 2022 519 
Q 2988 519 3436 956 
Q 3884 1394 3884 2338 
Q 3884 3275 3436 3711 
Q 2988 4147 2022 4147 
L 1259 4147 
z
M 628 4666 
L 1925 4666 
Q 3281 4666 3915 4102 
Q 4550 3538 4550 2338 
Q 4550 1131 3912 565 
Q 3275 0 1925 0 
L 628 0 
L 628 4666 
z
" transform="scale(0.015625)"/>
      </defs>
      <use xlink:href="#DejaVuSans-44"/>
      <use xlink:href="#DejaVuSans-46" x="77.001953"/>
      <use xlink:href="#DejaVuSans-45" x="134.521484"/>
      <use xlink:href="#DejaVuSans-20" x="197.705078"/>
      <use xlink:href="#DejaVuSans-45" x="229.492188"/>
      <use xlink:href="#DejaVuSans-76" x="292.675781"/>
      <use xlink:href="#DejaVuSans-6f" x="351.855469"/>
     </g>
    </g>
    <g id="patch_10">
     <path d="M 311.345625 88.81525 
L 335.345625 88.81525 
L 335.345625 80.41525 
L 311.345625 80.41525 
z
" style="fill: #808080; fill-opacity: 0.4; stroke: #000000; stroke-width: 1.1; stroke-linejoin: miter"/>
    </g>
    <g id="text_20">
     <!-- Ancestor -->
     <g transform="translate(344.945625 88.81525) scale(0.12 -0.12)">
      <defs>
       <path id="DejaVuSans-41" d="M 2188 4044 
L 1331 1722 
L 3047 1722 
L 2188 4044 
z
M 1831 4666 
L 2547 4666 
L 4325 0 
L 3669 0 
L 3244 1197 
L 1141 1197 
L 716 0 
L 50 0 
L 1831 4666 
z
" transform="scale(0.015625)"/>
       <path id="DejaVuSans-72" d="M 2631 2963 
Q 2534 3019 2420 3045 
Q 2306 3072 2169 3072 
Q 1681 3072 1420 2755 
Q 1159 2438 1159 1844 
L 1159 0 
L 581 0 
L 581 3500 
L 1159 3500 
L 1159 2956 
Q 1341 3275 1631 3429 
Q 1922 3584 2338 3584 
Q 2397 3584 2469 3576 
Q 2541 3569 2628 3553 
L 2631 2963 
z
" transform="scale(0.015625)"/>
      </defs>
      <use xlink:href="#DejaVuSans-41"/>
      <use xlink:href="#DejaVuSans-6e" x="68.408203"/>
      <use xlink:href="#DejaVuSans-63" x="131.787109"/>
      <use xlink:href="#DejaVuSans-65" x="186.767578"/>
      <use xlink:href="#DejaVuSans-73" x="248.291016"/>
      <use xlink:href="#DejaVuSans-74" x="300.390625"/>
      <use xlink:href="#DejaVuSans-6f" x="339.599609"/>
      <use xlink:href="#DejaVuSans-72" x="400.78125"/>
     </g>
    </g>
   </g>
  </g>
  <g id="axes_2">
   <g id="patch_11">
    <path d="M 476.7375 214.649625 
L 832.0875 214.649625 
L 832.0875 33.669625 
L 476.7375 33.669625 
z
" style="fill: #ffffff"/>
   </g>
   <g id="patch_12">
    <path d="M 658.856829 214.649625 
L 658.856829 56.122884 
L 664.66493 56.122884 
L 664.66493 115.347164 
L 670.473031 115.347164 
L 670.473031 148.352362 
L 676.281131 148.352362 
L 676.281131 176.422203 
L 682.089232 176.422203 
L 682.089232 183.825238 
L 687.897333 183.825238 
L 687.897333 190.302894 
L 693.705434 190.302894 
L 693.705434 193.695951 
L 699.513535 193.695951 
L 699.513535 196.780549 
L 705.321636 196.780549 
L 705.321636 195.23825 
L 711.129737 195.23825 
L 711.129737 198.939768 
L 716.937838 198.939768 
L 716.937838 198.322848 
L 722.745939 198.322848 
L 722.745939 198.939768 
L 728.55404 198.939768 
L 728.55404 198.939768 
L 734.362141 198.939768 
L 734.362141 198.939768 
L 740.170242 198.939768 
L 740.170242 198.939768 
L 745.978343 198.939768 
L 745.978343 198.939768 
L 751.786444 198.939768 
L 751.786444 198.939768 
L 757.594545 198.939768 
L 757.594545 198.014388 
L 763.402646 198.014388 
L 763.402646 198.939768 
L 769.210746 198.939768 
L 769.210746 198.322848 
L 775.018847 198.322848 
L 775.018847 214.649625 
" clip-path="url(#p0af21f5319)" style="fill: #802f95; fill-opacity: 0.75; stroke: #000000; stroke-width: 1.1; stroke-linejoin: miter"/>
   </g>
   <g id="patch_13">
    <path d="M 476.7375 214.649625 
L 832.0875 214.649625 
L 832.0875 198.939768 
L 476.7375 198.939768 
z
" clip-path="url(#p0af21f5319)" style="fill: #ffffff"/>
   </g>
   <g id="patch_14">
    <path d="M 559.885081 214.649625 
L 559.885081 214.126464 
L 566.85548 214.126464 
L 566.85548 214.126464 
L 573.82588 214.126464 
L 573.82588 214.649625 
L 580.79628 214.649625 
L 580.79628 214.649625 
L 587.766679 214.649625 
L 587.766679 214.126464 
L 594.737079 214.126464 
L 594.737079 213.080143 
L 601.707478 213.080143 
L 601.707478 211.772242 
L 608.677878 211.772242 
L 608.677878 209.156439 
L 615.648278 209.156439 
L 615.648278 204.447994 
L 622.618677 204.447994 
L 622.618677 200.001129 
L 629.589077 200.001129 
L 629.589077 185.352633 
L 636.559477 185.352633 
L 636.559477 162.333569 
L 643.529876 162.333569 
L 643.529876 150.562456 
L 650.500276 150.562456 
L 650.500276 171.750459 
L 657.470676 171.750459 
L 657.470676 193.723202 
L 664.441075 193.723202 
L 664.441075 200.52429 
L 671.411475 200.52429 
L 671.411475 206.017476 
L 678.381875 206.017476 
L 678.381875 209.94118 
L 685.352274 209.94118 
L 685.352274 211.510662 
L 692.322674 211.510662 
L 692.322674 212.818563 
L 699.293074 212.818563 
L 699.293074 214.126464 
L 706.263473 214.126464 
L 706.263473 213.603304 
L 713.233873 213.603304 
L 713.233873 214.649625 
L 720.204272 214.649625 
L 720.204272 214.649625 
L 727.174672 214.649625 
L 727.174672 214.649625 
L 734.145072 214.649625 
L 734.145072 214.649625 
L 741.115471 214.649625 
L 741.115471 214.649625 
L 748.085871 214.649625 
L 748.085871 214.649625 
L 755.056271 214.649625 
L 755.056271 214.649625 
L 762.02667 214.649625 
L 762.02667 214.126464 
L 768.99707 214.126464 
L 768.99707 214.649625 
" clip-path="url(#p0af21f5319)" style="fill: #808080; fill-opacity: 0.4; stroke: #000000; stroke-width: 1.1; stroke-linejoin: miter"/>
   </g>
   <g id="patch_15">
    <path d="M 537.460326 214.649625 
L 537.460326 213.837638 
L 543.10833 213.837638 
L 543.10833 214.649625 
L 548.756333 214.649625 
L 548.756333 214.649625 
L 554.404337 214.649625 
L 554.404337 214.487228 
L 560.052341 214.487228 
L 560.052341 213.675241 
L 565.700344 213.675241 
L 565.700344 214.162433 
L 571.348348 214.162433 
L 571.348348 213.188048 
L 576.996352 213.188048 
L 576.996352 212.376062 
L 582.644356 212.376062 
L 582.644356 211.726472 
L 588.292359 211.726472 
L 588.292359 212.213664 
L 593.940363 212.213664 
L 593.940363 212.376062 
L 599.588367 212.376062 
L 599.588367 211.401677 
L 605.23637 211.401677 
L 605.23637 209.777703 
L 610.884374 209.777703 
L 610.884374 206.529755 
L 616.532378 206.529755 
L 616.532378 202.957013 
L 622.180382 202.957013 
L 622.180382 200.521052 
L 627.828385 200.521052 
L 627.828385 192.238785 
L 633.476389 192.238785 
L 633.476389 177.62302 
L 639.124393 177.62302 
L 639.124393 157.485744 
L 644.772396 157.485744 
L 644.772396 155.374578 
L 650.4204 155.374578 
L 650.4204 169.503151 
L 656.068404 169.503151 
L 656.068404 191.589196 
L 661.716407 191.589196 
L 661.716407 197.922694 
L 667.364411 197.922694 
L 667.364411 204.256192 
L 673.012415 204.256192 
L 673.012415 208.640922 
L 678.660419 208.640922 
L 678.660419 209.452909 
L 684.308422 209.452909 
L 684.308422 212.538459 
L 689.956426 212.538459 
L 689.956426 211.888869 
L 695.60443 211.888869 
L 695.60443 213.188048 
L 701.252433 213.188048 
L 701.252433 213.188048 
L 706.900437 213.188048 
L 706.900437 214.649625 
" clip-path="url(#p0af21f5319)" style="fill: none; stroke: #ff4126; stroke-width: 1.1; stroke-linejoin: miter"/>
   </g>
   <g id="matplotlib.axis_3">
    <g id="xtick_8">
     <g id="line2d_21">
      <g>
       <use xlink:href="#m327324f9fe" x="476.7375" y="224.649625" style="stroke: #000000; stroke-width: 1.5"/>
      </g>
     </g>
     <g id="text_21">
      <!-- −6 -->
      <g transform="translate(466.417969 244.787437) scale(0.14 -0.14)">
       <use xlink:href="#DejaVuSans-2212"/>
       <use xlink:href="#DejaVuSans-36" x="83.789062"/>
      </g>
     </g>
    </g>
    <g id="xtick_9">
     <g id="line2d_22">
      <g>
       <use xlink:href="#m327324f9fe" x="535.9625" y="224.649625" style="stroke: #000000; stroke-width: 1.5"/>
      </g>
     </g>
     <g id="text_22">
      <!-- −4 -->
      <g transform="translate(525.642969 244.787437) scale(0.14 -0.14)">
       <use xlink:href="#DejaVuSans-2212"/>
       <use xlink:href="#DejaVuSans-34" x="83.789062"/>
      </g>
     </g>
    </g>
    <g id="xtick_10">
     <g id="line2d_23">
      <g>
       <use xlink:href="#m327324f9fe" x="595.1875" y="224.649625" style="stroke: #000000; stroke-width: 1.5"/>
      </g>
     </g>
     <g id="text_23">
      <!-- −2 -->
      <g transform="translate(584.867969 244.787437) scale(0.14 -0.14)">
       <use xlink:href="#DejaVuSans-2212"/>
       <use xlink:href="#DejaVuSans-32" x="83.789062"/>
      </g>
     </g>
    </g>
    <g id="xtick_11">
     <g id="line2d_24">
      <g>
       <use xlink:href="#m327324f9fe" x="654.4125" y="224.649625" style="stroke: #000000; stroke-width: 1.5"/>
      </g>
     </g>
     <g id="text_24">
      <!-- 0 -->
      <g transform="translate(649.95875 244.787437) scale(0.14 -0.14)">
       <use xlink:href="#DejaVuSans-30"/>
      </g>
     </g>
    </g>
    <g id="xtick_12">
     <g id="line2d_25">
      <g>
       <use xlink:href="#m327324f9fe" x="713.6375" y="224.649625" style="stroke: #000000; stroke-width: 1.5"/>
      </g>
     </g>
     <g id="text_25">
      <!-- 2 -->
      <g transform="translate(709.18375 244.787437) scale(0.14 -0.14)">
       <use xlink:href="#DejaVuSans-32"/>
      </g>
     </g>
    </g>
    <g id="xtick_13">
     <g id="line2d_26">
      <g>
       <use xlink:href="#m327324f9fe" x="772.8625" y="224.649625" style="stroke: #000000; stroke-width: 1.5"/>
      </g>
     </g>
     <g id="text_26">
      <!-- 4 -->
      <g transform="translate(768.40875 244.787437) scale(0.14 -0.14)">
       <use xlink:href="#DejaVuSans-34"/>
      </g>
     </g>
    </g>
    <g id="xtick_14">
     <g id="line2d_27">
      <g>
       <use xlink:href="#m327324f9fe" x="832.0875" y="224.649625" style="stroke: #000000; stroke-width: 1.5"/>
      </g>
     </g>
     <g id="text_27">
      <!-- 6 -->
      <g transform="translate(827.63375 244.787437) scale(0.14 -0.14)">
       <use xlink:href="#DejaVuSans-36"/>
      </g>
     </g>
    </g>
    <g id="text_28">
     <!-- Fitness effect $(\Delta)$ -->
     <g transform="translate(586.2525 263.8565) scale(0.16 -0.16)">
      <use xlink:href="#DejaVuSans-46" transform="translate(0 0.015625)"/>
      <use xlink:href="#DejaVuSans-69" transform="translate(57.519531 0.015625)"/>
      <use xlink:href="#DejaVuSans-74" transform="translate(85.302734 0.015625)"/>
      <use xlink:href="#DejaVuSans-6e" transform="translate(124.511719 0.015625)"/>
      <use xlink:href="#DejaVuSans-65" transform="translate(187.890625 0.015625)"/>
      <use xlink:href="#DejaVuSans-73" transform="translate(249.414062 0.015625)"/>
      <use xlink:href="#DejaVuSans-73" transform="translate(301.513672 0.015625)"/>
      <use xlink:href="#DejaVuSans-20" transform="translate(353.613281 0.015625)"/>
      <use xlink:href="#DejaVuSans-65" transform="translate(385.400391 0.015625)"/>
      <use xlink:href="#DejaVuSans-66" transform="translate(446.923828 0.015625)"/>
      <use xlink:href="#DejaVuSans-66" transform="translate(482.128906 0.015625)"/>
      <use xlink:href="#DejaVuSans-65" transform="translate(517.333984 0.015625)"/>
      <use xlink:href="#DejaVuSans-63" transform="translate(578.857422 0.015625)"/>
      <use xlink:href="#DejaVuSans-74" transform="translate(633.837891 0.015625)"/>
      <use xlink:href="#DejaVuSans-20" transform="translate(673.046875 0.015625)"/>
      <use xlink:href="#DejaVuSans-28" transform="translate(704.833984 0.015625)"/>
      <use xlink:href="#DejaVuSans-394" transform="translate(743.847656 0.015625)"/>
      <use xlink:href="#DejaVuSans-29" transform="translate(812.255859 0.015625)"/>
     </g>
    </g>
    <g id="text_29">
     <!-- 1e−2 -->
     <g transform="translate(793.926562 261.336812) scale(0.14 -0.14)">
      <use xlink:href="#DejaVuSans-31"/>
      <use xlink:href="#DejaVuSans-65" x="63.623047"/>
      <use xlink:href="#DejaVuSans-2212" x="125.146484"/>
      <use xlink:href="#DejaVuSans-32" x="208.935547"/>
     </g>
    </g>
   </g>
   <g id="matplotlib.axis_4">
    <g id="ytick_7">
     <g id="line2d_28">
      <g>
       <use xlink:href="#m9e23d7c8f2" x="466.7375" y="214.649625" style="stroke: #000000; stroke-width: 1.5"/>
      </g>
     </g>
     <g id="text_30">
      <!-- 0 -->
      <g transform="translate(448.33 219.968531) scale(0.14 -0.14)">
       <use xlink:href="#DejaVuSans-30"/>
      </g>
     </g>
    </g>
    <g id="ytick_8">
     <g id="line2d_29">
      <g>
       <use xlink:href="#m9e23d7c8f2" x="466.7375" y="181.646703" style="stroke: #000000; stroke-width: 1.5"/>
      </g>
     </g>
     <g id="text_31">
      <!-- 50 -->
      <g transform="translate(439.4225 186.965609) scale(0.14 -0.14)">
       <use xlink:href="#DejaVuSans-35"/>
       <use xlink:href="#DejaVuSans-30" x="63.623047"/>
      </g>
     </g>
    </g>
    <g id="ytick_9">
     <g id="line2d_30">
      <g>
       <use xlink:href="#m9e23d7c8f2" x="466.7375" y="148.64378" style="stroke: #000000; stroke-width: 1.5"/>
      </g>
     </g>
     <g id="text_32">
      <!-- 100 -->
      <g transform="translate(430.515 153.962686) scale(0.14 -0.14)">
       <use xlink:href="#DejaVuSans-31"/>
       <use xlink:href="#DejaVuSans-30" x="63.623047"/>
       <use xlink:href="#DejaVuSans-30" x="127.246094"/>
      </g>
     </g>
    </g>
    <g id="ytick_10">
     <g id="line2d_31">
      <g>
       <use xlink:href="#m9e23d7c8f2" x="466.7375" y="115.640858" style="stroke: #000000; stroke-width: 1.5"/>
      </g>
     </g>
     <g id="text_33">
      <!-- 150 -->
      <g transform="translate(430.515 120.959764) scale(0.14 -0.14)">
       <use xlink:href="#DejaVuSans-31"/>
       <use xlink:href="#DejaVuSans-35" x="63.623047"/>
       <use xlink:href="#DejaVuSans-30" x="127.246094"/>
      </g>
     </g>
    </g>
    <g id="ytick_11">
     <g id="line2d_32">
      <g>
       <use xlink:href="#m9e23d7c8f2" x="466.7375" y="82.637935" style="stroke: #000000; stroke-width: 1.5"/>
      </g>
     </g>
     <g id="text_34">
      <!-- 200 -->
      <g transform="translate(430.515 87.956841) scale(0.14 -0.14)">
       <use xlink:href="#DejaVuSans-32"/>
       <use xlink:href="#DejaVuSans-30" x="63.623047"/>
       <use xlink:href="#DejaVuSans-30" x="127.246094"/>
      </g>
     </g>
    </g>
    <g id="ytick_12">
     <g id="line2d_33">
      <g>
       <use xlink:href="#m9e23d7c8f2" x="466.7375" y="49.635013" style="stroke: #000000; stroke-width: 1.5"/>
      </g>
     </g>
     <g id="text_35">
      <!-- 250 -->
      <g transform="translate(430.515 54.953919) scale(0.14 -0.14)">
       <use xlink:href="#DejaVuSans-32"/>
       <use xlink:href="#DejaVuSans-35" x="63.623047"/>
       <use xlink:href="#DejaVuSans-30" x="127.246094"/>
      </g>
     </g>
    </g>
   </g>
   <g id="line2d_34">
    <path d="M 494.505 195.467889 
L 814.32 195.467889 
" clip-path="url(#p0af21f5319)" style="fill: none; stroke-dasharray: 3.7,1.6; stroke-dashoffset: 0; stroke: #808080"/>
   </g>
   <g id="line2d_35">
    <path d="M 476.7375 215.144669 
L 494.505 195.467889 
" clip-path="url(#p0af21f5319)" style="fill: none; stroke-dasharray: 3.7,1.6; stroke-dashoffset: 0; stroke: #808080"/>
   </g>
   <g id="line2d_36">
    <path d="M 832.0875 215.144669 
L 814.32 195.467889 
" clip-path="url(#p0af21f5319)" style="fill: none; stroke-dasharray: 3.7,1.6; stroke-dashoffset: 0; stroke: #808080"/>
   </g>
   <g id="line2d_37">
    <path d="M 565.575 215.144669 
L 574.45875 195.467889 
" clip-path="url(#p0af21f5319)" style="fill: none; stroke-dasharray: 3.7,1.6; stroke-dashoffset: 0; stroke: #808080"/>
   </g>
   <g id="line2d_38">
    <path d="M 743.25 215.144669 
L 734.36625 195.467889 
" clip-path="url(#p0af21f5319)" style="fill: none; stroke-dasharray: 3.7,1.6; stroke-dashoffset: 0; stroke: #808080"/>
   </g>
   <g id="line2d_39">
    <path d="M 654.4125 215.144669 
L 654.4125 195.467889 
" clip-path="url(#p0af21f5319)" style="fill: none; stroke-dasharray: 3.7,1.6; stroke-dashoffset: 0; stroke: #808080"/>
   </g>
   <g id="patch_16">
    <path d="M 466.7375 214.649625 
L 466.7375 33.669625 
" style="fill: none; stroke: #000000; stroke-width: 1.5; stroke-linejoin: miter; stroke-linecap: square"/>
   </g>
   <g id="patch_17">
    <path d="M 476.7375 224.649625 
L 832.0875 224.649625 
" style="fill: none; stroke: #000000; stroke-width: 1.5; stroke-linejoin: miter; stroke-linecap: square"/>
   </g>
   <g id="text_36">
    <!-- B -->
    <g transform="translate(441.2025 20.877187) scale(0.18 -0.18)">
     <defs>
      <path id="DejaVuSans-Bold-42" d="M 2456 2859 
Q 2741 2859 2887 2984 
Q 3034 3109 3034 3353 
Q 3034 3594 2887 3720 
Q 2741 3847 2456 3847 
L 1791 3847 
L 1791 2859 
L 2456 2859 
z
M 2497 819 
Q 2859 819 3042 972 
Q 3225 1125 3225 1434 
Q 3225 1738 3044 1889 
Q 2863 2041 2497 2041 
L 1791 2041 
L 1791 819 
L 2497 819 
z
M 3616 2497 
Q 4003 2384 4215 2081 
Q 4428 1778 4428 1338 
Q 4428 663 3972 331 
Q 3516 0 2584 0 
L 588 0 
L 588 4666 
L 2394 4666 
Q 3366 4666 3802 4372 
Q 4238 4078 4238 3431 
Q 4238 3091 4078 2852 
Q 3919 2613 3616 2497 
z
" transform="scale(0.015625)"/>
     </defs>
     <use xlink:href="#DejaVuSans-Bold-42"/>
    </g>
   </g>
   <g id="text_37">
    <!-- $p_{KS} = 0.022$ -->
    <g transform="translate(494.505 51.812375) scale(0.12 -0.12)">
     <use xlink:href="#DejaVuSans-Oblique-70" transform="translate(0 0.78125)"/>
     <use xlink:href="#DejaVuSans-Oblique-4b" transform="translate(63.476562 -15.625) scale(0.7)"/>
     <use xlink:href="#DejaVuSans-Oblique-53" transform="translate(109.379883 -15.625) scale(0.7)"/>
     <use xlink:href="#DejaVuSans-3d" transform="translate(176.030273 0.78125)"/>
     <use xlink:href="#DejaVuSans-30" transform="translate(279.301758 0.78125)"/>
     <use xlink:href="#DejaVuSans-2e" transform="translate(342.924805 0.78125)"/>
     <use xlink:href="#DejaVuSans-30" transform="translate(374.711914 0.78125)"/>
     <use xlink:href="#DejaVuSans-32" transform="translate(438.334961 0.78125)"/>
     <use xlink:href="#DejaVuSans-32" transform="translate(501.958008 0.78125)"/>
    </g>
   </g>
   <g id="legend_2">
    <g id="patch_18">
     <path d="M 734.660625 53.58775 
L 758.660625 53.58775 
L 758.660625 45.18775 
L 734.660625 45.18775 
z
" style="fill: #802f95; fill-opacity: 0.75; stroke: #000000; stroke-width: 1.1; stroke-linejoin: miter"/>
    </g>
    <g id="text_38">
     <!-- Evolved -->
     <g transform="translate(768.260625 53.58775) scale(0.12 -0.12)">
      <use xlink:href="#DejaVuSans-45"/>
      <use xlink:href="#DejaVuSans-76" x="63.183594"/>
      <use xlink:href="#DejaVuSans-6f" x="122.363281"/>
      <use xlink:href="#DejaVuSans-6c" x="183.544922"/>
      <use xlink:href="#DejaVuSans-76" x="211.328125"/>
      <use xlink:href="#DejaVuSans-65" x="270.507812"/>
      <use xlink:href="#DejaVuSans-64" x="332.03125"/>
     </g>
    </g>
    <g id="patch_19">
     <path d="M 734.660625 71.2015 
L 758.660625 71.2015 
L 758.660625 62.8015 
L 734.660625 62.8015 
z
" style="fill: #808080; fill-opacity: 0.4; stroke: #000000; stroke-width: 1.1; stroke-linejoin: miter"/>
    </g>
    <g id="text_39">
     <!-- Ancestor -->
     <g transform="translate(768.260625 71.2015) scale(0.12 -0.12)">
      <use xlink:href="#DejaVuSans-41"/>
      <use xlink:href="#DejaVuSans-6e" x="68.408203"/>
      <use xlink:href="#DejaVuSans-63" x="131.787109"/>
      <use xlink:href="#DejaVuSans-65" x="186.767578"/>
      <use xlink:href="#DejaVuSans-73" x="248.291016"/>
      <use xlink:href="#DejaVuSans-74" x="300.390625"/>
      <use xlink:href="#DejaVuSans-6f" x="339.599609"/>
      <use xlink:href="#DejaVuSans-72" x="400.78125"/>
     </g>
    </g>
    <g id="line2d_40">
     <path d="M 734.660625 84.61525 
L 758.660625 84.61525 
" style="fill: none; stroke: #ff4126; stroke-width: 1.1; stroke-linecap: square"/>
    </g>
    <g id="text_40">
     <!-- Anc DFE -->
     <g transform="translate(768.260625 88.81525) scale(0.12 -0.12)">
      <use xlink:href="#DejaVuSans-41"/>
      <use xlink:href="#DejaVuSans-6e" x="68.408203"/>
      <use xlink:href="#DejaVuSans-63" x="131.787109"/>
      <use xlink:href="#DejaVuSans-20" x="186.767578"/>
      <use xlink:href="#DejaVuSans-44" x="218.554688"/>
      <use xlink:href="#DejaVuSans-46" x="295.556641"/>
      <use xlink:href="#DejaVuSans-45" x="353.076172"/>
     </g>
    </g>
   </g>
  </g>
  <g id="axes_3">
   <g id="patch_20">
    <path d="M 53.4225 494.009625 
L 408.7725 494.009625 
L 408.7725 313.029625 
L 53.4225 313.029625 
z
" style="fill: #ffffff"/>
   </g>
   <g id="patch_21">
    <path d="M 160.732929 494.009625 
L 160.732929 474.931026 
L 165.575387 474.931026 
L 165.575387 473.576723 
L 170.417845 473.576723 
L 170.417845 476.96248 
L 175.260303 476.96248 
L 175.260303 476.285329 
L 180.102761 476.285329 
L 180.102761 475.608177 
L 184.945219 475.608177 
L 184.945219 466.805208 
L 189.787677 466.805208 
L 189.787677 471.545268 
L 194.630135 471.545268 
L 194.630135 462.065147 
L 199.472593 462.065147 
L 199.472593 447.844966 
L 204.315052 447.844966 
L 204.315052 430.239027 
L 209.15751 430.239027 
L 209.15751 391.641391 
L 213.999968 391.641391 
L 213.999968 346.272241 
L 218.842426 346.272241 
L 218.842426 349.657998 
L 223.684884 349.657998 
L 223.684884 392.318543 
L 228.527342 392.318543 
L 228.527342 437.687693 
L 233.3698 437.687693 
L 233.3698 449.87642 
L 238.212258 449.87642 
L 238.212258 465.450905 
L 243.054716 465.450905 
L 243.054716 464.096602 
L 247.897175 464.096602 
L 247.897175 470.868117 
L 252.739633 470.868117 
L 252.739633 472.899571 
L 257.582091 472.899571 
L 257.582091 494.009625 
" clip-path="url(#p43bba1c4ea)" style="fill: #802f95; fill-opacity: 0.75; stroke: #000000; stroke-width: 1.1; stroke-linejoin: miter"/>
   </g>
   <g id="patch_22">
    <path d="M 126.77221 494.009625 
L 126.77221 475.375715 
L 131.199129 475.375715 
L 131.199129 475.375715 
L 135.626048 475.375715 
L 135.626048 476.96248 
L 140.052967 476.96248 
L 140.052967 476.96248 
L 144.479887 476.96248 
L 144.479887 476.96248 
L 148.906806 476.96248 
L 148.906806 476.433558 
L 153.333725 476.433558 
L 153.333725 475.904637 
L 157.760644 475.904637 
L 157.760644 475.640176 
L 162.187564 475.640176 
L 162.187564 476.169098 
L 166.614483 476.169098 
L 166.614483 471.937724 
L 171.041402 471.937724 
L 171.041402 474.317872 
L 175.468322 474.317872 
L 175.468322 474.582333 
L 179.895241 474.582333 
L 179.895241 471.673264 
L 184.32216 471.673264 
L 184.32216 469.028655 
L 188.749079 469.028655 
L 188.749079 469.822038 
L 193.175999 469.822038 
L 193.175999 462.946056 
L 197.602918 462.946056 
L 197.602918 452.103162 
L 202.029837 452.103162 
L 202.029837 446.020563 
L 206.456756 446.020563 
L 206.456756 417.987716 
L 210.883676 417.987716 
L 210.883676 378.847514 
L 215.310595 378.847514 
L 215.310595 321.988436 
L 219.737514 321.988436 
L 219.737514 354.252657 
L 224.164434 354.252657 
L 224.164434 405.029135 
L 228.591353 405.029135 
L 228.591353 444.96272 
L 233.018272 444.96272 
L 233.018272 453.689927 
L 237.445191 453.689927 
L 237.445191 465.855125 
L 241.872111 465.855125 
L 241.872111 467.706351 
L 246.29903 467.706351 
L 246.29903 471.408803 
L 250.725949 471.408803 
L 250.725949 471.937724 
L 255.152868 471.937724 
L 255.152868 474.053411 
L 259.579788 474.053411 
L 259.579788 494.009625 
" clip-path="url(#p43bba1c4ea)" style="fill: none; stroke: #ff4126; stroke-width: 1.1; stroke-linejoin: miter"/>
   </g>
   <g id="patch_23">
    <path d="M 53.4225 494.009625 
L 408.7725 494.009625 
L 408.7725 476.96248 
L 53.4225 476.96248 
z
" clip-path="url(#p43bba1c4ea)" style="fill: #ffffff"/>
   </g>
   <g id="patch_24">
    <path d="M 235.551261 494.009625 
L 235.551261 355.463229 
L 247.643722 355.463229 
L 247.643722 428.505513 
L 259.736184 428.505513 
L 259.736184 465.936434 
L 271.828645 465.936434 
L 271.828645 483.872084 
L 283.921106 483.872084 
L 283.921106 488.031075 
L 296.013568 488.031075 
L 296.013568 491.930129 
L 308.106029 491.930129 
L 308.106029 491.670192 
L 320.198491 491.670192 
L 320.198491 491.930129 
L 332.290952 491.930129 
L 332.290952 492.450003 
L 344.383414 492.450003 
L 344.383414 494.009625 
L 356.475875 494.009625 
L 356.475875 494.009625 
L 368.568337 494.009625 
L 368.568337 494.009625 
L 380.660798 494.009625 
L 380.660798 494.009625 
L 392.75326 494.009625 
L 392.75326 494.009625 
L 404.845721 494.009625 
L 404.845721 494.009625 
L 416.938182 494.009625 
L 416.938182 494.009625 
L 429.030644 494.009625 
L 429.030644 494.009625 
L 441.123105 494.009625 
L 441.123105 494.009625 
L 453.215567 494.009625 
L 453.215567 494.009625 
L 465.308028 494.009625 
L 465.308028 492.969877 
L 477.40049 492.969877 
L 477.40049 494.009625 
" clip-path="url(#p43bba1c4ea)" style="fill: #808080; fill-opacity: 0.4; stroke: #000000; stroke-width: 1.1; stroke-linejoin: miter"/>
   </g>
   <g id="matplotlib.axis_5">
    <g id="xtick_15">
     <g id="line2d_41">
      <g>
       <use xlink:href="#m327324f9fe" x="53.4225" y="504.009625" style="stroke: #000000; stroke-width: 1.5"/>
      </g>
     </g>
     <g id="text_41">
      <!-- −6 -->
      <g transform="translate(43.102969 524.147437) scale(0.14 -0.14)">
       <use xlink:href="#DejaVuSans-2212"/>
       <use xlink:href="#DejaVuSans-36" x="83.789062"/>
      </g>
     </g>
    </g>
    <g id="xtick_16">
     <g id="line2d_42">
      <g>
       <use xlink:href="#m327324f9fe" x="112.6475" y="504.009625" style="stroke: #000000; stroke-width: 1.5"/>
      </g>
     </g>
     <g id="text_42">
      <!-- −4 -->
      <g transform="translate(102.327969 524.147437) scale(0.14 -0.14)">
       <use xlink:href="#DejaVuSans-2212"/>
       <use xlink:href="#DejaVuSans-34" x="83.789062"/>
      </g>
     </g>
    </g>
    <g id="xtick_17">
     <g id="line2d_43">
      <g>
       <use xlink:href="#m327324f9fe" x="171.8725" y="504.009625" style="stroke: #000000; stroke-width: 1.5"/>
      </g>
     </g>
     <g id="text_43">
      <!-- −2 -->
      <g transform="translate(161.552969 524.147437) scale(0.14 -0.14)">
       <use xlink:href="#DejaVuSans-2212"/>
       <use xlink:href="#DejaVuSans-32" x="83.789062"/>
      </g>
     </g>
    </g>
    <g id="xtick_18">
     <g id="line2d_44">
      <g>
       <use xlink:href="#m327324f9fe" x="231.0975" y="504.009625" style="stroke: #000000; stroke-width: 1.5"/>
      </g>
     </g>
     <g id="text_44">
      <!-- 0 -->
      <g transform="translate(226.64375 524.147437) scale(0.14 -0.14)">
       <use xlink:href="#DejaVuSans-30"/>
      </g>
     </g>
    </g>
    <g id="xtick_19">
     <g id="line2d_45">
      <g>
       <use xlink:href="#m327324f9fe" x="290.3225" y="504.009625" style="stroke: #000000; stroke-width: 1.5"/>
      </g>
     </g>
     <g id="text_45">
      <!-- 2 -->
      <g transform="translate(285.86875 524.147437) scale(0.14 -0.14)">
       <use xlink:href="#DejaVuSans-32"/>
      </g>
     </g>
    </g>
    <g id="xtick_20">
     <g id="line2d_46">
      <g>
       <use xlink:href="#m327324f9fe" x="349.5475" y="504.009625" style="stroke: #000000; stroke-width: 1.5"/>
      </g>
     </g>
     <g id="text_46">
      <!-- 4 -->
      <g transform="translate(345.09375 524.147437) scale(0.14 -0.14)">
       <use xlink:href="#DejaVuSans-34"/>
      </g>
     </g>
    </g>
    <g id="xtick_21">
     <g id="line2d_47">
      <g>
       <use xlink:href="#m327324f9fe" x="408.7725" y="504.009625" style="stroke: #000000; stroke-width: 1.5"/>
      </g>
     </g>
     <g id="text_47">
      <!-- 6 -->
      <g transform="translate(404.31875 524.147437) scale(0.14 -0.14)">
       <use xlink:href="#DejaVuSans-36"/>
      </g>
     </g>
    </g>
    <g id="text_48">
     <!-- Fitness effect $(\Delta)$ -->
     <g transform="translate(162.9375 543.2165) scale(0.16 -0.16)">
      <use xlink:href="#DejaVuSans-46" transform="translate(0 0.015625)"/>
      <use xlink:href="#DejaVuSans-69" transform="translate(57.519531 0.015625)"/>
      <use xlink:href="#DejaVuSans-74" transform="translate(85.302734 0.015625)"/>
      <use xlink:href="#DejaVuSans-6e" transform="translate(124.511719 0.015625)"/>
      <use xlink:href="#DejaVuSans-65" transform="translate(187.890625 0.015625)"/>
      <use xlink:href="#DejaVuSans-73" transform="translate(249.414062 0.015625)"/>
      <use xlink:href="#DejaVuSans-73" transform="translate(301.513672 0.015625)"/>
      <use xlink:href="#DejaVuSans-20" transform="translate(353.613281 0.015625)"/>
      <use xlink:href="#DejaVuSans-65" transform="translate(385.400391 0.015625)"/>
      <use xlink:href="#DejaVuSans-66" transform="translate(446.923828 0.015625)"/>
      <use xlink:href="#DejaVuSans-66" transform="translate(482.128906 0.015625)"/>
      <use xlink:href="#DejaVuSans-65" transform="translate(517.333984 0.015625)"/>
      <use xlink:href="#DejaVuSans-63" transform="translate(578.857422 0.015625)"/>
      <use xlink:href="#DejaVuSans-74" transform="translate(633.837891 0.015625)"/>
      <use xlink:href="#DejaVuSans-20" transform="translate(673.046875 0.015625)"/>
      <use xlink:href="#DejaVuSans-28" transform="translate(704.833984 0.015625)"/>
      <use xlink:href="#DejaVuSans-394" transform="translate(743.847656 0.015625)"/>
      <use xlink:href="#DejaVuSans-29" transform="translate(812.255859 0.015625)"/>
     </g>
    </g>
    <g id="text_49">
     <!-- 1e−2 -->
     <g transform="translate(370.611562 540.696812) scale(0.14 -0.14)">
      <use xlink:href="#DejaVuSans-31"/>
      <use xlink:href="#DejaVuSans-65" x="63.623047"/>
      <use xlink:href="#DejaVuSans-2212" x="125.146484"/>
      <use xlink:href="#DejaVuSans-32" x="208.935547"/>
     </g>
    </g>
   </g>
   <g id="matplotlib.axis_6">
    <g id="ytick_13">
     <g id="line2d_48">
      <g>
       <use xlink:href="#m9e23d7c8f2" x="43.4225" y="494.009625" style="stroke: #000000; stroke-width: 1.5"/>
      </g>
     </g>
     <g id="text_50">
      <!-- 0 -->
      <g transform="translate(25.015 499.328531) scale(0.14 -0.14)">
       <use xlink:href="#DejaVuSans-30"/>
      </g>
     </g>
    </g>
    <g id="ytick_14">
     <g id="line2d_49">
      <g>
       <use xlink:href="#m9e23d7c8f2" x="43.4225" y="441.466868" style="stroke: #000000; stroke-width: 1.5"/>
      </g>
     </g>
     <g id="text_51">
      <!-- 50 -->
      <g transform="translate(16.1075 446.785774) scale(0.14 -0.14)">
       <use xlink:href="#DejaVuSans-35"/>
       <use xlink:href="#DejaVuSans-30" x="63.623047"/>
      </g>
     </g>
    </g>
    <g id="ytick_15">
     <g id="line2d_50">
      <g>
       <use xlink:href="#m9e23d7c8f2" x="43.4225" y="388.92411" style="stroke: #000000; stroke-width: 1.5"/>
      </g>
     </g>
     <g id="text_52">
      <!-- 100 -->
      <g transform="translate(7.2 394.243017) scale(0.14 -0.14)">
       <use xlink:href="#DejaVuSans-31"/>
       <use xlink:href="#DejaVuSans-30" x="63.623047"/>
       <use xlink:href="#DejaVuSans-30" x="127.246094"/>
      </g>
     </g>
    </g>
    <g id="ytick_16">
     <g id="line2d_51">
      <g>
       <use xlink:href="#m9e23d7c8f2" x="43.4225" y="336.381353" style="stroke: #000000; stroke-width: 1.5"/>
      </g>
     </g>
     <g id="text_53">
      <!-- 150 -->
      <g transform="translate(7.2 341.700259) scale(0.14 -0.14)">
       <use xlink:href="#DejaVuSans-31"/>
       <use xlink:href="#DejaVuSans-35" x="63.623047"/>
       <use xlink:href="#DejaVuSans-30" x="127.246094"/>
      </g>
     </g>
    </g>
   </g>
   <g id="line2d_52">
    <path d="M 71.19 475.257766 
L 391.005 475.257766 
" clip-path="url(#p43bba1c4ea)" style="fill: none; stroke-dasharray: 3.7,1.6; stroke-dashoffset: 0; stroke: #808080"/>
   </g>
   <g id="line2d_53">
    <path d="M 53.4225 494.797766 
L 71.19 475.257766 
" clip-path="url(#p43bba1c4ea)" style="fill: none; stroke-dasharray: 3.7,1.6; stroke-dashoffset: 0; stroke: #808080"/>
   </g>
   <g id="line2d_54">
    <path d="M 408.7725 494.797766 
L 391.005 475.257766 
" clip-path="url(#p43bba1c4ea)" style="fill: none; stroke-dasharray: 3.7,1.6; stroke-dashoffset: 0; stroke: #808080"/>
   </g>
   <g id="line2d_55">
    <path d="M 142.26 494.797766 
L 151.14375 475.257766 
" clip-path="url(#p43bba1c4ea)" style="fill: none; stroke-dasharray: 3.7,1.6; stroke-dashoffset: 0; stroke: #808080"/>
   </g>
   <g id="line2d_56">
    <path d="M 319.935 494.797766 
L 311.05125 475.257766 
" clip-path="url(#p43bba1c4ea)" style="fill: none; stroke-dasharray: 3.7,1.6; stroke-dashoffset: 0; stroke: #808080"/>
   </g>
   <g id="line2d_57">
    <path d="M 231.0975 494.797766 
L 231.0975 475.257766 
" clip-path="url(#p43bba1c4ea)" style="fill: none; stroke-dasharray: 3.7,1.6; stroke-dashoffset: 0; stroke: #808080"/>
   </g>
   <g id="patch_25">
    <path d="M 43.4225 494.009625 
L 43.4225 313.029625 
" style="fill: none; stroke: #000000; stroke-width: 1.5; stroke-linejoin: miter; stroke-linecap: square"/>
   </g>
   <g id="patch_26">
    <path d="M 53.4225 504.009625 
L 408.7725 504.009625 
" style="fill: none; stroke: #000000; stroke-width: 1.5; stroke-linejoin: miter; stroke-linecap: square"/>
   </g>
   <g id="text_54">
    <!-- C -->
    <g transform="translate(17.8875 300.237187) scale(0.18 -0.18)">
     <defs>
      <path id="DejaVuSans-Bold-43" d="M 4288 256 
Q 3956 84 3597 -3 
Q 3238 -91 2847 -91 
Q 1681 -91 1000 561 
Q 319 1213 319 2328 
Q 319 3447 1000 4098 
Q 1681 4750 2847 4750 
Q 3238 4750 3597 4662 
Q 3956 4575 4288 4403 
L 4288 3438 
Q 3953 3666 3628 3772 
Q 3303 3878 2944 3878 
Q 2300 3878 1931 3465 
Q 1563 3053 1563 2328 
Q 1563 1606 1931 1193 
Q 2300 781 2944 781 
Q 3303 781 3628 887 
Q 3953 994 4288 1222 
L 4288 256 
z
" transform="scale(0.015625)"/>
     </defs>
     <use xlink:href="#DejaVuSans-Bold-43"/>
    </g>
   </g>
   <g id="text_55">
    <!-- $p_{KS} = 0.013$ -->
    <g transform="translate(71.19 331.172375) scale(0.12 -0.12)">
     <defs>
      <path id="DejaVuSans-33" d="M 2597 2516 
Q 3050 2419 3304 2112 
Q 3559 1806 3559 1356 
Q 3559 666 3084 287 
Q 2609 -91 1734 -91 
Q 1441 -91 1130 -33 
Q 819 25 488 141 
L 488 750 
Q 750 597 1062 519 
Q 1375 441 1716 441 
Q 2309 441 2620 675 
Q 2931 909 2931 1356 
Q 2931 1769 2642 2001 
Q 2353 2234 1838 2234 
L 1294 2234 
L 1294 2753 
L 1863 2753 
Q 2328 2753 2575 2939 
Q 2822 3125 2822 3475 
Q 2822 3834 2567 4026 
Q 2313 4219 1838 4219 
Q 1578 4219 1281 4162 
Q 984 4106 628 3988 
L 628 4550 
Q 988 4650 1302 4700 
Q 1616 4750 1894 4750 
Q 2613 4750 3031 4423 
Q 3450 4097 3450 3541 
Q 3450 3153 3228 2886 
Q 3006 2619 2597 2516 
z
" transform="scale(0.015625)"/>
     </defs>
     <use xlink:href="#DejaVuSans-Oblique-70" transform="translate(0 0.78125)"/>
     <use xlink:href="#DejaVuSans-Oblique-4b" transform="translate(63.476562 -15.625) scale(0.7)"/>
     <use xlink:href="#DejaVuSans-Oblique-53" transform="translate(109.379883 -15.625) scale(0.7)"/>
     <use xlink:href="#DejaVuSans-3d" transform="translate(176.030273 0.78125)"/>
     <use xlink:href="#DejaVuSans-30" transform="translate(279.301758 0.78125)"/>
     <use xlink:href="#DejaVuSans-2e" transform="translate(342.924805 0.78125)"/>
     <use xlink:href="#DejaVuSans-30" transform="translate(374.711914 0.78125)"/>
     <use xlink:href="#DejaVuSans-31" transform="translate(438.334961 0.78125)"/>
     <use xlink:href="#DejaVuSans-33" transform="translate(501.958008 0.78125)"/>
    </g>
   </g>
   <g id="legend_3">
    <g id="patch_27">
     <path d="M 311.345625 332.94775 
L 335.345625 332.94775 
L 335.345625 324.54775 
L 311.345625 324.54775 
z
" style="fill: #802f95; fill-opacity: 0.75; stroke: #000000; stroke-width: 1.1; stroke-linejoin: miter"/>
    </g>
    <g id="text_56">
     <!-- Evolved -->
     <g transform="translate(344.945625 332.94775) scale(0.12 -0.12)">
      <use xlink:href="#DejaVuSans-45"/>
      <use xlink:href="#DejaVuSans-76" x="63.183594"/>
      <use xlink:href="#DejaVuSans-6f" x="122.363281"/>
      <use xlink:href="#DejaVuSans-6c" x="183.544922"/>
      <use xlink:href="#DejaVuSans-76" x="211.328125"/>
      <use xlink:href="#DejaVuSans-65" x="270.507812"/>
      <use xlink:href="#DejaVuSans-64" x="332.03125"/>
     </g>
    </g>
    <g id="line2d_58">
     <path d="M 311.345625 346.3615 
L 335.345625 346.3615 
" style="fill: none; stroke: #ff4126; stroke-width: 1.1; stroke-linecap: square"/>
    </g>
    <g id="text_57">
     <!-- DFE Evo -->
     <g transform="translate(344.945625 350.5615) scale(0.12 -0.12)">
      <use xlink:href="#DejaVuSans-44"/>
      <use xlink:href="#DejaVuSans-46" x="77.001953"/>
      <use xlink:href="#DejaVuSans-45" x="134.521484"/>
      <use xlink:href="#DejaVuSans-20" x="197.705078"/>
      <use xlink:href="#DejaVuSans-45" x="229.492188"/>
      <use xlink:href="#DejaVuSans-76" x="292.675781"/>
      <use xlink:href="#DejaVuSans-6f" x="351.855469"/>
     </g>
    </g>
    <g id="patch_28">
     <path d="M 311.345625 368.17525 
L 335.345625 368.17525 
L 335.345625 359.77525 
L 311.345625 359.77525 
z
" style="fill: #808080; fill-opacity: 0.4; stroke: #000000; stroke-width: 1.1; stroke-linejoin: miter"/>
    </g>
    <g id="text_58">
     <!-- Ancestor -->
     <g transform="translate(344.945625 368.17525) scale(0.12 -0.12)">
      <use xlink:href="#DejaVuSans-41"/>
      <use xlink:href="#DejaVuSans-6e" x="68.408203"/>
      <use xlink:href="#DejaVuSans-63" x="131.787109"/>
      <use xlink:href="#DejaVuSans-65" x="186.767578"/>
      <use xlink:href="#DejaVuSans-73" x="248.291016"/>
      <use xlink:href="#DejaVuSans-74" x="300.390625"/>
      <use xlink:href="#DejaVuSans-6f" x="339.599609"/>
      <use xlink:href="#DejaVuSans-72" x="400.78125"/>
     </g>
    </g>
   </g>
  </g>
  <g id="axes_4">
   <g id="patch_29">
    <path d="M 476.7375 494.009625 
L 832.0875 494.009625 
L 832.0875 313.029625 
L 476.7375 313.029625 
z
" style="fill: #ffffff"/>
   </g>
   <g id="patch_30">
    <path d="M 658.855939 494.009625 
L 658.855939 335.642903 
L 666.711346 335.642903 
L 666.711346 422.487169 
L 674.566752 422.487169 
L 674.566752 448.427664 
L 682.422158 448.427664 
L 682.422158 462.525759 
L 690.277565 462.525759 
L 690.277565 474.932083 
L 698.132971 474.932083 
L 698.132971 478.315626 
L 705.988377 478.315626 
L 705.988377 475.496006 
L 713.843783 475.496006 
L 713.843783 477.187778 
L 721.69919 477.187778 
L 721.69919 476.623854 
L 729.554596 476.623854 
L 729.554596 478.315626 
L 737.410002 478.315626 
L 737.410002 478.315626 
L 745.265409 478.315626 
L 745.265409 477.187778 
L 753.120815 477.187778 
L 753.120815 478.315626 
L 760.976221 478.315626 
L 760.976221 478.315626 
L 768.831627 478.315626 
L 768.831627 478.315626 
L 776.687034 478.315626 
L 776.687034 478.315626 
L 784.54244 478.315626 
L 784.54244 478.315626 
L 792.397846 478.315626 
L 792.397846 478.315626 
L 800.253253 478.315626 
L 800.253253 478.315626 
L 808.108659 478.315626 
L 808.108659 477.187778 
L 815.964065 477.187778 
L 815.964065 494.009625 
" clip-path="url(#p0f3e1de894)" style="fill: #802f95; fill-opacity: 0.75; stroke: #000000; stroke-width: 1.1; stroke-linejoin: miter"/>
   </g>
   <g id="patch_31">
    <path d="M 476.7375 494.009625 
L 832.0875 494.009625 
L 832.0875 478.315626 
L 476.7375 478.315626 
z
" clip-path="url(#p0f3e1de894)" style="fill: #ffffff"/>
   </g>
   <g id="patch_32">
    <path d="M 581.367069 494.009625 
L 581.367069 489.996953 
L 587.088995 489.996953 
L 587.088995 492.404556 
L 592.81092 492.404556 
L 592.81092 493.207091 
L 598.532846 493.207091 
L 598.532846 488.391884 
L 604.254772 488.391884 
L 604.254772 481.971609 
L 609.976697 481.971609 
L 609.976697 481.971609 
L 615.698623 481.971609 
L 615.698623 483.576678 
L 621.420548 483.576678 
L 621.420548 477.958938 
L 627.142474 477.958938 
L 627.142474 470.736128 
L 632.864399 470.736128 
L 632.864399 465.118388 
L 638.586325 465.118388 
L 638.586325 457.093044 
L 644.308251 457.093044 
L 644.308251 454.685441 
L 650.030176 454.685441 
L 650.030176 458.698113 
L 655.752102 458.698113 
L 655.752102 462.710785 
L 661.474027 462.710785 
L 661.474027 469.131059 
L 667.195953 469.131059 
L 667.195953 476.353869 
L 672.917878 476.353869 
L 672.917878 480.366541 
L 678.639804 480.366541 
L 678.639804 481.169075 
L 684.36173 481.169075 
L 684.36173 490.799488 
L 690.083655 490.799488 
L 690.083655 490.799488 
L 695.805581 490.799488 
L 695.805581 490.799488 
L 701.527506 490.799488 
L 701.527506 489.194419 
L 707.249432 489.194419 
L 707.249432 492.404556 
L 712.971357 492.404556 
L 712.971357 490.799488 
L 718.693283 490.799488 
L 718.693283 494.009625 
L 724.415208 494.009625 
L 724.415208 492.404556 
L 730.137134 492.404556 
L 730.137134 494.009625 
L 735.85906 494.009625 
L 735.85906 492.404556 
L 741.580985 492.404556 
L 741.580985 494.009625 
L 747.302911 494.009625 
L 747.302911 492.404556 
L 753.024836 492.404556 
L 753.024836 494.009625 
" clip-path="url(#p0f3e1de894)" style="fill: #808080; fill-opacity: 0.4; stroke: #000000; stroke-width: 1.1; stroke-linejoin: miter"/>
   </g>
   <g id="patch_33">
    <path d="M 519.847991 494.009625 
L 519.847991 493.402497 
L 527.217603 493.402497 
L 527.217603 493.807249 
L 534.587215 493.807249 
L 534.587215 493.200121 
L 541.956827 493.200121 
L 541.956827 494.009625 
L 549.326439 494.009625 
L 549.326439 493.604873 
L 556.69605 493.604873 
L 556.69605 492.491805 
L 564.065662 492.491805 
L 564.065662 493.402497 
L 571.435274 493.402497 
L 571.435274 491.884677 
L 578.804886 491.884677 
L 578.804886 491.581113 
L 586.174498 491.581113 
L 586.174498 491.479925 
L 593.54411 491.479925 
L 593.54411 490.872797 
L 600.913722 490.872797 
L 600.913722 489.658541 
L 608.283334 489.658541 
L 608.283334 484.497954 
L 615.652945 484.497954 
L 615.652945 481.563502 
L 623.022557 481.563502 
L 623.022557 476.605291 
L 630.392169 476.605291 
L 630.392169 462.944912 
L 637.761781 462.944912 
L 637.761781 444.629886 
L 645.131393 444.629886 
L 645.131393 442.302562 
L 652.501005 442.302562 
L 652.501005 462.438972 
L 659.870617 462.438972 
L 659.870617 475.492223 
L 667.240229 475.492223 
L 667.240229 481.057562 
L 674.609841 481.057562 
L 674.609841 486.622902 
L 681.979452 486.622902 
L 681.979452 489.860917 
L 689.349064 489.860917 
L 689.349064 491.378737 
L 696.718676 491.378737 
L 696.718676 492.491805 
L 704.088288 492.491805 
L 704.088288 492.491805 
L 711.4579 492.491805 
L 711.4579 493.402497 
L 718.827512 493.402497 
L 718.827512 493.807249 
L 726.197124 493.807249 
L 726.197124 493.503685 
L 733.566736 493.503685 
L 733.566736 493.503685 
L 740.936347 493.503685 
L 740.936347 494.009625 
" clip-path="url(#p0f3e1de894)" style="fill: none; stroke: #ff4126; stroke-width: 1.1; stroke-linejoin: miter"/>
   </g>
   <g id="matplotlib.axis_7">
    <g id="xtick_22">
     <g id="line2d_59">
      <g>
       <use xlink:href="#m327324f9fe" x="476.7375" y="504.009625" style="stroke: #000000; stroke-width: 1.5"/>
      </g>
     </g>
     <g id="text_59">
      <!-- −6 -->
      <g transform="translate(466.417969 524.147437) scale(0.14 -0.14)">
       <use xlink:href="#DejaVuSans-2212"/>
       <use xlink:href="#DejaVuSans-36" x="83.789062"/>
      </g>
     </g>
    </g>
    <g id="xtick_23">
     <g id="line2d_60">
      <g>
       <use xlink:href="#m327324f9fe" x="535.9625" y="504.009625" style="stroke: #000000; stroke-width: 1.5"/>
      </g>
     </g>
     <g id="text_60">
      <!-- −4 -->
      <g transform="translate(525.642969 524.147437) scale(0.14 -0.14)">
       <use xlink:href="#DejaVuSans-2212"/>
       <use xlink:href="#DejaVuSans-34" x="83.789062"/>
      </g>
     </g>
    </g>
    <g id="xtick_24">
     <g id="line2d_61">
      <g>
       <use xlink:href="#m327324f9fe" x="595.1875" y="504.009625" style="stroke: #000000; stroke-width: 1.5"/>
      </g>
     </g>
     <g id="text_61">
      <!-- −2 -->
      <g transform="translate(584.867969 524.147437) scale(0.14 -0.14)">
       <use xlink:href="#DejaVuSans-2212"/>
       <use xlink:href="#DejaVuSans-32" x="83.789062"/>
      </g>
     </g>
    </g>
    <g id="xtick_25">
     <g id="line2d_62">
      <g>
       <use xlink:href="#m327324f9fe" x="654.4125" y="504.009625" style="stroke: #000000; stroke-width: 1.5"/>
      </g>
     </g>
     <g id="text_62">
      <!-- 0 -->
      <g transform="translate(649.95875 524.147437) scale(0.14 -0.14)">
       <use xlink:href="#DejaVuSans-30"/>
      </g>
     </g>
    </g>
    <g id="xtick_26">
     <g id="line2d_63">
      <g>
       <use xlink:href="#m327324f9fe" x="713.6375" y="504.009625" style="stroke: #000000; stroke-width: 1.5"/>
      </g>
     </g>
     <g id="text_63">
      <!-- 2 -->
      <g transform="translate(709.18375 524.147437) scale(0.14 -0.14)">
       <use xlink:href="#DejaVuSans-32"/>
      </g>
     </g>
    </g>
    <g id="xtick_27">
     <g id="line2d_64">
      <g>
       <use xlink:href="#m327324f9fe" x="772.8625" y="504.009625" style="stroke: #000000; stroke-width: 1.5"/>
      </g>
     </g>
     <g id="text_64">
      <!-- 4 -->
      <g transform="translate(768.40875 524.147437) scale(0.14 -0.14)">
       <use xlink:href="#DejaVuSans-34"/>
      </g>
     </g>
    </g>
    <g id="xtick_28">
     <g id="line2d_65">
      <g>
       <use xlink:href="#m327324f9fe" x="832.0875" y="504.009625" style="stroke: #000000; stroke-width: 1.5"/>
      </g>
     </g>
     <g id="text_65">
      <!-- 6 -->
      <g transform="translate(827.63375 524.147437) scale(0.14 -0.14)">
       <use xlink:href="#DejaVuSans-36"/>
      </g>
     </g>
    </g>
    <g id="text_66">
     <!-- Fitness effect $(\Delta)$ -->
     <g transform="translate(586.2525 543.2165) scale(0.16 -0.16)">
      <use xlink:href="#DejaVuSans-46" transform="translate(0 0.015625)"/>
      <use xlink:href="#DejaVuSans-69" transform="translate(57.519531 0.015625)"/>
      <use xlink:href="#DejaVuSans-74" transform="translate(85.302734 0.015625)"/>
      <use xlink:href="#DejaVuSans-6e" transform="translate(124.511719 0.015625)"/>
      <use xlink:href="#DejaVuSans-65" transform="translate(187.890625 0.015625)"/>
      <use xlink:href="#DejaVuSans-73" transform="translate(249.414062 0.015625)"/>
      <use xlink:href="#DejaVuSans-73" transform="translate(301.513672 0.015625)"/>
      <use xlink:href="#DejaVuSans-20" transform="translate(353.613281 0.015625)"/>
      <use xlink:href="#DejaVuSans-65" transform="translate(385.400391 0.015625)"/>
      <use xlink:href="#DejaVuSans-66" transform="translate(446.923828 0.015625)"/>
      <use xlink:href="#DejaVuSans-66" transform="translate(482.128906 0.015625)"/>
      <use xlink:href="#DejaVuSans-65" transform="translate(517.333984 0.015625)"/>
      <use xlink:href="#DejaVuSans-63" transform="translate(578.857422 0.015625)"/>
      <use xlink:href="#DejaVuSans-74" transform="translate(633.837891 0.015625)"/>
      <use xlink:href="#DejaVuSans-20" transform="translate(673.046875 0.015625)"/>
      <use xlink:href="#DejaVuSans-28" transform="translate(704.833984 0.015625)"/>
      <use xlink:href="#DejaVuSans-394" transform="translate(743.847656 0.015625)"/>
      <use xlink:href="#DejaVuSans-29" transform="translate(812.255859 0.015625)"/>
     </g>
    </g>
    <g id="text_67">
     <!-- 1e−2 -->
     <g transform="translate(793.926562 540.696812) scale(0.14 -0.14)">
      <use xlink:href="#DejaVuSans-31"/>
      <use xlink:href="#DejaVuSans-65" x="63.623047"/>
      <use xlink:href="#DejaVuSans-2212" x="125.146484"/>
      <use xlink:href="#DejaVuSans-32" x="208.935547"/>
     </g>
    </g>
   </g>
   <g id="matplotlib.axis_8">
    <g id="ytick_17">
     <g id="line2d_66">
      <g>
       <use xlink:href="#m9e23d7c8f2" x="466.7375" y="494.009625" style="stroke: #000000; stroke-width: 1.5"/>
      </g>
     </g>
     <g id="text_68">
      <!-- 0 -->
      <g transform="translate(448.33 499.328531) scale(0.14 -0.14)">
       <use xlink:href="#DejaVuSans-30"/>
      </g>
     </g>
    </g>
    <g id="ytick_18">
     <g id="line2d_67">
      <g>
       <use xlink:href="#m9e23d7c8f2" x="466.7375" y="460.126597" style="stroke: #000000; stroke-width: 1.5"/>
      </g>
     </g>
     <g id="text_69">
      <!-- 50 -->
      <g transform="translate(439.4225 465.445503) scale(0.14 -0.14)">
       <use xlink:href="#DejaVuSans-35"/>
       <use xlink:href="#DejaVuSans-30" x="63.623047"/>
      </g>
     </g>
    </g>
    <g id="ytick_19">
     <g id="line2d_68">
      <g>
       <use xlink:href="#m9e23d7c8f2" x="466.7375" y="426.243569" style="stroke: #000000; stroke-width: 1.5"/>
      </g>
     </g>
     <g id="text_70">
      <!-- 100 -->
      <g transform="translate(430.515 431.562475) scale(0.14 -0.14)">
       <use xlink:href="#DejaVuSans-31"/>
       <use xlink:href="#DejaVuSans-30" x="63.623047"/>
       <use xlink:href="#DejaVuSans-30" x="127.246094"/>
      </g>
     </g>
    </g>
    <g id="ytick_20">
     <g id="line2d_69">
      <g>
       <use xlink:href="#m9e23d7c8f2" x="466.7375" y="392.360541" style="stroke: #000000; stroke-width: 1.5"/>
      </g>
     </g>
     <g id="text_71">
      <!-- 150 -->
      <g transform="translate(430.515 397.679448) scale(0.14 -0.14)">
       <use xlink:href="#DejaVuSans-31"/>
       <use xlink:href="#DejaVuSans-35" x="63.623047"/>
       <use xlink:href="#DejaVuSans-30" x="127.246094"/>
      </g>
     </g>
    </g>
    <g id="ytick_21">
     <g id="line2d_70">
      <g>
       <use xlink:href="#m9e23d7c8f2" x="466.7375" y="358.477513" style="stroke: #000000; stroke-width: 1.5"/>
      </g>
     </g>
     <g id="text_72">
      <!-- 200 -->
      <g transform="translate(430.515 363.79642) scale(0.14 -0.14)">
       <use xlink:href="#DejaVuSans-32"/>
       <use xlink:href="#DejaVuSans-30" x="63.623047"/>
       <use xlink:href="#DejaVuSans-30" x="127.246094"/>
      </g>
     </g>
    </g>
    <g id="ytick_22">
     <g id="line2d_71">
      <g>
       <use xlink:href="#m9e23d7c8f2" x="466.7375" y="324.594486" style="stroke: #000000; stroke-width: 1.5"/>
      </g>
     </g>
     <g id="text_73">
      <!-- 250 -->
      <g transform="translate(430.515 329.913392) scale(0.14 -0.14)">
       <use xlink:href="#DejaVuSans-32"/>
       <use xlink:href="#DejaVuSans-35" x="63.623047"/>
       <use xlink:href="#DejaVuSans-30" x="127.246094"/>
      </g>
     </g>
    </g>
   </g>
   <g id="line2d_72">
    <path d="M 494.505 474.847252 
L 814.32 474.847252 
" clip-path="url(#p0f3e1de894)" style="fill: none; stroke-dasharray: 3.7,1.6; stroke-dashoffset: 0; stroke: #808080"/>
   </g>
   <g id="line2d_73">
    <path d="M 476.7375 494.51787 
L 494.505 474.847252 
" clip-path="url(#p0f3e1de894)" style="fill: none; stroke-dasharray: 3.7,1.6; stroke-dashoffset: 0; stroke: #808080"/>
   </g>
   <g id="line2d_74">
    <path d="M 832.0875 494.51787 
L 814.32 474.847252 
" clip-path="url(#p0f3e1de894)" style="fill: none; stroke-dasharray: 3.7,1.6; stroke-dashoffset: 0; stroke: #808080"/>
   </g>
   <g id="line2d_75">
    <path d="M 565.575 494.51787 
L 574.45875 474.847252 
" clip-path="url(#p0f3e1de894)" style="fill: none; stroke-dasharray: 3.7,1.6; stroke-dashoffset: 0; stroke: #808080"/>
   </g>
   <g id="line2d_76">
    <path d="M 743.25 494.51787 
L 734.36625 474.847252 
" clip-path="url(#p0f3e1de894)" style="fill: none; stroke-dasharray: 3.7,1.6; stroke-dashoffset: 0; stroke: #808080"/>
   </g>
   <g id="line2d_77">
    <path d="M 654.4125 494.51787 
L 654.4125 474.847252 
" clip-path="url(#p0f3e1de894)" style="fill: none; stroke-dasharray: 3.7,1.6; stroke-dashoffset: 0; stroke: #808080"/>
   </g>
   <g id="patch_34">
    <path d="M 466.7375 494.009625 
L 466.7375 313.029625 
" style="fill: none; stroke: #000000; stroke-width: 1.5; stroke-linejoin: miter; stroke-linecap: square"/>
   </g>
   <g id="patch_35">
    <path d="M 476.7375 504.009625 
L 832.0875 504.009625 
" style="fill: none; stroke: #000000; stroke-width: 1.5; stroke-linejoin: miter; stroke-linecap: square"/>
   </g>
   <g id="text_74">
    <!-- D -->
    <g transform="translate(441.2025 300.237187) scale(0.18 -0.18)">
     <defs>
      <path id="DejaVuSans-Bold-44" d="M 1791 3756 
L 1791 909 
L 2222 909 
Q 2959 909 3348 1275 
Q 3738 1641 3738 2338 
Q 3738 3031 3350 3393 
Q 2963 3756 2222 3756 
L 1791 3756 
z
M 588 4666 
L 1856 4666 
Q 2919 4666 3439 4514 
Q 3959 4363 4331 4000 
Q 4659 3684 4818 3271 
Q 4978 2859 4978 2338 
Q 4978 1809 4818 1395 
Q 4659 981 4331 666 
Q 3956 303 3431 151 
Q 2906 0 1856 0 
L 588 0 
L 588 4666 
z
" transform="scale(0.015625)"/>
     </defs>
     <use xlink:href="#DejaVuSans-Bold-44"/>
    </g>
   </g>
   <g id="text_75">
    <!-- $p_{KS} = 5.8e-07$ -->
    <g transform="translate(494.505 331.172375) scale(0.12 -0.12)">
     <defs>
      <path id="DejaVuSans-38" d="M 2034 2216 
Q 1584 2216 1326 1975 
Q 1069 1734 1069 1313 
Q 1069 891 1326 650 
Q 1584 409 2034 409 
Q 2484 409 2743 651 
Q 3003 894 3003 1313 
Q 3003 1734 2745 1975 
Q 2488 2216 2034 2216 
z
M 1403 2484 
Q 997 2584 770 2862 
Q 544 3141 544 3541 
Q 544 4100 942 4425 
Q 1341 4750 2034 4750 
Q 2731 4750 3128 4425 
Q 3525 4100 3525 3541 
Q 3525 3141 3298 2862 
Q 3072 2584 2669 2484 
Q 3125 2378 3379 2068 
Q 3634 1759 3634 1313 
Q 3634 634 3220 271 
Q 2806 -91 2034 -91 
Q 1263 -91 848 271 
Q 434 634 434 1313 
Q 434 1759 690 2068 
Q 947 2378 1403 2484 
z
M 1172 3481 
Q 1172 3119 1398 2916 
Q 1625 2713 2034 2713 
Q 2441 2713 2670 2916 
Q 2900 3119 2900 3481 
Q 2900 3844 2670 4047 
Q 2441 4250 2034 4250 
Q 1625 4250 1398 4047 
Q 1172 3844 1172 3481 
z
" transform="scale(0.015625)"/>
      <path id="DejaVuSans-Oblique-65" d="M 3078 2063 
Q 3088 2113 3092 2166 
Q 3097 2219 3097 2272 
Q 3097 2653 2873 2875 
Q 2650 3097 2266 3097 
Q 1838 3097 1509 2826 
Q 1181 2556 1013 2059 
L 3078 2063 
z
M 3578 1613 
L 903 1613 
Q 884 1494 878 1425 
Q 872 1356 872 1306 
Q 872 872 1139 634 
Q 1406 397 1894 397 
Q 2269 397 2603 481 
Q 2938 566 3225 728 
L 3116 159 
Q 2806 34 2476 -28 
Q 2147 -91 1806 -91 
Q 1078 -91 686 257 
Q 294 606 294 1247 
Q 294 1794 489 2264 
Q 684 2734 1063 3103 
Q 1306 3334 1642 3459 
Q 1978 3584 2356 3584 
Q 2950 3584 3301 3228 
Q 3653 2872 3653 2272 
Q 3653 2128 3634 1964 
Q 3616 1800 3578 1613 
z
" transform="scale(0.015625)"/>
      <path id="DejaVuSans-37" d="M 525 4666 
L 3525 4666 
L 3525 4397 
L 1831 0 
L 1172 0 
L 2766 4134 
L 525 4134 
L 525 4666 
z
" transform="scale(0.015625)"/>
     </defs>
     <use xlink:href="#DejaVuSans-Oblique-70" transform="translate(0 0.78125)"/>
     <use xlink:href="#DejaVuSans-Oblique-4b" transform="translate(63.476562 -15.625) scale(0.7)"/>
     <use xlink:href="#DejaVuSans-Oblique-53" transform="translate(109.379883 -15.625) scale(0.7)"/>
     <use xlink:href="#DejaVuSans-3d" transform="translate(176.030273 0.78125)"/>
     <use xlink:href="#DejaVuSans-35" transform="translate(279.301758 0.78125)"/>
     <use xlink:href="#DejaVuSans-2e" transform="translate(342.924805 0.78125)"/>
     <use xlink:href="#DejaVuSans-38" transform="translate(372.086914 0.78125)"/>
     <use xlink:href="#DejaVuSans-Oblique-65" transform="translate(435.709961 0.78125)"/>
     <use xlink:href="#DejaVuSans-2212" transform="translate(516.71582 0.78125)"/>
     <use xlink:href="#DejaVuSans-30" transform="translate(619.987305 0.78125)"/>
     <use xlink:href="#DejaVuSans-37" transform="translate(683.610352 0.78125)"/>
    </g>
   </g>
   <g id="legend_4">
    <g id="patch_36">
     <path d="M 734.660625 332.94775 
L 758.660625 332.94775 
L 758.660625 324.54775 
L 734.660625 324.54775 
z
" style="fill: #802f95; fill-opacity: 0.75; stroke: #000000; stroke-width: 1.1; stroke-linejoin: miter"/>
    </g>
    <g id="text_76">
     <!-- Evolved -->
     <g transform="translate(768.260625 332.94775) scale(0.12 -0.12)">
      <use xlink:href="#DejaVuSans-45"/>
      <use xlink:href="#DejaVuSans-76" x="63.183594"/>
      <use xlink:href="#DejaVuSans-6f" x="122.363281"/>
      <use xlink:href="#DejaVuSans-6c" x="183.544922"/>
      <use xlink:href="#DejaVuSans-76" x="211.328125"/>
      <use xlink:href="#DejaVuSans-65" x="270.507812"/>
      <use xlink:href="#DejaVuSans-64" x="332.03125"/>
     </g>
    </g>
    <g id="patch_37">
     <path d="M 734.660625 350.5615 
L 758.660625 350.5615 
L 758.660625 342.1615 
L 734.660625 342.1615 
z
" style="fill: #808080; fill-opacity: 0.4; stroke: #000000; stroke-width: 1.1; stroke-linejoin: miter"/>
    </g>
    <g id="text_77">
     <!-- Ancestor -->
     <g transform="translate(768.260625 350.5615) scale(0.12 -0.12)">
      <use xlink:href="#DejaVuSans-41"/>
      <use xlink:href="#DejaVuSans-6e" x="68.408203"/>
      <use xlink:href="#DejaVuSans-63" x="131.787109"/>
      <use xlink:href="#DejaVuSans-65" x="186.767578"/>
      <use xlink:href="#DejaVuSans-73" x="248.291016"/>
      <use xlink:href="#DejaVuSans-74" x="300.390625"/>
      <use xlink:href="#DejaVuSans-6f" x="339.599609"/>
      <use xlink:href="#DejaVuSans-72" x="400.78125"/>
     </g>
    </g>
    <g id="line2d_78">
     <path d="M 734.660625 363.97525 
L 758.660625 363.97525 
" style="fill: none; stroke: #ff4126; stroke-width: 1.1; stroke-linecap: square"/>
    </g>
    <g id="text_78">
     <!-- Anc DFE -->
     <g transform="translate(768.260625 368.17525) scale(0.12 -0.12)">
      <use xlink:href="#DejaVuSans-41"/>
      <use xlink:href="#DejaVuSans-6e" x="68.408203"/>
      <use xlink:href="#DejaVuSans-63" x="131.787109"/>
      <use xlink:href="#DejaVuSans-20" x="186.767578"/>
      <use xlink:href="#DejaVuSans-44" x="218.554688"/>
      <use xlink:href="#DejaVuSans-46" x="295.556641"/>
      <use xlink:href="#DejaVuSans-45" x="353.076172"/>
     </g>
    </g>
   </g>
  </g>
 </g>
 <defs>
  <clipPath id="pd50215c54d">
   <rect x="53.4225" y="33.669625" width="355.35" height="180.98"/>
  </clipPath>
  <clipPath id="p0af21f5319">
   <rect x="476.7375" y="33.669625" width="355.35" height="180.98"/>
  </clipPath>
  <clipPath id="p43bba1c4ea">
   <rect x="53.4225" y="313.029625" width="355.35" height="180.98"/>
  </clipPath>
  <clipPath id="p0f3e1de894">
   <rect x="476.7375" y="313.029625" width="355.35" height="180.98"/>
  </clipPath>
 </defs>
</svg>
