<?xml version="1.0" encoding="utf-8" standalone="no"?>
<!DOCTYPE svg PUBLIC "-//W3C//DTD SVG 1.1//EN"
  "http://www.w3.org/Graphics/SVG/1.1/DTD/svg11.dtd">
<svg xmlns:xlink="http://www.w3.org/1999/xlink" width="843.83125pt" height="553.744pt" viewBox="0 0 843.83125 553.744" xmlns="http://www.w3.org/2000/svg" version="1.1">
 <metadata>
  <rdf:RDF xmlns:dc="http://purl.org/dc/elements/1.1/" xmlns:cc="http://creativecommons.org/ns#" xmlns:rdf="http://www.w3.org/1999/02/22-rdf-syntax-ns#">
   <cc:Work>
    <dc:type rdf:resource="http://purl.org/dc/dcmitype/StillImage"/>
    <dc:date>2025-11-16T16:40:34.592001</dc:date>
    <dc:format>image/svg+xml</dc:format>
    <dc:creator>
     <cc:Agent>
      <dc:title>Matplotlib v3.9.2, https://matplotlib.org/</dc:title>
     </cc:Agent>
    </dc:creator>
   </cc:Work>
  </rdf:RDF>
 </metadata>
 <defs>
  <style type="text/css">*{stroke-linejoin: round; stroke-linecap: butt}</style>
 </defs>
 <g id="figure_1">
  <g id="patch_1">
   <path d="M 0 553.744 
L 843.83125 553.744 
L 843.83125 0 
L 0 0 
z
" style="fill: #ffffff"/>
  </g>
  <g id="axes_1">
   <g id="patch_2">
    <path d="M 53.4225 214.649625 
L 408.9075 214.649625 
L 408.9075 33.669625 
L 53.4225 33.669625 
z
" style="fill: #ffffff"/>
   </g>
   <g id="patch_3">
    <path d="M 164.684981 214.649625 
L 164.684981 193.126638 
L 169.105113 193.126638 
L 169.105113 193.126638 
L 173.525245 193.126638 
L 173.525245 190.414331 
L 177.945377 190.414331 
L 177.945377 187.702024 
L 182.365509 187.702024 
L 182.365509 189.058177 
L 186.785641 189.058177 
L 186.785641 187.702024 
L 191.205773 187.702024 
L 191.205773 193.126638 
L 195.625905 193.126638 
L 195.625905 187.702024 
L 200.046037 187.702024 
L 200.046037 183.633563 
L 204.466169 183.633563 
L 204.466169 171.42818 
L 208.886301 171.42818 
L 208.886301 167.359719 
L 213.306433 167.359719 
L 213.306433 164.647412 
L 217.726565 164.647412 
L 217.726565 153.798183 
L 222.146697 153.798183 
L 222.146697 137.524339 
L 226.566829 137.524339 
L 226.566829 142.948954 
L 230.986961 142.948954 
L 230.986961 166.003566 
L 235.407093 166.003566 
L 235.407093 163.291258 
L 239.827225 163.291258 
L 239.827225 171.42818 
L 244.247357 171.42818 
L 244.247357 180.921256 
L 248.667489 180.921256 
L 248.667489 187.702024 
L 253.087621 187.702024 
L 253.087621 214.649625 
" clip-path="url(#pc9988a7d70)" style="fill: #802f95; fill-opacity: 0.75; stroke: #000000; stroke-width: 1.1; stroke-linejoin: miter"/>
   </g>
   <g id="patch_4">
    <path d="M 154.254006 214.649625 
L 154.254006 196.01735 
L 157.861946 196.01735 
L 157.861946 196.01735 
L 161.469886 196.01735 
L 161.469886 194.839602 
L 165.077826 194.839602 
L 165.077826 194.132952 
L 168.685766 194.132952 
L 168.685766 195.310701 
L 172.293706 195.310701 
L 172.293706 192.955204 
L 175.901646 192.955204 
L 175.901646 189.893057 
L 179.509586 189.893057 
L 179.509586 193.661853 
L 183.117526 193.661853 
L 183.117526 191.777455 
L 186.725466 191.777455 
L 186.725466 188.715308 
L 190.333406 188.715308 
L 190.333406 187.537559 
L 193.941346 187.537559 
L 193.941346 182.826564 
L 197.549286 182.826564 
L 197.549286 184.946512 
L 201.157226 184.946512 
L 201.157226 177.408919 
L 204.765166 177.408919 
L 204.765166 171.520175 
L 208.373106 171.520175 
L 208.373106 173.875673 
L 211.981046 173.875673 
L 211.981046 164.689232 
L 215.588986 164.689232 
L 215.588986 146.5519 
L 219.196926 146.5519 
L 219.196926 135.952161 
L 222.804866 135.952161 
L 222.804866 134.303312 
L 226.412806 134.303312 
L 226.412806 143.960853 
L 230.020746 143.960853 
L 230.020746 153.853943 
L 233.628686 153.853943 
L 233.628686 168.222478 
L 237.236626 168.222478 
L 237.236626 180.235516 
L 240.844566 180.235516 
L 240.844566 184.475412 
L 244.452506 184.475412 
L 244.452506 188.715308 
L 248.060446 188.715308 
L 248.060446 192.013004 
L 251.668385 192.013004 
L 251.668385 192.719654 
L 255.276325 192.719654 
L 255.276325 194.604052 
L 258.884265 194.604052 
L 258.884265 195.781801 
L 262.492205 195.781801 
L 262.492205 214.649625 
" clip-path="url(#pc9988a7d70)" style="fill: none; stroke: #ff4126; stroke-width: 1.1; stroke-linejoin: miter"/>
   </g>
   <g id="patch_5">
    <path d="M 53.4225 214.649625 
L 408.9075 214.649625 
L 408.9075 197.195099 
L 53.4225 197.195099 
z
" clip-path="url(#pc9988a7d70)" style="fill: #ffffff"/>
   </g>
   <g id="patch_6">
    <path d="M 235.618316 214.649625 
L 235.618316 55.972119 
L 238.582593 55.972119 
L 238.582593 122.7837 
L 241.54687 122.7837 
L 241.54687 149.925905 
L 244.511147 149.925905 
L 244.511147 156.189491 
L 247.475424 156.189491 
L 247.475424 124.871562 
L 250.4397 124.871562 
L 250.4397 177.06811 
L 253.403977 177.06811 
L 253.403977 179.155972 
L 256.368254 179.155972 
L 256.368254 179.155972 
L 259.332531 179.155972 
L 259.332531 195.858868 
L 262.296808 195.858868 
L 262.296808 204.210315 
L 265.261085 204.210315 
L 265.261085 197.94673 
L 268.225361 197.94673 
L 268.225361 206.298177 
L 271.189638 206.298177 
L 271.189638 206.298177 
L 274.153915 206.298177 
L 274.153915 212.561763 
L 277.118192 212.561763 
L 277.118192 214.649625 
L 280.082469 214.649625 
L 280.082469 214.649625 
L 283.046746 214.649625 
L 283.046746 214.649625 
L 286.011022 214.649625 
L 286.011022 214.649625 
L 288.975299 214.649625 
L 288.975299 214.649625 
L 291.939576 214.649625 
L 291.939576 208.386039 
L 294.903853 208.386039 
L 294.903853 214.649625 
" clip-path="url(#pc9988a7d70)" style="fill: #808080; fill-opacity: 0.4; stroke: #000000; stroke-width: 1.1; stroke-linejoin: miter"/>
   </g>
   <g id="matplotlib.axis_1">
    <g id="xtick_1">
     <g id="line2d_1">
      <defs>
       <path id="mdb0d6bbe77" d="M 0 0 
L 0 6 
" style="stroke: #000000; stroke-width: 1.5"/>
      </defs>
      <g>
       <use xlink:href="#mdb0d6bbe77" x="53.4225" y="224.649625" style="stroke: #000000; stroke-width: 1.5"/>
      </g>
     </g>
     <g id="text_1">
      <!-- −6 -->
      <g transform="translate(43.102969 244.787437) scale(0.14 -0.14)">
       <defs>
        <path id="DejaVuSans-2212" d="M 678 2272 
L 4684 2272 
L 4684 1741 
L 678 1741 
L 678 2272 
z
" transform="scale(0.015625)"/>
        <path id="DejaVuSans-36" d="M 2113 2584 
Q 1688 2584 1439 2293 
Q 1191 2003 1191 1497 
Q 1191 994 1439 701 
Q 1688 409 2113 409 
Q 2538 409 2786 701 
Q 3034 994 3034 1497 
Q 3034 2003 2786 2293 
Q 2538 2584 2113 2584 
z
M 3366 4563 
L 3366 3988 
Q 3128 4100 2886 4159 
Q 2644 4219 2406 4219 
Q 1781 4219 1451 3797 
Q 1122 3375 1075 2522 
Q 1259 2794 1537 2939 
Q 1816 3084 2150 3084 
Q 2853 3084 3261 2657 
Q 3669 2231 3669 1497 
Q 3669 778 3244 343 
Q 2819 -91 2113 -91 
Q 1303 -91 875 529 
Q 447 1150 447 2328 
Q 447 3434 972 4092 
Q 1497 4750 2381 4750 
Q 2619 4750 2861 4703 
Q 3103 4656 3366 4563 
z
" transform="scale(0.015625)"/>
       </defs>
       <use xlink:href="#DejaVuSans-2212"/>
       <use xlink:href="#DejaVuSans-36" x="83.789062"/>
      </g>
     </g>
    </g>
    <g id="xtick_2">
     <g id="line2d_2">
      <g>
       <use xlink:href="#mdb0d6bbe77" x="112.67" y="224.649625" style="stroke: #000000; stroke-width: 1.5"/>
      </g>
     </g>
     <g id="text_2">
      <!-- −4 -->
      <g transform="translate(102.350469 244.787437) scale(0.14 -0.14)">
       <defs>
        <path id="DejaVuSans-34" d="M 2419 4116 
L 825 1625 
L 2419 1625 
L 2419 4116 
z
M 2253 4666 
L 3047 4666 
L 3047 1625 
L 3713 1625 
L 3713 1100 
L 3047 1100 
L 3047 0 
L 2419 0 
L 2419 1100 
L 313 1100 
L 313 1709 
L 2253 4666 
z
" transform="scale(0.015625)"/>
       </defs>
       <use xlink:href="#DejaVuSans-2212"/>
       <use xlink:href="#DejaVuSans-34" x="83.789062"/>
      </g>
     </g>
    </g>
    <g id="xtick_3">
     <g id="line2d_3">
      <g>
       <use xlink:href="#mdb0d6bbe77" x="171.9175" y="224.649625" style="stroke: #000000; stroke-width: 1.5"/>
      </g>
     </g>
     <g id="text_3">
      <!-- −2 -->
      <g transform="translate(161.597969 244.787437) scale(0.14 -0.14)">
       <defs>
        <path id="DejaVuSans-32" d="M 1228 531 
L 3431 531 
L 3431 0 
L 469 0 
L 469 531 
Q 828 903 1448 1529 
Q 2069 2156 2228 2338 
Q 2531 2678 2651 2914 
Q 2772 3150 2772 3378 
Q 2772 3750 2511 3984 
Q 2250 4219 1831 4219 
Q 1534 4219 1204 4116 
Q 875 4013 500 3803 
L 500 4441 
Q 881 4594 1212 4672 
Q 1544 4750 1819 4750 
Q 2544 4750 2975 4387 
Q 3406 4025 3406 3419 
Q 3406 3131 3298 2873 
Q 3191 2616 2906 2266 
Q 2828 2175 2409 1742 
Q 1991 1309 1228 531 
z
" transform="scale(0.015625)"/>
       </defs>
       <use xlink:href="#DejaVuSans-2212"/>
       <use xlink:href="#DejaVuSans-32" x="83.789062"/>
      </g>
     </g>
    </g>
    <g id="xtick_4">
     <g id="line2d_4">
      <g>
       <use xlink:href="#mdb0d6bbe77" x="231.165" y="224.649625" style="stroke: #000000; stroke-width: 1.5"/>
      </g>
     </g>
     <g id="text_4">
      <!-- 0 -->
      <g transform="translate(226.71125 244.787437) scale(0.14 -0.14)">
       <defs>
        <path id="DejaVuSans-30" d="M 2034 4250 
Q 1547 4250 1301 3770 
Q 1056 3291 1056 2328 
Q 1056 1369 1301 889 
Q 1547 409 2034 409 
Q 2525 409 2770 889 
Q 3016 1369 3016 2328 
Q 3016 3291 2770 3770 
Q 2525 4250 2034 4250 
z
M 2034 4750 
Q 2819 4750 3233 4129 
Q 3647 3509 3647 2328 
Q 3647 1150 3233 529 
Q 2819 -91 2034 -91 
Q 1250 -91 836 529 
Q 422 1150 422 2328 
Q 422 3509 836 4129 
Q 1250 4750 2034 4750 
z
" transform="scale(0.015625)"/>
       </defs>
       <use xlink:href="#DejaVuSans-30"/>
      </g>
     </g>
    </g>
    <g id="xtick_5">
     <g id="line2d_5">
      <g>
       <use xlink:href="#mdb0d6bbe77" x="290.4125" y="224.649625" style="stroke: #000000; stroke-width: 1.5"/>
      </g>
     </g>
     <g id="text_5">
      <!-- 2 -->
      <g transform="translate(285.95875 244.787437) scale(0.14 -0.14)">
       <use xlink:href="#DejaVuSans-32"/>
      </g>
     </g>
    </g>
    <g id="xtick_6">
     <g id="line2d_6">
      <g>
       <use xlink:href="#mdb0d6bbe77" x="349.66" y="224.649625" style="stroke: #000000; stroke-width: 1.5"/>
      </g>
     </g>
     <g id="text_6">
      <!-- 4 -->
      <g transform="translate(345.20625 244.787437) scale(0.14 -0.14)">
       <use xlink:href="#DejaVuSans-34"/>
      </g>
     </g>
    </g>
    <g id="xtick_7">
     <g id="line2d_7">
      <g>
       <use xlink:href="#mdb0d6bbe77" x="408.9075" y="224.649625" style="stroke: #000000; stroke-width: 1.5"/>
      </g>
     </g>
     <g id="text_7">
      <!-- 6 -->
      <g transform="translate(404.45375 244.787437) scale(0.14 -0.14)">
       <use xlink:href="#DejaVuSans-36"/>
      </g>
     </g>
    </g>
    <g id="text_8">
     <!-- Fitness effect $(\Delta)$ -->
     <g transform="translate(163.005 263.8565) scale(0.16 -0.16)">
      <defs>
       <path id="DejaVuSans-46" d="M 628 4666 
L 3309 4666 
L 3309 4134 
L 1259 4134 
L 1259 2759 
L 3109 2759 
L 3109 2228 
L 1259 2228 
L 1259 0 
L 628 0 
L 628 4666 
z
" transform="scale(0.015625)"/>
       <path id="DejaVuSans-69" d="M 603 3500 
L 1178 3500 
L 1178 0 
L 603 0 
L 603 3500 
z
M 603 4863 
L 1178 4863 
L 1178 4134 
L 603 4134 
L 603 4863 
z
" transform="scale(0.015625)"/>
       <path id="DejaVuSans-74" d="M 1172 4494 
L 1172 3500 
L 2356 3500 
L 2356 3053 
L 1172 3053 
L 1172 1153 
Q 1172 725 1289 603 
Q 1406 481 1766 481 
L 2356 481 
L 2356 0 
L 1766 0 
Q 1100 0 847 248 
Q 594 497 594 1153 
L 594 3053 
L 172 3053 
L 172 3500 
L 594 3500 
L 594 4494 
L 1172 4494 
z
" transform="scale(0.015625)"/>
       <path id="DejaVuSans-6e" d="M 3513 2113 
L 3513 0 
L 2938 0 
L 2938 2094 
Q 2938 2591 2744 2837 
Q 2550 3084 2163 3084 
Q 1697 3084 1428 2787 
Q 1159 2491 1159 1978 
L 1159 0 
L 581 0 
L 581 3500 
L 1159 3500 
L 1159 2956 
Q 1366 3272 1645 3428 
Q 1925 3584 2291 3584 
Q 2894 3584 3203 3211 
Q 3513 2838 3513 2113 
z
" transform="scale(0.015625)"/>
       <path id="DejaVuSans-65" d="M 3597 1894 
L 3597 1613 
L 953 1613 
Q 991 1019 1311 708 
Q 1631 397 2203 397 
Q 2534 397 2845 478 
Q 3156 559 3463 722 
L 3463 178 
Q 3153 47 2828 -22 
Q 2503 -91 2169 -91 
Q 1331 -91 842 396 
Q 353 884 353 1716 
Q 353 2575 817 3079 
Q 1281 3584 2069 3584 
Q 2775 3584 3186 3129 
Q 3597 2675 3597 1894 
z
M 3022 2063 
Q 3016 2534 2758 2815 
Q 2500 3097 2075 3097 
Q 1594 3097 1305 2825 
Q 1016 2553 972 2059 
L 3022 2063 
z
" transform="scale(0.015625)"/>
       <path id="DejaVuSans-73" d="M 2834 3397 
L 2834 2853 
Q 2591 2978 2328 3040 
Q 2066 3103 1784 3103 
Q 1356 3103 1142 2972 
Q 928 2841 928 2578 
Q 928 2378 1081 2264 
Q 1234 2150 1697 2047 
L 1894 2003 
Q 2506 1872 2764 1633 
Q 3022 1394 3022 966 
Q 3022 478 2636 193 
Q 2250 -91 1575 -91 
Q 1294 -91 989 -36 
Q 684 19 347 128 
L 347 722 
Q 666 556 975 473 
Q 1284 391 1588 391 
Q 1994 391 2212 530 
Q 2431 669 2431 922 
Q 2431 1156 2273 1281 
Q 2116 1406 1581 1522 
L 1381 1569 
Q 847 1681 609 1914 
Q 372 2147 372 2553 
Q 372 3047 722 3315 
Q 1072 3584 1716 3584 
Q 2034 3584 2315 3537 
Q 2597 3491 2834 3397 
z
" transform="scale(0.015625)"/>
       <path id="DejaVuSans-20" transform="scale(0.015625)"/>
       <path id="DejaVuSans-66" d="M 2375 4863 
L 2375 4384 
L 1825 4384 
Q 1516 4384 1395 4259 
Q 1275 4134 1275 3809 
L 1275 3500 
L 2222 3500 
L 2222 3053 
L 1275 3053 
L 1275 0 
L 697 0 
L 697 3053 
L 147 3053 
L 147 3500 
L 697 3500 
L 697 3744 
Q 697 4328 969 4595 
Q 1241 4863 1831 4863 
L 2375 4863 
z
" transform="scale(0.015625)"/>
       <path id="DejaVuSans-63" d="M 3122 3366 
L 3122 2828 
Q 2878 2963 2633 3030 
Q 2388 3097 2138 3097 
Q 1578 3097 1268 2742 
Q 959 2388 959 1747 
Q 959 1106 1268 751 
Q 1578 397 2138 397 
Q 2388 397 2633 464 
Q 2878 531 3122 666 
L 3122 134 
Q 2881 22 2623 -34 
Q 2366 -91 2075 -91 
Q 1284 -91 818 406 
Q 353 903 353 1747 
Q 353 2603 823 3093 
Q 1294 3584 2113 3584 
Q 2378 3584 2631 3529 
Q 2884 3475 3122 3366 
z
" transform="scale(0.015625)"/>
       <path id="DejaVuSans-28" d="M 1984 4856 
Q 1566 4138 1362 3434 
Q 1159 2731 1159 2009 
Q 1159 1288 1364 580 
Q 1569 -128 1984 -844 
L 1484 -844 
Q 1016 -109 783 600 
Q 550 1309 550 2009 
Q 550 2706 781 3412 
Q 1013 4119 1484 4856 
L 1984 4856 
z
" transform="scale(0.015625)"/>
       <path id="DejaVuSans-394" d="M 2188 4044 
L 906 525 
L 3472 525 
L 2188 4044 
z
M 50 0 
L 1831 4666 
L 2547 4666 
L 4325 0 
L 50 0 
z
" transform="scale(0.015625)"/>
       <path id="DejaVuSans-29" d="M 513 4856 
L 1013 4856 
Q 1481 4119 1714 3412 
Q 1947 2706 1947 2009 
Q 1947 1309 1714 600 
Q 1481 -109 1013 -844 
L 513 -844 
Q 928 -128 1133 580 
Q 1338 1288 1338 2009 
Q 1338 2731 1133 3434 
Q 928 4138 513 4856 
z
" transform="scale(0.015625)"/>
      </defs>
      <use xlink:href="#DejaVuSans-46" transform="translate(0 0.015625)"/>
      <use xlink:href="#DejaVuSans-69" transform="translate(57.519531 0.015625)"/>
      <use xlink:href="#DejaVuSans-74" transform="translate(85.302734 0.015625)"/>
      <use xlink:href="#DejaVuSans-6e" transform="translate(124.511719 0.015625)"/>
      <use xlink:href="#DejaVuSans-65" transform="translate(187.890625 0.015625)"/>
      <use xlink:href="#DejaVuSans-73" transform="translate(249.414062 0.015625)"/>
      <use xlink:href="#DejaVuSans-73" transform="translate(301.513672 0.015625)"/>
      <use xlink:href="#DejaVuSans-20" transform="translate(353.613281 0.015625)"/>
      <use xlink:href="#DejaVuSans-65" transform="translate(385.400391 0.015625)"/>
      <use xlink:href="#DejaVuSans-66" transform="translate(446.923828 0.015625)"/>
      <use xlink:href="#DejaVuSans-66" transform="translate(482.128906 0.015625)"/>
      <use xlink:href="#DejaVuSans-65" transform="translate(517.333984 0.015625)"/>
      <use xlink:href="#DejaVuSans-63" transform="translate(578.857422 0.015625)"/>
      <use xlink:href="#DejaVuSans-74" transform="translate(633.837891 0.015625)"/>
      <use xlink:href="#DejaVuSans-20" transform="translate(673.046875 0.015625)"/>
      <use xlink:href="#DejaVuSans-28" transform="translate(704.833984 0.015625)"/>
      <use xlink:href="#DejaVuSans-394" transform="translate(743.847656 0.015625)"/>
      <use xlink:href="#DejaVuSans-29" transform="translate(812.255859 0.015625)"/>
     </g>
    </g>
    <g id="text_9">
     <!-- 1e−2 -->
     <g transform="translate(370.746562 261.336812) scale(0.14 -0.14)">
      <defs>
       <path id="DejaVuSans-31" d="M 794 531 
L 1825 531 
L 1825 4091 
L 703 3866 
L 703 4441 
L 1819 4666 
L 2450 4666 
L 2450 531 
L 3481 531 
L 3481 0 
L 794 0 
L 794 531 
z
" transform="scale(0.015625)"/>
      </defs>
      <use xlink:href="#DejaVuSans-31"/>
      <use xlink:href="#DejaVuSans-65" x="63.623047"/>
      <use xlink:href="#DejaVuSans-2212" x="125.146484"/>
      <use xlink:href="#DejaVuSans-32" x="208.935547"/>
     </g>
    </g>
   </g>
   <g id="matplotlib.axis_2">
    <g id="ytick_1">
     <g id="line2d_8">
      <defs>
       <path id="m3b4078ee13" d="M 0 0 
L -6 0 
" style="stroke: #000000; stroke-width: 1.5"/>
      </defs>
      <g>
       <use xlink:href="#m3b4078ee13" x="43.4225" y="214.649625" style="stroke: #000000; stroke-width: 1.5"/>
      </g>
     </g>
     <g id="text_10">
      <!-- 0 -->
      <g transform="translate(25.015 219.968531) scale(0.14 -0.14)">
       <use xlink:href="#DejaVuSans-30"/>
      </g>
     </g>
    </g>
    <g id="ytick_2">
     <g id="line2d_9">
      <g>
       <use xlink:href="#m3b4078ee13" x="43.4225" y="182.475909" style="stroke: #000000; stroke-width: 1.5"/>
      </g>
     </g>
     <g id="text_11">
      <!-- 50 -->
      <g transform="translate(16.1075 187.794815) scale(0.14 -0.14)">
       <defs>
        <path id="DejaVuSans-35" d="M 691 4666 
L 3169 4666 
L 3169 4134 
L 1269 4134 
L 1269 2991 
Q 1406 3038 1543 3061 
Q 1681 3084 1819 3084 
Q 2600 3084 3056 2656 
Q 3513 2228 3513 1497 
Q 3513 744 3044 326 
Q 2575 -91 1722 -91 
Q 1428 -91 1123 -41 
Q 819 9 494 109 
L 494 744 
Q 775 591 1075 516 
Q 1375 441 1709 441 
Q 2250 441 2565 725 
Q 2881 1009 2881 1497 
Q 2881 1984 2565 2268 
Q 2250 2553 1709 2553 
Q 1456 2553 1204 2497 
Q 953 2441 691 2322 
L 691 4666 
z
" transform="scale(0.015625)"/>
       </defs>
       <use xlink:href="#DejaVuSans-35"/>
       <use xlink:href="#DejaVuSans-30" x="63.623047"/>
      </g>
     </g>
    </g>
    <g id="ytick_3">
     <g id="line2d_10">
      <g>
       <use xlink:href="#m3b4078ee13" x="43.4225" y="150.302193" style="stroke: #000000; stroke-width: 1.5"/>
      </g>
     </g>
     <g id="text_12">
      <!-- 100 -->
      <g transform="translate(7.2 155.6211) scale(0.14 -0.14)">
       <use xlink:href="#DejaVuSans-31"/>
       <use xlink:href="#DejaVuSans-30" x="63.623047"/>
       <use xlink:href="#DejaVuSans-30" x="127.246094"/>
      </g>
     </g>
    </g>
    <g id="ytick_4">
     <g id="line2d_11">
      <g>
       <use xlink:href="#m3b4078ee13" x="43.4225" y="118.128478" style="stroke: #000000; stroke-width: 1.5"/>
      </g>
     </g>
     <g id="text_13">
      <!-- 150 -->
      <g transform="translate(7.2 123.447384) scale(0.14 -0.14)">
       <use xlink:href="#DejaVuSans-31"/>
       <use xlink:href="#DejaVuSans-35" x="63.623047"/>
       <use xlink:href="#DejaVuSans-30" x="127.246094"/>
      </g>
     </g>
    </g>
    <g id="ytick_5">
     <g id="line2d_12">
      <g>
       <use xlink:href="#m3b4078ee13" x="43.4225" y="85.954762" style="stroke: #000000; stroke-width: 1.5"/>
      </g>
     </g>
     <g id="text_14">
      <!-- 200 -->
      <g transform="translate(7.2 91.273668) scale(0.14 -0.14)">
       <use xlink:href="#DejaVuSans-32"/>
       <use xlink:href="#DejaVuSans-30" x="63.623047"/>
       <use xlink:href="#DejaVuSans-30" x="127.246094"/>
      </g>
     </g>
    </g>
    <g id="ytick_6">
     <g id="line2d_13">
      <g>
       <use xlink:href="#m3b4078ee13" x="43.4225" y="53.781046" style="stroke: #000000; stroke-width: 1.5"/>
      </g>
     </g>
     <g id="text_15">
      <!-- 250 -->
      <g transform="translate(7.2 59.099952) scale(0.14 -0.14)">
       <use xlink:href="#DejaVuSans-32"/>
       <use xlink:href="#DejaVuSans-35" x="63.623047"/>
       <use xlink:href="#DejaVuSans-30" x="127.246094"/>
      </g>
     </g>
    </g>
   </g>
   <g id="line2d_14">
    <path d="M 71.19675 195.449647 
L 391.13325 195.449647 
" clip-path="url(#pc9988a7d70)" style="fill: none; stroke-dasharray: 3.7,1.6; stroke-dashoffset: 0; stroke: #808080"/>
   </g>
   <g id="line2d_15">
    <path d="M 53.4225 215.132231 
L 71.19675 195.449647 
" clip-path="url(#pc9988a7d70)" style="fill: none; stroke-dasharray: 3.7,1.6; stroke-dashoffset: 0; stroke: #808080"/>
   </g>
   <g id="line2d_16">
    <path d="M 408.9075 215.132231 
L 391.13325 195.449647 
" clip-path="url(#pc9988a7d70)" style="fill: none; stroke-dasharray: 3.7,1.6; stroke-dashoffset: 0; stroke: #808080"/>
   </g>
   <g id="line2d_17">
    <path d="M 142.29375 215.132231 
L 151.180875 195.449647 
" clip-path="url(#pc9988a7d70)" style="fill: none; stroke-dasharray: 3.7,1.6; stroke-dashoffset: 0; stroke: #808080"/>
   </g>
   <g id="line2d_18">
    <path d="M 320.03625 215.132231 
L 311.149125 195.449647 
" clip-path="url(#pc9988a7d70)" style="fill: none; stroke-dasharray: 3.7,1.6; stroke-dashoffset: 0; stroke: #808080"/>
   </g>
   <g id="line2d_19">
    <path d="M 231.165 215.132231 
L 231.165 195.449647 
" clip-path="url(#pc9988a7d70)" style="fill: none; stroke-dasharray: 3.7,1.6; stroke-dashoffset: 0; stroke: #808080"/>
   </g>
   <g id="patch_7">
    <path d="M 43.4225 214.649625 
L 43.4225 33.669625 
" style="fill: none; stroke: #000000; stroke-width: 1.5; stroke-linejoin: miter; stroke-linecap: square"/>
   </g>
   <g id="patch_8">
    <path d="M 53.4225 224.649625 
L 408.9075 224.649625 
" style="fill: none; stroke: #000000; stroke-width: 1.5; stroke-linejoin: miter; stroke-linecap: square"/>
   </g>
   <g id="text_16">
    <!-- A -->
    <g transform="translate(17.874 20.877187) scale(0.18 -0.18)">
     <defs>
      <path id="DejaVuSans-Bold-41" d="M 3419 850 
L 1538 850 
L 1241 0 
L 31 0 
L 1759 4666 
L 3194 4666 
L 4922 0 
L 3713 0 
L 3419 850 
z
M 1838 1716 
L 3116 1716 
L 2478 3572 
L 1838 1716 
z
" transform="scale(0.015625)"/>
     </defs>
     <use xlink:href="#DejaVuSans-Bold-41"/>
    </g>
   </g>
   <g id="text_17">
    <!-- $p_{KS} = 0.034$ -->
    <g transform="translate(71.19675 51.812375) scale(0.12 -0.12)">
     <defs>
      <path id="DejaVuSans-Oblique-70" d="M 3175 2156 
Q 3175 2616 2975 2859 
Q 2775 3103 2400 3103 
Q 2144 3103 1911 2972 
Q 1678 2841 1497 2591 
Q 1319 2344 1212 1994 
Q 1106 1644 1106 1300 
Q 1106 863 1306 627 
Q 1506 391 1875 391 
Q 2147 391 2380 519 
Q 2613 647 2778 891 
Q 2956 1147 3065 1494 
Q 3175 1841 3175 2156 
z
M 1394 2969 
Q 1625 3272 1939 3428 
Q 2253 3584 2638 3584 
Q 3175 3584 3472 3232 
Q 3769 2881 3769 2247 
Q 3769 1728 3584 1258 
Q 3400 788 3053 416 
Q 2822 169 2531 39 
Q 2241 -91 1919 -91 
Q 1547 -91 1294 64 
Q 1041 219 916 525 
L 556 -1331 
L -19 -1331 
L 922 3500 
L 1497 3500 
L 1394 2969 
z
" transform="scale(0.015625)"/>
      <path id="DejaVuSans-Oblique-4b" d="M 1081 4666 
L 1716 4666 
L 1331 2700 
L 3781 4666 
L 4622 4666 
L 1850 2438 
L 3878 0 
L 3109 0 
L 1247 2272 
L 806 0 
L 172 0 
L 1081 4666 
z
" transform="scale(0.015625)"/>
      <path id="DejaVuSans-Oblique-53" d="M 3859 4513 
L 3738 3897 
Q 3422 4066 3111 4152 
Q 2800 4238 2509 4238 
Q 1944 4238 1609 3991 
Q 1275 3744 1275 3334 
Q 1275 3109 1398 2989 
Q 1522 2869 2034 2731 
L 2413 2638 
Q 3053 2472 3303 2217 
Q 3553 1963 3553 1503 
Q 3553 797 2998 353 
Q 2444 -91 1538 -91 
Q 1166 -91 791 -17 
Q 416 56 38 206 
L 166 856 
Q 513 641 861 531 
Q 1209 422 1556 422 
Q 2147 422 2503 684 
Q 2859 947 2859 1369 
Q 2859 1650 2717 1795 
Q 2575 1941 2106 2059 
L 1728 2156 
Q 1081 2325 845 2545 
Q 609 2766 609 3163 
Q 609 3859 1145 4304 
Q 1681 4750 2541 4750 
Q 2875 4750 3203 4690 
Q 3531 4631 3859 4513 
z
" transform="scale(0.015625)"/>
      <path id="DejaVuSans-3d" d="M 678 2906 
L 4684 2906 
L 4684 2381 
L 678 2381 
L 678 2906 
z
M 678 1631 
L 4684 1631 
L 4684 1100 
L 678 1100 
L 678 1631 
z
" transform="scale(0.015625)"/>
      <path id="DejaVuSans-2e" d="M 684 794 
L 1344 794 
L 1344 0 
L 684 0 
L 684 794 
z
" transform="scale(0.015625)"/>
      <path id="DejaVuSans-33" d="M 2597 2516 
Q 3050 2419 3304 2112 
Q 3559 1806 3559 1356 
Q 3559 666 3084 287 
Q 2609 -91 1734 -91 
Q 1441 -91 1130 -33 
Q 819 25 488 141 
L 488 750 
Q 750 597 1062 519 
Q 1375 441 1716 441 
Q 2309 441 2620 675 
Q 2931 909 2931 1356 
Q 2931 1769 2642 2001 
Q 2353 2234 1838 2234 
L 1294 2234 
L 1294 2753 
L 1863 2753 
Q 2328 2753 2575 2939 
Q 2822 3125 2822 3475 
Q 2822 3834 2567 4026 
Q 2313 4219 1838 4219 
Q 1578 4219 1281 4162 
Q 984 4106 628 3988 
L 628 4550 
Q 988 4650 1302 4700 
Q 1616 4750 1894 4750 
Q 2613 4750 3031 4423 
Q 3450 4097 3450 3541 
Q 3450 3153 3228 2886 
Q 3006 2619 2597 2516 
z
" transform="scale(0.015625)"/>
     </defs>
     <use xlink:href="#DejaVuSans-Oblique-70" transform="translate(0 0.78125)"/>
     <use xlink:href="#DejaVuSans-Oblique-4b" transform="translate(63.476562 -15.625) scale(0.7)"/>
     <use xlink:href="#DejaVuSans-Oblique-53" transform="translate(109.379883 -15.625) scale(0.7)"/>
     <use xlink:href="#DejaVuSans-3d" transform="translate(176.030273 0.78125)"/>
     <use xlink:href="#DejaVuSans-30" transform="translate(279.301758 0.78125)"/>
     <use xlink:href="#DejaVuSans-2e" transform="translate(342.924805 0.78125)"/>
     <use xlink:href="#DejaVuSans-30" transform="translate(374.711914 0.78125)"/>
     <use xlink:href="#DejaVuSans-33" transform="translate(438.334961 0.78125)"/>
     <use xlink:href="#DejaVuSans-34" transform="translate(501.958008 0.78125)"/>
    </g>
   </g>
   <g id="legend_1">
    <g id="patch_9">
     <path d="M 311.480625 53.58775 
L 335.480625 53.58775 
L 335.480625 45.18775 
L 311.480625 45.18775 
z
" style="fill: #802f95; fill-opacity: 0.75; stroke: #000000; stroke-width: 1.1; stroke-linejoin: miter"/>
    </g>
    <g id="text_18">
     <!-- Evolved -->
     <g transform="translate(345.080625 53.58775) scale(0.12 -0.12)">
      <defs>
       <path id="DejaVuSans-45" d="M 628 4666 
L 3578 4666 
L 3578 4134 
L 1259 4134 
L 1259 2753 
L 3481 2753 
L 3481 2222 
L 1259 2222 
L 1259 531 
L 3634 531 
L 3634 0 
L 628 0 
L 628 4666 
z
" transform="scale(0.015625)"/>
       <path id="DejaVuSans-76" d="M 191 3500 
L 800 3500 
L 1894 563 
L 2988 3500 
L 3597 3500 
L 2284 0 
L 1503 0 
L 191 3500 
z
" transform="scale(0.015625)"/>
       <path id="DejaVuSans-6f" d="M 1959 3097 
Q 1497 3097 1228 2736 
Q 959 2375 959 1747 
Q 959 1119 1226 758 
Q 1494 397 1959 397 
Q 2419 397 2687 759 
Q 2956 1122 2956 1747 
Q 2956 2369 2687 2733 
Q 2419 3097 1959 3097 
z
M 1959 3584 
Q 2709 3584 3137 3096 
Q 3566 2609 3566 1747 
Q 3566 888 3137 398 
Q 2709 -91 1959 -91 
Q 1206 -91 779 398 
Q 353 888 353 1747 
Q 353 2609 779 3096 
Q 1206 3584 1959 3584 
z
" transform="scale(0.015625)"/>
       <path id="DejaVuSans-6c" d="M 603 4863 
L 1178 4863 
L 1178 0 
L 603 0 
L 603 4863 
z
" transform="scale(0.015625)"/>
       <path id="DejaVuSans-64" d="M 2906 2969 
L 2906 4863 
L 3481 4863 
L 3481 0 
L 2906 0 
L 2906 525 
Q 2725 213 2448 61 
Q 2172 -91 1784 -91 
Q 1150 -91 751 415 
Q 353 922 353 1747 
Q 353 2572 751 3078 
Q 1150 3584 1784 3584 
Q 2172 3584 2448 3432 
Q 2725 3281 2906 2969 
z
M 947 1747 
Q 947 1113 1208 752 
Q 1469 391 1925 391 
Q 2381 391 2643 752 
Q 2906 1113 2906 1747 
Q 2906 2381 2643 2742 
Q 2381 3103 1925 3103 
Q 1469 3103 1208 2742 
Q 947 2381 947 1747 
z
" transform="scale(0.015625)"/>
      </defs>
      <use xlink:href="#DejaVuSans-45"/>
      <use xlink:href="#DejaVuSans-76" x="63.183594"/>
      <use xlink:href="#DejaVuSans-6f" x="122.363281"/>
      <use xlink:href="#DejaVuSans-6c" x="183.544922"/>
      <use xlink:href="#DejaVuSans-76" x="211.328125"/>
      <use xlink:href="#DejaVuSans-65" x="270.507812"/>
      <use xlink:href="#DejaVuSans-64" x="332.03125"/>
     </g>
    </g>
    <g id="line2d_20">
     <path d="M 311.480625 67.0015 
L 335.480625 67.0015 
" style="fill: none; stroke: #ff4126; stroke-width: 1.1; stroke-linecap: square"/>
    </g>
    <g id="text_19">
     <!-- DFE Evo -->
     <g transform="translate(345.080625 71.2015) scale(0.12 -0.12)">
      <defs>
       <path id="DejaVuSans-44" d="M 1259 4147 
L 1259 519 
L 2022 519 
Q 2988 519 3436 956 
Q 3884 1394 3884 2338 
Q 3884 3275 3436 3711 
Q 2988 4147 2022 4147 
L 1259 4147 
z
M 628 4666 
L 1925 4666 
Q 3281 4666 3915 4102 
Q 4550 3538 4550 2338 
Q 4550 1131 3912 565 
Q 3275 0 1925 0 
L 628 0 
L 628 4666 
z
" transform="scale(0.015625)"/>
      </defs>
      <use xlink:href="#DejaVuSans-44"/>
      <use xlink:href="#DejaVuSans-46" x="77.001953"/>
      <use xlink:href="#DejaVuSans-45" x="134.521484"/>
      <use xlink:href="#DejaVuSans-20" x="197.705078"/>
      <use xlink:href="#DejaVuSans-45" x="229.492188"/>
      <use xlink:href="#DejaVuSans-76" x="292.675781"/>
      <use xlink:href="#DejaVuSans-6f" x="351.855469"/>
     </g>
    </g>
    <g id="patch_10">
     <path d="M 311.480625 88.81525 
L 335.480625 88.81525 
L 335.480625 80.41525 
L 311.480625 80.41525 
z
" style="fill: #808080; fill-opacity: 0.4; stroke: #000000; stroke-width: 1.1; stroke-linejoin: miter"/>
    </g>
    <g id="text_20">
     <!-- Ancestor -->
     <g transform="translate(345.080625 88.81525) scale(0.12 -0.12)">
      <defs>
       <path id="DejaVuSans-41" d="M 2188 4044 
L 1331 1722 
L 3047 1722 
L 2188 4044 
z
M 1831 4666 
L 2547 4666 
L 4325 0 
L 3669 0 
L 3244 1197 
L 1141 1197 
L 716 0 
L 50 0 
L 1831 4666 
z
" transform="scale(0.015625)"/>
       <path id="DejaVuSans-72" d="M 2631 2963 
Q 2534 3019 2420 3045 
Q 2306 3072 2169 3072 
Q 1681 3072 1420 2755 
Q 1159 2438 1159 1844 
L 1159 0 
L 581 0 
L 581 3500 
L 1159 3500 
L 1159 2956 
Q 1341 3275 1631 3429 
Q 1922 3584 2338 3584 
Q 2397 3584 2469 3576 
Q 2541 3569 2628 3553 
L 2631 2963 
z
" transform="scale(0.015625)"/>
      </defs>
      <use xlink:href="#DejaVuSans-41"/>
      <use xlink:href="#DejaVuSans-6e" x="68.408203"/>
      <use xlink:href="#DejaVuSans-63" x="131.787109"/>
      <use xlink:href="#DejaVuSans-65" x="186.767578"/>
      <use xlink:href="#DejaVuSans-73" x="248.291016"/>
      <use xlink:href="#DejaVuSans-74" x="300.390625"/>
      <use xlink:href="#DejaVuSans-6f" x="339.599609"/>
      <use xlink:href="#DejaVuSans-72" x="400.78125"/>
     </g>
    </g>
   </g>
  </g>
  <g id="axes_2">
   <g id="patch_11">
    <path d="M 476.6925 214.649625 
L 832.1775 214.649625 
L 832.1775 33.669625 
L 476.6925 33.669625 
z
" style="fill: #ffffff"/>
   </g>
   <g id="patch_12">
    <path d="M 658.910172 214.649625 
L 658.910172 54.670345 
L 660.929498 54.670345 
L 660.929498 83.291007 
L 662.948824 83.291007 
L 662.948824 98.623505 
L 664.96815 98.623505 
L 664.96815 106.800837 
L 666.987475 106.800837 
L 666.987475 132.355 
L 669.006801 132.355 
L 669.006801 152.79833 
L 671.026127 152.79833 
L 671.026127 163.019995 
L 673.045453 163.019995 
L 673.045453 169.152994 
L 675.064779 169.152994 
L 675.064779 170.17516 
L 677.084105 170.17516 
L 677.084105 179.374659 
L 679.103431 179.374659 
L 679.103431 185.507658 
L 681.122757 185.507658 
L 681.122757 186.529824 
L 683.142083 186.529824 
L 683.142083 185.507658 
L 685.161408 185.507658 
L 685.161408 193.68499 
L 687.180734 193.68499 
L 687.180734 195.729323 
L 689.20006 195.729323 
L 689.20006 193.68499 
L 691.219386 193.68499 
L 691.219386 198.795822 
L 693.238712 198.795822 
L 693.238712 196.751489 
L 695.258038 196.751489 
L 695.258038 198.795822 
L 697.277364 198.795822 
L 697.277364 196.751489 
L 699.29669 196.751489 
L 699.29669 214.649625 
" clip-path="url(#p1421a4d903)" style="fill: #802f95; fill-opacity: 0.75; stroke: #000000; stroke-width: 1.1; stroke-linejoin: miter"/>
   </g>
   <g id="patch_13">
    <path d="M 476.6925 214.649625 
L 832.1775 214.649625 
L 832.1775 198.795822 
L 476.6925 198.795822 
z
" clip-path="url(#p1421a4d903)" style="fill: #ffffff"/>
   </g>
   <g id="patch_14">
    <path d="M 580.217968 214.649625 
L 580.217968 211.741887 
L 583.72333 211.741887 
L 583.72333 212.904982 
L 587.228691 212.904982 
L 587.228691 214.649625 
L 590.734053 214.649625 
L 590.734053 212.323435 
L 594.239414 212.323435 
L 594.239414 213.48653 
L 597.744776 213.48653 
L 597.744776 211.160339 
L 601.250137 211.160339 
L 601.250137 211.741887 
L 604.755499 211.741887 
L 604.755499 213.48653 
L 608.26086 213.48653 
L 608.26086 209.415697 
L 611.766222 209.415697 
L 611.766222 205.344863 
L 615.271584 205.344863 
L 615.271584 198.94784 
L 618.776945 198.94784 
L 618.776945 202.437125 
L 622.282307 202.437125 
L 622.282307 190.806173 
L 625.787668 190.806173 
L 625.787668 190.224626 
L 629.29303 190.224626 
L 629.29303 180.919864 
L 632.798391 180.919864 
L 632.798391 180.338316 
L 636.303753 180.338316 
L 636.303753 147.771651 
L 639.809114 147.771651 
L 639.809114 159.98415 
L 643.314476 159.98415 
L 643.314476 180.338316 
L 646.819838 180.338316 
L 646.819838 191.387721 
L 650.325199 191.387721 
L 650.325199 193.132364 
L 653.830561 193.132364 
L 653.830561 203.018673 
L 657.335922 203.018673 
L 657.335922 205.926411 
L 660.841284 205.926411 
L 660.841284 200.110935 
L 664.346645 200.110935 
L 664.346645 211.741887 
L 667.852007 211.741887 
L 667.852007 212.323435 
L 671.357368 212.323435 
L 671.357368 211.160339 
L 674.86273 211.160339 
L 674.86273 212.904982 
L 678.368092 212.904982 
L 678.368092 213.48653 
L 681.873453 213.48653 
L 681.873453 213.48653 
L 685.378815 213.48653 
L 685.378815 214.649625 
" clip-path="url(#p1421a4d903)" style="fill: #808080; fill-opacity: 0.4; stroke: #000000; stroke-width: 1.1; stroke-linejoin: miter"/>
   </g>
   <g id="patch_15">
    <path d="M 456.851831 214.649625 
L 456.851831 214.132182 
L 464.551051 214.132182 
L 464.551051 214.649625 
L 472.250271 214.649625 
L 472.250271 214.649625 
L 479.949492 214.649625 
L 479.949492 214.649625 
L 487.648712 214.649625 
L 487.648712 214.649625 
L 495.347932 214.649625 
L 495.347932 214.649625 
L 503.047152 214.649625 
L 503.047152 214.649625 
L 510.746372 214.649625 
L 510.746372 214.649625 
L 518.445593 214.649625 
L 518.445593 214.649625 
L 526.144813 214.649625 
L 526.144813 214.649625 
L 533.844033 214.649625 
L 533.844033 214.649625 
L 541.543253 214.649625 
L 541.543253 214.649625 
L 549.242473 214.649625 
L 549.242473 214.218422 
L 556.941694 214.218422 
L 556.941694 214.218422 
L 564.640914 214.218422 
L 564.640914 214.045941 
L 572.340134 214.045941 
L 572.340134 213.700979 
L 580.039354 213.700979 
L 580.039354 212.924814 
L 587.738574 212.924814 
L 587.738574 212.579852 
L 595.437795 212.579852 
L 595.437795 210.596319 
L 603.137015 210.596319 
L 603.137015 209.475191 
L 610.836235 209.475191 
L 610.836235 203.17963 
L 618.535455 203.17963 
L 618.535455 198.177678 
L 626.234675 198.177678 
L 626.234675 183.516783 
L 633.933896 183.516783 
L 633.933896 158.42078 
L 641.633116 158.42078 
L 641.633116 181.705731 
L 649.332336 181.705731 
L 649.332336 201.368579 
L 657.031556 201.368579 
L 657.031556 206.801734 
L 664.730776 206.801734 
L 664.730776 210.596319 
L 672.429996 210.596319 
L 672.429996 212.838573 
L 680.129217 212.838573 
L 680.129217 213.356017 
L 687.828437 213.356017 
L 687.828437 214.649625 
" clip-path="url(#p1421a4d903)" style="fill: none; stroke: #ff4126; stroke-width: 1.1; stroke-linejoin: miter"/>
   </g>
   <g id="matplotlib.axis_3">
    <g id="xtick_8">
     <g id="line2d_21">
      <g>
       <use xlink:href="#mdb0d6bbe77" x="476.6925" y="224.649625" style="stroke: #000000; stroke-width: 1.5"/>
      </g>
     </g>
     <g id="text_21">
      <!-- −6 -->
      <g transform="translate(466.372969 244.787437) scale(0.14 -0.14)">
       <use xlink:href="#DejaVuSans-2212"/>
       <use xlink:href="#DejaVuSans-36" x="83.789062"/>
      </g>
     </g>
    </g>
    <g id="xtick_9">
     <g id="line2d_22">
      <g>
       <use xlink:href="#mdb0d6bbe77" x="535.94" y="224.649625" style="stroke: #000000; stroke-width: 1.5"/>
      </g>
     </g>
     <g id="text_22">
      <!-- −4 -->
      <g transform="translate(525.620469 244.787437) scale(0.14 -0.14)">
       <use xlink:href="#DejaVuSans-2212"/>
       <use xlink:href="#DejaVuSans-34" x="83.789062"/>
      </g>
     </g>
    </g>
    <g id="xtick_10">
     <g id="line2d_23">
      <g>
       <use xlink:href="#mdb0d6bbe77" x="595.1875" y="224.649625" style="stroke: #000000; stroke-width: 1.5"/>
      </g>
     </g>
     <g id="text_23">
      <!-- −2 -->
      <g transform="translate(584.867969 244.787437) scale(0.14 -0.14)">
       <use xlink:href="#DejaVuSans-2212"/>
       <use xlink:href="#DejaVuSans-32" x="83.789062"/>
      </g>
     </g>
    </g>
    <g id="xtick_11">
     <g id="line2d_24">
      <g>
       <use xlink:href="#mdb0d6bbe77" x="654.435" y="224.649625" style="stroke: #000000; stroke-width: 1.5"/>
      </g>
     </g>
     <g id="text_24">
      <!-- 0 -->
      <g transform="translate(649.98125 244.787437) scale(0.14 -0.14)">
       <use xlink:href="#DejaVuSans-30"/>
      </g>
     </g>
    </g>
    <g id="xtick_12">
     <g id="line2d_25">
      <g>
       <use xlink:href="#mdb0d6bbe77" x="713.6825" y="224.649625" style="stroke: #000000; stroke-width: 1.5"/>
      </g>
     </g>
     <g id="text_25">
      <!-- 2 -->
      <g transform="translate(709.22875 244.787437) scale(0.14 -0.14)">
       <use xlink:href="#DejaVuSans-32"/>
      </g>
     </g>
    </g>
    <g id="xtick_13">
     <g id="line2d_26">
      <g>
       <use xlink:href="#mdb0d6bbe77" x="772.93" y="224.649625" style="stroke: #000000; stroke-width: 1.5"/>
      </g>
     </g>
     <g id="text_26">
      <!-- 4 -->
      <g transform="translate(768.47625 244.787437) scale(0.14 -0.14)">
       <use xlink:href="#DejaVuSans-34"/>
      </g>
     </g>
    </g>
    <g id="xtick_14">
     <g id="line2d_27">
      <g>
       <use xlink:href="#mdb0d6bbe77" x="832.1775" y="224.649625" style="stroke: #000000; stroke-width: 1.5"/>
      </g>
     </g>
     <g id="text_27">
      <!-- 6 -->
      <g transform="translate(827.72375 244.787437) scale(0.14 -0.14)">
       <use xlink:href="#DejaVuSans-36"/>
      </g>
     </g>
    </g>
    <g id="text_28">
     <!-- Fitness effect $(\Delta)$ -->
     <g transform="translate(586.275 263.8565) scale(0.16 -0.16)">
      <use xlink:href="#DejaVuSans-46" transform="translate(0 0.015625)"/>
      <use xlink:href="#DejaVuSans-69" transform="translate(57.519531 0.015625)"/>
      <use xlink:href="#DejaVuSans-74" transform="translate(85.302734 0.015625)"/>
      <use xlink:href="#DejaVuSans-6e" transform="translate(124.511719 0.015625)"/>
      <use xlink:href="#DejaVuSans-65" transform="translate(187.890625 0.015625)"/>
      <use xlink:href="#DejaVuSans-73" transform="translate(249.414062 0.015625)"/>
      <use xlink:href="#DejaVuSans-73" transform="translate(301.513672 0.015625)"/>
      <use xlink:href="#DejaVuSans-20" transform="translate(353.613281 0.015625)"/>
      <use xlink:href="#DejaVuSans-65" transform="translate(385.400391 0.015625)"/>
      <use xlink:href="#DejaVuSans-66" transform="translate(446.923828 0.015625)"/>
      <use xlink:href="#DejaVuSans-66" transform="translate(482.128906 0.015625)"/>
      <use xlink:href="#DejaVuSans-65" transform="translate(517.333984 0.015625)"/>
      <use xlink:href="#DejaVuSans-63" transform="translate(578.857422 0.015625)"/>
      <use xlink:href="#DejaVuSans-74" transform="translate(633.837891 0.015625)"/>
      <use xlink:href="#DejaVuSans-20" transform="translate(673.046875 0.015625)"/>
      <use xlink:href="#DejaVuSans-28" transform="translate(704.833984 0.015625)"/>
      <use xlink:href="#DejaVuSans-394" transform="translate(743.847656 0.015625)"/>
      <use xlink:href="#DejaVuSans-29" transform="translate(812.255859 0.015625)"/>
     </g>
    </g>
    <g id="text_29">
     <!-- 1e−2 -->
     <g transform="translate(794.016562 261.336812) scale(0.14 -0.14)">
      <use xlink:href="#DejaVuSans-31"/>
      <use xlink:href="#DejaVuSans-65" x="63.623047"/>
      <use xlink:href="#DejaVuSans-2212" x="125.146484"/>
      <use xlink:href="#DejaVuSans-32" x="208.935547"/>
     </g>
    </g>
   </g>
   <g id="matplotlib.axis_4">
    <g id="ytick_7">
     <g id="line2d_28">
      <g>
       <use xlink:href="#m3b4078ee13" x="466.6925" y="214.649625" style="stroke: #000000; stroke-width: 1.5"/>
      </g>
     </g>
     <g id="text_30">
      <!-- 0 -->
      <g transform="translate(448.285 219.968531) scale(0.14 -0.14)">
       <use xlink:href="#DejaVuSans-30"/>
      </g>
     </g>
    </g>
    <g id="ytick_8">
     <g id="line2d_29">
      <g>
       <use xlink:href="#m3b4078ee13" x="466.6925" y="164.621703" style="stroke: #000000; stroke-width: 1.5"/>
      </g>
     </g>
     <g id="text_31">
      <!-- 100 -->
      <g transform="translate(430.47 169.940609) scale(0.14 -0.14)">
       <use xlink:href="#DejaVuSans-31"/>
       <use xlink:href="#DejaVuSans-30" x="63.623047"/>
       <use xlink:href="#DejaVuSans-30" x="127.246094"/>
      </g>
     </g>
    </g>
    <g id="ytick_9">
     <g id="line2d_30">
      <g>
       <use xlink:href="#m3b4078ee13" x="466.6925" y="114.59378" style="stroke: #000000; stroke-width: 1.5"/>
      </g>
     </g>
     <g id="text_32">
      <!-- 200 -->
      <g transform="translate(430.47 119.912687) scale(0.14 -0.14)">
       <use xlink:href="#DejaVuSans-32"/>
       <use xlink:href="#DejaVuSans-30" x="63.623047"/>
       <use xlink:href="#DejaVuSans-30" x="127.246094"/>
      </g>
     </g>
    </g>
    <g id="ytick_10">
     <g id="line2d_31">
      <g>
       <use xlink:href="#m3b4078ee13" x="466.6925" y="64.565858" style="stroke: #000000; stroke-width: 1.5"/>
      </g>
     </g>
     <g id="text_33">
      <!-- 300 -->
      <g transform="translate(430.47 69.884764) scale(0.14 -0.14)">
       <use xlink:href="#DejaVuSans-33"/>
       <use xlink:href="#DejaVuSans-30" x="63.623047"/>
       <use xlink:href="#DejaVuSans-30" x="127.246094"/>
      </g>
     </g>
    </g>
   </g>
   <g id="line2d_32">
    <path d="M 494.46675 195.292132 
L 814.40325 195.292132 
" clip-path="url(#p1421a4d903)" style="fill: none; stroke-dasharray: 3.7,1.6; stroke-dashoffset: 0; stroke: #808080"/>
   </g>
   <g id="line2d_33">
    <path d="M 476.6925 215.024834 
L 494.46675 195.292132 
" clip-path="url(#p1421a4d903)" style="fill: none; stroke-dasharray: 3.7,1.6; stroke-dashoffset: 0; stroke: #808080"/>
   </g>
   <g id="line2d_34">
    <path d="M 832.1775 215.024834 
L 814.40325 195.292132 
" clip-path="url(#p1421a4d903)" style="fill: none; stroke-dasharray: 3.7,1.6; stroke-dashoffset: 0; stroke: #808080"/>
   </g>
   <g id="line2d_35">
    <path d="M 565.56375 215.024834 
L 574.450875 195.292132 
" clip-path="url(#p1421a4d903)" style="fill: none; stroke-dasharray: 3.7,1.6; stroke-dashoffset: 0; stroke: #808080"/>
   </g>
   <g id="line2d_36">
    <path d="M 743.30625 215.024834 
L 734.419125 195.292132 
" clip-path="url(#p1421a4d903)" style="fill: none; stroke-dasharray: 3.7,1.6; stroke-dashoffset: 0; stroke: #808080"/>
   </g>
   <g id="line2d_37">
    <path d="M 654.435 215.024834 
L 654.435 195.292132 
" clip-path="url(#p1421a4d903)" style="fill: none; stroke-dasharray: 3.7,1.6; stroke-dashoffset: 0; stroke: #808080"/>
   </g>
   <g id="patch_16">
    <path d="M 466.6925 214.649625 
L 466.6925 33.669625 
" style="fill: none; stroke: #000000; stroke-width: 1.5; stroke-linejoin: miter; stroke-linecap: square"/>
   </g>
   <g id="patch_17">
    <path d="M 476.6925 224.649625 
L 832.1775 224.649625 
" style="fill: none; stroke: #000000; stroke-width: 1.5; stroke-linejoin: miter; stroke-linecap: square"/>
   </g>
   <g id="text_34">
    <!-- B -->
    <g transform="translate(441.144 20.877187) scale(0.18 -0.18)">
     <defs>
      <path id="DejaVuSans-Bold-42" d="M 2456 2859 
Q 2741 2859 2887 2984 
Q 3034 3109 3034 3353 
Q 3034 3594 2887 3720 
Q 2741 3847 2456 3847 
L 1791 3847 
L 1791 2859 
L 2456 2859 
z
M 2497 819 
Q 2859 819 3042 972 
Q 3225 1125 3225 1434 
Q 3225 1738 3044 1889 
Q 2863 2041 2497 2041 
L 1791 2041 
L 1791 819 
L 2497 819 
z
M 3616 2497 
Q 4003 2384 4215 2081 
Q 4428 1778 4428 1338 
Q 4428 663 3972 331 
Q 3516 0 2584 0 
L 588 0 
L 588 4666 
L 2394 4666 
Q 3366 4666 3802 4372 
Q 4238 4078 4238 3431 
Q 4238 3091 4078 2852 
Q 3919 2613 3616 2497 
z
" transform="scale(0.015625)"/>
     </defs>
     <use xlink:href="#DejaVuSans-Bold-42"/>
    </g>
   </g>
   <g id="text_35">
    <!-- $p_{KS} = 0.1$ -->
    <g transform="translate(494.46675 51.812375) scale(0.12 -0.12)">
     <use xlink:href="#DejaVuSans-Oblique-70" transform="translate(0 0.78125)"/>
     <use xlink:href="#DejaVuSans-Oblique-4b" transform="translate(63.476562 -15.625) scale(0.7)"/>
     <use xlink:href="#DejaVuSans-Oblique-53" transform="translate(109.379883 -15.625) scale(0.7)"/>
     <use xlink:href="#DejaVuSans-3d" transform="translate(176.030273 0.78125)"/>
     <use xlink:href="#DejaVuSans-30" transform="translate(279.301758 0.78125)"/>
     <use xlink:href="#DejaVuSans-2e" transform="translate(342.924805 0.78125)"/>
     <use xlink:href="#DejaVuSans-31" transform="translate(374.711914 0.78125)"/>
    </g>
   </g>
   <g id="legend_2">
    <g id="patch_18">
     <path d="M 734.750625 53.58775 
L 758.750625 53.58775 
L 758.750625 45.18775 
L 734.750625 45.18775 
z
" style="fill: #802f95; fill-opacity: 0.75; stroke: #000000; stroke-width: 1.1; stroke-linejoin: miter"/>
    </g>
    <g id="text_36">
     <!-- Evolved -->
     <g transform="translate(768.350625 53.58775) scale(0.12 -0.12)">
      <use xlink:href="#DejaVuSans-45"/>
      <use xlink:href="#DejaVuSans-76" x="63.183594"/>
      <use xlink:href="#DejaVuSans-6f" x="122.363281"/>
      <use xlink:href="#DejaVuSans-6c" x="183.544922"/>
      <use xlink:href="#DejaVuSans-76" x="211.328125"/>
      <use xlink:href="#DejaVuSans-65" x="270.507812"/>
      <use xlink:href="#DejaVuSans-64" x="332.03125"/>
     </g>
    </g>
    <g id="patch_19">
     <path d="M 734.750625 71.2015 
L 758.750625 71.2015 
L 758.750625 62.8015 
L 734.750625 62.8015 
z
" style="fill: #808080; fill-opacity: 0.4; stroke: #000000; stroke-width: 1.1; stroke-linejoin: miter"/>
    </g>
    <g id="text_37">
     <!-- Ancestor -->
     <g transform="translate(768.350625 71.2015) scale(0.12 -0.12)">
      <use xlink:href="#DejaVuSans-41"/>
      <use xlink:href="#DejaVuSans-6e" x="68.408203"/>
      <use xlink:href="#DejaVuSans-63" x="131.787109"/>
      <use xlink:href="#DejaVuSans-65" x="186.767578"/>
      <use xlink:href="#DejaVuSans-73" x="248.291016"/>
      <use xlink:href="#DejaVuSans-74" x="300.390625"/>
      <use xlink:href="#DejaVuSans-6f" x="339.599609"/>
      <use xlink:href="#DejaVuSans-72" x="400.78125"/>
     </g>
    </g>
    <g id="line2d_38">
     <path d="M 734.750625 84.61525 
L 758.750625 84.61525 
" style="fill: none; stroke: #ff4126; stroke-width: 1.1; stroke-linecap: square"/>
    </g>
    <g id="text_38">
     <!-- Anc DFE -->
     <g transform="translate(768.350625 88.81525) scale(0.12 -0.12)">
      <use xlink:href="#DejaVuSans-41"/>
      <use xlink:href="#DejaVuSans-6e" x="68.408203"/>
      <use xlink:href="#DejaVuSans-63" x="131.787109"/>
      <use xlink:href="#DejaVuSans-20" x="186.767578"/>
      <use xlink:href="#DejaVuSans-44" x="218.554688"/>
      <use xlink:href="#DejaVuSans-46" x="295.556641"/>
      <use xlink:href="#DejaVuSans-45" x="353.076172"/>
     </g>
    </g>
   </g>
  </g>
  <g id="axes_3">
   <g id="patch_20">
    <path d="M 53.4225 494.009625 
L 408.9075 494.009625 
L 408.9075 313.029625 
L 53.4225 313.029625 
z
" style="fill: #ffffff"/>
   </g>
   <g id="patch_21">
    <path d="M 142.495562 494.009625 
L 142.495562 474.124502 
L 148.301671 474.124502 
L 148.301671 476.708415 
L 154.107779 476.708415 
L 154.107779 474.124502 
L 159.913888 474.124502 
L 159.913888 476.708415 
L 165.719997 476.708415 
L 165.719997 476.708415 
L 171.526105 476.708415 
L 171.526105 476.708415 
L 177.332214 476.708415 
L 177.332214 467.234068 
L 183.138322 467.234068 
L 183.138322 468.956677 
L 188.944431 468.956677 
L 188.944431 465.51146 
L 194.75054 465.51146 
L 194.75054 456.898418 
L 200.556648 456.898418 
L 200.556648 446.562768 
L 206.362757 446.562768 
L 206.362757 437.088421 
L 212.168865 437.088421 
L 212.168865 420.723642 
L 217.974974 420.723642 
L 217.974974 408.665383 
L 223.781082 408.665383 
L 223.781082 420.723642 
L 229.587191 420.723642 
L 229.587191 437.088421 
L 235.3933 437.088421 
L 235.3933 442.256247 
L 241.199408 442.256247 
L 241.199408 461.204939 
L 247.005517 461.204939 
L 247.005517 467.234068 
L 252.811625 467.234068 
L 252.811625 472.401894 
L 258.617734 472.401894 
L 258.617734 494.009625 
" clip-path="url(#pdf905c29ca)" style="fill: #802f95; fill-opacity: 0.75; stroke: #000000; stroke-width: 1.1; stroke-linejoin: miter"/>
   </g>
   <g id="patch_22">
    <path d="M 148.816767 494.009625 
L 148.816767 474.416695 
L 152.487345 474.416695 
L 152.487345 475.104211 
L 156.157924 475.104211 
L 156.157924 475.333383 
L 159.828503 475.333383 
L 159.828503 473.041663 
L 163.499082 473.041663 
L 163.499082 475.791727 
L 167.16966 475.791727 
L 167.16966 473.041663 
L 170.840239 473.041663 
L 170.840239 471.666631 
L 174.510818 471.666631 
L 174.510818 471.437459 
L 178.181396 471.437459 
L 178.181396 472.354147 
L 181.851975 472.354147 
L 181.851975 472.354147 
L 185.522554 472.354147 
L 185.522554 471.208287 
L 189.193133 471.208287 
L 189.193133 468.229052 
L 192.863711 468.229052 
L 192.863711 464.5623 
L 196.53429 464.5623 
L 196.53429 460.208032 
L 200.204869 460.208032 
L 200.204869 456.312109 
L 203.875447 456.312109 
L 203.875447 448.749434 
L 207.546026 448.749434 
L 207.546026 434.311599 
L 211.216605 434.311599 
L 211.216605 423.769688 
L 214.887183 423.769688 
L 214.887183 398.102427 
L 218.557762 398.102427 
L 218.557762 384.58128 
L 222.228341 384.58128 
L 222.228341 400.164975 
L 225.89892 400.164975 
L 225.89892 415.977841 
L 229.569498 415.977841 
L 229.569498 438.436695 
L 233.240077 438.436695 
L 233.240077 448.978606 
L 236.910656 448.978606 
L 236.910656 456.770453 
L 240.581234 456.770453 
L 240.581234 464.5623 
L 244.251813 464.5623 
L 244.251813 467.99988 
L 247.922392 467.99988 
L 247.922392 472.583319 
L 251.59297 472.583319 
L 251.59297 475.333383 
L 255.263549 475.333383 
L 255.263549 472.812491 
L 258.934128 472.812491 
L 258.934128 494.009625 
" clip-path="url(#pdf905c29ca)" style="fill: none; stroke: #ff4126; stroke-width: 1.1; stroke-linejoin: miter"/>
   </g>
   <g id="patch_23">
    <path d="M 53.4225 494.009625 
L 408.9075 494.009625 
L 408.9075 476.708415 
L 53.4225 476.708415 
z
" clip-path="url(#pdf905c29ca)" style="fill: #ffffff"/>
   </g>
   <g id="patch_24">
    <path d="M 235.618316 494.009625 
L 235.618316 336.725895 
L 239.337208 336.725895 
L 239.337208 395.185334 
L 243.056099 395.185334 
L 243.056099 429.98262 
L 246.774991 429.98262 
L 246.774991 402.144791 
L 250.493883 402.144791 
L 250.493883 431.374511 
L 254.212774 431.374511 
L 254.212774 448.077208 
L 257.931666 448.077208 
L 257.931666 467.563688 
L 261.650557 467.563688 
L 261.650557 475.915037 
L 265.369449 475.915037 
L 265.369449 471.739362 
L 269.08834 471.739362 
L 269.08834 484.266385 
L 272.807232 484.266385 
L 272.807232 481.482602 
L 276.526124 481.482602 
L 276.526124 484.266385 
L 280.245015 484.266385 
L 280.245015 492.617734 
L 283.963907 492.617734 
L 283.963907 488.442059 
L 287.682798 488.442059 
L 287.682798 494.009625 
L 291.40169 494.009625 
L 291.40169 489.833951 
L 295.120582 489.833951 
L 295.120582 494.009625 
L 298.839473 494.009625 
L 298.839473 494.009625 
L 302.558365 494.009625 
L 302.558365 494.009625 
L 306.277256 494.009625 
L 306.277256 489.833951 
L 309.996148 489.833951 
L 309.996148 494.009625 
" clip-path="url(#pdf905c29ca)" style="fill: #808080; fill-opacity: 0.4; stroke: #000000; stroke-width: 1.1; stroke-linejoin: miter"/>
   </g>
   <g id="matplotlib.axis_5">
    <g id="xtick_15">
     <g id="line2d_39">
      <g>
       <use xlink:href="#mdb0d6bbe77" x="53.4225" y="504.009625" style="stroke: #000000; stroke-width: 1.5"/>
      </g>
     </g>
     <g id="text_39">
      <!-- −6 -->
      <g transform="translate(43.102969 524.147437) scale(0.14 -0.14)">
       <use xlink:href="#DejaVuSans-2212"/>
       <use xlink:href="#DejaVuSans-36" x="83.789062"/>
      </g>
     </g>
    </g>
    <g id="xtick_16">
     <g id="line2d_40">
      <g>
       <use xlink:href="#mdb0d6bbe77" x="112.67" y="504.009625" style="stroke: #000000; stroke-width: 1.5"/>
      </g>
     </g>
     <g id="text_40">
      <!-- −4 -->
      <g transform="translate(102.350469 524.147437) scale(0.14 -0.14)">
       <use xlink:href="#DejaVuSans-2212"/>
       <use xlink:href="#DejaVuSans-34" x="83.789062"/>
      </g>
     </g>
    </g>
    <g id="xtick_17">
     <g id="line2d_41">
      <g>
       <use xlink:href="#mdb0d6bbe77" x="171.9175" y="504.009625" style="stroke: #000000; stroke-width: 1.5"/>
      </g>
     </g>
     <g id="text_41">
      <!-- −2 -->
      <g transform="translate(161.597969 524.147437) scale(0.14 -0.14)">
       <use xlink:href="#DejaVuSans-2212"/>
       <use xlink:href="#DejaVuSans-32" x="83.789062"/>
      </g>
     </g>
    </g>
    <g id="xtick_18">
     <g id="line2d_42">
      <g>
       <use xlink:href="#mdb0d6bbe77" x="231.165" y="504.009625" style="stroke: #000000; stroke-width: 1.5"/>
      </g>
     </g>
     <g id="text_42">
      <!-- 0 -->
      <g transform="translate(226.71125 524.147437) scale(0.14 -0.14)">
       <use xlink:href="#DejaVuSans-30"/>
      </g>
     </g>
    </g>
    <g id="xtick_19">
     <g id="line2d_43">
      <g>
       <use xlink:href="#mdb0d6bbe77" x="290.4125" y="504.009625" style="stroke: #000000; stroke-width: 1.5"/>
      </g>
     </g>
     <g id="text_43">
      <!-- 2 -->
      <g transform="translate(285.95875 524.147437) scale(0.14 -0.14)">
       <use xlink:href="#DejaVuSans-32"/>
      </g>
     </g>
    </g>
    <g id="xtick_20">
     <g id="line2d_44">
      <g>
       <use xlink:href="#mdb0d6bbe77" x="349.66" y="504.009625" style="stroke: #000000; stroke-width: 1.5"/>
      </g>
     </g>
     <g id="text_44">
      <!-- 4 -->
      <g transform="translate(345.20625 524.147437) scale(0.14 -0.14)">
       <use xlink:href="#DejaVuSans-34"/>
      </g>
     </g>
    </g>
    <g id="xtick_21">
     <g id="line2d_45">
      <g>
       <use xlink:href="#mdb0d6bbe77" x="408.9075" y="504.009625" style="stroke: #000000; stroke-width: 1.5"/>
      </g>
     </g>
     <g id="text_45">
      <!-- 6 -->
      <g transform="translate(404.45375 524.147437) scale(0.14 -0.14)">
       <use xlink:href="#DejaVuSans-36"/>
      </g>
     </g>
    </g>
    <g id="text_46">
     <!-- Fitness effect $(\Delta)$ -->
     <g transform="translate(163.005 543.2165) scale(0.16 -0.16)">
      <use xlink:href="#DejaVuSans-46" transform="translate(0 0.015625)"/>
      <use xlink:href="#DejaVuSans-69" transform="translate(57.519531 0.015625)"/>
      <use xlink:href="#DejaVuSans-74" transform="translate(85.302734 0.015625)"/>
      <use xlink:href="#DejaVuSans-6e" transform="translate(124.511719 0.015625)"/>
      <use xlink:href="#DejaVuSans-65" transform="translate(187.890625 0.015625)"/>
      <use xlink:href="#DejaVuSans-73" transform="translate(249.414062 0.015625)"/>
      <use xlink:href="#DejaVuSans-73" transform="translate(301.513672 0.015625)"/>
      <use xlink:href="#DejaVuSans-20" transform="translate(353.613281 0.015625)"/>
      <use xlink:href="#DejaVuSans-65" transform="translate(385.400391 0.015625)"/>
      <use xlink:href="#DejaVuSans-66" transform="translate(446.923828 0.015625)"/>
      <use xlink:href="#DejaVuSans-66" transform="translate(482.128906 0.015625)"/>
      <use xlink:href="#DejaVuSans-65" transform="translate(517.333984 0.015625)"/>
      <use xlink:href="#DejaVuSans-63" transform="translate(578.857422 0.015625)"/>
      <use xlink:href="#DejaVuSans-74" transform="translate(633.837891 0.015625)"/>
      <use xlink:href="#DejaVuSans-20" transform="translate(673.046875 0.015625)"/>
      <use xlink:href="#DejaVuSans-28" transform="translate(704.833984 0.015625)"/>
      <use xlink:href="#DejaVuSans-394" transform="translate(743.847656 0.015625)"/>
      <use xlink:href="#DejaVuSans-29" transform="translate(812.255859 0.015625)"/>
     </g>
    </g>
    <g id="text_47">
     <!-- 1e−2 -->
     <g transform="translate(370.746562 540.696812) scale(0.14 -0.14)">
      <use xlink:href="#DejaVuSans-31"/>
      <use xlink:href="#DejaVuSans-65" x="63.623047"/>
      <use xlink:href="#DejaVuSans-2212" x="125.146484"/>
      <use xlink:href="#DejaVuSans-32" x="208.935547"/>
     </g>
    </g>
   </g>
   <g id="matplotlib.axis_6">
    <g id="ytick_11">
     <g id="line2d_46">
      <g>
       <use xlink:href="#m3b4078ee13" x="43.4225" y="494.009625" style="stroke: #000000; stroke-width: 1.5"/>
      </g>
     </g>
     <g id="text_48">
      <!-- 0 -->
      <g transform="translate(25.015 499.328531) scale(0.14 -0.14)">
       <use xlink:href="#DejaVuSans-30"/>
      </g>
     </g>
    </g>
    <g id="ytick_12">
     <g id="line2d_47">
      <g>
       <use xlink:href="#m3b4078ee13" x="43.4225" y="454.170143" style="stroke: #000000; stroke-width: 1.5"/>
      </g>
     </g>
     <g id="text_49">
      <!-- 50 -->
      <g transform="translate(16.1075 459.489049) scale(0.14 -0.14)">
       <use xlink:href="#DejaVuSans-35"/>
       <use xlink:href="#DejaVuSans-30" x="63.623047"/>
      </g>
     </g>
    </g>
    <g id="ytick_13">
     <g id="line2d_48">
      <g>
       <use xlink:href="#m3b4078ee13" x="43.4225" y="414.33066" style="stroke: #000000; stroke-width: 1.5"/>
      </g>
     </g>
     <g id="text_50">
      <!-- 100 -->
      <g transform="translate(7.2 419.649566) scale(0.14 -0.14)">
       <use xlink:href="#DejaVuSans-31"/>
       <use xlink:href="#DejaVuSans-30" x="63.623047"/>
       <use xlink:href="#DejaVuSans-30" x="127.246094"/>
      </g>
     </g>
    </g>
    <g id="ytick_14">
     <g id="line2d_49">
      <g>
       <use xlink:href="#m3b4078ee13" x="43.4225" y="374.491178" style="stroke: #000000; stroke-width: 1.5"/>
      </g>
     </g>
     <g id="text_51">
      <!-- 150 -->
      <g transform="translate(7.2 379.810084) scale(0.14 -0.14)">
       <use xlink:href="#DejaVuSans-31"/>
       <use xlink:href="#DejaVuSans-35" x="63.623047"/>
       <use xlink:href="#DejaVuSans-30" x="127.246094"/>
      </g>
     </g>
    </g>
    <g id="ytick_15">
     <g id="line2d_50">
      <g>
       <use xlink:href="#m3b4078ee13" x="43.4225" y="334.651695" style="stroke: #000000; stroke-width: 1.5"/>
      </g>
     </g>
     <g id="text_52">
      <!-- 200 -->
      <g transform="translate(7.2 339.970601) scale(0.14 -0.14)">
       <use xlink:href="#DejaVuSans-32"/>
       <use xlink:href="#DejaVuSans-30" x="63.623047"/>
       <use xlink:href="#DejaVuSans-30" x="127.246094"/>
      </g>
     </g>
    </g>
   </g>
   <g id="line2d_51">
    <path d="M 71.19675 474.978294 
L 391.13325 474.978294 
" clip-path="url(#pdf905c29ca)" style="fill: none; stroke-dasharray: 3.7,1.6; stroke-dashoffset: 0; stroke: #808080"/>
   </g>
   <g id="line2d_52">
    <path d="M 53.4225 494.607217 
L 71.19675 474.978294 
" clip-path="url(#pdf905c29ca)" style="fill: none; stroke-dasharray: 3.7,1.6; stroke-dashoffset: 0; stroke: #808080"/>
   </g>
   <g id="line2d_53">
    <path d="M 408.9075 494.607217 
L 391.13325 474.978294 
" clip-path="url(#pdf905c29ca)" style="fill: none; stroke-dasharray: 3.7,1.6; stroke-dashoffset: 0; stroke: #808080"/>
   </g>
   <g id="line2d_54">
    <path d="M 142.29375 494.607217 
L 151.180875 474.978294 
" clip-path="url(#pdf905c29ca)" style="fill: none; stroke-dasharray: 3.7,1.6; stroke-dashoffset: 0; stroke: #808080"/>
   </g>
   <g id="line2d_55">
    <path d="M 320.03625 494.607217 
L 311.149125 474.978294 
" clip-path="url(#pdf905c29ca)" style="fill: none; stroke-dasharray: 3.7,1.6; stroke-dashoffset: 0; stroke: #808080"/>
   </g>
   <g id="line2d_56">
    <path d="M 231.165 494.607217 
L 231.165 474.978294 
" clip-path="url(#pdf905c29ca)" style="fill: none; stroke-dasharray: 3.7,1.6; stroke-dashoffset: 0; stroke: #808080"/>
   </g>
   <g id="patch_25">
    <path d="M 43.4225 494.009625 
L 43.4225 313.029625 
" style="fill: none; stroke: #000000; stroke-width: 1.5; stroke-linejoin: miter; stroke-linecap: square"/>
   </g>
   <g id="patch_26">
    <path d="M 53.4225 504.009625 
L 408.9075 504.009625 
" style="fill: none; stroke: #000000; stroke-width: 1.5; stroke-linejoin: miter; stroke-linecap: square"/>
   </g>
   <g id="text_53">
    <!-- C -->
    <g transform="translate(17.874 300.237187) scale(0.18 -0.18)">
     <defs>
      <path id="DejaVuSans-Bold-43" d="M 4288 256 
Q 3956 84 3597 -3 
Q 3238 -91 2847 -91 
Q 1681 -91 1000 561 
Q 319 1213 319 2328 
Q 319 3447 1000 4098 
Q 1681 4750 2847 4750 
Q 3238 4750 3597 4662 
Q 3956 4575 4288 4403 
L 4288 3438 
Q 3953 3666 3628 3772 
Q 3303 3878 2944 3878 
Q 2300 3878 1931 3465 
Q 1563 3053 1563 2328 
Q 1563 1606 1931 1193 
Q 2300 781 2944 781 
Q 3303 781 3628 887 
Q 3953 994 4288 1222 
L 4288 256 
z
" transform="scale(0.015625)"/>
     </defs>
     <use xlink:href="#DejaVuSans-Bold-43"/>
    </g>
   </g>
   <g id="text_54">
    <!-- $p_{KS} = 0.0025$ -->
    <g transform="translate(71.19675 331.172375) scale(0.12 -0.12)">
     <use xlink:href="#DejaVuSans-Oblique-70" transform="translate(0 0.78125)"/>
     <use xlink:href="#DejaVuSans-Oblique-4b" transform="translate(63.476562 -15.625) scale(0.7)"/>
     <use xlink:href="#DejaVuSans-Oblique-53" transform="translate(109.379883 -15.625) scale(0.7)"/>
     <use xlink:href="#DejaVuSans-3d" transform="translate(176.030273 0.78125)"/>
     <use xlink:href="#DejaVuSans-30" transform="translate(279.301758 0.78125)"/>
     <use xlink:href="#DejaVuSans-2e" transform="translate(342.924805 0.78125)"/>
     <use xlink:href="#DejaVuSans-30" transform="translate(374.711914 0.78125)"/>
     <use xlink:href="#DejaVuSans-30" transform="translate(438.334961 0.78125)"/>
     <use xlink:href="#DejaVuSans-32" transform="translate(501.958008 0.78125)"/>
     <use xlink:href="#DejaVuSans-35" transform="translate(565.581055 0.78125)"/>
    </g>
   </g>
   <g id="legend_3">
    <g id="patch_27">
     <path d="M 311.480625 332.94775 
L 335.480625 332.94775 
L 335.480625 324.54775 
L 311.480625 324.54775 
z
" style="fill: #802f95; fill-opacity: 0.75; stroke: #000000; stroke-width: 1.1; stroke-linejoin: miter"/>
    </g>
    <g id="text_55">
     <!-- Evolved -->
     <g transform="translate(345.080625 332.94775) scale(0.12 -0.12)">
      <use xlink:href="#DejaVuSans-45"/>
      <use xlink:href="#DejaVuSans-76" x="63.183594"/>
      <use xlink:href="#DejaVuSans-6f" x="122.363281"/>
      <use xlink:href="#DejaVuSans-6c" x="183.544922"/>
      <use xlink:href="#DejaVuSans-76" x="211.328125"/>
      <use xlink:href="#DejaVuSans-65" x="270.507812"/>
      <use xlink:href="#DejaVuSans-64" x="332.03125"/>
     </g>
    </g>
    <g id="line2d_57">
     <path d="M 311.480625 346.3615 
L 335.480625 346.3615 
" style="fill: none; stroke: #ff4126; stroke-width: 1.1; stroke-linecap: square"/>
    </g>
    <g id="text_56">
     <!-- DFE Evo -->
     <g transform="translate(345.080625 350.5615) scale(0.12 -0.12)">
      <use xlink:href="#DejaVuSans-44"/>
      <use xlink:href="#DejaVuSans-46" x="77.001953"/>
      <use xlink:href="#DejaVuSans-45" x="134.521484"/>
      <use xlink:href="#DejaVuSans-20" x="197.705078"/>
      <use xlink:href="#DejaVuSans-45" x="229.492188"/>
      <use xlink:href="#DejaVuSans-76" x="292.675781"/>
      <use xlink:href="#DejaVuSans-6f" x="351.855469"/>
     </g>
    </g>
    <g id="patch_28">
     <path d="M 311.480625 368.17525 
L 335.480625 368.17525 
L 335.480625 359.77525 
L 311.480625 359.77525 
z
" style="fill: #808080; fill-opacity: 0.4; stroke: #000000; stroke-width: 1.1; stroke-linejoin: miter"/>
    </g>
    <g id="text_57">
     <!-- Ancestor -->
     <g transform="translate(345.080625 368.17525) scale(0.12 -0.12)">
      <use xlink:href="#DejaVuSans-41"/>
      <use xlink:href="#DejaVuSans-6e" x="68.408203"/>
      <use xlink:href="#DejaVuSans-63" x="131.787109"/>
      <use xlink:href="#DejaVuSans-65" x="186.767578"/>
      <use xlink:href="#DejaVuSans-73" x="248.291016"/>
      <use xlink:href="#DejaVuSans-74" x="300.390625"/>
      <use xlink:href="#DejaVuSans-6f" x="339.599609"/>
      <use xlink:href="#DejaVuSans-72" x="400.78125"/>
     </g>
    </g>
   </g>
  </g>
  <g id="axes_4">
   <g id="patch_29">
    <path d="M 476.6925 494.009625 
L 832.1775 494.009625 
L 832.1775 313.029625 
L 476.6925 313.029625 
z
" style="fill: #ffffff"/>
   </g>
   <g id="patch_30">
    <path d="M 658.8861 494.009625 
L 658.8861 333.627856 
L 661.07507 333.627856 
L 661.07507 380.630003 
L 663.264041 380.630003 
L 663.264041 396.297385 
L 665.453011 396.297385 
L 665.453011 413.705587 
L 667.641981 413.705587 
L 667.641981 424.150509 
L 669.830952 424.150509 
L 669.830952 431.11379 
L 672.019922 431.11379 
L 672.019922 445.910762 
L 674.208892 445.910762 
L 674.208892 450.262812 
L 676.397863 450.262812 
L 676.397863 458.096503 
L 678.586833 458.096503 
L 678.586833 460.707734 
L 680.775804 460.707734 
L 680.775804 467.671015 
L 682.964774 467.671015 
L 682.964774 476.375116 
L 685.153744 476.375116 
L 685.153744 472.893475 
L 687.342715 472.893475 
L 687.342715 472.893475 
L 689.531685 472.893475 
L 689.531685 473.763886 
L 691.720655 473.763886 
L 691.720655 478.115936 
L 693.909626 478.115936 
L 693.909626 478.115936 
L 696.098596 478.115936 
L 696.098596 476.375116 
L 698.287566 476.375116 
L 698.287566 478.115936 
L 700.476537 478.115936 
L 700.476537 476.375116 
L 702.665507 476.375116 
L 702.665507 494.009625 
" clip-path="url(#pfced1b7cf6)" style="fill: #802f95; fill-opacity: 0.75; stroke: #000000; stroke-width: 1.1; stroke-linejoin: miter"/>
   </g>
   <g id="patch_31">
    <path d="M 476.6925 494.009625 
L 832.1775 494.009625 
L 832.1775 478.115936 
L 476.6925 478.115936 
z
" clip-path="url(#pfced1b7cf6)" style="fill: #ffffff"/>
   </g>
   <g id="patch_32">
    <path d="M 563.496758 494.009625 
L 563.496758 493.124709 
L 567.877069 493.124709 
L 567.877069 494.009625 
L 572.25738 494.009625 
L 572.25738 494.009625 
L 576.637691 494.009625 
L 576.637691 492.68225 
L 581.018003 492.68225 
L 581.018003 492.68225 
L 585.398314 492.68225 
L 585.398314 492.68225 
L 589.778625 492.68225 
L 589.778625 492.68225 
L 594.158937 492.68225 
L 594.158937 490.027501 
L 598.539248 490.027501 
L 598.539248 489.142584 
L 602.919559 489.142584 
L 602.919559 486.930293 
L 607.299871 486.930293 
L 607.299871 487.81521 
L 611.680182 487.81521 
L 611.680182 482.948169 
L 616.060493 482.948169 
L 616.060493 478.081128 
L 620.440805 478.081128 
L 620.440805 476.311295 
L 624.821116 476.311295 
L 624.821116 472.329171 
L 629.201427 472.329171 
L 629.201427 469.674421 
L 633.581738 469.674421 
L 633.581738 454.630841 
L 637.96205 454.630841 
L 637.96205 449.321342 
L 642.342361 449.321342 
L 642.342361 463.480006 
L 646.722672 463.480006 
L 646.722672 478.081128 
L 651.102984 478.081128 
L 651.102984 478.081128 
L 655.483295 478.081128 
L 655.483295 483.833085 
L 659.863606 483.833085 
L 659.863606 485.16046 
L 664.243918 485.16046 
L 664.243918 484.275544 
L 668.624229 484.275544 
L 668.624229 486.930293 
L 673.00454 486.930293 
L 673.00454 492.68225 
L 677.384852 492.68225 
L 677.384852 493.567167 
L 681.765163 493.567167 
L 681.765163 490.469959 
L 686.145474 490.469959 
L 686.145474 493.124709 
L 690.525785 493.124709 
L 690.525785 493.124709 
L 694.906097 493.124709 
L 694.906097 494.009625 
" clip-path="url(#pfced1b7cf6)" style="fill: #808080; fill-opacity: 0.4; stroke: #000000; stroke-width: 1.1; stroke-linejoin: miter"/>
   </g>
   <g id="patch_33">
    <path d="M 456.851831 494.009625 
L 456.851831 493.597346 
L 465.0785 493.597346 
L 465.0785 494.009625 
L 473.305168 494.009625 
L 473.305168 494.009625 
L 481.531837 494.009625 
L 481.531837 494.009625 
L 489.758505 494.009625 
L 489.758505 494.009625 
L 497.985174 494.009625 
L 497.985174 494.009625 
L 506.211842 494.009625 
L 506.211842 494.009625 
L 514.438511 494.009625 
L 514.438511 494.009625 
L 522.665179 494.009625 
L 522.665179 493.656243 
L 530.891848 493.656243 
L 530.891848 494.009625 
L 539.118516 494.009625 
L 539.118516 493.71514 
L 547.345185 493.71514 
L 547.345185 493.71514 
L 555.571853 493.71514 
L 555.571853 492.949479 
L 563.798522 492.949479 
L 563.798522 493.067273 
L 572.025191 493.067273 
L 572.025191 492.478303 
L 580.251859 492.478303 
L 580.251859 491.948229 
L 588.478528 491.948229 
L 588.478528 491.418156 
L 596.705196 491.418156 
L 596.705196 489.651246 
L 604.931865 489.651246 
L 604.931865 486.529704 
L 613.158533 486.529704 
L 613.158533 482.171325 
L 621.385202 482.171325 
L 621.385202 475.339271 
L 629.61187 475.339271 
L 629.61187 459.260387 
L 637.838539 459.260387 
L 637.838539 453.724067 
L 646.065207 453.724067 
L 646.065207 476.16383 
L 654.291876 476.16383 
L 654.291876 486.058528 
L 662.518544 486.058528 
L 662.518544 488.237718 
L 670.745213 488.237718 
L 670.745213 491.182568 
L 678.971881 491.182568 
L 678.971881 492.5372 
L 687.19855 492.5372 
L 687.19855 492.890582 
L 695.425218 492.890582 
L 695.425218 493.71514 
L 703.651887 493.71514 
L 703.651887 494.009625 
" clip-path="url(#pfced1b7cf6)" style="fill: none; stroke: #ff4126; stroke-width: 1.1; stroke-linejoin: miter"/>
   </g>
   <g id="matplotlib.axis_7">
    <g id="xtick_22">
     <g id="line2d_58">
      <g>
       <use xlink:href="#mdb0d6bbe77" x="476.6925" y="504.009625" style="stroke: #000000; stroke-width: 1.5"/>
      </g>
     </g>
     <g id="text_58">
      <!-- −6 -->
      <g transform="translate(466.372969 524.147437) scale(0.14 -0.14)">
       <use xlink:href="#DejaVuSans-2212"/>
       <use xlink:href="#DejaVuSans-36" x="83.789062"/>
      </g>
     </g>
    </g>
    <g id="xtick_23">
     <g id="line2d_59">
      <g>
       <use xlink:href="#mdb0d6bbe77" x="535.94" y="504.009625" style="stroke: #000000; stroke-width: 1.5"/>
      </g>
     </g>
     <g id="text_59">
      <!-- −4 -->
      <g transform="translate(525.620469 524.147437) scale(0.14 -0.14)">
       <use xlink:href="#DejaVuSans-2212"/>
       <use xlink:href="#DejaVuSans-34" x="83.789062"/>
      </g>
     </g>
    </g>
    <g id="xtick_24">
     <g id="line2d_60">
      <g>
       <use xlink:href="#mdb0d6bbe77" x="595.1875" y="504.009625" style="stroke: #000000; stroke-width: 1.5"/>
      </g>
     </g>
     <g id="text_60">
      <!-- −2 -->
      <g transform="translate(584.867969 524.147437) scale(0.14 -0.14)">
       <use xlink:href="#DejaVuSans-2212"/>
       <use xlink:href="#DejaVuSans-32" x="83.789062"/>
      </g>
     </g>
    </g>
    <g id="xtick_25">
     <g id="line2d_61">
      <g>
       <use xlink:href="#mdb0d6bbe77" x="654.435" y="504.009625" style="stroke: #000000; stroke-width: 1.5"/>
      </g>
     </g>
     <g id="text_61">
      <!-- 0 -->
      <g transform="translate(649.98125 524.147437) scale(0.14 -0.14)">
       <use xlink:href="#DejaVuSans-30"/>
      </g>
     </g>
    </g>
    <g id="xtick_26">
     <g id="line2d_62">
      <g>
       <use xlink:href="#mdb0d6bbe77" x="713.6825" y="504.009625" style="stroke: #000000; stroke-width: 1.5"/>
      </g>
     </g>
     <g id="text_62">
      <!-- 2 -->
      <g transform="translate(709.22875 524.147437) scale(0.14 -0.14)">
       <use xlink:href="#DejaVuSans-32"/>
      </g>
     </g>
    </g>
    <g id="xtick_27">
     <g id="line2d_63">
      <g>
       <use xlink:href="#mdb0d6bbe77" x="772.93" y="504.009625" style="stroke: #000000; stroke-width: 1.5"/>
      </g>
     </g>
     <g id="text_63">
      <!-- 4 -->
      <g transform="translate(768.47625 524.147437) scale(0.14 -0.14)">
       <use xlink:href="#DejaVuSans-34"/>
      </g>
     </g>
    </g>
    <g id="xtick_28">
     <g id="line2d_64">
      <g>
       <use xlink:href="#mdb0d6bbe77" x="832.1775" y="504.009625" style="stroke: #000000; stroke-width: 1.5"/>
      </g>
     </g>
     <g id="text_64">
      <!-- 6 -->
      <g transform="translate(827.72375 524.147437) scale(0.14 -0.14)">
       <use xlink:href="#DejaVuSans-36"/>
      </g>
     </g>
    </g>
    <g id="text_65">
     <!-- Fitness effect $(\Delta)$ -->
     <g transform="translate(586.275 543.2165) scale(0.16 -0.16)">
      <use xlink:href="#DejaVuSans-46" transform="translate(0 0.015625)"/>
      <use xlink:href="#DejaVuSans-69" transform="translate(57.519531 0.015625)"/>
      <use xlink:href="#DejaVuSans-74" transform="translate(85.302734 0.015625)"/>
      <use xlink:href="#DejaVuSans-6e" transform="translate(124.511719 0.015625)"/>
      <use xlink:href="#DejaVuSans-65" transform="translate(187.890625 0.015625)"/>
      <use xlink:href="#DejaVuSans-73" transform="translate(249.414062 0.015625)"/>
      <use xlink:href="#DejaVuSans-73" transform="translate(301.513672 0.015625)"/>
      <use xlink:href="#DejaVuSans-20" transform="translate(353.613281 0.015625)"/>
      <use xlink:href="#DejaVuSans-65" transform="translate(385.400391 0.015625)"/>
      <use xlink:href="#DejaVuSans-66" transform="translate(446.923828 0.015625)"/>
      <use xlink:href="#DejaVuSans-66" transform="translate(482.128906 0.015625)"/>
      <use xlink:href="#DejaVuSans-65" transform="translate(517.333984 0.015625)"/>
      <use xlink:href="#DejaVuSans-63" transform="translate(578.857422 0.015625)"/>
      <use xlink:href="#DejaVuSans-74" transform="translate(633.837891 0.015625)"/>
      <use xlink:href="#DejaVuSans-20" transform="translate(673.046875 0.015625)"/>
      <use xlink:href="#DejaVuSans-28" transform="translate(704.833984 0.015625)"/>
      <use xlink:href="#DejaVuSans-394" transform="translate(743.847656 0.015625)"/>
      <use xlink:href="#DejaVuSans-29" transform="translate(812.255859 0.015625)"/>
     </g>
    </g>
    <g id="text_66">
     <!-- 1e−2 -->
     <g transform="translate(794.016562 540.696812) scale(0.14 -0.14)">
      <use xlink:href="#DejaVuSans-31"/>
      <use xlink:href="#DejaVuSans-65" x="63.623047"/>
      <use xlink:href="#DejaVuSans-2212" x="125.146484"/>
      <use xlink:href="#DejaVuSans-32" x="208.935547"/>
     </g>
    </g>
   </g>
   <g id="matplotlib.axis_8">
    <g id="ytick_16">
     <g id="line2d_65">
      <g>
       <use xlink:href="#m3b4078ee13" x="466.6925" y="494.009625" style="stroke: #000000; stroke-width: 1.5"/>
      </g>
     </g>
     <g id="text_67">
      <!-- 0 -->
      <g transform="translate(448.285 499.328531) scale(0.14 -0.14)">
       <use xlink:href="#DejaVuSans-30"/>
      </g>
     </g>
    </g>
    <g id="ytick_17">
     <g id="line2d_66">
      <g>
       <use xlink:href="#m3b4078ee13" x="466.6925" y="448.409082" style="stroke: #000000; stroke-width: 1.5"/>
      </g>
     </g>
     <g id="text_68">
      <!-- 100 -->
      <g transform="translate(430.47 453.727988) scale(0.14 -0.14)">
       <use xlink:href="#DejaVuSans-31"/>
       <use xlink:href="#DejaVuSans-30" x="63.623047"/>
       <use xlink:href="#DejaVuSans-30" x="127.246094"/>
      </g>
     </g>
    </g>
    <g id="ytick_18">
     <g id="line2d_67">
      <g>
       <use xlink:href="#m3b4078ee13" x="466.6925" y="402.808539" style="stroke: #000000; stroke-width: 1.5"/>
      </g>
     </g>
     <g id="text_69">
      <!-- 200 -->
      <g transform="translate(430.47 408.127445) scale(0.14 -0.14)">
       <use xlink:href="#DejaVuSans-32"/>
       <use xlink:href="#DejaVuSans-30" x="63.623047"/>
       <use xlink:href="#DejaVuSans-30" x="127.246094"/>
      </g>
     </g>
    </g>
    <g id="ytick_19">
     <g id="line2d_68">
      <g>
       <use xlink:href="#m3b4078ee13" x="466.6925" y="357.207996" style="stroke: #000000; stroke-width: 1.5"/>
      </g>
     </g>
     <g id="text_70">
      <!-- 300 -->
      <g transform="translate(430.47 362.526902) scale(0.14 -0.14)">
       <use xlink:href="#DejaVuSans-33"/>
       <use xlink:href="#DejaVuSans-30" x="63.623047"/>
       <use xlink:href="#DejaVuSans-30" x="127.246094"/>
      </g>
     </g>
    </g>
   </g>
   <g id="line2d_69">
    <path d="M 494.46675 474.603431 
L 814.40325 474.603431 
" clip-path="url(#pfced1b7cf6)" style="fill: none; stroke-dasharray: 3.7,1.6; stroke-dashoffset: 0; stroke: #808080"/>
   </g>
   <g id="line2d_70">
    <path d="M 476.6925 494.351629 
L 494.46675 474.603431 
" clip-path="url(#pfced1b7cf6)" style="fill: none; stroke-dasharray: 3.7,1.6; stroke-dashoffset: 0; stroke: #808080"/>
   </g>
   <g id="line2d_71">
    <path d="M 832.1775 494.351629 
L 814.40325 474.603431 
" clip-path="url(#pfced1b7cf6)" style="fill: none; stroke-dasharray: 3.7,1.6; stroke-dashoffset: 0; stroke: #808080"/>
   </g>
   <g id="line2d_72">
    <path d="M 565.56375 494.351629 
L 574.450875 474.603431 
" clip-path="url(#pfced1b7cf6)" style="fill: none; stroke-dasharray: 3.7,1.6; stroke-dashoffset: 0; stroke: #808080"/>
   </g>
   <g id="line2d_73">
    <path d="M 743.30625 494.351629 
L 734.419125 474.603431 
" clip-path="url(#pfced1b7cf6)" style="fill: none; stroke-dasharray: 3.7,1.6; stroke-dashoffset: 0; stroke: #808080"/>
   </g>
   <g id="line2d_74">
    <path d="M 654.435 494.351629 
L 654.435 474.603431 
" clip-path="url(#pfced1b7cf6)" style="fill: none; stroke-dasharray: 3.7,1.6; stroke-dashoffset: 0; stroke: #808080"/>
   </g>
   <g id="patch_34">
    <path d="M 466.6925 494.009625 
L 466.6925 313.029625 
" style="fill: none; stroke: #000000; stroke-width: 1.5; stroke-linejoin: miter; stroke-linecap: square"/>
   </g>
   <g id="patch_35">
    <path d="M 476.6925 504.009625 
L 832.1775 504.009625 
" style="fill: none; stroke: #000000; stroke-width: 1.5; stroke-linejoin: miter; stroke-linecap: square"/>
   </g>
   <g id="text_71">
    <!-- D -->
    <g transform="translate(441.144 300.237187) scale(0.18 -0.18)">
     <defs>
      <path id="DejaVuSans-Bold-44" d="M 1791 3756 
L 1791 909 
L 2222 909 
Q 2959 909 3348 1275 
Q 3738 1641 3738 2338 
Q 3738 3031 3350 3393 
Q 2963 3756 2222 3756 
L 1791 3756 
z
M 588 4666 
L 1856 4666 
Q 2919 4666 3439 4514 
Q 3959 4363 4331 4000 
Q 4659 3684 4818 3271 
Q 4978 2859 4978 2338 
Q 4978 1809 4818 1395 
Q 4659 981 4331 666 
Q 3956 303 3431 151 
Q 2906 0 1856 0 
L 588 0 
L 588 4666 
z
" transform="scale(0.015625)"/>
     </defs>
     <use xlink:href="#DejaVuSans-Bold-44"/>
    </g>
   </g>
   <g id="text_72">
    <!-- $p_{KS} = 0.15$ -->
    <g transform="translate(494.46675 331.172375) scale(0.12 -0.12)">
     <use xlink:href="#DejaVuSans-Oblique-70" transform="translate(0 0.78125)"/>
     <use xlink:href="#DejaVuSans-Oblique-4b" transform="translate(63.476562 -15.625) scale(0.7)"/>
     <use xlink:href="#DejaVuSans-Oblique-53" transform="translate(109.379883 -15.625) scale(0.7)"/>
     <use xlink:href="#DejaVuSans-3d" transform="translate(176.030273 0.78125)"/>
     <use xlink:href="#DejaVuSans-30" transform="translate(279.301758 0.78125)"/>
     <use xlink:href="#DejaVuSans-2e" transform="translate(342.924805 0.78125)"/>
     <use xlink:href="#DejaVuSans-31" transform="translate(374.711914 0.78125)"/>
     <use xlink:href="#DejaVuSans-35" transform="translate(438.334961 0.78125)"/>
    </g>
   </g>
   <g id="legend_4">
    <g id="patch_36">
     <path d="M 734.750625 332.94775 
L 758.750625 332.94775 
L 758.750625 324.54775 
L 734.750625 324.54775 
z
" style="fill: #802f95; fill-opacity: 0.75; stroke: #000000; stroke-width: 1.1; stroke-linejoin: miter"/>
    </g>
    <g id="text_73">
     <!-- Evolved -->
     <g transform="translate(768.350625 332.94775) scale(0.12 -0.12)">
      <use xlink:href="#DejaVuSans-45"/>
      <use xlink:href="#DejaVuSans-76" x="63.183594"/>
      <use xlink:href="#DejaVuSans-6f" x="122.363281"/>
      <use xlink:href="#DejaVuSans-6c" x="183.544922"/>
      <use xlink:href="#DejaVuSans-76" x="211.328125"/>
      <use xlink:href="#DejaVuSans-65" x="270.507812"/>
      <use xlink:href="#DejaVuSans-64" x="332.03125"/>
     </g>
    </g>
    <g id="patch_37">
     <path d="M 734.750625 350.5615 
L 758.750625 350.5615 
L 758.750625 342.1615 
L 734.750625 342.1615 
z
" style="fill: #808080; fill-opacity: 0.4; stroke: #000000; stroke-width: 1.1; stroke-linejoin: miter"/>
    </g>
    <g id="text_74">
     <!-- Ancestor -->
     <g transform="translate(768.350625 350.5615) scale(0.12 -0.12)">
      <use xlink:href="#DejaVuSans-41"/>
      <use xlink:href="#DejaVuSans-6e" x="68.408203"/>
      <use xlink:href="#DejaVuSans-63" x="131.787109"/>
      <use xlink:href="#DejaVuSans-65" x="186.767578"/>
      <use xlink:href="#DejaVuSans-73" x="248.291016"/>
      <use xlink:href="#DejaVuSans-74" x="300.390625"/>
      <use xlink:href="#DejaVuSans-6f" x="339.599609"/>
      <use xlink:href="#DejaVuSans-72" x="400.78125"/>
     </g>
    </g>
    <g id="line2d_75">
     <path d="M 734.750625 363.97525 
L 758.750625 363.97525 
" style="fill: none; stroke: #ff4126; stroke-width: 1.1; stroke-linecap: square"/>
    </g>
    <g id="text_75">
     <!-- Anc DFE -->
     <g transform="translate(768.350625 368.17525) scale(0.12 -0.12)">
      <use xlink:href="#DejaVuSans-41"/>
      <use xlink:href="#DejaVuSans-6e" x="68.408203"/>
      <use xlink:href="#DejaVuSans-63" x="131.787109"/>
      <use xlink:href="#DejaVuSans-20" x="186.767578"/>
      <use xlink:href="#DejaVuSans-44" x="218.554688"/>
      <use xlink:href="#DejaVuSans-46" x="295.556641"/>
      <use xlink:href="#DejaVuSans-45" x="353.076172"/>
     </g>
    </g>
   </g>
  </g>
 </g>
 <defs>
  <clipPath id="pc9988a7d70">
   <rect x="53.4225" y="33.669625" width="355.485" height="180.98"/>
  </clipPath>
  <clipPath id="p1421a4d903">
   <rect x="476.6925" y="33.669625" width="355.485" height="180.98"/>
  </clipPath>
  <clipPath id="pdf905c29ca">
   <rect x="53.4225" y="313.029625" width="355.485" height="180.98"/>
  </clipPath>
  <clipPath id="pfced1b7cf6">
   <rect x="476.6925" y="313.029625" width="355.485" height="180.98"/>
  </clipPath>
 </defs>
</svg>
