<?xml version="1.0" encoding="utf-8" standalone="no"?>
<!DOCTYPE svg PUBLIC "-//W3C//DTD SVG 1.1//EN"
  "http://www.w3.org/Graphics/SVG/1.1/DTD/svg11.dtd">
<svg xmlns:xlink="http://www.w3.org/1999/xlink" width="843.74125pt" height="553.744pt" viewBox="0 0 843.74125 553.744" xmlns="http://www.w3.org/2000/svg" version="1.1">
 <metadata>
  <rdf:RDF xmlns:dc="http://purl.org/dc/elements/1.1/" xmlns:cc="http://creativecommons.org/ns#" xmlns:rdf="http://www.w3.org/1999/02/22-rdf-syntax-ns#">
   <cc:Work>
    <dc:type rdf:resource="http://purl.org/dc/dcmitype/StillImage"/>
    <dc:date>2025-11-16T16:40:15.310304</dc:date>
    <dc:format>image/svg+xml</dc:format>
    <dc:creator>
     <cc:Agent>
      <dc:title>Matplotlib v3.9.2, https://matplotlib.org/</dc:title>
     </cc:Agent>
    </dc:creator>
   </cc:Work>
  </rdf:RDF>
 </metadata>
 <defs>
  <style type="text/css">*{stroke-linejoin: round; stroke-linecap: butt}</style>
 </defs>
 <g id="figure_1">
  <g id="patch_1">
   <path d="M 0 553.744 
L 843.74125 553.744 
L 843.74125 0 
L 0 0 
z
" style="fill: #ffffff"/>
  </g>
  <g id="axes_1">
   <g id="patch_2">
    <path d="M 53.4225 214.649625 
L 408.7725 214.649625 
L 408.7725 33.669625 
L 53.4225 33.669625 
z
" style="fill: #ffffff"/>
   </g>
   <g id="patch_3">
    <path d="M 8.914404 214.649625 
L 8.914404 196.625645 
L 22.426563 196.625645 
L 22.426563 197.638735 
L 35.938722 197.638735 
L 35.938722 197.638735 
L 49.450881 197.638735 
L 49.450881 197.638735 
L 62.963039 197.638735 
L 62.963039 197.638735 
L 76.475198 197.638735 
L 76.475198 197.469887 
L 89.987357 197.469887 
L 89.987357 197.301038 
L 103.499516 197.301038 
L 103.499516 197.13219 
L 117.011674 197.13219 
L 117.011674 196.625645 
L 130.523833 196.625645 
L 130.523833 196.794493 
L 144.035992 196.794493 
L 144.035992 194.768313 
L 157.548151 194.768313 
L 157.548151 195.10601 
L 171.060309 195.10601 
L 171.060309 193.417527 
L 184.572468 193.417527 
L 184.572468 189.534015 
L 198.084627 189.534015 
L 198.084627 181.091598 
L 211.596785 181.091598 
L 211.596785 132.125582 
L 225.108944 132.125582 
L 225.108944 96.836281 
L 238.621103 96.836281 
L 238.621103 170.623002 
L 252.133262 170.623002 
L 252.133262 192.06674 
L 265.64542 192.06674 
L 265.64542 196.456797 
L 279.157579 196.456797 
L 279.157579 214.649625 
" clip-path="url(#p629715b416)" style="fill: #802f95; fill-opacity: 0.75; stroke: #000000; stroke-width: 1.1; stroke-linejoin: miter"/>
   </g>
   <g id="patch_4">
    <path d="M 134.312703 214.649625 
L 134.312703 196.057996 
L 139.140865 196.057996 
L 139.140865 197.638735 
L 143.969028 197.638735 
L 143.969028 196.057996 
L 148.79719 196.057996 
L 148.79719 194.793405 
L 153.625353 194.793405 
L 153.625353 195.425701 
L 158.453515 195.425701 
L 158.453515 194.793405 
L 163.281678 194.793405 
L 163.281678 196.690292 
L 168.10984 196.690292 
L 168.10984 196.057996 
L 172.938003 196.057996 
L 172.938003 194.793405 
L 177.766166 194.793405 
L 177.766166 194.16111 
L 182.594328 194.16111 
L 182.594328 190.051189 
L 187.422491 190.051189 
L 187.422491 192.580371 
L 192.250653 192.580371 
L 192.250653 186.573564 
L 197.078816 186.573564 
L 197.078816 182.779792 
L 201.906978 182.779792 
L 201.906978 185.308974 
L 206.735141 185.308974 
L 206.735141 176.772985 
L 211.563303 176.772985 
L 211.563303 162.546337 
L 216.391466 162.546337 
L 216.391466 134.409189 
L 221.219629 134.409189 
L 221.219629 78.134894 
L 226.047791 78.134894 
L 226.047791 68.650462 
L 230.875954 68.650462 
L 230.875954 109.433519 
L 235.704116 109.433519 
L 235.704116 141.048292 
L 240.532279 141.048292 
L 240.532279 164.443224 
L 245.360441 164.443224 
L 245.360441 181.515201 
L 250.188604 181.515201 
L 250.188604 184.676678 
L 255.016766 184.676678 
L 255.016766 189.102746 
L 259.844929 189.102746 
L 259.844929 192.580371 
L 264.673092 192.580371 
L 264.673092 194.477258 
L 269.501254 194.477258 
L 269.501254 196.690292 
L 274.329417 196.690292 
L 274.329417 194.16111 
L 279.157579 194.16111 
L 279.157579 214.649625 
" clip-path="url(#p629715b416)" style="fill: none; stroke: #ff4126; stroke-width: 1.1; stroke-linejoin: miter"/>
   </g>
   <g id="patch_5">
    <path d="M 53.4225 214.649625 
L 408.7725 214.649625 
L 408.7725 197.638735 
L 53.4225 197.638735 
z
" clip-path="url(#p629715b416)" style="fill: #ffffff"/>
   </g>
   <g id="patch_6">
    <path d="M 121.435828 214.649625 
L 121.435828 212.258216 
L 127.139869 212.258216 
L 127.139869 214.251057 
L 132.84391 214.251057 
L 132.84391 213.055352 
L 138.547952 213.055352 
L 138.547952 213.852489 
L 144.251993 213.852489 
L 144.251993 211.062511 
L 149.956034 211.062511 
L 149.956034 213.45392 
L 155.660075 213.45392 
L 155.660075 211.062511 
L 161.364116 211.062511 
L 161.364116 209.866807 
L 167.068157 209.866807 
L 167.068157 207.873966 
L 172.772198 207.873966 
L 172.772198 208.671102 
L 178.476239 208.671102 
L 178.476239 209.06967 
L 184.18028 209.06967 
L 184.18028 207.07683 
L 189.884321 207.07683 
L 189.884321 203.091148 
L 195.588363 203.091148 
L 195.588363 194.721216 
L 201.292404 194.721216 
L 201.292404 187.546988 
L 206.996445 187.546988 
L 206.996445 179.177057 
L 212.700486 179.177057 
L 212.700486 162.835761 
L 218.404527 162.835761 
L 218.404527 127.761761 
L 224.108568 127.761761 
L 224.108568 81.92642 
L 229.812609 81.92642 
L 229.812609 60.00517 
L 235.51665 60.00517 
L 235.51665 214.649625 
" clip-path="url(#p629715b416)" style="fill: #808080; fill-opacity: 0.4; stroke: #000000; stroke-width: 1.1; stroke-linejoin: miter"/>
   </g>
   <g id="matplotlib.axis_1">
    <g id="xtick_1">
     <g id="line2d_1">
      <defs>
       <path id="m065720b6d1" d="M 0 0 
L 0 6 
" style="stroke: #000000; stroke-width: 1.5"/>
      </defs>
      <g>
       <use xlink:href="#m065720b6d1" x="53.4225" y="224.649625" style="stroke: #000000; stroke-width: 1.5"/>
      </g>
     </g>
     <g id="text_1">
      <!-- −6 -->
      <g transform="translate(43.102969 244.787437) scale(0.14 -0.14)">
       <defs>
        <path id="DejaVuSans-2212" d="M 678 2272 
L 4684 2272 
L 4684 1741 
L 678 1741 
L 678 2272 
z
" transform="scale(0.015625)"/>
        <path id="DejaVuSans-36" d="M 2113 2584 
Q 1688 2584 1439 2293 
Q 1191 2003 1191 1497 
Q 1191 994 1439 701 
Q 1688 409 2113 409 
Q 2538 409 2786 701 
Q 3034 994 3034 1497 
Q 3034 2003 2786 2293 
Q 2538 2584 2113 2584 
z
M 3366 4563 
L 3366 3988 
Q 3128 4100 2886 4159 
Q 2644 4219 2406 4219 
Q 1781 4219 1451 3797 
Q 1122 3375 1075 2522 
Q 1259 2794 1537 2939 
Q 1816 3084 2150 3084 
Q 2853 3084 3261 2657 
Q 3669 2231 3669 1497 
Q 3669 778 3244 343 
Q 2819 -91 2113 -91 
Q 1303 -91 875 529 
Q 447 1150 447 2328 
Q 447 3434 972 4092 
Q 1497 4750 2381 4750 
Q 2619 4750 2861 4703 
Q 3103 4656 3366 4563 
z
" transform="scale(0.015625)"/>
       </defs>
       <use xlink:href="#DejaVuSans-2212"/>
       <use xlink:href="#DejaVuSans-36" x="83.789062"/>
      </g>
     </g>
    </g>
    <g id="xtick_2">
     <g id="line2d_2">
      <g>
       <use xlink:href="#m065720b6d1" x="112.6475" y="224.649625" style="stroke: #000000; stroke-width: 1.5"/>
      </g>
     </g>
     <g id="text_2">
      <!-- −4 -->
      <g transform="translate(102.327969 244.787437) scale(0.14 -0.14)">
       <defs>
        <path id="DejaVuSans-34" d="M 2419 4116 
L 825 1625 
L 2419 1625 
L 2419 4116 
z
M 2253 4666 
L 3047 4666 
L 3047 1625 
L 3713 1625 
L 3713 1100 
L 3047 1100 
L 3047 0 
L 2419 0 
L 2419 1100 
L 313 1100 
L 313 1709 
L 2253 4666 
z
" transform="scale(0.015625)"/>
       </defs>
       <use xlink:href="#DejaVuSans-2212"/>
       <use xlink:href="#DejaVuSans-34" x="83.789062"/>
      </g>
     </g>
    </g>
    <g id="xtick_3">
     <g id="line2d_3">
      <g>
       <use xlink:href="#m065720b6d1" x="171.8725" y="224.649625" style="stroke: #000000; stroke-width: 1.5"/>
      </g>
     </g>
     <g id="text_3">
      <!-- −2 -->
      <g transform="translate(161.552969 244.787437) scale(0.14 -0.14)">
       <defs>
        <path id="DejaVuSans-32" d="M 1228 531 
L 3431 531 
L 3431 0 
L 469 0 
L 469 531 
Q 828 903 1448 1529 
Q 2069 2156 2228 2338 
Q 2531 2678 2651 2914 
Q 2772 3150 2772 3378 
Q 2772 3750 2511 3984 
Q 2250 4219 1831 4219 
Q 1534 4219 1204 4116 
Q 875 4013 500 3803 
L 500 4441 
Q 881 4594 1212 4672 
Q 1544 4750 1819 4750 
Q 2544 4750 2975 4387 
Q 3406 4025 3406 3419 
Q 3406 3131 3298 2873 
Q 3191 2616 2906 2266 
Q 2828 2175 2409 1742 
Q 1991 1309 1228 531 
z
" transform="scale(0.015625)"/>
       </defs>
       <use xlink:href="#DejaVuSans-2212"/>
       <use xlink:href="#DejaVuSans-32" x="83.789062"/>
      </g>
     </g>
    </g>
    <g id="xtick_4">
     <g id="line2d_4">
      <g>
       <use xlink:href="#m065720b6d1" x="231.0975" y="224.649625" style="stroke: #000000; stroke-width: 1.5"/>
      </g>
     </g>
     <g id="text_4">
      <!-- 0 -->
      <g transform="translate(226.64375 244.787437) scale(0.14 -0.14)">
       <defs>
        <path id="DejaVuSans-30" d="M 2034 4250 
Q 1547 4250 1301 3770 
Q 1056 3291 1056 2328 
Q 1056 1369 1301 889 
Q 1547 409 2034 409 
Q 2525 409 2770 889 
Q 3016 1369 3016 2328 
Q 3016 3291 2770 3770 
Q 2525 4250 2034 4250 
z
M 2034 4750 
Q 2819 4750 3233 4129 
Q 3647 3509 3647 2328 
Q 3647 1150 3233 529 
Q 2819 -91 2034 -91 
Q 1250 -91 836 529 
Q 422 1150 422 2328 
Q 422 3509 836 4129 
Q 1250 4750 2034 4750 
z
" transform="scale(0.015625)"/>
       </defs>
       <use xlink:href="#DejaVuSans-30"/>
      </g>
     </g>
    </g>
    <g id="xtick_5">
     <g id="line2d_5">
      <g>
       <use xlink:href="#m065720b6d1" x="290.3225" y="224.649625" style="stroke: #000000; stroke-width: 1.5"/>
      </g>
     </g>
     <g id="text_5">
      <!-- 2 -->
      <g transform="translate(285.86875 244.787437) scale(0.14 -0.14)">
       <use xlink:href="#DejaVuSans-32"/>
      </g>
     </g>
    </g>
    <g id="xtick_6">
     <g id="line2d_6">
      <g>
       <use xlink:href="#m065720b6d1" x="349.5475" y="224.649625" style="stroke: #000000; stroke-width: 1.5"/>
      </g>
     </g>
     <g id="text_6">
      <!-- 4 -->
      <g transform="translate(345.09375 244.787437) scale(0.14 -0.14)">
       <use xlink:href="#DejaVuSans-34"/>
      </g>
     </g>
    </g>
    <g id="xtick_7">
     <g id="line2d_7">
      <g>
       <use xlink:href="#m065720b6d1" x="408.7725" y="224.649625" style="stroke: #000000; stroke-width: 1.5"/>
      </g>
     </g>
     <g id="text_7">
      <!-- 6 -->
      <g transform="translate(404.31875 244.787437) scale(0.14 -0.14)">
       <use xlink:href="#DejaVuSans-36"/>
      </g>
     </g>
    </g>
    <g id="text_8">
     <!-- Fitness effect $(\Delta)$ -->
     <g transform="translate(162.9375 263.8565) scale(0.16 -0.16)">
      <defs>
       <path id="DejaVuSans-46" d="M 628 4666 
L 3309 4666 
L 3309 4134 
L 1259 4134 
L 1259 2759 
L 3109 2759 
L 3109 2228 
L 1259 2228 
L 1259 0 
L 628 0 
L 628 4666 
z
" transform="scale(0.015625)"/>
       <path id="DejaVuSans-69" d="M 603 3500 
L 1178 3500 
L 1178 0 
L 603 0 
L 603 3500 
z
M 603 4863 
L 1178 4863 
L 1178 4134 
L 603 4134 
L 603 4863 
z
" transform="scale(0.015625)"/>
       <path id="DejaVuSans-74" d="M 1172 4494 
L 1172 3500 
L 2356 3500 
L 2356 3053 
L 1172 3053 
L 1172 1153 
Q 1172 725 1289 603 
Q 1406 481 1766 481 
L 2356 481 
L 2356 0 
L 1766 0 
Q 1100 0 847 248 
Q 594 497 594 1153 
L 594 3053 
L 172 3053 
L 172 3500 
L 594 3500 
L 594 4494 
L 1172 4494 
z
" transform="scale(0.015625)"/>
       <path id="DejaVuSans-6e" d="M 3513 2113 
L 3513 0 
L 2938 0 
L 2938 2094 
Q 2938 2591 2744 2837 
Q 2550 3084 2163 3084 
Q 1697 3084 1428 2787 
Q 1159 2491 1159 1978 
L 1159 0 
L 581 0 
L 581 3500 
L 1159 3500 
L 1159 2956 
Q 1366 3272 1645 3428 
Q 1925 3584 2291 3584 
Q 2894 3584 3203 3211 
Q 3513 2838 3513 2113 
z
" transform="scale(0.015625)"/>
       <path id="DejaVuSans-65" d="M 3597 1894 
L 3597 1613 
L 953 1613 
Q 991 1019 1311 708 
Q 1631 397 2203 397 
Q 2534 397 2845 478 
Q 3156 559 3463 722 
L 3463 178 
Q 3153 47 2828 -22 
Q 2503 -91 2169 -91 
Q 1331 -91 842 396 
Q 353 884 353 1716 
Q 353 2575 817 3079 
Q 1281 3584 2069 3584 
Q 2775 3584 3186 3129 
Q 3597 2675 3597 1894 
z
M 3022 2063 
Q 3016 2534 2758 2815 
Q 2500 3097 2075 3097 
Q 1594 3097 1305 2825 
Q 1016 2553 972 2059 
L 3022 2063 
z
" transform="scale(0.015625)"/>
       <path id="DejaVuSans-73" d="M 2834 3397 
L 2834 2853 
Q 2591 2978 2328 3040 
Q 2066 3103 1784 3103 
Q 1356 3103 1142 2972 
Q 928 2841 928 2578 
Q 928 2378 1081 2264 
Q 1234 2150 1697 2047 
L 1894 2003 
Q 2506 1872 2764 1633 
Q 3022 1394 3022 966 
Q 3022 478 2636 193 
Q 2250 -91 1575 -91 
Q 1294 -91 989 -36 
Q 684 19 347 128 
L 347 722 
Q 666 556 975 473 
Q 1284 391 1588 391 
Q 1994 391 2212 530 
Q 2431 669 2431 922 
Q 2431 1156 2273 1281 
Q 2116 1406 1581 1522 
L 1381 1569 
Q 847 1681 609 1914 
Q 372 2147 372 2553 
Q 372 3047 722 3315 
Q 1072 3584 1716 3584 
Q 2034 3584 2315 3537 
Q 2597 3491 2834 3397 
z
" transform="scale(0.015625)"/>
       <path id="DejaVuSans-20" transform="scale(0.015625)"/>
       <path id="DejaVuSans-66" d="M 2375 4863 
L 2375 4384 
L 1825 4384 
Q 1516 4384 1395 4259 
Q 1275 4134 1275 3809 
L 1275 3500 
L 2222 3500 
L 2222 3053 
L 1275 3053 
L 1275 0 
L 697 0 
L 697 3053 
L 147 3053 
L 147 3500 
L 697 3500 
L 697 3744 
Q 697 4328 969 4595 
Q 1241 4863 1831 4863 
L 2375 4863 
z
" transform="scale(0.015625)"/>
       <path id="DejaVuSans-63" d="M 3122 3366 
L 3122 2828 
Q 2878 2963 2633 3030 
Q 2388 3097 2138 3097 
Q 1578 3097 1268 2742 
Q 959 2388 959 1747 
Q 959 1106 1268 751 
Q 1578 397 2138 397 
Q 2388 397 2633 464 
Q 2878 531 3122 666 
L 3122 134 
Q 2881 22 2623 -34 
Q 2366 -91 2075 -91 
Q 1284 -91 818 406 
Q 353 903 353 1747 
Q 353 2603 823 3093 
Q 1294 3584 2113 3584 
Q 2378 3584 2631 3529 
Q 2884 3475 3122 3366 
z
" transform="scale(0.015625)"/>
       <path id="DejaVuSans-28" d="M 1984 4856 
Q 1566 4138 1362 3434 
Q 1159 2731 1159 2009 
Q 1159 1288 1364 580 
Q 1569 -128 1984 -844 
L 1484 -844 
Q 1016 -109 783 600 
Q 550 1309 550 2009 
Q 550 2706 781 3412 
Q 1013 4119 1484 4856 
L 1984 4856 
z
" transform="scale(0.015625)"/>
       <path id="DejaVuSans-394" d="M 2188 4044 
L 906 525 
L 3472 525 
L 2188 4044 
z
M 50 0 
L 1831 4666 
L 2547 4666 
L 4325 0 
L 50 0 
z
" transform="scale(0.015625)"/>
       <path id="DejaVuSans-29" d="M 513 4856 
L 1013 4856 
Q 1481 4119 1714 3412 
Q 1947 2706 1947 2009 
Q 1947 1309 1714 600 
Q 1481 -109 1013 -844 
L 513 -844 
Q 928 -128 1133 580 
Q 1338 1288 1338 2009 
Q 1338 2731 1133 3434 
Q 928 4138 513 4856 
z
" transform="scale(0.015625)"/>
      </defs>
      <use xlink:href="#DejaVuSans-46" transform="translate(0 0.015625)"/>
      <use xlink:href="#DejaVuSans-69" transform="translate(57.519531 0.015625)"/>
      <use xlink:href="#DejaVuSans-74" transform="translate(85.302734 0.015625)"/>
      <use xlink:href="#DejaVuSans-6e" transform="translate(124.511719 0.015625)"/>
      <use xlink:href="#DejaVuSans-65" transform="translate(187.890625 0.015625)"/>
      <use xlink:href="#DejaVuSans-73" transform="translate(249.414062 0.015625)"/>
      <use xlink:href="#DejaVuSans-73" transform="translate(301.513672 0.015625)"/>
      <use xlink:href="#DejaVuSans-20" transform="translate(353.613281 0.015625)"/>
      <use xlink:href="#DejaVuSans-65" transform="translate(385.400391 0.015625)"/>
      <use xlink:href="#DejaVuSans-66" transform="translate(446.923828 0.015625)"/>
      <use xlink:href="#DejaVuSans-66" transform="translate(482.128906 0.015625)"/>
      <use xlink:href="#DejaVuSans-65" transform="translate(517.333984 0.015625)"/>
      <use xlink:href="#DejaVuSans-63" transform="translate(578.857422 0.015625)"/>
      <use xlink:href="#DejaVuSans-74" transform="translate(633.837891 0.015625)"/>
      <use xlink:href="#DejaVuSans-20" transform="translate(673.046875 0.015625)"/>
      <use xlink:href="#DejaVuSans-28" transform="translate(704.833984 0.015625)"/>
      <use xlink:href="#DejaVuSans-394" transform="translate(743.847656 0.015625)"/>
      <use xlink:href="#DejaVuSans-29" transform="translate(812.255859 0.015625)"/>
     </g>
    </g>
    <g id="text_9">
     <!-- 1e−2 -->
     <g transform="translate(370.611562 261.336812) scale(0.14 -0.14)">
      <defs>
       <path id="DejaVuSans-31" d="M 794 531 
L 1825 531 
L 1825 4091 
L 703 3866 
L 703 4441 
L 1819 4666 
L 2450 4666 
L 2450 531 
L 3481 531 
L 3481 0 
L 794 0 
L 794 531 
z
" transform="scale(0.015625)"/>
      </defs>
      <use xlink:href="#DejaVuSans-31"/>
      <use xlink:href="#DejaVuSans-65" x="63.623047"/>
      <use xlink:href="#DejaVuSans-2212" x="125.146484"/>
      <use xlink:href="#DejaVuSans-32" x="208.935547"/>
     </g>
    </g>
   </g>
   <g id="matplotlib.axis_2">
    <g id="ytick_1">
     <g id="line2d_8">
      <defs>
       <path id="mb76393e15f" d="M 0 0 
L -6 0 
" style="stroke: #000000; stroke-width: 1.5"/>
      </defs>
      <g>
       <use xlink:href="#mb76393e15f" x="43.4225" y="214.649625" style="stroke: #000000; stroke-width: 1.5"/>
      </g>
     </g>
     <g id="text_10">
      <!-- 0 -->
      <g transform="translate(25.015 219.968531) scale(0.14 -0.14)">
       <use xlink:href="#DejaVuSans-30"/>
      </g>
     </g>
    </g>
    <g id="ytick_2">
     <g id="line2d_9">
      <g>
       <use xlink:href="#mb76393e15f" x="43.4225" y="160.29413" style="stroke: #000000; stroke-width: 1.5"/>
      </g>
     </g>
     <g id="text_11">
      <!-- 50 -->
      <g transform="translate(16.1075 165.613036) scale(0.14 -0.14)">
       <defs>
        <path id="DejaVuSans-35" d="M 691 4666 
L 3169 4666 
L 3169 4134 
L 1269 4134 
L 1269 2991 
Q 1406 3038 1543 3061 
Q 1681 3084 1819 3084 
Q 2600 3084 3056 2656 
Q 3513 2228 3513 1497 
Q 3513 744 3044 326 
Q 2575 -91 1722 -91 
Q 1428 -91 1123 -41 
Q 819 9 494 109 
L 494 744 
Q 775 591 1075 516 
Q 1375 441 1709 441 
Q 2250 441 2565 725 
Q 2881 1009 2881 1497 
Q 2881 1984 2565 2268 
Q 2250 2553 1709 2553 
Q 1456 2553 1204 2497 
Q 953 2441 691 2322 
L 691 4666 
z
" transform="scale(0.015625)"/>
       </defs>
       <use xlink:href="#DejaVuSans-35"/>
       <use xlink:href="#DejaVuSans-30" x="63.623047"/>
      </g>
     </g>
    </g>
    <g id="ytick_3">
     <g id="line2d_10">
      <g>
       <use xlink:href="#mb76393e15f" x="43.4225" y="105.938634" style="stroke: #000000; stroke-width: 1.5"/>
      </g>
     </g>
     <g id="text_12">
      <!-- 100 -->
      <g transform="translate(7.2 111.257541) scale(0.14 -0.14)">
       <use xlink:href="#DejaVuSans-31"/>
       <use xlink:href="#DejaVuSans-30" x="63.623047"/>
       <use xlink:href="#DejaVuSans-30" x="127.246094"/>
      </g>
     </g>
    </g>
    <g id="ytick_4">
     <g id="line2d_11">
      <g>
       <use xlink:href="#mb76393e15f" x="43.4225" y="51.583139" style="stroke: #000000; stroke-width: 1.5"/>
      </g>
     </g>
     <g id="text_13">
      <!-- 150 -->
      <g transform="translate(7.2 56.902045) scale(0.14 -0.14)">
       <use xlink:href="#DejaVuSans-31"/>
       <use xlink:href="#DejaVuSans-35" x="63.623047"/>
       <use xlink:href="#DejaVuSans-30" x="127.246094"/>
      </g>
     </g>
    </g>
   </g>
   <g id="line2d_12">
    <path d="M 71.19 195.937646 
L 391.005 195.937646 
" clip-path="url(#p629715b416)" style="fill: none; stroke-dasharray: 3.7,1.6; stroke-dashoffset: 0; stroke: #808080"/>
   </g>
   <g id="line2d_13">
    <path d="M 53.4225 215.464957 
L 71.19 195.937646 
" clip-path="url(#p629715b416)" style="fill: none; stroke-dasharray: 3.7,1.6; stroke-dashoffset: 0; stroke: #808080"/>
   </g>
   <g id="line2d_14">
    <path d="M 408.7725 215.464957 
L 391.005 195.937646 
" clip-path="url(#p629715b416)" style="fill: none; stroke-dasharray: 3.7,1.6; stroke-dashoffset: 0; stroke: #808080"/>
   </g>
   <g id="line2d_15">
    <path d="M 142.26 215.464957 
L 151.14375 195.937646 
" clip-path="url(#p629715b416)" style="fill: none; stroke-dasharray: 3.7,1.6; stroke-dashoffset: 0; stroke: #808080"/>
   </g>
   <g id="line2d_16">
    <path d="M 319.935 215.464957 
L 311.05125 195.937646 
" clip-path="url(#p629715b416)" style="fill: none; stroke-dasharray: 3.7,1.6; stroke-dashoffset: 0; stroke: #808080"/>
   </g>
   <g id="line2d_17">
    <path d="M 231.0975 215.464957 
L 231.0975 195.937646 
" clip-path="url(#p629715b416)" style="fill: none; stroke-dasharray: 3.7,1.6; stroke-dashoffset: 0; stroke: #808080"/>
   </g>
   <g id="patch_7">
    <path d="M 43.4225 214.649625 
L 43.4225 33.669625 
" style="fill: none; stroke: #000000; stroke-width: 1.5; stroke-linejoin: miter; stroke-linecap: square"/>
   </g>
   <g id="patch_8">
    <path d="M 53.4225 224.649625 
L 408.7725 224.649625 
" style="fill: none; stroke: #000000; stroke-width: 1.5; stroke-linejoin: miter; stroke-linecap: square"/>
   </g>
   <g id="text_14">
    <!-- A -->
    <g transform="translate(17.8875 20.877187) scale(0.18 -0.18)">
     <defs>
      <path id="DejaVuSans-Bold-41" d="M 3419 850 
L 1538 850 
L 1241 0 
L 31 0 
L 1759 4666 
L 3194 4666 
L 4922 0 
L 3713 0 
L 3419 850 
z
M 1838 1716 
L 3116 1716 
L 2478 3572 
L 1838 1716 
z
" transform="scale(0.015625)"/>
     </defs>
     <use xlink:href="#DejaVuSans-Bold-41"/>
    </g>
   </g>
   <g id="text_15">
    <!-- $p_{KS} = 0.43$ -->
    <g transform="translate(71.19 51.812375) scale(0.12 -0.12)">
     <defs>
      <path id="DejaVuSans-Oblique-70" d="M 3175 2156 
Q 3175 2616 2975 2859 
Q 2775 3103 2400 3103 
Q 2144 3103 1911 2972 
Q 1678 2841 1497 2591 
Q 1319 2344 1212 1994 
Q 1106 1644 1106 1300 
Q 1106 863 1306 627 
Q 1506 391 1875 391 
Q 2147 391 2380 519 
Q 2613 647 2778 891 
Q 2956 1147 3065 1494 
Q 3175 1841 3175 2156 
z
M 1394 2969 
Q 1625 3272 1939 3428 
Q 2253 3584 2638 3584 
Q 3175 3584 3472 3232 
Q 3769 2881 3769 2247 
Q 3769 1728 3584 1258 
Q 3400 788 3053 416 
Q 2822 169 2531 39 
Q 2241 -91 1919 -91 
Q 1547 -91 1294 64 
Q 1041 219 916 525 
L 556 -1331 
L -19 -1331 
L 922 3500 
L 1497 3500 
L 1394 2969 
z
" transform="scale(0.015625)"/>
      <path id="DejaVuSans-Oblique-4b" d="M 1081 4666 
L 1716 4666 
L 1331 2700 
L 3781 4666 
L 4622 4666 
L 1850 2438 
L 3878 0 
L 3109 0 
L 1247 2272 
L 806 0 
L 172 0 
L 1081 4666 
z
" transform="scale(0.015625)"/>
      <path id="DejaVuSans-Oblique-53" d="M 3859 4513 
L 3738 3897 
Q 3422 4066 3111 4152 
Q 2800 4238 2509 4238 
Q 1944 4238 1609 3991 
Q 1275 3744 1275 3334 
Q 1275 3109 1398 2989 
Q 1522 2869 2034 2731 
L 2413 2638 
Q 3053 2472 3303 2217 
Q 3553 1963 3553 1503 
Q 3553 797 2998 353 
Q 2444 -91 1538 -91 
Q 1166 -91 791 -17 
Q 416 56 38 206 
L 166 856 
Q 513 641 861 531 
Q 1209 422 1556 422 
Q 2147 422 2503 684 
Q 2859 947 2859 1369 
Q 2859 1650 2717 1795 
Q 2575 1941 2106 2059 
L 1728 2156 
Q 1081 2325 845 2545 
Q 609 2766 609 3163 
Q 609 3859 1145 4304 
Q 1681 4750 2541 4750 
Q 2875 4750 3203 4690 
Q 3531 4631 3859 4513 
z
" transform="scale(0.015625)"/>
      <path id="DejaVuSans-3d" d="M 678 2906 
L 4684 2906 
L 4684 2381 
L 678 2381 
L 678 2906 
z
M 678 1631 
L 4684 1631 
L 4684 1100 
L 678 1100 
L 678 1631 
z
" transform="scale(0.015625)"/>
      <path id="DejaVuSans-2e" d="M 684 794 
L 1344 794 
L 1344 0 
L 684 0 
L 684 794 
z
" transform="scale(0.015625)"/>
      <path id="DejaVuSans-33" d="M 2597 2516 
Q 3050 2419 3304 2112 
Q 3559 1806 3559 1356 
Q 3559 666 3084 287 
Q 2609 -91 1734 -91 
Q 1441 -91 1130 -33 
Q 819 25 488 141 
L 488 750 
Q 750 597 1062 519 
Q 1375 441 1716 441 
Q 2309 441 2620 675 
Q 2931 909 2931 1356 
Q 2931 1769 2642 2001 
Q 2353 2234 1838 2234 
L 1294 2234 
L 1294 2753 
L 1863 2753 
Q 2328 2753 2575 2939 
Q 2822 3125 2822 3475 
Q 2822 3834 2567 4026 
Q 2313 4219 1838 4219 
Q 1578 4219 1281 4162 
Q 984 4106 628 3988 
L 628 4550 
Q 988 4650 1302 4700 
Q 1616 4750 1894 4750 
Q 2613 4750 3031 4423 
Q 3450 4097 3450 3541 
Q 3450 3153 3228 2886 
Q 3006 2619 2597 2516 
z
" transform="scale(0.015625)"/>
     </defs>
     <use xlink:href="#DejaVuSans-Oblique-70" transform="translate(0 0.78125)"/>
     <use xlink:href="#DejaVuSans-Oblique-4b" transform="translate(63.476562 -15.625) scale(0.7)"/>
     <use xlink:href="#DejaVuSans-Oblique-53" transform="translate(109.379883 -15.625) scale(0.7)"/>
     <use xlink:href="#DejaVuSans-3d" transform="translate(176.030273 0.78125)"/>
     <use xlink:href="#DejaVuSans-30" transform="translate(279.301758 0.78125)"/>
     <use xlink:href="#DejaVuSans-2e" transform="translate(342.924805 0.78125)"/>
     <use xlink:href="#DejaVuSans-34" transform="translate(374.711914 0.78125)"/>
     <use xlink:href="#DejaVuSans-33" transform="translate(438.334961 0.78125)"/>
    </g>
   </g>
   <g id="legend_1">
    <g id="patch_9">
     <path d="M 311.345625 53.58775 
L 335.345625 53.58775 
L 335.345625 45.18775 
L 311.345625 45.18775 
z
" style="fill: #802f95; fill-opacity: 0.75; stroke: #000000; stroke-width: 1.1; stroke-linejoin: miter"/>
    </g>
    <g id="text_16">
     <!-- Evolved -->
     <g transform="translate(344.945625 53.58775) scale(0.12 -0.12)">
      <defs>
       <path id="DejaVuSans-45" d="M 628 4666 
L 3578 4666 
L 3578 4134 
L 1259 4134 
L 1259 2753 
L 3481 2753 
L 3481 2222 
L 1259 2222 
L 1259 531 
L 3634 531 
L 3634 0 
L 628 0 
L 628 4666 
z
" transform="scale(0.015625)"/>
       <path id="DejaVuSans-76" d="M 191 3500 
L 800 3500 
L 1894 563 
L 2988 3500 
L 3597 3500 
L 2284 0 
L 1503 0 
L 191 3500 
z
" transform="scale(0.015625)"/>
       <path id="DejaVuSans-6f" d="M 1959 3097 
Q 1497 3097 1228 2736 
Q 959 2375 959 1747 
Q 959 1119 1226 758 
Q 1494 397 1959 397 
Q 2419 397 2687 759 
Q 2956 1122 2956 1747 
Q 2956 2369 2687 2733 
Q 2419 3097 1959 3097 
z
M 1959 3584 
Q 2709 3584 3137 3096 
Q 3566 2609 3566 1747 
Q 3566 888 3137 398 
Q 2709 -91 1959 -91 
Q 1206 -91 779 398 
Q 353 888 353 1747 
Q 353 2609 779 3096 
Q 1206 3584 1959 3584 
z
" transform="scale(0.015625)"/>
       <path id="DejaVuSans-6c" d="M 603 4863 
L 1178 4863 
L 1178 0 
L 603 0 
L 603 4863 
z
" transform="scale(0.015625)"/>
       <path id="DejaVuSans-64" d="M 2906 2969 
L 2906 4863 
L 3481 4863 
L 3481 0 
L 2906 0 
L 2906 525 
Q 2725 213 2448 61 
Q 2172 -91 1784 -91 
Q 1150 -91 751 415 
Q 353 922 353 1747 
Q 353 2572 751 3078 
Q 1150 3584 1784 3584 
Q 2172 3584 2448 3432 
Q 2725 3281 2906 2969 
z
M 947 1747 
Q 947 1113 1208 752 
Q 1469 391 1925 391 
Q 2381 391 2643 752 
Q 2906 1113 2906 1747 
Q 2906 2381 2643 2742 
Q 2381 3103 1925 3103 
Q 1469 3103 1208 2742 
Q 947 2381 947 1747 
z
" transform="scale(0.015625)"/>
      </defs>
      <use xlink:href="#DejaVuSans-45"/>
      <use xlink:href="#DejaVuSans-76" x="63.183594"/>
      <use xlink:href="#DejaVuSans-6f" x="122.363281"/>
      <use xlink:href="#DejaVuSans-6c" x="183.544922"/>
      <use xlink:href="#DejaVuSans-76" x="211.328125"/>
      <use xlink:href="#DejaVuSans-65" x="270.507812"/>
      <use xlink:href="#DejaVuSans-64" x="332.03125"/>
     </g>
    </g>
    <g id="line2d_18">
     <path d="M 311.345625 67.0015 
L 335.345625 67.0015 
" style="fill: none; stroke: #ff4126; stroke-width: 1.1; stroke-linecap: square"/>
    </g>
    <g id="text_17">
     <!-- DFE Evo -->
     <g transform="translate(344.945625 71.2015) scale(0.12 -0.12)">
      <defs>
       <path id="DejaVuSans-44" d="M 1259 4147 
L 1259 519 
L 2022 519 
Q 2988 519 3436 956 
Q 3884 1394 3884 2338 
Q 3884 3275 3436 3711 
Q 2988 4147 2022 4147 
L 1259 4147 
z
M 628 4666 
L 1925 4666 
Q 3281 4666 3915 4102 
Q 4550 3538 4550 2338 
Q 4550 1131 3912 565 
Q 3275 0 1925 0 
L 628 0 
L 628 4666 
z
" transform="scale(0.015625)"/>
      </defs>
      <use xlink:href="#DejaVuSans-44"/>
      <use xlink:href="#DejaVuSans-46" x="77.001953"/>
      <use xlink:href="#DejaVuSans-45" x="134.521484"/>
      <use xlink:href="#DejaVuSans-20" x="197.705078"/>
      <use xlink:href="#DejaVuSans-45" x="229.492188"/>
      <use xlink:href="#DejaVuSans-76" x="292.675781"/>
      <use xlink:href="#DejaVuSans-6f" x="351.855469"/>
     </g>
    </g>
    <g id="patch_10">
     <path d="M 311.345625 88.81525 
L 335.345625 88.81525 
L 335.345625 80.41525 
L 311.345625 80.41525 
z
" style="fill: #808080; fill-opacity: 0.4; stroke: #000000; stroke-width: 1.1; stroke-linejoin: miter"/>
    </g>
    <g id="text_18">
     <!-- Ancestor -->
     <g transform="translate(344.945625 88.81525) scale(0.12 -0.12)">
      <defs>
       <path id="DejaVuSans-41" d="M 2188 4044 
L 1331 1722 
L 3047 1722 
L 2188 4044 
z
M 1831 4666 
L 2547 4666 
L 4325 0 
L 3669 0 
L 3244 1197 
L 1141 1197 
L 716 0 
L 50 0 
L 1831 4666 
z
" transform="scale(0.015625)"/>
       <path id="DejaVuSans-72" d="M 2631 2963 
Q 2534 3019 2420 3045 
Q 2306 3072 2169 3072 
Q 1681 3072 1420 2755 
Q 1159 2438 1159 1844 
L 1159 0 
L 581 0 
L 581 3500 
L 1159 3500 
L 1159 2956 
Q 1341 3275 1631 3429 
Q 1922 3584 2338 3584 
Q 2397 3584 2469 3576 
Q 2541 3569 2628 3553 
L 2631 2963 
z
" transform="scale(0.015625)"/>
      </defs>
      <use xlink:href="#DejaVuSans-41"/>
      <use xlink:href="#DejaVuSans-6e" x="68.408203"/>
      <use xlink:href="#DejaVuSans-63" x="131.787109"/>
      <use xlink:href="#DejaVuSans-65" x="186.767578"/>
      <use xlink:href="#DejaVuSans-73" x="248.291016"/>
      <use xlink:href="#DejaVuSans-74" x="300.390625"/>
      <use xlink:href="#DejaVuSans-6f" x="339.599609"/>
      <use xlink:href="#DejaVuSans-72" x="400.78125"/>
     </g>
    </g>
   </g>
  </g>
  <g id="axes_2">
   <g id="patch_11">
    <path d="M 476.7375 214.649625 
L 832.0875 214.649625 
L 832.0875 33.669625 
L 476.7375 33.669625 
z
" style="fill: #ffffff"/>
   </g>
   <g id="patch_12">
    <path d="M 384.698967 214.649625 
L 384.698967 198.834893 
L 398.406285 198.834893 
L 398.406285 199.231402 
L 412.113603 199.231402 
L 412.113603 199.231402 
L 425.82092 199.231402 
L 425.82092 198.636639 
L 439.528238 198.636639 
L 439.528238 198.041877 
L 453.235556 198.041877 
L 453.235556 199.231402 
L 466.942873 199.231402 
L 466.942873 198.834893 
L 480.650191 198.834893 
L 480.650191 199.231402 
L 494.357509 199.231402 
L 494.357509 199.231402 
L 508.064826 199.231402 
L 508.064826 198.438385 
L 521.772144 198.438385 
L 521.772144 198.240131 
L 535.479462 198.240131 
L 535.479462 198.041877 
L 549.186779 198.041877 
L 549.186779 197.645368 
L 562.894097 197.645368 
L 562.894097 197.24886 
L 576.601415 197.24886 
L 576.601415 195.266319 
L 590.308732 195.266319 
L 590.308732 195.464573 
L 604.01605 195.464573 
L 604.01605 191.895999 
L 617.723368 191.895999 
L 617.723368 183.569325 
L 631.430685 183.569325 
L 631.430685 166.717725 
L 645.138003 166.717725 
L 645.138003 59.065733 
L 658.84532 59.065733 
L 658.84532 214.649625 
" clip-path="url(#p8522c95aca)" style="fill: #802f95; fill-opacity: 0.75; stroke: #000000; stroke-width: 1.1; stroke-linejoin: miter"/>
   </g>
   <g id="patch_13">
    <path d="M 476.7375 214.649625 
L 832.0875 214.649625 
L 832.0875 199.231402 
L 476.7375 199.231402 
z
" clip-path="url(#p8522c95aca)" style="fill: #ffffff"/>
   </g>
   <g id="patch_14">
    <path d="M 428.184881 214.649625 
L 428.184881 214.04837 
L 437.318136 214.04837 
L 437.318136 214.649625 
L 446.45139 214.649625 
L 446.45139 214.649625 
L 455.584645 214.649625 
L 455.584645 214.649625 
L 464.7179 214.649625 
L 464.7179 214.649625 
L 473.851154 214.649625 
L 473.851154 214.649625 
L 482.984409 214.649625 
L 482.984409 214.649625 
L 492.117663 214.649625 
L 492.117663 214.649625 
L 501.250918 214.649625 
L 501.250918 214.04837 
L 510.384172 214.04837 
L 510.384172 214.649625 
L 519.517427 214.649625 
L 519.517427 214.649625 
L 528.650681 214.649625 
L 528.650681 213.146488 
L 537.783936 213.146488 
L 537.783936 213.447115 
L 546.917191 213.447115 
L 546.917191 213.747743 
L 556.050445 213.747743 
L 556.050445 212.845861 
L 565.1837 212.845861 
L 565.1837 213.146488 
L 574.316954 213.146488 
L 574.316954 209.839587 
L 583.450209 209.839587 
L 583.450209 208.035822 
L 592.583463 208.035822 
L 592.583463 209.839587 
L 601.716718 209.839587 
L 601.716718 205.630803 
L 610.849972 205.630803 
L 610.849972 199.017 
L 619.983227 199.017 
L 619.983227 193.30508 
L 629.116482 193.30508 
L 629.116482 167.751751 
L 638.249736 167.751751 
L 638.249736 133.480228 
L 647.382991 133.480228 
L 647.382991 150.916617 
L 656.516245 150.916617 
L 656.516245 183.985631 
L 665.6495 183.985631 
L 665.6495 201.722647 
L 674.782754 201.722647 
L 674.782754 207.13394 
L 683.916009 207.13394 
L 683.916009 211.943978 
L 693.049263 211.943978 
L 693.049263 211.643351 
L 702.182518 211.643351 
L 702.182518 214.649625 
" clip-path="url(#p8522c95aca)" style="fill: #808080; fill-opacity: 0.4; stroke: #000000; stroke-width: 1.1; stroke-linejoin: miter"/>
   </g>
   <g id="patch_15">
    <path d="M 537.460326 214.649625 
L 537.460326 213.439414 
L 543.10833 213.439414 
L 543.10833 214.649625 
L 548.756333 214.649625 
L 548.756333 214.649625 
L 554.404337 214.649625 
L 554.404337 214.407583 
L 560.052341 214.407583 
L 560.052341 213.197372 
L 565.700344 213.197372 
L 565.700344 213.923498 
L 571.348348 213.923498 
L 571.348348 212.471245 
L 576.996352 212.471245 
L 576.996352 211.261034 
L 582.644356 211.261034 
L 582.644356 210.292866 
L 588.292359 210.292866 
L 588.292359 211.018992 
L 593.940363 211.018992 
L 593.940363 211.261034 
L 599.588367 211.261034 
L 599.588367 209.808781 
L 605.23637 209.808781 
L 605.23637 207.388359 
L 610.884374 207.388359 
L 610.884374 202.547515 
L 616.532378 202.547515 
L 616.532378 197.222587 
L 622.180382 197.222587 
L 622.180382 193.591954 
L 627.828385 193.591954 
L 627.828385 181.247803 
L 633.476389 181.247803 
L 633.476389 159.464005 
L 639.124393 159.464005 
L 639.124393 129.450773 
L 644.772396 129.450773 
L 644.772396 126.304225 
L 650.4204 126.304225 
L 650.4204 147.361896 
L 656.068404 147.361896 
L 656.068404 180.279634 
L 661.716407 180.279634 
L 661.716407 189.719279 
L 667.364411 189.719279 
L 667.364411 199.158925 
L 673.012415 199.158925 
L 673.012415 205.694064 
L 678.660419 205.694064 
L 678.660419 206.904275 
L 684.308422 206.904275 
L 684.308422 211.503077 
L 689.956426 211.503077 
L 689.956426 210.534908 
L 695.60443 210.534908 
L 695.60443 212.471245 
L 701.252433 212.471245 
L 701.252433 212.471245 
L 706.900437 212.471245 
L 706.900437 214.649625 
" clip-path="url(#p8522c95aca)" style="fill: none; stroke: #ff4126; stroke-width: 1.1; stroke-linejoin: miter"/>
   </g>
   <g id="matplotlib.axis_3">
    <g id="xtick_8">
     <g id="line2d_19">
      <g>
       <use xlink:href="#m065720b6d1" x="476.7375" y="224.649625" style="stroke: #000000; stroke-width: 1.5"/>
      </g>
     </g>
     <g id="text_19">
      <!-- −6 -->
      <g transform="translate(466.417969 244.787437) scale(0.14 -0.14)">
       <use xlink:href="#DejaVuSans-2212"/>
       <use xlink:href="#DejaVuSans-36" x="83.789062"/>
      </g>
     </g>
    </g>
    <g id="xtick_9">
     <g id="line2d_20">
      <g>
       <use xlink:href="#m065720b6d1" x="535.9625" y="224.649625" style="stroke: #000000; stroke-width: 1.5"/>
      </g>
     </g>
     <g id="text_20">
      <!-- −4 -->
      <g transform="translate(525.642969 244.787437) scale(0.14 -0.14)">
       <use xlink:href="#DejaVuSans-2212"/>
       <use xlink:href="#DejaVuSans-34" x="83.789062"/>
      </g>
     </g>
    </g>
    <g id="xtick_10">
     <g id="line2d_21">
      <g>
       <use xlink:href="#m065720b6d1" x="595.1875" y="224.649625" style="stroke: #000000; stroke-width: 1.5"/>
      </g>
     </g>
     <g id="text_21">
      <!-- −2 -->
      <g transform="translate(584.867969 244.787437) scale(0.14 -0.14)">
       <use xlink:href="#DejaVuSans-2212"/>
       <use xlink:href="#DejaVuSans-32" x="83.789062"/>
      </g>
     </g>
    </g>
    <g id="xtick_11">
     <g id="line2d_22">
      <g>
       <use xlink:href="#m065720b6d1" x="654.4125" y="224.649625" style="stroke: #000000; stroke-width: 1.5"/>
      </g>
     </g>
     <g id="text_22">
      <!-- 0 -->
      <g transform="translate(649.95875 244.787437) scale(0.14 -0.14)">
       <use xlink:href="#DejaVuSans-30"/>
      </g>
     </g>
    </g>
    <g id="xtick_12">
     <g id="line2d_23">
      <g>
       <use xlink:href="#m065720b6d1" x="713.6375" y="224.649625" style="stroke: #000000; stroke-width: 1.5"/>
      </g>
     </g>
     <g id="text_23">
      <!-- 2 -->
      <g transform="translate(709.18375 244.787437) scale(0.14 -0.14)">
       <use xlink:href="#DejaVuSans-32"/>
      </g>
     </g>
    </g>
    <g id="xtick_13">
     <g id="line2d_24">
      <g>
       <use xlink:href="#m065720b6d1" x="772.8625" y="224.649625" style="stroke: #000000; stroke-width: 1.5"/>
      </g>
     </g>
     <g id="text_24">
      <!-- 4 -->
      <g transform="translate(768.40875 244.787437) scale(0.14 -0.14)">
       <use xlink:href="#DejaVuSans-34"/>
      </g>
     </g>
    </g>
    <g id="xtick_14">
     <g id="line2d_25">
      <g>
       <use xlink:href="#m065720b6d1" x="832.0875" y="224.649625" style="stroke: #000000; stroke-width: 1.5"/>
      </g>
     </g>
     <g id="text_25">
      <!-- 6 -->
      <g transform="translate(827.63375 244.787437) scale(0.14 -0.14)">
       <use xlink:href="#DejaVuSans-36"/>
      </g>
     </g>
    </g>
    <g id="text_26">
     <!-- Fitness effect $(\Delta)$ -->
     <g transform="translate(586.2525 263.8565) scale(0.16 -0.16)">
      <use xlink:href="#DejaVuSans-46" transform="translate(0 0.015625)"/>
      <use xlink:href="#DejaVuSans-69" transform="translate(57.519531 0.015625)"/>
      <use xlink:href="#DejaVuSans-74" transform="translate(85.302734 0.015625)"/>
      <use xlink:href="#DejaVuSans-6e" transform="translate(124.511719 0.015625)"/>
      <use xlink:href="#DejaVuSans-65" transform="translate(187.890625 0.015625)"/>
      <use xlink:href="#DejaVuSans-73" transform="translate(249.414062 0.015625)"/>
      <use xlink:href="#DejaVuSans-73" transform="translate(301.513672 0.015625)"/>
      <use xlink:href="#DejaVuSans-20" transform="translate(353.613281 0.015625)"/>
      <use xlink:href="#DejaVuSans-65" transform="translate(385.400391 0.015625)"/>
      <use xlink:href="#DejaVuSans-66" transform="translate(446.923828 0.015625)"/>
      <use xlink:href="#DejaVuSans-66" transform="translate(482.128906 0.015625)"/>
      <use xlink:href="#DejaVuSans-65" transform="translate(517.333984 0.015625)"/>
      <use xlink:href="#DejaVuSans-63" transform="translate(578.857422 0.015625)"/>
      <use xlink:href="#DejaVuSans-74" transform="translate(633.837891 0.015625)"/>
      <use xlink:href="#DejaVuSans-20" transform="translate(673.046875 0.015625)"/>
      <use xlink:href="#DejaVuSans-28" transform="translate(704.833984 0.015625)"/>
      <use xlink:href="#DejaVuSans-394" transform="translate(743.847656 0.015625)"/>
      <use xlink:href="#DejaVuSans-29" transform="translate(812.255859 0.015625)"/>
     </g>
    </g>
    <g id="text_27">
     <!-- 1e−2 -->
     <g transform="translate(793.926562 261.336812) scale(0.14 -0.14)">
      <use xlink:href="#DejaVuSans-31"/>
      <use xlink:href="#DejaVuSans-65" x="63.623047"/>
      <use xlink:href="#DejaVuSans-2212" x="125.146484"/>
      <use xlink:href="#DejaVuSans-32" x="208.935547"/>
     </g>
    </g>
   </g>
   <g id="matplotlib.axis_4">
    <g id="ytick_5">
     <g id="line2d_26">
      <g>
       <use xlink:href="#mb76393e15f" x="466.7375" y="214.649625" style="stroke: #000000; stroke-width: 1.5"/>
      </g>
     </g>
     <g id="text_28">
      <!-- 0 -->
      <g transform="translate(448.33 219.968531) scale(0.14 -0.14)">
       <use xlink:href="#DejaVuSans-30"/>
      </g>
     </g>
    </g>
    <g id="ytick_6">
     <g id="line2d_27">
      <g>
       <use xlink:href="#mb76393e15f" x="466.7375" y="165.461029" style="stroke: #000000; stroke-width: 1.5"/>
      </g>
     </g>
     <g id="text_29">
      <!-- 50 -->
      <g transform="translate(439.4225 170.779935) scale(0.14 -0.14)">
       <use xlink:href="#DejaVuSans-35"/>
       <use xlink:href="#DejaVuSans-30" x="63.623047"/>
      </g>
     </g>
    </g>
    <g id="ytick_7">
     <g id="line2d_28">
      <g>
       <use xlink:href="#mb76393e15f" x="466.7375" y="116.272432" style="stroke: #000000; stroke-width: 1.5"/>
      </g>
     </g>
     <g id="text_30">
      <!-- 100 -->
      <g transform="translate(430.515 121.591338) scale(0.14 -0.14)">
       <use xlink:href="#DejaVuSans-31"/>
       <use xlink:href="#DejaVuSans-30" x="63.623047"/>
       <use xlink:href="#DejaVuSans-30" x="127.246094"/>
      </g>
     </g>
    </g>
    <g id="ytick_8">
     <g id="line2d_29">
      <g>
       <use xlink:href="#mb76393e15f" x="466.7375" y="67.083836" style="stroke: #000000; stroke-width: 1.5"/>
      </g>
     </g>
     <g id="text_31">
      <!-- 150 -->
      <g transform="translate(430.515 72.402742) scale(0.14 -0.14)">
       <use xlink:href="#DejaVuSans-31"/>
       <use xlink:href="#DejaVuSans-35" x="63.623047"/>
       <use xlink:href="#DejaVuSans-30" x="127.246094"/>
      </g>
     </g>
    </g>
   </g>
   <g id="line2d_30">
    <path d="M 494.505 195.823974 
L 814.32 195.823974 
" clip-path="url(#p8522c95aca)" style="fill: none; stroke-dasharray: 3.7,1.6; stroke-dashoffset: 0; stroke: #808080"/>
   </g>
   <g id="line2d_31">
    <path d="M 476.7375 215.387454 
L 494.505 195.823974 
" clip-path="url(#p8522c95aca)" style="fill: none; stroke-dasharray: 3.7,1.6; stroke-dashoffset: 0; stroke: #808080"/>
   </g>
   <g id="line2d_32">
    <path d="M 832.0875 215.387454 
L 814.32 195.823974 
" clip-path="url(#p8522c95aca)" style="fill: none; stroke-dasharray: 3.7,1.6; stroke-dashoffset: 0; stroke: #808080"/>
   </g>
   <g id="line2d_33">
    <path d="M 565.575 215.387454 
L 574.45875 195.823974 
" clip-path="url(#p8522c95aca)" style="fill: none; stroke-dasharray: 3.7,1.6; stroke-dashoffset: 0; stroke: #808080"/>
   </g>
   <g id="line2d_34">
    <path d="M 743.25 215.387454 
L 734.36625 195.823974 
" clip-path="url(#p8522c95aca)" style="fill: none; stroke-dasharray: 3.7,1.6; stroke-dashoffset: 0; stroke: #808080"/>
   </g>
   <g id="line2d_35">
    <path d="M 654.4125 215.387454 
L 654.4125 195.823974 
" clip-path="url(#p8522c95aca)" style="fill: none; stroke-dasharray: 3.7,1.6; stroke-dashoffset: 0; stroke: #808080"/>
   </g>
   <g id="patch_16">
    <path d="M 466.7375 214.649625 
L 466.7375 33.669625 
" style="fill: none; stroke: #000000; stroke-width: 1.5; stroke-linejoin: miter; stroke-linecap: square"/>
   </g>
   <g id="patch_17">
    <path d="M 476.7375 224.649625 
L 832.0875 224.649625 
" style="fill: none; stroke: #000000; stroke-width: 1.5; stroke-linejoin: miter; stroke-linecap: square"/>
   </g>
   <g id="text_32">
    <!-- B -->
    <g transform="translate(441.2025 20.877187) scale(0.18 -0.18)">
     <defs>
      <path id="DejaVuSans-Bold-42" d="M 2456 2859 
Q 2741 2859 2887 2984 
Q 3034 3109 3034 3353 
Q 3034 3594 2887 3720 
Q 2741 3847 2456 3847 
L 1791 3847 
L 1791 2859 
L 2456 2859 
z
M 2497 819 
Q 2859 819 3042 972 
Q 3225 1125 3225 1434 
Q 3225 1738 3044 1889 
Q 2863 2041 2497 2041 
L 1791 2041 
L 1791 819 
L 2497 819 
z
M 3616 2497 
Q 4003 2384 4215 2081 
Q 4428 1778 4428 1338 
Q 4428 663 3972 331 
Q 3516 0 2584 0 
L 588 0 
L 588 4666 
L 2394 4666 
Q 3366 4666 3802 4372 
Q 4238 4078 4238 3431 
Q 4238 3091 4078 2852 
Q 3919 2613 3616 2497 
z
" transform="scale(0.015625)"/>
     </defs>
     <use xlink:href="#DejaVuSans-Bold-42"/>
    </g>
   </g>
   <g id="text_33">
    <!-- $p_{KS} = 0.021$ -->
    <g transform="translate(494.505 51.812375) scale(0.12 -0.12)">
     <use xlink:href="#DejaVuSans-Oblique-70" transform="translate(0 0.78125)"/>
     <use xlink:href="#DejaVuSans-Oblique-4b" transform="translate(63.476562 -15.625) scale(0.7)"/>
     <use xlink:href="#DejaVuSans-Oblique-53" transform="translate(109.379883 -15.625) scale(0.7)"/>
     <use xlink:href="#DejaVuSans-3d" transform="translate(176.030273 0.78125)"/>
     <use xlink:href="#DejaVuSans-30" transform="translate(279.301758 0.78125)"/>
     <use xlink:href="#DejaVuSans-2e" transform="translate(342.924805 0.78125)"/>
     <use xlink:href="#DejaVuSans-30" transform="translate(374.711914 0.78125)"/>
     <use xlink:href="#DejaVuSans-32" transform="translate(438.334961 0.78125)"/>
     <use xlink:href="#DejaVuSans-31" transform="translate(501.958008 0.78125)"/>
    </g>
   </g>
   <g id="legend_2">
    <g id="patch_18">
     <path d="M 734.660625 53.58775 
L 758.660625 53.58775 
L 758.660625 45.18775 
L 734.660625 45.18775 
z
" style="fill: #802f95; fill-opacity: 0.75; stroke: #000000; stroke-width: 1.1; stroke-linejoin: miter"/>
    </g>
    <g id="text_34">
     <!-- Evolved -->
     <g transform="translate(768.260625 53.58775) scale(0.12 -0.12)">
      <use xlink:href="#DejaVuSans-45"/>
      <use xlink:href="#DejaVuSans-76" x="63.183594"/>
      <use xlink:href="#DejaVuSans-6f" x="122.363281"/>
      <use xlink:href="#DejaVuSans-6c" x="183.544922"/>
      <use xlink:href="#DejaVuSans-76" x="211.328125"/>
      <use xlink:href="#DejaVuSans-65" x="270.507812"/>
      <use xlink:href="#DejaVuSans-64" x="332.03125"/>
     </g>
    </g>
    <g id="patch_19">
     <path d="M 734.660625 71.2015 
L 758.660625 71.2015 
L 758.660625 62.8015 
L 734.660625 62.8015 
z
" style="fill: #808080; fill-opacity: 0.4; stroke: #000000; stroke-width: 1.1; stroke-linejoin: miter"/>
    </g>
    <g id="text_35">
     <!-- Ancestor -->
     <g transform="translate(768.260625 71.2015) scale(0.12 -0.12)">
      <use xlink:href="#DejaVuSans-41"/>
      <use xlink:href="#DejaVuSans-6e" x="68.408203"/>
      <use xlink:href="#DejaVuSans-63" x="131.787109"/>
      <use xlink:href="#DejaVuSans-65" x="186.767578"/>
      <use xlink:href="#DejaVuSans-73" x="248.291016"/>
      <use xlink:href="#DejaVuSans-74" x="300.390625"/>
      <use xlink:href="#DejaVuSans-6f" x="339.599609"/>
      <use xlink:href="#DejaVuSans-72" x="400.78125"/>
     </g>
    </g>
    <g id="line2d_36">
     <path d="M 734.660625 84.61525 
L 758.660625 84.61525 
" style="fill: none; stroke: #ff4126; stroke-width: 1.1; stroke-linecap: square"/>
    </g>
    <g id="text_36">
     <!-- Anc DFE -->
     <g transform="translate(768.260625 88.81525) scale(0.12 -0.12)">
      <use xlink:href="#DejaVuSans-41"/>
      <use xlink:href="#DejaVuSans-6e" x="68.408203"/>
      <use xlink:href="#DejaVuSans-63" x="131.787109"/>
      <use xlink:href="#DejaVuSans-20" x="186.767578"/>
      <use xlink:href="#DejaVuSans-44" x="218.554688"/>
      <use xlink:href="#DejaVuSans-46" x="295.556641"/>
      <use xlink:href="#DejaVuSans-45" x="353.076172"/>
     </g>
    </g>
   </g>
  </g>
  <g id="axes_3">
   <g id="patch_20">
    <path d="M 53.4225 494.009625 
L 408.7725 494.009625 
L 408.7725 313.029625 
L 53.4225 313.029625 
z
" style="fill: #ffffff"/>
   </g>
   <g id="patch_21">
    <path d="M 94.300092 494.009625 
L 94.300092 476.086261 
L 102.564077 476.086261 
L 102.564077 476.96248 
L 110.828061 476.96248 
L 110.828061 476.96248 
L 119.092046 476.96248 
L 119.092046 476.743425 
L 127.356031 476.743425 
L 127.356031 474.990988 
L 135.620016 474.990988 
L 135.620016 474.990988 
L 143.884001 474.990988 
L 143.884001 475.429097 
L 152.147985 475.429097 
L 152.147985 475.429097 
L 160.41197 475.429097 
L 160.41197 474.771933 
L 168.675955 474.771933 
L 168.675955 473.457605 
L 176.93994 473.457605 
L 176.93994 471.267058 
L 185.203925 471.267058 
L 185.203925 469.733676 
L 193.467909 469.733676 
L 193.467909 457.028504 
L 201.731894 457.028504 
L 201.731894 436.437364 
L 209.995879 436.437364 
L 209.995879 359.768225 
L 218.259864 359.768225 
L 218.259864 358.453896 
L 226.523848 358.453896 
L 226.523848 444.761442 
L 234.787833 444.761442 
L 234.787833 464.695418 
L 243.051818 464.695418 
L 243.051818 471.486113 
L 251.315803 471.486113 
L 251.315803 473.238551 
L 259.579788 473.238551 
L 259.579788 494.009625 
" clip-path="url(#p41473cb6d6)" style="fill: #802f95; fill-opacity: 0.75; stroke: #000000; stroke-width: 1.1; stroke-linejoin: miter"/>
   </g>
   <g id="patch_22">
    <path d="M 126.77221 494.009625 
L 126.77221 475.375715 
L 131.199129 475.375715 
L 131.199129 475.375715 
L 135.626048 475.375715 
L 135.626048 476.96248 
L 140.052967 476.96248 
L 140.052967 476.96248 
L 144.479887 476.96248 
L 144.479887 476.96248 
L 148.906806 476.96248 
L 148.906806 476.433558 
L 153.333725 476.433558 
L 153.333725 475.904637 
L 157.760644 475.904637 
L 157.760644 475.640176 
L 162.187564 475.640176 
L 162.187564 476.169098 
L 166.614483 476.169098 
L 166.614483 471.937724 
L 171.041402 471.937724 
L 171.041402 474.317872 
L 175.468322 474.317872 
L 175.468322 474.582333 
L 179.895241 474.582333 
L 179.895241 471.673264 
L 184.32216 471.673264 
L 184.32216 469.028655 
L 188.749079 469.028655 
L 188.749079 469.822038 
L 193.175999 469.822038 
L 193.175999 462.946056 
L 197.602918 462.946056 
L 197.602918 452.103162 
L 202.029837 452.103162 
L 202.029837 446.020563 
L 206.456756 446.020563 
L 206.456756 417.987716 
L 210.883676 417.987716 
L 210.883676 378.847514 
L 215.310595 378.847514 
L 215.310595 321.988436 
L 219.737514 321.988436 
L 219.737514 354.252657 
L 224.164434 354.252657 
L 224.164434 405.029135 
L 228.591353 405.029135 
L 228.591353 444.96272 
L 233.018272 444.96272 
L 233.018272 453.689927 
L 237.445191 453.689927 
L 237.445191 465.855125 
L 241.872111 465.855125 
L 241.872111 467.706351 
L 246.29903 467.706351 
L 246.29903 471.408803 
L 250.725949 471.408803 
L 250.725949 471.937724 
L 255.152868 471.937724 
L 255.152868 474.053411 
L 259.579788 474.053411 
L 259.579788 494.009625 
" clip-path="url(#p41473cb6d6)" style="fill: none; stroke: #ff4126; stroke-width: 1.1; stroke-linejoin: miter"/>
   </g>
   <g id="patch_23">
    <path d="M 53.4225 494.009625 
L 408.7725 494.009625 
L 408.7725 476.96248 
L 53.4225 476.96248 
z
" clip-path="url(#p41473cb6d6)" style="fill: #ffffff"/>
   </g>
   <g id="patch_24">
    <path d="M 12.294318 494.009625 
L 12.294318 493.527253 
L 23.455434 493.527253 
L 23.455434 494.009625 
L 34.616551 494.009625 
L 34.616551 493.527253 
L 45.777668 493.527253 
L 45.777668 494.009625 
L 56.938784 494.009625 
L 56.938784 494.009625 
L 68.099901 494.009625 
L 68.099901 494.009625 
L 79.261017 494.009625 
L 79.261017 494.009625 
L 90.422134 494.009625 
L 90.422134 493.527253 
L 101.583251 493.527253 
L 101.583251 492.401717 
L 112.744367 492.401717 
L 112.744367 492.562508 
L 123.905484 492.562508 
L 123.905484 493.527253 
L 135.066601 493.527253 
L 135.066601 491.597763 
L 146.227717 491.597763 
L 146.227717 491.758554 
L 157.388834 491.758554 
L 157.388834 488.703529 
L 168.54995 488.703529 
L 168.54995 487.738784 
L 179.711067 487.738784 
L 179.711067 485.487713 
L 190.872184 485.487713 
L 190.872184 474.87552 
L 202.0333 474.87552 
L 202.0333 458.63565 
L 213.194417 458.63565 
L 213.194417 425.512745 
L 224.355534 425.512745 
L 224.355534 367.94964 
L 235.51665 367.94964 
L 235.51665 494.009625 
" clip-path="url(#p41473cb6d6)" style="fill: #808080; fill-opacity: 0.4; stroke: #000000; stroke-width: 1.1; stroke-linejoin: miter"/>
   </g>
   <g id="matplotlib.axis_5">
    <g id="xtick_15">
     <g id="line2d_37">
      <g>
       <use xlink:href="#m065720b6d1" x="53.4225" y="504.009625" style="stroke: #000000; stroke-width: 1.5"/>
      </g>
     </g>
     <g id="text_37">
      <!-- −6 -->
      <g transform="translate(43.102969 524.147437) scale(0.14 -0.14)">
       <use xlink:href="#DejaVuSans-2212"/>
       <use xlink:href="#DejaVuSans-36" x="83.789062"/>
      </g>
     </g>
    </g>
    <g id="xtick_16">
     <g id="line2d_38">
      <g>
       <use xlink:href="#m065720b6d1" x="112.6475" y="504.009625" style="stroke: #000000; stroke-width: 1.5"/>
      </g>
     </g>
     <g id="text_38">
      <!-- −4 -->
      <g transform="translate(102.327969 524.147437) scale(0.14 -0.14)">
       <use xlink:href="#DejaVuSans-2212"/>
       <use xlink:href="#DejaVuSans-34" x="83.789062"/>
      </g>
     </g>
    </g>
    <g id="xtick_17">
     <g id="line2d_39">
      <g>
       <use xlink:href="#m065720b6d1" x="171.8725" y="504.009625" style="stroke: #000000; stroke-width: 1.5"/>
      </g>
     </g>
     <g id="text_39">
      <!-- −2 -->
      <g transform="translate(161.552969 524.147437) scale(0.14 -0.14)">
       <use xlink:href="#DejaVuSans-2212"/>
       <use xlink:href="#DejaVuSans-32" x="83.789062"/>
      </g>
     </g>
    </g>
    <g id="xtick_18">
     <g id="line2d_40">
      <g>
       <use xlink:href="#m065720b6d1" x="231.0975" y="504.009625" style="stroke: #000000; stroke-width: 1.5"/>
      </g>
     </g>
     <g id="text_40">
      <!-- 0 -->
      <g transform="translate(226.64375 524.147437) scale(0.14 -0.14)">
       <use xlink:href="#DejaVuSans-30"/>
      </g>
     </g>
    </g>
    <g id="xtick_19">
     <g id="line2d_41">
      <g>
       <use xlink:href="#m065720b6d1" x="290.3225" y="504.009625" style="stroke: #000000; stroke-width: 1.5"/>
      </g>
     </g>
     <g id="text_41">
      <!-- 2 -->
      <g transform="translate(285.86875 524.147437) scale(0.14 -0.14)">
       <use xlink:href="#DejaVuSans-32"/>
      </g>
     </g>
    </g>
    <g id="xtick_20">
     <g id="line2d_42">
      <g>
       <use xlink:href="#m065720b6d1" x="349.5475" y="504.009625" style="stroke: #000000; stroke-width: 1.5"/>
      </g>
     </g>
     <g id="text_42">
      <!-- 4 -->
      <g transform="translate(345.09375 524.147437) scale(0.14 -0.14)">
       <use xlink:href="#DejaVuSans-34"/>
      </g>
     </g>
    </g>
    <g id="xtick_21">
     <g id="line2d_43">
      <g>
       <use xlink:href="#m065720b6d1" x="408.7725" y="504.009625" style="stroke: #000000; stroke-width: 1.5"/>
      </g>
     </g>
     <g id="text_43">
      <!-- 6 -->
      <g transform="translate(404.31875 524.147437) scale(0.14 -0.14)">
       <use xlink:href="#DejaVuSans-36"/>
      </g>
     </g>
    </g>
    <g id="text_44">
     <!-- Fitness effect $(\Delta)$ -->
     <g transform="translate(162.9375 543.2165) scale(0.16 -0.16)">
      <use xlink:href="#DejaVuSans-46" transform="translate(0 0.015625)"/>
      <use xlink:href="#DejaVuSans-69" transform="translate(57.519531 0.015625)"/>
      <use xlink:href="#DejaVuSans-74" transform="translate(85.302734 0.015625)"/>
      <use xlink:href="#DejaVuSans-6e" transform="translate(124.511719 0.015625)"/>
      <use xlink:href="#DejaVuSans-65" transform="translate(187.890625 0.015625)"/>
      <use xlink:href="#DejaVuSans-73" transform="translate(249.414062 0.015625)"/>
      <use xlink:href="#DejaVuSans-73" transform="translate(301.513672 0.015625)"/>
      <use xlink:href="#DejaVuSans-20" transform="translate(353.613281 0.015625)"/>
      <use xlink:href="#DejaVuSans-65" transform="translate(385.400391 0.015625)"/>
      <use xlink:href="#DejaVuSans-66" transform="translate(446.923828 0.015625)"/>
      <use xlink:href="#DejaVuSans-66" transform="translate(482.128906 0.015625)"/>
      <use xlink:href="#DejaVuSans-65" transform="translate(517.333984 0.015625)"/>
      <use xlink:href="#DejaVuSans-63" transform="translate(578.857422 0.015625)"/>
      <use xlink:href="#DejaVuSans-74" transform="translate(633.837891 0.015625)"/>
      <use xlink:href="#DejaVuSans-20" transform="translate(673.046875 0.015625)"/>
      <use xlink:href="#DejaVuSans-28" transform="translate(704.833984 0.015625)"/>
      <use xlink:href="#DejaVuSans-394" transform="translate(743.847656 0.015625)"/>
      <use xlink:href="#DejaVuSans-29" transform="translate(812.255859 0.015625)"/>
     </g>
    </g>
    <g id="text_45">
     <!-- 1e−2 -->
     <g transform="translate(370.611562 540.696812) scale(0.14 -0.14)">
      <use xlink:href="#DejaVuSans-31"/>
      <use xlink:href="#DejaVuSans-65" x="63.623047"/>
      <use xlink:href="#DejaVuSans-2212" x="125.146484"/>
      <use xlink:href="#DejaVuSans-32" x="208.935547"/>
     </g>
    </g>
   </g>
   <g id="matplotlib.axis_6">
    <g id="ytick_9">
     <g id="line2d_44">
      <g>
       <use xlink:href="#mb76393e15f" x="43.4225" y="494.009625" style="stroke: #000000; stroke-width: 1.5"/>
      </g>
     </g>
     <g id="text_46">
      <!-- 0 -->
      <g transform="translate(25.015 499.328531) scale(0.14 -0.14)">
       <use xlink:href="#DejaVuSans-30"/>
      </g>
     </g>
    </g>
    <g id="ytick_10">
     <g id="line2d_45">
      <g>
       <use xlink:href="#mb76393e15f" x="43.4225" y="441.466868" style="stroke: #000000; stroke-width: 1.5"/>
      </g>
     </g>
     <g id="text_47">
      <!-- 50 -->
      <g transform="translate(16.1075 446.785774) scale(0.14 -0.14)">
       <use xlink:href="#DejaVuSans-35"/>
       <use xlink:href="#DejaVuSans-30" x="63.623047"/>
      </g>
     </g>
    </g>
    <g id="ytick_11">
     <g id="line2d_46">
      <g>
       <use xlink:href="#mb76393e15f" x="43.4225" y="388.92411" style="stroke: #000000; stroke-width: 1.5"/>
      </g>
     </g>
     <g id="text_48">
      <!-- 100 -->
      <g transform="translate(7.2 394.243017) scale(0.14 -0.14)">
       <use xlink:href="#DejaVuSans-31"/>
       <use xlink:href="#DejaVuSans-30" x="63.623047"/>
       <use xlink:href="#DejaVuSans-30" x="127.246094"/>
      </g>
     </g>
    </g>
    <g id="ytick_12">
     <g id="line2d_47">
      <g>
       <use xlink:href="#mb76393e15f" x="43.4225" y="336.381353" style="stroke: #000000; stroke-width: 1.5"/>
      </g>
     </g>
     <g id="text_49">
      <!-- 150 -->
      <g transform="translate(7.2 341.700259) scale(0.14 -0.14)">
       <use xlink:href="#DejaVuSans-31"/>
       <use xlink:href="#DejaVuSans-35" x="63.623047"/>
       <use xlink:href="#DejaVuSans-30" x="127.246094"/>
      </g>
     </g>
    </g>
   </g>
   <g id="line2d_48">
    <path d="M 71.19 475.257766 
L 391.005 475.257766 
" clip-path="url(#p41473cb6d6)" style="fill: none; stroke-dasharray: 3.7,1.6; stroke-dashoffset: 0; stroke: #808080"/>
   </g>
   <g id="line2d_49">
    <path d="M 53.4225 494.797766 
L 71.19 475.257766 
" clip-path="url(#p41473cb6d6)" style="fill: none; stroke-dasharray: 3.7,1.6; stroke-dashoffset: 0; stroke: #808080"/>
   </g>
   <g id="line2d_50">
    <path d="M 408.7725 494.797766 
L 391.005 475.257766 
" clip-path="url(#p41473cb6d6)" style="fill: none; stroke-dasharray: 3.7,1.6; stroke-dashoffset: 0; stroke: #808080"/>
   </g>
   <g id="line2d_51">
    <path d="M 142.26 494.797766 
L 151.14375 475.257766 
" clip-path="url(#p41473cb6d6)" style="fill: none; stroke-dasharray: 3.7,1.6; stroke-dashoffset: 0; stroke: #808080"/>
   </g>
   <g id="line2d_52">
    <path d="M 319.935 494.797766 
L 311.05125 475.257766 
" clip-path="url(#p41473cb6d6)" style="fill: none; stroke-dasharray: 3.7,1.6; stroke-dashoffset: 0; stroke: #808080"/>
   </g>
   <g id="line2d_53">
    <path d="M 231.0975 494.797766 
L 231.0975 475.257766 
" clip-path="url(#p41473cb6d6)" style="fill: none; stroke-dasharray: 3.7,1.6; stroke-dashoffset: 0; stroke: #808080"/>
   </g>
   <g id="patch_25">
    <path d="M 43.4225 494.009625 
L 43.4225 313.029625 
" style="fill: none; stroke: #000000; stroke-width: 1.5; stroke-linejoin: miter; stroke-linecap: square"/>
   </g>
   <g id="patch_26">
    <path d="M 53.4225 504.009625 
L 408.7725 504.009625 
" style="fill: none; stroke: #000000; stroke-width: 1.5; stroke-linejoin: miter; stroke-linecap: square"/>
   </g>
   <g id="text_50">
    <!-- C -->
    <g transform="translate(17.8875 300.237187) scale(0.18 -0.18)">
     <defs>
      <path id="DejaVuSans-Bold-43" d="M 4288 256 
Q 3956 84 3597 -3 
Q 3238 -91 2847 -91 
Q 1681 -91 1000 561 
Q 319 1213 319 2328 
Q 319 3447 1000 4098 
Q 1681 4750 2847 4750 
Q 3238 4750 3597 4662 
Q 3956 4575 4288 4403 
L 4288 3438 
Q 3953 3666 3628 3772 
Q 3303 3878 2944 3878 
Q 2300 3878 1931 3465 
Q 1563 3053 1563 2328 
Q 1563 1606 1931 1193 
Q 2300 781 2944 781 
Q 3303 781 3628 887 
Q 3953 994 4288 1222 
L 4288 256 
z
" transform="scale(0.015625)"/>
     </defs>
     <use xlink:href="#DejaVuSans-Bold-43"/>
    </g>
   </g>
   <g id="text_51">
    <!-- $p_{KS} = 0.18$ -->
    <g transform="translate(71.19 331.172375) scale(0.12 -0.12)">
     <defs>
      <path id="DejaVuSans-38" d="M 2034 2216 
Q 1584 2216 1326 1975 
Q 1069 1734 1069 1313 
Q 1069 891 1326 650 
Q 1584 409 2034 409 
Q 2484 409 2743 651 
Q 3003 894 3003 1313 
Q 3003 1734 2745 1975 
Q 2488 2216 2034 2216 
z
M 1403 2484 
Q 997 2584 770 2862 
Q 544 3141 544 3541 
Q 544 4100 942 4425 
Q 1341 4750 2034 4750 
Q 2731 4750 3128 4425 
Q 3525 4100 3525 3541 
Q 3525 3141 3298 2862 
Q 3072 2584 2669 2484 
Q 3125 2378 3379 2068 
Q 3634 1759 3634 1313 
Q 3634 634 3220 271 
Q 2806 -91 2034 -91 
Q 1263 -91 848 271 
Q 434 634 434 1313 
Q 434 1759 690 2068 
Q 947 2378 1403 2484 
z
M 1172 3481 
Q 1172 3119 1398 2916 
Q 1625 2713 2034 2713 
Q 2441 2713 2670 2916 
Q 2900 3119 2900 3481 
Q 2900 3844 2670 4047 
Q 2441 4250 2034 4250 
Q 1625 4250 1398 4047 
Q 1172 3844 1172 3481 
z
" transform="scale(0.015625)"/>
     </defs>
     <use xlink:href="#DejaVuSans-Oblique-70" transform="translate(0 0.78125)"/>
     <use xlink:href="#DejaVuSans-Oblique-4b" transform="translate(63.476562 -15.625) scale(0.7)"/>
     <use xlink:href="#DejaVuSans-Oblique-53" transform="translate(109.379883 -15.625) scale(0.7)"/>
     <use xlink:href="#DejaVuSans-3d" transform="translate(176.030273 0.78125)"/>
     <use xlink:href="#DejaVuSans-30" transform="translate(279.301758 0.78125)"/>
     <use xlink:href="#DejaVuSans-2e" transform="translate(342.924805 0.78125)"/>
     <use xlink:href="#DejaVuSans-31" transform="translate(374.711914 0.78125)"/>
     <use xlink:href="#DejaVuSans-38" transform="translate(438.334961 0.78125)"/>
    </g>
   </g>
   <g id="legend_3">
    <g id="patch_27">
     <path d="M 311.345625 332.94775 
L 335.345625 332.94775 
L 335.345625 324.54775 
L 311.345625 324.54775 
z
" style="fill: #802f95; fill-opacity: 0.75; stroke: #000000; stroke-width: 1.1; stroke-linejoin: miter"/>
    </g>
    <g id="text_52">
     <!-- Evolved -->
     <g transform="translate(344.945625 332.94775) scale(0.12 -0.12)">
      <use xlink:href="#DejaVuSans-45"/>
      <use xlink:href="#DejaVuSans-76" x="63.183594"/>
      <use xlink:href="#DejaVuSans-6f" x="122.363281"/>
      <use xlink:href="#DejaVuSans-6c" x="183.544922"/>
      <use xlink:href="#DejaVuSans-76" x="211.328125"/>
      <use xlink:href="#DejaVuSans-65" x="270.507812"/>
      <use xlink:href="#DejaVuSans-64" x="332.03125"/>
     </g>
    </g>
    <g id="line2d_54">
     <path d="M 311.345625 346.3615 
L 335.345625 346.3615 
" style="fill: none; stroke: #ff4126; stroke-width: 1.1; stroke-linecap: square"/>
    </g>
    <g id="text_53">
     <!-- DFE Evo -->
     <g transform="translate(344.945625 350.5615) scale(0.12 -0.12)">
      <use xlink:href="#DejaVuSans-44"/>
      <use xlink:href="#DejaVuSans-46" x="77.001953"/>
      <use xlink:href="#DejaVuSans-45" x="134.521484"/>
      <use xlink:href="#DejaVuSans-20" x="197.705078"/>
      <use xlink:href="#DejaVuSans-45" x="229.492188"/>
      <use xlink:href="#DejaVuSans-76" x="292.675781"/>
      <use xlink:href="#DejaVuSans-6f" x="351.855469"/>
     </g>
    </g>
    <g id="patch_28">
     <path d="M 311.345625 368.17525 
L 335.345625 368.17525 
L 335.345625 359.77525 
L 311.345625 359.77525 
z
" style="fill: #808080; fill-opacity: 0.4; stroke: #000000; stroke-width: 1.1; stroke-linejoin: miter"/>
    </g>
    <g id="text_54">
     <!-- Ancestor -->
     <g transform="translate(344.945625 368.17525) scale(0.12 -0.12)">
      <use xlink:href="#DejaVuSans-41"/>
      <use xlink:href="#DejaVuSans-6e" x="68.408203"/>
      <use xlink:href="#DejaVuSans-63" x="131.787109"/>
      <use xlink:href="#DejaVuSans-65" x="186.767578"/>
      <use xlink:href="#DejaVuSans-73" x="248.291016"/>
      <use xlink:href="#DejaVuSans-74" x="300.390625"/>
      <use xlink:href="#DejaVuSans-6f" x="339.599609"/>
      <use xlink:href="#DejaVuSans-72" x="400.78125"/>
     </g>
    </g>
   </g>
  </g>
  <g id="axes_4">
   <g id="patch_29">
    <path d="M 476.7375 494.009625 
L 832.0875 494.009625 
L 832.0875 313.029625 
L 476.7375 313.029625 
z
" style="fill: #ffffff"/>
   </g>
   <g id="patch_30">
    <path d="M 84.826965 494.009625 
L 84.826965 478.913315 
L 113.528059 478.913315 
L 113.528059 479.047983 
L 142.229154 479.047983 
L 142.229154 479.047983 
L 170.930249 479.047983 
L 170.930249 479.047983 
L 199.631344 479.047983 
L 199.631344 479.047983 
L 228.332439 479.047983 
L 228.332439 479.047983 
L 257.033533 479.047983 
L 257.033533 479.047983 
L 285.734628 479.047983 
L 285.734628 479.047983 
L 314.435723 479.047983 
L 314.435723 479.047983 
L 343.136818 479.047983 
L 343.136818 479.047983 
L 371.837912 479.047983 
L 371.837912 479.047983 
L 400.539007 479.047983 
L 400.539007 479.047983 
L 429.240102 479.047983 
L 429.240102 478.913315 
L 457.941197 478.913315 
L 457.941197 478.913315 
L 486.642292 478.913315 
L 486.642292 478.509311 
L 515.343386 478.509311 
L 515.343386 478.17264 
L 544.044481 478.17264 
L 544.044481 477.162628 
L 572.745576 477.162628 
L 572.745576 475.950614 
L 601.446671 475.950614 
L 601.446671 468.072522 
L 630.147765 468.072522 
L 630.147765 343.03306 
L 658.84886 343.03306 
L 658.84886 494.009625 
" clip-path="url(#pc59054d05a)" style="fill: #802f95; fill-opacity: 0.75; stroke: #000000; stroke-width: 1.1; stroke-linejoin: miter"/>
   </g>
   <g id="patch_31">
    <path d="M 476.7375 494.009625 
L 832.0875 494.009625 
L 832.0875 479.047983 
L 476.7375 479.047983 
z
" clip-path="url(#pc59054d05a)" style="fill: #ffffff"/>
   </g>
   <g id="patch_32">
    <path d="M 232.08757 494.009625 
L 232.08757 493.785079 
L 249.338415 493.785079 
L 249.338415 494.009625 
L 266.589261 494.009625 
L 266.589261 494.009625 
L 283.840106 494.009625 
L 283.840106 494.009625 
L 301.090951 494.009625 
L 301.090951 494.009625 
L 318.341797 494.009625 
L 318.341797 493.785079 
L 335.592642 493.785079 
L 335.592642 494.009625 
L 352.843488 494.009625 
L 352.843488 493.785079 
L 370.094333 493.785079 
L 370.094333 493.785079 
L 387.345179 493.785079 
L 387.345179 494.009625 
L 404.596024 494.009625 
L 404.596024 494.009625 
L 421.846869 494.009625 
L 421.846869 493.560533 
L 439.097715 493.560533 
L 439.097715 494.009625 
L 456.34856 494.009625 
L 456.34856 493.897352 
L 473.599406 493.897352 
L 473.599406 493.560533 
L 490.850251 493.560533 
L 490.850251 493.223715 
L 508.101097 493.223715 
L 508.101097 492.999169 
L 525.351942 492.999169 
L 525.351942 492.774623 
L 542.602787 492.774623 
L 542.602787 492.437804 
L 559.853633 492.437804 
L 559.853633 490.978256 
L 577.104478 490.978256 
L 577.104478 488.732797 
L 594.355324 488.732797 
L 594.355324 485.140064 
L 611.606169 485.140064 
L 611.606169 464.481845 
L 628.857015 464.481845 
L 628.857015 404.864921 
L 646.10786 404.864921 
L 646.10786 414.632666 
L 663.358705 414.632666 
L 663.358705 470.320037 
L 680.609551 470.320037 
L 680.609551 486.262793 
L 697.860396 486.262793 
L 697.860396 492.66235 
L 715.111242 492.66235 
L 715.111242 493.335987 
L 732.362087 493.335987 
L 732.362087 493.335987 
L 749.612933 493.335987 
L 749.612933 494.009625 
" clip-path="url(#pc59054d05a)" style="fill: #808080; fill-opacity: 0.4; stroke: #000000; stroke-width: 1.1; stroke-linejoin: miter"/>
   </g>
   <g id="patch_33">
    <path d="M 519.847991 494.009625 
L 519.847991 492.67419 
L 527.217603 492.67419 
L 527.217603 493.56448 
L 534.587215 493.56448 
L 534.587215 492.229045 
L 541.956827 492.229045 
L 541.956827 494.009625 
L 549.326439 494.009625 
L 549.326439 493.119335 
L 556.69605 493.119335 
L 556.69605 490.671038 
L 564.065662 490.671038 
L 564.065662 492.67419 
L 571.435274 492.67419 
L 571.435274 489.335603 
L 578.804886 489.335603 
L 578.804886 488.667886 
L 586.174498 488.667886 
L 586.174498 488.445313 
L 593.54411 488.445313 
L 593.54411 487.109879 
L 600.913722 487.109879 
L 600.913722 484.439009 
L 608.283334 484.439009 
L 608.283334 473.087813 
L 615.652945 473.087813 
L 615.652945 466.633212 
L 623.022557 466.633212 
L 623.022557 455.727161 
L 630.392169 455.727161 
L 630.392169 425.679878 
L 637.761781 425.679878 
L 637.761781 385.394261 
L 645.131393 385.394261 
L 645.131393 380.275095 
L 652.501005 380.275095 
L 652.501005 424.567015 
L 659.870617 424.567015 
L 659.870617 453.278864 
L 667.240229 453.278864 
L 667.240229 465.520349 
L 674.609841 465.520349 
L 674.609841 477.761835 
L 681.979452 477.761835 
L 681.979452 484.884154 
L 689.349064 484.884154 
L 689.349064 488.222741 
L 696.718676 488.222741 
L 696.718676 490.671038 
L 704.088288 490.671038 
L 704.088288 490.671038 
L 711.4579 490.671038 
L 711.4579 492.67419 
L 718.827512 492.67419 
L 718.827512 493.56448 
L 726.197124 493.56448 
L 726.197124 492.896763 
L 733.566736 492.896763 
L 733.566736 492.896763 
L 740.936347 492.896763 
L 740.936347 494.009625 
" clip-path="url(#pc59054d05a)" style="fill: none; stroke: #ff4126; stroke-width: 1.1; stroke-linejoin: miter"/>
   </g>
   <g id="matplotlib.axis_7">
    <g id="xtick_22">
     <g id="line2d_55">
      <g>
       <use xlink:href="#m065720b6d1" x="476.7375" y="504.009625" style="stroke: #000000; stroke-width: 1.5"/>
      </g>
     </g>
     <g id="text_55">
      <!-- −6 -->
      <g transform="translate(466.417969 524.147437) scale(0.14 -0.14)">
       <use xlink:href="#DejaVuSans-2212"/>
       <use xlink:href="#DejaVuSans-36" x="83.789062"/>
      </g>
     </g>
    </g>
    <g id="xtick_23">
     <g id="line2d_56">
      <g>
       <use xlink:href="#m065720b6d1" x="535.9625" y="504.009625" style="stroke: #000000; stroke-width: 1.5"/>
      </g>
     </g>
     <g id="text_56">
      <!-- −4 -->
      <g transform="translate(525.642969 524.147437) scale(0.14 -0.14)">
       <use xlink:href="#DejaVuSans-2212"/>
       <use xlink:href="#DejaVuSans-34" x="83.789062"/>
      </g>
     </g>
    </g>
    <g id="xtick_24">
     <g id="line2d_57">
      <g>
       <use xlink:href="#m065720b6d1" x="595.1875" y="504.009625" style="stroke: #000000; stroke-width: 1.5"/>
      </g>
     </g>
     <g id="text_57">
      <!-- −2 -->
      <g transform="translate(584.867969 524.147437) scale(0.14 -0.14)">
       <use xlink:href="#DejaVuSans-2212"/>
       <use xlink:href="#DejaVuSans-32" x="83.789062"/>
      </g>
     </g>
    </g>
    <g id="xtick_25">
     <g id="line2d_58">
      <g>
       <use xlink:href="#m065720b6d1" x="654.4125" y="504.009625" style="stroke: #000000; stroke-width: 1.5"/>
      </g>
     </g>
     <g id="text_58">
      <!-- 0 -->
      <g transform="translate(649.95875 524.147437) scale(0.14 -0.14)">
       <use xlink:href="#DejaVuSans-30"/>
      </g>
     </g>
    </g>
    <g id="xtick_26">
     <g id="line2d_59">
      <g>
       <use xlink:href="#m065720b6d1" x="713.6375" y="504.009625" style="stroke: #000000; stroke-width: 1.5"/>
      </g>
     </g>
     <g id="text_59">
      <!-- 2 -->
      <g transform="translate(709.18375 524.147437) scale(0.14 -0.14)">
       <use xlink:href="#DejaVuSans-32"/>
      </g>
     </g>
    </g>
    <g id="xtick_27">
     <g id="line2d_60">
      <g>
       <use xlink:href="#m065720b6d1" x="772.8625" y="504.009625" style="stroke: #000000; stroke-width: 1.5"/>
      </g>
     </g>
     <g id="text_60">
      <!-- 4 -->
      <g transform="translate(768.40875 524.147437) scale(0.14 -0.14)">
       <use xlink:href="#DejaVuSans-34"/>
      </g>
     </g>
    </g>
    <g id="xtick_28">
     <g id="line2d_61">
      <g>
       <use xlink:href="#m065720b6d1" x="832.0875" y="504.009625" style="stroke: #000000; stroke-width: 1.5"/>
      </g>
     </g>
     <g id="text_61">
      <!-- 6 -->
      <g transform="translate(827.63375 524.147437) scale(0.14 -0.14)">
       <use xlink:href="#DejaVuSans-36"/>
      </g>
     </g>
    </g>
    <g id="text_62">
     <!-- Fitness effect $(\Delta)$ -->
     <g transform="translate(586.2525 543.2165) scale(0.16 -0.16)">
      <use xlink:href="#DejaVuSans-46" transform="translate(0 0.015625)"/>
      <use xlink:href="#DejaVuSans-69" transform="translate(57.519531 0.015625)"/>
      <use xlink:href="#DejaVuSans-74" transform="translate(85.302734 0.015625)"/>
      <use xlink:href="#DejaVuSans-6e" transform="translate(124.511719 0.015625)"/>
      <use xlink:href="#DejaVuSans-65" transform="translate(187.890625 0.015625)"/>
      <use xlink:href="#DejaVuSans-73" transform="translate(249.414062 0.015625)"/>
      <use xlink:href="#DejaVuSans-73" transform="translate(301.513672 0.015625)"/>
      <use xlink:href="#DejaVuSans-20" transform="translate(353.613281 0.015625)"/>
      <use xlink:href="#DejaVuSans-65" transform="translate(385.400391 0.015625)"/>
      <use xlink:href="#DejaVuSans-66" transform="translate(446.923828 0.015625)"/>
      <use xlink:href="#DejaVuSans-66" transform="translate(482.128906 0.015625)"/>
      <use xlink:href="#DejaVuSans-65" transform="translate(517.333984 0.015625)"/>
      <use xlink:href="#DejaVuSans-63" transform="translate(578.857422 0.015625)"/>
      <use xlink:href="#DejaVuSans-74" transform="translate(633.837891 0.015625)"/>
      <use xlink:href="#DejaVuSans-20" transform="translate(673.046875 0.015625)"/>
      <use xlink:href="#DejaVuSans-28" transform="translate(704.833984 0.015625)"/>
      <use xlink:href="#DejaVuSans-394" transform="translate(743.847656 0.015625)"/>
      <use xlink:href="#DejaVuSans-29" transform="translate(812.255859 0.015625)"/>
     </g>
    </g>
    <g id="text_63">
     <!-- 1e−2 -->
     <g transform="translate(793.926562 540.696812) scale(0.14 -0.14)">
      <use xlink:href="#DejaVuSans-31"/>
      <use xlink:href="#DejaVuSans-65" x="63.623047"/>
      <use xlink:href="#DejaVuSans-2212" x="125.146484"/>
      <use xlink:href="#DejaVuSans-32" x="208.935547"/>
     </g>
    </g>
   </g>
   <g id="matplotlib.axis_8">
    <g id="ytick_13">
     <g id="line2d_62">
      <g>
       <use xlink:href="#mb76393e15f" x="466.7375" y="494.009625" style="stroke: #000000; stroke-width: 1.5"/>
      </g>
     </g>
     <g id="text_64">
      <!-- 0 -->
      <g transform="translate(448.33 499.328531) scale(0.14 -0.14)">
       <use xlink:href="#DejaVuSans-30"/>
      </g>
     </g>
    </g>
    <g id="ytick_14">
     <g id="line2d_63">
      <g>
       <use xlink:href="#mb76393e15f" x="466.7375" y="456.745177" style="stroke: #000000; stroke-width: 1.5"/>
      </g>
     </g>
     <g id="text_65">
      <!-- 25 -->
      <g transform="translate(439.4225 462.064084) scale(0.14 -0.14)">
       <use xlink:href="#DejaVuSans-32"/>
       <use xlink:href="#DejaVuSans-35" x="63.623047"/>
      </g>
     </g>
    </g>
    <g id="ytick_15">
     <g id="line2d_64">
      <g>
       <use xlink:href="#mb76393e15f" x="466.7375" y="419.48073" style="stroke: #000000; stroke-width: 1.5"/>
      </g>
     </g>
     <g id="text_66">
      <!-- 50 -->
      <g transform="translate(439.4225 424.799636) scale(0.14 -0.14)">
       <use xlink:href="#DejaVuSans-35"/>
       <use xlink:href="#DejaVuSans-30" x="63.623047"/>
      </g>
     </g>
    </g>
    <g id="ytick_16">
     <g id="line2d_65">
      <g>
       <use xlink:href="#mb76393e15f" x="466.7375" y="382.216282" style="stroke: #000000; stroke-width: 1.5"/>
      </g>
     </g>
     <g id="text_67">
      <!-- 75 -->
      <g transform="translate(439.4225 387.535188) scale(0.14 -0.14)">
       <defs>
        <path id="DejaVuSans-37" d="M 525 4666 
L 3525 4666 
L 3525 4397 
L 1831 0 
L 1172 0 
L 2766 4134 
L 525 4134 
L 525 4666 
z
" transform="scale(0.015625)"/>
       </defs>
       <use xlink:href="#DejaVuSans-37"/>
       <use xlink:href="#DejaVuSans-35" x="63.623047"/>
      </g>
     </g>
    </g>
    <g id="ytick_17">
     <g id="line2d_66">
      <g>
       <use xlink:href="#mb76393e15f" x="466.7375" y="344.951835" style="stroke: #000000; stroke-width: 1.5"/>
      </g>
     </g>
     <g id="text_68">
      <!-- 100 -->
      <g transform="translate(430.515 350.270741) scale(0.14 -0.14)">
       <use xlink:href="#DejaVuSans-31"/>
       <use xlink:href="#DejaVuSans-30" x="63.623047"/>
       <use xlink:href="#DejaVuSans-30" x="127.246094"/>
      </g>
     </g>
    </g>
   </g>
   <g id="line2d_67">
    <path d="M 494.505 475.741461 
L 814.32 475.741461 
" clip-path="url(#pc59054d05a)" style="fill: none; stroke-dasharray: 3.7,1.6; stroke-dashoffset: 0; stroke: #808080"/>
   </g>
   <g id="line2d_68">
    <path d="M 476.7375 495.127558 
L 494.505 475.741461 
" clip-path="url(#pc59054d05a)" style="fill: none; stroke-dasharray: 3.7,1.6; stroke-dashoffset: 0; stroke: #808080"/>
   </g>
   <g id="line2d_69">
    <path d="M 832.0875 495.127558 
L 814.32 475.741461 
" clip-path="url(#pc59054d05a)" style="fill: none; stroke-dasharray: 3.7,1.6; stroke-dashoffset: 0; stroke: #808080"/>
   </g>
   <g id="line2d_70">
    <path d="M 565.575 495.127558 
L 574.45875 475.741461 
" clip-path="url(#pc59054d05a)" style="fill: none; stroke-dasharray: 3.7,1.6; stroke-dashoffset: 0; stroke: #808080"/>
   </g>
   <g id="line2d_71">
    <path d="M 743.25 495.127558 
L 734.36625 475.741461 
" clip-path="url(#pc59054d05a)" style="fill: none; stroke-dasharray: 3.7,1.6; stroke-dashoffset: 0; stroke: #808080"/>
   </g>
   <g id="line2d_72">
    <path d="M 654.4125 495.127558 
L 654.4125 475.741461 
" clip-path="url(#pc59054d05a)" style="fill: none; stroke-dasharray: 3.7,1.6; stroke-dashoffset: 0; stroke: #808080"/>
   </g>
   <g id="patch_34">
    <path d="M 466.7375 494.009625 
L 466.7375 313.029625 
" style="fill: none; stroke: #000000; stroke-width: 1.5; stroke-linejoin: miter; stroke-linecap: square"/>
   </g>
   <g id="patch_35">
    <path d="M 476.7375 504.009625 
L 832.0875 504.009625 
" style="fill: none; stroke: #000000; stroke-width: 1.5; stroke-linejoin: miter; stroke-linecap: square"/>
   </g>
   <g id="text_69">
    <!-- D -->
    <g transform="translate(441.2025 300.237187) scale(0.18 -0.18)">
     <defs>
      <path id="DejaVuSans-Bold-44" d="M 1791 3756 
L 1791 909 
L 2222 909 
Q 2959 909 3348 1275 
Q 3738 1641 3738 2338 
Q 3738 3031 3350 3393 
Q 2963 3756 2222 3756 
L 1791 3756 
z
M 588 4666 
L 1856 4666 
Q 2919 4666 3439 4514 
Q 3959 4363 4331 4000 
Q 4659 3684 4818 3271 
Q 4978 2859 4978 2338 
Q 4978 1809 4818 1395 
Q 4659 981 4331 666 
Q 3956 303 3431 151 
Q 2906 0 1856 0 
L 588 0 
L 588 4666 
z
" transform="scale(0.015625)"/>
     </defs>
     <use xlink:href="#DejaVuSans-Bold-44"/>
    </g>
   </g>
   <g id="text_70">
    <!-- $p_{KS} = 0.27$ -->
    <g transform="translate(494.505 331.172375) scale(0.12 -0.12)">
     <use xlink:href="#DejaVuSans-Oblique-70" transform="translate(0 0.78125)"/>
     <use xlink:href="#DejaVuSans-Oblique-4b" transform="translate(63.476562 -15.625) scale(0.7)"/>
     <use xlink:href="#DejaVuSans-Oblique-53" transform="translate(109.379883 -15.625) scale(0.7)"/>
     <use xlink:href="#DejaVuSans-3d" transform="translate(176.030273 0.78125)"/>
     <use xlink:href="#DejaVuSans-30" transform="translate(279.301758 0.78125)"/>
     <use xlink:href="#DejaVuSans-2e" transform="translate(342.924805 0.78125)"/>
     <use xlink:href="#DejaVuSans-32" transform="translate(369.211914 0.78125)"/>
     <use xlink:href="#DejaVuSans-37" transform="translate(432.834961 0.78125)"/>
    </g>
   </g>
   <g id="legend_4">
    <g id="patch_36">
     <path d="M 734.660625 332.94775 
L 758.660625 332.94775 
L 758.660625 324.54775 
L 734.660625 324.54775 
z
" style="fill: #802f95; fill-opacity: 0.75; stroke: #000000; stroke-width: 1.1; stroke-linejoin: miter"/>
    </g>
    <g id="text_71">
     <!-- Evolved -->
     <g transform="translate(768.260625 332.94775) scale(0.12 -0.12)">
      <use xlink:href="#DejaVuSans-45"/>
      <use xlink:href="#DejaVuSans-76" x="63.183594"/>
      <use xlink:href="#DejaVuSans-6f" x="122.363281"/>
      <use xlink:href="#DejaVuSans-6c" x="183.544922"/>
      <use xlink:href="#DejaVuSans-76" x="211.328125"/>
      <use xlink:href="#DejaVuSans-65" x="270.507812"/>
      <use xlink:href="#DejaVuSans-64" x="332.03125"/>
     </g>
    </g>
    <g id="patch_37">
     <path d="M 734.660625 350.5615 
L 758.660625 350.5615 
L 758.660625 342.1615 
L 734.660625 342.1615 
z
" style="fill: #808080; fill-opacity: 0.4; stroke: #000000; stroke-width: 1.1; stroke-linejoin: miter"/>
    </g>
    <g id="text_72">
     <!-- Ancestor -->
     <g transform="translate(768.260625 350.5615) scale(0.12 -0.12)">
      <use xlink:href="#DejaVuSans-41"/>
      <use xlink:href="#DejaVuSans-6e" x="68.408203"/>
      <use xlink:href="#DejaVuSans-63" x="131.787109"/>
      <use xlink:href="#DejaVuSans-65" x="186.767578"/>
      <use xlink:href="#DejaVuSans-73" x="248.291016"/>
      <use xlink:href="#DejaVuSans-74" x="300.390625"/>
      <use xlink:href="#DejaVuSans-6f" x="339.599609"/>
      <use xlink:href="#DejaVuSans-72" x="400.78125"/>
     </g>
    </g>
    <g id="line2d_73">
     <path d="M 734.660625 363.97525 
L 758.660625 363.97525 
" style="fill: none; stroke: #ff4126; stroke-width: 1.1; stroke-linecap: square"/>
    </g>
    <g id="text_73">
     <!-- Anc DFE -->
     <g transform="translate(768.260625 368.17525) scale(0.12 -0.12)">
      <use xlink:href="#DejaVuSans-41"/>
      <use xlink:href="#DejaVuSans-6e" x="68.408203"/>
      <use xlink:href="#DejaVuSans-63" x="131.787109"/>
      <use xlink:href="#DejaVuSans-20" x="186.767578"/>
      <use xlink:href="#DejaVuSans-44" x="218.554688"/>
      <use xlink:href="#DejaVuSans-46" x="295.556641"/>
      <use xlink:href="#DejaVuSans-45" x="353.076172"/>
     </g>
    </g>
   </g>
  </g>
 </g>
 <defs>
  <clipPath id="p629715b416">
   <rect x="53.4225" y="33.669625" width="355.35" height="180.98"/>
  </clipPath>
  <clipPath id="p8522c95aca">
   <rect x="476.7375" y="33.669625" width="355.35" height="180.98"/>
  </clipPath>
  <clipPath id="p41473cb6d6">
   <rect x="53.4225" y="313.029625" width="355.35" height="180.98"/>
  </clipPath>
  <clipPath id="pc59054d05a">
   <rect x="476.7375" y="313.029625" width="355.35" height="180.98"/>
  </clipPath>
 </defs>
</svg>
