<?xml version="1.0" encoding="utf-8" standalone="no"?>
<!DOCTYPE svg PUBLIC "-//W3C//DTD SVG 1.1//EN"
  "http://www.w3.org/Graphics/SVG/1.1/DTD/svg11.dtd">
<svg xmlns:xlink="http://www.w3.org/1999/xlink" width="721.315pt" height="644.434375pt" viewBox="0 0 721.315 644.434375" xmlns="http://www.w3.org/2000/svg" version="1.1">
 <metadata>
  <rdf:RDF xmlns:dc="http://purl.org/dc/elements/1.1/" xmlns:cc="http://creativecommons.org/ns#" xmlns:rdf="http://www.w3.org/1999/02/22-rdf-syntax-ns#">
   <cc:Work>
    <dc:type rdf:resource="http://purl.org/dc/dcmitype/StillImage"/>
    <dc:date>2026-01-15T12:40:44.026645</dc:date>
    <dc:format>image/svg+xml</dc:format>
    <dc:creator>
     <cc:Agent>
      <dc:title>Matplotlib v3.9.4, https://matplotlib.org/</dc:title>
     </cc:Agent>
    </dc:creator>
   </cc:Work>
  </rdf:RDF>
 </metadata>
 <defs>
  <style type="text/css">*{stroke-linejoin: round; stroke-linecap: butt}</style>
 </defs>
 <g id="figure_1">
  <g id="patch_1">
   <path d="M 0 644.434375 
L 721.315 644.434375 
L 721.315 0 
L 0 0 
z
" style="fill: #ffffff"/>
  </g>
  <g id="axes_1">
   <g id="patch_2">
    <path d="M 44.515 261.3 
L 335.645435 261.3 
L 335.645435 30.3 
L 44.515 30.3 
z
" style="fill: #ffffff"/>
   </g>
   <g id="patch_3">
    <path d="M 92.479002 261.3 
L 92.479002 239.891597 
L 97.289589 239.891597 
L 97.289589 240.657474 
L 102.100175 240.657474 
L 102.100175 238.615135 
L 106.910762 238.615135 
L 106.910762 239.891597 
L 111.721348 239.891597 
L 111.721348 239.12572 
L 116.531935 239.12572 
L 116.531935 239.891597 
L 121.342521 239.891597 
L 121.342521 238.10455 
L 126.153108 238.10455 
L 126.153108 238.359843 
L 130.963694 238.359843 
L 130.963694 236.828089 
L 135.774281 236.828089 
L 135.774281 233.509288 
L 140.584867 233.509288 
L 140.584867 233.253996 
L 145.395454 233.253996 
L 145.395454 231.211657 
L 150.206041 231.211657 
L 150.206041 225.084641 
L 155.016627 225.084641 
L 155.016627 219.46821 
L 159.827214 219.46821 
L 159.827214 216.659995 
L 164.6378 216.659995 
L 164.6378 195.215439 
L 169.448387 195.215439 
L 169.448387 176.068514 
L 174.258973 176.068514 
L 174.258973 147.220481 
L 179.06956 147.220481 
L 179.06956 130.115895 
L 183.880146 130.115895 
L 183.880146 119.64891 
L 188.690733 119.64891 
L 188.690733 122.457125 
L 193.501319 122.457125 
L 193.501319 144.156973 
L 198.311906 144.156973 
L 198.311906 168.920329 
L 203.122492 168.920329 
L 203.122492 195.726024 
L 207.933079 195.726024 
L 207.933079 211.298856 
L 212.743665 211.298856 
L 212.743665 226.871688 
L 217.554252 226.871688 
L 217.554252 230.701073 
L 222.364838 230.701073 
L 222.364838 233.764581 
L 227.175425 233.764581 
L 227.175425 238.870427 
L 231.986012 238.870427 
L 231.986012 238.615135 
L 236.796598 238.615135 
L 236.796598 261.3 
" clip-path="url(#pef2ba5a095)" style="fill: #802f95; fill-opacity: 0.5; stroke: #000000; stroke-width: 1.1; stroke-linejoin: miter"/>
   </g>
   <g id="patch_4">
    <path d="M 74.176054 261.3 
L 74.176054 239.955564 
L 79.580692 239.955564 
L 79.580692 240.657474 
L 84.985331 240.657474 
L 84.985331 237.749561 
L 90.389969 237.749561 
L 90.389969 238.852563 
L 95.794607 238.852563 
L 95.794607 239.253654 
L 101.199245 239.253654 
L 101.199245 237.147925 
L 106.603883 237.147925 
L 106.603883 237.047652 
L 112.008521 237.047652 
L 112.008521 236.847106 
L 117.413159 236.847106 
L 117.413159 237.047652 
L 122.817797 237.047652 
L 122.817797 235.744105 
L 128.222436 235.744105 
L 128.222436 235.142468 
L 133.627074 235.142468 
L 133.627074 232.234556 
L 139.031712 232.234556 
L 139.031712 232.03401 
L 144.43635 232.03401 
L 144.43635 227.020369 
L 149.840988 227.020369 
L 149.840988 221.505363 
L 155.245626 221.505363 
L 155.245626 214.787084 
L 160.650264 214.787084 
L 160.650264 206.564712 
L 166.054902 206.564712 
L 166.054902 187.111783 
L 171.459541 187.111783 
L 171.459541 164.650669 
L 176.864179 164.650669 
L 176.864179 144.295285 
L 182.268817 144.295285 
L 182.268817 128.953542 
L 187.673455 128.953542 
L 187.673455 130.156816 
L 193.078093 130.156816 
L 193.078093 158.6343 
L 198.482731 158.6343 
L 198.482731 176.182045 
L 203.887369 176.182045 
L 203.887369 201.149979 
L 209.292007 201.149979 
L 209.292007 218.19636 
L 214.696646 218.19636 
L 214.696646 226.017641 
L 220.101284 226.017641 
L 220.101284 232.836193 
L 225.505922 232.836193 
L 225.505922 236.746833 
L 230.91056 236.746833 
L 230.91056 237.849834 
L 236.315198 237.849834 
L 236.315198 261.3 
" clip-path="url(#pef2ba5a095)" style="fill: none; stroke: #ff4126; stroke-width: 1.1; stroke-linejoin: miter"/>
   </g>
   <g id="patch_5">
    <path d="M 44.515 261.3 
L 335.645435 261.3 
L 335.645435 240.657474 
L 44.515 240.657474 
z
" clip-path="url(#pef2ba5a095)" style="fill: #ffffff"/>
   </g>
   <g id="patch_6">
    <path d="M 190.080595 261.3 
L 190.080595 73.640668 
L 195.760058 73.640668 
L 195.760058 89.421112 
L 201.439522 89.421112 
L 201.439522 114.371273 
L 207.118985 114.371273 
L 207.118985 152.542887 
L 212.798448 152.542887 
L 212.798448 187.729012 
L 218.477911 187.729012 
L 218.477911 218.863401 
L 224.157374 218.863401 
L 224.157374 240.188325 
L 229.836838 240.188325 
L 229.836838 248.505046 
L 235.516301 248.505046 
L 235.516301 252.343532 
L 241.195764 252.343532 
L 241.195764 257.035015 
L 246.875227 257.035015 
L 246.875227 258.101261 
L 252.55469 258.101261 
L 252.55469 259.167508 
L 258.234153 259.167508 
L 258.234153 259.594006 
L 263.913617 259.594006 
L 263.913617 260.873502 
L 269.59308 260.873502 
L 269.59308 261.3 
L 275.272543 261.3 
L 275.272543 260.873502 
L 280.952006 260.873502 
L 280.952006 261.3 
L 286.631469 261.3 
L 286.631469 261.3 
L 292.310933 261.3 
L 292.310933 261.3 
L 297.990396 261.3 
L 297.990396 260.233754 
L 303.669859 260.233754 
L 303.669859 261.3 
" clip-path="url(#pef2ba5a095)" style="fill: #808080; fill-opacity: 0.15; stroke: #000000; stroke-width: 1.1; stroke-linejoin: miter"/>
   </g>
   <g id="matplotlib.axis_1">
    <g id="xtick_1">
     <g id="line2d_1">
      <defs>
       <path id="m24f2594130" d="M 0 0 
L 0 6 
" style="stroke: #000000; stroke-width: 1.5"/>
      </defs>
      <g>
       <use xlink:href="#m24f2594130" x="99.101957" y="271.3" style="stroke: #000000; stroke-width: 1.5"/>
      </g>
     </g>
     <g id="text_1">
      <!-- −5 -->
      <g transform="translate(88.782425 291.437812) scale(0.14 -0.14)">
       <defs>
        <path id="DejaVuSans-2212" d="M 678 2272 
L 4684 2272 
L 4684 1741 
L 678 1741 
L 678 2272 
z
" transform="scale(0.015625)"/>
        <path id="DejaVuSans-35" d="M 691 4666 
L 3169 4666 
L 3169 4134 
L 1269 4134 
L 1269 2991 
Q 1406 3038 1543 3061 
Q 1681 3084 1819 3084 
Q 2600 3084 3056 2656 
Q 3513 2228 3513 1497 
Q 3513 744 3044 326 
Q 2575 -91 1722 -91 
Q 1428 -91 1123 -41 
Q 819 9 494 109 
L 494 744 
Q 775 591 1075 516 
Q 1375 441 1709 441 
Q 2250 441 2565 725 
Q 2881 1009 2881 1497 
Q 2881 1984 2565 2268 
Q 2250 2553 1709 2553 
Q 1456 2553 1204 2497 
Q 953 2441 691 2322 
L 691 4666 
z
" transform="scale(0.015625)"/>
       </defs>
       <use xlink:href="#DejaVuSans-2212"/>
       <use xlink:href="#DejaVuSans-35" x="83.789062"/>
      </g>
     </g>
    </g>
    <g id="xtick_2">
     <g id="line2d_2">
      <g>
       <use xlink:href="#m24f2594130" x="190.080217" y="271.3" style="stroke: #000000; stroke-width: 1.5"/>
      </g>
     </g>
     <g id="text_2">
      <!-- 0 -->
      <g transform="translate(185.626467 291.437812) scale(0.14 -0.14)">
       <defs>
        <path id="DejaVuSans-30" d="M 2034 4250 
Q 1547 4250 1301 3770 
Q 1056 3291 1056 2328 
Q 1056 1369 1301 889 
Q 1547 409 2034 409 
Q 2525 409 2770 889 
Q 3016 1369 3016 2328 
Q 3016 3291 2770 3770 
Q 2525 4250 2034 4250 
z
M 2034 4750 
Q 2819 4750 3233 4129 
Q 3647 3509 3647 2328 
Q 3647 1150 3233 529 
Q 2819 -91 2034 -91 
Q 1250 -91 836 529 
Q 422 1150 422 2328 
Q 422 3509 836 4129 
Q 1250 4750 2034 4750 
z
" transform="scale(0.015625)"/>
       </defs>
       <use xlink:href="#DejaVuSans-30"/>
      </g>
     </g>
    </g>
    <g id="xtick_3">
     <g id="line2d_3">
      <g>
       <use xlink:href="#m24f2594130" x="281.058478" y="271.3" style="stroke: #000000; stroke-width: 1.5"/>
      </g>
     </g>
     <g id="text_3">
      <!-- 5 -->
      <g transform="translate(276.604728 291.437812) scale(0.14 -0.14)">
       <use xlink:href="#DejaVuSans-35"/>
      </g>
     </g>
    </g>
    <g id="text_4">
     <!-- Fitness effect $(\Delta)$ -->
     <g transform="translate(121.920217 310.506875) scale(0.16 -0.16)">
      <defs>
       <path id="DejaVuSans-46" d="M 628 4666 
L 3309 4666 
L 3309 4134 
L 1259 4134 
L 1259 2759 
L 3109 2759 
L 3109 2228 
L 1259 2228 
L 1259 0 
L 628 0 
L 628 4666 
z
" transform="scale(0.015625)"/>
       <path id="DejaVuSans-69" d="M 603 3500 
L 1178 3500 
L 1178 0 
L 603 0 
L 603 3500 
z
M 603 4863 
L 1178 4863 
L 1178 4134 
L 603 4134 
L 603 4863 
z
" transform="scale(0.015625)"/>
       <path id="DejaVuSans-74" d="M 1172 4494 
L 1172 3500 
L 2356 3500 
L 2356 3053 
L 1172 3053 
L 1172 1153 
Q 1172 725 1289 603 
Q 1406 481 1766 481 
L 2356 481 
L 2356 0 
L 1766 0 
Q 1100 0 847 248 
Q 594 497 594 1153 
L 594 3053 
L 172 3053 
L 172 3500 
L 594 3500 
L 594 4494 
L 1172 4494 
z
" transform="scale(0.015625)"/>
       <path id="DejaVuSans-6e" d="M 3513 2113 
L 3513 0 
L 2938 0 
L 2938 2094 
Q 2938 2591 2744 2837 
Q 2550 3084 2163 3084 
Q 1697 3084 1428 2787 
Q 1159 2491 1159 1978 
L 1159 0 
L 581 0 
L 581 3500 
L 1159 3500 
L 1159 2956 
Q 1366 3272 1645 3428 
Q 1925 3584 2291 3584 
Q 2894 3584 3203 3211 
Q 3513 2838 3513 2113 
z
" transform="scale(0.015625)"/>
       <path id="DejaVuSans-65" d="M 3597 1894 
L 3597 1613 
L 953 1613 
Q 991 1019 1311 708 
Q 1631 397 2203 397 
Q 2534 397 2845 478 
Q 3156 559 3463 722 
L 3463 178 
Q 3153 47 2828 -22 
Q 2503 -91 2169 -91 
Q 1331 -91 842 396 
Q 353 884 353 1716 
Q 353 2575 817 3079 
Q 1281 3584 2069 3584 
Q 2775 3584 3186 3129 
Q 3597 2675 3597 1894 
z
M 3022 2063 
Q 3016 2534 2758 2815 
Q 2500 3097 2075 3097 
Q 1594 3097 1305 2825 
Q 1016 2553 972 2059 
L 3022 2063 
z
" transform="scale(0.015625)"/>
       <path id="DejaVuSans-73" d="M 2834 3397 
L 2834 2853 
Q 2591 2978 2328 3040 
Q 2066 3103 1784 3103 
Q 1356 3103 1142 2972 
Q 928 2841 928 2578 
Q 928 2378 1081 2264 
Q 1234 2150 1697 2047 
L 1894 2003 
Q 2506 1872 2764 1633 
Q 3022 1394 3022 966 
Q 3022 478 2636 193 
Q 2250 -91 1575 -91 
Q 1294 -91 989 -36 
Q 684 19 347 128 
L 347 722 
Q 666 556 975 473 
Q 1284 391 1588 391 
Q 1994 391 2212 530 
Q 2431 669 2431 922 
Q 2431 1156 2273 1281 
Q 2116 1406 1581 1522 
L 1381 1569 
Q 847 1681 609 1914 
Q 372 2147 372 2553 
Q 372 3047 722 3315 
Q 1072 3584 1716 3584 
Q 2034 3584 2315 3537 
Q 2597 3491 2834 3397 
z
" transform="scale(0.015625)"/>
       <path id="DejaVuSans-20" transform="scale(0.015625)"/>
       <path id="DejaVuSans-66" d="M 2375 4863 
L 2375 4384 
L 1825 4384 
Q 1516 4384 1395 4259 
Q 1275 4134 1275 3809 
L 1275 3500 
L 2222 3500 
L 2222 3053 
L 1275 3053 
L 1275 0 
L 697 0 
L 697 3053 
L 147 3053 
L 147 3500 
L 697 3500 
L 697 3744 
Q 697 4328 969 4595 
Q 1241 4863 1831 4863 
L 2375 4863 
z
" transform="scale(0.015625)"/>
       <path id="DejaVuSans-63" d="M 3122 3366 
L 3122 2828 
Q 2878 2963 2633 3030 
Q 2388 3097 2138 3097 
Q 1578 3097 1268 2742 
Q 959 2388 959 1747 
Q 959 1106 1268 751 
Q 1578 397 2138 397 
Q 2388 397 2633 464 
Q 2878 531 3122 666 
L 3122 134 
Q 2881 22 2623 -34 
Q 2366 -91 2075 -91 
Q 1284 -91 818 406 
Q 353 903 353 1747 
Q 353 2603 823 3093 
Q 1294 3584 2113 3584 
Q 2378 3584 2631 3529 
Q 2884 3475 3122 3366 
z
" transform="scale(0.015625)"/>
       <path id="DejaVuSans-28" d="M 1984 4856 
Q 1566 4138 1362 3434 
Q 1159 2731 1159 2009 
Q 1159 1288 1364 580 
Q 1569 -128 1984 -844 
L 1484 -844 
Q 1016 -109 783 600 
Q 550 1309 550 2009 
Q 550 2706 781 3412 
Q 1013 4119 1484 4856 
L 1984 4856 
z
" transform="scale(0.015625)"/>
       <path id="DejaVuSans-394" d="M 2188 4044 
L 906 525 
L 3472 525 
L 2188 4044 
z
M 50 0 
L 1831 4666 
L 2547 4666 
L 4325 0 
L 50 0 
z
" transform="scale(0.015625)"/>
       <path id="DejaVuSans-29" d="M 513 4856 
L 1013 4856 
Q 1481 4119 1714 3412 
Q 1947 2706 1947 2009 
Q 1947 1309 1714 600 
Q 1481 -109 1013 -844 
L 513 -844 
Q 928 -128 1133 580 
Q 1338 1288 1338 2009 
Q 1338 2731 1133 3434 
Q 928 4138 513 4856 
z
" transform="scale(0.015625)"/>
      </defs>
      <use xlink:href="#DejaVuSans-46" transform="translate(0 0.015625)"/>
      <use xlink:href="#DejaVuSans-69" transform="translate(57.519531 0.015625)"/>
      <use xlink:href="#DejaVuSans-74" transform="translate(85.302734 0.015625)"/>
      <use xlink:href="#DejaVuSans-6e" transform="translate(124.511719 0.015625)"/>
      <use xlink:href="#DejaVuSans-65" transform="translate(187.890625 0.015625)"/>
      <use xlink:href="#DejaVuSans-73" transform="translate(249.414062 0.015625)"/>
      <use xlink:href="#DejaVuSans-73" transform="translate(301.513672 0.015625)"/>
      <use xlink:href="#DejaVuSans-20" transform="translate(353.613281 0.015625)"/>
      <use xlink:href="#DejaVuSans-65" transform="translate(385.400391 0.015625)"/>
      <use xlink:href="#DejaVuSans-66" transform="translate(446.923828 0.015625)"/>
      <use xlink:href="#DejaVuSans-66" transform="translate(482.128906 0.015625)"/>
      <use xlink:href="#DejaVuSans-65" transform="translate(517.333984 0.015625)"/>
      <use xlink:href="#DejaVuSans-63" transform="translate(578.857422 0.015625)"/>
      <use xlink:href="#DejaVuSans-74" transform="translate(633.837891 0.015625)"/>
      <use xlink:href="#DejaVuSans-20" transform="translate(673.046875 0.015625)"/>
      <use xlink:href="#DejaVuSans-28" transform="translate(704.833984 0.015625)"/>
      <use xlink:href="#DejaVuSans-394" transform="translate(743.847656 0.015625)"/>
      <use xlink:href="#DejaVuSans-29" transform="translate(812.255859 0.015625)"/>
     </g>
    </g>
    <g id="text_5">
     <!-- 1e−2 -->
     <g transform="translate(297.484497 307.987187) scale(0.14 -0.14)">
      <defs>
       <path id="DejaVuSans-31" d="M 794 531 
L 1825 531 
L 1825 4091 
L 703 3866 
L 703 4441 
L 1819 4666 
L 2450 4666 
L 2450 531 
L 3481 531 
L 3481 0 
L 794 0 
L 794 531 
z
" transform="scale(0.015625)"/>
       <path id="DejaVuSans-32" d="M 1228 531 
L 3431 531 
L 3431 0 
L 469 0 
L 469 531 
Q 828 903 1448 1529 
Q 2069 2156 2228 2338 
Q 2531 2678 2651 2914 
Q 2772 3150 2772 3378 
Q 2772 3750 2511 3984 
Q 2250 4219 1831 4219 
Q 1534 4219 1204 4116 
Q 875 4013 500 3803 
L 500 4441 
Q 881 4594 1212 4672 
Q 1544 4750 1819 4750 
Q 2544 4750 2975 4387 
Q 3406 4025 3406 3419 
Q 3406 3131 3298 2873 
Q 3191 2616 2906 2266 
Q 2828 2175 2409 1742 
Q 1991 1309 1228 531 
z
" transform="scale(0.015625)"/>
      </defs>
      <use xlink:href="#DejaVuSans-31"/>
      <use xlink:href="#DejaVuSans-65" x="63.623047"/>
      <use xlink:href="#DejaVuSans-2212" x="125.146484"/>
      <use xlink:href="#DejaVuSans-32" x="208.935547"/>
     </g>
    </g>
   </g>
   <g id="matplotlib.axis_2">
    <g id="ytick_1">
     <g id="line2d_4">
      <defs>
       <path id="m279ebef46c" d="M 0 0 
L -6 0 
" style="stroke: #000000; stroke-width: 1.5"/>
      </defs>
      <g>
       <use xlink:href="#m279ebef46c" x="34.515" y="261.3" style="stroke: #000000; stroke-width: 1.5"/>
      </g>
     </g>
     <g id="text_6">
      <!-- 0 -->
      <g transform="translate(16.1075 266.618906) scale(0.14 -0.14)">
       <use xlink:href="#DejaVuSans-30"/>
      </g>
     </g>
    </g>
    <g id="ytick_2">
     <g id="line2d_5">
      <g>
       <use xlink:href="#m279ebef46c" x="34.515" y="212.150529" style="stroke: #000000; stroke-width: 1.5"/>
      </g>
     </g>
     <g id="text_7">
      <!-- 20 -->
      <g transform="translate(7.2 217.469436) scale(0.14 -0.14)">
       <use xlink:href="#DejaVuSans-32"/>
       <use xlink:href="#DejaVuSans-30" x="63.623047"/>
      </g>
     </g>
    </g>
    <g id="ytick_3">
     <g id="line2d_6">
      <g>
       <use xlink:href="#m279ebef46c" x="34.515" y="163.001059" style="stroke: #000000; stroke-width: 1.5"/>
      </g>
     </g>
     <g id="text_8">
      <!-- 40 -->
      <g transform="translate(7.2 168.319965) scale(0.14 -0.14)">
       <defs>
        <path id="DejaVuSans-34" d="M 2419 4116 
L 825 1625 
L 2419 1625 
L 2419 4116 
z
M 2253 4666 
L 3047 4666 
L 3047 1625 
L 3713 1625 
L 3713 1100 
L 3047 1100 
L 3047 0 
L 2419 0 
L 2419 1100 
L 313 1100 
L 313 1709 
L 2253 4666 
z
" transform="scale(0.015625)"/>
       </defs>
       <use xlink:href="#DejaVuSans-34"/>
       <use xlink:href="#DejaVuSans-30" x="63.623047"/>
      </g>
     </g>
    </g>
    <g id="ytick_4">
     <g id="line2d_7">
      <g>
       <use xlink:href="#m279ebef46c" x="34.515" y="113.851588" style="stroke: #000000; stroke-width: 1.5"/>
      </g>
     </g>
     <g id="text_9">
      <!-- 60 -->
      <g transform="translate(7.2 119.170495) scale(0.14 -0.14)">
       <defs>
        <path id="DejaVuSans-36" d="M 2113 2584 
Q 1688 2584 1439 2293 
Q 1191 2003 1191 1497 
Q 1191 994 1439 701 
Q 1688 409 2113 409 
Q 2538 409 2786 701 
Q 3034 994 3034 1497 
Q 3034 2003 2786 2293 
Q 2538 2584 2113 2584 
z
M 3366 4563 
L 3366 3988 
Q 3128 4100 2886 4159 
Q 2644 4219 2406 4219 
Q 1781 4219 1451 3797 
Q 1122 3375 1075 2522 
Q 1259 2794 1537 2939 
Q 1816 3084 2150 3084 
Q 2853 3084 3261 2657 
Q 3669 2231 3669 1497 
Q 3669 778 3244 343 
Q 2819 -91 2113 -91 
Q 1303 -91 875 529 
Q 447 1150 447 2328 
Q 447 3434 972 4092 
Q 1497 4750 2381 4750 
Q 2619 4750 2861 4703 
Q 3103 4656 3366 4563 
z
" transform="scale(0.015625)"/>
       </defs>
       <use xlink:href="#DejaVuSans-36"/>
       <use xlink:href="#DejaVuSans-30" x="63.623047"/>
      </g>
     </g>
    </g>
    <g id="ytick_5">
     <g id="line2d_8">
      <g>
       <use xlink:href="#m279ebef46c" x="34.515" y="64.702118" style="stroke: #000000; stroke-width: 1.5"/>
      </g>
     </g>
     <g id="text_10">
      <!-- 80 -->
      <g transform="translate(7.2 70.021024) scale(0.14 -0.14)">
       <defs>
        <path id="DejaVuSans-38" d="M 2034 2216 
Q 1584 2216 1326 1975 
Q 1069 1734 1069 1313 
Q 1069 891 1326 650 
Q 1584 409 2034 409 
Q 2484 409 2743 651 
Q 3003 894 3003 1313 
Q 3003 1734 2745 1975 
Q 2488 2216 2034 2216 
z
M 1403 2484 
Q 997 2584 770 2862 
Q 544 3141 544 3541 
Q 544 4100 942 4425 
Q 1341 4750 2034 4750 
Q 2731 4750 3128 4425 
Q 3525 4100 3525 3541 
Q 3525 3141 3298 2862 
Q 3072 2584 2669 2484 
Q 3125 2378 3379 2068 
Q 3634 1759 3634 1313 
Q 3634 634 3220 271 
Q 2806 -91 2034 -91 
Q 1263 -91 848 271 
Q 434 634 434 1313 
Q 434 1759 690 2068 
Q 947 2378 1403 2484 
z
M 1172 3481 
Q 1172 3119 1398 2916 
Q 1625 2713 2034 2713 
Q 2441 2713 2670 2916 
Q 2900 3119 2900 3481 
Q 2900 3844 2670 4047 
Q 2441 4250 2034 4250 
Q 1625 4250 1398 4047 
Q 1172 3844 1172 3481 
z
" transform="scale(0.015625)"/>
       </defs>
       <use xlink:href="#DejaVuSans-38"/>
       <use xlink:href="#DejaVuSans-30" x="63.623047"/>
      </g>
     </g>
    </g>
   </g>
   <g id="line2d_9">
    <path d="M 59.071522 238.593221 
L 321.088913 238.593221 
" clip-path="url(#pef2ba5a095)" style="fill: none; stroke-dasharray: 3.7,1.6; stroke-dashoffset: 0; stroke: #808080"/>
   </g>
   <g id="line2d_10">
    <path d="M 44.515 263.143105 
L 59.071522 238.593221 
" clip-path="url(#pef2ba5a095)" style="fill: none; stroke-dasharray: 3.7,1.6; stroke-dashoffset: 0; stroke: #808080"/>
   </g>
   <g id="line2d_11">
    <path d="M 335.645435 263.143105 
L 321.088913 238.593221 
" clip-path="url(#pef2ba5a095)" style="fill: none; stroke-dasharray: 3.7,1.6; stroke-dashoffset: 0; stroke: #808080"/>
   </g>
   <g id="line2d_12">
    <path d="M 117.297609 263.143105 
L 124.57587 238.593221 
" clip-path="url(#pef2ba5a095)" style="fill: none; stroke-dasharray: 3.7,1.6; stroke-dashoffset: 0; stroke: #808080"/>
   </g>
   <g id="line2d_13">
    <path d="M 262.862826 263.143105 
L 255.584565 238.593221 
" clip-path="url(#pef2ba5a095)" style="fill: none; stroke-dasharray: 3.7,1.6; stroke-dashoffset: 0; stroke: #808080"/>
   </g>
   <g id="line2d_14">
    <path d="M 190.080217 263.143105 
L 190.080217 238.593221 
" clip-path="url(#pef2ba5a095)" style="fill: none; stroke-dasharray: 3.7,1.6; stroke-dashoffset: 0; stroke: #808080"/>
   </g>
   <g id="patch_7">
    <path d="M 34.515 261.3 
L 34.515 30.3 
" style="fill: none; stroke: #000000; stroke-width: 1.5; stroke-linejoin: miter; stroke-linecap: square"/>
   </g>
   <g id="patch_8">
    <path d="M 44.515 271.3 
L 335.645435 271.3 
" style="fill: none; stroke: #000000; stroke-width: 1.5; stroke-linejoin: miter; stroke-linecap: square"/>
   </g>
   <g id="text_11">
    <!-- $p_{KS} = 1.9e-07$ -->
    <g transform="translate(59.071522 50.94375) scale(0.12 -0.12)">
     <defs>
      <path id="DejaVuSans-Oblique-70" d="M 3175 2156 
Q 3175 2616 2975 2859 
Q 2775 3103 2400 3103 
Q 2144 3103 1911 2972 
Q 1678 2841 1497 2591 
Q 1319 2344 1212 1994 
Q 1106 1644 1106 1300 
Q 1106 863 1306 627 
Q 1506 391 1875 391 
Q 2147 391 2380 519 
Q 2613 647 2778 891 
Q 2956 1147 3065 1494 
Q 3175 1841 3175 2156 
z
M 1394 2969 
Q 1625 3272 1939 3428 
Q 2253 3584 2638 3584 
Q 3175 3584 3472 3232 
Q 3769 2881 3769 2247 
Q 3769 1728 3584 1258 
Q 3400 788 3053 416 
Q 2822 169 2531 39 
Q 2241 -91 1919 -91 
Q 1547 -91 1294 64 
Q 1041 219 916 525 
L 556 -1331 
L -19 -1331 
L 922 3500 
L 1497 3500 
L 1394 2969 
z
" transform="scale(0.015625)"/>
      <path id="DejaVuSans-Oblique-4b" d="M 1081 4666 
L 1716 4666 
L 1331 2700 
L 3781 4666 
L 4622 4666 
L 1850 2438 
L 3878 0 
L 3109 0 
L 1247 2272 
L 806 0 
L 172 0 
L 1081 4666 
z
" transform="scale(0.015625)"/>
      <path id="DejaVuSans-Oblique-53" d="M 3859 4513 
L 3738 3897 
Q 3422 4066 3111 4152 
Q 2800 4238 2509 4238 
Q 1944 4238 1609 3991 
Q 1275 3744 1275 3334 
Q 1275 3109 1398 2989 
Q 1522 2869 2034 2731 
L 2413 2638 
Q 3053 2472 3303 2217 
Q 3553 1963 3553 1503 
Q 3553 797 2998 353 
Q 2444 -91 1538 -91 
Q 1166 -91 791 -17 
Q 416 56 38 206 
L 166 856 
Q 513 641 861 531 
Q 1209 422 1556 422 
Q 2147 422 2503 684 
Q 2859 947 2859 1369 
Q 2859 1650 2717 1795 
Q 2575 1941 2106 2059 
L 1728 2156 
Q 1081 2325 845 2545 
Q 609 2766 609 3163 
Q 609 3859 1145 4304 
Q 1681 4750 2541 4750 
Q 2875 4750 3203 4690 
Q 3531 4631 3859 4513 
z
" transform="scale(0.015625)"/>
      <path id="DejaVuSans-3d" d="M 678 2906 
L 4684 2906 
L 4684 2381 
L 678 2381 
L 678 2906 
z
M 678 1631 
L 4684 1631 
L 4684 1100 
L 678 1100 
L 678 1631 
z
" transform="scale(0.015625)"/>
      <path id="DejaVuSans-2e" d="M 684 794 
L 1344 794 
L 1344 0 
L 684 0 
L 684 794 
z
" transform="scale(0.015625)"/>
      <path id="DejaVuSans-39" d="M 703 97 
L 703 672 
Q 941 559 1184 500 
Q 1428 441 1663 441 
Q 2288 441 2617 861 
Q 2947 1281 2994 2138 
Q 2813 1869 2534 1725 
Q 2256 1581 1919 1581 
Q 1219 1581 811 2004 
Q 403 2428 403 3163 
Q 403 3881 828 4315 
Q 1253 4750 1959 4750 
Q 2769 4750 3195 4129 
Q 3622 3509 3622 2328 
Q 3622 1225 3098 567 
Q 2575 -91 1691 -91 
Q 1453 -91 1209 -44 
Q 966 3 703 97 
z
M 1959 2075 
Q 2384 2075 2632 2365 
Q 2881 2656 2881 3163 
Q 2881 3666 2632 3958 
Q 2384 4250 1959 4250 
Q 1534 4250 1286 3958 
Q 1038 3666 1038 3163 
Q 1038 2656 1286 2365 
Q 1534 2075 1959 2075 
z
" transform="scale(0.015625)"/>
      <path id="DejaVuSans-Oblique-65" d="M 3078 2063 
Q 3088 2113 3092 2166 
Q 3097 2219 3097 2272 
Q 3097 2653 2873 2875 
Q 2650 3097 2266 3097 
Q 1838 3097 1509 2826 
Q 1181 2556 1013 2059 
L 3078 2063 
z
M 3578 1613 
L 903 1613 
Q 884 1494 878 1425 
Q 872 1356 872 1306 
Q 872 872 1139 634 
Q 1406 397 1894 397 
Q 2269 397 2603 481 
Q 2938 566 3225 728 
L 3116 159 
Q 2806 34 2476 -28 
Q 2147 -91 1806 -91 
Q 1078 -91 686 257 
Q 294 606 294 1247 
Q 294 1794 489 2264 
Q 684 2734 1063 3103 
Q 1306 3334 1642 3459 
Q 1978 3584 2356 3584 
Q 2950 3584 3301 3228 
Q 3653 2872 3653 2272 
Q 3653 2128 3634 1964 
Q 3616 1800 3578 1613 
z
" transform="scale(0.015625)"/>
      <path id="DejaVuSans-37" d="M 525 4666 
L 3525 4666 
L 3525 4397 
L 1831 0 
L 1172 0 
L 2766 4134 
L 525 4134 
L 525 4666 
z
" transform="scale(0.015625)"/>
     </defs>
     <use xlink:href="#DejaVuSans-Oblique-70" transform="translate(0 0.78125)"/>
     <use xlink:href="#DejaVuSans-Oblique-4b" transform="translate(63.476562 -15.625) scale(0.7)"/>
     <use xlink:href="#DejaVuSans-Oblique-53" transform="translate(109.379883 -15.625) scale(0.7)"/>
     <use xlink:href="#DejaVuSans-3d" transform="translate(176.030273 0.78125)"/>
     <use xlink:href="#DejaVuSans-31" transform="translate(279.301758 0.78125)"/>
     <use xlink:href="#DejaVuSans-2e" transform="translate(342.924805 0.78125)"/>
     <use xlink:href="#DejaVuSans-39" transform="translate(374.711914 0.78125)"/>
     <use xlink:href="#DejaVuSans-Oblique-65" transform="translate(438.334961 0.78125)"/>
     <use xlink:href="#DejaVuSans-2212" transform="translate(519.34082 0.78125)"/>
     <use xlink:href="#DejaVuSans-30" transform="translate(622.612305 0.78125)"/>
     <use xlink:href="#DejaVuSans-37" transform="translate(686.235352 0.78125)"/>
    </g>
   </g>
   <g id="text_12">
    <!-- A -->
    <g transform="translate(15.401957 20.877187) scale(0.18 -0.18)">
     <defs>
      <path id="DejaVuSans-Bold-41" d="M 3419 850 
L 1538 850 
L 1241 0 
L 31 0 
L 1759 4666 
L 3194 4666 
L 4922 0 
L 3713 0 
L 3419 850 
z
M 1838 1716 
L 3116 1716 
L 2478 3572 
L 1838 1716 
z
" transform="scale(0.015625)"/>
     </defs>
     <use xlink:href="#DejaVuSans-Bold-41"/>
    </g>
   </g>
   <g id="text_13">
    <!-- A -->
    <g transform="translate(15.401957 20.877187) scale(0.18 -0.18)">
     <use xlink:href="#DejaVuSans-Bold-41"/>
    </g>
   </g>
   <g id="legend_1">
    <g id="patch_9">
     <path d="M 240.567935 50.218125 
L 264.567935 50.218125 
L 264.567935 41.818125 
L 240.567935 41.818125 
z
" style="fill: #802f95; fill-opacity: 0.5; stroke: #000000; stroke-width: 1.1; stroke-linejoin: miter"/>
    </g>
    <g id="text_14">
     <!-- 15K -->
     <g transform="translate(274.167935 50.218125) scale(0.12 -0.12)">
      <defs>
       <path id="DejaVuSans-4b" d="M 628 4666 
L 1259 4666 
L 1259 2694 
L 3353 4666 
L 4166 4666 
L 1850 2491 
L 4331 0 
L 3500 0 
L 1259 2247 
L 1259 0 
L 628 0 
L 628 4666 
z
" transform="scale(0.015625)"/>
      </defs>
      <use xlink:href="#DejaVuSans-31"/>
      <use xlink:href="#DejaVuSans-35" x="63.623047"/>
      <use xlink:href="#DejaVuSans-4b" x="127.246094"/>
     </g>
    </g>
    <g id="line2d_15">
     <path d="M 240.567935 63.631875 
L 264.567935 63.631875 
" style="fill: none; stroke: #ff4126; stroke-width: 1.1; stroke-linecap: square"/>
    </g>
    <g id="text_15">
     <!-- DFE 15K -->
     <g transform="translate(274.167935 67.831875) scale(0.12 -0.12)">
      <defs>
       <path id="DejaVuSans-44" d="M 1259 4147 
L 1259 519 
L 2022 519 
Q 2988 519 3436 956 
Q 3884 1394 3884 2338 
Q 3884 3275 3436 3711 
Q 2988 4147 2022 4147 
L 1259 4147 
z
M 628 4666 
L 1925 4666 
Q 3281 4666 3915 4102 
Q 4550 3538 4550 2338 
Q 4550 1131 3912 565 
Q 3275 0 1925 0 
L 628 0 
L 628 4666 
z
" transform="scale(0.015625)"/>
       <path id="DejaVuSans-45" d="M 628 4666 
L 3578 4666 
L 3578 4134 
L 1259 4134 
L 1259 2753 
L 3481 2753 
L 3481 2222 
L 1259 2222 
L 1259 531 
L 3634 531 
L 3634 0 
L 628 0 
L 628 4666 
z
" transform="scale(0.015625)"/>
      </defs>
      <use xlink:href="#DejaVuSans-44"/>
      <use xlink:href="#DejaVuSans-46" x="77.001953"/>
      <use xlink:href="#DejaVuSans-45" x="134.521484"/>
      <use xlink:href="#DejaVuSans-20" x="197.705078"/>
      <use xlink:href="#DejaVuSans-31" x="229.492188"/>
      <use xlink:href="#DejaVuSans-35" x="293.115234"/>
      <use xlink:href="#DejaVuSans-4b" x="356.738281"/>
     </g>
    </g>
    <g id="patch_10">
     <path d="M 240.567935 85.445625 
L 264.567935 85.445625 
L 264.567935 77.045625 
L 240.567935 77.045625 
z
" style="fill: #808080; fill-opacity: 0.15; stroke: #000000; stroke-width: 1.1; stroke-linejoin: miter"/>
    </g>
    <g id="text_16">
     <!-- 0K -->
     <g transform="translate(274.167935 85.445625) scale(0.12 -0.12)">
      <use xlink:href="#DejaVuSans-30"/>
      <use xlink:href="#DejaVuSans-4b" x="63.623047"/>
     </g>
    </g>
   </g>
  </g>
  <g id="axes_2">
   <g id="patch_11">
    <path d="M 422.984565 261.3 
L 714.115 261.3 
L 714.115 30.3 
L 422.984565 30.3 
z
" style="fill: #ffffff"/>
   </g>
   <g id="patch_12">
    <path d="M 568.562124 261.3 
L 568.562124 45.792976 
L 571.831133 45.792976 
L 571.831133 61.999745 
L 575.100143 61.999745 
L 575.100143 95.074782 
L 578.369152 95.074782 
L 578.369152 110.2893 
L 581.638162 110.2893 
L 581.638162 149.648595 
L 584.907171 149.648595 
L 584.907171 171.147369 
L 588.176181 171.147369 
L 588.176181 192.976894 
L 591.44519 192.976894 
L 591.44519 204.553158 
L 594.7142 204.553158 
L 594.7142 211.829666 
L 597.983209 211.829666 
L 597.983209 223.075179 
L 601.252219 223.075179 
L 601.252219 224.728931 
L 604.521228 224.728931 
L 604.521228 232.336189 
L 607.790238 232.336189 
L 607.790238 233.989941 
L 611.059247 233.989941 
L 611.059247 235.643693 
L 614.328257 235.643693 
L 614.328257 237.628195 
L 617.597266 237.628195 
L 617.597266 239.943448 
L 620.866276 239.943448 
L 620.866276 239.943448 
L 624.135285 239.943448 
L 624.135285 239.281947 
L 627.404295 239.281947 
L 627.404295 239.281947 
L 630.673305 239.281947 
L 630.673305 239.281947 
L 633.942314 239.281947 
L 633.942314 261.3 
" clip-path="url(#p661b39d423)" style="fill: #802f95; fill-opacity: 0.5; stroke: #000000; stroke-width: 1.1; stroke-linejoin: miter"/>
   </g>
   <g id="patch_13">
    <path d="M 422.984565 261.3 
L 714.115 261.3 
L 714.115 239.943448 
L 422.984565 239.943448 
z
" clip-path="url(#p661b39d423)" style="fill: #ffffff"/>
   </g>
   <g id="patch_14">
    <path d="M 466.82106 261.3 
L 466.82106 260.269567 
L 473.134029 260.269567 
L 473.134029 260.956522 
L 479.446997 260.956522 
L 479.446997 260.956522 
L 485.759965 260.956522 
L 485.759965 260.784783 
L 492.072934 260.784783 
L 492.072934 259.582611 
L 498.385902 259.582611 
L 498.385902 260.441305 
L 504.69887 260.441305 
L 504.69887 258.2087 
L 511.011839 258.2087 
L 511.011839 256.319572 
L 517.324807 256.319572 
L 517.324807 255.460877 
L 523.637775 255.460877 
L 523.637775 250.30871 
L 529.950744 250.30871 
L 529.950744 248.247843 
L 536.263712 248.247843 
L 536.263712 241.034808 
L 542.57668 241.034808 
L 542.57668 234.336991 
L 548.889649 234.336991 
L 548.889649 223.173961 
L 555.202617 223.173961 
L 555.202617 203.423986 
L 561.515586 203.423986 
L 561.515586 193.634868 
L 567.828554 193.634868 
L 567.828554 195.00878 
L 574.141522 195.00878 
L 574.141522 203.423986 
L 580.454491 203.423986 
L 580.454491 213.213104 
L 586.767459 213.213104 
L 586.767459 226.265262 
L 593.080427 226.265262 
L 593.080427 240.004375 
L 599.393396 240.004375 
L 599.393396 250.652187 
L 605.706364 250.652187 
L 605.706364 256.49131 
L 612.019332 256.49131 
L 612.019332 258.552177 
L 618.332301 258.552177 
L 618.332301 260.956522 
L 624.645269 260.956522 
L 624.645269 260.956522 
L 630.958237 260.956522 
L 630.958237 260.613044 
L 637.271206 260.613044 
L 637.271206 260.956522 
L 643.584174 260.956522 
L 643.584174 261.3 
L 649.897143 261.3 
L 649.897143 260.956522 
L 656.210111 260.956522 
L 656.210111 261.3 
" clip-path="url(#p661b39d423)" style="fill: #808080; fill-opacity: 0.15; stroke: #000000; stroke-width: 1.1; stroke-linejoin: miter"/>
   </g>
   <g id="patch_15">
    <path d="M 432.390829 261.3 
L 432.390829 261.022326 
L 440.715783 261.022326 
L 440.715783 261.3 
L 449.040736 261.3 
L 449.040736 261.3 
L 457.365689 261.3 
L 457.365689 261.3 
L 465.690642 261.3 
L 465.690642 260.004188 
L 474.015595 260.004188 
L 474.015595 260.976047 
L 482.340548 260.976047 
L 482.340548 259.957909 
L 490.665502 259.957909 
L 490.665502 258.52326 
L 498.990455 258.52326 
L 498.990455 258.06047 
L 507.315408 258.06047 
L 507.315408 256.6721 
L 515.640361 256.6721 
L 515.640361 254.543266 
L 523.965314 254.543266 
L 523.965314 249.637692 
L 532.290267 249.637692 
L 532.290267 242.603283 
L 540.61522 242.603283 
L 540.61522 234.041668 
L 548.940174 234.041668 
L 548.940174 218.815876 
L 557.265127 218.815876 
L 557.265127 195.768933 
L 565.59008 195.768933 
L 565.59008 197.666373 
L 573.915033 197.666373 
L 573.915033 208.727054 
L 582.239986 208.727054 
L 582.239986 222.194243 
L 590.564939 222.194243 
L 590.564939 238.623289 
L 598.889893 238.623289 
L 598.889893 251.859084 
L 607.214846 251.859084 
L 607.214846 257.458843 
L 615.539799 257.458843 
L 615.539799 259.078608 
L 623.864752 259.078608 
L 623.864752 260.466978 
L 632.189705 260.466978 
L 632.189705 261.068605 
L 640.514658 261.068605 
L 640.514658 261.3 
L 648.839612 261.3 
L 648.839612 261.3 
L 657.164565 261.3 
L 657.164565 261.3 
L 665.489518 261.3 
L 665.489518 261.3 
L 673.814471 261.3 
L 673.814471 261.068605 
L 682.139424 261.068605 
L 682.139424 261.3 
" clip-path="url(#p661b39d423)" style="fill: none; stroke: #ff4126; stroke-width: 1.1; stroke-linejoin: miter"/>
   </g>
   <g id="matplotlib.axis_3">
    <g id="xtick_4">
     <g id="line2d_16">
      <g>
       <use xlink:href="#m24f2594130" x="477.571522" y="271.3" style="stroke: #000000; stroke-width: 1.5"/>
      </g>
     </g>
     <g id="text_17">
      <!-- −5 -->
      <g transform="translate(467.25199 291.437812) scale(0.14 -0.14)">
       <use xlink:href="#DejaVuSans-2212"/>
       <use xlink:href="#DejaVuSans-35" x="83.789062"/>
      </g>
     </g>
    </g>
    <g id="xtick_5">
     <g id="line2d_17">
      <g>
       <use xlink:href="#m24f2594130" x="568.549783" y="271.3" style="stroke: #000000; stroke-width: 1.5"/>
      </g>
     </g>
     <g id="text_18">
      <!-- 0 -->
      <g transform="translate(564.096033 291.437812) scale(0.14 -0.14)">
       <use xlink:href="#DejaVuSans-30"/>
      </g>
     </g>
    </g>
    <g id="xtick_6">
     <g id="line2d_18">
      <g>
       <use xlink:href="#m24f2594130" x="659.528043" y="271.3" style="stroke: #000000; stroke-width: 1.5"/>
      </g>
     </g>
     <g id="text_19">
      <!-- 5 -->
      <g transform="translate(655.074293 291.437812) scale(0.14 -0.14)">
       <use xlink:href="#DejaVuSans-35"/>
      </g>
     </g>
    </g>
    <g id="text_20">
     <!-- Fitness effect $(\Delta)$ -->
     <g transform="translate(500.389783 310.506875) scale(0.16 -0.16)">
      <use xlink:href="#DejaVuSans-46" transform="translate(0 0.015625)"/>
      <use xlink:href="#DejaVuSans-69" transform="translate(57.519531 0.015625)"/>
      <use xlink:href="#DejaVuSans-74" transform="translate(85.302734 0.015625)"/>
      <use xlink:href="#DejaVuSans-6e" transform="translate(124.511719 0.015625)"/>
      <use xlink:href="#DejaVuSans-65" transform="translate(187.890625 0.015625)"/>
      <use xlink:href="#DejaVuSans-73" transform="translate(249.414062 0.015625)"/>
      <use xlink:href="#DejaVuSans-73" transform="translate(301.513672 0.015625)"/>
      <use xlink:href="#DejaVuSans-20" transform="translate(353.613281 0.015625)"/>
      <use xlink:href="#DejaVuSans-65" transform="translate(385.400391 0.015625)"/>
      <use xlink:href="#DejaVuSans-66" transform="translate(446.923828 0.015625)"/>
      <use xlink:href="#DejaVuSans-66" transform="translate(482.128906 0.015625)"/>
      <use xlink:href="#DejaVuSans-65" transform="translate(517.333984 0.015625)"/>
      <use xlink:href="#DejaVuSans-63" transform="translate(578.857422 0.015625)"/>
      <use xlink:href="#DejaVuSans-74" transform="translate(633.837891 0.015625)"/>
      <use xlink:href="#DejaVuSans-20" transform="translate(673.046875 0.015625)"/>
      <use xlink:href="#DejaVuSans-28" transform="translate(704.833984 0.015625)"/>
      <use xlink:href="#DejaVuSans-394" transform="translate(743.847656 0.015625)"/>
      <use xlink:href="#DejaVuSans-29" transform="translate(812.255859 0.015625)"/>
     </g>
    </g>
    <g id="text_21">
     <!-- 1e−2 -->
     <g transform="translate(675.954063 307.987187) scale(0.14 -0.14)">
      <use xlink:href="#DejaVuSans-31"/>
      <use xlink:href="#DejaVuSans-65" x="63.623047"/>
      <use xlink:href="#DejaVuSans-2212" x="125.146484"/>
      <use xlink:href="#DejaVuSans-32" x="208.935547"/>
     </g>
    </g>
   </g>
   <g id="matplotlib.axis_4">
    <g id="ytick_6">
     <g id="line2d_19">
      <g>
       <use xlink:href="#m279ebef46c" x="412.984565" y="261.3" style="stroke: #000000; stroke-width: 1.5"/>
      </g>
     </g>
     <g id="text_22">
      <!-- 0 -->
      <g transform="translate(394.577065 266.618906) scale(0.14 -0.14)">
       <use xlink:href="#DejaVuSans-30"/>
      </g>
     </g>
    </g>
    <g id="ytick_7">
     <g id="line2d_20">
      <g>
       <use xlink:href="#m279ebef46c" x="412.984565" y="226.431038" style="stroke: #000000; stroke-width: 1.5"/>
      </g>
     </g>
     <g id="text_23">
      <!-- 20 -->
      <g transform="translate(385.669565 231.749945) scale(0.14 -0.14)">
       <use xlink:href="#DejaVuSans-32"/>
       <use xlink:href="#DejaVuSans-30" x="63.623047"/>
      </g>
     </g>
    </g>
    <g id="ytick_8">
     <g id="line2d_21">
      <g>
       <use xlink:href="#m279ebef46c" x="412.984565" y="191.562077" style="stroke: #000000; stroke-width: 1.5"/>
      </g>
     </g>
     <g id="text_24">
      <!-- 40 -->
      <g transform="translate(385.669565 196.880983) scale(0.14 -0.14)">
       <use xlink:href="#DejaVuSans-34"/>
       <use xlink:href="#DejaVuSans-30" x="63.623047"/>
      </g>
     </g>
    </g>
    <g id="ytick_9">
     <g id="line2d_22">
      <g>
       <use xlink:href="#m279ebef46c" x="412.984565" y="156.693115" style="stroke: #000000; stroke-width: 1.5"/>
      </g>
     </g>
     <g id="text_25">
      <!-- 60 -->
      <g transform="translate(385.669565 162.012022) scale(0.14 -0.14)">
       <use xlink:href="#DejaVuSans-36"/>
       <use xlink:href="#DejaVuSans-30" x="63.623047"/>
      </g>
     </g>
    </g>
    <g id="ytick_10">
     <g id="line2d_23">
      <g>
       <use xlink:href="#m279ebef46c" x="412.984565" y="121.824154" style="stroke: #000000; stroke-width: 1.5"/>
      </g>
     </g>
     <g id="text_26">
      <!-- 80 -->
      <g transform="translate(385.669565 127.14306) scale(0.14 -0.14)">
       <use xlink:href="#DejaVuSans-38"/>
       <use xlink:href="#DejaVuSans-30" x="63.623047"/>
      </g>
     </g>
    </g>
    <g id="ytick_11">
     <g id="line2d_24">
      <g>
       <use xlink:href="#m279ebef46c" x="412.984565" y="86.955192" style="stroke: #000000; stroke-width: 1.5"/>
      </g>
     </g>
     <g id="text_27">
      <!-- 100 -->
      <g transform="translate(376.762065 92.274098) scale(0.14 -0.14)">
       <use xlink:href="#DejaVuSans-31"/>
       <use xlink:href="#DejaVuSans-30" x="63.623047"/>
       <use xlink:href="#DejaVuSans-30" x="127.246094"/>
      </g>
     </g>
    </g>
    <g id="ytick_12">
     <g id="line2d_25">
      <g>
       <use xlink:href="#m279ebef46c" x="412.984565" y="52.086231" style="stroke: #000000; stroke-width: 1.5"/>
      </g>
     </g>
     <g id="text_28">
      <!-- 120 -->
      <g transform="translate(376.762065 57.405137) scale(0.14 -0.14)">
       <use xlink:href="#DejaVuSans-31"/>
       <use xlink:href="#DejaVuSans-32" x="63.623047"/>
       <use xlink:href="#DejaVuSans-30" x="127.246094"/>
      </g>
     </g>
    </g>
   </g>
   <g id="line2d_26">
    <path d="M 437.541087 237.807793 
L 699.558478 237.807793 
" clip-path="url(#p661b39d423)" style="fill: none; stroke-dasharray: 3.7,1.6; stroke-dashoffset: 0; stroke: #808080"/>
   </g>
   <g id="line2d_27">
    <path d="M 422.984565 262.607586 
L 437.541087 237.807793 
" clip-path="url(#p661b39d423)" style="fill: none; stroke-dasharray: 3.7,1.6; stroke-dashoffset: 0; stroke: #808080"/>
   </g>
   <g id="line2d_28">
    <path d="M 714.115 262.607586 
L 699.558478 237.807793 
" clip-path="url(#p661b39d423)" style="fill: none; stroke-dasharray: 3.7,1.6; stroke-dashoffset: 0; stroke: #808080"/>
   </g>
   <g id="line2d_29">
    <path d="M 495.767174 262.607586 
L 503.045435 237.807793 
" clip-path="url(#p661b39d423)" style="fill: none; stroke-dasharray: 3.7,1.6; stroke-dashoffset: 0; stroke: #808080"/>
   </g>
   <g id="line2d_30">
    <path d="M 641.332391 262.607586 
L 634.05413 237.807793 
" clip-path="url(#p661b39d423)" style="fill: none; stroke-dasharray: 3.7,1.6; stroke-dashoffset: 0; stroke: #808080"/>
   </g>
   <g id="line2d_31">
    <path d="M 568.549783 262.607586 
L 568.549783 237.807793 
" clip-path="url(#p661b39d423)" style="fill: none; stroke-dasharray: 3.7,1.6; stroke-dashoffset: 0; stroke: #808080"/>
   </g>
   <g id="patch_16">
    <path d="M 412.984565 261.3 
L 412.984565 30.3 
" style="fill: none; stroke: #000000; stroke-width: 1.5; stroke-linejoin: miter; stroke-linecap: square"/>
   </g>
   <g id="patch_17">
    <path d="M 422.984565 271.3 
L 714.115 271.3 
" style="fill: none; stroke: #000000; stroke-width: 1.5; stroke-linejoin: miter; stroke-linecap: square"/>
   </g>
   <g id="text_29">
    <!-- $p_{KS} = 0.00063$ -->
    <g transform="translate(437.541087 50.94375) scale(0.12 -0.12)">
     <defs>
      <path id="DejaVuSans-33" d="M 2597 2516 
Q 3050 2419 3304 2112 
Q 3559 1806 3559 1356 
Q 3559 666 3084 287 
Q 2609 -91 1734 -91 
Q 1441 -91 1130 -33 
Q 819 25 488 141 
L 488 750 
Q 750 597 1062 519 
Q 1375 441 1716 441 
Q 2309 441 2620 675 
Q 2931 909 2931 1356 
Q 2931 1769 2642 2001 
Q 2353 2234 1838 2234 
L 1294 2234 
L 1294 2753 
L 1863 2753 
Q 2328 2753 2575 2939 
Q 2822 3125 2822 3475 
Q 2822 3834 2567 4026 
Q 2313 4219 1838 4219 
Q 1578 4219 1281 4162 
Q 984 4106 628 3988 
L 628 4550 
Q 988 4650 1302 4700 
Q 1616 4750 1894 4750 
Q 2613 4750 3031 4423 
Q 3450 4097 3450 3541 
Q 3450 3153 3228 2886 
Q 3006 2619 2597 2516 
z
" transform="scale(0.015625)"/>
     </defs>
     <use xlink:href="#DejaVuSans-Oblique-70" transform="translate(0 0.78125)"/>
     <use xlink:href="#DejaVuSans-Oblique-4b" transform="translate(63.476562 -15.625) scale(0.7)"/>
     <use xlink:href="#DejaVuSans-Oblique-53" transform="translate(109.379883 -15.625) scale(0.7)"/>
     <use xlink:href="#DejaVuSans-3d" transform="translate(176.030273 0.78125)"/>
     <use xlink:href="#DejaVuSans-30" transform="translate(279.301758 0.78125)"/>
     <use xlink:href="#DejaVuSans-2e" transform="translate(342.924805 0.78125)"/>
     <use xlink:href="#DejaVuSans-30" transform="translate(374.711914 0.78125)"/>
     <use xlink:href="#DejaVuSans-30" transform="translate(438.334961 0.78125)"/>
     <use xlink:href="#DejaVuSans-30" transform="translate(501.958008 0.78125)"/>
     <use xlink:href="#DejaVuSans-36" transform="translate(565.581055 0.78125)"/>
     <use xlink:href="#DejaVuSans-33" transform="translate(629.204102 0.78125)"/>
    </g>
   </g>
   <g id="text_30">
    <!-- B -->
    <g transform="translate(393.871522 20.877187) scale(0.18 -0.18)">
     <defs>
      <path id="DejaVuSans-Bold-42" d="M 2456 2859 
Q 2741 2859 2887 2984 
Q 3034 3109 3034 3353 
Q 3034 3594 2887 3720 
Q 2741 3847 2456 3847 
L 1791 3847 
L 1791 2859 
L 2456 2859 
z
M 2497 819 
Q 2859 819 3042 972 
Q 3225 1125 3225 1434 
Q 3225 1738 3044 1889 
Q 2863 2041 2497 2041 
L 1791 2041 
L 1791 819 
L 2497 819 
z
M 3616 2497 
Q 4003 2384 4215 2081 
Q 4428 1778 4428 1338 
Q 4428 663 3972 331 
Q 3516 0 2584 0 
L 588 0 
L 588 4666 
L 2394 4666 
Q 3366 4666 3802 4372 
Q 4238 4078 4238 3431 
Q 4238 3091 4078 2852 
Q 3919 2613 3616 2497 
z
" transform="scale(0.015625)"/>
     </defs>
     <use xlink:href="#DejaVuSans-Bold-42"/>
    </g>
   </g>
   <g id="text_31">
    <!-- B -->
    <g transform="translate(393.871522 20.877187) scale(0.18 -0.18)">
     <use xlink:href="#DejaVuSans-Bold-42"/>
    </g>
   </g>
   <g id="legend_2">
    <g id="patch_18">
     <path d="M 626.6725 50.218125 
L 650.6725 50.218125 
L 650.6725 41.818125 
L 626.6725 41.818125 
z
" style="fill: #802f95; fill-opacity: 0.5; stroke: #000000; stroke-width: 1.1; stroke-linejoin: miter"/>
    </g>
    <g id="text_32">
     <!-- 15K -->
     <g transform="translate(660.2725 50.218125) scale(0.12 -0.12)">
      <use xlink:href="#DejaVuSans-31"/>
      <use xlink:href="#DejaVuSans-35" x="63.623047"/>
      <use xlink:href="#DejaVuSans-4b" x="127.246094"/>
     </g>
    </g>
    <g id="patch_19">
     <path d="M 626.6725 67.831875 
L 650.6725 67.831875 
L 650.6725 59.431875 
L 626.6725 59.431875 
z
" style="fill: #808080; fill-opacity: 0.15; stroke: #000000; stroke-width: 1.1; stroke-linejoin: miter"/>
    </g>
    <g id="text_33">
     <!-- 0K -->
     <g transform="translate(660.2725 67.831875) scale(0.12 -0.12)">
      <use xlink:href="#DejaVuSans-30"/>
      <use xlink:href="#DejaVuSans-4b" x="63.623047"/>
     </g>
    </g>
    <g id="line2d_32">
     <path d="M 626.6725 81.245625 
L 650.6725 81.245625 
" style="fill: none; stroke: #ff4126; stroke-width: 1.1; stroke-linecap: square"/>
    </g>
    <g id="text_34">
     <!-- DFE 0K -->
     <g transform="translate(660.2725 85.445625) scale(0.12 -0.12)">
      <use xlink:href="#DejaVuSans-44"/>
      <use xlink:href="#DejaVuSans-46" x="77.001953"/>
      <use xlink:href="#DejaVuSans-45" x="134.521484"/>
      <use xlink:href="#DejaVuSans-20" x="197.705078"/>
      <use xlink:href="#DejaVuSans-30" x="229.492188"/>
      <use xlink:href="#DejaVuSans-4b" x="293.115234"/>
     </g>
    </g>
   </g>
  </g>
  <g id="axes_3">
   <g id="patch_20">
    <path d="M 44.515 584.7 
L 335.645435 584.7 
L 335.645435 353.7 
L 44.515 353.7 
z
" style="fill: #ffffff"/>
   </g>
   <g id="patch_21">
    <path d="M -43.391125 584.7 
L -43.391125 564.037128 
L -33.069629 564.037128 
L -33.069629 564.470467 
L -22.748133 564.470467 
L -22.748133 563.712124 
L -12.426636 563.712124 
L -12.426636 564.145463 
L -2.10514 564.145463 
L -2.10514 564.037128 
L 8.216356 564.037128 
L 8.216356 563.495455 
L 18.537852 563.495455 
L 18.537852 563.603789 
L 28.859349 563.603789 
L 28.859349 563.603789 
L 39.180845 563.603789 
L 39.180845 563.17045 
L 49.502341 563.17045 
L 49.502341 563.495455 
L 59.823838 563.495455 
L 59.823838 563.820459 
L 70.145334 563.820459 
L 70.145334 562.953781 
L 80.46683 562.953781 
L 80.46683 561.653764 
L 90.788327 561.653764 
L 90.788327 561.54543 
L 101.109823 561.54543 
L 101.109823 559.270401 
L 111.431319 559.270401 
L 111.431319 558.837062 
L 121.752816 558.837062 
L 121.752816 557.212041 
L 132.074312 557.212041 
L 132.074312 552.878652 
L 142.395808 552.878652 
L 142.395808 546.161899 
L 152.717304 546.161899 
L 152.717304 531.103373 
L 163.038801 531.103373 
L 163.038801 502.069669 
L 173.360297 502.069669 
L 173.360297 462.635831 
L 183.681793 462.635831 
L 183.681793 449.635664 
L 194.00329 449.635664 
L 194.00329 490.261184 
L 204.324786 490.261184 
L 204.324786 529.045014 
L 214.646282 529.045014 
L 214.646282 549.736945 
L 224.967779 549.736945 
L 224.967779 560.028744 
L 235.289275 560.028744 
L 235.289275 563.38712 
L 245.610771 563.38712 
L 245.610771 563.712124 
L 255.932268 563.712124 
L 255.932268 564.362132 
L 266.253764 564.362132 
L 266.253764 584.7 
" clip-path="url(#pc8ba1ba396)" style="fill: #802f95; fill-opacity: 0.5; stroke: #000000; stroke-width: 1.1; stroke-linejoin: miter"/>
   </g>
   <g id="patch_22">
    <path d="M 46.475771 584.7 
L 46.475771 563.974288 
L 52.835389 563.974288 
L 52.835389 564.470467 
L 59.195008 564.470467 
L 59.195008 564.470467 
L 65.554627 564.470467 
L 65.554627 563.974288 
L 71.914246 563.974288 
L 71.914246 563.775816 
L 78.273865 563.775816 
L 78.273865 564.470467 
L 84.633483 564.470467 
L 84.633483 561.493391 
L 90.993102 561.493391 
L 90.993102 562.188042 
L 97.352721 562.188042 
L 97.352721 561.394155 
L 103.71234 561.394155 
L 103.71234 560.401797 
L 110.071958 560.401797 
L 110.071958 559.905618 
L 116.431577 559.905618 
L 116.431577 560.004853 
L 122.791196 560.004853 
L 122.791196 558.218608 
L 129.150815 558.218608 
L 129.150815 557.722429 
L 135.510434 557.722429 
L 135.510434 554.149938 
L 141.870052 554.149938 
L 141.870052 550.378975 
L 148.229671 550.378975 
L 148.229671 545.119475 
L 154.58929 545.119475 
L 154.58929 534.69971 
L 160.948909 534.69971 
L 160.948909 522.195992 
L 167.308528 522.195992 
L 167.308528 493.516829 
L 173.668146 493.516829 
L 173.668146 462.753713 
L 180.027765 462.753713 
L 180.027765 442.906542 
L 186.387384 442.906542 
L 186.387384 430.105116 
L 192.747003 430.105116 
L 192.747003 469.700223 
L 199.106622 469.700223 
L 199.106622 495.700018 
L 205.46624 495.700018 
L 205.46624 525.768483 
L 211.825859 525.768483 
L 211.825859 545.417182 
L 218.185478 545.417182 
L 218.185478 553.058343 
L 224.545097 553.058343 
L 224.545097 559.707146 
L 230.904716 559.707146 
L 230.904716 561.195684 
L 237.264334 561.195684 
L 237.264334 584.7 
" clip-path="url(#pc8ba1ba396)" style="fill: none; stroke: #ff4126; stroke-width: 1.1; stroke-linejoin: miter"/>
   </g>
   <g id="patch_23">
    <path d="M 44.515 584.7 
L 335.645435 584.7 
L 335.645435 564.470467 
L 44.515 564.470467 
z
" clip-path="url(#pc8ba1ba396)" style="fill: #ffffff"/>
   </g>
   <g id="patch_24">
    <path d="M -222.748868 584.7 
L -222.748868 584.536891 
L -208.987957 584.536891 
L -208.987957 584.7 
L -195.227045 584.7 
L -195.227045 584.7 
L -181.466134 584.7 
L -181.466134 584.7 
L -167.705223 584.7 
L -167.705223 584.7 
L -153.944312 584.7 
L -153.944312 584.7 
L -140.183401 584.7 
L -140.183401 584.536891 
L -126.42249 584.536891 
L -126.42249 584.7 
L -112.661579 584.7 
L -112.661579 584.536891 
L -98.900668 584.536891 
L -98.900668 584.536891 
L -85.139757 584.536891 
L -85.139757 584.455337 
L -71.378846 584.455337 
L -71.378846 584.536891 
L -57.617935 584.536891 
L -57.617935 584.373783 
L -43.857023 584.373783 
L -43.857023 584.7 
L -30.096112 584.7 
L -30.096112 584.455337 
L -16.335201 584.455337 
L -16.335201 584.7 
L -2.57429 584.7 
L -2.57429 584.210674 
L 11.186621 584.210674 
L 11.186621 584.373783 
L 24.947532 584.373783 
L 24.947532 584.12912 
L 38.708443 584.12912 
L 38.708443 583.884457 
L 52.469354 583.884457 
L 52.469354 583.150469 
L 66.230265 583.150469 
L 66.230265 583.55824 
L 79.991176 583.55824 
L 79.991176 582.090264 
L 93.752087 582.090264 
L 93.752087 581.356276 
L 107.512999 581.356276 
L 107.512999 577.849443 
L 121.27391 577.849443 
L 121.27391 574.016393 
L 135.034821 574.016393 
L 135.034821 562.84346 
L 148.795732 562.84346 
L 148.795732 536.501435 
L 162.556643 536.501435 
L 162.556643 489.118413 
L 176.317554 489.118413 
L 176.317554 400.795155 
L 190.078465 400.795155 
L 190.078465 584.7 
" clip-path="url(#pc8ba1ba396)" style="fill: #808080; fill-opacity: 0.15; stroke: #000000; stroke-width: 1.1; stroke-linejoin: miter"/>
   </g>
   <g id="matplotlib.axis_5">
    <g id="xtick_7">
     <g id="line2d_33">
      <g>
       <use xlink:href="#m24f2594130" x="99.101957" y="594.7" style="stroke: #000000; stroke-width: 1.5"/>
      </g>
     </g>
     <g id="text_35">
      <!-- −5 -->
      <g transform="translate(88.782425 614.837812) scale(0.14 -0.14)">
       <use xlink:href="#DejaVuSans-2212"/>
       <use xlink:href="#DejaVuSans-35" x="83.789062"/>
      </g>
     </g>
    </g>
    <g id="xtick_8">
     <g id="line2d_34">
      <g>
       <use xlink:href="#m24f2594130" x="190.080217" y="594.7" style="stroke: #000000; stroke-width: 1.5"/>
      </g>
     </g>
     <g id="text_36">
      <!-- 0 -->
      <g transform="translate(185.626467 614.837812) scale(0.14 -0.14)">
       <use xlink:href="#DejaVuSans-30"/>
      </g>
     </g>
    </g>
    <g id="xtick_9">
     <g id="line2d_35">
      <g>
       <use xlink:href="#m24f2594130" x="281.058478" y="594.7" style="stroke: #000000; stroke-width: 1.5"/>
      </g>
     </g>
     <g id="text_37">
      <!-- 5 -->
      <g transform="translate(276.604728 614.837812) scale(0.14 -0.14)">
       <use xlink:href="#DejaVuSans-35"/>
      </g>
     </g>
    </g>
    <g id="text_38">
     <!-- Fitness effect $(\Delta)$ -->
     <g transform="translate(121.920217 633.906875) scale(0.16 -0.16)">
      <use xlink:href="#DejaVuSans-46" transform="translate(0 0.015625)"/>
      <use xlink:href="#DejaVuSans-69" transform="translate(57.519531 0.015625)"/>
      <use xlink:href="#DejaVuSans-74" transform="translate(85.302734 0.015625)"/>
      <use xlink:href="#DejaVuSans-6e" transform="translate(124.511719 0.015625)"/>
      <use xlink:href="#DejaVuSans-65" transform="translate(187.890625 0.015625)"/>
      <use xlink:href="#DejaVuSans-73" transform="translate(249.414062 0.015625)"/>
      <use xlink:href="#DejaVuSans-73" transform="translate(301.513672 0.015625)"/>
      <use xlink:href="#DejaVuSans-20" transform="translate(353.613281 0.015625)"/>
      <use xlink:href="#DejaVuSans-65" transform="translate(385.400391 0.015625)"/>
      <use xlink:href="#DejaVuSans-66" transform="translate(446.923828 0.015625)"/>
      <use xlink:href="#DejaVuSans-66" transform="translate(482.128906 0.015625)"/>
      <use xlink:href="#DejaVuSans-65" transform="translate(517.333984 0.015625)"/>
      <use xlink:href="#DejaVuSans-63" transform="translate(578.857422 0.015625)"/>
      <use xlink:href="#DejaVuSans-74" transform="translate(633.837891 0.015625)"/>
      <use xlink:href="#DejaVuSans-20" transform="translate(673.046875 0.015625)"/>
      <use xlink:href="#DejaVuSans-28" transform="translate(704.833984 0.015625)"/>
      <use xlink:href="#DejaVuSans-394" transform="translate(743.847656 0.015625)"/>
      <use xlink:href="#DejaVuSans-29" transform="translate(812.255859 0.015625)"/>
     </g>
    </g>
    <g id="text_39">
     <!-- 1e−2 -->
     <g transform="translate(297.484497 631.387187) scale(0.14 -0.14)">
      <use xlink:href="#DejaVuSans-31"/>
      <use xlink:href="#DejaVuSans-65" x="63.623047"/>
      <use xlink:href="#DejaVuSans-2212" x="125.146484"/>
      <use xlink:href="#DejaVuSans-32" x="208.935547"/>
     </g>
    </g>
   </g>
   <g id="matplotlib.axis_6">
    <g id="ytick_13">
     <g id="line2d_36">
      <g>
       <use xlink:href="#m279ebef46c" x="34.515" y="584.7" style="stroke: #000000; stroke-width: 1.5"/>
      </g>
     </g>
     <g id="text_40">
      <!-- 0 -->
      <g transform="translate(16.1075 590.018906) scale(0.14 -0.14)">
       <use xlink:href="#DejaVuSans-30"/>
      </g>
     </g>
    </g>
    <g id="ytick_14">
     <g id="line2d_37">
      <g>
       <use xlink:href="#m279ebef46c" x="34.515" y="527.290659" style="stroke: #000000; stroke-width: 1.5"/>
      </g>
     </g>
     <g id="text_41">
      <!-- 20 -->
      <g transform="translate(7.2 532.609565) scale(0.14 -0.14)">
       <use xlink:href="#DejaVuSans-32"/>
       <use xlink:href="#DejaVuSans-30" x="63.623047"/>
      </g>
     </g>
    </g>
    <g id="ytick_15">
     <g id="line2d_38">
      <g>
       <use xlink:href="#m279ebef46c" x="34.515" y="469.881318" style="stroke: #000000; stroke-width: 1.5"/>
      </g>
     </g>
     <g id="text_42">
      <!-- 40 -->
      <g transform="translate(7.2 475.200224) scale(0.14 -0.14)">
       <use xlink:href="#DejaVuSans-34"/>
       <use xlink:href="#DejaVuSans-30" x="63.623047"/>
      </g>
     </g>
    </g>
    <g id="ytick_16">
     <g id="line2d_39">
      <g>
       <use xlink:href="#m279ebef46c" x="34.515" y="412.471977" style="stroke: #000000; stroke-width: 1.5"/>
      </g>
     </g>
     <g id="text_43">
      <!-- 60 -->
      <g transform="translate(7.2 417.790883) scale(0.14 -0.14)">
       <use xlink:href="#DejaVuSans-36"/>
       <use xlink:href="#DejaVuSans-30" x="63.623047"/>
      </g>
     </g>
    </g>
    <g id="ytick_17">
     <g id="line2d_40">
      <g>
       <use xlink:href="#m279ebef46c" x="34.515" y="355.062636" style="stroke: #000000; stroke-width: 1.5"/>
      </g>
     </g>
     <g id="text_44">
      <!-- 80 -->
      <g transform="translate(7.2 360.381542) scale(0.14 -0.14)">
       <use xlink:href="#DejaVuSans-38"/>
       <use xlink:href="#DejaVuSans-30" x="63.623047"/>
      </g>
     </g>
    </g>
   </g>
   <g id="line2d_41">
    <path d="M 59.071522 562.447514 
L 321.088913 562.447514 
" clip-path="url(#pc8ba1ba396)" style="fill: none; stroke-dasharray: 3.7,1.6; stroke-dashoffset: 0; stroke: #808080"/>
   </g>
   <g id="line2d_42">
    <path d="M 44.515 586.85285 
L 59.071522 562.447514 
" clip-path="url(#pc8ba1ba396)" style="fill: none; stroke-dasharray: 3.7,1.6; stroke-dashoffset: 0; stroke: #808080"/>
   </g>
   <g id="line2d_43">
    <path d="M 335.645435 586.85285 
L 321.088913 562.447514 
" clip-path="url(#pc8ba1ba396)" style="fill: none; stroke-dasharray: 3.7,1.6; stroke-dashoffset: 0; stroke: #808080"/>
   </g>
   <g id="line2d_44">
    <path d="M 117.297609 586.85285 
L 124.57587 562.447514 
" clip-path="url(#pc8ba1ba396)" style="fill: none; stroke-dasharray: 3.7,1.6; stroke-dashoffset: 0; stroke: #808080"/>
   </g>
   <g id="line2d_45">
    <path d="M 262.862826 586.85285 
L 255.584565 562.447514 
" clip-path="url(#pc8ba1ba396)" style="fill: none; stroke-dasharray: 3.7,1.6; stroke-dashoffset: 0; stroke: #808080"/>
   </g>
   <g id="line2d_46">
    <path d="M 190.080217 586.85285 
L 190.080217 562.447514 
" clip-path="url(#pc8ba1ba396)" style="fill: none; stroke-dasharray: 3.7,1.6; stroke-dashoffset: 0; stroke: #808080"/>
   </g>
   <g id="patch_25">
    <path d="M 34.515 584.7 
L 34.515 353.7 
" style="fill: none; stroke: #000000; stroke-width: 1.5; stroke-linejoin: miter; stroke-linecap: square"/>
   </g>
   <g id="patch_26">
    <path d="M 44.515 594.7 
L 335.645435 594.7 
" style="fill: none; stroke: #000000; stroke-width: 1.5; stroke-linejoin: miter; stroke-linecap: square"/>
   </g>
   <g id="text_45">
    <!-- $p_{KS} = 1.6e-05$ -->
    <g transform="translate(59.071522 374.34375) scale(0.12 -0.12)">
     <use xlink:href="#DejaVuSans-Oblique-70" transform="translate(0 0.78125)"/>
     <use xlink:href="#DejaVuSans-Oblique-4b" transform="translate(63.476562 -15.625) scale(0.7)"/>
     <use xlink:href="#DejaVuSans-Oblique-53" transform="translate(109.379883 -15.625) scale(0.7)"/>
     <use xlink:href="#DejaVuSans-3d" transform="translate(176.030273 0.78125)"/>
     <use xlink:href="#DejaVuSans-31" transform="translate(279.301758 0.78125)"/>
     <use xlink:href="#DejaVuSans-2e" transform="translate(342.924805 0.78125)"/>
     <use xlink:href="#DejaVuSans-36" transform="translate(374.711914 0.78125)"/>
     <use xlink:href="#DejaVuSans-Oblique-65" transform="translate(438.334961 0.78125)"/>
     <use xlink:href="#DejaVuSans-2212" transform="translate(519.34082 0.78125)"/>
     <use xlink:href="#DejaVuSans-30" transform="translate(622.612305 0.78125)"/>
     <use xlink:href="#DejaVuSans-35" transform="translate(686.235352 0.78125)"/>
    </g>
   </g>
   <g id="text_46">
    <!-- C -->
    <g transform="translate(15.401957 344.277187) scale(0.18 -0.18)">
     <defs>
      <path id="DejaVuSans-Bold-43" d="M 4288 256 
Q 3956 84 3597 -3 
Q 3238 -91 2847 -91 
Q 1681 -91 1000 561 
Q 319 1213 319 2328 
Q 319 3447 1000 4098 
Q 1681 4750 2847 4750 
Q 3238 4750 3597 4662 
Q 3956 4575 4288 4403 
L 4288 3438 
Q 3953 3666 3628 3772 
Q 3303 3878 2944 3878 
Q 2300 3878 1931 3465 
Q 1563 3053 1563 2328 
Q 1563 1606 1931 1193 
Q 2300 781 2944 781 
Q 3303 781 3628 887 
Q 3953 994 4288 1222 
L 4288 256 
z
" transform="scale(0.015625)"/>
     </defs>
     <use xlink:href="#DejaVuSans-Bold-43"/>
    </g>
   </g>
   <g id="text_47">
    <!-- C -->
    <g transform="translate(15.401957 344.277187) scale(0.18 -0.18)">
     <use xlink:href="#DejaVuSans-Bold-43"/>
    </g>
   </g>
   <g id="legend_3">
    <g id="patch_27">
     <path d="M 240.567935 373.618125 
L 264.567935 373.618125 
L 264.567935 365.218125 
L 240.567935 365.218125 
z
" style="fill: #802f95; fill-opacity: 0.5; stroke: #000000; stroke-width: 1.1; stroke-linejoin: miter"/>
    </g>
    <g id="text_48">
     <!-- 15K -->
     <g transform="translate(274.167935 373.618125) scale(0.12 -0.12)">
      <use xlink:href="#DejaVuSans-31"/>
      <use xlink:href="#DejaVuSans-35" x="63.623047"/>
      <use xlink:href="#DejaVuSans-4b" x="127.246094"/>
     </g>
    </g>
    <g id="line2d_47">
     <path d="M 240.567935 387.031875 
L 264.567935 387.031875 
" style="fill: none; stroke: #ff4126; stroke-width: 1.1; stroke-linecap: square"/>
    </g>
    <g id="text_49">
     <!-- DFE 15K -->
     <g transform="translate(274.167935 391.231875) scale(0.12 -0.12)">
      <use xlink:href="#DejaVuSans-44"/>
      <use xlink:href="#DejaVuSans-46" x="77.001953"/>
      <use xlink:href="#DejaVuSans-45" x="134.521484"/>
      <use xlink:href="#DejaVuSans-20" x="197.705078"/>
      <use xlink:href="#DejaVuSans-31" x="229.492188"/>
      <use xlink:href="#DejaVuSans-35" x="293.115234"/>
      <use xlink:href="#DejaVuSans-4b" x="356.738281"/>
     </g>
    </g>
    <g id="patch_28">
     <path d="M 240.567935 408.845625 
L 264.567935 408.845625 
L 264.567935 400.445625 
L 240.567935 400.445625 
z
" style="fill: #808080; fill-opacity: 0.15; stroke: #000000; stroke-width: 1.1; stroke-linejoin: miter"/>
    </g>
    <g id="text_50">
     <!-- 0K -->
     <g transform="translate(274.167935 408.845625) scale(0.12 -0.12)">
      <use xlink:href="#DejaVuSans-30"/>
      <use xlink:href="#DejaVuSans-4b" x="63.623047"/>
     </g>
    </g>
   </g>
  </g>
  <g id="axes_4">
   <g id="patch_29">
    <path d="M 422.984565 584.7 
L 714.115 584.7 
L 714.115 353.7 
L 422.984565 353.7 
z
" style="fill: #ffffff"/>
   </g>
   <g id="patch_30">
    <path d="M 335.07844 584.7 
L 335.07844 564.010192 
L 346.751735 564.010192 
L 346.751735 564.326128 
L 358.425031 564.326128 
L 358.425031 564.326128 
L 370.098326 564.326128 
L 370.098326 564.326128 
L 381.771622 564.326128 
L 381.771622 564.326128 
L 393.444918 564.326128 
L 393.444918 564.326128 
L 405.118213 564.326128 
L 405.118213 563.615273 
L 416.791509 563.615273 
L 416.791509 564.010192 
L 428.464804 564.010192 
L 428.464804 564.010192 
L 440.1381 564.010192 
L 440.1381 563.457306 
L 451.811395 563.457306 
L 451.811395 562.746452 
L 463.484691 562.746452 
L 463.484691 560.139986 
L 475.157986 560.139986 
L 475.157986 559.350148 
L 486.831282 559.350148 
L 486.831282 557.849456 
L 498.504577 557.849456 
L 498.504577 556.111812 
L 510.177873 556.111812 
L 510.177873 550.503962 
L 521.851169 550.503962 
L 521.851169 538.024521 
L 533.524464 538.024521 
L 533.524464 512.2758 
L 545.19776 512.2758 
L 545.19776 444.744647 
L 556.871055 444.744647 
L 556.871055 379.109106 
L 568.544351 379.109106 
L 568.544351 584.7 
" clip-path="url(#p8f43e38779)" style="fill: #802f95; fill-opacity: 0.5; stroke: #000000; stroke-width: 1.1; stroke-linejoin: miter"/>
   </g>
   <g id="patch_31">
    <path d="M 422.984565 584.7 
L 714.115 584.7 
L 714.115 564.326128 
L 422.984565 564.326128 
z
" clip-path="url(#p8f43e38779)" style="fill: #ffffff"/>
   </g>
   <g id="patch_32">
    <path d="M 306.593042 584.7 
L 306.593042 584.327862 
L 319.111255 584.327862 
L 319.111255 584.7 
L 331.629467 584.7 
L 331.629467 584.7 
L 344.14768 584.7 
L 344.14768 584.7 
L 356.665893 584.7 
L 356.665893 584.7 
L 369.184106 584.7 
L 369.184106 584.7 
L 381.702318 584.7 
L 381.702318 584.7 
L 394.220531 584.7 
L 394.220531 584.7 
L 406.738744 584.7 
L 406.738744 584.7 
L 419.256957 584.7 
L 419.256957 584.40229 
L 431.775169 584.40229 
L 431.775169 584.030152 
L 444.293382 584.030152 
L 444.293382 584.7 
L 456.811595 584.7 
L 456.811595 583.80687 
L 469.329808 583.80687 
L 469.329808 583.137022 
L 481.84802 583.137022 
L 481.84802 581.871755 
L 494.366233 581.871755 
L 494.366233 578.001525 
L 506.884446 578.001525 
L 506.884446 576.810685 
L 519.402659 576.810685 
L 519.402659 567.953812 
L 531.920871 567.953812 
L 531.920871 551.430907 
L 544.439084 551.430907 
L 544.439084 524.190442 
L 556.957297 524.190442 
L 556.957297 483.553027 
L 569.47551 483.553027 
L 569.47551 502.159902 
L 581.993722 502.159902 
L 581.993722 530.51678 
L 594.511935 530.51678 
L 594.511935 566.53969 
L 607.030148 566.53969 
L 607.030148 578.894655 
L 619.54836 578.894655 
L 619.54836 582.61603 
L 632.066573 582.61603 
L 632.066573 584.40229 
L 644.584786 584.40229 
L 644.584786 584.7 
L 657.102999 584.7 
L 657.102999 584.7 
L 669.621211 584.7 
L 669.621211 584.40229 
L 682.139424 584.40229 
L 682.139424 584.7 
" clip-path="url(#p8f43e38779)" style="fill: #808080; fill-opacity: 0.15; stroke: #000000; stroke-width: 1.1; stroke-linejoin: miter"/>
   </g>
   <g id="patch_33">
    <path d="M 306.593042 584.7 
L 306.593042 584.508528 
L 319.111255 584.508528 
L 319.111255 584.7 
L 331.629467 584.7 
L 331.629467 584.7 
L 344.14768 584.7 
L 344.14768 584.7 
L 356.665893 584.7 
L 356.665893 584.7 
L 369.184106 584.7 
L 369.184106 584.7 
L 381.702318 584.7 
L 381.702318 584.7 
L 394.220531 584.7 
L 394.220531 584.7 
L 406.738744 584.7 
L 406.738744 584.7 
L 419.256957 584.7 
L 419.256957 584.604264 
L 431.775169 584.604264 
L 431.775169 584.029847 
L 444.293382 584.029847 
L 444.293382 584.412791 
L 456.811595 584.412791 
L 456.811595 583.646902 
L 469.329808 583.646902 
L 469.329808 583.407562 
L 481.84802 583.407562 
L 481.84802 582.258728 
L 494.366233 582.258728 
L 494.366233 579.625983 
L 506.884446 579.625983 
L 506.884446 577.136843 
L 519.402659 577.136843 
L 519.402659 568.9514 
L 531.920871 568.9514 
L 531.920871 552.819855 
L 544.439084 552.819855 
L 544.439084 526.157332 
L 556.957297 526.157332 
L 556.957297 482.405902 
L 569.47551 482.405902 
L 569.47551 499.016127 
L 581.993722 499.016127 
L 581.993722 528.646472 
L 594.511935 528.646472 
L 594.511935 565.552766 
L 607.030148 565.552766 
L 607.030148 579.099434 
L 619.54836 579.099434 
L 619.54836 582.881013 
L 632.066573 582.881013 
L 632.066573 584.125583 
L 644.584786 584.125583 
L 644.584786 584.7 
L 657.102999 584.7 
L 657.102999 584.7 
L 669.621211 584.7 
L 669.621211 584.46066 
L 682.139424 584.46066 
L 682.139424 584.7 
" clip-path="url(#p8f43e38779)" style="fill: none; stroke: #ff4126; stroke-width: 1.1; stroke-linejoin: miter"/>
   </g>
   <g id="matplotlib.axis_7">
    <g id="xtick_10">
     <g id="line2d_48">
      <g>
       <use xlink:href="#m24f2594130" x="477.571522" y="594.7" style="stroke: #000000; stroke-width: 1.5"/>
      </g>
     </g>
     <g id="text_51">
      <!-- −5 -->
      <g transform="translate(467.25199 614.837812) scale(0.14 -0.14)">
       <use xlink:href="#DejaVuSans-2212"/>
       <use xlink:href="#DejaVuSans-35" x="83.789062"/>
      </g>
     </g>
    </g>
    <g id="xtick_11">
     <g id="line2d_49">
      <g>
       <use xlink:href="#m24f2594130" x="568.549783" y="594.7" style="stroke: #000000; stroke-width: 1.5"/>
      </g>
     </g>
     <g id="text_52">
      <!-- 0 -->
      <g transform="translate(564.096033 614.837812) scale(0.14 -0.14)">
       <use xlink:href="#DejaVuSans-30"/>
      </g>
     </g>
    </g>
    <g id="xtick_12">
     <g id="line2d_50">
      <g>
       <use xlink:href="#m24f2594130" x="659.528043" y="594.7" style="stroke: #000000; stroke-width: 1.5"/>
      </g>
     </g>
     <g id="text_53">
      <!-- 5 -->
      <g transform="translate(655.074293 614.837812) scale(0.14 -0.14)">
       <use xlink:href="#DejaVuSans-35"/>
      </g>
     </g>
    </g>
    <g id="text_54">
     <!-- Fitness effect $(\Delta)$ -->
     <g transform="translate(500.389783 633.906875) scale(0.16 -0.16)">
      <use xlink:href="#DejaVuSans-46" transform="translate(0 0.015625)"/>
      <use xlink:href="#DejaVuSans-69" transform="translate(57.519531 0.015625)"/>
      <use xlink:href="#DejaVuSans-74" transform="translate(85.302734 0.015625)"/>
      <use xlink:href="#DejaVuSans-6e" transform="translate(124.511719 0.015625)"/>
      <use xlink:href="#DejaVuSans-65" transform="translate(187.890625 0.015625)"/>
      <use xlink:href="#DejaVuSans-73" transform="translate(249.414062 0.015625)"/>
      <use xlink:href="#DejaVuSans-73" transform="translate(301.513672 0.015625)"/>
      <use xlink:href="#DejaVuSans-20" transform="translate(353.613281 0.015625)"/>
      <use xlink:href="#DejaVuSans-65" transform="translate(385.400391 0.015625)"/>
      <use xlink:href="#DejaVuSans-66" transform="translate(446.923828 0.015625)"/>
      <use xlink:href="#DejaVuSans-66" transform="translate(482.128906 0.015625)"/>
      <use xlink:href="#DejaVuSans-65" transform="translate(517.333984 0.015625)"/>
      <use xlink:href="#DejaVuSans-63" transform="translate(578.857422 0.015625)"/>
      <use xlink:href="#DejaVuSans-74" transform="translate(633.837891 0.015625)"/>
      <use xlink:href="#DejaVuSans-20" transform="translate(673.046875 0.015625)"/>
      <use xlink:href="#DejaVuSans-28" transform="translate(704.833984 0.015625)"/>
      <use xlink:href="#DejaVuSans-394" transform="translate(743.847656 0.015625)"/>
      <use xlink:href="#DejaVuSans-29" transform="translate(812.255859 0.015625)"/>
     </g>
    </g>
    <g id="text_55">
     <!-- 1e−2 -->
     <g transform="translate(675.954063 631.387187) scale(0.14 -0.14)">
      <use xlink:href="#DejaVuSans-31"/>
      <use xlink:href="#DejaVuSans-65" x="63.623047"/>
      <use xlink:href="#DejaVuSans-2212" x="125.146484"/>
      <use xlink:href="#DejaVuSans-32" x="208.935547"/>
     </g>
    </g>
   </g>
   <g id="matplotlib.axis_8">
    <g id="ytick_18">
     <g id="line2d_51">
      <g>
       <use xlink:href="#m279ebef46c" x="412.984565" y="584.7" style="stroke: #000000; stroke-width: 1.5"/>
      </g>
     </g>
     <g id="text_56">
      <!-- 0 -->
      <g transform="translate(394.577065 590.018906) scale(0.14 -0.14)">
       <use xlink:href="#DejaVuSans-30"/>
      </g>
     </g>
    </g>
    <g id="ytick_19">
     <g id="line2d_52">
      <g>
       <use xlink:href="#m279ebef46c" x="412.984565" y="530.177448" style="stroke: #000000; stroke-width: 1.5"/>
      </g>
     </g>
     <g id="text_57">
      <!-- 20 -->
      <g transform="translate(385.669565 535.496354) scale(0.14 -0.14)">
       <use xlink:href="#DejaVuSans-32"/>
       <use xlink:href="#DejaVuSans-30" x="63.623047"/>
      </g>
     </g>
    </g>
    <g id="ytick_20">
     <g id="line2d_53">
      <g>
       <use xlink:href="#m279ebef46c" x="412.984565" y="475.654896" style="stroke: #000000; stroke-width: 1.5"/>
      </g>
     </g>
     <g id="text_58">
      <!-- 40 -->
      <g transform="translate(385.669565 480.973802) scale(0.14 -0.14)">
       <use xlink:href="#DejaVuSans-34"/>
       <use xlink:href="#DejaVuSans-30" x="63.623047"/>
      </g>
     </g>
    </g>
    <g id="ytick_21">
     <g id="line2d_54">
      <g>
       <use xlink:href="#m279ebef46c" x="412.984565" y="421.132344" style="stroke: #000000; stroke-width: 1.5"/>
      </g>
     </g>
     <g id="text_59">
      <!-- 60 -->
      <g transform="translate(385.669565 426.45125) scale(0.14 -0.14)">
       <use xlink:href="#DejaVuSans-36"/>
       <use xlink:href="#DejaVuSans-30" x="63.623047"/>
      </g>
     </g>
    </g>
    <g id="ytick_22">
     <g id="line2d_55">
      <g>
       <use xlink:href="#m279ebef46c" x="412.984565" y="366.609792" style="stroke: #000000; stroke-width: 1.5"/>
      </g>
     </g>
     <g id="text_60">
      <!-- 80 -->
      <g transform="translate(385.669565 371.928698) scale(0.14 -0.14)">
       <use xlink:href="#DejaVuSans-38"/>
       <use xlink:href="#DejaVuSans-30" x="63.623047"/>
      </g>
     </g>
    </g>
   </g>
   <g id="line2d_56">
    <path d="M 437.541087 562.28874 
L 699.558478 562.28874 
" clip-path="url(#p8f43e38779)" style="fill: none; stroke-dasharray: 3.7,1.6; stroke-dashoffset: 0; stroke: #808080"/>
   </g>
   <g id="line2d_57">
    <path d="M 422.984565 586.744596 
L 437.541087 562.28874 
" clip-path="url(#p8f43e38779)" style="fill: none; stroke-dasharray: 3.7,1.6; stroke-dashoffset: 0; stroke: #808080"/>
   </g>
   <g id="line2d_58">
    <path d="M 714.115 586.744596 
L 699.558478 562.28874 
" clip-path="url(#p8f43e38779)" style="fill: none; stroke-dasharray: 3.7,1.6; stroke-dashoffset: 0; stroke: #808080"/>
   </g>
   <g id="line2d_59">
    <path d="M 495.767174 586.744596 
L 503.045435 562.28874 
" clip-path="url(#p8f43e38779)" style="fill: none; stroke-dasharray: 3.7,1.6; stroke-dashoffset: 0; stroke: #808080"/>
   </g>
   <g id="line2d_60">
    <path d="M 641.332391 586.744596 
L 634.05413 562.28874 
" clip-path="url(#p8f43e38779)" style="fill: none; stroke-dasharray: 3.7,1.6; stroke-dashoffset: 0; stroke: #808080"/>
   </g>
   <g id="line2d_61">
    <path d="M 568.549783 586.744596 
L 568.549783 562.28874 
" clip-path="url(#p8f43e38779)" style="fill: none; stroke-dasharray: 3.7,1.6; stroke-dashoffset: 0; stroke: #808080"/>
   </g>
   <g id="patch_34">
    <path d="M 412.984565 584.7 
L 412.984565 353.7 
" style="fill: none; stroke: #000000; stroke-width: 1.5; stroke-linejoin: miter; stroke-linecap: square"/>
   </g>
   <g id="patch_35">
    <path d="M 422.984565 594.7 
L 714.115 594.7 
" style="fill: none; stroke: #000000; stroke-width: 1.5; stroke-linejoin: miter; stroke-linecap: square"/>
   </g>
   <g id="text_61">
    <!-- $p_{KS} = 0.056$ -->
    <g transform="translate(437.541087 374.34375) scale(0.12 -0.12)">
     <use xlink:href="#DejaVuSans-Oblique-70" transform="translate(0 0.78125)"/>
     <use xlink:href="#DejaVuSans-Oblique-4b" transform="translate(63.476562 -15.625) scale(0.7)"/>
     <use xlink:href="#DejaVuSans-Oblique-53" transform="translate(109.379883 -15.625) scale(0.7)"/>
     <use xlink:href="#DejaVuSans-3d" transform="translate(176.030273 0.78125)"/>
     <use xlink:href="#DejaVuSans-30" transform="translate(279.301758 0.78125)"/>
     <use xlink:href="#DejaVuSans-2e" transform="translate(342.924805 0.78125)"/>
     <use xlink:href="#DejaVuSans-30" transform="translate(374.711914 0.78125)"/>
     <use xlink:href="#DejaVuSans-35" transform="translate(438.334961 0.78125)"/>
     <use xlink:href="#DejaVuSans-36" transform="translate(501.958008 0.78125)"/>
    </g>
   </g>
   <g id="text_62">
    <!-- D -->
    <g transform="translate(393.871522 344.277187) scale(0.18 -0.18)">
     <defs>
      <path id="DejaVuSans-Bold-44" d="M 1791 3756 
L 1791 909 
L 2222 909 
Q 2959 909 3348 1275 
Q 3738 1641 3738 2338 
Q 3738 3031 3350 3393 
Q 2963 3756 2222 3756 
L 1791 3756 
z
M 588 4666 
L 1856 4666 
Q 2919 4666 3439 4514 
Q 3959 4363 4331 4000 
Q 4659 3684 4818 3271 
Q 4978 2859 4978 2338 
Q 4978 1809 4818 1395 
Q 4659 981 4331 666 
Q 3956 303 3431 151 
Q 2906 0 1856 0 
L 588 0 
L 588 4666 
z
" transform="scale(0.015625)"/>
     </defs>
     <use xlink:href="#DejaVuSans-Bold-44"/>
    </g>
   </g>
   <g id="text_63">
    <!-- D -->
    <g transform="translate(393.871522 344.277187) scale(0.18 -0.18)">
     <use xlink:href="#DejaVuSans-Bold-44"/>
    </g>
   </g>
   <g id="legend_4">
    <g id="patch_36">
     <path d="M 626.6725 373.618125 
L 650.6725 373.618125 
L 650.6725 365.218125 
L 626.6725 365.218125 
z
" style="fill: #802f95; fill-opacity: 0.5; stroke: #000000; stroke-width: 1.1; stroke-linejoin: miter"/>
    </g>
    <g id="text_64">
     <!-- 15K -->
     <g transform="translate(660.2725 373.618125) scale(0.12 -0.12)">
      <use xlink:href="#DejaVuSans-31"/>
      <use xlink:href="#DejaVuSans-35" x="63.623047"/>
      <use xlink:href="#DejaVuSans-4b" x="127.246094"/>
     </g>
    </g>
    <g id="patch_37">
     <path d="M 626.6725 391.231875 
L 650.6725 391.231875 
L 650.6725 382.831875 
L 626.6725 382.831875 
z
" style="fill: #808080; fill-opacity: 0.15; stroke: #000000; stroke-width: 1.1; stroke-linejoin: miter"/>
    </g>
    <g id="text_65">
     <!-- 0K -->
     <g transform="translate(660.2725 391.231875) scale(0.12 -0.12)">
      <use xlink:href="#DejaVuSans-30"/>
      <use xlink:href="#DejaVuSans-4b" x="63.623047"/>
     </g>
    </g>
    <g id="line2d_62">
     <path d="M 626.6725 404.645625 
L 650.6725 404.645625 
" style="fill: none; stroke: #ff4126; stroke-width: 1.1; stroke-linecap: square"/>
    </g>
    <g id="text_66">
     <!-- DFE 0K -->
     <g transform="translate(660.2725 408.845625) scale(0.12 -0.12)">
      <use xlink:href="#DejaVuSans-44"/>
      <use xlink:href="#DejaVuSans-46" x="77.001953"/>
      <use xlink:href="#DejaVuSans-45" x="134.521484"/>
      <use xlink:href="#DejaVuSans-20" x="197.705078"/>
      <use xlink:href="#DejaVuSans-30" x="229.492188"/>
      <use xlink:href="#DejaVuSans-4b" x="293.115234"/>
     </g>
    </g>
   </g>
  </g>
 </g>
 <defs>
  <clipPath id="pef2ba5a095">
   <rect x="44.515" y="30.3" width="291.130435" height="231"/>
  </clipPath>
  <clipPath id="p661b39d423">
   <rect x="422.984565" y="30.3" width="291.130435" height="231"/>
  </clipPath>
  <clipPath id="pc8ba1ba396">
   <rect x="44.515" y="353.7" width="291.130435" height="231"/>
  </clipPath>
  <clipPath id="p8f43e38779">
   <rect x="422.984565" y="353.7" width="291.130435" height="231"/>
  </clipPath>
 </defs>
</svg>
