<?xml version="1.0" encoding="utf-8" standalone="no"?>
<!DOCTYPE svg PUBLIC "-//W3C//DTD SVG 1.1//EN"
  "http://www.w3.org/Graphics/SVG/1.1/DTD/svg11.dtd">
<svg xmlns:xlink="http://www.w3.org/1999/xlink" width="721.315pt" height="644.434375pt" viewBox="0 0 721.315 644.434375" xmlns="http://www.w3.org/2000/svg" version="1.1">
 <metadata>
  <rdf:RDF xmlns:dc="http://purl.org/dc/elements/1.1/" xmlns:cc="http://creativecommons.org/ns#" xmlns:rdf="http://www.w3.org/1999/02/22-rdf-syntax-ns#">
   <cc:Work>
    <dc:type rdf:resource="http://purl.org/dc/dcmitype/StillImage"/>
    <dc:date>2026-01-15T12:25:28.116055</dc:date>
    <dc:format>image/svg+xml</dc:format>
    <dc:creator>
     <cc:Agent>
      <dc:title>Matplotlib v3.9.4, https://matplotlib.org/</dc:title>
     </cc:Agent>
    </dc:creator>
   </cc:Work>
  </rdf:RDF>
 </metadata>
 <defs>
  <style type="text/css">*{stroke-linejoin: round; stroke-linecap: butt}</style>
 </defs>
 <g id="figure_1">
  <g id="patch_1">
   <path d="M 0 644.434375 
L 721.315 644.434375 
L 721.315 0 
L 0 0 
z
" style="fill: #ffffff"/>
  </g>
  <g id="axes_1">
   <g id="patch_2">
    <path d="M 44.515 261.3 
L 335.645435 261.3 
L 335.645435 30.3 
L 44.515 30.3 
z
" style="fill: #ffffff"/>
   </g>
   <g id="patch_3">
    <path d="M -47.333566 261.3 
L -47.333566 240.704957 
L -38.693151 240.704957 
L -38.693151 240.866197 
L -30.052735 240.866197 
L -30.052735 240.866197 
L -21.41232 240.866197 
L -21.41232 240.866197 
L -12.771905 240.866197 
L -12.771905 240.866197 
L -4.131489 240.866197 
L -4.131489 240.866197 
L 4.508926 240.866197 
L 4.508926 240.382476 
L 13.149342 240.382476 
L 13.149342 240.866197 
L 21.789757 240.866197 
L 21.789757 240.624336 
L 30.430172 240.624336 
L 30.430172 240.543716 
L 39.070588 240.543716 
L 39.070588 240.382476 
L 47.711003 240.382476 
L 47.711003 240.704957 
L 56.351419 240.704957 
L 56.351419 240.704957 
L 64.991834 240.704957 
L 64.991834 240.221236 
L 73.63225 240.221236 
L 73.63225 240.301856 
L 82.272665 240.301856 
L 82.272665 240.382476 
L 90.91308 240.382476 
L 90.91308 239.253796 
L 99.553496 239.253796 
L 99.553496 239.334416 
L 108.193911 239.334416 
L 108.193911 237.883255 
L 116.834327 237.883255 
L 116.834327 237.157675 
L 125.474742 237.157675 
L 125.474742 236.270854 
L 134.115157 236.270854 
L 134.115157 236.270854 
L 142.755573 236.270854 
L 142.755573 231.353032 
L 151.395988 231.353032 
L 151.395988 227.080169 
L 160.036404 227.080169 
L 160.036404 216.518944 
L 168.676819 216.518944 
L 168.676819 200.959275 
L 177.317235 200.959275 
L 177.317235 167.260098 
L 185.95765 167.260098 
L 185.95765 139.204323 
L 194.598065 139.204323 
L 194.598065 172.5004 
L 203.238481 172.5004 
L 203.238481 206.763919 
L 211.878896 206.763919 
L 211.878896 227.322029 
L 220.519312 227.322029 
L 220.519312 236.351474 
L 229.159727 236.351474 
L 229.159727 239.011936 
L 237.800142 239.011936 
L 237.800142 240.543716 
L 246.440558 240.543716 
L 246.440558 240.785577 
L 255.080973 240.785577 
L 255.080973 261.3 
" clip-path="url(#p32cc6deb64)" style="fill: #802f95; fill-opacity: 0.5; stroke: #000000; stroke-width: 1.1; stroke-linejoin: miter"/>
   </g>
   <g id="patch_4">
    <path d="M -1 240.866197 
L 2.168638 240.866197 
L 2.168638 240.580687 
L 10.419005 240.580687 
L 10.419005 240.866197 
L 18.669372 240.866197 
L 18.669372 240.628272 
L 26.919739 240.628272 
L 26.919739 240.866197 
L 35.170107 240.866197 
L 35.170107 240.580687 
L 43.420474 240.580687 
L 43.420474 240.675857 
L 51.670841 240.675857 
L 51.670841 240.675857 
L 59.921209 240.675857 
L 59.921209 240.485517 
L 68.171576 240.485517 
L 68.171576 240.628272 
L 76.421943 240.628272 
L 76.421943 240.485517 
L 84.67231 240.485517 
L 84.67231 240.390348 
L 92.922678 240.390348 
L 92.922678 239.771744 
L 101.173045 239.771744 
L 101.173045 239.771744 
L 109.423412 239.771744 
L 109.423412 239.010386 
L 117.67378 239.010386 
L 117.67378 238.534537 
L 125.924147 238.534537 
L 125.924147 237.725594 
L 134.174514 237.725594 
L 134.174514 237.630424 
L 142.424881 237.630424 
L 142.424881 234.109142 
L 150.675249 234.109142 
L 150.675249 231.729898 
L 158.925616 231.729898 
L 158.925616 224.1639 
L 167.175983 224.1639 
L 167.175983 208.746396 
L 175.426351 208.746396 
L 175.426351 179.386518 
L 183.676718 179.386518 
L 183.676718 135.037401 
L 191.927085 135.037401 
L 191.927085 147.219133 
L 200.177452 147.219133 
L 200.177452 185.762894 
L 208.42782 185.762894 
L 208.42782 219.405411 
L 216.678187 219.405411 
L 216.678187 234.204312 
L 224.928554 234.204312 
L 224.928554 238.439367 
L 233.178922 238.439367 
L 233.178922 240.104838 
L 241.429289 240.104838 
L 241.429289 261.3 
" clip-path="url(#p32cc6deb64)" style="fill: none; stroke: #ff4126; stroke-width: 1.1; stroke-linejoin: miter"/>
   </g>
   <g id="patch_5">
    <path d="M 44.515 261.3 
L 335.645435 261.3 
L 335.645435 240.866197 
L 44.515 240.866197 
z
" clip-path="url(#p32cc6deb64)" style="fill: #ffffff"/>
   </g>
   <g id="patch_6">
    <path d="M -29.776945 261.3 
L -29.776945 261.074834 
L -23.578576 261.074834 
L -23.578576 261.074834 
L -17.380207 261.074834 
L -17.380207 261.3 
L -11.181837 261.3 
L -11.181837 261.3 
L -4.983468 261.3 
L -4.983468 260.849668 
L 1.214901 260.849668 
L 1.214901 261.074834 
L 7.413271 261.074834 
L 7.413271 261.3 
L 13.61164 261.3 
L 13.61164 260.737085 
L 19.810009 260.737085 
L 19.810009 261.3 
L 26.008379 261.3 
L 26.008379 261.3 
L 32.206748 261.3 
L 32.206748 261.074834 
L 38.405117 261.074834 
L 38.405117 260.849668 
L 44.603487 260.849668 
L 44.603487 261.074834 
L 50.801856 261.074834 
L 50.801856 260.849668 
L 57.000225 260.849668 
L 57.000225 261.187417 
L 63.198595 261.187417 
L 63.198595 261.074834 
L 69.396964 261.074834 
L 69.396964 260.737085 
L 75.595333 260.737085 
L 75.595333 260.624502 
L 81.793703 260.624502 
L 81.793703 259.949005 
L 87.992072 259.949005 
L 87.992072 259.723839 
L 94.190441 259.723839 
L 94.190441 260.511919 
L 100.388811 260.511919 
L 100.388811 259.836422 
L 106.58718 259.836422 
L 106.58718 259.949005 
L 112.785549 259.949005 
L 112.785549 257.134431 
L 118.983918 257.134431 
L 118.983918 258.485427 
L 125.182288 258.485427 
L 125.182288 257.247014 
L 131.380657 257.247014 
L 131.380657 252.068199 
L 137.579026 252.068199 
L 137.579026 252.293365 
L 143.777396 252.293365 
L 143.777396 245.538389 
L 149.975765 245.538389 
L 149.975765 237.770166 
L 156.174134 237.770166 
L 156.174134 226.962204 
L 162.372504 226.962204 
L 162.372504 203.207204 
L 168.570873 203.207204 
L 168.570873 176.750213 
L 174.769242 176.750213 
L 174.769242 134.531611 
L 180.967612 134.531611 
L 180.967612 75.538151 
L 187.165981 75.538151 
L 187.165981 261.3 
" clip-path="url(#p32cc6deb64)" style="fill: #808080; fill-opacity: 0.15; stroke: #000000; stroke-width: 1.1; stroke-linejoin: miter"/>
   </g>
   <g id="matplotlib.axis_1">
    <g id="xtick_1">
     <g id="line2d_1">
      <defs>
       <path id="m039e71d4a9" d="M 0 0 
L 0 6 
" style="stroke: #000000; stroke-width: 1.5"/>
      </defs>
      <g>
       <use xlink:href="#m039e71d4a9" x="57.748202" y="271.3" style="stroke: #000000; stroke-width: 1.5"/>
      </g>
     </g>
     <g id="text_1">
      <!-- −1.0 -->
      <g transform="translate(40.750233 291.437812) scale(0.14 -0.14)">
       <defs>
        <path id="DejaVuSans-2212" d="M 678 2272 
L 4684 2272 
L 4684 1741 
L 678 1741 
L 678 2272 
z
" transform="scale(0.015625)"/>
        <path id="DejaVuSans-31" d="M 794 531 
L 1825 531 
L 1825 4091 
L 703 3866 
L 703 4441 
L 1819 4666 
L 2450 4666 
L 2450 531 
L 3481 531 
L 3481 0 
L 794 0 
L 794 531 
z
" transform="scale(0.015625)"/>
        <path id="DejaVuSans-2e" d="M 684 794 
L 1344 794 
L 1344 0 
L 684 0 
L 684 794 
z
" transform="scale(0.015625)"/>
        <path id="DejaVuSans-30" d="M 2034 4250 
Q 1547 4250 1301 3770 
Q 1056 3291 1056 2328 
Q 1056 1369 1301 889 
Q 1547 409 2034 409 
Q 2525 409 2770 889 
Q 3016 1369 3016 2328 
Q 3016 3291 2770 3770 
Q 2525 4250 2034 4250 
z
M 2034 4750 
Q 2819 4750 3233 4129 
Q 3647 3509 3647 2328 
Q 3647 1150 3233 529 
Q 2819 -91 2034 -91 
Q 1250 -91 836 529 
Q 422 1150 422 2328 
Q 422 3509 836 4129 
Q 1250 4750 2034 4750 
z
" transform="scale(0.015625)"/>
       </defs>
       <use xlink:href="#DejaVuSans-2212"/>
       <use xlink:href="#DejaVuSans-31" x="83.789062"/>
       <use xlink:href="#DejaVuSans-2e" x="147.412109"/>
       <use xlink:href="#DejaVuSans-30" x="179.199219"/>
      </g>
     </g>
    </g>
    <g id="xtick_2">
     <g id="line2d_2">
      <g>
       <use xlink:href="#m039e71d4a9" x="123.914209" y="271.3" style="stroke: #000000; stroke-width: 1.5"/>
      </g>
     </g>
     <g id="text_2">
      <!-- −0.5 -->
      <g transform="translate(106.916241 291.437812) scale(0.14 -0.14)">
       <defs>
        <path id="DejaVuSans-35" d="M 691 4666 
L 3169 4666 
L 3169 4134 
L 1269 4134 
L 1269 2991 
Q 1406 3038 1543 3061 
Q 1681 3084 1819 3084 
Q 2600 3084 3056 2656 
Q 3513 2228 3513 1497 
Q 3513 744 3044 326 
Q 2575 -91 1722 -91 
Q 1428 -91 1123 -41 
Q 819 9 494 109 
L 494 744 
Q 775 591 1075 516 
Q 1375 441 1709 441 
Q 2250 441 2565 725 
Q 2881 1009 2881 1497 
Q 2881 1984 2565 2268 
Q 2250 2553 1709 2553 
Q 1456 2553 1204 2497 
Q 953 2441 691 2322 
L 691 4666 
z
" transform="scale(0.015625)"/>
       </defs>
       <use xlink:href="#DejaVuSans-2212"/>
       <use xlink:href="#DejaVuSans-30" x="83.789062"/>
       <use xlink:href="#DejaVuSans-2e" x="147.412109"/>
       <use xlink:href="#DejaVuSans-35" x="179.199219"/>
      </g>
     </g>
    </g>
    <g id="xtick_3">
     <g id="line2d_3">
      <g>
       <use xlink:href="#m039e71d4a9" x="190.080217" y="271.3" style="stroke: #000000; stroke-width: 1.5"/>
      </g>
     </g>
     <g id="text_3">
      <!-- 0.0 -->
      <g transform="translate(178.94803 291.437812) scale(0.14 -0.14)">
       <use xlink:href="#DejaVuSans-30"/>
       <use xlink:href="#DejaVuSans-2e" x="63.623047"/>
       <use xlink:href="#DejaVuSans-30" x="95.410156"/>
      </g>
     </g>
    </g>
    <g id="xtick_4">
     <g id="line2d_4">
      <g>
       <use xlink:href="#m039e71d4a9" x="256.246225" y="271.3" style="stroke: #000000; stroke-width: 1.5"/>
      </g>
     </g>
     <g id="text_4">
      <!-- 0.5 -->
      <g transform="translate(245.114038 291.437812) scale(0.14 -0.14)">
       <use xlink:href="#DejaVuSans-30"/>
       <use xlink:href="#DejaVuSans-2e" x="63.623047"/>
       <use xlink:href="#DejaVuSans-35" x="95.410156"/>
      </g>
     </g>
    </g>
    <g id="xtick_5">
     <g id="line2d_5">
      <g>
       <use xlink:href="#m039e71d4a9" x="322.412233" y="271.3" style="stroke: #000000; stroke-width: 1.5"/>
      </g>
     </g>
     <g id="text_5">
      <!-- 1.0 -->
      <g transform="translate(311.280046 291.437812) scale(0.14 -0.14)">
       <use xlink:href="#DejaVuSans-31"/>
       <use xlink:href="#DejaVuSans-2e" x="63.623047"/>
       <use xlink:href="#DejaVuSans-30" x="95.410156"/>
      </g>
     </g>
    </g>
    <g id="text_6">
     <!-- Fitness effect $(\Delta)$ -->
     <g transform="translate(121.920217 310.506875) scale(0.16 -0.16)">
      <defs>
       <path id="DejaVuSans-46" d="M 628 4666 
L 3309 4666 
L 3309 4134 
L 1259 4134 
L 1259 2759 
L 3109 2759 
L 3109 2228 
L 1259 2228 
L 1259 0 
L 628 0 
L 628 4666 
z
" transform="scale(0.015625)"/>
       <path id="DejaVuSans-69" d="M 603 3500 
L 1178 3500 
L 1178 0 
L 603 0 
L 603 3500 
z
M 603 4863 
L 1178 4863 
L 1178 4134 
L 603 4134 
L 603 4863 
z
" transform="scale(0.015625)"/>
       <path id="DejaVuSans-74" d="M 1172 4494 
L 1172 3500 
L 2356 3500 
L 2356 3053 
L 1172 3053 
L 1172 1153 
Q 1172 725 1289 603 
Q 1406 481 1766 481 
L 2356 481 
L 2356 0 
L 1766 0 
Q 1100 0 847 248 
Q 594 497 594 1153 
L 594 3053 
L 172 3053 
L 172 3500 
L 594 3500 
L 594 4494 
L 1172 4494 
z
" transform="scale(0.015625)"/>
       <path id="DejaVuSans-6e" d="M 3513 2113 
L 3513 0 
L 2938 0 
L 2938 2094 
Q 2938 2591 2744 2837 
Q 2550 3084 2163 3084 
Q 1697 3084 1428 2787 
Q 1159 2491 1159 1978 
L 1159 0 
L 581 0 
L 581 3500 
L 1159 3500 
L 1159 2956 
Q 1366 3272 1645 3428 
Q 1925 3584 2291 3584 
Q 2894 3584 3203 3211 
Q 3513 2838 3513 2113 
z
" transform="scale(0.015625)"/>
       <path id="DejaVuSans-65" d="M 3597 1894 
L 3597 1613 
L 953 1613 
Q 991 1019 1311 708 
Q 1631 397 2203 397 
Q 2534 397 2845 478 
Q 3156 559 3463 722 
L 3463 178 
Q 3153 47 2828 -22 
Q 2503 -91 2169 -91 
Q 1331 -91 842 396 
Q 353 884 353 1716 
Q 353 2575 817 3079 
Q 1281 3584 2069 3584 
Q 2775 3584 3186 3129 
Q 3597 2675 3597 1894 
z
M 3022 2063 
Q 3016 2534 2758 2815 
Q 2500 3097 2075 3097 
Q 1594 3097 1305 2825 
Q 1016 2553 972 2059 
L 3022 2063 
z
" transform="scale(0.015625)"/>
       <path id="DejaVuSans-73" d="M 2834 3397 
L 2834 2853 
Q 2591 2978 2328 3040 
Q 2066 3103 1784 3103 
Q 1356 3103 1142 2972 
Q 928 2841 928 2578 
Q 928 2378 1081 2264 
Q 1234 2150 1697 2047 
L 1894 2003 
Q 2506 1872 2764 1633 
Q 3022 1394 3022 966 
Q 3022 478 2636 193 
Q 2250 -91 1575 -91 
Q 1294 -91 989 -36 
Q 684 19 347 128 
L 347 722 
Q 666 556 975 473 
Q 1284 391 1588 391 
Q 1994 391 2212 530 
Q 2431 669 2431 922 
Q 2431 1156 2273 1281 
Q 2116 1406 1581 1522 
L 1381 1569 
Q 847 1681 609 1914 
Q 372 2147 372 2553 
Q 372 3047 722 3315 
Q 1072 3584 1716 3584 
Q 2034 3584 2315 3537 
Q 2597 3491 2834 3397 
z
" transform="scale(0.015625)"/>
       <path id="DejaVuSans-20" transform="scale(0.015625)"/>
       <path id="DejaVuSans-66" d="M 2375 4863 
L 2375 4384 
L 1825 4384 
Q 1516 4384 1395 4259 
Q 1275 4134 1275 3809 
L 1275 3500 
L 2222 3500 
L 2222 3053 
L 1275 3053 
L 1275 0 
L 697 0 
L 697 3053 
L 147 3053 
L 147 3500 
L 697 3500 
L 697 3744 
Q 697 4328 969 4595 
Q 1241 4863 1831 4863 
L 2375 4863 
z
" transform="scale(0.015625)"/>
       <path id="DejaVuSans-63" d="M 3122 3366 
L 3122 2828 
Q 2878 2963 2633 3030 
Q 2388 3097 2138 3097 
Q 1578 3097 1268 2742 
Q 959 2388 959 1747 
Q 959 1106 1268 751 
Q 1578 397 2138 397 
Q 2388 397 2633 464 
Q 2878 531 3122 666 
L 3122 134 
Q 2881 22 2623 -34 
Q 2366 -91 2075 -91 
Q 1284 -91 818 406 
Q 353 903 353 1747 
Q 353 2603 823 3093 
Q 1294 3584 2113 3584 
Q 2378 3584 2631 3529 
Q 2884 3475 3122 3366 
z
" transform="scale(0.015625)"/>
       <path id="DejaVuSans-28" d="M 1984 4856 
Q 1566 4138 1362 3434 
Q 1159 2731 1159 2009 
Q 1159 1288 1364 580 
Q 1569 -128 1984 -844 
L 1484 -844 
Q 1016 -109 783 600 
Q 550 1309 550 2009 
Q 550 2706 781 3412 
Q 1013 4119 1484 4856 
L 1984 4856 
z
" transform="scale(0.015625)"/>
       <path id="DejaVuSans-394" d="M 2188 4044 
L 906 525 
L 3472 525 
L 2188 4044 
z
M 50 0 
L 1831 4666 
L 2547 4666 
L 4325 0 
L 50 0 
z
" transform="scale(0.015625)"/>
       <path id="DejaVuSans-29" d="M 513 4856 
L 1013 4856 
Q 1481 4119 1714 3412 
Q 1947 2706 1947 2009 
Q 1947 1309 1714 600 
Q 1481 -109 1013 -844 
L 513 -844 
Q 928 -128 1133 580 
Q 1338 1288 1338 2009 
Q 1338 2731 1133 3434 
Q 928 4138 513 4856 
z
" transform="scale(0.015625)"/>
      </defs>
      <use xlink:href="#DejaVuSans-46" transform="translate(0 0.015625)"/>
      <use xlink:href="#DejaVuSans-69" transform="translate(57.519531 0.015625)"/>
      <use xlink:href="#DejaVuSans-74" transform="translate(85.302734 0.015625)"/>
      <use xlink:href="#DejaVuSans-6e" transform="translate(124.511719 0.015625)"/>
      <use xlink:href="#DejaVuSans-65" transform="translate(187.890625 0.015625)"/>
      <use xlink:href="#DejaVuSans-73" transform="translate(249.414062 0.015625)"/>
      <use xlink:href="#DejaVuSans-73" transform="translate(301.513672 0.015625)"/>
      <use xlink:href="#DejaVuSans-20" transform="translate(353.613281 0.015625)"/>
      <use xlink:href="#DejaVuSans-65" transform="translate(385.400391 0.015625)"/>
      <use xlink:href="#DejaVuSans-66" transform="translate(446.923828 0.015625)"/>
      <use xlink:href="#DejaVuSans-66" transform="translate(482.128906 0.015625)"/>
      <use xlink:href="#DejaVuSans-65" transform="translate(517.333984 0.015625)"/>
      <use xlink:href="#DejaVuSans-63" transform="translate(578.857422 0.015625)"/>
      <use xlink:href="#DejaVuSans-74" transform="translate(633.837891 0.015625)"/>
      <use xlink:href="#DejaVuSans-20" transform="translate(673.046875 0.015625)"/>
      <use xlink:href="#DejaVuSans-28" transform="translate(704.833984 0.015625)"/>
      <use xlink:href="#DejaVuSans-394" transform="translate(743.847656 0.015625)"/>
      <use xlink:href="#DejaVuSans-29" transform="translate(812.255859 0.015625)"/>
     </g>
    </g>
    <g id="text_7">
     <!-- 1e−1 -->
     <g transform="translate(297.484497 307.987187) scale(0.14 -0.14)">
      <use xlink:href="#DejaVuSans-31"/>
      <use xlink:href="#DejaVuSans-65" x="63.623047"/>
      <use xlink:href="#DejaVuSans-2212" x="125.146484"/>
      <use xlink:href="#DejaVuSans-31" x="208.935547"/>
     </g>
    </g>
   </g>
   <g id="matplotlib.axis_2">
    <g id="ytick_1">
     <g id="line2d_6">
      <defs>
       <path id="m02d74d3af2" d="M 0 0 
L -6 0 
" style="stroke: #000000; stroke-width: 1.5"/>
      </defs>
      <g>
       <use xlink:href="#m02d74d3af2" x="34.515" y="261.3" style="stroke: #000000; stroke-width: 1.5"/>
      </g>
     </g>
     <g id="text_8">
      <!-- 0 -->
      <g transform="translate(16.1075 266.618906) scale(0.14 -0.14)">
       <use xlink:href="#DejaVuSans-30"/>
      </g>
     </g>
    </g>
    <g id="ytick_2">
     <g id="line2d_7">
      <g>
       <use xlink:href="#m02d74d3af2" x="34.515" y="207.976068" style="stroke: #000000; stroke-width: 1.5"/>
      </g>
     </g>
     <g id="text_9">
      <!-- 20 -->
      <g transform="translate(7.2 213.294974) scale(0.14 -0.14)">
       <defs>
        <path id="DejaVuSans-32" d="M 1228 531 
L 3431 531 
L 3431 0 
L 469 0 
L 469 531 
Q 828 903 1448 1529 
Q 2069 2156 2228 2338 
Q 2531 2678 2651 2914 
Q 2772 3150 2772 3378 
Q 2772 3750 2511 3984 
Q 2250 4219 1831 4219 
Q 1534 4219 1204 4116 
Q 875 4013 500 3803 
L 500 4441 
Q 881 4594 1212 4672 
Q 1544 4750 1819 4750 
Q 2544 4750 2975 4387 
Q 3406 4025 3406 3419 
Q 3406 3131 3298 2873 
Q 3191 2616 2906 2266 
Q 2828 2175 2409 1742 
Q 1991 1309 1228 531 
z
" transform="scale(0.015625)"/>
       </defs>
       <use xlink:href="#DejaVuSans-32"/>
       <use xlink:href="#DejaVuSans-30" x="63.623047"/>
      </g>
     </g>
    </g>
    <g id="ytick_3">
     <g id="line2d_8">
      <g>
       <use xlink:href="#m02d74d3af2" x="34.515" y="154.652136" style="stroke: #000000; stroke-width: 1.5"/>
      </g>
     </g>
     <g id="text_10">
      <!-- 40 -->
      <g transform="translate(7.2 159.971043) scale(0.14 -0.14)">
       <defs>
        <path id="DejaVuSans-34" d="M 2419 4116 
L 825 1625 
L 2419 1625 
L 2419 4116 
z
M 2253 4666 
L 3047 4666 
L 3047 1625 
L 3713 1625 
L 3713 1100 
L 3047 1100 
L 3047 0 
L 2419 0 
L 2419 1100 
L 313 1100 
L 313 1709 
L 2253 4666 
z
" transform="scale(0.015625)"/>
       </defs>
       <use xlink:href="#DejaVuSans-34"/>
       <use xlink:href="#DejaVuSans-30" x="63.623047"/>
      </g>
     </g>
    </g>
    <g id="ytick_4">
     <g id="line2d_9">
      <g>
       <use xlink:href="#m02d74d3af2" x="34.515" y="101.328205" style="stroke: #000000; stroke-width: 1.5"/>
      </g>
     </g>
     <g id="text_11">
      <!-- 60 -->
      <g transform="translate(7.2 106.647111) scale(0.14 -0.14)">
       <defs>
        <path id="DejaVuSans-36" d="M 2113 2584 
Q 1688 2584 1439 2293 
Q 1191 2003 1191 1497 
Q 1191 994 1439 701 
Q 1688 409 2113 409 
Q 2538 409 2786 701 
Q 3034 994 3034 1497 
Q 3034 2003 2786 2293 
Q 2538 2584 2113 2584 
z
M 3366 4563 
L 3366 3988 
Q 3128 4100 2886 4159 
Q 2644 4219 2406 4219 
Q 1781 4219 1451 3797 
Q 1122 3375 1075 2522 
Q 1259 2794 1537 2939 
Q 1816 3084 2150 3084 
Q 2853 3084 3261 2657 
Q 3669 2231 3669 1497 
Q 3669 778 3244 343 
Q 2819 -91 2113 -91 
Q 1303 -91 875 529 
Q 447 1150 447 2328 
Q 447 3434 972 4092 
Q 1497 4750 2381 4750 
Q 2619 4750 2861 4703 
Q 3103 4656 3366 4563 
z
" transform="scale(0.015625)"/>
       </defs>
       <use xlink:href="#DejaVuSans-36"/>
       <use xlink:href="#DejaVuSans-30" x="63.623047"/>
      </g>
     </g>
    </g>
    <g id="ytick_5">
     <g id="line2d_10">
      <g>
       <use xlink:href="#m02d74d3af2" x="34.515" y="48.004273" style="stroke: #000000; stroke-width: 1.5"/>
      </g>
     </g>
     <g id="text_12">
      <!-- 80 -->
      <g transform="translate(7.2 53.323179) scale(0.14 -0.14)">
       <defs>
        <path id="DejaVuSans-38" d="M 2034 2216 
Q 1584 2216 1326 1975 
Q 1069 1734 1069 1313 
Q 1069 891 1326 650 
Q 1584 409 2034 409 
Q 2484 409 2743 651 
Q 3003 894 3003 1313 
Q 3003 1734 2745 1975 
Q 2488 2216 2034 2216 
z
M 1403 2484 
Q 997 2584 770 2862 
Q 544 3141 544 3541 
Q 544 4100 942 4425 
Q 1341 4750 2034 4750 
Q 2731 4750 3128 4425 
Q 3525 4100 3525 3541 
Q 3525 3141 3298 2862 
Q 3072 2584 2669 2484 
Q 3125 2378 3379 2068 
Q 3634 1759 3634 1313 
Q 3634 634 3220 271 
Q 2806 -91 2034 -91 
Q 1263 -91 848 271 
Q 434 634 434 1313 
Q 434 1759 690 2068 
Q 947 2378 1403 2484 
z
M 1172 3481 
Q 1172 3119 1398 2916 
Q 1625 2713 2034 2713 
Q 2441 2713 2670 2916 
Q 2900 3119 2900 3481 
Q 2900 3844 2670 4047 
Q 2441 4250 2034 4250 
Q 1625 4250 1398 4047 
Q 1172 3844 1172 3481 
z
" transform="scale(0.015625)"/>
       </defs>
       <use xlink:href="#DejaVuSans-38"/>
       <use xlink:href="#DejaVuSans-30" x="63.623047"/>
      </g>
     </g>
    </g>
   </g>
   <g id="line2d_11">
    <path d="M 59.071522 238.822816 
L 321.088913 238.822816 
" clip-path="url(#p32cc6deb64)" style="fill: none; stroke-dasharray: 3.7,1.6; stroke-dashoffset: 0; stroke: #808080"/>
   </g>
   <g id="line2d_12">
    <path d="M 44.515 263.299647 
L 59.071522 238.822816 
" clip-path="url(#p32cc6deb64)" style="fill: none; stroke-dasharray: 3.7,1.6; stroke-dashoffset: 0; stroke: #808080"/>
   </g>
   <g id="line2d_13">
    <path d="M 335.645435 263.299647 
L 321.088913 238.822816 
" clip-path="url(#p32cc6deb64)" style="fill: none; stroke-dasharray: 3.7,1.6; stroke-dashoffset: 0; stroke: #808080"/>
   </g>
   <g id="line2d_14">
    <path d="M 117.297609 263.299647 
L 124.57587 238.822816 
" clip-path="url(#p32cc6deb64)" style="fill: none; stroke-dasharray: 3.7,1.6; stroke-dashoffset: 0; stroke: #808080"/>
   </g>
   <g id="line2d_15">
    <path d="M 262.862826 263.299647 
L 255.584565 238.822816 
" clip-path="url(#p32cc6deb64)" style="fill: none; stroke-dasharray: 3.7,1.6; stroke-dashoffset: 0; stroke: #808080"/>
   </g>
   <g id="line2d_16">
    <path d="M 190.080217 263.299647 
L 190.080217 238.822816 
" clip-path="url(#p32cc6deb64)" style="fill: none; stroke-dasharray: 3.7,1.6; stroke-dashoffset: 0; stroke: #808080"/>
   </g>
   <g id="patch_7">
    <path d="M 34.515 261.3 
L 34.515 30.3 
" style="fill: none; stroke: #000000; stroke-width: 1.5; stroke-linejoin: miter; stroke-linecap: square"/>
   </g>
   <g id="patch_8">
    <path d="M 44.515 271.3 
L 335.645435 271.3 
" style="fill: none; stroke: #000000; stroke-width: 1.5; stroke-linejoin: miter; stroke-linecap: square"/>
   </g>
   <g id="text_13">
    <!-- $p_{KS} = 3e-14$ -->
    <g transform="translate(59.071522 50.94375) scale(0.12 -0.12)">
     <defs>
      <path id="DejaVuSans-Oblique-70" d="M 3175 2156 
Q 3175 2616 2975 2859 
Q 2775 3103 2400 3103 
Q 2144 3103 1911 2972 
Q 1678 2841 1497 2591 
Q 1319 2344 1212 1994 
Q 1106 1644 1106 1300 
Q 1106 863 1306 627 
Q 1506 391 1875 391 
Q 2147 391 2380 519 
Q 2613 647 2778 891 
Q 2956 1147 3065 1494 
Q 3175 1841 3175 2156 
z
M 1394 2969 
Q 1625 3272 1939 3428 
Q 2253 3584 2638 3584 
Q 3175 3584 3472 3232 
Q 3769 2881 3769 2247 
Q 3769 1728 3584 1258 
Q 3400 788 3053 416 
Q 2822 169 2531 39 
Q 2241 -91 1919 -91 
Q 1547 -91 1294 64 
Q 1041 219 916 525 
L 556 -1331 
L -19 -1331 
L 922 3500 
L 1497 3500 
L 1394 2969 
z
" transform="scale(0.015625)"/>
      <path id="DejaVuSans-Oblique-4b" d="M 1081 4666 
L 1716 4666 
L 1331 2700 
L 3781 4666 
L 4622 4666 
L 1850 2438 
L 3878 0 
L 3109 0 
L 1247 2272 
L 806 0 
L 172 0 
L 1081 4666 
z
" transform="scale(0.015625)"/>
      <path id="DejaVuSans-Oblique-53" d="M 3859 4513 
L 3738 3897 
Q 3422 4066 3111 4152 
Q 2800 4238 2509 4238 
Q 1944 4238 1609 3991 
Q 1275 3744 1275 3334 
Q 1275 3109 1398 2989 
Q 1522 2869 2034 2731 
L 2413 2638 
Q 3053 2472 3303 2217 
Q 3553 1963 3553 1503 
Q 3553 797 2998 353 
Q 2444 -91 1538 -91 
Q 1166 -91 791 -17 
Q 416 56 38 206 
L 166 856 
Q 513 641 861 531 
Q 1209 422 1556 422 
Q 2147 422 2503 684 
Q 2859 947 2859 1369 
Q 2859 1650 2717 1795 
Q 2575 1941 2106 2059 
L 1728 2156 
Q 1081 2325 845 2545 
Q 609 2766 609 3163 
Q 609 3859 1145 4304 
Q 1681 4750 2541 4750 
Q 2875 4750 3203 4690 
Q 3531 4631 3859 4513 
z
" transform="scale(0.015625)"/>
      <path id="DejaVuSans-3d" d="M 678 2906 
L 4684 2906 
L 4684 2381 
L 678 2381 
L 678 2906 
z
M 678 1631 
L 4684 1631 
L 4684 1100 
L 678 1100 
L 678 1631 
z
" transform="scale(0.015625)"/>
      <path id="DejaVuSans-33" d="M 2597 2516 
Q 3050 2419 3304 2112 
Q 3559 1806 3559 1356 
Q 3559 666 3084 287 
Q 2609 -91 1734 -91 
Q 1441 -91 1130 -33 
Q 819 25 488 141 
L 488 750 
Q 750 597 1062 519 
Q 1375 441 1716 441 
Q 2309 441 2620 675 
Q 2931 909 2931 1356 
Q 2931 1769 2642 2001 
Q 2353 2234 1838 2234 
L 1294 2234 
L 1294 2753 
L 1863 2753 
Q 2328 2753 2575 2939 
Q 2822 3125 2822 3475 
Q 2822 3834 2567 4026 
Q 2313 4219 1838 4219 
Q 1578 4219 1281 4162 
Q 984 4106 628 3988 
L 628 4550 
Q 988 4650 1302 4700 
Q 1616 4750 1894 4750 
Q 2613 4750 3031 4423 
Q 3450 4097 3450 3541 
Q 3450 3153 3228 2886 
Q 3006 2619 2597 2516 
z
" transform="scale(0.015625)"/>
      <path id="DejaVuSans-Oblique-65" d="M 3078 2063 
Q 3088 2113 3092 2166 
Q 3097 2219 3097 2272 
Q 3097 2653 2873 2875 
Q 2650 3097 2266 3097 
Q 1838 3097 1509 2826 
Q 1181 2556 1013 2059 
L 3078 2063 
z
M 3578 1613 
L 903 1613 
Q 884 1494 878 1425 
Q 872 1356 872 1306 
Q 872 872 1139 634 
Q 1406 397 1894 397 
Q 2269 397 2603 481 
Q 2938 566 3225 728 
L 3116 159 
Q 2806 34 2476 -28 
Q 2147 -91 1806 -91 
Q 1078 -91 686 257 
Q 294 606 294 1247 
Q 294 1794 489 2264 
Q 684 2734 1063 3103 
Q 1306 3334 1642 3459 
Q 1978 3584 2356 3584 
Q 2950 3584 3301 3228 
Q 3653 2872 3653 2272 
Q 3653 2128 3634 1964 
Q 3616 1800 3578 1613 
z
" transform="scale(0.015625)"/>
     </defs>
     <use xlink:href="#DejaVuSans-Oblique-70" transform="translate(0 0.78125)"/>
     <use xlink:href="#DejaVuSans-Oblique-4b" transform="translate(63.476562 -15.625) scale(0.7)"/>
     <use xlink:href="#DejaVuSans-Oblique-53" transform="translate(109.379883 -15.625) scale(0.7)"/>
     <use xlink:href="#DejaVuSans-3d" transform="translate(176.030273 0.78125)"/>
     <use xlink:href="#DejaVuSans-33" transform="translate(279.301758 0.78125)"/>
     <use xlink:href="#DejaVuSans-Oblique-65" transform="translate(342.924805 0.78125)"/>
     <use xlink:href="#DejaVuSans-2212" transform="translate(423.930664 0.78125)"/>
     <use xlink:href="#DejaVuSans-31" transform="translate(527.202148 0.78125)"/>
     <use xlink:href="#DejaVuSans-34" transform="translate(590.825195 0.78125)"/>
    </g>
   </g>
   <g id="text_14">
    <!-- A -->
    <g transform="translate(15.401957 20.877187) scale(0.18 -0.18)">
     <defs>
      <path id="DejaVuSans-Bold-41" d="M 3419 850 
L 1538 850 
L 1241 0 
L 31 0 
L 1759 4666 
L 3194 4666 
L 4922 0 
L 3713 0 
L 3419 850 
z
M 1838 1716 
L 3116 1716 
L 2478 3572 
L 1838 1716 
z
" transform="scale(0.015625)"/>
     </defs>
     <use xlink:href="#DejaVuSans-Bold-41"/>
    </g>
   </g>
   <g id="legend_1">
    <g id="patch_9">
     <path d="M 248.202935 50.218125 
L 272.202935 50.218125 
L 272.202935 41.818125 
L 248.202935 41.818125 
z
" style="fill: #802f95; fill-opacity: 0.5; stroke: #000000; stroke-width: 1.1; stroke-linejoin: miter"/>
    </g>
    <g id="text_15">
     <!-- 2K -->
     <g transform="translate(281.802935 50.218125) scale(0.12 -0.12)">
      <defs>
       <path id="DejaVuSans-4b" d="M 628 4666 
L 1259 4666 
L 1259 2694 
L 3353 4666 
L 4166 4666 
L 1850 2491 
L 4331 0 
L 3500 0 
L 1259 2247 
L 1259 0 
L 628 0 
L 628 4666 
z
" transform="scale(0.015625)"/>
      </defs>
      <use xlink:href="#DejaVuSans-32"/>
      <use xlink:href="#DejaVuSans-4b" x="63.623047"/>
     </g>
    </g>
    <g id="line2d_17">
     <path d="M 248.202935 63.631875 
L 272.202935 63.631875 
" style="fill: none; stroke: #ff4126; stroke-width: 1.1; stroke-linecap: square"/>
    </g>
    <g id="text_16">
     <!-- DFE 2K -->
     <g transform="translate(281.802935 67.831875) scale(0.12 -0.12)">
      <defs>
       <path id="DejaVuSans-44" d="M 1259 4147 
L 1259 519 
L 2022 519 
Q 2988 519 3436 956 
Q 3884 1394 3884 2338 
Q 3884 3275 3436 3711 
Q 2988 4147 2022 4147 
L 1259 4147 
z
M 628 4666 
L 1925 4666 
Q 3281 4666 3915 4102 
Q 4550 3538 4550 2338 
Q 4550 1131 3912 565 
Q 3275 0 1925 0 
L 628 0 
L 628 4666 
z
" transform="scale(0.015625)"/>
       <path id="DejaVuSans-45" d="M 628 4666 
L 3578 4666 
L 3578 4134 
L 1259 4134 
L 1259 2753 
L 3481 2753 
L 3481 2222 
L 1259 2222 
L 1259 531 
L 3634 531 
L 3634 0 
L 628 0 
L 628 4666 
z
" transform="scale(0.015625)"/>
      </defs>
      <use xlink:href="#DejaVuSans-44"/>
      <use xlink:href="#DejaVuSans-46" x="77.001953"/>
      <use xlink:href="#DejaVuSans-45" x="134.521484"/>
      <use xlink:href="#DejaVuSans-20" x="197.705078"/>
      <use xlink:href="#DejaVuSans-32" x="229.492188"/>
      <use xlink:href="#DejaVuSans-4b" x="293.115234"/>
     </g>
    </g>
    <g id="patch_10">
     <path d="M 248.202935 85.445625 
L 272.202935 85.445625 
L 272.202935 77.045625 
L 248.202935 77.045625 
z
" style="fill: #808080; fill-opacity: 0.15; stroke: #000000; stroke-width: 1.1; stroke-linejoin: miter"/>
    </g>
    <g id="text_17">
     <!-- 0K -->
     <g transform="translate(281.802935 85.445625) scale(0.12 -0.12)">
      <use xlink:href="#DejaVuSans-30"/>
      <use xlink:href="#DejaVuSans-4b" x="63.623047"/>
     </g>
    </g>
   </g>
  </g>
  <g id="axes_2">
   <g id="patch_11">
    <path d="M 422.984565 261.3 
L 714.115 261.3 
L 714.115 30.3 
L 422.984565 30.3 
z
" style="fill: #ffffff"/>
   </g>
   <g id="patch_12">
    <path d="M 325.39786 261.3 
L 325.39786 240.597454 
L 331.403769 240.597454 
L 331.403769 240.80574 
L 337.409677 240.80574 
L 337.409677 240.80574 
L 343.415586 240.80574 
L 343.415586 240.80574 
L 349.421495 240.80574 
L 349.421495 240.80574 
L 355.427403 240.80574 
L 355.427403 240.80574 
L 361.433312 240.80574 
L 361.433312 240.80574 
L 367.43922 240.80574 
L 367.43922 240.80574 
L 373.445129 240.80574 
L 373.445129 240.597454 
L 379.451038 240.597454 
L 379.451038 240.389168 
L 385.456946 240.389168 
L 385.456946 240.80574 
L 391.462855 240.80574 
L 391.462855 240.493311 
L 397.468764 240.493311 
L 397.468764 240.701597 
L 403.474672 240.701597 
L 403.474672 240.597454 
L 409.480581 240.597454 
L 409.480581 240.285026 
L 415.486489 240.285026 
L 415.486489 240.80574 
L 421.492398 240.80574 
L 421.492398 240.285026 
L 427.498307 240.285026 
L 427.498307 240.597454 
L 433.504215 240.597454 
L 433.504215 240.493311 
L 439.510124 240.493311 
L 439.510124 240.180883 
L 445.516033 240.180883 
L 445.516033 240.80574 
L 451.521941 240.80574 
L 451.521941 239.868454 
L 457.52785 239.868454 
L 457.52785 240.389168 
L 463.533758 240.389168 
L 463.533758 238.931169 
L 469.539667 238.931169 
L 469.539667 239.243598 
L 475.545576 239.243598 
L 475.545576 239.451883 
L 481.551484 239.451883 
L 481.551484 237.785599 
L 487.557393 237.785599 
L 487.557393 237.160742 
L 493.563301 237.160742 
L 493.563301 237.160742 
L 499.56921 237.160742 
L 499.56921 236.327599 
L 505.575119 236.327599 
L 505.575119 235.702743 
L 511.581027 235.702743 
L 511.581027 234.348886 
L 517.586936 234.348886 
L 517.586936 228.412747 
L 523.592845 228.412747 
L 523.592845 226.538177 
L 529.598753 226.538177 
L 529.598753 219.248181 
L 535.604662 219.248181 
L 535.604662 207.584188 
L 541.61057 207.584188 
L 541.61057 188.734343 
L 547.616479 188.734343 
L 547.616479 153.013364 
L 553.622388 153.013364 
L 553.622388 110.418962 
L 559.628296 110.418962 
L 559.628296 54.494281 
L 565.634205 54.494281 
L 565.634205 261.3 
" clip-path="url(#p8a7eba5a2d)" style="fill: #802f95; fill-opacity: 0.5; stroke: #000000; stroke-width: 1.1; stroke-linejoin: miter"/>
   </g>
   <g id="patch_13">
    <path d="M 422.984565 261.3 
L 714.115 261.3 
L 714.115 240.80574 
L 422.984565 240.80574 
z
" clip-path="url(#p8a7eba5a2d)" style="fill: #ffffff"/>
   </g>
   <g id="patch_14">
    <path d="M 342.725382 261.3 
L 342.725382 261.138851 
L 350.507802 261.138851 
L 350.507802 261.138851 
L 358.290222 261.138851 
L 358.290222 261.138851 
L 366.072643 261.138851 
L 366.072643 261.3 
L 373.855063 261.3 
L 373.855063 261.058277 
L 381.637483 261.058277 
L 381.637483 261.058277 
L 389.419904 261.058277 
L 389.419904 261.3 
L 397.202324 261.3 
L 397.202324 260.977702 
L 404.984744 260.977702 
L 404.984744 261.3 
L 412.767165 261.3 
L 412.767165 261.138851 
L 420.549585 261.138851 
L 420.549585 261.138851 
L 428.332005 261.138851 
L 428.332005 261.138851 
L 436.114426 261.138851 
L 436.114426 260.897128 
L 443.896846 260.897128 
L 443.896846 260.977702 
L 451.679266 260.977702 
L 451.679266 260.816553 
L 459.461687 260.816553 
L 459.461687 260.735979 
L 467.244107 260.735979 
L 467.244107 259.607936 
L 475.026527 259.607936 
L 475.026527 260.57483 
L 482.808948 260.57483 
L 482.808948 260.171957 
L 490.591368 260.171957 
L 490.591368 259.769085 
L 498.373789 259.769085 
L 498.373789 258.641042 
L 506.156209 258.641042 
L 506.156209 258.802191 
L 513.938629 258.802191 
L 513.938629 254.451169 
L 521.72105 254.451169 
L 521.72105 253.806573 
L 529.50347 253.806573 
L 529.50347 249.374976 
L 537.28589 249.374976 
L 537.28589 240.592358 
L 545.068311 240.592358 
L 545.068311 225.766653 
L 552.850731 225.766653 
L 552.850731 209.73233 
L 560.633151 209.73233 
L 560.633151 176.293919 
L 568.415572 176.293919 
L 568.415572 181.934133 
L 576.197992 181.934133 
L 576.197992 196.195817 
L 583.980412 196.195817 
L 583.980412 221.818503 
L 591.762833 221.818503 
L 591.762833 244.298784 
L 599.545253 244.298784 
L 599.545253 255.498637 
L 607.327673 255.498637 
L 607.327673 259.366212 
L 615.110094 259.366212 
L 615.110094 260.655404 
L 622.892514 260.655404 
L 622.892514 260.977702 
L 630.674934 260.977702 
L 630.674934 260.897128 
L 638.457355 260.897128 
L 638.457355 261.3 
L 646.239775 261.3 
L 646.239775 261.138851 
L 654.022196 261.138851 
L 654.022196 261.3 
" clip-path="url(#p8a7eba5a2d)" style="fill: #808080; fill-opacity: 0.15; stroke: #000000; stroke-width: 1.1; stroke-linejoin: miter"/>
   </g>
   <g id="patch_15">
    <path d="M 354.515229 261.3 
L 354.515229 261.099588 
L 362.184374 261.099588 
L 362.184374 261.149691 
L 369.85352 261.149691 
L 369.85352 261.3 
L 377.522666 261.3 
L 377.522666 261.099588 
L 385.191811 261.099588 
L 385.191811 261.099588 
L 392.860957 261.099588 
L 392.860957 261.3 
L 400.530103 261.3 
L 400.530103 261.149691 
L 408.199248 261.149691 
L 408.199248 261.3 
L 415.868394 261.3 
L 415.868394 261.199794 
L 423.53754 261.199794 
L 423.53754 261.099588 
L 431.206685 261.099588 
L 431.206685 261.149691 
L 438.875831 261.149691 
L 438.875831 260.94928 
L 446.544977 260.94928 
L 446.544977 261.099588 
L 454.214122 261.099588 
L 454.214122 260.999383 
L 461.883268 260.999383 
L 461.883268 260.849074 
L 469.552414 260.849074 
L 469.552414 260.197736 
L 477.221559 260.197736 
L 477.221559 260.849074 
L 484.890705 260.849074 
L 484.890705 260.598559 
L 492.559851 260.598559 
L 492.559851 259.646604 
L 500.228996 259.646604 
L 500.228996 259.496296 
L 507.898142 259.496296 
L 507.898142 259.095472 
L 515.567288 259.095472 
L 515.567288 256.189504 
L 523.236433 256.189504 
L 523.236433 255.187446 
L 530.905579 255.187446 
L 530.905579 250.77839 
L 538.574725 250.77839 
L 538.574725 243.563573 
L 546.24387 243.563573 
L 546.24387 228.883422 
L 553.913016 228.883422 
L 553.913016 208.090718 
L 561.582162 208.090718 
L 561.582162 171.766113 
L 569.251307 171.766113 
L 569.251307 172.517657 
L 576.920453 172.517657 
L 576.920453 191.506657 
L 584.589599 191.506657 
L 584.589599 220.265723 
L 592.258744 220.265723 
L 592.258744 245.717997 
L 599.92789 245.717997 
L 599.92789 255.688475 
L 607.597036 255.688475 
L 607.597036 259.39609 
L 615.266181 259.39609 
L 615.266181 260.448251 
L 622.935327 260.448251 
L 622.935327 260.94928 
L 630.604473 260.94928 
L 630.604473 260.999383 
L 638.273618 260.999383 
L 638.273618 261.3 
L 645.942764 261.3 
L 645.942764 261.249897 
L 653.61191 261.249897 
L 653.61191 261.149691 
L 661.281055 261.149691 
L 661.281055 261.3 
" clip-path="url(#p8a7eba5a2d)" style="fill: none; stroke: #ff4126; stroke-width: 1.1; stroke-linejoin: miter"/>
   </g>
   <g id="matplotlib.axis_3">
    <g id="xtick_6">
     <g id="line2d_18">
      <g>
       <use xlink:href="#m039e71d4a9" x="436.217767" y="271.3" style="stroke: #000000; stroke-width: 1.5"/>
      </g>
     </g>
     <g id="text_18">
      <!-- −1.0 -->
      <g transform="translate(419.219798 291.437812) scale(0.14 -0.14)">
       <use xlink:href="#DejaVuSans-2212"/>
       <use xlink:href="#DejaVuSans-31" x="83.789062"/>
       <use xlink:href="#DejaVuSans-2e" x="147.412109"/>
       <use xlink:href="#DejaVuSans-30" x="179.199219"/>
      </g>
     </g>
    </g>
    <g id="xtick_7">
     <g id="line2d_19">
      <g>
       <use xlink:href="#m039e71d4a9" x="502.383775" y="271.3" style="stroke: #000000; stroke-width: 1.5"/>
      </g>
     </g>
     <g id="text_19">
      <!-- −0.5 -->
      <g transform="translate(485.385806 291.437812) scale(0.14 -0.14)">
       <use xlink:href="#DejaVuSans-2212"/>
       <use xlink:href="#DejaVuSans-30" x="83.789062"/>
       <use xlink:href="#DejaVuSans-2e" x="147.412109"/>
       <use xlink:href="#DejaVuSans-35" x="179.199219"/>
      </g>
     </g>
    </g>
    <g id="xtick_8">
     <g id="line2d_20">
      <g>
       <use xlink:href="#m039e71d4a9" x="568.549783" y="271.3" style="stroke: #000000; stroke-width: 1.5"/>
      </g>
     </g>
     <g id="text_20">
      <!-- 0.0 -->
      <g transform="translate(557.417595 291.437812) scale(0.14 -0.14)">
       <use xlink:href="#DejaVuSans-30"/>
       <use xlink:href="#DejaVuSans-2e" x="63.623047"/>
       <use xlink:href="#DejaVuSans-30" x="95.410156"/>
      </g>
     </g>
    </g>
    <g id="xtick_9">
     <g id="line2d_21">
      <g>
       <use xlink:href="#m039e71d4a9" x="634.715791" y="271.3" style="stroke: #000000; stroke-width: 1.5"/>
      </g>
     </g>
     <g id="text_21">
      <!-- 0.5 -->
      <g transform="translate(623.583603 291.437812) scale(0.14 -0.14)">
       <use xlink:href="#DejaVuSans-30"/>
       <use xlink:href="#DejaVuSans-2e" x="63.623047"/>
       <use xlink:href="#DejaVuSans-35" x="95.410156"/>
      </g>
     </g>
    </g>
    <g id="xtick_10">
     <g id="line2d_22">
      <g>
       <use xlink:href="#m039e71d4a9" x="700.881798" y="271.3" style="stroke: #000000; stroke-width: 1.5"/>
      </g>
     </g>
     <g id="text_22">
      <!-- 1.0 -->
      <g transform="translate(689.749611 291.437812) scale(0.14 -0.14)">
       <use xlink:href="#DejaVuSans-31"/>
       <use xlink:href="#DejaVuSans-2e" x="63.623047"/>
       <use xlink:href="#DejaVuSans-30" x="95.410156"/>
      </g>
     </g>
    </g>
    <g id="text_23">
     <!-- Fitness effect $(\Delta)$ -->
     <g transform="translate(500.389783 310.506875) scale(0.16 -0.16)">
      <use xlink:href="#DejaVuSans-46" transform="translate(0 0.015625)"/>
      <use xlink:href="#DejaVuSans-69" transform="translate(57.519531 0.015625)"/>
      <use xlink:href="#DejaVuSans-74" transform="translate(85.302734 0.015625)"/>
      <use xlink:href="#DejaVuSans-6e" transform="translate(124.511719 0.015625)"/>
      <use xlink:href="#DejaVuSans-65" transform="translate(187.890625 0.015625)"/>
      <use xlink:href="#DejaVuSans-73" transform="translate(249.414062 0.015625)"/>
      <use xlink:href="#DejaVuSans-73" transform="translate(301.513672 0.015625)"/>
      <use xlink:href="#DejaVuSans-20" transform="translate(353.613281 0.015625)"/>
      <use xlink:href="#DejaVuSans-65" transform="translate(385.400391 0.015625)"/>
      <use xlink:href="#DejaVuSans-66" transform="translate(446.923828 0.015625)"/>
      <use xlink:href="#DejaVuSans-66" transform="translate(482.128906 0.015625)"/>
      <use xlink:href="#DejaVuSans-65" transform="translate(517.333984 0.015625)"/>
      <use xlink:href="#DejaVuSans-63" transform="translate(578.857422 0.015625)"/>
      <use xlink:href="#DejaVuSans-74" transform="translate(633.837891 0.015625)"/>
      <use xlink:href="#DejaVuSans-20" transform="translate(673.046875 0.015625)"/>
      <use xlink:href="#DejaVuSans-28" transform="translate(704.833984 0.015625)"/>
      <use xlink:href="#DejaVuSans-394" transform="translate(743.847656 0.015625)"/>
      <use xlink:href="#DejaVuSans-29" transform="translate(812.255859 0.015625)"/>
     </g>
    </g>
    <g id="text_24">
     <!-- 1e−1 -->
     <g transform="translate(675.954063 307.987187) scale(0.14 -0.14)">
      <use xlink:href="#DejaVuSans-31"/>
      <use xlink:href="#DejaVuSans-65" x="63.623047"/>
      <use xlink:href="#DejaVuSans-2212" x="125.146484"/>
      <use xlink:href="#DejaVuSans-31" x="208.935547"/>
     </g>
    </g>
   </g>
   <g id="matplotlib.axis_4">
    <g id="ytick_6">
     <g id="line2d_23">
      <g>
       <use xlink:href="#m02d74d3af2" x="412.984565" y="261.3" style="stroke: #000000; stroke-width: 1.5"/>
      </g>
     </g>
     <g id="text_25">
      <!-- 0 -->
      <g transform="translate(394.577065 266.618906) scale(0.14 -0.14)">
       <use xlink:href="#DejaVuSans-30"/>
      </g>
     </g>
    </g>
    <g id="ytick_7">
     <g id="line2d_24">
      <g>
       <use xlink:href="#m02d74d3af2" x="412.984565" y="209.185208" style="stroke: #000000; stroke-width: 1.5"/>
      </g>
     </g>
     <g id="text_26">
      <!-- 20 -->
      <g transform="translate(385.669565 214.504115) scale(0.14 -0.14)">
       <use xlink:href="#DejaVuSans-32"/>
       <use xlink:href="#DejaVuSans-30" x="63.623047"/>
      </g>
     </g>
    </g>
    <g id="ytick_8">
     <g id="line2d_25">
      <g>
       <use xlink:href="#m02d74d3af2" x="412.984565" y="157.070417" style="stroke: #000000; stroke-width: 1.5"/>
      </g>
     </g>
     <g id="text_27">
      <!-- 40 -->
      <g transform="translate(385.669565 162.389323) scale(0.14 -0.14)">
       <use xlink:href="#DejaVuSans-34"/>
       <use xlink:href="#DejaVuSans-30" x="63.623047"/>
      </g>
     </g>
    </g>
    <g id="ytick_9">
     <g id="line2d_26">
      <g>
       <use xlink:href="#m02d74d3af2" x="412.984565" y="104.955625" style="stroke: #000000; stroke-width: 1.5"/>
      </g>
     </g>
     <g id="text_28">
      <!-- 60 -->
      <g transform="translate(385.669565 110.274532) scale(0.14 -0.14)">
       <use xlink:href="#DejaVuSans-36"/>
       <use xlink:href="#DejaVuSans-30" x="63.623047"/>
      </g>
     </g>
    </g>
    <g id="ytick_10">
     <g id="line2d_27">
      <g>
       <use xlink:href="#m02d74d3af2" x="412.984565" y="52.840834" style="stroke: #000000; stroke-width: 1.5"/>
      </g>
     </g>
     <g id="text_29">
      <!-- 80 -->
      <g transform="translate(385.669565 58.15974) scale(0.14 -0.14)">
       <use xlink:href="#DejaVuSans-38"/>
       <use xlink:href="#DejaVuSans-30" x="63.623047"/>
      </g>
     </g>
    </g>
   </g>
   <g id="line2d_28">
    <path d="M 437.541087 238.756314 
L 699.558478 238.756314 
" clip-path="url(#p8a7eba5a2d)" style="fill: none; stroke-dasharray: 3.7,1.6; stroke-dashoffset: 0; stroke: #808080"/>
   </g>
   <g id="line2d_29">
    <path d="M 422.984565 263.254305 
L 437.541087 238.756314 
" clip-path="url(#p8a7eba5a2d)" style="fill: none; stroke-dasharray: 3.7,1.6; stroke-dashoffset: 0; stroke: #808080"/>
   </g>
   <g id="line2d_30">
    <path d="M 714.115 263.254305 
L 699.558478 238.756314 
" clip-path="url(#p8a7eba5a2d)" style="fill: none; stroke-dasharray: 3.7,1.6; stroke-dashoffset: 0; stroke: #808080"/>
   </g>
   <g id="line2d_31">
    <path d="M 495.767174 263.254305 
L 503.045435 238.756314 
" clip-path="url(#p8a7eba5a2d)" style="fill: none; stroke-dasharray: 3.7,1.6; stroke-dashoffset: 0; stroke: #808080"/>
   </g>
   <g id="line2d_32">
    <path d="M 641.332391 263.254305 
L 634.05413 238.756314 
" clip-path="url(#p8a7eba5a2d)" style="fill: none; stroke-dasharray: 3.7,1.6; stroke-dashoffset: 0; stroke: #808080"/>
   </g>
   <g id="line2d_33">
    <path d="M 568.549783 263.254305 
L 568.549783 238.756314 
" clip-path="url(#p8a7eba5a2d)" style="fill: none; stroke-dasharray: 3.7,1.6; stroke-dashoffset: 0; stroke: #808080"/>
   </g>
   <g id="patch_16">
    <path d="M 412.984565 261.3 
L 412.984565 30.3 
" style="fill: none; stroke: #000000; stroke-width: 1.5; stroke-linejoin: miter; stroke-linecap: square"/>
   </g>
   <g id="patch_17">
    <path d="M 422.984565 271.3 
L 714.115 271.3 
" style="fill: none; stroke: #000000; stroke-width: 1.5; stroke-linejoin: miter; stroke-linecap: square"/>
   </g>
   <g id="text_30">
    <!-- $p_{KS} = 1e-10$ -->
    <g transform="translate(437.541087 50.94375) scale(0.12 -0.12)">
     <use xlink:href="#DejaVuSans-Oblique-70" transform="translate(0 0.78125)"/>
     <use xlink:href="#DejaVuSans-Oblique-4b" transform="translate(63.476562 -15.625) scale(0.7)"/>
     <use xlink:href="#DejaVuSans-Oblique-53" transform="translate(109.379883 -15.625) scale(0.7)"/>
     <use xlink:href="#DejaVuSans-3d" transform="translate(176.030273 0.78125)"/>
     <use xlink:href="#DejaVuSans-31" transform="translate(279.301758 0.78125)"/>
     <use xlink:href="#DejaVuSans-Oblique-65" transform="translate(342.924805 0.78125)"/>
     <use xlink:href="#DejaVuSans-2212" transform="translate(423.930664 0.78125)"/>
     <use xlink:href="#DejaVuSans-31" transform="translate(527.202148 0.78125)"/>
     <use xlink:href="#DejaVuSans-30" transform="translate(590.825195 0.78125)"/>
    </g>
   </g>
   <g id="text_31">
    <!-- B -->
    <g transform="translate(393.871522 20.877187) scale(0.18 -0.18)">
     <defs>
      <path id="DejaVuSans-Bold-42" d="M 2456 2859 
Q 2741 2859 2887 2984 
Q 3034 3109 3034 3353 
Q 3034 3594 2887 3720 
Q 2741 3847 2456 3847 
L 1791 3847 
L 1791 2859 
L 2456 2859 
z
M 2497 819 
Q 2859 819 3042 972 
Q 3225 1125 3225 1434 
Q 3225 1738 3044 1889 
Q 2863 2041 2497 2041 
L 1791 2041 
L 1791 819 
L 2497 819 
z
M 3616 2497 
Q 4003 2384 4215 2081 
Q 4428 1778 4428 1338 
Q 4428 663 3972 331 
Q 3516 0 2584 0 
L 588 0 
L 588 4666 
L 2394 4666 
Q 3366 4666 3802 4372 
Q 4238 4078 4238 3431 
Q 4238 3091 4078 2852 
Q 3919 2613 3616 2497 
z
" transform="scale(0.015625)"/>
     </defs>
     <use xlink:href="#DejaVuSans-Bold-42"/>
    </g>
   </g>
   <g id="legend_2">
    <g id="patch_18">
     <path d="M 626.6725 50.218125 
L 650.6725 50.218125 
L 650.6725 41.818125 
L 626.6725 41.818125 
z
" style="fill: #802f95; fill-opacity: 0.5; stroke: #000000; stroke-width: 1.1; stroke-linejoin: miter"/>
    </g>
    <g id="text_32">
     <!-- 2K -->
     <g transform="translate(660.2725 50.218125) scale(0.12 -0.12)">
      <use xlink:href="#DejaVuSans-32"/>
      <use xlink:href="#DejaVuSans-4b" x="63.623047"/>
     </g>
    </g>
    <g id="patch_19">
     <path d="M 626.6725 67.831875 
L 650.6725 67.831875 
L 650.6725 59.431875 
L 626.6725 59.431875 
z
" style="fill: #808080; fill-opacity: 0.15; stroke: #000000; stroke-width: 1.1; stroke-linejoin: miter"/>
    </g>
    <g id="text_33">
     <!-- 0K -->
     <g transform="translate(660.2725 67.831875) scale(0.12 -0.12)">
      <use xlink:href="#DejaVuSans-30"/>
      <use xlink:href="#DejaVuSans-4b" x="63.623047"/>
     </g>
    </g>
    <g id="line2d_34">
     <path d="M 626.6725 81.245625 
L 650.6725 81.245625 
" style="fill: none; stroke: #ff4126; stroke-width: 1.1; stroke-linecap: square"/>
    </g>
    <g id="text_34">
     <!-- DFE 0K -->
     <g transform="translate(660.2725 85.445625) scale(0.12 -0.12)">
      <use xlink:href="#DejaVuSans-44"/>
      <use xlink:href="#DejaVuSans-46" x="77.001953"/>
      <use xlink:href="#DejaVuSans-45" x="134.521484"/>
      <use xlink:href="#DejaVuSans-20" x="197.705078"/>
      <use xlink:href="#DejaVuSans-30" x="229.492188"/>
      <use xlink:href="#DejaVuSans-4b" x="293.115234"/>
     </g>
    </g>
   </g>
  </g>
  <g id="axes_3">
   <g id="patch_20">
    <path d="M 44.515 584.7 
L 335.645435 584.7 
L 335.645435 353.7 
L 44.515 353.7 
z
" style="fill: #ffffff"/>
   </g>
   <g id="patch_21">
    <path d="M 14.182666 584.7 
L 14.182666 564.069483 
L 20.874317 564.069483 
L 20.874317 564.27526 
L 27.565969 564.27526 
L 27.565969 564.27526 
L 34.25762 564.27526 
L 34.25762 564.069483 
L 40.949272 564.069483 
L 40.949272 563.863707 
L 47.640923 563.863707 
L 47.640923 563.966595 
L 54.332574 563.966595 
L 54.332574 564.069483 
L 61.024226 564.069483 
L 61.024226 563.555042 
L 67.715877 563.555042 
L 67.715877 563.863707 
L 74.407529 563.863707 
L 74.407529 563.863707 
L 81.09918 563.863707 
L 81.09918 563.349266 
L 87.790831 563.349266 
L 87.790831 563.14349 
L 94.482483 563.14349 
L 94.482483 563.555042 
L 101.174134 563.555042 
L 101.174134 563.246378 
L 107.865785 563.246378 
L 107.865785 563.246378 
L 114.557437 563.246378 
L 114.557437 561.497279 
L 121.249088 561.497279 
L 121.249088 561.703055 
L 127.94074 561.703055 
L 127.94074 561.188614 
L 134.632391 561.188614 
L 134.632391 558.307745 
L 141.324042 558.307745 
L 141.324042 557.278863 
L 148.015694 557.278863 
L 148.015694 554.912435 
L 154.707345 554.912435 
L 154.707345 549.973802 
L 161.398997 549.973802 
L 161.398997 541.02253 
L 168.090648 541.02253 
L 168.090648 528.57306 
L 174.782299 528.57306 
L 174.782299 502.336573 
L 181.473951 502.336573 
L 181.473951 466.428596 
L 188.165602 466.428596 
L 188.165602 453.876238 
L 194.857254 453.876238 
L 194.857254 486.183128 
L 201.548905 486.183128 
L 201.548905 523.634427 
L 208.240556 523.634427 
L 208.240556 546.269827 
L 214.932208 546.269827 
L 214.932208 558.513521 
L 221.623859 558.513521 
L 221.623859 561.085726 
L 228.31551 561.085726 
L 228.31551 563.863707 
L 235.007162 563.863707 
L 235.007162 563.349266 
L 241.698813 563.349266 
L 241.698813 564.172372 
L 248.390465 564.172372 
L 248.390465 584.7 
" clip-path="url(#p0edf8adf5c)" style="fill: #802f95; fill-opacity: 0.5; stroke: #000000; stroke-width: 1.1; stroke-linejoin: miter"/>
   </g>
   <g id="patch_22">
    <path d="M 14.182666 584.7 
L 14.182666 564.149922 
L 20.874317 564.149922 
L 20.874317 564.149922 
L 27.565969 564.149922 
L 27.565969 564.27526 
L 34.25762 564.27526 
L 34.25762 564.024584 
L 40.949272 564.024584 
L 40.949272 564.024584 
L 47.640923 564.024584 
L 47.640923 564.087253 
L 54.332574 564.087253 
L 54.332574 564.149922 
L 61.024226 564.149922 
L 61.024226 563.773908 
L 67.715877 563.773908 
L 67.715877 563.899246 
L 74.407529 563.899246 
L 74.407529 563.836577 
L 81.09918 563.836577 
L 81.09918 563.711239 
L 87.790831 563.711239 
L 87.790831 563.335226 
L 94.482483 563.335226 
L 94.482483 563.836577 
L 101.174134 563.836577 
L 101.174134 563.397895 
L 107.865785 563.397895 
L 107.865785 563.460564 
L 114.557437 563.460564 
L 114.557437 561.95651 
L 121.249088 561.95651 
L 121.249088 562.207185 
L 127.94074 562.207185 
L 127.94074 561.643165 
L 134.632391 561.643165 
L 134.632391 559.637759 
L 141.324042 559.637759 
L 141.324042 558.760395 
L 148.015694 558.760395 
L 148.015694 556.504313 
L 154.707345 556.504313 
L 154.707345 552.806847 
L 161.398997 552.806847 
L 161.398997 544.973232 
L 168.090648 544.973232 
L 168.090648 532.502116 
L 174.782299 532.502116 
L 174.782299 503.047722 
L 181.473951 503.047722 
L 181.473951 463.62897 
L 188.165602 463.62897 
L 188.165602 445.830996 
L 194.857254 445.830996 
L 194.857254 480.737586 
L 201.548905 480.737586 
L 201.548905 521.096372 
L 208.240556 521.096372 
L 208.240556 545.913265 
L 214.932208 545.913265 
L 214.932208 557.88303 
L 221.623859 557.88303 
L 221.623859 561.643165 
L 228.31551 561.643165 
L 228.31551 563.899246 
L 235.007162 563.899246 
L 235.007162 563.585902 
L 241.698813 563.585902 
L 241.698813 564.212591 
L 248.390465 564.212591 
L 248.390465 584.7 
" clip-path="url(#p0edf8adf5c)" style="fill: none; stroke: #ff4126; stroke-width: 1.1; stroke-linejoin: miter"/>
   </g>
   <g id="patch_23">
    <path d="M 44.515 584.7 
L 335.645435 584.7 
L 335.645435 564.27526 
L 44.515 564.27526 
z
" clip-path="url(#p0edf8adf5c)" style="fill: #ffffff"/>
   </g>
   <g id="patch_24">
    <path d="M -57.777234 584.7 
L -57.777234 584.503618 
L -50.779093 584.503618 
L -50.779093 584.7 
L -43.780952 584.7 
L -43.780952 584.7 
L -36.782811 584.7 
L -36.782811 584.7 
L -29.784669 584.7 
L -29.784669 584.7 
L -22.786528 584.7 
L -22.786528 584.7 
L -15.788387 584.7 
L -15.788387 584.7 
L -8.790246 584.7 
L -8.790246 584.7 
L -1.792105 584.7 
L -1.792105 584.7 
L 5.206037 584.7 
L 5.206037 584.7 
L 12.204178 584.7 
L 12.204178 584.7 
L 19.202319 584.7 
L 19.202319 584.7 
L 26.20046 584.7 
L 26.20046 584.503618 
L 33.198602 584.503618 
L 33.198602 584.307235 
L 40.196743 584.307235 
L 40.196743 584.7 
L 47.194884 584.7 
L 47.194884 584.7 
L 54.193025 584.7 
L 54.193025 584.012662 
L 61.191166 584.012662 
L 61.191166 584.110853 
L 68.189308 584.110853 
L 68.189308 584.503618 
L 75.187449 584.503618 
L 75.187449 584.307235 
L 82.18559 584.307235 
L 82.18559 583.81628 
L 89.183731 583.81628 
L 89.183731 582.343412 
L 96.181872 582.343412 
L 96.181872 583.521706 
L 103.180014 583.521706 
L 103.180014 581.950648 
L 110.178155 581.950648 
L 110.178155 580.477781 
L 117.176296 580.477781 
L 117.176296 580.870545 
L 124.174437 580.870545 
L 124.174437 580.281398 
L 131.172578 580.281398 
L 131.172578 578.023002 
L 138.17072 578.023002 
L 138.17072 572.72068 
L 145.168861 572.72068 
L 145.168861 569.185799 
L 152.167002 569.185799 
L 152.167002 562.41061 
L 159.165143 562.41061 
L 159.165143 542.870572 
L 166.163284 542.870572 
L 166.163284 509.780156 
L 173.161426 509.780156 
L 173.161426 459.997245 
L 180.159567 459.997245 
L 180.159567 399.020543 
L 187.157708 399.020543 
L 187.157708 584.7 
" clip-path="url(#p0edf8adf5c)" style="fill: #808080; fill-opacity: 0.15; stroke: #000000; stroke-width: 1.1; stroke-linejoin: miter"/>
   </g>
   <g id="matplotlib.axis_5">
    <g id="xtick_11">
     <g id="line2d_35">
      <g>
       <use xlink:href="#m039e71d4a9" x="57.748202" y="594.7" style="stroke: #000000; stroke-width: 1.5"/>
      </g>
     </g>
     <g id="text_35">
      <!-- −1.0 -->
      <g transform="translate(40.750233 614.837812) scale(0.14 -0.14)">
       <use xlink:href="#DejaVuSans-2212"/>
       <use xlink:href="#DejaVuSans-31" x="83.789062"/>
       <use xlink:href="#DejaVuSans-2e" x="147.412109"/>
       <use xlink:href="#DejaVuSans-30" x="179.199219"/>
      </g>
     </g>
    </g>
    <g id="xtick_12">
     <g id="line2d_36">
      <g>
       <use xlink:href="#m039e71d4a9" x="123.914209" y="594.7" style="stroke: #000000; stroke-width: 1.5"/>
      </g>
     </g>
     <g id="text_36">
      <!-- −0.5 -->
      <g transform="translate(106.916241 614.837812) scale(0.14 -0.14)">
       <use xlink:href="#DejaVuSans-2212"/>
       <use xlink:href="#DejaVuSans-30" x="83.789062"/>
       <use xlink:href="#DejaVuSans-2e" x="147.412109"/>
       <use xlink:href="#DejaVuSans-35" x="179.199219"/>
      </g>
     </g>
    </g>
    <g id="xtick_13">
     <g id="line2d_37">
      <g>
       <use xlink:href="#m039e71d4a9" x="190.080217" y="594.7" style="stroke: #000000; stroke-width: 1.5"/>
      </g>
     </g>
     <g id="text_37">
      <!-- 0.0 -->
      <g transform="translate(178.94803 614.837812) scale(0.14 -0.14)">
       <use xlink:href="#DejaVuSans-30"/>
       <use xlink:href="#DejaVuSans-2e" x="63.623047"/>
       <use xlink:href="#DejaVuSans-30" x="95.410156"/>
      </g>
     </g>
    </g>
    <g id="xtick_14">
     <g id="line2d_38">
      <g>
       <use xlink:href="#m039e71d4a9" x="256.246225" y="594.7" style="stroke: #000000; stroke-width: 1.5"/>
      </g>
     </g>
     <g id="text_38">
      <!-- 0.5 -->
      <g transform="translate(245.114038 614.837812) scale(0.14 -0.14)">
       <use xlink:href="#DejaVuSans-30"/>
       <use xlink:href="#DejaVuSans-2e" x="63.623047"/>
       <use xlink:href="#DejaVuSans-35" x="95.410156"/>
      </g>
     </g>
    </g>
    <g id="xtick_15">
     <g id="line2d_39">
      <g>
       <use xlink:href="#m039e71d4a9" x="322.412233" y="594.7" style="stroke: #000000; stroke-width: 1.5"/>
      </g>
     </g>
     <g id="text_39">
      <!-- 1.0 -->
      <g transform="translate(311.280046 614.837812) scale(0.14 -0.14)">
       <use xlink:href="#DejaVuSans-31"/>
       <use xlink:href="#DejaVuSans-2e" x="63.623047"/>
       <use xlink:href="#DejaVuSans-30" x="95.410156"/>
      </g>
     </g>
    </g>
    <g id="text_40">
     <!-- Fitness effect $(\Delta)$ -->
     <g transform="translate(121.920217 633.906875) scale(0.16 -0.16)">
      <use xlink:href="#DejaVuSans-46" transform="translate(0 0.015625)"/>
      <use xlink:href="#DejaVuSans-69" transform="translate(57.519531 0.015625)"/>
      <use xlink:href="#DejaVuSans-74" transform="translate(85.302734 0.015625)"/>
      <use xlink:href="#DejaVuSans-6e" transform="translate(124.511719 0.015625)"/>
      <use xlink:href="#DejaVuSans-65" transform="translate(187.890625 0.015625)"/>
      <use xlink:href="#DejaVuSans-73" transform="translate(249.414062 0.015625)"/>
      <use xlink:href="#DejaVuSans-73" transform="translate(301.513672 0.015625)"/>
      <use xlink:href="#DejaVuSans-20" transform="translate(353.613281 0.015625)"/>
      <use xlink:href="#DejaVuSans-65" transform="translate(385.400391 0.015625)"/>
      <use xlink:href="#DejaVuSans-66" transform="translate(446.923828 0.015625)"/>
      <use xlink:href="#DejaVuSans-66" transform="translate(482.128906 0.015625)"/>
      <use xlink:href="#DejaVuSans-65" transform="translate(517.333984 0.015625)"/>
      <use xlink:href="#DejaVuSans-63" transform="translate(578.857422 0.015625)"/>
      <use xlink:href="#DejaVuSans-74" transform="translate(633.837891 0.015625)"/>
      <use xlink:href="#DejaVuSans-20" transform="translate(673.046875 0.015625)"/>
      <use xlink:href="#DejaVuSans-28" transform="translate(704.833984 0.015625)"/>
      <use xlink:href="#DejaVuSans-394" transform="translate(743.847656 0.015625)"/>
      <use xlink:href="#DejaVuSans-29" transform="translate(812.255859 0.015625)"/>
     </g>
    </g>
    <g id="text_41">
     <!-- 1e−1 -->
     <g transform="translate(297.484497 631.387187) scale(0.14 -0.14)">
      <use xlink:href="#DejaVuSans-31"/>
      <use xlink:href="#DejaVuSans-65" x="63.623047"/>
      <use xlink:href="#DejaVuSans-2212" x="125.146484"/>
      <use xlink:href="#DejaVuSans-31" x="208.935547"/>
     </g>
    </g>
   </g>
   <g id="matplotlib.axis_6">
    <g id="ytick_11">
     <g id="line2d_40">
      <g>
       <use xlink:href="#m02d74d3af2" x="34.515" y="584.7" style="stroke: #000000; stroke-width: 1.5"/>
      </g>
     </g>
     <g id="text_42">
      <!-- 0 -->
      <g transform="translate(16.1075 590.018906) scale(0.14 -0.14)">
       <use xlink:href="#DejaVuSans-30"/>
      </g>
     </g>
    </g>
    <g id="ytick_12">
     <g id="line2d_41">
      <g>
       <use xlink:href="#m02d74d3af2" x="34.515" y="531.194805" style="stroke: #000000; stroke-width: 1.5"/>
      </g>
     </g>
     <g id="text_43">
      <!-- 20 -->
      <g transform="translate(7.2 536.513711) scale(0.14 -0.14)">
       <use xlink:href="#DejaVuSans-32"/>
       <use xlink:href="#DejaVuSans-30" x="63.623047"/>
      </g>
     </g>
    </g>
    <g id="ytick_13">
     <g id="line2d_42">
      <g>
       <use xlink:href="#m02d74d3af2" x="34.515" y="477.68961" style="stroke: #000000; stroke-width: 1.5"/>
      </g>
     </g>
     <g id="text_44">
      <!-- 40 -->
      <g transform="translate(7.2 483.008516) scale(0.14 -0.14)">
       <use xlink:href="#DejaVuSans-34"/>
       <use xlink:href="#DejaVuSans-30" x="63.623047"/>
      </g>
     </g>
    </g>
    <g id="ytick_14">
     <g id="line2d_43">
      <g>
       <use xlink:href="#m02d74d3af2" x="34.515" y="424.184415" style="stroke: #000000; stroke-width: 1.5"/>
      </g>
     </g>
     <g id="text_45">
      <!-- 60 -->
      <g transform="translate(7.2 429.503321) scale(0.14 -0.14)">
       <use xlink:href="#DejaVuSans-36"/>
       <use xlink:href="#DejaVuSans-30" x="63.623047"/>
      </g>
     </g>
    </g>
    <g id="ytick_15">
     <g id="line2d_44">
      <g>
       <use xlink:href="#m02d74d3af2" x="34.515" y="370.67922" style="stroke: #000000; stroke-width: 1.5"/>
      </g>
     </g>
     <g id="text_46">
      <!-- 80 -->
      <g transform="translate(7.2 375.998126) scale(0.14 -0.14)">
       <use xlink:href="#DejaVuSans-38"/>
       <use xlink:href="#DejaVuSans-30" x="63.623047"/>
      </g>
     </g>
    </g>
   </g>
   <g id="line2d_45">
    <path d="M 59.071522 562.232786 
L 321.088913 562.232786 
" clip-path="url(#p0edf8adf5c)" style="fill: none; stroke-dasharray: 3.7,1.6; stroke-dashoffset: 0; stroke: #808080"/>
   </g>
   <g id="line2d_46">
    <path d="M 44.515 586.706445 
L 59.071522 562.232786 
" clip-path="url(#p0edf8adf5c)" style="fill: none; stroke-dasharray: 3.7,1.6; stroke-dashoffset: 0; stroke: #808080"/>
   </g>
   <g id="line2d_47">
    <path d="M 335.645435 586.706445 
L 321.088913 562.232786 
" clip-path="url(#p0edf8adf5c)" style="fill: none; stroke-dasharray: 3.7,1.6; stroke-dashoffset: 0; stroke: #808080"/>
   </g>
   <g id="line2d_48">
    <path d="M 117.297609 586.706445 
L 124.57587 562.232786 
" clip-path="url(#p0edf8adf5c)" style="fill: none; stroke-dasharray: 3.7,1.6; stroke-dashoffset: 0; stroke: #808080"/>
   </g>
   <g id="line2d_49">
    <path d="M 262.862826 586.706445 
L 255.584565 562.232786 
" clip-path="url(#p0edf8adf5c)" style="fill: none; stroke-dasharray: 3.7,1.6; stroke-dashoffset: 0; stroke: #808080"/>
   </g>
   <g id="line2d_50">
    <path d="M 190.080217 586.706445 
L 190.080217 562.232786 
" clip-path="url(#p0edf8adf5c)" style="fill: none; stroke-dasharray: 3.7,1.6; stroke-dashoffset: 0; stroke: #808080"/>
   </g>
   <g id="patch_25">
    <path d="M 34.515 584.7 
L 34.515 353.7 
" style="fill: none; stroke: #000000; stroke-width: 1.5; stroke-linejoin: miter; stroke-linecap: square"/>
   </g>
   <g id="patch_26">
    <path d="M 44.515 594.7 
L 335.645435 594.7 
" style="fill: none; stroke: #000000; stroke-width: 1.5; stroke-linejoin: miter; stroke-linecap: square"/>
   </g>
   <g id="text_47">
    <!-- $p_{KS} = 9.6e-05$ -->
    <g transform="translate(59.071522 374.34375) scale(0.12 -0.12)">
     <defs>
      <path id="DejaVuSans-39" d="M 703 97 
L 703 672 
Q 941 559 1184 500 
Q 1428 441 1663 441 
Q 2288 441 2617 861 
Q 2947 1281 2994 2138 
Q 2813 1869 2534 1725 
Q 2256 1581 1919 1581 
Q 1219 1581 811 2004 
Q 403 2428 403 3163 
Q 403 3881 828 4315 
Q 1253 4750 1959 4750 
Q 2769 4750 3195 4129 
Q 3622 3509 3622 2328 
Q 3622 1225 3098 567 
Q 2575 -91 1691 -91 
Q 1453 -91 1209 -44 
Q 966 3 703 97 
z
M 1959 2075 
Q 2384 2075 2632 2365 
Q 2881 2656 2881 3163 
Q 2881 3666 2632 3958 
Q 2384 4250 1959 4250 
Q 1534 4250 1286 3958 
Q 1038 3666 1038 3163 
Q 1038 2656 1286 2365 
Q 1534 2075 1959 2075 
z
" transform="scale(0.015625)"/>
     </defs>
     <use xlink:href="#DejaVuSans-Oblique-70" transform="translate(0 0.78125)"/>
     <use xlink:href="#DejaVuSans-Oblique-4b" transform="translate(63.476562 -15.625) scale(0.7)"/>
     <use xlink:href="#DejaVuSans-Oblique-53" transform="translate(109.379883 -15.625) scale(0.7)"/>
     <use xlink:href="#DejaVuSans-3d" transform="translate(176.030273 0.78125)"/>
     <use xlink:href="#DejaVuSans-39" transform="translate(279.301758 0.78125)"/>
     <use xlink:href="#DejaVuSans-2e" transform="translate(342.924805 0.78125)"/>
     <use xlink:href="#DejaVuSans-36" transform="translate(374.711914 0.78125)"/>
     <use xlink:href="#DejaVuSans-Oblique-65" transform="translate(438.334961 0.78125)"/>
     <use xlink:href="#DejaVuSans-2212" transform="translate(519.34082 0.78125)"/>
     <use xlink:href="#DejaVuSans-30" transform="translate(622.612305 0.78125)"/>
     <use xlink:href="#DejaVuSans-35" transform="translate(686.235352 0.78125)"/>
    </g>
   </g>
   <g id="text_48">
    <!-- C -->
    <g transform="translate(15.401957 344.277187) scale(0.18 -0.18)">
     <defs>
      <path id="DejaVuSans-Bold-43" d="M 4288 256 
Q 3956 84 3597 -3 
Q 3238 -91 2847 -91 
Q 1681 -91 1000 561 
Q 319 1213 319 2328 
Q 319 3447 1000 4098 
Q 1681 4750 2847 4750 
Q 3238 4750 3597 4662 
Q 3956 4575 4288 4403 
L 4288 3438 
Q 3953 3666 3628 3772 
Q 3303 3878 2944 3878 
Q 2300 3878 1931 3465 
Q 1563 3053 1563 2328 
Q 1563 1606 1931 1193 
Q 2300 781 2944 781 
Q 3303 781 3628 887 
Q 3953 994 4288 1222 
L 4288 256 
z
" transform="scale(0.015625)"/>
     </defs>
     <use xlink:href="#DejaVuSans-Bold-43"/>
    </g>
   </g>
   <g id="legend_3">
    <g id="patch_27">
     <path d="M 240.567935 373.618125 
L 264.567935 373.618125 
L 264.567935 365.218125 
L 240.567935 365.218125 
z
" style="fill: #802f95; fill-opacity: 0.5; stroke: #000000; stroke-width: 1.1; stroke-linejoin: miter"/>
    </g>
    <g id="text_49">
     <!-- 15K -->
     <g transform="translate(274.167935 373.618125) scale(0.12 -0.12)">
      <use xlink:href="#DejaVuSans-31"/>
      <use xlink:href="#DejaVuSans-35" x="63.623047"/>
      <use xlink:href="#DejaVuSans-4b" x="127.246094"/>
     </g>
    </g>
    <g id="line2d_51">
     <path d="M 240.567935 387.031875 
L 264.567935 387.031875 
" style="fill: none; stroke: #ff4126; stroke-width: 1.1; stroke-linecap: square"/>
    </g>
    <g id="text_50">
     <!-- DFE 15K -->
     <g transform="translate(274.167935 391.231875) scale(0.12 -0.12)">
      <use xlink:href="#DejaVuSans-44"/>
      <use xlink:href="#DejaVuSans-46" x="77.001953"/>
      <use xlink:href="#DejaVuSans-45" x="134.521484"/>
      <use xlink:href="#DejaVuSans-20" x="197.705078"/>
      <use xlink:href="#DejaVuSans-31" x="229.492188"/>
      <use xlink:href="#DejaVuSans-35" x="293.115234"/>
      <use xlink:href="#DejaVuSans-4b" x="356.738281"/>
     </g>
    </g>
    <g id="patch_28">
     <path d="M 240.567935 408.845625 
L 264.567935 408.845625 
L 264.567935 400.445625 
L 240.567935 400.445625 
z
" style="fill: #808080; fill-opacity: 0.15; stroke: #000000; stroke-width: 1.1; stroke-linejoin: miter"/>
    </g>
    <g id="text_51">
     <!-- 2K -->
     <g transform="translate(274.167935 408.845625) scale(0.12 -0.12)">
      <use xlink:href="#DejaVuSans-32"/>
      <use xlink:href="#DejaVuSans-4b" x="63.623047"/>
     </g>
    </g>
   </g>
  </g>
  <g id="axes_4">
   <g id="patch_29">
    <path d="M 422.984565 584.7 
L 714.115 584.7 
L 714.115 353.7 
L 422.984565 353.7 
z
" style="fill: #ffffff"/>
   </g>
   <g id="patch_30">
    <path d="M 386.829623 584.7 
L 386.829623 563.934129 
L 391.299645 563.934129 
L 391.299645 564.217333 
L 395.769667 564.217333 
L 395.769667 563.934129 
L 400.239689 563.934129 
L 400.239689 564.217333 
L 404.709711 564.217333 
L 404.709711 564.217333 
L 409.179734 564.217333 
L 409.179734 563.934129 
L 413.649756 563.934129 
L 413.649756 563.934129 
L 418.119778 563.934129 
L 418.119778 564.217333 
L 422.5898 564.217333 
L 422.5898 563.792528 
L 427.059822 563.792528 
L 427.059822 564.217333 
L 431.529845 564.217333 
L 431.529845 563.792528 
L 435.999867 563.792528 
L 435.999867 563.792528 
L 440.469889 563.792528 
L 440.469889 563.509325 
L 444.939911 563.509325 
L 444.939911 563.650926 
L 449.409934 563.650926 
L 449.409934 563.792528 
L 453.879956 563.792528 
L 453.879956 563.650926 
L 458.349978 563.650926 
L 458.349978 563.650926 
L 462.82 563.650926 
L 462.82 562.801317 
L 467.290022 562.801317 
L 467.290022 563.650926 
L 471.760045 563.650926 
L 471.760045 563.934129 
L 476.230067 563.934129 
L 476.230067 562.234911 
L 480.700089 562.234911 
L 480.700089 563.226122 
L 485.170111 563.226122 
L 485.170111 561.668504 
L 489.640134 561.668504 
L 489.640134 560.818895 
L 494.110156 560.818895 
L 494.110156 561.102098 
L 498.580178 561.102098 
L 498.580178 560.677293 
L 503.0502 560.677293 
L 503.0502 560.110887 
L 507.520222 560.110887 
L 507.520222 557.137254 
L 511.990245 557.137254 
L 511.990245 557.278856 
L 516.460267 557.278856 
L 516.460267 554.588426 
L 520.930289 554.588426 
L 520.930289 555.296434 
L 525.400311 555.296434 
L 525.400311 548.64116 
L 529.870333 548.64116 
L 529.870333 544.959519 
L 534.340356 544.959519 
L 534.340356 535.613815 
L 538.810378 535.613815 
L 538.810378 525.843307 
L 543.2804 525.843307 
L 543.2804 511.966353 
L 547.750422 511.966353 
L 547.750422 476.141155 
L 552.220445 476.141155 
L 552.220445 437.200723 
L 556.690467 437.200723 
L 556.690467 404.490759 
L 561.160489 404.490759 
L 561.160489 378.011265 
L 565.630511 378.011265 
L 565.630511 584.7 
" clip-path="url(#p106c7571dc)" style="fill: #802f95; fill-opacity: 0.5; stroke: #000000; stroke-width: 1.1; stroke-linejoin: miter"/>
   </g>
   <g id="patch_31">
    <path d="M 422.984565 584.7 
L 714.115 584.7 
L 714.115 564.217333 
L 422.984565 564.217333 
z
" clip-path="url(#p106c7571dc)" style="fill: #ffffff"/>
   </g>
   <g id="patch_32">
    <path d="M 387.734238 584.7 
L 387.734238 584.481238 
L 393.5115 584.481238 
L 393.5115 584.7 
L 399.288762 584.7 
L 399.288762 584.7 
L 405.066023 584.7 
L 405.066023 584.7 
L 410.843285 584.7 
L 410.843285 584.371857 
L 416.620547 584.371857 
L 416.620547 584.481238 
L 422.397808 584.481238 
L 422.397808 584.481238 
L 428.17507 584.481238 
L 428.17507 584.7 
L 433.952332 584.7 
L 433.952332 584.7 
L 439.729593 584.7 
L 439.729593 584.481238 
L 445.506855 584.481238 
L 445.506855 584.153095 
L 451.284117 584.153095 
L 451.284117 584.7 
L 457.061378 584.7 
L 457.061378 583.934333 
L 462.83864 583.934333 
L 462.83864 584.7 
L 468.615902 584.7 
L 468.615902 583.715571 
L 474.393163 583.715571 
L 474.393163 582.402998 
L 480.170425 582.402998 
L 480.170425 583.496809 
L 485.947687 583.496809 
L 485.947687 582.949904 
L 491.724949 582.949904 
L 491.724949 582.074855 
L 497.50221 582.074855 
L 497.50221 582.402998 
L 503.279472 582.402998 
L 503.279472 580.981045 
L 509.056734 580.981045 
L 509.056734 581.52795 
L 514.833995 581.52795 
L 514.833995 580.324759 
L 520.611257 580.324759 
L 520.611257 577.808995 
L 526.388519 577.808995 
L 526.388519 576.058899 
L 532.16578 576.058899 
L 532.16578 571.464896 
L 537.943042 571.464896 
L 537.943042 568.839751 
L 543.720304 568.839751 
L 543.720304 557.792267 
L 549.497565 557.792267 
L 549.497565 546.854164 
L 555.274827 546.854164 
L 555.274827 518.74324 
L 561.052089 518.74324 
L 561.052089 497.851463 
L 566.82935 497.851463 
L 566.82935 472.146921 
L 572.606612 472.146921 
L 572.606612 501.461037 
L 578.383874 501.461037 
L 578.383874 526.509293 
L 584.161135 526.509293 
L 584.161135 552.213834 
L 589.938397 552.213834 
L 589.938397 568.949132 
L 595.715659 568.949132 
L 595.715659 578.246519 
L 601.49292 578.246519 
L 601.49292 582.512379 
L 607.270182 582.512379 
L 607.270182 583.387428 
L 613.047444 583.387428 
L 613.047444 584.481238 
L 618.824706 584.481238 
L 618.824706 584.7 
" clip-path="url(#p106c7571dc)" style="fill: #808080; fill-opacity: 0.15; stroke: #000000; stroke-width: 1.1; stroke-linejoin: miter"/>
   </g>
   <g id="patch_33">
    <path d="M 387.734238 584.7 
L 387.734238 584.566808 
L 393.898608 584.566808 
L 393.898608 584.7 
L 400.062979 584.7 
L 400.062979 584.7 
L 406.227349 584.7 
L 406.227349 584.500212 
L 412.391719 584.500212 
L 412.391719 584.7 
L 418.556089 584.7 
L 418.556089 584.566808 
L 424.720459 584.566808 
L 424.720459 584.566808 
L 430.884829 584.566808 
L 430.884829 584.7 
L 437.0492 584.7 
L 437.0492 584.7 
L 443.21357 584.7 
L 443.21357 584.300425 
L 449.37794 584.300425 
L 449.37794 584.367021 
L 455.54231 584.367021 
L 455.54231 584.233829 
L 461.70668 584.233829 
L 461.70668 584.7 
L 467.871051 584.7 
L 467.871051 583.967446 
L 474.035421 583.967446 
L 474.035421 583.234892 
L 480.199791 583.234892 
L 480.199791 583.90085 
L 486.364161 583.90085 
L 486.364161 583.434679 
L 492.528531 583.434679 
L 492.528531 582.169358 
L 498.692901 582.169358 
L 498.692901 582.835317 
L 504.857272 582.835317 
L 504.857272 582.036166 
L 511.021642 582.036166 
L 511.021642 581.969571 
L 517.186012 581.969571 
L 517.186012 580.238079 
L 523.350382 580.238079 
L 523.350382 577.241266 
L 529.514752 577.241266 
L 529.514752 575.376583 
L 535.679122 575.376583 
L 535.679122 571.247641 
L 541.843493 571.247641 
L 541.843493 564.721249 
L 548.007863 564.721249 
L 548.007863 551.202294 
L 554.172233 551.202294 
L 554.172233 525.4963 
L 560.336603 525.4963 
L 560.336603 496.194132 
L 566.500973 496.194132 
L 566.500973 472.019843 
L 572.665344 472.019843 
L 572.665344 496.393919 
L 578.829714 496.393919 
L 578.829714 526.761621 
L 584.994084 526.761621 
L 584.994084 555.730811 
L 591.158454 555.730811 
L 591.158454 570.78147 
L 597.322824 570.78147 
L 597.322824 579.505525 
L 603.487194 579.505525 
L 603.487194 583.1017 
L 609.651565 583.1017 
L 609.651565 583.701062 
L 615.815935 583.701062 
L 615.815935 584.367021 
L 621.980305 584.367021 
L 621.980305 584.7 
L 628.144675 584.7 
L 628.144675 584.500212 
L 634.309045 584.500212 
L 634.309045 584.7 
" clip-path="url(#p106c7571dc)" style="fill: none; stroke: #ff4126; stroke-width: 1.1; stroke-linejoin: miter"/>
   </g>
   <g id="matplotlib.axis_7">
    <g id="xtick_16">
     <g id="line2d_52">
      <g>
       <use xlink:href="#m039e71d4a9" x="436.217767" y="594.7" style="stroke: #000000; stroke-width: 1.5"/>
      </g>
     </g>
     <g id="text_52">
      <!-- −1.0 -->
      <g transform="translate(419.219798 614.837812) scale(0.14 -0.14)">
       <use xlink:href="#DejaVuSans-2212"/>
       <use xlink:href="#DejaVuSans-31" x="83.789062"/>
       <use xlink:href="#DejaVuSans-2e" x="147.412109"/>
       <use xlink:href="#DejaVuSans-30" x="179.199219"/>
      </g>
     </g>
    </g>
    <g id="xtick_17">
     <g id="line2d_53">
      <g>
       <use xlink:href="#m039e71d4a9" x="502.383775" y="594.7" style="stroke: #000000; stroke-width: 1.5"/>
      </g>
     </g>
     <g id="text_53">
      <!-- −0.5 -->
      <g transform="translate(485.385806 614.837812) scale(0.14 -0.14)">
       <use xlink:href="#DejaVuSans-2212"/>
       <use xlink:href="#DejaVuSans-30" x="83.789062"/>
       <use xlink:href="#DejaVuSans-2e" x="147.412109"/>
       <use xlink:href="#DejaVuSans-35" x="179.199219"/>
      </g>
     </g>
    </g>
    <g id="xtick_18">
     <g id="line2d_54">
      <g>
       <use xlink:href="#m039e71d4a9" x="568.549783" y="594.7" style="stroke: #000000; stroke-width: 1.5"/>
      </g>
     </g>
     <g id="text_54">
      <!-- 0.0 -->
      <g transform="translate(557.417595 614.837812) scale(0.14 -0.14)">
       <use xlink:href="#DejaVuSans-30"/>
       <use xlink:href="#DejaVuSans-2e" x="63.623047"/>
       <use xlink:href="#DejaVuSans-30" x="95.410156"/>
      </g>
     </g>
    </g>
    <g id="xtick_19">
     <g id="line2d_55">
      <g>
       <use xlink:href="#m039e71d4a9" x="634.715791" y="594.7" style="stroke: #000000; stroke-width: 1.5"/>
      </g>
     </g>
     <g id="text_55">
      <!-- 0.5 -->
      <g transform="translate(623.583603 614.837812) scale(0.14 -0.14)">
       <use xlink:href="#DejaVuSans-30"/>
       <use xlink:href="#DejaVuSans-2e" x="63.623047"/>
       <use xlink:href="#DejaVuSans-35" x="95.410156"/>
      </g>
     </g>
    </g>
    <g id="xtick_20">
     <g id="line2d_56">
      <g>
       <use xlink:href="#m039e71d4a9" x="700.881798" y="594.7" style="stroke: #000000; stroke-width: 1.5"/>
      </g>
     </g>
     <g id="text_56">
      <!-- 1.0 -->
      <g transform="translate(689.749611 614.837812) scale(0.14 -0.14)">
       <use xlink:href="#DejaVuSans-31"/>
       <use xlink:href="#DejaVuSans-2e" x="63.623047"/>
       <use xlink:href="#DejaVuSans-30" x="95.410156"/>
      </g>
     </g>
    </g>
    <g id="text_57">
     <!-- Fitness effect $(\Delta)$ -->
     <g transform="translate(500.389783 633.906875) scale(0.16 -0.16)">
      <use xlink:href="#DejaVuSans-46" transform="translate(0 0.015625)"/>
      <use xlink:href="#DejaVuSans-69" transform="translate(57.519531 0.015625)"/>
      <use xlink:href="#DejaVuSans-74" transform="translate(85.302734 0.015625)"/>
      <use xlink:href="#DejaVuSans-6e" transform="translate(124.511719 0.015625)"/>
      <use xlink:href="#DejaVuSans-65" transform="translate(187.890625 0.015625)"/>
      <use xlink:href="#DejaVuSans-73" transform="translate(249.414062 0.015625)"/>
      <use xlink:href="#DejaVuSans-73" transform="translate(301.513672 0.015625)"/>
      <use xlink:href="#DejaVuSans-20" transform="translate(353.613281 0.015625)"/>
      <use xlink:href="#DejaVuSans-65" transform="translate(385.400391 0.015625)"/>
      <use xlink:href="#DejaVuSans-66" transform="translate(446.923828 0.015625)"/>
      <use xlink:href="#DejaVuSans-66" transform="translate(482.128906 0.015625)"/>
      <use xlink:href="#DejaVuSans-65" transform="translate(517.333984 0.015625)"/>
      <use xlink:href="#DejaVuSans-63" transform="translate(578.857422 0.015625)"/>
      <use xlink:href="#DejaVuSans-74" transform="translate(633.837891 0.015625)"/>
      <use xlink:href="#DejaVuSans-20" transform="translate(673.046875 0.015625)"/>
      <use xlink:href="#DejaVuSans-28" transform="translate(704.833984 0.015625)"/>
      <use xlink:href="#DejaVuSans-394" transform="translate(743.847656 0.015625)"/>
      <use xlink:href="#DejaVuSans-29" transform="translate(812.255859 0.015625)"/>
     </g>
    </g>
    <g id="text_58">
     <!-- 1e−1 -->
     <g transform="translate(675.954063 631.387187) scale(0.14 -0.14)">
      <use xlink:href="#DejaVuSans-31"/>
      <use xlink:href="#DejaVuSans-65" x="63.623047"/>
      <use xlink:href="#DejaVuSans-2212" x="125.146484"/>
      <use xlink:href="#DejaVuSans-31" x="208.935547"/>
     </g>
    </g>
   </g>
   <g id="matplotlib.axis_8">
    <g id="ytick_16">
     <g id="line2d_57">
      <g>
       <use xlink:href="#m02d74d3af2" x="412.984565" y="584.7" style="stroke: #000000; stroke-width: 1.5"/>
      </g>
     </g>
     <g id="text_59">
      <!-- 0 -->
      <g transform="translate(394.577065 590.018906) scale(0.14 -0.14)">
       <use xlink:href="#DejaVuSans-30"/>
      </g>
     </g>
    </g>
    <g id="ytick_17">
     <g id="line2d_58">
      <g>
       <use xlink:href="#m02d74d3af2" x="412.984565" y="532.353348" style="stroke: #000000; stroke-width: 1.5"/>
      </g>
     </g>
     <g id="text_60">
      <!-- 20 -->
      <g transform="translate(385.669565 537.672254) scale(0.14 -0.14)">
       <use xlink:href="#DejaVuSans-32"/>
       <use xlink:href="#DejaVuSans-30" x="63.623047"/>
      </g>
     </g>
    </g>
    <g id="ytick_18">
     <g id="line2d_59">
      <g>
       <use xlink:href="#m02d74d3af2" x="412.984565" y="480.006695" style="stroke: #000000; stroke-width: 1.5"/>
      </g>
     </g>
     <g id="text_61">
      <!-- 40 -->
      <g transform="translate(385.669565 485.325602) scale(0.14 -0.14)">
       <use xlink:href="#DejaVuSans-34"/>
       <use xlink:href="#DejaVuSans-30" x="63.623047"/>
      </g>
     </g>
    </g>
    <g id="ytick_19">
     <g id="line2d_60">
      <g>
       <use xlink:href="#m02d74d3af2" x="412.984565" y="427.660043" style="stroke: #000000; stroke-width: 1.5"/>
      </g>
     </g>
     <g id="text_62">
      <!-- 60 -->
      <g transform="translate(385.669565 432.978949) scale(0.14 -0.14)">
       <use xlink:href="#DejaVuSans-36"/>
       <use xlink:href="#DejaVuSans-30" x="63.623047"/>
      </g>
     </g>
    </g>
    <g id="ytick_20">
     <g id="line2d_61">
      <g>
       <use xlink:href="#m02d74d3af2" x="412.984565" y="375.313391" style="stroke: #000000; stroke-width: 1.5"/>
      </g>
     </g>
     <g id="text_63">
      <!-- 80 -->
      <g transform="translate(385.669565 380.632297) scale(0.14 -0.14)">
       <use xlink:href="#DejaVuSans-38"/>
       <use xlink:href="#DejaVuSans-30" x="63.623047"/>
      </g>
     </g>
    </g>
   </g>
   <g id="line2d_62">
    <path d="M 437.541087 562.169066 
L 699.558478 562.169066 
" clip-path="url(#p106c7571dc)" style="fill: none; stroke-dasharray: 3.7,1.6; stroke-dashoffset: 0; stroke: #808080"/>
   </g>
   <g id="line2d_63">
    <path d="M 422.984565 586.662999 
L 437.541087 562.169066 
" clip-path="url(#p106c7571dc)" style="fill: none; stroke-dasharray: 3.7,1.6; stroke-dashoffset: 0; stroke: #808080"/>
   </g>
   <g id="line2d_64">
    <path d="M 714.115 586.662999 
L 699.558478 562.169066 
" clip-path="url(#p106c7571dc)" style="fill: none; stroke-dasharray: 3.7,1.6; stroke-dashoffset: 0; stroke: #808080"/>
   </g>
   <g id="line2d_65">
    <path d="M 495.767174 586.662999 
L 503.045435 562.169066 
" clip-path="url(#p106c7571dc)" style="fill: none; stroke-dasharray: 3.7,1.6; stroke-dashoffset: 0; stroke: #808080"/>
   </g>
   <g id="line2d_66">
    <path d="M 641.332391 586.662999 
L 634.05413 562.169066 
" clip-path="url(#p106c7571dc)" style="fill: none; stroke-dasharray: 3.7,1.6; stroke-dashoffset: 0; stroke: #808080"/>
   </g>
   <g id="line2d_67">
    <path d="M 568.549783 586.662999 
L 568.549783 562.169066 
" clip-path="url(#p106c7571dc)" style="fill: none; stroke-dasharray: 3.7,1.6; stroke-dashoffset: 0; stroke: #808080"/>
   </g>
   <g id="patch_34">
    <path d="M 412.984565 584.7 
L 412.984565 353.7 
" style="fill: none; stroke: #000000; stroke-width: 1.5; stroke-linejoin: miter; stroke-linecap: square"/>
   </g>
   <g id="patch_35">
    <path d="M 422.984565 594.7 
L 714.115 594.7 
" style="fill: none; stroke: #000000; stroke-width: 1.5; stroke-linejoin: miter; stroke-linecap: square"/>
   </g>
   <g id="text_64">
    <!-- $p_{KS} = 0.0022$ -->
    <g transform="translate(437.541087 374.34375) scale(0.12 -0.12)">
     <use xlink:href="#DejaVuSans-Oblique-70" transform="translate(0 0.78125)"/>
     <use xlink:href="#DejaVuSans-Oblique-4b" transform="translate(63.476562 -15.625) scale(0.7)"/>
     <use xlink:href="#DejaVuSans-Oblique-53" transform="translate(109.379883 -15.625) scale(0.7)"/>
     <use xlink:href="#DejaVuSans-3d" transform="translate(176.030273 0.78125)"/>
     <use xlink:href="#DejaVuSans-30" transform="translate(279.301758 0.78125)"/>
     <use xlink:href="#DejaVuSans-2e" transform="translate(342.924805 0.78125)"/>
     <use xlink:href="#DejaVuSans-30" transform="translate(374.711914 0.78125)"/>
     <use xlink:href="#DejaVuSans-30" transform="translate(438.334961 0.78125)"/>
     <use xlink:href="#DejaVuSans-32" transform="translate(501.958008 0.78125)"/>
     <use xlink:href="#DejaVuSans-32" transform="translate(565.581055 0.78125)"/>
    </g>
   </g>
   <g id="text_65">
    <!-- D -->
    <g transform="translate(393.871522 344.277187) scale(0.18 -0.18)">
     <defs>
      <path id="DejaVuSans-Bold-44" d="M 1791 3756 
L 1791 909 
L 2222 909 
Q 2959 909 3348 1275 
Q 3738 1641 3738 2338 
Q 3738 3031 3350 3393 
Q 2963 3756 2222 3756 
L 1791 3756 
z
M 588 4666 
L 1856 4666 
Q 2919 4666 3439 4514 
Q 3959 4363 4331 4000 
Q 4659 3684 4818 3271 
Q 4978 2859 4978 2338 
Q 4978 1809 4818 1395 
Q 4659 981 4331 666 
Q 3956 303 3431 151 
Q 2906 0 1856 0 
L 588 0 
L 588 4666 
z
" transform="scale(0.015625)"/>
     </defs>
     <use xlink:href="#DejaVuSans-Bold-44"/>
    </g>
   </g>
   <g id="legend_4">
    <g id="patch_36">
     <path d="M 626.6725 373.618125 
L 650.6725 373.618125 
L 650.6725 365.218125 
L 626.6725 365.218125 
z
" style="fill: #802f95; fill-opacity: 0.5; stroke: #000000; stroke-width: 1.1; stroke-linejoin: miter"/>
    </g>
    <g id="text_66">
     <!-- 15K -->
     <g transform="translate(660.2725 373.618125) scale(0.12 -0.12)">
      <use xlink:href="#DejaVuSans-31"/>
      <use xlink:href="#DejaVuSans-35" x="63.623047"/>
      <use xlink:href="#DejaVuSans-4b" x="127.246094"/>
     </g>
    </g>
    <g id="patch_37">
     <path d="M 626.6725 391.231875 
L 650.6725 391.231875 
L 650.6725 382.831875 
L 626.6725 382.831875 
z
" style="fill: #808080; fill-opacity: 0.15; stroke: #000000; stroke-width: 1.1; stroke-linejoin: miter"/>
    </g>
    <g id="text_67">
     <!-- 2K -->
     <g transform="translate(660.2725 391.231875) scale(0.12 -0.12)">
      <use xlink:href="#DejaVuSans-32"/>
      <use xlink:href="#DejaVuSans-4b" x="63.623047"/>
     </g>
    </g>
    <g id="line2d_68">
     <path d="M 626.6725 404.645625 
L 650.6725 404.645625 
" style="fill: none; stroke: #ff4126; stroke-width: 1.1; stroke-linecap: square"/>
    </g>
    <g id="text_68">
     <!-- DFE 2K -->
     <g transform="translate(660.2725 408.845625) scale(0.12 -0.12)">
      <use xlink:href="#DejaVuSans-44"/>
      <use xlink:href="#DejaVuSans-46" x="77.001953"/>
      <use xlink:href="#DejaVuSans-45" x="134.521484"/>
      <use xlink:href="#DejaVuSans-20" x="197.705078"/>
      <use xlink:href="#DejaVuSans-32" x="229.492188"/>
      <use xlink:href="#DejaVuSans-4b" x="293.115234"/>
     </g>
    </g>
   </g>
  </g>
 </g>
 <defs>
  <clipPath id="p32cc6deb64">
   <rect x="44.515" y="30.3" width="291.130435" height="231"/>
  </clipPath>
  <clipPath id="p8a7eba5a2d">
   <rect x="422.984565" y="30.3" width="291.130435" height="231"/>
  </clipPath>
  <clipPath id="p0edf8adf5c">
   <rect x="44.515" y="353.7" width="291.130435" height="231"/>
  </clipPath>
  <clipPath id="p106c7571dc">
   <rect x="422.984565" y="353.7" width="291.130435" height="231"/>
  </clipPath>
 </defs>
</svg>
