<?xml version="1.0" encoding="utf-8" standalone="no"?>
<!DOCTYPE svg PUBLIC "-//W3C//DTD SVG 1.1//EN"
  "http://www.w3.org/Graphics/SVG/1.1/DTD/svg11.dtd">
<svg xmlns:xlink="http://www.w3.org/1999/xlink" width="843.83125pt" height="553.744pt" viewBox="0 0 843.83125 553.744" xmlns="http://www.w3.org/2000/svg" version="1.1">
 <metadata>
  <rdf:RDF xmlns:dc="http://purl.org/dc/elements/1.1/" xmlns:cc="http://creativecommons.org/ns#" xmlns:rdf="http://www.w3.org/1999/02/22-rdf-syntax-ns#">
   <cc:Work>
    <dc:type rdf:resource="http://purl.org/dc/dcmitype/StillImage"/>
    <dc:date>2025-11-16T16:40:15.999354</dc:date>
    <dc:format>image/svg+xml</dc:format>
    <dc:creator>
     <cc:Agent>
      <dc:title>Matplotlib v3.9.2, https://matplotlib.org/</dc:title>
     </cc:Agent>
    </dc:creator>
   </cc:Work>
  </rdf:RDF>
 </metadata>
 <defs>
  <style type="text/css">*{stroke-linejoin: round; stroke-linecap: butt}</style>
 </defs>
 <g id="figure_1">
  <g id="patch_1">
   <path d="M 0 553.744 
L 843.83125 553.744 
L 843.83125 0 
L 0 0 
z
" style="fill: #ffffff"/>
  </g>
  <g id="axes_1">
   <g id="patch_2">
    <path d="M 53.4225 214.649625 
L 408.8175 214.649625 
L 408.8175 33.669625 
L 53.4225 33.669625 
z
" style="fill: #ffffff"/>
   </g>
   <g id="patch_3">
    <path d="M 84.572423 214.649625 
L 84.572423 196.89077 
L 93.409061 196.89077 
L 93.409061 197.332738 
L 102.245699 197.332738 
L 102.245699 197.332738 
L 111.082337 197.332738 
L 111.082337 197.332738 
L 119.918975 197.332738 
L 119.918975 196.89077 
L 128.755613 196.89077 
L 128.755613 196.743448 
L 137.592251 196.743448 
L 137.592251 196.743448 
L 146.428889 196.743448 
L 146.428889 195.712189 
L 155.265527 195.712189 
L 155.265527 195.122898 
L 164.102165 195.122898 
L 164.102165 194.828253 
L 172.938803 194.828253 
L 172.938803 193.796994 
L 181.775442 193.796994 
L 181.775442 190.850541 
L 190.61208 190.850541 
L 190.61208 187.462119 
L 199.448718 187.462119 
L 199.448718 182.01118 
L 208.285356 182.01118 
L 208.285356 170.520012 
L 217.121994 170.520012 
L 217.121994 134.425957 
L 225.958632 134.425957 
L 225.958632 113.211492 
L 234.79527 113.211492 
L 234.79527 165.511041 
L 243.631908 165.511041 
L 243.631908 188.198733 
L 252.468546 188.198733 
L 252.468546 193.944317 
L 261.305184 193.944317 
L 261.305184 214.649625 
" clip-path="url(#p146f43faf2)" style="fill: #802f95; fill-opacity: 0.75; stroke: #000000; stroke-width: 1.1; stroke-linejoin: miter"/>
   </g>
   <g id="patch_4">
    <path d="M 161.362604 214.649625 
L 161.362604 194.722608 
L 164.612109 194.722608 
L 164.612109 195.375141 
L 167.861614 195.375141 
L 167.861614 195.701407 
L 171.111119 195.701407 
L 171.111119 195.701407 
L 174.360624 195.701407 
L 174.360624 193.091277 
L 177.610129 193.091277 
L 177.610129 194.070076 
L 180.859634 194.070076 
L 180.859634 191.459946 
L 184.10914 191.459946 
L 184.10914 189.502349 
L 187.358645 189.502349 
L 187.358645 190.807414 
L 190.60815 190.807414 
L 190.60815 189.828615 
L 193.857655 189.828615 
L 193.857655 184.934622 
L 197.10716 184.934622 
L 197.10716 183.629557 
L 200.356665 183.629557 
L 200.356665 181.998226 
L 203.60617 181.998226 
L 203.60617 178.735564 
L 206.855675 178.735564 
L 206.855675 174.167837 
L 210.105181 174.167837 
L 210.105181 166.98998 
L 213.354686 166.98998 
L 213.354686 168.295045 
L 216.604191 168.295045 
L 216.604191 157.528259 
L 219.853696 157.528259 
L 219.853696 134.689624 
L 223.103201 134.689624 
L 223.103201 107.935793 
L 226.352706 107.935793 
L 226.352706 107.283261 
L 229.602211 107.283261 
L 229.602211 120.33391 
L 232.851716 120.33391 
L 232.851716 136.973487 
L 236.101221 136.973487 
L 236.101221 159.812123 
L 239.350727 159.812123 
L 239.350727 170.252642 
L 242.600232 170.252642 
L 242.600232 180.366895 
L 245.849737 180.366895 
L 245.849737 189.176083 
L 249.099242 189.176083 
L 249.099242 189.828615 
L 252.348747 189.828615 
L 252.348747 191.13368 
L 255.598252 191.13368 
L 255.598252 193.74381 
L 258.847757 193.74381 
L 258.847757 214.649625 
" clip-path="url(#p146f43faf2)" style="fill: none; stroke: #ff4126; stroke-width: 1.1; stroke-linejoin: miter"/>
   </g>
   <g id="patch_5">
    <path d="M 53.4225 214.649625 
L 408.8175 214.649625 
L 408.8175 197.332738 
L 53.4225 197.332738 
z
" clip-path="url(#p146f43faf2)" style="fill: #ffffff"/>
   </g>
   <g id="patch_6">
    <path d="M 55.23395 214.649625 
L 55.23395 214.215944 
L 64.249588 214.215944 
L 64.249588 214.649625 
L 73.265226 214.649625 
L 73.265226 214.649625 
L 82.280864 214.649625 
L 82.280864 214.649625 
L 91.296503 214.649625 
L 91.296503 214.649625 
L 100.312141 214.649625 
L 100.312141 214.649625 
L 109.327779 214.649625 
L 109.327779 214.649625 
L 118.343417 214.649625 
L 118.343417 214.649625 
L 127.359056 214.649625 
L 127.359056 214.215944 
L 136.374694 214.215944 
L 136.374694 212.914901 
L 145.390332 212.914901 
L 145.390332 213.493142 
L 154.40597 213.493142 
L 154.40597 212.914901 
L 163.421609 212.914901 
L 163.421609 212.914901 
L 172.437247 212.914901 
L 172.437247 213.493142 
L 181.452885 213.493142 
L 181.452885 211.469297 
L 190.468523 211.469297 
L 190.468523 209.445452 
L 199.484162 209.445452 
L 199.484162 206.698805 
L 208.4998 206.698805 
L 208.4998 196.868699 
L 217.515438 196.868699 
L 217.515438 157.98196 
L 226.531077 157.98196 
L 226.531077 57.223382 
L 235.546715 57.223382 
L 235.546715 214.649625 
" clip-path="url(#p146f43faf2)" style="fill: #808080; fill-opacity: 0.4; stroke: #000000; stroke-width: 1.1; stroke-linejoin: miter"/>
   </g>
   <g id="matplotlib.axis_1">
    <g id="xtick_1">
     <g id="line2d_1">
      <defs>
       <path id="m94a3a6e312" d="M 0 0 
L 0 6 
" style="stroke: #000000; stroke-width: 1.5"/>
      </defs>
      <g>
       <use xlink:href="#m94a3a6e312" x="53.4225" y="224.649625" style="stroke: #000000; stroke-width: 1.5"/>
      </g>
     </g>
     <g id="text_1">
      <!-- −6 -->
      <g transform="translate(43.102969 244.787437) scale(0.14 -0.14)">
       <defs>
        <path id="DejaVuSans-2212" d="M 678 2272 
L 4684 2272 
L 4684 1741 
L 678 1741 
L 678 2272 
z
" transform="scale(0.015625)"/>
        <path id="DejaVuSans-36" d="M 2113 2584 
Q 1688 2584 1439 2293 
Q 1191 2003 1191 1497 
Q 1191 994 1439 701 
Q 1688 409 2113 409 
Q 2538 409 2786 701 
Q 3034 994 3034 1497 
Q 3034 2003 2786 2293 
Q 2538 2584 2113 2584 
z
M 3366 4563 
L 3366 3988 
Q 3128 4100 2886 4159 
Q 2644 4219 2406 4219 
Q 1781 4219 1451 3797 
Q 1122 3375 1075 2522 
Q 1259 2794 1537 2939 
Q 1816 3084 2150 3084 
Q 2853 3084 3261 2657 
Q 3669 2231 3669 1497 
Q 3669 778 3244 343 
Q 2819 -91 2113 -91 
Q 1303 -91 875 529 
Q 447 1150 447 2328 
Q 447 3434 972 4092 
Q 1497 4750 2381 4750 
Q 2619 4750 2861 4703 
Q 3103 4656 3366 4563 
z
" transform="scale(0.015625)"/>
       </defs>
       <use xlink:href="#DejaVuSans-2212"/>
       <use xlink:href="#DejaVuSans-36" x="83.789062"/>
      </g>
     </g>
    </g>
    <g id="xtick_2">
     <g id="line2d_2">
      <g>
       <use xlink:href="#m94a3a6e312" x="112.655" y="224.649625" style="stroke: #000000; stroke-width: 1.5"/>
      </g>
     </g>
     <g id="text_2">
      <!-- −4 -->
      <g transform="translate(102.335469 244.787437) scale(0.14 -0.14)">
       <defs>
        <path id="DejaVuSans-34" d="M 2419 4116 
L 825 1625 
L 2419 1625 
L 2419 4116 
z
M 2253 4666 
L 3047 4666 
L 3047 1625 
L 3713 1625 
L 3713 1100 
L 3047 1100 
L 3047 0 
L 2419 0 
L 2419 1100 
L 313 1100 
L 313 1709 
L 2253 4666 
z
" transform="scale(0.015625)"/>
       </defs>
       <use xlink:href="#DejaVuSans-2212"/>
       <use xlink:href="#DejaVuSans-34" x="83.789062"/>
      </g>
     </g>
    </g>
    <g id="xtick_3">
     <g id="line2d_3">
      <g>
       <use xlink:href="#m94a3a6e312" x="171.8875" y="224.649625" style="stroke: #000000; stroke-width: 1.5"/>
      </g>
     </g>
     <g id="text_3">
      <!-- −2 -->
      <g transform="translate(161.567969 244.787437) scale(0.14 -0.14)">
       <defs>
        <path id="DejaVuSans-32" d="M 1228 531 
L 3431 531 
L 3431 0 
L 469 0 
L 469 531 
Q 828 903 1448 1529 
Q 2069 2156 2228 2338 
Q 2531 2678 2651 2914 
Q 2772 3150 2772 3378 
Q 2772 3750 2511 3984 
Q 2250 4219 1831 4219 
Q 1534 4219 1204 4116 
Q 875 4013 500 3803 
L 500 4441 
Q 881 4594 1212 4672 
Q 1544 4750 1819 4750 
Q 2544 4750 2975 4387 
Q 3406 4025 3406 3419 
Q 3406 3131 3298 2873 
Q 3191 2616 2906 2266 
Q 2828 2175 2409 1742 
Q 1991 1309 1228 531 
z
" transform="scale(0.015625)"/>
       </defs>
       <use xlink:href="#DejaVuSans-2212"/>
       <use xlink:href="#DejaVuSans-32" x="83.789062"/>
      </g>
     </g>
    </g>
    <g id="xtick_4">
     <g id="line2d_4">
      <g>
       <use xlink:href="#m94a3a6e312" x="231.12" y="224.649625" style="stroke: #000000; stroke-width: 1.5"/>
      </g>
     </g>
     <g id="text_4">
      <!-- 0 -->
      <g transform="translate(226.66625 244.787437) scale(0.14 -0.14)">
       <defs>
        <path id="DejaVuSans-30" d="M 2034 4250 
Q 1547 4250 1301 3770 
Q 1056 3291 1056 2328 
Q 1056 1369 1301 889 
Q 1547 409 2034 409 
Q 2525 409 2770 889 
Q 3016 1369 3016 2328 
Q 3016 3291 2770 3770 
Q 2525 4250 2034 4250 
z
M 2034 4750 
Q 2819 4750 3233 4129 
Q 3647 3509 3647 2328 
Q 3647 1150 3233 529 
Q 2819 -91 2034 -91 
Q 1250 -91 836 529 
Q 422 1150 422 2328 
Q 422 3509 836 4129 
Q 1250 4750 2034 4750 
z
" transform="scale(0.015625)"/>
       </defs>
       <use xlink:href="#DejaVuSans-30"/>
      </g>
     </g>
    </g>
    <g id="xtick_5">
     <g id="line2d_5">
      <g>
       <use xlink:href="#m94a3a6e312" x="290.3525" y="224.649625" style="stroke: #000000; stroke-width: 1.5"/>
      </g>
     </g>
     <g id="text_5">
      <!-- 2 -->
      <g transform="translate(285.89875 244.787437) scale(0.14 -0.14)">
       <use xlink:href="#DejaVuSans-32"/>
      </g>
     </g>
    </g>
    <g id="xtick_6">
     <g id="line2d_6">
      <g>
       <use xlink:href="#m94a3a6e312" x="349.585" y="224.649625" style="stroke: #000000; stroke-width: 1.5"/>
      </g>
     </g>
     <g id="text_6">
      <!-- 4 -->
      <g transform="translate(345.13125 244.787437) scale(0.14 -0.14)">
       <use xlink:href="#DejaVuSans-34"/>
      </g>
     </g>
    </g>
    <g id="xtick_7">
     <g id="line2d_7">
      <g>
       <use xlink:href="#m94a3a6e312" x="408.8175" y="224.649625" style="stroke: #000000; stroke-width: 1.5"/>
      </g>
     </g>
     <g id="text_7">
      <!-- 6 -->
      <g transform="translate(404.36375 244.787437) scale(0.14 -0.14)">
       <use xlink:href="#DejaVuSans-36"/>
      </g>
     </g>
    </g>
    <g id="text_8">
     <!-- Fitness effect $(\Delta)$ -->
     <g transform="translate(162.96 263.8565) scale(0.16 -0.16)">
      <defs>
       <path id="DejaVuSans-46" d="M 628 4666 
L 3309 4666 
L 3309 4134 
L 1259 4134 
L 1259 2759 
L 3109 2759 
L 3109 2228 
L 1259 2228 
L 1259 0 
L 628 0 
L 628 4666 
z
" transform="scale(0.015625)"/>
       <path id="DejaVuSans-69" d="M 603 3500 
L 1178 3500 
L 1178 0 
L 603 0 
L 603 3500 
z
M 603 4863 
L 1178 4863 
L 1178 4134 
L 603 4134 
L 603 4863 
z
" transform="scale(0.015625)"/>
       <path id="DejaVuSans-74" d="M 1172 4494 
L 1172 3500 
L 2356 3500 
L 2356 3053 
L 1172 3053 
L 1172 1153 
Q 1172 725 1289 603 
Q 1406 481 1766 481 
L 2356 481 
L 2356 0 
L 1766 0 
Q 1100 0 847 248 
Q 594 497 594 1153 
L 594 3053 
L 172 3053 
L 172 3500 
L 594 3500 
L 594 4494 
L 1172 4494 
z
" transform="scale(0.015625)"/>
       <path id="DejaVuSans-6e" d="M 3513 2113 
L 3513 0 
L 2938 0 
L 2938 2094 
Q 2938 2591 2744 2837 
Q 2550 3084 2163 3084 
Q 1697 3084 1428 2787 
Q 1159 2491 1159 1978 
L 1159 0 
L 581 0 
L 581 3500 
L 1159 3500 
L 1159 2956 
Q 1366 3272 1645 3428 
Q 1925 3584 2291 3584 
Q 2894 3584 3203 3211 
Q 3513 2838 3513 2113 
z
" transform="scale(0.015625)"/>
       <path id="DejaVuSans-65" d="M 3597 1894 
L 3597 1613 
L 953 1613 
Q 991 1019 1311 708 
Q 1631 397 2203 397 
Q 2534 397 2845 478 
Q 3156 559 3463 722 
L 3463 178 
Q 3153 47 2828 -22 
Q 2503 -91 2169 -91 
Q 1331 -91 842 396 
Q 353 884 353 1716 
Q 353 2575 817 3079 
Q 1281 3584 2069 3584 
Q 2775 3584 3186 3129 
Q 3597 2675 3597 1894 
z
M 3022 2063 
Q 3016 2534 2758 2815 
Q 2500 3097 2075 3097 
Q 1594 3097 1305 2825 
Q 1016 2553 972 2059 
L 3022 2063 
z
" transform="scale(0.015625)"/>
       <path id="DejaVuSans-73" d="M 2834 3397 
L 2834 2853 
Q 2591 2978 2328 3040 
Q 2066 3103 1784 3103 
Q 1356 3103 1142 2972 
Q 928 2841 928 2578 
Q 928 2378 1081 2264 
Q 1234 2150 1697 2047 
L 1894 2003 
Q 2506 1872 2764 1633 
Q 3022 1394 3022 966 
Q 3022 478 2636 193 
Q 2250 -91 1575 -91 
Q 1294 -91 989 -36 
Q 684 19 347 128 
L 347 722 
Q 666 556 975 473 
Q 1284 391 1588 391 
Q 1994 391 2212 530 
Q 2431 669 2431 922 
Q 2431 1156 2273 1281 
Q 2116 1406 1581 1522 
L 1381 1569 
Q 847 1681 609 1914 
Q 372 2147 372 2553 
Q 372 3047 722 3315 
Q 1072 3584 1716 3584 
Q 2034 3584 2315 3537 
Q 2597 3491 2834 3397 
z
" transform="scale(0.015625)"/>
       <path id="DejaVuSans-20" transform="scale(0.015625)"/>
       <path id="DejaVuSans-66" d="M 2375 4863 
L 2375 4384 
L 1825 4384 
Q 1516 4384 1395 4259 
Q 1275 4134 1275 3809 
L 1275 3500 
L 2222 3500 
L 2222 3053 
L 1275 3053 
L 1275 0 
L 697 0 
L 697 3053 
L 147 3053 
L 147 3500 
L 697 3500 
L 697 3744 
Q 697 4328 969 4595 
Q 1241 4863 1831 4863 
L 2375 4863 
z
" transform="scale(0.015625)"/>
       <path id="DejaVuSans-63" d="M 3122 3366 
L 3122 2828 
Q 2878 2963 2633 3030 
Q 2388 3097 2138 3097 
Q 1578 3097 1268 2742 
Q 959 2388 959 1747 
Q 959 1106 1268 751 
Q 1578 397 2138 397 
Q 2388 397 2633 464 
Q 2878 531 3122 666 
L 3122 134 
Q 2881 22 2623 -34 
Q 2366 -91 2075 -91 
Q 1284 -91 818 406 
Q 353 903 353 1747 
Q 353 2603 823 3093 
Q 1294 3584 2113 3584 
Q 2378 3584 2631 3529 
Q 2884 3475 3122 3366 
z
" transform="scale(0.015625)"/>
       <path id="DejaVuSans-28" d="M 1984 4856 
Q 1566 4138 1362 3434 
Q 1159 2731 1159 2009 
Q 1159 1288 1364 580 
Q 1569 -128 1984 -844 
L 1484 -844 
Q 1016 -109 783 600 
Q 550 1309 550 2009 
Q 550 2706 781 3412 
Q 1013 4119 1484 4856 
L 1984 4856 
z
" transform="scale(0.015625)"/>
       <path id="DejaVuSans-394" d="M 2188 4044 
L 906 525 
L 3472 525 
L 2188 4044 
z
M 50 0 
L 1831 4666 
L 2547 4666 
L 4325 0 
L 50 0 
z
" transform="scale(0.015625)"/>
       <path id="DejaVuSans-29" d="M 513 4856 
L 1013 4856 
Q 1481 4119 1714 3412 
Q 1947 2706 1947 2009 
Q 1947 1309 1714 600 
Q 1481 -109 1013 -844 
L 513 -844 
Q 928 -128 1133 580 
Q 1338 1288 1338 2009 
Q 1338 2731 1133 3434 
Q 928 4138 513 4856 
z
" transform="scale(0.015625)"/>
      </defs>
      <use xlink:href="#DejaVuSans-46" transform="translate(0 0.015625)"/>
      <use xlink:href="#DejaVuSans-69" transform="translate(57.519531 0.015625)"/>
      <use xlink:href="#DejaVuSans-74" transform="translate(85.302734 0.015625)"/>
      <use xlink:href="#DejaVuSans-6e" transform="translate(124.511719 0.015625)"/>
      <use xlink:href="#DejaVuSans-65" transform="translate(187.890625 0.015625)"/>
      <use xlink:href="#DejaVuSans-73" transform="translate(249.414062 0.015625)"/>
      <use xlink:href="#DejaVuSans-73" transform="translate(301.513672 0.015625)"/>
      <use xlink:href="#DejaVuSans-20" transform="translate(353.613281 0.015625)"/>
      <use xlink:href="#DejaVuSans-65" transform="translate(385.400391 0.015625)"/>
      <use xlink:href="#DejaVuSans-66" transform="translate(446.923828 0.015625)"/>
      <use xlink:href="#DejaVuSans-66" transform="translate(482.128906 0.015625)"/>
      <use xlink:href="#DejaVuSans-65" transform="translate(517.333984 0.015625)"/>
      <use xlink:href="#DejaVuSans-63" transform="translate(578.857422 0.015625)"/>
      <use xlink:href="#DejaVuSans-74" transform="translate(633.837891 0.015625)"/>
      <use xlink:href="#DejaVuSans-20" transform="translate(673.046875 0.015625)"/>
      <use xlink:href="#DejaVuSans-28" transform="translate(704.833984 0.015625)"/>
      <use xlink:href="#DejaVuSans-394" transform="translate(743.847656 0.015625)"/>
      <use xlink:href="#DejaVuSans-29" transform="translate(812.255859 0.015625)"/>
     </g>
    </g>
    <g id="text_9">
     <!-- 1e−2 -->
     <g transform="translate(370.656562 261.336812) scale(0.14 -0.14)">
      <defs>
       <path id="DejaVuSans-31" d="M 794 531 
L 1825 531 
L 1825 4091 
L 703 3866 
L 703 4441 
L 1819 4666 
L 2450 4666 
L 2450 531 
L 3481 531 
L 3481 0 
L 794 0 
L 794 531 
z
" transform="scale(0.015625)"/>
      </defs>
      <use xlink:href="#DejaVuSans-31"/>
      <use xlink:href="#DejaVuSans-65" x="63.623047"/>
      <use xlink:href="#DejaVuSans-2212" x="125.146484"/>
      <use xlink:href="#DejaVuSans-32" x="208.935547"/>
     </g>
    </g>
   </g>
   <g id="matplotlib.axis_2">
    <g id="ytick_1">
     <g id="line2d_8">
      <defs>
       <path id="m68d7b2bd31" d="M 0 0 
L -6 0 
" style="stroke: #000000; stroke-width: 1.5"/>
      </defs>
      <g>
       <use xlink:href="#m68d7b2bd31" x="43.4225" y="214.649625" style="stroke: #000000; stroke-width: 1.5"/>
      </g>
     </g>
     <g id="text_10">
      <!-- 0 -->
      <g transform="translate(25.015 219.968531) scale(0.14 -0.14)">
       <use xlink:href="#DejaVuSans-30"/>
      </g>
     </g>
    </g>
    <g id="ytick_2">
     <g id="line2d_9">
      <g>
       <use xlink:href="#m68d7b2bd31" x="43.4225" y="175.593961" style="stroke: #000000; stroke-width: 1.5"/>
      </g>
     </g>
     <g id="text_11">
      <!-- 50 -->
      <g transform="translate(16.1075 180.912867) scale(0.14 -0.14)">
       <defs>
        <path id="DejaVuSans-35" d="M 691 4666 
L 3169 4666 
L 3169 4134 
L 1269 4134 
L 1269 2991 
Q 1406 3038 1543 3061 
Q 1681 3084 1819 3084 
Q 2600 3084 3056 2656 
Q 3513 2228 3513 1497 
Q 3513 744 3044 326 
Q 2575 -91 1722 -91 
Q 1428 -91 1123 -41 
Q 819 9 494 109 
L 494 744 
Q 775 591 1075 516 
Q 1375 441 1709 441 
Q 2250 441 2565 725 
Q 2881 1009 2881 1497 
Q 2881 1984 2565 2268 
Q 2250 2553 1709 2553 
Q 1456 2553 1204 2497 
Q 953 2441 691 2322 
L 691 4666 
z
" transform="scale(0.015625)"/>
       </defs>
       <use xlink:href="#DejaVuSans-35"/>
       <use xlink:href="#DejaVuSans-30" x="63.623047"/>
      </g>
     </g>
    </g>
    <g id="ytick_3">
     <g id="line2d_10">
      <g>
       <use xlink:href="#m68d7b2bd31" x="43.4225" y="136.538297" style="stroke: #000000; stroke-width: 1.5"/>
      </g>
     </g>
     <g id="text_12">
      <!-- 100 -->
      <g transform="translate(7.2 141.857204) scale(0.14 -0.14)">
       <use xlink:href="#DejaVuSans-31"/>
       <use xlink:href="#DejaVuSans-30" x="63.623047"/>
       <use xlink:href="#DejaVuSans-30" x="127.246094"/>
      </g>
     </g>
    </g>
    <g id="ytick_4">
     <g id="line2d_11">
      <g>
       <use xlink:href="#m68d7b2bd31" x="43.4225" y="97.482634" style="stroke: #000000; stroke-width: 1.5"/>
      </g>
     </g>
     <g id="text_13">
      <!-- 150 -->
      <g transform="translate(7.2 102.80154) scale(0.14 -0.14)">
       <use xlink:href="#DejaVuSans-31"/>
       <use xlink:href="#DejaVuSans-35" x="63.623047"/>
       <use xlink:href="#DejaVuSans-30" x="127.246094"/>
      </g>
     </g>
    </g>
    <g id="ytick_5">
     <g id="line2d_12">
      <g>
       <use xlink:href="#m68d7b2bd31" x="43.4225" y="58.42697" style="stroke: #000000; stroke-width: 1.5"/>
      </g>
     </g>
     <g id="text_14">
      <!-- 200 -->
      <g transform="translate(7.2 63.745876) scale(0.14 -0.14)">
       <use xlink:href="#DejaVuSans-32"/>
       <use xlink:href="#DejaVuSans-30" x="63.623047"/>
       <use xlink:href="#DejaVuSans-30" x="127.246094"/>
      </g>
     </g>
    </g>
   </g>
   <g id="line2d_13">
    <path d="M 71.19225 195.60105 
L 391.04775 195.60105 
" clip-path="url(#p146f43faf2)" style="fill: none; stroke-dasharray: 3.7,1.6; stroke-dashoffset: 0; stroke: #808080"/>
   </g>
   <g id="line2d_14">
    <path d="M 53.4225 215.23546 
L 71.19225 195.60105 
" clip-path="url(#p146f43faf2)" style="fill: none; stroke-dasharray: 3.7,1.6; stroke-dashoffset: 0; stroke: #808080"/>
   </g>
   <g id="line2d_15">
    <path d="M 408.8175 215.23546 
L 391.04775 195.60105 
" clip-path="url(#p146f43faf2)" style="fill: none; stroke-dasharray: 3.7,1.6; stroke-dashoffset: 0; stroke: #808080"/>
   </g>
   <g id="line2d_16">
    <path d="M 142.27125 215.23546 
L 151.156125 195.60105 
" clip-path="url(#p146f43faf2)" style="fill: none; stroke-dasharray: 3.7,1.6; stroke-dashoffset: 0; stroke: #808080"/>
   </g>
   <g id="line2d_17">
    <path d="M 319.96875 215.23546 
L 311.083875 195.60105 
" clip-path="url(#p146f43faf2)" style="fill: none; stroke-dasharray: 3.7,1.6; stroke-dashoffset: 0; stroke: #808080"/>
   </g>
   <g id="line2d_18">
    <path d="M 231.12 215.23546 
L 231.12 195.60105 
" clip-path="url(#p146f43faf2)" style="fill: none; stroke-dasharray: 3.7,1.6; stroke-dashoffset: 0; stroke: #808080"/>
   </g>
   <g id="patch_7">
    <path d="M 43.4225 214.649625 
L 43.4225 33.669625 
" style="fill: none; stroke: #000000; stroke-width: 1.5; stroke-linejoin: miter; stroke-linecap: square"/>
   </g>
   <g id="patch_8">
    <path d="M 53.4225 224.649625 
L 408.8175 224.649625 
" style="fill: none; stroke: #000000; stroke-width: 1.5; stroke-linejoin: miter; stroke-linecap: square"/>
   </g>
   <g id="text_15">
    <!-- A -->
    <g transform="translate(17.883 20.877187) scale(0.18 -0.18)">
     <defs>
      <path id="DejaVuSans-Bold-41" d="M 3419 850 
L 1538 850 
L 1241 0 
L 31 0 
L 1759 4666 
L 3194 4666 
L 4922 0 
L 3713 0 
L 3419 850 
z
M 1838 1716 
L 3116 1716 
L 2478 3572 
L 1838 1716 
z
" transform="scale(0.015625)"/>
     </defs>
     <use xlink:href="#DejaVuSans-Bold-41"/>
    </g>
   </g>
   <g id="text_16">
    <!-- $p_{KS} = 0.82$ -->
    <g transform="translate(71.19225 51.812375) scale(0.12 -0.12)">
     <defs>
      <path id="DejaVuSans-Oblique-70" d="M 3175 2156 
Q 3175 2616 2975 2859 
Q 2775 3103 2400 3103 
Q 2144 3103 1911 2972 
Q 1678 2841 1497 2591 
Q 1319 2344 1212 1994 
Q 1106 1644 1106 1300 
Q 1106 863 1306 627 
Q 1506 391 1875 391 
Q 2147 391 2380 519 
Q 2613 647 2778 891 
Q 2956 1147 3065 1494 
Q 3175 1841 3175 2156 
z
M 1394 2969 
Q 1625 3272 1939 3428 
Q 2253 3584 2638 3584 
Q 3175 3584 3472 3232 
Q 3769 2881 3769 2247 
Q 3769 1728 3584 1258 
Q 3400 788 3053 416 
Q 2822 169 2531 39 
Q 2241 -91 1919 -91 
Q 1547 -91 1294 64 
Q 1041 219 916 525 
L 556 -1331 
L -19 -1331 
L 922 3500 
L 1497 3500 
L 1394 2969 
z
" transform="scale(0.015625)"/>
      <path id="DejaVuSans-Oblique-4b" d="M 1081 4666 
L 1716 4666 
L 1331 2700 
L 3781 4666 
L 4622 4666 
L 1850 2438 
L 3878 0 
L 3109 0 
L 1247 2272 
L 806 0 
L 172 0 
L 1081 4666 
z
" transform="scale(0.015625)"/>
      <path id="DejaVuSans-Oblique-53" d="M 3859 4513 
L 3738 3897 
Q 3422 4066 3111 4152 
Q 2800 4238 2509 4238 
Q 1944 4238 1609 3991 
Q 1275 3744 1275 3334 
Q 1275 3109 1398 2989 
Q 1522 2869 2034 2731 
L 2413 2638 
Q 3053 2472 3303 2217 
Q 3553 1963 3553 1503 
Q 3553 797 2998 353 
Q 2444 -91 1538 -91 
Q 1166 -91 791 -17 
Q 416 56 38 206 
L 166 856 
Q 513 641 861 531 
Q 1209 422 1556 422 
Q 2147 422 2503 684 
Q 2859 947 2859 1369 
Q 2859 1650 2717 1795 
Q 2575 1941 2106 2059 
L 1728 2156 
Q 1081 2325 845 2545 
Q 609 2766 609 3163 
Q 609 3859 1145 4304 
Q 1681 4750 2541 4750 
Q 2875 4750 3203 4690 
Q 3531 4631 3859 4513 
z
" transform="scale(0.015625)"/>
      <path id="DejaVuSans-3d" d="M 678 2906 
L 4684 2906 
L 4684 2381 
L 678 2381 
L 678 2906 
z
M 678 1631 
L 4684 1631 
L 4684 1100 
L 678 1100 
L 678 1631 
z
" transform="scale(0.015625)"/>
      <path id="DejaVuSans-2e" d="M 684 794 
L 1344 794 
L 1344 0 
L 684 0 
L 684 794 
z
" transform="scale(0.015625)"/>
      <path id="DejaVuSans-38" d="M 2034 2216 
Q 1584 2216 1326 1975 
Q 1069 1734 1069 1313 
Q 1069 891 1326 650 
Q 1584 409 2034 409 
Q 2484 409 2743 651 
Q 3003 894 3003 1313 
Q 3003 1734 2745 1975 
Q 2488 2216 2034 2216 
z
M 1403 2484 
Q 997 2584 770 2862 
Q 544 3141 544 3541 
Q 544 4100 942 4425 
Q 1341 4750 2034 4750 
Q 2731 4750 3128 4425 
Q 3525 4100 3525 3541 
Q 3525 3141 3298 2862 
Q 3072 2584 2669 2484 
Q 3125 2378 3379 2068 
Q 3634 1759 3634 1313 
Q 3634 634 3220 271 
Q 2806 -91 2034 -91 
Q 1263 -91 848 271 
Q 434 634 434 1313 
Q 434 1759 690 2068 
Q 947 2378 1403 2484 
z
M 1172 3481 
Q 1172 3119 1398 2916 
Q 1625 2713 2034 2713 
Q 2441 2713 2670 2916 
Q 2900 3119 2900 3481 
Q 2900 3844 2670 4047 
Q 2441 4250 2034 4250 
Q 1625 4250 1398 4047 
Q 1172 3844 1172 3481 
z
" transform="scale(0.015625)"/>
     </defs>
     <use xlink:href="#DejaVuSans-Oblique-70" transform="translate(0 0.78125)"/>
     <use xlink:href="#DejaVuSans-Oblique-4b" transform="translate(63.476562 -15.625) scale(0.7)"/>
     <use xlink:href="#DejaVuSans-Oblique-53" transform="translate(109.379883 -15.625) scale(0.7)"/>
     <use xlink:href="#DejaVuSans-3d" transform="translate(176.030273 0.78125)"/>
     <use xlink:href="#DejaVuSans-30" transform="translate(279.301758 0.78125)"/>
     <use xlink:href="#DejaVuSans-2e" transform="translate(342.924805 0.78125)"/>
     <use xlink:href="#DejaVuSans-38" transform="translate(372.086914 0.78125)"/>
     <use xlink:href="#DejaVuSans-32" transform="translate(435.709961 0.78125)"/>
    </g>
   </g>
   <g id="legend_1">
    <g id="patch_9">
     <path d="M 311.390625 53.58775 
L 335.390625 53.58775 
L 335.390625 45.18775 
L 311.390625 45.18775 
z
" style="fill: #802f95; fill-opacity: 0.75; stroke: #000000; stroke-width: 1.1; stroke-linejoin: miter"/>
    </g>
    <g id="text_17">
     <!-- Evolved -->
     <g transform="translate(344.990625 53.58775) scale(0.12 -0.12)">
      <defs>
       <path id="DejaVuSans-45" d="M 628 4666 
L 3578 4666 
L 3578 4134 
L 1259 4134 
L 1259 2753 
L 3481 2753 
L 3481 2222 
L 1259 2222 
L 1259 531 
L 3634 531 
L 3634 0 
L 628 0 
L 628 4666 
z
" transform="scale(0.015625)"/>
       <path id="DejaVuSans-76" d="M 191 3500 
L 800 3500 
L 1894 563 
L 2988 3500 
L 3597 3500 
L 2284 0 
L 1503 0 
L 191 3500 
z
" transform="scale(0.015625)"/>
       <path id="DejaVuSans-6f" d="M 1959 3097 
Q 1497 3097 1228 2736 
Q 959 2375 959 1747 
Q 959 1119 1226 758 
Q 1494 397 1959 397 
Q 2419 397 2687 759 
Q 2956 1122 2956 1747 
Q 2956 2369 2687 2733 
Q 2419 3097 1959 3097 
z
M 1959 3584 
Q 2709 3584 3137 3096 
Q 3566 2609 3566 1747 
Q 3566 888 3137 398 
Q 2709 -91 1959 -91 
Q 1206 -91 779 398 
Q 353 888 353 1747 
Q 353 2609 779 3096 
Q 1206 3584 1959 3584 
z
" transform="scale(0.015625)"/>
       <path id="DejaVuSans-6c" d="M 603 4863 
L 1178 4863 
L 1178 0 
L 603 0 
L 603 4863 
z
" transform="scale(0.015625)"/>
       <path id="DejaVuSans-64" d="M 2906 2969 
L 2906 4863 
L 3481 4863 
L 3481 0 
L 2906 0 
L 2906 525 
Q 2725 213 2448 61 
Q 2172 -91 1784 -91 
Q 1150 -91 751 415 
Q 353 922 353 1747 
Q 353 2572 751 3078 
Q 1150 3584 1784 3584 
Q 2172 3584 2448 3432 
Q 2725 3281 2906 2969 
z
M 947 1747 
Q 947 1113 1208 752 
Q 1469 391 1925 391 
Q 2381 391 2643 752 
Q 2906 1113 2906 1747 
Q 2906 2381 2643 2742 
Q 2381 3103 1925 3103 
Q 1469 3103 1208 2742 
Q 947 2381 947 1747 
z
" transform="scale(0.015625)"/>
      </defs>
      <use xlink:href="#DejaVuSans-45"/>
      <use xlink:href="#DejaVuSans-76" x="63.183594"/>
      <use xlink:href="#DejaVuSans-6f" x="122.363281"/>
      <use xlink:href="#DejaVuSans-6c" x="183.544922"/>
      <use xlink:href="#DejaVuSans-76" x="211.328125"/>
      <use xlink:href="#DejaVuSans-65" x="270.507812"/>
      <use xlink:href="#DejaVuSans-64" x="332.03125"/>
     </g>
    </g>
    <g id="line2d_19">
     <path d="M 311.390625 67.0015 
L 335.390625 67.0015 
" style="fill: none; stroke: #ff4126; stroke-width: 1.1; stroke-linecap: square"/>
    </g>
    <g id="text_18">
     <!-- DFE Evo -->
     <g transform="translate(344.990625 71.2015) scale(0.12 -0.12)">
      <defs>
       <path id="DejaVuSans-44" d="M 1259 4147 
L 1259 519 
L 2022 519 
Q 2988 519 3436 956 
Q 3884 1394 3884 2338 
Q 3884 3275 3436 3711 
Q 2988 4147 2022 4147 
L 1259 4147 
z
M 628 4666 
L 1925 4666 
Q 3281 4666 3915 4102 
Q 4550 3538 4550 2338 
Q 4550 1131 3912 565 
Q 3275 0 1925 0 
L 628 0 
L 628 4666 
z
" transform="scale(0.015625)"/>
      </defs>
      <use xlink:href="#DejaVuSans-44"/>
      <use xlink:href="#DejaVuSans-46" x="77.001953"/>
      <use xlink:href="#DejaVuSans-45" x="134.521484"/>
      <use xlink:href="#DejaVuSans-20" x="197.705078"/>
      <use xlink:href="#DejaVuSans-45" x="229.492188"/>
      <use xlink:href="#DejaVuSans-76" x="292.675781"/>
      <use xlink:href="#DejaVuSans-6f" x="351.855469"/>
     </g>
    </g>
    <g id="patch_10">
     <path d="M 311.390625 88.81525 
L 335.390625 88.81525 
L 335.390625 80.41525 
L 311.390625 80.41525 
z
" style="fill: #808080; fill-opacity: 0.4; stroke: #000000; stroke-width: 1.1; stroke-linejoin: miter"/>
    </g>
    <g id="text_19">
     <!-- Ancestor -->
     <g transform="translate(344.990625 88.81525) scale(0.12 -0.12)">
      <defs>
       <path id="DejaVuSans-41" d="M 2188 4044 
L 1331 1722 
L 3047 1722 
L 2188 4044 
z
M 1831 4666 
L 2547 4666 
L 4325 0 
L 3669 0 
L 3244 1197 
L 1141 1197 
L 716 0 
L 50 0 
L 1831 4666 
z
" transform="scale(0.015625)"/>
       <path id="DejaVuSans-72" d="M 2631 2963 
Q 2534 3019 2420 3045 
Q 2306 3072 2169 3072 
Q 1681 3072 1420 2755 
Q 1159 2438 1159 1844 
L 1159 0 
L 581 0 
L 581 3500 
L 1159 3500 
L 1159 2956 
Q 1341 3275 1631 3429 
Q 1922 3584 2338 3584 
Q 2397 3584 2469 3576 
Q 2541 3569 2628 3553 
L 2631 2963 
z
" transform="scale(0.015625)"/>
      </defs>
      <use xlink:href="#DejaVuSans-41"/>
      <use xlink:href="#DejaVuSans-6e" x="68.408203"/>
      <use xlink:href="#DejaVuSans-63" x="131.787109"/>
      <use xlink:href="#DejaVuSans-65" x="186.767578"/>
      <use xlink:href="#DejaVuSans-73" x="248.291016"/>
      <use xlink:href="#DejaVuSans-74" x="300.390625"/>
      <use xlink:href="#DejaVuSans-6f" x="339.599609"/>
      <use xlink:href="#DejaVuSans-72" x="400.78125"/>
     </g>
    </g>
   </g>
  </g>
  <g id="axes_2">
   <g id="patch_11">
    <path d="M 476.7825 214.649625 
L 832.1775 214.649625 
L 832.1775 33.669625 
L 476.7825 33.669625 
z
" style="fill: #ffffff"/>
   </g>
   <g id="patch_12">
    <path d="M 516.817298 214.649625 
L 516.817298 198.26391 
L 523.922075 198.26391 
L 523.922075 199.025031 
L 531.026853 199.025031 
L 531.026853 199.025031 
L 538.13163 199.025031 
L 538.13163 198.517617 
L 545.236408 198.517617 
L 545.236408 198.26391 
L 552.341185 198.26391 
L 552.341185 197.756496 
L 559.445963 197.756496 
L 559.445963 197.249082 
L 566.55074 197.249082 
L 566.55074 198.26391 
L 573.655518 198.26391 
L 573.655518 197.502789 
L 580.760295 197.502789 
L 580.760295 196.487961 
L 587.865073 196.487961 
L 587.865073 195.473132 
L 594.96985 195.473132 
L 594.96985 195.219425 
L 602.074628 195.219425 
L 602.074628 192.936062 
L 609.179405 192.936062 
L 609.179405 191.41382 
L 616.284183 191.41382 
L 616.284183 187.354508 
L 623.38896 187.354508 
L 623.38896 179.743297 
L 630.493738 179.743297 
L 630.493738 173.146914 
L 637.598515 173.146914 
L 637.598515 157.670786 
L 644.703293 157.670786 
L 644.703293 142.448365 
L 651.808071 142.448365 
L 651.808071 70.141863 
L 658.912848 70.141863 
L 658.912848 214.649625 
" clip-path="url(#p019d73e880)" style="fill: #802f95; fill-opacity: 0.75; stroke: #000000; stroke-width: 1.1; stroke-linejoin: miter"/>
   </g>
   <g id="patch_13">
    <path d="M 476.7825 214.649625 
L 832.1775 214.649625 
L 832.1775 199.025031 
L 476.7825 199.025031 
z
" clip-path="url(#p019d73e880)" style="fill: #ffffff"/>
   </g>
   <g id="patch_14">
    <path d="M 470.012402 214.649625 
L 470.012402 214.186662 
L 477.837201 214.186662 
L 477.837201 214.649625 
L 485.662 214.649625 
L 485.662 214.649625 
L 493.486799 214.649625 
L 493.486799 214.649625 
L 501.311598 214.649625 
L 501.311598 214.649625 
L 509.136398 214.649625 
L 509.136398 214.649625 
L 516.961197 214.649625 
L 516.961197 214.649625 
L 524.785996 214.649625 
L 524.785996 214.186662 
L 532.610795 214.186662 
L 532.610795 214.186662 
L 540.435594 214.186662 
L 540.435594 213.95518 
L 548.260393 213.95518 
L 548.260393 212.566291 
L 556.085192 212.566291 
L 556.085192 213.029254 
L 563.909992 213.029254 
L 563.909992 213.492217 
L 571.734791 213.492217 
L 571.734791 212.797773 
L 579.55959 212.797773 
L 579.55959 211.408884 
L 587.384389 211.408884 
L 587.384389 213.260736 
L 595.209188 213.260736 
L 595.209188 210.945921 
L 603.033987 210.945921 
L 603.033987 209.557032 
L 610.858787 209.557032 
L 610.858787 210.019995 
L 618.683586 210.019995 
L 618.683586 204.464439 
L 626.508385 204.464439 
L 626.508385 197.751475 
L 634.333184 197.751475 
L 634.333184 160.01999 
L 642.157983 160.01999 
L 642.157983 100.992206 
L 649.982782 100.992206 
L 649.982782 171.825546 
L 657.807582 171.825546 
L 657.807582 201.686661 
L 665.632381 201.686661 
L 665.632381 210.945921 
L 673.45718 210.945921 
L 673.45718 213.029254 
L 681.281979 213.029254 
L 681.281979 214.186662 
L 689.106778 214.186662 
L 689.106778 214.186662 
L 696.931577 214.186662 
L 696.931577 213.260736 
L 704.756376 213.260736 
L 704.756376 214.649625 
" clip-path="url(#p019d73e880)" style="fill: #808080; fill-opacity: 0.4; stroke: #000000; stroke-width: 1.1; stroke-linejoin: miter"/>
   </g>
   <g id="patch_15">
    <path d="M 551.609673 214.649625 
L 551.609673 213.597464 
L 556.477528 213.597464 
L 556.477528 214.649625 
L 561.345383 214.649625 
L 561.345383 213.597464 
L 566.213238 213.597464 
L 566.213238 214.649625 
L 571.081093 214.649625 
L 571.081093 213.597464 
L 575.948948 213.597464 
L 575.948948 214.649625 
L 580.816802 214.649625 
L 580.816802 213.387032 
L 585.684657 213.387032 
L 585.684657 213.597464 
L 590.552512 213.597464 
L 590.552512 214.018328 
L 595.420367 214.018328 
L 595.420367 212.545303 
L 600.288222 212.545303 
L 600.288222 212.545303 
L 605.156077 212.545303 
L 605.156077 210.651412 
L 610.023932 210.651412 
L 610.023932 211.072277 
L 614.891786 211.072277 
L 614.891786 209.178387 
L 619.759641 209.178387 
L 619.759641 204.969742 
L 624.627496 204.969742 
L 624.627496 201.602826 
L 629.495351 201.602826 
L 629.495351 194.237697 
L 634.363206 194.237697 
L 634.363206 172.773608 
L 639.231061 172.773608 
L 639.231061 123.322031 
L 644.098916 123.322031 
L 644.098916 72.607859 
L 648.96677 72.607859 
L 648.96677 148.363468 
L 653.834625 148.363468 
L 653.834625 189.608188 
L 658.70248 189.608188 
L 658.70248 201.602826 
L 663.570335 201.602826 
L 663.570335 208.757522 
L 668.43819 208.757522 
L 668.43819 211.072277 
L 673.306045 211.072277 
L 673.306045 212.124438 
L 678.1739 212.124438 
L 678.1739 214.649625 
L 683.041755 214.649625 
L 683.041755 214.649625 
L 687.909609 214.649625 
L 687.909609 214.649625 
L 692.777464 214.649625 
L 692.777464 213.597464 
L 697.645319 213.597464 
L 697.645319 214.649625 
" clip-path="url(#p019d73e880)" style="fill: none; stroke: #ff4126; stroke-width: 1.1; stroke-linejoin: miter"/>
   </g>
   <g id="matplotlib.axis_3">
    <g id="xtick_8">
     <g id="line2d_20">
      <g>
       <use xlink:href="#m94a3a6e312" x="476.7825" y="224.649625" style="stroke: #000000; stroke-width: 1.5"/>
      </g>
     </g>
     <g id="text_20">
      <!-- −6 -->
      <g transform="translate(466.462969 244.787437) scale(0.14 -0.14)">
       <use xlink:href="#DejaVuSans-2212"/>
       <use xlink:href="#DejaVuSans-36" x="83.789062"/>
      </g>
     </g>
    </g>
    <g id="xtick_9">
     <g id="line2d_21">
      <g>
       <use xlink:href="#m94a3a6e312" x="536.015" y="224.649625" style="stroke: #000000; stroke-width: 1.5"/>
      </g>
     </g>
     <g id="text_21">
      <!-- −4 -->
      <g transform="translate(525.695469 244.787437) scale(0.14 -0.14)">
       <use xlink:href="#DejaVuSans-2212"/>
       <use xlink:href="#DejaVuSans-34" x="83.789062"/>
      </g>
     </g>
    </g>
    <g id="xtick_10">
     <g id="line2d_22">
      <g>
       <use xlink:href="#m94a3a6e312" x="595.2475" y="224.649625" style="stroke: #000000; stroke-width: 1.5"/>
      </g>
     </g>
     <g id="text_22">
      <!-- −2 -->
      <g transform="translate(584.927969 244.787437) scale(0.14 -0.14)">
       <use xlink:href="#DejaVuSans-2212"/>
       <use xlink:href="#DejaVuSans-32" x="83.789062"/>
      </g>
     </g>
    </g>
    <g id="xtick_11">
     <g id="line2d_23">
      <g>
       <use xlink:href="#m94a3a6e312" x="654.48" y="224.649625" style="stroke: #000000; stroke-width: 1.5"/>
      </g>
     </g>
     <g id="text_23">
      <!-- 0 -->
      <g transform="translate(650.02625 244.787437) scale(0.14 -0.14)">
       <use xlink:href="#DejaVuSans-30"/>
      </g>
     </g>
    </g>
    <g id="xtick_12">
     <g id="line2d_24">
      <g>
       <use xlink:href="#m94a3a6e312" x="713.7125" y="224.649625" style="stroke: #000000; stroke-width: 1.5"/>
      </g>
     </g>
     <g id="text_24">
      <!-- 2 -->
      <g transform="translate(709.25875 244.787437) scale(0.14 -0.14)">
       <use xlink:href="#DejaVuSans-32"/>
      </g>
     </g>
    </g>
    <g id="xtick_13">
     <g id="line2d_25">
      <g>
       <use xlink:href="#m94a3a6e312" x="772.945" y="224.649625" style="stroke: #000000; stroke-width: 1.5"/>
      </g>
     </g>
     <g id="text_25">
      <!-- 4 -->
      <g transform="translate(768.49125 244.787437) scale(0.14 -0.14)">
       <use xlink:href="#DejaVuSans-34"/>
      </g>
     </g>
    </g>
    <g id="xtick_14">
     <g id="line2d_26">
      <g>
       <use xlink:href="#m94a3a6e312" x="832.1775" y="224.649625" style="stroke: #000000; stroke-width: 1.5"/>
      </g>
     </g>
     <g id="text_26">
      <!-- 6 -->
      <g transform="translate(827.72375 244.787437) scale(0.14 -0.14)">
       <use xlink:href="#DejaVuSans-36"/>
      </g>
     </g>
    </g>
    <g id="text_27">
     <!-- Fitness effect $(\Delta)$ -->
     <g transform="translate(586.32 263.8565) scale(0.16 -0.16)">
      <use xlink:href="#DejaVuSans-46" transform="translate(0 0.015625)"/>
      <use xlink:href="#DejaVuSans-69" transform="translate(57.519531 0.015625)"/>
      <use xlink:href="#DejaVuSans-74" transform="translate(85.302734 0.015625)"/>
      <use xlink:href="#DejaVuSans-6e" transform="translate(124.511719 0.015625)"/>
      <use xlink:href="#DejaVuSans-65" transform="translate(187.890625 0.015625)"/>
      <use xlink:href="#DejaVuSans-73" transform="translate(249.414062 0.015625)"/>
      <use xlink:href="#DejaVuSans-73" transform="translate(301.513672 0.015625)"/>
      <use xlink:href="#DejaVuSans-20" transform="translate(353.613281 0.015625)"/>
      <use xlink:href="#DejaVuSans-65" transform="translate(385.400391 0.015625)"/>
      <use xlink:href="#DejaVuSans-66" transform="translate(446.923828 0.015625)"/>
      <use xlink:href="#DejaVuSans-66" transform="translate(482.128906 0.015625)"/>
      <use xlink:href="#DejaVuSans-65" transform="translate(517.333984 0.015625)"/>
      <use xlink:href="#DejaVuSans-63" transform="translate(578.857422 0.015625)"/>
      <use xlink:href="#DejaVuSans-74" transform="translate(633.837891 0.015625)"/>
      <use xlink:href="#DejaVuSans-20" transform="translate(673.046875 0.015625)"/>
      <use xlink:href="#DejaVuSans-28" transform="translate(704.833984 0.015625)"/>
      <use xlink:href="#DejaVuSans-394" transform="translate(743.847656 0.015625)"/>
      <use xlink:href="#DejaVuSans-29" transform="translate(812.255859 0.015625)"/>
     </g>
    </g>
    <g id="text_28">
     <!-- 1e−2 -->
     <g transform="translate(794.016562 261.336812) scale(0.14 -0.14)">
      <use xlink:href="#DejaVuSans-31"/>
      <use xlink:href="#DejaVuSans-65" x="63.623047"/>
      <use xlink:href="#DejaVuSans-2212" x="125.146484"/>
      <use xlink:href="#DejaVuSans-32" x="208.935547"/>
     </g>
    </g>
   </g>
   <g id="matplotlib.axis_4">
    <g id="ytick_6">
     <g id="line2d_27">
      <g>
       <use xlink:href="#m68d7b2bd31" x="466.7825" y="214.649625" style="stroke: #000000; stroke-width: 1.5"/>
      </g>
     </g>
     <g id="text_29">
      <!-- 0 -->
      <g transform="translate(448.375 219.968531) scale(0.14 -0.14)">
       <use xlink:href="#DejaVuSans-30"/>
      </g>
     </g>
    </g>
    <g id="ytick_7">
     <g id="line2d_28">
      <g>
       <use xlink:href="#m68d7b2bd31" x="466.7825" y="176.914604" style="stroke: #000000; stroke-width: 1.5"/>
      </g>
     </g>
     <g id="text_30">
      <!-- 50 -->
      <g transform="translate(439.4675 182.23351) scale(0.14 -0.14)">
       <use xlink:href="#DejaVuSans-35"/>
       <use xlink:href="#DejaVuSans-30" x="63.623047"/>
      </g>
     </g>
    </g>
    <g id="ytick_8">
     <g id="line2d_29">
      <g>
       <use xlink:href="#m68d7b2bd31" x="466.7825" y="139.179583" style="stroke: #000000; stroke-width: 1.5"/>
      </g>
     </g>
     <g id="text_31">
      <!-- 100 -->
      <g transform="translate(430.56 144.49849) scale(0.14 -0.14)">
       <use xlink:href="#DejaVuSans-31"/>
       <use xlink:href="#DejaVuSans-30" x="63.623047"/>
       <use xlink:href="#DejaVuSans-30" x="127.246094"/>
      </g>
     </g>
    </g>
    <g id="ytick_9">
     <g id="line2d_30">
      <g>
       <use xlink:href="#m68d7b2bd31" x="466.7825" y="101.444563" style="stroke: #000000; stroke-width: 1.5"/>
      </g>
     </g>
     <g id="text_32">
      <!-- 150 -->
      <g transform="translate(430.56 106.763469) scale(0.14 -0.14)">
       <use xlink:href="#DejaVuSans-31"/>
       <use xlink:href="#DejaVuSans-35" x="63.623047"/>
       <use xlink:href="#DejaVuSans-30" x="127.246094"/>
      </g>
     </g>
    </g>
    <g id="ytick_10">
     <g id="line2d_31">
      <g>
       <use xlink:href="#m68d7b2bd31" x="466.7825" y="63.709542" style="stroke: #000000; stroke-width: 1.5"/>
      </g>
     </g>
     <g id="text_33">
      <!-- 200 -->
      <g transform="translate(430.56 69.028448) scale(0.14 -0.14)">
       <use xlink:href="#DejaVuSans-32"/>
       <use xlink:href="#DejaVuSans-30" x="63.623047"/>
       <use xlink:href="#DejaVuSans-30" x="127.246094"/>
      </g>
     </g>
    </g>
   </g>
   <g id="line2d_32">
    <path d="M 494.55225 195.571995 
L 814.40775 195.571995 
" clip-path="url(#p019d73e880)" style="fill: none; stroke-dasharray: 3.7,1.6; stroke-dashoffset: 0; stroke: #808080"/>
   </g>
   <g id="line2d_33">
    <path d="M 476.7825 215.21565 
L 494.55225 195.571995 
" clip-path="url(#p019d73e880)" style="fill: none; stroke-dasharray: 3.7,1.6; stroke-dashoffset: 0; stroke: #808080"/>
   </g>
   <g id="line2d_34">
    <path d="M 832.1775 215.21565 
L 814.40775 195.571995 
" clip-path="url(#p019d73e880)" style="fill: none; stroke-dasharray: 3.7,1.6; stroke-dashoffset: 0; stroke: #808080"/>
   </g>
   <g id="line2d_35">
    <path d="M 565.63125 215.21565 
L 574.516125 195.571995 
" clip-path="url(#p019d73e880)" style="fill: none; stroke-dasharray: 3.7,1.6; stroke-dashoffset: 0; stroke: #808080"/>
   </g>
   <g id="line2d_36">
    <path d="M 743.32875 215.21565 
L 734.443875 195.571995 
" clip-path="url(#p019d73e880)" style="fill: none; stroke-dasharray: 3.7,1.6; stroke-dashoffset: 0; stroke: #808080"/>
   </g>
   <g id="line2d_37">
    <path d="M 654.48 215.21565 
L 654.48 195.571995 
" clip-path="url(#p019d73e880)" style="fill: none; stroke-dasharray: 3.7,1.6; stroke-dashoffset: 0; stroke: #808080"/>
   </g>
   <g id="patch_16">
    <path d="M 466.7825 214.649625 
L 466.7825 33.669625 
" style="fill: none; stroke: #000000; stroke-width: 1.5; stroke-linejoin: miter; stroke-linecap: square"/>
   </g>
   <g id="patch_17">
    <path d="M 476.7825 224.649625 
L 832.1775 224.649625 
" style="fill: none; stroke: #000000; stroke-width: 1.5; stroke-linejoin: miter; stroke-linecap: square"/>
   </g>
   <g id="text_34">
    <!-- B -->
    <g transform="translate(441.243 20.877187) scale(0.18 -0.18)">
     <defs>
      <path id="DejaVuSans-Bold-42" d="M 2456 2859 
Q 2741 2859 2887 2984 
Q 3034 3109 3034 3353 
Q 3034 3594 2887 3720 
Q 2741 3847 2456 3847 
L 1791 3847 
L 1791 2859 
L 2456 2859 
z
M 2497 819 
Q 2859 819 3042 972 
Q 3225 1125 3225 1434 
Q 3225 1738 3044 1889 
Q 2863 2041 2497 2041 
L 1791 2041 
L 1791 819 
L 2497 819 
z
M 3616 2497 
Q 4003 2384 4215 2081 
Q 4428 1778 4428 1338 
Q 4428 663 3972 331 
Q 3516 0 2584 0 
L 588 0 
L 588 4666 
L 2394 4666 
Q 3366 4666 3802 4372 
Q 4238 4078 4238 3431 
Q 4238 3091 4078 2852 
Q 3919 2613 3616 2497 
z
" transform="scale(0.015625)"/>
     </defs>
     <use xlink:href="#DejaVuSans-Bold-42"/>
    </g>
   </g>
   <g id="text_35">
    <!-- $p_{KS} = 0.17$ -->
    <g transform="translate(494.55225 51.812375) scale(0.12 -0.12)">
     <defs>
      <path id="DejaVuSans-37" d="M 525 4666 
L 3525 4666 
L 3525 4397 
L 1831 0 
L 1172 0 
L 2766 4134 
L 525 4134 
L 525 4666 
z
" transform="scale(0.015625)"/>
     </defs>
     <use xlink:href="#DejaVuSans-Oblique-70" transform="translate(0 0.78125)"/>
     <use xlink:href="#DejaVuSans-Oblique-4b" transform="translate(63.476562 -15.625) scale(0.7)"/>
     <use xlink:href="#DejaVuSans-Oblique-53" transform="translate(109.379883 -15.625) scale(0.7)"/>
     <use xlink:href="#DejaVuSans-3d" transform="translate(176.030273 0.78125)"/>
     <use xlink:href="#DejaVuSans-30" transform="translate(279.301758 0.78125)"/>
     <use xlink:href="#DejaVuSans-2e" transform="translate(342.924805 0.78125)"/>
     <use xlink:href="#DejaVuSans-31" transform="translate(374.711914 0.78125)"/>
     <use xlink:href="#DejaVuSans-37" transform="translate(438.334961 0.78125)"/>
    </g>
   </g>
   <g id="legend_2">
    <g id="patch_18">
     <path d="M 734.750625 53.58775 
L 758.750625 53.58775 
L 758.750625 45.18775 
L 734.750625 45.18775 
z
" style="fill: #802f95; fill-opacity: 0.75; stroke: #000000; stroke-width: 1.1; stroke-linejoin: miter"/>
    </g>
    <g id="text_36">
     <!-- Evolved -->
     <g transform="translate(768.350625 53.58775) scale(0.12 -0.12)">
      <use xlink:href="#DejaVuSans-45"/>
      <use xlink:href="#DejaVuSans-76" x="63.183594"/>
      <use xlink:href="#DejaVuSans-6f" x="122.363281"/>
      <use xlink:href="#DejaVuSans-6c" x="183.544922"/>
      <use xlink:href="#DejaVuSans-76" x="211.328125"/>
      <use xlink:href="#DejaVuSans-65" x="270.507812"/>
      <use xlink:href="#DejaVuSans-64" x="332.03125"/>
     </g>
    </g>
    <g id="patch_19">
     <path d="M 734.750625 71.2015 
L 758.750625 71.2015 
L 758.750625 62.8015 
L 734.750625 62.8015 
z
" style="fill: #808080; fill-opacity: 0.4; stroke: #000000; stroke-width: 1.1; stroke-linejoin: miter"/>
    </g>
    <g id="text_37">
     <!-- Ancestor -->
     <g transform="translate(768.350625 71.2015) scale(0.12 -0.12)">
      <use xlink:href="#DejaVuSans-41"/>
      <use xlink:href="#DejaVuSans-6e" x="68.408203"/>
      <use xlink:href="#DejaVuSans-63" x="131.787109"/>
      <use xlink:href="#DejaVuSans-65" x="186.767578"/>
      <use xlink:href="#DejaVuSans-73" x="248.291016"/>
      <use xlink:href="#DejaVuSans-74" x="300.390625"/>
      <use xlink:href="#DejaVuSans-6f" x="339.599609"/>
      <use xlink:href="#DejaVuSans-72" x="400.78125"/>
     </g>
    </g>
    <g id="line2d_38">
     <path d="M 734.750625 84.61525 
L 758.750625 84.61525 
" style="fill: none; stroke: #ff4126; stroke-width: 1.1; stroke-linecap: square"/>
    </g>
    <g id="text_38">
     <!-- Anc DFE -->
     <g transform="translate(768.350625 88.81525) scale(0.12 -0.12)">
      <use xlink:href="#DejaVuSans-41"/>
      <use xlink:href="#DejaVuSans-6e" x="68.408203"/>
      <use xlink:href="#DejaVuSans-63" x="131.787109"/>
      <use xlink:href="#DejaVuSans-20" x="186.767578"/>
      <use xlink:href="#DejaVuSans-44" x="218.554688"/>
      <use xlink:href="#DejaVuSans-46" x="295.556641"/>
      <use xlink:href="#DejaVuSans-45" x="353.076172"/>
     </g>
    </g>
   </g>
  </g>
  <g id="axes_3">
   <g id="patch_20">
    <path d="M 53.4225 494.009625 
L 408.8175 494.009625 
L 408.8175 313.029625 
L 53.4225 313.029625 
z
" style="fill: #ffffff"/>
   </g>
   <g id="patch_21">
    <path d="M 13.271584 494.009625 
L 13.271584 476.447822 
L 26.284081 476.447822 
L 26.284081 476.693172 
L 39.296579 476.693172 
L 39.296579 476.693172 
L 52.309077 476.693172 
L 52.309077 476.693172 
L 65.321575 476.693172 
L 65.321575 476.693172 
L 78.334072 476.693172 
L 78.334072 476.693172 
L 91.34657 476.693172 
L 91.34657 476.447822 
L 104.359068 476.447822 
L 104.359068 476.202472 
L 117.371565 476.202472 
L 117.371565 475.875338 
L 130.384063 475.875338 
L 130.384063 476.447822 
L 143.396561 476.447822 
L 143.396561 475.384637 
L 156.409058 475.384637 
L 156.409058 475.22107 
L 169.421556 475.22107 
L 169.421556 474.403236 
L 182.434054 474.403236 
L 182.434054 472.685783 
L 195.446552 472.685783 
L 195.446552 469.005528 
L 208.459049 469.005528 
L 208.459049 453.303106 
L 221.471547 453.303106 
L 221.471547 373.97316 
L 234.484045 373.97316 
L 234.484045 447.578264 
L 247.496542 447.578264 
L 247.496542 473.094701 
L 260.50904 473.094701 
L 260.50904 476.447822 
L 273.521538 476.447822 
L 273.521538 494.009625 
" clip-path="url(#p7b7c6daa26)" style="fill: #802f95; fill-opacity: 0.75; stroke: #000000; stroke-width: 1.1; stroke-linejoin: miter"/>
   </g>
   <g id="patch_22">
    <path d="M 121.879997 494.009625 
L 121.879997 475.769278 
L 126.421912 475.769278 
L 126.421912 476.693172 
L 130.963827 476.693172 
L 130.963827 476.693172 
L 135.505743 476.693172 
L 135.505743 476.693172 
L 140.047658 476.693172 
L 140.047658 476.693172 
L 144.589573 476.693172 
L 144.589573 476.693172 
L 149.131488 476.693172 
L 149.131488 475.399721 
L 153.673404 475.399721 
L 153.673404 475.214942 
L 158.215319 475.214942 
L 158.215319 476.138836 
L 162.757234 476.138836 
L 162.757234 475.769278 
L 167.299149 475.769278 
L 167.299149 475.954057 
L 171.841064 475.954057 
L 171.841064 472.997597 
L 176.38298 472.997597 
L 176.38298 475.030163 
L 180.924895 475.030163 
L 180.924895 472.073703 
L 185.46681 472.073703 
L 185.46681 472.997597 
L 190.008725 472.997597 
L 190.008725 473.182376 
L 194.55064 473.182376 
L 194.55064 471.334588 
L 199.092556 471.334588 
L 199.092556 469.117243 
L 203.634471 469.117243 
L 203.634471 467.823791 
L 208.176386 467.823791 
L 208.176386 461.171756 
L 212.718301 461.171756 
L 212.718301 456.182729 
L 217.260216 456.182729 
L 217.260216 437.335295 
L 221.802132 437.335295 
L 221.802132 402.596886 
L 226.344047 402.596886 
L 226.344047 351.967504 
L 230.885962 351.967504 
L 230.885962 376.173522 
L 235.427877 376.173522 
L 235.427877 427.357241 
L 239.969793 427.357241 
L 239.969793 454.150163 
L 244.511708 454.150163 
L 244.511708 466.53034 
L 249.053623 466.53034 
L 249.053623 472.258482 
L 253.595538 472.258482 
L 253.595538 473.182376 
L 258.137453 473.182376 
L 258.137453 494.009625 
" clip-path="url(#p7b7c6daa26)" style="fill: none; stroke: #ff4126; stroke-width: 1.1; stroke-linejoin: miter"/>
   </g>
   <g id="patch_23">
    <path d="M 53.4225 494.009625 
L 408.8175 494.009625 
L 408.8175 476.693172 
L 53.4225 476.693172 
z
" clip-path="url(#p7b7c6daa26)" style="fill: #ffffff"/>
   </g>
   <g id="patch_24">
    <path d="M 100.283184 494.009625 
L 100.283184 493.534507 
L 107.04636 493.534507 
L 107.04636 493.217762 
L 113.809537 493.217762 
L 113.809537 493.69288 
L 120.572713 493.69288 
L 120.572713 494.009625 
L 127.33589 494.009625 
L 127.33589 493.376135 
L 134.099066 493.376135 
L 134.099066 492.4259 
L 140.862243 492.4259 
L 140.862243 492.584272 
L 147.62542 492.584272 
L 147.62542 491.950782 
L 154.388596 491.950782 
L 154.388596 492.742645 
L 161.151773 492.742645 
L 161.151773 492.4259 
L 167.914949 492.4259 
L 167.914949 490.683802 
L 174.678126 490.683802 
L 174.678126 491.950782 
L 181.441302 491.950782 
L 181.441302 490.525429 
L 188.204479 490.525429 
L 188.204479 487.674724 
L 194.967655 487.674724 
L 194.967655 486.724489 
L 201.730832 486.724489 
L 201.730832 484.190528 
L 208.494009 484.190528 
L 208.494009 475.796784 
L 215.257185 475.796784 
L 215.257185 457.900688 
L 222.020362 457.900688 
L 222.020362 405.954497 
L 228.783538 405.954497 
L 228.783538 336.587328 
L 235.546715 336.587328 
L 235.546715 494.009625 
" clip-path="url(#p7b7c6daa26)" style="fill: #808080; fill-opacity: 0.4; stroke: #000000; stroke-width: 1.1; stroke-linejoin: miter"/>
   </g>
   <g id="matplotlib.axis_5">
    <g id="xtick_15">
     <g id="line2d_39">
      <g>
       <use xlink:href="#m94a3a6e312" x="53.4225" y="504.009625" style="stroke: #000000; stroke-width: 1.5"/>
      </g>
     </g>
     <g id="text_39">
      <!-- −6 -->
      <g transform="translate(43.102969 524.147437) scale(0.14 -0.14)">
       <use xlink:href="#DejaVuSans-2212"/>
       <use xlink:href="#DejaVuSans-36" x="83.789062"/>
      </g>
     </g>
    </g>
    <g id="xtick_16">
     <g id="line2d_40">
      <g>
       <use xlink:href="#m94a3a6e312" x="112.655" y="504.009625" style="stroke: #000000; stroke-width: 1.5"/>
      </g>
     </g>
     <g id="text_40">
      <!-- −4 -->
      <g transform="translate(102.335469 524.147437) scale(0.14 -0.14)">
       <use xlink:href="#DejaVuSans-2212"/>
       <use xlink:href="#DejaVuSans-34" x="83.789062"/>
      </g>
     </g>
    </g>
    <g id="xtick_17">
     <g id="line2d_41">
      <g>
       <use xlink:href="#m94a3a6e312" x="171.8875" y="504.009625" style="stroke: #000000; stroke-width: 1.5"/>
      </g>
     </g>
     <g id="text_41">
      <!-- −2 -->
      <g transform="translate(161.567969 524.147437) scale(0.14 -0.14)">
       <use xlink:href="#DejaVuSans-2212"/>
       <use xlink:href="#DejaVuSans-32" x="83.789062"/>
      </g>
     </g>
    </g>
    <g id="xtick_18">
     <g id="line2d_42">
      <g>
       <use xlink:href="#m94a3a6e312" x="231.12" y="504.009625" style="stroke: #000000; stroke-width: 1.5"/>
      </g>
     </g>
     <g id="text_42">
      <!-- 0 -->
      <g transform="translate(226.66625 524.147437) scale(0.14 -0.14)">
       <use xlink:href="#DejaVuSans-30"/>
      </g>
     </g>
    </g>
    <g id="xtick_19">
     <g id="line2d_43">
      <g>
       <use xlink:href="#m94a3a6e312" x="290.3525" y="504.009625" style="stroke: #000000; stroke-width: 1.5"/>
      </g>
     </g>
     <g id="text_43">
      <!-- 2 -->
      <g transform="translate(285.89875 524.147437) scale(0.14 -0.14)">
       <use xlink:href="#DejaVuSans-32"/>
      </g>
     </g>
    </g>
    <g id="xtick_20">
     <g id="line2d_44">
      <g>
       <use xlink:href="#m94a3a6e312" x="349.585" y="504.009625" style="stroke: #000000; stroke-width: 1.5"/>
      </g>
     </g>
     <g id="text_44">
      <!-- 4 -->
      <g transform="translate(345.13125 524.147437) scale(0.14 -0.14)">
       <use xlink:href="#DejaVuSans-34"/>
      </g>
     </g>
    </g>
    <g id="xtick_21">
     <g id="line2d_45">
      <g>
       <use xlink:href="#m94a3a6e312" x="408.8175" y="504.009625" style="stroke: #000000; stroke-width: 1.5"/>
      </g>
     </g>
     <g id="text_45">
      <!-- 6 -->
      <g transform="translate(404.36375 524.147437) scale(0.14 -0.14)">
       <use xlink:href="#DejaVuSans-36"/>
      </g>
     </g>
    </g>
    <g id="text_46">
     <!-- Fitness effect $(\Delta)$ -->
     <g transform="translate(162.96 543.2165) scale(0.16 -0.16)">
      <use xlink:href="#DejaVuSans-46" transform="translate(0 0.015625)"/>
      <use xlink:href="#DejaVuSans-69" transform="translate(57.519531 0.015625)"/>
      <use xlink:href="#DejaVuSans-74" transform="translate(85.302734 0.015625)"/>
      <use xlink:href="#DejaVuSans-6e" transform="translate(124.511719 0.015625)"/>
      <use xlink:href="#DejaVuSans-65" transform="translate(187.890625 0.015625)"/>
      <use xlink:href="#DejaVuSans-73" transform="translate(249.414062 0.015625)"/>
      <use xlink:href="#DejaVuSans-73" transform="translate(301.513672 0.015625)"/>
      <use xlink:href="#DejaVuSans-20" transform="translate(353.613281 0.015625)"/>
      <use xlink:href="#DejaVuSans-65" transform="translate(385.400391 0.015625)"/>
      <use xlink:href="#DejaVuSans-66" transform="translate(446.923828 0.015625)"/>
      <use xlink:href="#DejaVuSans-66" transform="translate(482.128906 0.015625)"/>
      <use xlink:href="#DejaVuSans-65" transform="translate(517.333984 0.015625)"/>
      <use xlink:href="#DejaVuSans-63" transform="translate(578.857422 0.015625)"/>
      <use xlink:href="#DejaVuSans-74" transform="translate(633.837891 0.015625)"/>
      <use xlink:href="#DejaVuSans-20" transform="translate(673.046875 0.015625)"/>
      <use xlink:href="#DejaVuSans-28" transform="translate(704.833984 0.015625)"/>
      <use xlink:href="#DejaVuSans-394" transform="translate(743.847656 0.015625)"/>
      <use xlink:href="#DejaVuSans-29" transform="translate(812.255859 0.015625)"/>
     </g>
    </g>
    <g id="text_47">
     <!-- 1e−2 -->
     <g transform="translate(370.656562 540.696812) scale(0.14 -0.14)">
      <use xlink:href="#DejaVuSans-31"/>
      <use xlink:href="#DejaVuSans-65" x="63.623047"/>
      <use xlink:href="#DejaVuSans-2212" x="125.146484"/>
      <use xlink:href="#DejaVuSans-32" x="208.935547"/>
     </g>
    </g>
   </g>
   <g id="matplotlib.axis_6">
    <g id="ytick_11">
     <g id="line2d_46">
      <g>
       <use xlink:href="#m68d7b2bd31" x="43.4225" y="494.009625" style="stroke: #000000; stroke-width: 1.5"/>
      </g>
     </g>
     <g id="text_48">
      <!-- 0 -->
      <g transform="translate(25.015 499.328531) scale(0.14 -0.14)">
       <use xlink:href="#DejaVuSans-30"/>
      </g>
     </g>
    </g>
    <g id="ytick_12">
     <g id="line2d_47">
      <g>
       <use xlink:href="#m68d7b2bd31" x="43.4225" y="454.932258" style="stroke: #000000; stroke-width: 1.5"/>
      </g>
     </g>
     <g id="text_49">
      <!-- 50 -->
      <g transform="translate(16.1075 460.251165) scale(0.14 -0.14)">
       <use xlink:href="#DejaVuSans-35"/>
       <use xlink:href="#DejaVuSans-30" x="63.623047"/>
      </g>
     </g>
    </g>
    <g id="ytick_13">
     <g id="line2d_48">
      <g>
       <use xlink:href="#m68d7b2bd31" x="43.4225" y="415.854892" style="stroke: #000000; stroke-width: 1.5"/>
      </g>
     </g>
     <g id="text_50">
      <!-- 100 -->
      <g transform="translate(7.2 421.173798) scale(0.14 -0.14)">
       <use xlink:href="#DejaVuSans-31"/>
       <use xlink:href="#DejaVuSans-30" x="63.623047"/>
       <use xlink:href="#DejaVuSans-30" x="127.246094"/>
      </g>
     </g>
    </g>
    <g id="ytick_14">
     <g id="line2d_49">
      <g>
       <use xlink:href="#m68d7b2bd31" x="43.4225" y="376.777525" style="stroke: #000000; stroke-width: 1.5"/>
      </g>
     </g>
     <g id="text_51">
      <!-- 150 -->
      <g transform="translate(7.2 382.096431) scale(0.14 -0.14)">
       <use xlink:href="#DejaVuSans-31"/>
       <use xlink:href="#DejaVuSans-35" x="63.623047"/>
       <use xlink:href="#DejaVuSans-30" x="127.246094"/>
      </g>
     </g>
    </g>
    <g id="ytick_15">
     <g id="line2d_50">
      <g>
       <use xlink:href="#m68d7b2bd31" x="43.4225" y="337.700159" style="stroke: #000000; stroke-width: 1.5"/>
      </g>
     </g>
     <g id="text_52">
      <!-- 200 -->
      <g transform="translate(7.2 343.019065) scale(0.14 -0.14)">
       <use xlink:href="#DejaVuSans-32"/>
       <use xlink:href="#DejaVuSans-30" x="63.623047"/>
       <use xlink:href="#DejaVuSans-30" x="127.246094"/>
      </g>
     </g>
    </g>
   </g>
   <g id="line2d_51">
    <path d="M 71.19225 474.961527 
L 391.04775 474.961527 
" clip-path="url(#p7b7c6daa26)" style="fill: none; stroke-dasharray: 3.7,1.6; stroke-dashoffset: 0; stroke: #808080"/>
   </g>
   <g id="line2d_52">
    <path d="M 53.4225 494.595785 
L 71.19225 474.961527 
" clip-path="url(#p7b7c6daa26)" style="fill: none; stroke-dasharray: 3.7,1.6; stroke-dashoffset: 0; stroke: #808080"/>
   </g>
   <g id="line2d_53">
    <path d="M 408.8175 494.595785 
L 391.04775 474.961527 
" clip-path="url(#p7b7c6daa26)" style="fill: none; stroke-dasharray: 3.7,1.6; stroke-dashoffset: 0; stroke: #808080"/>
   </g>
   <g id="line2d_54">
    <path d="M 142.27125 494.595785 
L 151.156125 474.961527 
" clip-path="url(#p7b7c6daa26)" style="fill: none; stroke-dasharray: 3.7,1.6; stroke-dashoffset: 0; stroke: #808080"/>
   </g>
   <g id="line2d_55">
    <path d="M 319.96875 494.595785 
L 311.083875 474.961527 
" clip-path="url(#p7b7c6daa26)" style="fill: none; stroke-dasharray: 3.7,1.6; stroke-dashoffset: 0; stroke: #808080"/>
   </g>
   <g id="line2d_56">
    <path d="M 231.12 494.595785 
L 231.12 474.961527 
" clip-path="url(#p7b7c6daa26)" style="fill: none; stroke-dasharray: 3.7,1.6; stroke-dashoffset: 0; stroke: #808080"/>
   </g>
   <g id="patch_25">
    <path d="M 43.4225 494.009625 
L 43.4225 313.029625 
" style="fill: none; stroke: #000000; stroke-width: 1.5; stroke-linejoin: miter; stroke-linecap: square"/>
   </g>
   <g id="patch_26">
    <path d="M 53.4225 504.009625 
L 408.8175 504.009625 
" style="fill: none; stroke: #000000; stroke-width: 1.5; stroke-linejoin: miter; stroke-linecap: square"/>
   </g>
   <g id="text_53">
    <!-- C -->
    <g transform="translate(17.883 300.237187) scale(0.18 -0.18)">
     <defs>
      <path id="DejaVuSans-Bold-43" d="M 4288 256 
Q 3956 84 3597 -3 
Q 3238 -91 2847 -91 
Q 1681 -91 1000 561 
Q 319 1213 319 2328 
Q 319 3447 1000 4098 
Q 1681 4750 2847 4750 
Q 3238 4750 3597 4662 
Q 3956 4575 4288 4403 
L 4288 3438 
Q 3953 3666 3628 3772 
Q 3303 3878 2944 3878 
Q 2300 3878 1931 3465 
Q 1563 3053 1563 2328 
Q 1563 1606 1931 1193 
Q 2300 781 2944 781 
Q 3303 781 3628 887 
Q 3953 994 4288 1222 
L 4288 256 
z
" transform="scale(0.015625)"/>
     </defs>
     <use xlink:href="#DejaVuSans-Bold-43"/>
    </g>
   </g>
   <g id="text_54">
    <!-- $p_{KS} = 0.36$ -->
    <g transform="translate(71.19225 331.172375) scale(0.12 -0.12)">
     <defs>
      <path id="DejaVuSans-33" d="M 2597 2516 
Q 3050 2419 3304 2112 
Q 3559 1806 3559 1356 
Q 3559 666 3084 287 
Q 2609 -91 1734 -91 
Q 1441 -91 1130 -33 
Q 819 25 488 141 
L 488 750 
Q 750 597 1062 519 
Q 1375 441 1716 441 
Q 2309 441 2620 675 
Q 2931 909 2931 1356 
Q 2931 1769 2642 2001 
Q 2353 2234 1838 2234 
L 1294 2234 
L 1294 2753 
L 1863 2753 
Q 2328 2753 2575 2939 
Q 2822 3125 2822 3475 
Q 2822 3834 2567 4026 
Q 2313 4219 1838 4219 
Q 1578 4219 1281 4162 
Q 984 4106 628 3988 
L 628 4550 
Q 988 4650 1302 4700 
Q 1616 4750 1894 4750 
Q 2613 4750 3031 4423 
Q 3450 4097 3450 3541 
Q 3450 3153 3228 2886 
Q 3006 2619 2597 2516 
z
" transform="scale(0.015625)"/>
     </defs>
     <use xlink:href="#DejaVuSans-Oblique-70" transform="translate(0 0.78125)"/>
     <use xlink:href="#DejaVuSans-Oblique-4b" transform="translate(63.476562 -15.625) scale(0.7)"/>
     <use xlink:href="#DejaVuSans-Oblique-53" transform="translate(109.379883 -15.625) scale(0.7)"/>
     <use xlink:href="#DejaVuSans-3d" transform="translate(176.030273 0.78125)"/>
     <use xlink:href="#DejaVuSans-30" transform="translate(279.301758 0.78125)"/>
     <use xlink:href="#DejaVuSans-2e" transform="translate(342.924805 0.78125)"/>
     <use xlink:href="#DejaVuSans-33" transform="translate(374.711914 0.78125)"/>
     <use xlink:href="#DejaVuSans-36" transform="translate(438.334961 0.78125)"/>
    </g>
   </g>
   <g id="legend_3">
    <g id="patch_27">
     <path d="M 311.390625 332.94775 
L 335.390625 332.94775 
L 335.390625 324.54775 
L 311.390625 324.54775 
z
" style="fill: #802f95; fill-opacity: 0.75; stroke: #000000; stroke-width: 1.1; stroke-linejoin: miter"/>
    </g>
    <g id="text_55">
     <!-- Evolved -->
     <g transform="translate(344.990625 332.94775) scale(0.12 -0.12)">
      <use xlink:href="#DejaVuSans-45"/>
      <use xlink:href="#DejaVuSans-76" x="63.183594"/>
      <use xlink:href="#DejaVuSans-6f" x="122.363281"/>
      <use xlink:href="#DejaVuSans-6c" x="183.544922"/>
      <use xlink:href="#DejaVuSans-76" x="211.328125"/>
      <use xlink:href="#DejaVuSans-65" x="270.507812"/>
      <use xlink:href="#DejaVuSans-64" x="332.03125"/>
     </g>
    </g>
    <g id="line2d_57">
     <path d="M 311.390625 346.3615 
L 335.390625 346.3615 
" style="fill: none; stroke: #ff4126; stroke-width: 1.1; stroke-linecap: square"/>
    </g>
    <g id="text_56">
     <!-- DFE Evo -->
     <g transform="translate(344.990625 350.5615) scale(0.12 -0.12)">
      <use xlink:href="#DejaVuSans-44"/>
      <use xlink:href="#DejaVuSans-46" x="77.001953"/>
      <use xlink:href="#DejaVuSans-45" x="134.521484"/>
      <use xlink:href="#DejaVuSans-20" x="197.705078"/>
      <use xlink:href="#DejaVuSans-45" x="229.492188"/>
      <use xlink:href="#DejaVuSans-76" x="292.675781"/>
      <use xlink:href="#DejaVuSans-6f" x="351.855469"/>
     </g>
    </g>
    <g id="patch_28">
     <path d="M 311.390625 368.17525 
L 335.390625 368.17525 
L 335.390625 359.77525 
L 311.390625 359.77525 
z
" style="fill: #808080; fill-opacity: 0.4; stroke: #000000; stroke-width: 1.1; stroke-linejoin: miter"/>
    </g>
    <g id="text_57">
     <!-- Ancestor -->
     <g transform="translate(344.990625 368.17525) scale(0.12 -0.12)">
      <use xlink:href="#DejaVuSans-41"/>
      <use xlink:href="#DejaVuSans-6e" x="68.408203"/>
      <use xlink:href="#DejaVuSans-63" x="131.787109"/>
      <use xlink:href="#DejaVuSans-65" x="186.767578"/>
      <use xlink:href="#DejaVuSans-73" x="248.291016"/>
      <use xlink:href="#DejaVuSans-74" x="300.390625"/>
      <use xlink:href="#DejaVuSans-6f" x="339.599609"/>
      <use xlink:href="#DejaVuSans-72" x="400.78125"/>
     </g>
    </g>
   </g>
  </g>
  <g id="axes_4">
   <g id="patch_29">
    <path d="M 476.7825 494.009625 
L 832.1775 494.009625 
L 832.1775 313.029625 
L 476.7825 313.029625 
z
" style="fill: #ffffff"/>
   </g>
   <g id="patch_30">
    <path d="M 349.3773 494.009625 
L 349.3773 478.212534 
L 364.853548 478.212534 
L 364.853548 478.514376 
L 380.329796 478.514376 
L 380.329796 478.212534 
L 395.806044 478.212534 
L 395.806044 478.514376 
L 411.282291 478.514376 
L 411.282291 478.514376 
L 426.758539 478.514376 
L 426.758539 478.514376 
L 442.234787 478.514376 
L 442.234787 478.061613 
L 457.711035 478.061613 
L 457.711035 478.514376 
L 473.187283 478.514376 
L 473.187283 478.514376 
L 488.663531 478.514376 
L 488.663531 477.759772 
L 504.139779 477.759772 
L 504.139779 478.514376 
L 519.616027 478.514376 
L 519.616027 477.759772 
L 535.092275 477.759772 
L 535.092275 476.703326 
L 550.568522 476.703326 
L 550.568522 477.005168 
L 566.04477 477.005168 
L 566.04477 476.854247 
L 581.521018 476.854247 
L 581.521018 475.043197 
L 596.997266 475.043197 
L 596.997266 472.477544 
L 612.473514 472.477544 
L 612.473514 467.648078 
L 627.949762 467.648078 
L 627.949762 453.763365 
L 643.42601 453.763365 
L 643.42601 359.286949 
L 658.902258 359.286949 
L 658.902258 494.009625 
" clip-path="url(#p0ce708d624)" style="fill: #802f95; fill-opacity: 0.75; stroke: #000000; stroke-width: 1.1; stroke-linejoin: miter"/>
   </g>
   <g id="patch_31">
    <path d="M 476.7825 494.009625 
L 832.1775 494.009625 
L 832.1775 478.514376 
L 476.7825 478.514376 
z
" clip-path="url(#p0ce708d624)" style="fill: #ffffff"/>
   </g>
   <g id="patch_32">
    <path d="M 470.012402 494.009625 
L 470.012402 493.533958 
L 480.008616 493.533958 
L 480.008616 493.533958 
L 490.004831 493.533958 
L 490.004831 494.009625 
L 500.001046 494.009625 
L 500.001046 493.533958 
L 509.99726 493.533958 
L 509.99726 492.820458 
L 519.993475 492.820458 
L 519.993475 492.582625 
L 529.989689 492.582625 
L 529.989689 493.533958 
L 539.985904 493.533958 
L 539.985904 492.820458 
L 549.982119 492.820458 
L 549.982119 489.966457 
L 559.978333 489.966457 
L 559.978333 490.442124 
L 569.974548 490.442124 
L 569.974548 490.917791 
L 579.970762 490.917791 
L 579.970762 488.539457 
L 589.966977 488.539457 
L 589.966977 488.539457 
L 599.963192 488.539457 
L 599.963192 485.447623 
L 609.959406 485.447623 
L 609.959406 482.117956 
L 619.955621 482.117956 
L 619.955621 472.60462 
L 629.951835 472.60462 
L 629.951835 446.918614 
L 639.94805 446.918614 
L 639.94805 403.15727 
L 649.944264 403.15727 
L 649.944264 455.004949 
L 659.940479 455.004949 
L 659.940479 484.496289 
L 669.936694 484.496289 
L 669.936694 489.015124 
L 679.932908 489.015124 
L 679.932908 492.582625 
L 689.929123 492.582625 
L 689.929123 492.582625 
L 699.925337 492.582625 
L 699.925337 493.296125 
L 709.921552 493.296125 
L 709.921552 494.009625 
L 719.917767 494.009625 
L 719.917767 493.533958 
L 729.913981 493.533958 
L 729.913981 493.058291 
L 739.910196 493.058291 
L 739.910196 494.009625 
L 749.90641 494.009625 
L 749.90641 494.009625 
L 759.902625 494.009625 
L 759.902625 493.533958 
L 769.89884 493.533958 
L 769.89884 494.009625 
" clip-path="url(#p0ce708d624)" style="fill: #808080; fill-opacity: 0.4; stroke: #000000; stroke-width: 1.1; stroke-linejoin: miter"/>
   </g>
   <g id="patch_33">
    <path d="M 551.609673 494.009625 
L 551.609673 492.820883 
L 556.562723 492.820883 
L 556.562723 493.019007 
L 561.515772 493.019007 
L 561.515772 493.019007 
L 566.468822 493.019007 
L 566.468822 493.811501 
L 571.421872 493.811501 
L 571.421872 492.226512 
L 576.374921 492.226512 
L 576.374921 493.811501 
L 581.327971 493.811501 
L 581.327971 490.245276 
L 586.28102 490.245276 
L 586.28102 493.415254 
L 591.23407 493.415254 
L 591.23407 492.028389 
L 596.18712 492.028389 
L 596.18712 490.4434 
L 601.140169 490.4434 
L 601.140169 489.056534 
L 606.093219 489.056534 
L 606.093219 488.660287 
L 611.046269 488.660287 
L 611.046269 487.669669 
L 615.999318 487.669669 
L 615.999318 485.490309 
L 620.952368 485.490309 
L 620.952368 479.150352 
L 625.905417 479.150352 
L 625.905417 474.197262 
L 630.858467 474.197262 
L 630.858467 462.706091 
L 635.811517 462.706091 
L 635.811517 428.628826 
L 640.764566 428.628826 
L 640.764566 374.541074 
L 645.717616 374.541074 
L 645.717616 353.143721 
L 650.670666 353.143721 
L 650.670666 444.280593 
L 655.623715 444.280593 
L 655.623715 471.027283 
L 660.576765 471.027283 
L 660.576765 479.348476 
L 665.529814 479.348476 
L 665.529814 486.480927 
L 670.482864 486.480927 
L 670.482864 489.254658 
L 675.435914 489.254658 
L 675.435914 491.03777 
L 680.388963 491.03777 
L 680.388963 493.811501 
L 685.342013 493.811501 
L 685.342013 494.009625 
L 690.295062 494.009625 
L 690.295062 494.009625 
L 695.248112 494.009625 
L 695.248112 491.830265 
L 700.201162 491.830265 
L 700.201162 494.009625 
" clip-path="url(#p0ce708d624)" style="fill: none; stroke: #ff4126; stroke-width: 1.1; stroke-linejoin: miter"/>
   </g>
   <g id="matplotlib.axis_7">
    <g id="xtick_22">
     <g id="line2d_58">
      <g>
       <use xlink:href="#m94a3a6e312" x="476.7825" y="504.009625" style="stroke: #000000; stroke-width: 1.5"/>
      </g>
     </g>
     <g id="text_58">
      <!-- −6 -->
      <g transform="translate(466.462969 524.147437) scale(0.14 -0.14)">
       <use xlink:href="#DejaVuSans-2212"/>
       <use xlink:href="#DejaVuSans-36" x="83.789062"/>
      </g>
     </g>
    </g>
    <g id="xtick_23">
     <g id="line2d_59">
      <g>
       <use xlink:href="#m94a3a6e312" x="536.015" y="504.009625" style="stroke: #000000; stroke-width: 1.5"/>
      </g>
     </g>
     <g id="text_59">
      <!-- −4 -->
      <g transform="translate(525.695469 524.147437) scale(0.14 -0.14)">
       <use xlink:href="#DejaVuSans-2212"/>
       <use xlink:href="#DejaVuSans-34" x="83.789062"/>
      </g>
     </g>
    </g>
    <g id="xtick_24">
     <g id="line2d_60">
      <g>
       <use xlink:href="#m94a3a6e312" x="595.2475" y="504.009625" style="stroke: #000000; stroke-width: 1.5"/>
      </g>
     </g>
     <g id="text_60">
      <!-- −2 -->
      <g transform="translate(584.927969 524.147437) scale(0.14 -0.14)">
       <use xlink:href="#DejaVuSans-2212"/>
       <use xlink:href="#DejaVuSans-32" x="83.789062"/>
      </g>
     </g>
    </g>
    <g id="xtick_25">
     <g id="line2d_61">
      <g>
       <use xlink:href="#m94a3a6e312" x="654.48" y="504.009625" style="stroke: #000000; stroke-width: 1.5"/>
      </g>
     </g>
     <g id="text_61">
      <!-- 0 -->
      <g transform="translate(650.02625 524.147437) scale(0.14 -0.14)">
       <use xlink:href="#DejaVuSans-30"/>
      </g>
     </g>
    </g>
    <g id="xtick_26">
     <g id="line2d_62">
      <g>
       <use xlink:href="#m94a3a6e312" x="713.7125" y="504.009625" style="stroke: #000000; stroke-width: 1.5"/>
      </g>
     </g>
     <g id="text_62">
      <!-- 2 -->
      <g transform="translate(709.25875 524.147437) scale(0.14 -0.14)">
       <use xlink:href="#DejaVuSans-32"/>
      </g>
     </g>
    </g>
    <g id="xtick_27">
     <g id="line2d_63">
      <g>
       <use xlink:href="#m94a3a6e312" x="772.945" y="504.009625" style="stroke: #000000; stroke-width: 1.5"/>
      </g>
     </g>
     <g id="text_63">
      <!-- 4 -->
      <g transform="translate(768.49125 524.147437) scale(0.14 -0.14)">
       <use xlink:href="#DejaVuSans-34"/>
      </g>
     </g>
    </g>
    <g id="xtick_28">
     <g id="line2d_64">
      <g>
       <use xlink:href="#m94a3a6e312" x="832.1775" y="504.009625" style="stroke: #000000; stroke-width: 1.5"/>
      </g>
     </g>
     <g id="text_64">
      <!-- 6 -->
      <g transform="translate(827.72375 524.147437) scale(0.14 -0.14)">
       <use xlink:href="#DejaVuSans-36"/>
      </g>
     </g>
    </g>
    <g id="text_65">
     <!-- Fitness effect $(\Delta)$ -->
     <g transform="translate(586.32 543.2165) scale(0.16 -0.16)">
      <use xlink:href="#DejaVuSans-46" transform="translate(0 0.015625)"/>
      <use xlink:href="#DejaVuSans-69" transform="translate(57.519531 0.015625)"/>
      <use xlink:href="#DejaVuSans-74" transform="translate(85.302734 0.015625)"/>
      <use xlink:href="#DejaVuSans-6e" transform="translate(124.511719 0.015625)"/>
      <use xlink:href="#DejaVuSans-65" transform="translate(187.890625 0.015625)"/>
      <use xlink:href="#DejaVuSans-73" transform="translate(249.414062 0.015625)"/>
      <use xlink:href="#DejaVuSans-73" transform="translate(301.513672 0.015625)"/>
      <use xlink:href="#DejaVuSans-20" transform="translate(353.613281 0.015625)"/>
      <use xlink:href="#DejaVuSans-65" transform="translate(385.400391 0.015625)"/>
      <use xlink:href="#DejaVuSans-66" transform="translate(446.923828 0.015625)"/>
      <use xlink:href="#DejaVuSans-66" transform="translate(482.128906 0.015625)"/>
      <use xlink:href="#DejaVuSans-65" transform="translate(517.333984 0.015625)"/>
      <use xlink:href="#DejaVuSans-63" transform="translate(578.857422 0.015625)"/>
      <use xlink:href="#DejaVuSans-74" transform="translate(633.837891 0.015625)"/>
      <use xlink:href="#DejaVuSans-20" transform="translate(673.046875 0.015625)"/>
      <use xlink:href="#DejaVuSans-28" transform="translate(704.833984 0.015625)"/>
      <use xlink:href="#DejaVuSans-394" transform="translate(743.847656 0.015625)"/>
      <use xlink:href="#DejaVuSans-29" transform="translate(812.255859 0.015625)"/>
     </g>
    </g>
    <g id="text_66">
     <!-- 1e−2 -->
     <g transform="translate(794.016562 540.696812) scale(0.14 -0.14)">
      <use xlink:href="#DejaVuSans-31"/>
      <use xlink:href="#DejaVuSans-65" x="63.623047"/>
      <use xlink:href="#DejaVuSans-2212" x="125.146484"/>
      <use xlink:href="#DejaVuSans-32" x="208.935547"/>
     </g>
    </g>
   </g>
   <g id="matplotlib.axis_8">
    <g id="ytick_16">
     <g id="line2d_65">
      <g>
       <use xlink:href="#m68d7b2bd31" x="466.7825" y="494.009625" style="stroke: #000000; stroke-width: 1.5"/>
      </g>
     </g>
     <g id="text_67">
      <!-- 0 -->
      <g transform="translate(448.375 499.328531) scale(0.14 -0.14)">
       <use xlink:href="#DejaVuSans-30"/>
      </g>
     </g>
    </g>
    <g id="ytick_17">
     <g id="line2d_66">
      <g>
       <use xlink:href="#m68d7b2bd31" x="466.7825" y="449.095968" style="stroke: #000000; stroke-width: 1.5"/>
      </g>
     </g>
     <g id="text_68">
      <!-- 50 -->
      <g transform="translate(439.4675 454.414874) scale(0.14 -0.14)">
       <use xlink:href="#DejaVuSans-35"/>
       <use xlink:href="#DejaVuSans-30" x="63.623047"/>
      </g>
     </g>
    </g>
    <g id="ytick_18">
     <g id="line2d_67">
      <g>
       <use xlink:href="#m68d7b2bd31" x="466.7825" y="404.182311" style="stroke: #000000; stroke-width: 1.5"/>
      </g>
     </g>
     <g id="text_69">
      <!-- 100 -->
      <g transform="translate(430.56 409.501217) scale(0.14 -0.14)">
       <use xlink:href="#DejaVuSans-31"/>
       <use xlink:href="#DejaVuSans-30" x="63.623047"/>
       <use xlink:href="#DejaVuSans-30" x="127.246094"/>
      </g>
     </g>
    </g>
    <g id="ytick_19">
     <g id="line2d_68">
      <g>
       <use xlink:href="#m68d7b2bd31" x="466.7825" y="359.268654" style="stroke: #000000; stroke-width: 1.5"/>
      </g>
     </g>
     <g id="text_70">
      <!-- 150 -->
      <g transform="translate(430.56 364.58756) scale(0.14 -0.14)">
       <use xlink:href="#DejaVuSans-31"/>
       <use xlink:href="#DejaVuSans-35" x="63.623047"/>
       <use xlink:href="#DejaVuSans-30" x="127.246094"/>
      </g>
     </g>
    </g>
    <g id="ytick_20">
     <g id="line2d_69">
      <g>
       <use xlink:href="#m68d7b2bd31" x="466.7825" y="314.354997" style="stroke: #000000; stroke-width: 1.5"/>
      </g>
     </g>
     <g id="text_71">
      <!-- 200 -->
      <g transform="translate(430.56 319.673903) scale(0.14 -0.14)">
       <use xlink:href="#DejaVuSans-32"/>
       <use xlink:href="#DejaVuSans-30" x="63.623047"/>
       <use xlink:href="#DejaVuSans-30" x="127.246094"/>
      </g>
     </g>
    </g>
   </g>
   <g id="line2d_70">
    <path d="M 494.55225 475.089925 
L 814.40775 475.089925 
" clip-path="url(#p0ce708d624)" style="fill: none; stroke-dasharray: 3.7,1.6; stroke-dashoffset: 0; stroke: #808080"/>
   </g>
   <g id="line2d_71">
    <path d="M 476.7825 494.68333 
L 494.55225 475.089925 
" clip-path="url(#p0ce708d624)" style="fill: none; stroke-dasharray: 3.7,1.6; stroke-dashoffset: 0; stroke: #808080"/>
   </g>
   <g id="line2d_72">
    <path d="M 832.1775 494.68333 
L 814.40775 475.089925 
" clip-path="url(#p0ce708d624)" style="fill: none; stroke-dasharray: 3.7,1.6; stroke-dashoffset: 0; stroke: #808080"/>
   </g>
   <g id="line2d_73">
    <path d="M 565.63125 494.68333 
L 574.516125 475.089925 
" clip-path="url(#p0ce708d624)" style="fill: none; stroke-dasharray: 3.7,1.6; stroke-dashoffset: 0; stroke: #808080"/>
   </g>
   <g id="line2d_74">
    <path d="M 743.32875 494.68333 
L 734.443875 475.089925 
" clip-path="url(#p0ce708d624)" style="fill: none; stroke-dasharray: 3.7,1.6; stroke-dashoffset: 0; stroke: #808080"/>
   </g>
   <g id="line2d_75">
    <path d="M 654.48 494.68333 
L 654.48 475.089925 
" clip-path="url(#p0ce708d624)" style="fill: none; stroke-dasharray: 3.7,1.6; stroke-dashoffset: 0; stroke: #808080"/>
   </g>
   <g id="patch_34">
    <path d="M 466.7825 494.009625 
L 466.7825 313.029625 
" style="fill: none; stroke: #000000; stroke-width: 1.5; stroke-linejoin: miter; stroke-linecap: square"/>
   </g>
   <g id="patch_35">
    <path d="M 476.7825 504.009625 
L 832.1775 504.009625 
" style="fill: none; stroke: #000000; stroke-width: 1.5; stroke-linejoin: miter; stroke-linecap: square"/>
   </g>
   <g id="text_72">
    <!-- D -->
    <g transform="translate(441.243 300.237187) scale(0.18 -0.18)">
     <defs>
      <path id="DejaVuSans-Bold-44" d="M 1791 3756 
L 1791 909 
L 2222 909 
Q 2959 909 3348 1275 
Q 3738 1641 3738 2338 
Q 3738 3031 3350 3393 
Q 2963 3756 2222 3756 
L 1791 3756 
z
M 588 4666 
L 1856 4666 
Q 2919 4666 3439 4514 
Q 3959 4363 4331 4000 
Q 4659 3684 4818 3271 
Q 4978 2859 4978 2338 
Q 4978 1809 4818 1395 
Q 4659 981 4331 666 
Q 3956 303 3431 151 
Q 2906 0 1856 0 
L 588 0 
L 588 4666 
z
" transform="scale(0.015625)"/>
     </defs>
     <use xlink:href="#DejaVuSans-Bold-44"/>
    </g>
   </g>
   <g id="text_73">
    <!-- $p_{KS} = 9.2e-14$ -->
    <g transform="translate(494.55225 331.172375) scale(0.12 -0.12)">
     <defs>
      <path id="DejaVuSans-39" d="M 703 97 
L 703 672 
Q 941 559 1184 500 
Q 1428 441 1663 441 
Q 2288 441 2617 861 
Q 2947 1281 2994 2138 
Q 2813 1869 2534 1725 
Q 2256 1581 1919 1581 
Q 1219 1581 811 2004 
Q 403 2428 403 3163 
Q 403 3881 828 4315 
Q 1253 4750 1959 4750 
Q 2769 4750 3195 4129 
Q 3622 3509 3622 2328 
Q 3622 1225 3098 567 
Q 2575 -91 1691 -91 
Q 1453 -91 1209 -44 
Q 966 3 703 97 
z
M 1959 2075 
Q 2384 2075 2632 2365 
Q 2881 2656 2881 3163 
Q 2881 3666 2632 3958 
Q 2384 4250 1959 4250 
Q 1534 4250 1286 3958 
Q 1038 3666 1038 3163 
Q 1038 2656 1286 2365 
Q 1534 2075 1959 2075 
z
" transform="scale(0.015625)"/>
      <path id="DejaVuSans-Oblique-65" d="M 3078 2063 
Q 3088 2113 3092 2166 
Q 3097 2219 3097 2272 
Q 3097 2653 2873 2875 
Q 2650 3097 2266 3097 
Q 1838 3097 1509 2826 
Q 1181 2556 1013 2059 
L 3078 2063 
z
M 3578 1613 
L 903 1613 
Q 884 1494 878 1425 
Q 872 1356 872 1306 
Q 872 872 1139 634 
Q 1406 397 1894 397 
Q 2269 397 2603 481 
Q 2938 566 3225 728 
L 3116 159 
Q 2806 34 2476 -28 
Q 2147 -91 1806 -91 
Q 1078 -91 686 257 
Q 294 606 294 1247 
Q 294 1794 489 2264 
Q 684 2734 1063 3103 
Q 1306 3334 1642 3459 
Q 1978 3584 2356 3584 
Q 2950 3584 3301 3228 
Q 3653 2872 3653 2272 
Q 3653 2128 3634 1964 
Q 3616 1800 3578 1613 
z
" transform="scale(0.015625)"/>
     </defs>
     <use xlink:href="#DejaVuSans-Oblique-70" transform="translate(0 0.78125)"/>
     <use xlink:href="#DejaVuSans-Oblique-4b" transform="translate(63.476562 -15.625) scale(0.7)"/>
     <use xlink:href="#DejaVuSans-Oblique-53" transform="translate(109.379883 -15.625) scale(0.7)"/>
     <use xlink:href="#DejaVuSans-3d" transform="translate(176.030273 0.78125)"/>
     <use xlink:href="#DejaVuSans-39" transform="translate(279.301758 0.78125)"/>
     <use xlink:href="#DejaVuSans-2e" transform="translate(342.924805 0.78125)"/>
     <use xlink:href="#DejaVuSans-32" transform="translate(369.211914 0.78125)"/>
     <use xlink:href="#DejaVuSans-Oblique-65" transform="translate(432.834961 0.78125)"/>
     <use xlink:href="#DejaVuSans-2212" transform="translate(513.84082 0.78125)"/>
     <use xlink:href="#DejaVuSans-31" transform="translate(617.112305 0.78125)"/>
     <use xlink:href="#DejaVuSans-34" transform="translate(680.735352 0.78125)"/>
    </g>
   </g>
   <g id="legend_4">
    <g id="patch_36">
     <path d="M 734.750625 332.94775 
L 758.750625 332.94775 
L 758.750625 324.54775 
L 734.750625 324.54775 
z
" style="fill: #802f95; fill-opacity: 0.75; stroke: #000000; stroke-width: 1.1; stroke-linejoin: miter"/>
    </g>
    <g id="text_74">
     <!-- Evolved -->
     <g transform="translate(768.350625 332.94775) scale(0.12 -0.12)">
      <use xlink:href="#DejaVuSans-45"/>
      <use xlink:href="#DejaVuSans-76" x="63.183594"/>
      <use xlink:href="#DejaVuSans-6f" x="122.363281"/>
      <use xlink:href="#DejaVuSans-6c" x="183.544922"/>
      <use xlink:href="#DejaVuSans-76" x="211.328125"/>
      <use xlink:href="#DejaVuSans-65" x="270.507812"/>
      <use xlink:href="#DejaVuSans-64" x="332.03125"/>
     </g>
    </g>
    <g id="patch_37">
     <path d="M 734.750625 350.5615 
L 758.750625 350.5615 
L 758.750625 342.1615 
L 734.750625 342.1615 
z
" style="fill: #808080; fill-opacity: 0.4; stroke: #000000; stroke-width: 1.1; stroke-linejoin: miter"/>
    </g>
    <g id="text_75">
     <!-- Ancestor -->
     <g transform="translate(768.350625 350.5615) scale(0.12 -0.12)">
      <use xlink:href="#DejaVuSans-41"/>
      <use xlink:href="#DejaVuSans-6e" x="68.408203"/>
      <use xlink:href="#DejaVuSans-63" x="131.787109"/>
      <use xlink:href="#DejaVuSans-65" x="186.767578"/>
      <use xlink:href="#DejaVuSans-73" x="248.291016"/>
      <use xlink:href="#DejaVuSans-74" x="300.390625"/>
      <use xlink:href="#DejaVuSans-6f" x="339.599609"/>
      <use xlink:href="#DejaVuSans-72" x="400.78125"/>
     </g>
    </g>
    <g id="line2d_76">
     <path d="M 734.750625 363.97525 
L 758.750625 363.97525 
" style="fill: none; stroke: #ff4126; stroke-width: 1.1; stroke-linecap: square"/>
    </g>
    <g id="text_76">
     <!-- Anc DFE -->
     <g transform="translate(768.350625 368.17525) scale(0.12 -0.12)">
      <use xlink:href="#DejaVuSans-41"/>
      <use xlink:href="#DejaVuSans-6e" x="68.408203"/>
      <use xlink:href="#DejaVuSans-63" x="131.787109"/>
      <use xlink:href="#DejaVuSans-20" x="186.767578"/>
      <use xlink:href="#DejaVuSans-44" x="218.554688"/>
      <use xlink:href="#DejaVuSans-46" x="295.556641"/>
      <use xlink:href="#DejaVuSans-45" x="353.076172"/>
     </g>
    </g>
   </g>
  </g>
 </g>
 <defs>
  <clipPath id="p146f43faf2">
   <rect x="53.4225" y="33.669625" width="355.395" height="180.98"/>
  </clipPath>
  <clipPath id="p019d73e880">
   <rect x="476.7825" y="33.669625" width="355.395" height="180.98"/>
  </clipPath>
  <clipPath id="p7b7c6daa26">
   <rect x="53.4225" y="313.029625" width="355.395" height="180.98"/>
  </clipPath>
  <clipPath id="p0ce708d624">
   <rect x="476.7825" y="313.029625" width="355.395" height="180.98"/>
  </clipPath>
 </defs>
</svg>
