<?xml version="1.0" encoding="utf-8" standalone="no"?>
<!DOCTYPE svg PUBLIC "-//W3C//DTD SVG 1.1//EN"
  "http://www.w3.org/Graphics/SVG/1.1/DTD/svg11.dtd">
<svg xmlns:xlink="http://www.w3.org/1999/xlink" width="843.92125pt" height="553.744pt" viewBox="0 0 843.92125 553.744" xmlns="http://www.w3.org/2000/svg" version="1.1">
 <metadata>
  <rdf:RDF xmlns:dc="http://purl.org/dc/elements/1.1/" xmlns:cc="http://creativecommons.org/ns#" xmlns:rdf="http://www.w3.org/1999/02/22-rdf-syntax-ns#">
   <cc:Work>
    <dc:type rdf:resource="http://purl.org/dc/dcmitype/StillImage"/>
    <dc:date>2025-11-16T16:40:17.295472</dc:date>
    <dc:format>image/svg+xml</dc:format>
    <dc:creator>
     <cc:Agent>
      <dc:title>Matplotlib v3.9.2, https://matplotlib.org/</dc:title>
     </cc:Agent>
    </dc:creator>
   </cc:Work>
  </rdf:RDF>
 </metadata>
 <defs>
  <style type="text/css">*{stroke-linejoin: round; stroke-linecap: butt}</style>
 </defs>
 <g id="figure_1">
  <g id="patch_1">
   <path d="M 0 553.744 
L 843.92125 553.744 
L 843.92125 0 
L 0 0 
z
" style="fill: #ffffff"/>
  </g>
  <g id="axes_1">
   <g id="patch_2">
    <path d="M 53.4225 214.649625 
L 408.8175 214.649625 
L 408.8175 33.669625 
L 53.4225 33.669625 
z
" style="fill: #ffffff"/>
   </g>
   <g id="patch_3">
    <path d="M 137.438243 214.649625 
L 137.438243 196.027734 
L 143.981508 196.027734 
L 143.981508 196.639091 
L 150.524773 196.639091 
L 150.524773 195.416377 
L 157.068038 195.416377 
L 157.068038 195.110699 
L 163.611303 195.110699 
L 163.611303 192.665271 
L 170.154569 192.665271 
L 170.154569 190.525522 
L 176.697834 190.525522 
L 176.697834 187.774416 
L 183.241099 187.774416 
L 183.241099 184.106274 
L 189.784364 184.106274 
L 189.784364 173.713207 
L 196.327629 173.713207 
L 196.327629 168.516673 
L 202.870894 168.516673 
L 202.870894 151.093001 
L 209.414159 151.093001 
L 209.414159 136.114756 
L 215.957424 136.114756 
L 215.957424 78.952884 
L 222.500689 78.952884 
L 222.500689 77.424492 
L 229.043954 77.424492 
L 229.043954 114.411586 
L 235.587219 114.411586 
L 235.587219 165.765567 
L 242.130485 165.765567 
L 242.130485 182.272204 
L 248.67375 182.272204 
L 248.67375 188.080094 
L 255.217015 188.080094 
L 255.217015 193.276628 
L 261.76028 193.276628 
L 261.76028 196.333413 
L 268.303545 196.333413 
L 268.303545 214.649625 
" clip-path="url(#pb06a0660a6)" style="fill: #802f95; fill-opacity: 0.75; stroke: #000000; stroke-width: 1.1; stroke-linejoin: miter"/>
   </g>
   <g id="patch_4">
    <path d="M 154.228478 214.649625 
L 154.228478 195.463787 
L 157.835505 195.463787 
L 157.835505 195.463787 
L 161.442531 195.463787 
L 161.442531 193.065769 
L 165.049558 193.065769 
L 165.049558 191.626958 
L 168.656584 191.626958 
L 168.656584 194.024976 
L 172.263611 194.024976 
L 172.263611 189.22894 
L 175.870637 189.22894 
L 175.870637 182.994092 
L 179.477664 182.994092 
L 179.477664 190.667751 
L 183.084691 190.667751 
L 183.084691 186.830921 
L 186.691717 186.830921 
L 186.691717 180.596074 
L 190.298744 180.596074 
L 190.298744 178.198056 
L 193.90577 178.198056 
L 193.90577 168.605983 
L 197.512797 168.605983 
L 197.512797 172.922416 
L 201.119823 172.922416 
L 201.119823 157.575099 
L 204.72685 157.575099 
L 204.72685 145.585008 
L 208.333876 145.585008 
L 208.333876 150.381045 
L 211.940903 150.381045 
L 211.940903 131.676503 
L 215.547929 131.676503 
L 215.547929 94.747022 
L 219.154956 94.747022 
L 219.154956 73.164859 
L 222.761982 73.164859 
L 222.761982 69.807633 
L 226.369009 69.807633 
L 226.369009 89.471382 
L 229.976035 89.471382 
L 229.976035 109.614735 
L 233.583062 109.614735 
L 233.583062 138.870557 
L 237.190088 138.870557 
L 237.190088 163.330343 
L 240.797115 163.330343 
L 240.797115 171.963209 
L 244.404141 171.963209 
L 244.404141 180.596074 
L 248.011168 180.596074 
L 248.011168 187.310525 
L 251.618195 187.310525 
L 251.618195 188.749336 
L 255.225221 188.749336 
L 255.225221 192.586165 
L 258.832248 192.586165 
L 258.832248 194.984183 
L 262.439274 194.984183 
L 262.439274 214.649625 
" clip-path="url(#pb06a0660a6)" style="fill: none; stroke: #ff4126; stroke-width: 1.1; stroke-linejoin: miter"/>
   </g>
   <g id="patch_5">
    <path d="M 53.4225 214.649625 
L 408.8175 214.649625 
L 408.8175 197.861805 
L 53.4225 197.861805 
z
" clip-path="url(#pb06a0660a6)" style="fill: #ffffff"/>
   </g>
   <g id="patch_6">
    <path d="M 42.471729 214.649625 
L 42.471729 213.618432 
L 52.125108 213.618432 
L 52.125108 214.030909 
L 61.778487 214.030909 
L 61.778487 214.030909 
L 71.431866 214.030909 
L 71.431866 214.649625 
L 81.085244 214.649625 
L 81.085244 214.649625 
L 90.738623 214.649625 
L 90.738623 213.412194 
L 100.392002 213.412194 
L 100.392002 214.649625 
L 110.045381 214.649625 
L 110.045381 214.649625 
L 119.698759 214.649625 
L 119.698759 214.030909 
L 129.352138 214.030909 
L 129.352138 214.030909 
L 139.005517 214.030909 
L 139.005517 212.793478 
L 148.658896 212.793478 
L 148.658896 212.381001 
L 158.312274 212.381001 
L 158.312274 210.318615 
L 167.965653 210.318615 
L 167.965653 210.524854 
L 177.619032 210.524854 
L 177.619032 204.337696 
L 187.272411 204.337696 
L 187.272411 197.119346 
L 196.92579 197.119346 
L 196.92579 179.382829 
L 206.579168 179.382829 
L 206.579168 150.509429 
L 216.232547 150.509429 
L 216.232547 62.033081 
L 225.885926 62.033081 
L 225.885926 109.88043 
L 235.539305 109.88043 
L 235.539305 214.649625 
" clip-path="url(#pb06a0660a6)" style="fill: #808080; fill-opacity: 0.4; stroke: #000000; stroke-width: 1.1; stroke-linejoin: miter"/>
   </g>
   <g id="matplotlib.axis_1">
    <g id="xtick_1">
     <g id="line2d_1">
      <defs>
       <path id="mf01ed977e3" d="M 0 0 
L 0 6 
" style="stroke: #000000; stroke-width: 1.5"/>
      </defs>
      <g>
       <use xlink:href="#mf01ed977e3" x="53.4225" y="224.649625" style="stroke: #000000; stroke-width: 1.5"/>
      </g>
     </g>
     <g id="text_1">
      <!-- −6 -->
      <g transform="translate(43.102969 244.787437) scale(0.14 -0.14)">
       <defs>
        <path id="DejaVuSans-2212" d="M 678 2272 
L 4684 2272 
L 4684 1741 
L 678 1741 
L 678 2272 
z
" transform="scale(0.015625)"/>
        <path id="DejaVuSans-36" d="M 2113 2584 
Q 1688 2584 1439 2293 
Q 1191 2003 1191 1497 
Q 1191 994 1439 701 
Q 1688 409 2113 409 
Q 2538 409 2786 701 
Q 3034 994 3034 1497 
Q 3034 2003 2786 2293 
Q 2538 2584 2113 2584 
z
M 3366 4563 
L 3366 3988 
Q 3128 4100 2886 4159 
Q 2644 4219 2406 4219 
Q 1781 4219 1451 3797 
Q 1122 3375 1075 2522 
Q 1259 2794 1537 2939 
Q 1816 3084 2150 3084 
Q 2853 3084 3261 2657 
Q 3669 2231 3669 1497 
Q 3669 778 3244 343 
Q 2819 -91 2113 -91 
Q 1303 -91 875 529 
Q 447 1150 447 2328 
Q 447 3434 972 4092 
Q 1497 4750 2381 4750 
Q 2619 4750 2861 4703 
Q 3103 4656 3366 4563 
z
" transform="scale(0.015625)"/>
       </defs>
       <use xlink:href="#DejaVuSans-2212"/>
       <use xlink:href="#DejaVuSans-36" x="83.789062"/>
      </g>
     </g>
    </g>
    <g id="xtick_2">
     <g id="line2d_2">
      <g>
       <use xlink:href="#mf01ed977e3" x="112.655" y="224.649625" style="stroke: #000000; stroke-width: 1.5"/>
      </g>
     </g>
     <g id="text_2">
      <!-- −4 -->
      <g transform="translate(102.335469 244.787437) scale(0.14 -0.14)">
       <defs>
        <path id="DejaVuSans-34" d="M 2419 4116 
L 825 1625 
L 2419 1625 
L 2419 4116 
z
M 2253 4666 
L 3047 4666 
L 3047 1625 
L 3713 1625 
L 3713 1100 
L 3047 1100 
L 3047 0 
L 2419 0 
L 2419 1100 
L 313 1100 
L 313 1709 
L 2253 4666 
z
" transform="scale(0.015625)"/>
       </defs>
       <use xlink:href="#DejaVuSans-2212"/>
       <use xlink:href="#DejaVuSans-34" x="83.789062"/>
      </g>
     </g>
    </g>
    <g id="xtick_3">
     <g id="line2d_3">
      <g>
       <use xlink:href="#mf01ed977e3" x="171.8875" y="224.649625" style="stroke: #000000; stroke-width: 1.5"/>
      </g>
     </g>
     <g id="text_3">
      <!-- −2 -->
      <g transform="translate(161.567969 244.787437) scale(0.14 -0.14)">
       <defs>
        <path id="DejaVuSans-32" d="M 1228 531 
L 3431 531 
L 3431 0 
L 469 0 
L 469 531 
Q 828 903 1448 1529 
Q 2069 2156 2228 2338 
Q 2531 2678 2651 2914 
Q 2772 3150 2772 3378 
Q 2772 3750 2511 3984 
Q 2250 4219 1831 4219 
Q 1534 4219 1204 4116 
Q 875 4013 500 3803 
L 500 4441 
Q 881 4594 1212 4672 
Q 1544 4750 1819 4750 
Q 2544 4750 2975 4387 
Q 3406 4025 3406 3419 
Q 3406 3131 3298 2873 
Q 3191 2616 2906 2266 
Q 2828 2175 2409 1742 
Q 1991 1309 1228 531 
z
" transform="scale(0.015625)"/>
       </defs>
       <use xlink:href="#DejaVuSans-2212"/>
       <use xlink:href="#DejaVuSans-32" x="83.789062"/>
      </g>
     </g>
    </g>
    <g id="xtick_4">
     <g id="line2d_4">
      <g>
       <use xlink:href="#mf01ed977e3" x="231.12" y="224.649625" style="stroke: #000000; stroke-width: 1.5"/>
      </g>
     </g>
     <g id="text_4">
      <!-- 0 -->
      <g transform="translate(226.66625 244.787437) scale(0.14 -0.14)">
       <defs>
        <path id="DejaVuSans-30" d="M 2034 4250 
Q 1547 4250 1301 3770 
Q 1056 3291 1056 2328 
Q 1056 1369 1301 889 
Q 1547 409 2034 409 
Q 2525 409 2770 889 
Q 3016 1369 3016 2328 
Q 3016 3291 2770 3770 
Q 2525 4250 2034 4250 
z
M 2034 4750 
Q 2819 4750 3233 4129 
Q 3647 3509 3647 2328 
Q 3647 1150 3233 529 
Q 2819 -91 2034 -91 
Q 1250 -91 836 529 
Q 422 1150 422 2328 
Q 422 3509 836 4129 
Q 1250 4750 2034 4750 
z
" transform="scale(0.015625)"/>
       </defs>
       <use xlink:href="#DejaVuSans-30"/>
      </g>
     </g>
    </g>
    <g id="xtick_5">
     <g id="line2d_5">
      <g>
       <use xlink:href="#mf01ed977e3" x="290.3525" y="224.649625" style="stroke: #000000; stroke-width: 1.5"/>
      </g>
     </g>
     <g id="text_5">
      <!-- 2 -->
      <g transform="translate(285.89875 244.787437) scale(0.14 -0.14)">
       <use xlink:href="#DejaVuSans-32"/>
      </g>
     </g>
    </g>
    <g id="xtick_6">
     <g id="line2d_6">
      <g>
       <use xlink:href="#mf01ed977e3" x="349.585" y="224.649625" style="stroke: #000000; stroke-width: 1.5"/>
      </g>
     </g>
     <g id="text_6">
      <!-- 4 -->
      <g transform="translate(345.13125 244.787437) scale(0.14 -0.14)">
       <use xlink:href="#DejaVuSans-34"/>
      </g>
     </g>
    </g>
    <g id="xtick_7">
     <g id="line2d_7">
      <g>
       <use xlink:href="#mf01ed977e3" x="408.8175" y="224.649625" style="stroke: #000000; stroke-width: 1.5"/>
      </g>
     </g>
     <g id="text_7">
      <!-- 6 -->
      <g transform="translate(404.36375 244.787437) scale(0.14 -0.14)">
       <use xlink:href="#DejaVuSans-36"/>
      </g>
     </g>
    </g>
    <g id="text_8">
     <!-- Fitness effect $(\Delta)$ -->
     <g transform="translate(162.96 263.8565) scale(0.16 -0.16)">
      <defs>
       <path id="DejaVuSans-46" d="M 628 4666 
L 3309 4666 
L 3309 4134 
L 1259 4134 
L 1259 2759 
L 3109 2759 
L 3109 2228 
L 1259 2228 
L 1259 0 
L 628 0 
L 628 4666 
z
" transform="scale(0.015625)"/>
       <path id="DejaVuSans-69" d="M 603 3500 
L 1178 3500 
L 1178 0 
L 603 0 
L 603 3500 
z
M 603 4863 
L 1178 4863 
L 1178 4134 
L 603 4134 
L 603 4863 
z
" transform="scale(0.015625)"/>
       <path id="DejaVuSans-74" d="M 1172 4494 
L 1172 3500 
L 2356 3500 
L 2356 3053 
L 1172 3053 
L 1172 1153 
Q 1172 725 1289 603 
Q 1406 481 1766 481 
L 2356 481 
L 2356 0 
L 1766 0 
Q 1100 0 847 248 
Q 594 497 594 1153 
L 594 3053 
L 172 3053 
L 172 3500 
L 594 3500 
L 594 4494 
L 1172 4494 
z
" transform="scale(0.015625)"/>
       <path id="DejaVuSans-6e" d="M 3513 2113 
L 3513 0 
L 2938 0 
L 2938 2094 
Q 2938 2591 2744 2837 
Q 2550 3084 2163 3084 
Q 1697 3084 1428 2787 
Q 1159 2491 1159 1978 
L 1159 0 
L 581 0 
L 581 3500 
L 1159 3500 
L 1159 2956 
Q 1366 3272 1645 3428 
Q 1925 3584 2291 3584 
Q 2894 3584 3203 3211 
Q 3513 2838 3513 2113 
z
" transform="scale(0.015625)"/>
       <path id="DejaVuSans-65" d="M 3597 1894 
L 3597 1613 
L 953 1613 
Q 991 1019 1311 708 
Q 1631 397 2203 397 
Q 2534 397 2845 478 
Q 3156 559 3463 722 
L 3463 178 
Q 3153 47 2828 -22 
Q 2503 -91 2169 -91 
Q 1331 -91 842 396 
Q 353 884 353 1716 
Q 353 2575 817 3079 
Q 1281 3584 2069 3584 
Q 2775 3584 3186 3129 
Q 3597 2675 3597 1894 
z
M 3022 2063 
Q 3016 2534 2758 2815 
Q 2500 3097 2075 3097 
Q 1594 3097 1305 2825 
Q 1016 2553 972 2059 
L 3022 2063 
z
" transform="scale(0.015625)"/>
       <path id="DejaVuSans-73" d="M 2834 3397 
L 2834 2853 
Q 2591 2978 2328 3040 
Q 2066 3103 1784 3103 
Q 1356 3103 1142 2972 
Q 928 2841 928 2578 
Q 928 2378 1081 2264 
Q 1234 2150 1697 2047 
L 1894 2003 
Q 2506 1872 2764 1633 
Q 3022 1394 3022 966 
Q 3022 478 2636 193 
Q 2250 -91 1575 -91 
Q 1294 -91 989 -36 
Q 684 19 347 128 
L 347 722 
Q 666 556 975 473 
Q 1284 391 1588 391 
Q 1994 391 2212 530 
Q 2431 669 2431 922 
Q 2431 1156 2273 1281 
Q 2116 1406 1581 1522 
L 1381 1569 
Q 847 1681 609 1914 
Q 372 2147 372 2553 
Q 372 3047 722 3315 
Q 1072 3584 1716 3584 
Q 2034 3584 2315 3537 
Q 2597 3491 2834 3397 
z
" transform="scale(0.015625)"/>
       <path id="DejaVuSans-20" transform="scale(0.015625)"/>
       <path id="DejaVuSans-66" d="M 2375 4863 
L 2375 4384 
L 1825 4384 
Q 1516 4384 1395 4259 
Q 1275 4134 1275 3809 
L 1275 3500 
L 2222 3500 
L 2222 3053 
L 1275 3053 
L 1275 0 
L 697 0 
L 697 3053 
L 147 3053 
L 147 3500 
L 697 3500 
L 697 3744 
Q 697 4328 969 4595 
Q 1241 4863 1831 4863 
L 2375 4863 
z
" transform="scale(0.015625)"/>
       <path id="DejaVuSans-63" d="M 3122 3366 
L 3122 2828 
Q 2878 2963 2633 3030 
Q 2388 3097 2138 3097 
Q 1578 3097 1268 2742 
Q 959 2388 959 1747 
Q 959 1106 1268 751 
Q 1578 397 2138 397 
Q 2388 397 2633 464 
Q 2878 531 3122 666 
L 3122 134 
Q 2881 22 2623 -34 
Q 2366 -91 2075 -91 
Q 1284 -91 818 406 
Q 353 903 353 1747 
Q 353 2603 823 3093 
Q 1294 3584 2113 3584 
Q 2378 3584 2631 3529 
Q 2884 3475 3122 3366 
z
" transform="scale(0.015625)"/>
       <path id="DejaVuSans-28" d="M 1984 4856 
Q 1566 4138 1362 3434 
Q 1159 2731 1159 2009 
Q 1159 1288 1364 580 
Q 1569 -128 1984 -844 
L 1484 -844 
Q 1016 -109 783 600 
Q 550 1309 550 2009 
Q 550 2706 781 3412 
Q 1013 4119 1484 4856 
L 1984 4856 
z
" transform="scale(0.015625)"/>
       <path id="DejaVuSans-394" d="M 2188 4044 
L 906 525 
L 3472 525 
L 2188 4044 
z
M 50 0 
L 1831 4666 
L 2547 4666 
L 4325 0 
L 50 0 
z
" transform="scale(0.015625)"/>
       <path id="DejaVuSans-29" d="M 513 4856 
L 1013 4856 
Q 1481 4119 1714 3412 
Q 1947 2706 1947 2009 
Q 1947 1309 1714 600 
Q 1481 -109 1013 -844 
L 513 -844 
Q 928 -128 1133 580 
Q 1338 1288 1338 2009 
Q 1338 2731 1133 3434 
Q 928 4138 513 4856 
z
" transform="scale(0.015625)"/>
      </defs>
      <use xlink:href="#DejaVuSans-46" transform="translate(0 0.015625)"/>
      <use xlink:href="#DejaVuSans-69" transform="translate(57.519531 0.015625)"/>
      <use xlink:href="#DejaVuSans-74" transform="translate(85.302734 0.015625)"/>
      <use xlink:href="#DejaVuSans-6e" transform="translate(124.511719 0.015625)"/>
      <use xlink:href="#DejaVuSans-65" transform="translate(187.890625 0.015625)"/>
      <use xlink:href="#DejaVuSans-73" transform="translate(249.414062 0.015625)"/>
      <use xlink:href="#DejaVuSans-73" transform="translate(301.513672 0.015625)"/>
      <use xlink:href="#DejaVuSans-20" transform="translate(353.613281 0.015625)"/>
      <use xlink:href="#DejaVuSans-65" transform="translate(385.400391 0.015625)"/>
      <use xlink:href="#DejaVuSans-66" transform="translate(446.923828 0.015625)"/>
      <use xlink:href="#DejaVuSans-66" transform="translate(482.128906 0.015625)"/>
      <use xlink:href="#DejaVuSans-65" transform="translate(517.333984 0.015625)"/>
      <use xlink:href="#DejaVuSans-63" transform="translate(578.857422 0.015625)"/>
      <use xlink:href="#DejaVuSans-74" transform="translate(633.837891 0.015625)"/>
      <use xlink:href="#DejaVuSans-20" transform="translate(673.046875 0.015625)"/>
      <use xlink:href="#DejaVuSans-28" transform="translate(704.833984 0.015625)"/>
      <use xlink:href="#DejaVuSans-394" transform="translate(743.847656 0.015625)"/>
      <use xlink:href="#DejaVuSans-29" transform="translate(812.255859 0.015625)"/>
     </g>
    </g>
    <g id="text_9">
     <!-- 1e−2 -->
     <g transform="translate(370.656562 261.336812) scale(0.14 -0.14)">
      <defs>
       <path id="DejaVuSans-31" d="M 794 531 
L 1825 531 
L 1825 4091 
L 703 3866 
L 703 4441 
L 1819 4666 
L 2450 4666 
L 2450 531 
L 3481 531 
L 3481 0 
L 794 0 
L 794 531 
z
" transform="scale(0.015625)"/>
      </defs>
      <use xlink:href="#DejaVuSans-31"/>
      <use xlink:href="#DejaVuSans-65" x="63.623047"/>
      <use xlink:href="#DejaVuSans-2212" x="125.146484"/>
      <use xlink:href="#DejaVuSans-32" x="208.935547"/>
     </g>
    </g>
   </g>
   <g id="matplotlib.axis_2">
    <g id="ytick_1">
     <g id="line2d_8">
      <defs>
       <path id="m940e78fdb0" d="M 0 0 
L -6 0 
" style="stroke: #000000; stroke-width: 1.5"/>
      </defs>
      <g>
       <use xlink:href="#m940e78fdb0" x="43.4225" y="214.649625" style="stroke: #000000; stroke-width: 1.5"/>
      </g>
     </g>
     <g id="text_10">
      <!-- 0 -->
      <g transform="translate(25.015 219.968531) scale(0.14 -0.14)">
       <use xlink:href="#DejaVuSans-30"/>
      </g>
     </g>
    </g>
    <g id="ytick_2">
     <g id="line2d_9">
      <g>
       <use xlink:href="#m940e78fdb0" x="43.4225" y="181.895121" style="stroke: #000000; stroke-width: 1.5"/>
      </g>
     </g>
     <g id="text_11">
      <!-- 25 -->
      <g transform="translate(16.1075 187.214028) scale(0.14 -0.14)">
       <defs>
        <path id="DejaVuSans-35" d="M 691 4666 
L 3169 4666 
L 3169 4134 
L 1269 4134 
L 1269 2991 
Q 1406 3038 1543 3061 
Q 1681 3084 1819 3084 
Q 2600 3084 3056 2656 
Q 3513 2228 3513 1497 
Q 3513 744 3044 326 
Q 2575 -91 1722 -91 
Q 1428 -91 1123 -41 
Q 819 9 494 109 
L 494 744 
Q 775 591 1075 516 
Q 1375 441 1709 441 
Q 2250 441 2565 725 
Q 2881 1009 2881 1497 
Q 2881 1984 2565 2268 
Q 2250 2553 1709 2553 
Q 1456 2553 1204 2497 
Q 953 2441 691 2322 
L 691 4666 
z
" transform="scale(0.015625)"/>
       </defs>
       <use xlink:href="#DejaVuSans-32"/>
       <use xlink:href="#DejaVuSans-35" x="63.623047"/>
      </g>
     </g>
    </g>
    <g id="ytick_3">
     <g id="line2d_10">
      <g>
       <use xlink:href="#m940e78fdb0" x="43.4225" y="149.140618" style="stroke: #000000; stroke-width: 1.5"/>
      </g>
     </g>
     <g id="text_12">
      <!-- 50 -->
      <g transform="translate(16.1075 154.459524) scale(0.14 -0.14)">
       <use xlink:href="#DejaVuSans-35"/>
       <use xlink:href="#DejaVuSans-30" x="63.623047"/>
      </g>
     </g>
    </g>
    <g id="ytick_4">
     <g id="line2d_11">
      <g>
       <use xlink:href="#m940e78fdb0" x="43.4225" y="116.386114" style="stroke: #000000; stroke-width: 1.5"/>
      </g>
     </g>
     <g id="text_13">
      <!-- 75 -->
      <g transform="translate(16.1075 121.70502) scale(0.14 -0.14)">
       <defs>
        <path id="DejaVuSans-37" d="M 525 4666 
L 3525 4666 
L 3525 4397 
L 1831 0 
L 1172 0 
L 2766 4134 
L 525 4134 
L 525 4666 
z
" transform="scale(0.015625)"/>
       </defs>
       <use xlink:href="#DejaVuSans-37"/>
       <use xlink:href="#DejaVuSans-35" x="63.623047"/>
      </g>
     </g>
    </g>
    <g id="ytick_5">
     <g id="line2d_12">
      <g>
       <use xlink:href="#m940e78fdb0" x="43.4225" y="83.63161" style="stroke: #000000; stroke-width: 1.5"/>
      </g>
     </g>
     <g id="text_14">
      <!-- 100 -->
      <g transform="translate(7.2 88.950517) scale(0.14 -0.14)">
       <use xlink:href="#DejaVuSans-31"/>
       <use xlink:href="#DejaVuSans-30" x="63.623047"/>
       <use xlink:href="#DejaVuSans-30" x="127.246094"/>
      </g>
     </g>
    </g>
    <g id="ytick_6">
     <g id="line2d_13">
      <g>
       <use xlink:href="#m940e78fdb0" x="43.4225" y="50.877107" style="stroke: #000000; stroke-width: 1.5"/>
      </g>
     </g>
     <g id="text_15">
      <!-- 125 -->
      <g transform="translate(7.2 56.196013) scale(0.14 -0.14)">
       <use xlink:href="#DejaVuSans-31"/>
       <use xlink:href="#DejaVuSans-32" x="63.623047"/>
       <use xlink:href="#DejaVuSans-35" x="127.246094"/>
      </g>
     </g>
    </g>
   </g>
   <g id="line2d_14">
    <path d="M 71.19225 196.183023 
L 391.04775 196.183023 
" clip-path="url(#pb06a0660a6)" style="fill: none; stroke-dasharray: 3.7,1.6; stroke-dashoffset: 0; stroke: #808080"/>
   </g>
   <g id="line2d_15">
    <path d="M 53.4225 215.63226 
L 71.19225 196.183023 
" clip-path="url(#pb06a0660a6)" style="fill: none; stroke-dasharray: 3.7,1.6; stroke-dashoffset: 0; stroke: #808080"/>
   </g>
   <g id="line2d_16">
    <path d="M 408.8175 215.63226 
L 391.04775 196.183023 
" clip-path="url(#pb06a0660a6)" style="fill: none; stroke-dasharray: 3.7,1.6; stroke-dashoffset: 0; stroke: #808080"/>
   </g>
   <g id="line2d_17">
    <path d="M 142.27125 215.63226 
L 151.156125 196.183023 
" clip-path="url(#pb06a0660a6)" style="fill: none; stroke-dasharray: 3.7,1.6; stroke-dashoffset: 0; stroke: #808080"/>
   </g>
   <g id="line2d_18">
    <path d="M 319.96875 215.63226 
L 311.083875 196.183023 
" clip-path="url(#pb06a0660a6)" style="fill: none; stroke-dasharray: 3.7,1.6; stroke-dashoffset: 0; stroke: #808080"/>
   </g>
   <g id="line2d_19">
    <path d="M 231.12 215.63226 
L 231.12 196.183023 
" clip-path="url(#pb06a0660a6)" style="fill: none; stroke-dasharray: 3.7,1.6; stroke-dashoffset: 0; stroke: #808080"/>
   </g>
   <g id="patch_7">
    <path d="M 43.4225 214.649625 
L 43.4225 33.669625 
" style="fill: none; stroke: #000000; stroke-width: 1.5; stroke-linejoin: miter; stroke-linecap: square"/>
   </g>
   <g id="patch_8">
    <path d="M 53.4225 224.649625 
L 408.8175 224.649625 
" style="fill: none; stroke: #000000; stroke-width: 1.5; stroke-linejoin: miter; stroke-linecap: square"/>
   </g>
   <g id="text_16">
    <!-- A -->
    <g transform="translate(17.883 20.877187) scale(0.18 -0.18)">
     <defs>
      <path id="DejaVuSans-Bold-41" d="M 3419 850 
L 1538 850 
L 1241 0 
L 31 0 
L 1759 4666 
L 3194 4666 
L 4922 0 
L 3713 0 
L 3419 850 
z
M 1838 1716 
L 3116 1716 
L 2478 3572 
L 1838 1716 
z
" transform="scale(0.015625)"/>
     </defs>
     <use xlink:href="#DejaVuSans-Bold-41"/>
    </g>
   </g>
   <g id="text_17">
    <!-- $p_{KS} = 0.98$ -->
    <g transform="translate(71.19225 51.812375) scale(0.12 -0.12)">
     <defs>
      <path id="DejaVuSans-Oblique-70" d="M 3175 2156 
Q 3175 2616 2975 2859 
Q 2775 3103 2400 3103 
Q 2144 3103 1911 2972 
Q 1678 2841 1497 2591 
Q 1319 2344 1212 1994 
Q 1106 1644 1106 1300 
Q 1106 863 1306 627 
Q 1506 391 1875 391 
Q 2147 391 2380 519 
Q 2613 647 2778 891 
Q 2956 1147 3065 1494 
Q 3175 1841 3175 2156 
z
M 1394 2969 
Q 1625 3272 1939 3428 
Q 2253 3584 2638 3584 
Q 3175 3584 3472 3232 
Q 3769 2881 3769 2247 
Q 3769 1728 3584 1258 
Q 3400 788 3053 416 
Q 2822 169 2531 39 
Q 2241 -91 1919 -91 
Q 1547 -91 1294 64 
Q 1041 219 916 525 
L 556 -1331 
L -19 -1331 
L 922 3500 
L 1497 3500 
L 1394 2969 
z
" transform="scale(0.015625)"/>
      <path id="DejaVuSans-Oblique-4b" d="M 1081 4666 
L 1716 4666 
L 1331 2700 
L 3781 4666 
L 4622 4666 
L 1850 2438 
L 3878 0 
L 3109 0 
L 1247 2272 
L 806 0 
L 172 0 
L 1081 4666 
z
" transform="scale(0.015625)"/>
      <path id="DejaVuSans-Oblique-53" d="M 3859 4513 
L 3738 3897 
Q 3422 4066 3111 4152 
Q 2800 4238 2509 4238 
Q 1944 4238 1609 3991 
Q 1275 3744 1275 3334 
Q 1275 3109 1398 2989 
Q 1522 2869 2034 2731 
L 2413 2638 
Q 3053 2472 3303 2217 
Q 3553 1963 3553 1503 
Q 3553 797 2998 353 
Q 2444 -91 1538 -91 
Q 1166 -91 791 -17 
Q 416 56 38 206 
L 166 856 
Q 513 641 861 531 
Q 1209 422 1556 422 
Q 2147 422 2503 684 
Q 2859 947 2859 1369 
Q 2859 1650 2717 1795 
Q 2575 1941 2106 2059 
L 1728 2156 
Q 1081 2325 845 2545 
Q 609 2766 609 3163 
Q 609 3859 1145 4304 
Q 1681 4750 2541 4750 
Q 2875 4750 3203 4690 
Q 3531 4631 3859 4513 
z
" transform="scale(0.015625)"/>
      <path id="DejaVuSans-3d" d="M 678 2906 
L 4684 2906 
L 4684 2381 
L 678 2381 
L 678 2906 
z
M 678 1631 
L 4684 1631 
L 4684 1100 
L 678 1100 
L 678 1631 
z
" transform="scale(0.015625)"/>
      <path id="DejaVuSans-2e" d="M 684 794 
L 1344 794 
L 1344 0 
L 684 0 
L 684 794 
z
" transform="scale(0.015625)"/>
      <path id="DejaVuSans-39" d="M 703 97 
L 703 672 
Q 941 559 1184 500 
Q 1428 441 1663 441 
Q 2288 441 2617 861 
Q 2947 1281 2994 2138 
Q 2813 1869 2534 1725 
Q 2256 1581 1919 1581 
Q 1219 1581 811 2004 
Q 403 2428 403 3163 
Q 403 3881 828 4315 
Q 1253 4750 1959 4750 
Q 2769 4750 3195 4129 
Q 3622 3509 3622 2328 
Q 3622 1225 3098 567 
Q 2575 -91 1691 -91 
Q 1453 -91 1209 -44 
Q 966 3 703 97 
z
M 1959 2075 
Q 2384 2075 2632 2365 
Q 2881 2656 2881 3163 
Q 2881 3666 2632 3958 
Q 2384 4250 1959 4250 
Q 1534 4250 1286 3958 
Q 1038 3666 1038 3163 
Q 1038 2656 1286 2365 
Q 1534 2075 1959 2075 
z
" transform="scale(0.015625)"/>
      <path id="DejaVuSans-38" d="M 2034 2216 
Q 1584 2216 1326 1975 
Q 1069 1734 1069 1313 
Q 1069 891 1326 650 
Q 1584 409 2034 409 
Q 2484 409 2743 651 
Q 3003 894 3003 1313 
Q 3003 1734 2745 1975 
Q 2488 2216 2034 2216 
z
M 1403 2484 
Q 997 2584 770 2862 
Q 544 3141 544 3541 
Q 544 4100 942 4425 
Q 1341 4750 2034 4750 
Q 2731 4750 3128 4425 
Q 3525 4100 3525 3541 
Q 3525 3141 3298 2862 
Q 3072 2584 2669 2484 
Q 3125 2378 3379 2068 
Q 3634 1759 3634 1313 
Q 3634 634 3220 271 
Q 2806 -91 2034 -91 
Q 1263 -91 848 271 
Q 434 634 434 1313 
Q 434 1759 690 2068 
Q 947 2378 1403 2484 
z
M 1172 3481 
Q 1172 3119 1398 2916 
Q 1625 2713 2034 2713 
Q 2441 2713 2670 2916 
Q 2900 3119 2900 3481 
Q 2900 3844 2670 4047 
Q 2441 4250 2034 4250 
Q 1625 4250 1398 4047 
Q 1172 3844 1172 3481 
z
" transform="scale(0.015625)"/>
     </defs>
     <use xlink:href="#DejaVuSans-Oblique-70" transform="translate(0 0.78125)"/>
     <use xlink:href="#DejaVuSans-Oblique-4b" transform="translate(63.476562 -15.625) scale(0.7)"/>
     <use xlink:href="#DejaVuSans-Oblique-53" transform="translate(109.379883 -15.625) scale(0.7)"/>
     <use xlink:href="#DejaVuSans-3d" transform="translate(176.030273 0.78125)"/>
     <use xlink:href="#DejaVuSans-30" transform="translate(279.301758 0.78125)"/>
     <use xlink:href="#DejaVuSans-2e" transform="translate(342.924805 0.78125)"/>
     <use xlink:href="#DejaVuSans-39" transform="translate(374.711914 0.78125)"/>
     <use xlink:href="#DejaVuSans-38" transform="translate(438.334961 0.78125)"/>
    </g>
   </g>
   <g id="legend_1">
    <g id="patch_9">
     <path d="M 311.390625 53.58775 
L 335.390625 53.58775 
L 335.390625 45.18775 
L 311.390625 45.18775 
z
" style="fill: #802f95; fill-opacity: 0.75; stroke: #000000; stroke-width: 1.1; stroke-linejoin: miter"/>
    </g>
    <g id="text_18">
     <!-- Evolved -->
     <g transform="translate(344.990625 53.58775) scale(0.12 -0.12)">
      <defs>
       <path id="DejaVuSans-45" d="M 628 4666 
L 3578 4666 
L 3578 4134 
L 1259 4134 
L 1259 2753 
L 3481 2753 
L 3481 2222 
L 1259 2222 
L 1259 531 
L 3634 531 
L 3634 0 
L 628 0 
L 628 4666 
z
" transform="scale(0.015625)"/>
       <path id="DejaVuSans-76" d="M 191 3500 
L 800 3500 
L 1894 563 
L 2988 3500 
L 3597 3500 
L 2284 0 
L 1503 0 
L 191 3500 
z
" transform="scale(0.015625)"/>
       <path id="DejaVuSans-6f" d="M 1959 3097 
Q 1497 3097 1228 2736 
Q 959 2375 959 1747 
Q 959 1119 1226 758 
Q 1494 397 1959 397 
Q 2419 397 2687 759 
Q 2956 1122 2956 1747 
Q 2956 2369 2687 2733 
Q 2419 3097 1959 3097 
z
M 1959 3584 
Q 2709 3584 3137 3096 
Q 3566 2609 3566 1747 
Q 3566 888 3137 398 
Q 2709 -91 1959 -91 
Q 1206 -91 779 398 
Q 353 888 353 1747 
Q 353 2609 779 3096 
Q 1206 3584 1959 3584 
z
" transform="scale(0.015625)"/>
       <path id="DejaVuSans-6c" d="M 603 4863 
L 1178 4863 
L 1178 0 
L 603 0 
L 603 4863 
z
" transform="scale(0.015625)"/>
       <path id="DejaVuSans-64" d="M 2906 2969 
L 2906 4863 
L 3481 4863 
L 3481 0 
L 2906 0 
L 2906 525 
Q 2725 213 2448 61 
Q 2172 -91 1784 -91 
Q 1150 -91 751 415 
Q 353 922 353 1747 
Q 353 2572 751 3078 
Q 1150 3584 1784 3584 
Q 2172 3584 2448 3432 
Q 2725 3281 2906 2969 
z
M 947 1747 
Q 947 1113 1208 752 
Q 1469 391 1925 391 
Q 2381 391 2643 752 
Q 2906 1113 2906 1747 
Q 2906 2381 2643 2742 
Q 2381 3103 1925 3103 
Q 1469 3103 1208 2742 
Q 947 2381 947 1747 
z
" transform="scale(0.015625)"/>
      </defs>
      <use xlink:href="#DejaVuSans-45"/>
      <use xlink:href="#DejaVuSans-76" x="63.183594"/>
      <use xlink:href="#DejaVuSans-6f" x="122.363281"/>
      <use xlink:href="#DejaVuSans-6c" x="183.544922"/>
      <use xlink:href="#DejaVuSans-76" x="211.328125"/>
      <use xlink:href="#DejaVuSans-65" x="270.507812"/>
      <use xlink:href="#DejaVuSans-64" x="332.03125"/>
     </g>
    </g>
    <g id="line2d_20">
     <path d="M 311.390625 67.0015 
L 335.390625 67.0015 
" style="fill: none; stroke: #ff4126; stroke-width: 1.1; stroke-linecap: square"/>
    </g>
    <g id="text_19">
     <!-- DFE Evo -->
     <g transform="translate(344.990625 71.2015) scale(0.12 -0.12)">
      <defs>
       <path id="DejaVuSans-44" d="M 1259 4147 
L 1259 519 
L 2022 519 
Q 2988 519 3436 956 
Q 3884 1394 3884 2338 
Q 3884 3275 3436 3711 
Q 2988 4147 2022 4147 
L 1259 4147 
z
M 628 4666 
L 1925 4666 
Q 3281 4666 3915 4102 
Q 4550 3538 4550 2338 
Q 4550 1131 3912 565 
Q 3275 0 1925 0 
L 628 0 
L 628 4666 
z
" transform="scale(0.015625)"/>
      </defs>
      <use xlink:href="#DejaVuSans-44"/>
      <use xlink:href="#DejaVuSans-46" x="77.001953"/>
      <use xlink:href="#DejaVuSans-45" x="134.521484"/>
      <use xlink:href="#DejaVuSans-20" x="197.705078"/>
      <use xlink:href="#DejaVuSans-45" x="229.492188"/>
      <use xlink:href="#DejaVuSans-76" x="292.675781"/>
      <use xlink:href="#DejaVuSans-6f" x="351.855469"/>
     </g>
    </g>
    <g id="patch_10">
     <path d="M 311.390625 88.81525 
L 335.390625 88.81525 
L 335.390625 80.41525 
L 311.390625 80.41525 
z
" style="fill: #808080; fill-opacity: 0.4; stroke: #000000; stroke-width: 1.1; stroke-linejoin: miter"/>
    </g>
    <g id="text_20">
     <!-- Ancestor -->
     <g transform="translate(344.990625 88.81525) scale(0.12 -0.12)">
      <defs>
       <path id="DejaVuSans-41" d="M 2188 4044 
L 1331 1722 
L 3047 1722 
L 2188 4044 
z
M 1831 4666 
L 2547 4666 
L 4325 0 
L 3669 0 
L 3244 1197 
L 1141 1197 
L 716 0 
L 50 0 
L 1831 4666 
z
" transform="scale(0.015625)"/>
       <path id="DejaVuSans-72" d="M 2631 2963 
Q 2534 3019 2420 3045 
Q 2306 3072 2169 3072 
Q 1681 3072 1420 2755 
Q 1159 2438 1159 1844 
L 1159 0 
L 581 0 
L 581 3500 
L 1159 3500 
L 1159 2956 
Q 1341 3275 1631 3429 
Q 1922 3584 2338 3584 
Q 2397 3584 2469 3576 
Q 2541 3569 2628 3553 
L 2631 2963 
z
" transform="scale(0.015625)"/>
      </defs>
      <use xlink:href="#DejaVuSans-41"/>
      <use xlink:href="#DejaVuSans-6e" x="68.408203"/>
      <use xlink:href="#DejaVuSans-63" x="131.787109"/>
      <use xlink:href="#DejaVuSans-65" x="186.767578"/>
      <use xlink:href="#DejaVuSans-73" x="248.291016"/>
      <use xlink:href="#DejaVuSans-74" x="300.390625"/>
      <use xlink:href="#DejaVuSans-6f" x="339.599609"/>
      <use xlink:href="#DejaVuSans-72" x="400.78125"/>
     </g>
    </g>
   </g>
  </g>
  <g id="axes_2">
   <g id="patch_11">
    <path d="M 476.8725 214.649625 
L 832.2675 214.649625 
L 832.2675 33.669625 
L 476.8725 33.669625 
z
" style="fill: #ffffff"/>
   </g>
   <g id="patch_12">
    <path d="M 519.096701 214.649625 
L 519.096701 198.429787 
L 526.089086 198.429787 
L 526.089086 199.250076 
L 533.08147 199.250076 
L 533.08147 198.703217 
L 540.073855 198.703217 
L 540.073855 198.429787 
L 547.066239 198.429787 
L 547.066239 197.882928 
L 554.058624 197.882928 
L 554.058624 198.156358 
L 561.051008 198.156358 
L 561.051008 198.703217 
L 568.043392 198.703217 
L 568.043392 197.609499 
L 575.035777 197.609499 
L 575.035777 196.789211 
L 582.028161 196.789211 
L 582.028161 195.695493 
L 589.020546 195.695493 
L 589.020546 195.422063 
L 596.01293 195.422063 
L 596.01293 193.508057 
L 603.005315 193.508057 
L 603.005315 188.859755 
L 609.997699 188.859755 
L 609.997699 187.766037 
L 616.990083 187.766037 
L 616.990083 181.477159 
L 623.982468 181.477159 
L 623.982468 171.360268 
L 630.974852 171.360268 
L 630.974852 159.32937 
L 637.967237 159.32937 
L 637.967237 142.9236 
L 644.959621 142.9236 
L 644.959621 99.99517 
L 651.952006 99.99517 
L 651.952006 59.254175 
L 658.94439 59.254175 
L 658.94439 214.649625 
" clip-path="url(#p90f69c9304)" style="fill: #802f95; fill-opacity: 0.75; stroke: #000000; stroke-width: 1.1; stroke-linejoin: miter"/>
   </g>
   <g id="patch_13">
    <path d="M 476.8725 214.649625 
L 832.2675 214.649625 
L 832.2675 199.250076 
L 476.8725 199.250076 
z
" clip-path="url(#p90f69c9304)" style="fill: #ffffff"/>
   </g>
   <g id="patch_14">
    <path d="M 358.017285 214.649625 
L 358.017285 214.349434 
L 370.887667 214.349434 
L 370.887667 214.649625 
L 383.75805 214.649625 
L 383.75805 214.649625 
L 396.628433 214.649625 
L 396.628433 214.649625 
L 409.498816 214.649625 
L 409.498816 214.649625 
L 422.369199 214.649625 
L 422.369199 214.649625 
L 435.239581 214.649625 
L 435.239581 214.649625 
L 448.109964 214.649625 
L 448.109964 213.899147 
L 460.980347 213.899147 
L 460.980347 214.349434 
L 473.85073 214.349434 
L 473.85073 213.899147 
L 486.721112 213.899147 
L 486.721112 214.349434 
L 499.591495 214.349434 
L 499.591495 214.049242 
L 512.461878 214.049242 
L 512.461878 213.899147 
L 525.332261 213.899147 
L 525.332261 214.649625 
L 538.202644 214.649625 
L 538.202644 214.199338 
L 551.073026 214.199338 
L 551.073026 212.848477 
L 563.943409 212.848477 
L 563.943409 212.848477 
L 576.813792 212.848477 
L 576.813792 210.897234 
L 589.684175 210.897234 
L 589.684175 207.745226 
L 602.554558 207.745226 
L 602.554558 198.289201 
L 615.42494 198.289201 
L 615.42494 184.330307 
L 628.295323 184.330307 
L 628.295323 121.890523 
L 641.165706 121.890523 
L 641.165706 162.416344 
L 654.036089 162.416344 
L 654.036089 202.641974 
L 666.906472 202.641974 
L 666.906472 209.096087 
L 679.776854 209.096087 
L 679.776854 212.698382 
L 692.647237 212.698382 
L 692.647237 214.199338 
L 705.51762 214.199338 
L 705.51762 213.899147 
L 718.388003 213.899147 
L 718.388003 214.649625 
L 731.258386 214.649625 
L 731.258386 214.349434 
L 744.128768 214.349434 
L 744.128768 214.649625 
" clip-path="url(#p90f69c9304)" style="fill: #808080; fill-opacity: 0.4; stroke: #000000; stroke-width: 1.1; stroke-linejoin: miter"/>
   </g>
   <g id="patch_15">
    <path d="M 457.036854 214.649625 
L 457.036854 213.610661 
L 464.734125 213.610661 
L 464.734125 214.649625 
L 472.431396 214.649625 
L 472.431396 214.649625 
L 480.128667 214.649625 
L 480.128667 214.649625 
L 487.825938 214.649625 
L 487.825938 214.649625 
L 495.523209 214.649625 
L 495.523209 214.649625 
L 503.22048 214.649625 
L 503.22048 214.649625 
L 510.917751 214.649625 
L 510.917751 214.649625 
L 518.615022 214.649625 
L 518.615022 214.649625 
L 526.312293 214.649625 
L 526.312293 214.649625 
L 534.009564 214.649625 
L 534.009564 214.649625 
L 541.706835 214.649625 
L 541.706835 214.649625 
L 549.404106 214.649625 
L 549.404106 213.783822 
L 557.101376 213.783822 
L 557.101376 213.783822 
L 564.798647 213.783822 
L 564.798647 213.4375 
L 572.495918 213.4375 
L 572.495918 212.744858 
L 580.193189 212.744858 
L 580.193189 211.186411 
L 587.89046 211.186411 
L 587.89046 210.493769 
L 595.587731 210.493769 
L 595.587731 206.511073 
L 603.285002 206.511073 
L 603.285002 204.259984 
L 610.982273 204.259984 
L 610.982273 191.619255 
L 618.679544 191.619255 
L 618.679544 181.575935 
L 626.376815 181.575935 
L 626.376815 152.13862 
L 634.074086 152.13862 
L 634.074086 101.748862 
L 641.771357 101.748862 
L 641.771357 148.502245 
L 649.468628 148.502245 
L 649.468628 187.98288 
L 657.165899 187.98288 
L 657.165899 198.892003 
L 664.86317 198.892003 
L 664.86317 206.511073 
L 672.560441 206.511073 
L 672.560441 211.013251 
L 680.257712 211.013251 
L 680.257712 212.052215 
L 687.954982 212.052215 
L 687.954982 214.649625 
" clip-path="url(#p90f69c9304)" style="fill: none; stroke: #ff4126; stroke-width: 1.1; stroke-linejoin: miter"/>
   </g>
   <g id="matplotlib.axis_3">
    <g id="xtick_8">
     <g id="line2d_21">
      <g>
       <use xlink:href="#mf01ed977e3" x="476.8725" y="224.649625" style="stroke: #000000; stroke-width: 1.5"/>
      </g>
     </g>
     <g id="text_21">
      <!-- −6 -->
      <g transform="translate(466.552969 244.787437) scale(0.14 -0.14)">
       <use xlink:href="#DejaVuSans-2212"/>
       <use xlink:href="#DejaVuSans-36" x="83.789062"/>
      </g>
     </g>
    </g>
    <g id="xtick_9">
     <g id="line2d_22">
      <g>
       <use xlink:href="#mf01ed977e3" x="536.105" y="224.649625" style="stroke: #000000; stroke-width: 1.5"/>
      </g>
     </g>
     <g id="text_22">
      <!-- −4 -->
      <g transform="translate(525.785469 244.787437) scale(0.14 -0.14)">
       <use xlink:href="#DejaVuSans-2212"/>
       <use xlink:href="#DejaVuSans-34" x="83.789062"/>
      </g>
     </g>
    </g>
    <g id="xtick_10">
     <g id="line2d_23">
      <g>
       <use xlink:href="#mf01ed977e3" x="595.3375" y="224.649625" style="stroke: #000000; stroke-width: 1.5"/>
      </g>
     </g>
     <g id="text_23">
      <!-- −2 -->
      <g transform="translate(585.017969 244.787437) scale(0.14 -0.14)">
       <use xlink:href="#DejaVuSans-2212"/>
       <use xlink:href="#DejaVuSans-32" x="83.789062"/>
      </g>
     </g>
    </g>
    <g id="xtick_11">
     <g id="line2d_24">
      <g>
       <use xlink:href="#mf01ed977e3" x="654.57" y="224.649625" style="stroke: #000000; stroke-width: 1.5"/>
      </g>
     </g>
     <g id="text_24">
      <!-- 0 -->
      <g transform="translate(650.11625 244.787437) scale(0.14 -0.14)">
       <use xlink:href="#DejaVuSans-30"/>
      </g>
     </g>
    </g>
    <g id="xtick_12">
     <g id="line2d_25">
      <g>
       <use xlink:href="#mf01ed977e3" x="713.8025" y="224.649625" style="stroke: #000000; stroke-width: 1.5"/>
      </g>
     </g>
     <g id="text_25">
      <!-- 2 -->
      <g transform="translate(709.34875 244.787437) scale(0.14 -0.14)">
       <use xlink:href="#DejaVuSans-32"/>
      </g>
     </g>
    </g>
    <g id="xtick_13">
     <g id="line2d_26">
      <g>
       <use xlink:href="#mf01ed977e3" x="773.035" y="224.649625" style="stroke: #000000; stroke-width: 1.5"/>
      </g>
     </g>
     <g id="text_26">
      <!-- 4 -->
      <g transform="translate(768.58125 244.787437) scale(0.14 -0.14)">
       <use xlink:href="#DejaVuSans-34"/>
      </g>
     </g>
    </g>
    <g id="xtick_14">
     <g id="line2d_27">
      <g>
       <use xlink:href="#mf01ed977e3" x="832.2675" y="224.649625" style="stroke: #000000; stroke-width: 1.5"/>
      </g>
     </g>
     <g id="text_27">
      <!-- 6 -->
      <g transform="translate(827.81375 244.787437) scale(0.14 -0.14)">
       <use xlink:href="#DejaVuSans-36"/>
      </g>
     </g>
    </g>
    <g id="text_28">
     <!-- Fitness effect $(\Delta)$ -->
     <g transform="translate(586.41 263.8565) scale(0.16 -0.16)">
      <use xlink:href="#DejaVuSans-46" transform="translate(0 0.015625)"/>
      <use xlink:href="#DejaVuSans-69" transform="translate(57.519531 0.015625)"/>
      <use xlink:href="#DejaVuSans-74" transform="translate(85.302734 0.015625)"/>
      <use xlink:href="#DejaVuSans-6e" transform="translate(124.511719 0.015625)"/>
      <use xlink:href="#DejaVuSans-65" transform="translate(187.890625 0.015625)"/>
      <use xlink:href="#DejaVuSans-73" transform="translate(249.414062 0.015625)"/>
      <use xlink:href="#DejaVuSans-73" transform="translate(301.513672 0.015625)"/>
      <use xlink:href="#DejaVuSans-20" transform="translate(353.613281 0.015625)"/>
      <use xlink:href="#DejaVuSans-65" transform="translate(385.400391 0.015625)"/>
      <use xlink:href="#DejaVuSans-66" transform="translate(446.923828 0.015625)"/>
      <use xlink:href="#DejaVuSans-66" transform="translate(482.128906 0.015625)"/>
      <use xlink:href="#DejaVuSans-65" transform="translate(517.333984 0.015625)"/>
      <use xlink:href="#DejaVuSans-63" transform="translate(578.857422 0.015625)"/>
      <use xlink:href="#DejaVuSans-74" transform="translate(633.837891 0.015625)"/>
      <use xlink:href="#DejaVuSans-20" transform="translate(673.046875 0.015625)"/>
      <use xlink:href="#DejaVuSans-28" transform="translate(704.833984 0.015625)"/>
      <use xlink:href="#DejaVuSans-394" transform="translate(743.847656 0.015625)"/>
      <use xlink:href="#DejaVuSans-29" transform="translate(812.255859 0.015625)"/>
     </g>
    </g>
    <g id="text_29">
     <!-- 1e−2 -->
     <g transform="translate(794.106562 261.336812) scale(0.14 -0.14)">
      <use xlink:href="#DejaVuSans-31"/>
      <use xlink:href="#DejaVuSans-65" x="63.623047"/>
      <use xlink:href="#DejaVuSans-2212" x="125.146484"/>
      <use xlink:href="#DejaVuSans-32" x="208.935547"/>
     </g>
    </g>
   </g>
   <g id="matplotlib.axis_4">
    <g id="ytick_7">
     <g id="line2d_28">
      <g>
       <use xlink:href="#m940e78fdb0" x="466.8725" y="214.649625" style="stroke: #000000; stroke-width: 1.5"/>
      </g>
     </g>
     <g id="text_30">
      <!-- 0 -->
      <g transform="translate(448.465 219.968531) scale(0.14 -0.14)">
       <use xlink:href="#DejaVuSans-30"/>
      </g>
     </g>
    </g>
    <g id="ytick_8">
     <g id="line2d_29">
      <g>
       <use xlink:href="#m940e78fdb0" x="466.8725" y="164.424597" style="stroke: #000000; stroke-width: 1.5"/>
      </g>
     </g>
     <g id="text_31">
      <!-- 50 -->
      <g transform="translate(439.5575 169.743504) scale(0.14 -0.14)">
       <use xlink:href="#DejaVuSans-35"/>
       <use xlink:href="#DejaVuSans-30" x="63.623047"/>
      </g>
     </g>
    </g>
    <g id="ytick_9">
     <g id="line2d_30">
      <g>
       <use xlink:href="#m940e78fdb0" x="466.8725" y="114.19957" style="stroke: #000000; stroke-width: 1.5"/>
      </g>
     </g>
     <g id="text_32">
      <!-- 100 -->
      <g transform="translate(430.65 119.518476) scale(0.14 -0.14)">
       <use xlink:href="#DejaVuSans-31"/>
       <use xlink:href="#DejaVuSans-30" x="63.623047"/>
       <use xlink:href="#DejaVuSans-30" x="127.246094"/>
      </g>
     </g>
    </g>
    <g id="ytick_10">
     <g id="line2d_31">
      <g>
       <use xlink:href="#m940e78fdb0" x="466.8725" y="63.974542" style="stroke: #000000; stroke-width: 1.5"/>
      </g>
     </g>
     <g id="text_33">
      <!-- 150 -->
      <g transform="translate(430.65 69.293449) scale(0.14 -0.14)">
       <use xlink:href="#DejaVuSans-31"/>
       <use xlink:href="#DejaVuSans-35" x="63.623047"/>
       <use xlink:href="#DejaVuSans-30" x="127.246094"/>
      </g>
     </g>
    </g>
   </g>
   <g id="line2d_32">
    <path d="M 494.64225 195.846776 
L 814.49775 195.846776 
" clip-path="url(#p90f69c9304)" style="fill: none; stroke-dasharray: 3.7,1.6; stroke-dashoffset: 0; stroke: #808080"/>
   </g>
   <g id="line2d_33">
    <path d="M 476.8725 215.403 
L 494.64225 195.846776 
" clip-path="url(#p90f69c9304)" style="fill: none; stroke-dasharray: 3.7,1.6; stroke-dashoffset: 0; stroke: #808080"/>
   </g>
   <g id="line2d_34">
    <path d="M 832.2675 215.403 
L 814.49775 195.846776 
" clip-path="url(#p90f69c9304)" style="fill: none; stroke-dasharray: 3.7,1.6; stroke-dashoffset: 0; stroke: #808080"/>
   </g>
   <g id="line2d_35">
    <path d="M 565.72125 215.403 
L 574.606125 195.846776 
" clip-path="url(#p90f69c9304)" style="fill: none; stroke-dasharray: 3.7,1.6; stroke-dashoffset: 0; stroke: #808080"/>
   </g>
   <g id="line2d_36">
    <path d="M 743.41875 215.403 
L 734.533875 195.846776 
" clip-path="url(#p90f69c9304)" style="fill: none; stroke-dasharray: 3.7,1.6; stroke-dashoffset: 0; stroke: #808080"/>
   </g>
   <g id="line2d_37">
    <path d="M 654.57 215.403 
L 654.57 195.846776 
" clip-path="url(#p90f69c9304)" style="fill: none; stroke-dasharray: 3.7,1.6; stroke-dashoffset: 0; stroke: #808080"/>
   </g>
   <g id="patch_16">
    <path d="M 466.8725 214.649625 
L 466.8725 33.669625 
" style="fill: none; stroke: #000000; stroke-width: 1.5; stroke-linejoin: miter; stroke-linecap: square"/>
   </g>
   <g id="patch_17">
    <path d="M 476.8725 224.649625 
L 832.2675 224.649625 
" style="fill: none; stroke: #000000; stroke-width: 1.5; stroke-linejoin: miter; stroke-linecap: square"/>
   </g>
   <g id="text_34">
    <!-- B -->
    <g transform="translate(441.333 20.877187) scale(0.18 -0.18)">
     <defs>
      <path id="DejaVuSans-Bold-42" d="M 2456 2859 
Q 2741 2859 2887 2984 
Q 3034 3109 3034 3353 
Q 3034 3594 2887 3720 
Q 2741 3847 2456 3847 
L 1791 3847 
L 1791 2859 
L 2456 2859 
z
M 2497 819 
Q 2859 819 3042 972 
Q 3225 1125 3225 1434 
Q 3225 1738 3044 1889 
Q 2863 2041 2497 2041 
L 1791 2041 
L 1791 819 
L 2497 819 
z
M 3616 2497 
Q 4003 2384 4215 2081 
Q 4428 1778 4428 1338 
Q 4428 663 3972 331 
Q 3516 0 2584 0 
L 588 0 
L 588 4666 
L 2394 4666 
Q 3366 4666 3802 4372 
Q 4238 4078 4238 3431 
Q 4238 3091 4078 2852 
Q 3919 2613 3616 2497 
z
" transform="scale(0.015625)"/>
     </defs>
     <use xlink:href="#DejaVuSans-Bold-42"/>
    </g>
   </g>
   <g id="text_35">
    <!-- $p_{KS} = 0.62$ -->
    <g transform="translate(494.64225 51.812375) scale(0.12 -0.12)">
     <use xlink:href="#DejaVuSans-Oblique-70" transform="translate(0 0.78125)"/>
     <use xlink:href="#DejaVuSans-Oblique-4b" transform="translate(63.476562 -15.625) scale(0.7)"/>
     <use xlink:href="#DejaVuSans-Oblique-53" transform="translate(109.379883 -15.625) scale(0.7)"/>
     <use xlink:href="#DejaVuSans-3d" transform="translate(176.030273 0.78125)"/>
     <use xlink:href="#DejaVuSans-30" transform="translate(279.301758 0.78125)"/>
     <use xlink:href="#DejaVuSans-2e" transform="translate(342.924805 0.78125)"/>
     <use xlink:href="#DejaVuSans-36" transform="translate(374.711914 0.78125)"/>
     <use xlink:href="#DejaVuSans-32" transform="translate(438.334961 0.78125)"/>
    </g>
   </g>
   <g id="legend_2">
    <g id="patch_18">
     <path d="M 734.840625 53.58775 
L 758.840625 53.58775 
L 758.840625 45.18775 
L 734.840625 45.18775 
z
" style="fill: #802f95; fill-opacity: 0.75; stroke: #000000; stroke-width: 1.1; stroke-linejoin: miter"/>
    </g>
    <g id="text_36">
     <!-- Evolved -->
     <g transform="translate(768.440625 53.58775) scale(0.12 -0.12)">
      <use xlink:href="#DejaVuSans-45"/>
      <use xlink:href="#DejaVuSans-76" x="63.183594"/>
      <use xlink:href="#DejaVuSans-6f" x="122.363281"/>
      <use xlink:href="#DejaVuSans-6c" x="183.544922"/>
      <use xlink:href="#DejaVuSans-76" x="211.328125"/>
      <use xlink:href="#DejaVuSans-65" x="270.507812"/>
      <use xlink:href="#DejaVuSans-64" x="332.03125"/>
     </g>
    </g>
    <g id="patch_19">
     <path d="M 734.840625 71.2015 
L 758.840625 71.2015 
L 758.840625 62.8015 
L 734.840625 62.8015 
z
" style="fill: #808080; fill-opacity: 0.4; stroke: #000000; stroke-width: 1.1; stroke-linejoin: miter"/>
    </g>
    <g id="text_37">
     <!-- Ancestor -->
     <g transform="translate(768.440625 71.2015) scale(0.12 -0.12)">
      <use xlink:href="#DejaVuSans-41"/>
      <use xlink:href="#DejaVuSans-6e" x="68.408203"/>
      <use xlink:href="#DejaVuSans-63" x="131.787109"/>
      <use xlink:href="#DejaVuSans-65" x="186.767578"/>
      <use xlink:href="#DejaVuSans-73" x="248.291016"/>
      <use xlink:href="#DejaVuSans-74" x="300.390625"/>
      <use xlink:href="#DejaVuSans-6f" x="339.599609"/>
      <use xlink:href="#DejaVuSans-72" x="400.78125"/>
     </g>
    </g>
    <g id="line2d_38">
     <path d="M 734.840625 84.61525 
L 758.840625 84.61525 
" style="fill: none; stroke: #ff4126; stroke-width: 1.1; stroke-linecap: square"/>
    </g>
    <g id="text_38">
     <!-- Anc DFE -->
     <g transform="translate(768.440625 88.81525) scale(0.12 -0.12)">
      <use xlink:href="#DejaVuSans-41"/>
      <use xlink:href="#DejaVuSans-6e" x="68.408203"/>
      <use xlink:href="#DejaVuSans-63" x="131.787109"/>
      <use xlink:href="#DejaVuSans-20" x="186.767578"/>
      <use xlink:href="#DejaVuSans-44" x="218.554688"/>
      <use xlink:href="#DejaVuSans-46" x="295.556641"/>
      <use xlink:href="#DejaVuSans-45" x="353.076172"/>
     </g>
    </g>
   </g>
  </g>
  <g id="axes_3">
   <g id="patch_20">
    <path d="M 53.4225 494.009625 
L 408.8175 494.009625 
L 408.8175 313.029625 
L 53.4225 313.029625 
z
" style="fill: #ffffff"/>
   </g>
   <g id="patch_21">
    <path d="M 75.304705 494.009625 
L 75.304705 476.731295 
L 85.183773 476.731295 
L 85.183773 477.230864 
L 95.06284 477.230864 
L 95.06284 476.897818 
L 104.941907 476.897818 
L 104.941907 476.564772 
L 114.820975 476.564772 
L 114.820975 477.230864 
L 124.700042 477.230864 
L 124.700042 476.398249 
L 134.57911 476.398249 
L 134.57911 475.066066 
L 144.458177 475.066066 
L 144.458177 475.232589 
L 154.337245 475.232589 
L 154.337245 472.401701 
L 164.216312 472.401701 
L 164.216312 470.902995 
L 174.095379 470.902995 
L 174.095379 470.070381 
L 183.974447 470.070381 
L 183.974447 466.073833 
L 193.853514 466.073833 
L 193.853514 452.585482 
L 203.732582 452.585482 
L 203.732582 416.783069 
L 213.611649 416.783069 
L 213.611649 338.184283 
L 223.490717 338.184283 
L 223.490717 384.477635 
L 233.369784 384.477635 
L 233.369784 447.25675 
L 243.248851 447.25675 
L 243.248851 468.904721 
L 253.127919 468.904721 
L 253.127919 473.900407 
L 263.006986 473.900407 
L 263.006986 476.231726 
L 272.886054 476.231726 
L 272.886054 494.009625 
" clip-path="url(#p4b0fd7482f)" style="fill: #802f95; fill-opacity: 0.75; stroke: #000000; stroke-width: 1.1; stroke-linejoin: miter"/>
   </g>
   <g id="patch_22">
    <path d="M 148.792615 494.009625 
L 148.792615 473.436481 
L 152.462265 473.436481 
L 152.462265 474.574795 
L 156.131914 474.574795 
L 156.131914 474.954234 
L 159.801564 474.954234 
L 159.801564 471.159851 
L 163.471213 471.159851 
L 163.471213 475.71311 
L 167.140862 475.71311 
L 167.140862 471.159851 
L 170.810512 471.159851 
L 170.810512 468.883221 
L 174.480161 468.883221 
L 174.480161 468.503783 
L 178.149811 468.503783 
L 178.149811 470.021536 
L 181.81946 470.021536 
L 181.81946 470.021536 
L 185.489109 470.021536 
L 185.489109 468.124344 
L 189.158759 468.124344 
L 189.158759 463.191647 
L 192.828408 463.191647 
L 192.828408 457.120634 
L 196.498058 457.120634 
L 196.498058 449.911306 
L 200.167707 449.911306 
L 200.167707 443.460855 
L 203.837356 443.460855 
L 203.837356 430.939391 
L 207.507006 430.939391 
L 207.507006 407.034779 
L 211.176655 407.034779 
L 211.176655 389.580617 
L 214.846305 389.580617 
L 214.846305 347.083528 
L 218.515954 347.083528 
L 218.515954 324.696669 
L 222.185603 324.696669 
L 222.185603 350.498473 
L 225.855253 350.498473 
L 225.855253 376.679715 
L 229.524902 376.679715 
L 229.524902 413.864668 
L 233.194552 413.864668 
L 233.194552 431.31883 
L 236.864201 431.31883 
L 236.864201 444.219732 
L 240.53385 444.219732 
L 240.53385 457.120634 
L 244.2035 457.120634 
L 244.2035 462.812208 
L 247.873149 462.812208 
L 247.873149 470.400974 
L 251.542799 470.400974 
L 251.542799 474.954234 
L 255.212448 474.954234 
L 255.212448 470.780413 
L 258.882097 470.780413 
L 258.882097 494.009625 
" clip-path="url(#p4b0fd7482f)" style="fill: none; stroke: #ff4126; stroke-width: 1.1; stroke-linejoin: miter"/>
   </g>
   <g id="patch_23">
    <path d="M 53.4225 494.009625 
L 408.8175 494.009625 
L 408.8175 477.230864 
L 53.4225 477.230864 
z
" clip-path="url(#p4b0fd7482f)" style="fill: #ffffff"/>
   </g>
   <g id="patch_24">
    <path d="M 12.6127 494.009625 
L 12.6127 493.124456 
L 23.75903 493.124456 
L 23.75903 494.009625 
L 34.90536 494.009625 
L 34.90536 492.976928 
L 46.051691 492.976928 
L 46.051691 494.009625 
L 57.198021 494.009625 
L 57.198021 492.829399 
L 68.344351 492.829399 
L 68.344351 493.56704 
L 79.490681 493.56704 
L 79.490681 494.009625 
L 90.637011 494.009625 
L 90.637011 493.56704 
L 101.783342 493.56704 
L 101.783342 492.386815 
L 112.929672 492.386815 
L 112.929672 493.124456 
L 124.076002 493.124456 
L 124.076002 492.239287 
L 135.222332 492.239287 
L 135.222332 490.911533 
L 146.368663 490.911533 
L 146.368663 490.764004 
L 157.514993 490.764004 
L 157.514993 488.108497 
L 168.661323 488.108497 
L 168.661323 486.928271 
L 179.807653 486.928271 
L 179.807653 479.846917 
L 190.953984 479.846917 
L 190.953984 465.241625 
L 202.100314 465.241625 
L 202.100314 441.194527 
L 213.246644 441.194527 
L 213.246644 376.724702 
L 224.392974 376.724702 
L 224.392974 384.101112 
L 235.539305 384.101112 
L 235.539305 494.009625 
" clip-path="url(#p4b0fd7482f)" style="fill: #808080; fill-opacity: 0.4; stroke: #000000; stroke-width: 1.1; stroke-linejoin: miter"/>
   </g>
   <g id="matplotlib.axis_5">
    <g id="xtick_15">
     <g id="line2d_39">
      <g>
       <use xlink:href="#mf01ed977e3" x="53.4225" y="504.009625" style="stroke: #000000; stroke-width: 1.5"/>
      </g>
     </g>
     <g id="text_39">
      <!-- −6 -->
      <g transform="translate(43.102969 524.147437) scale(0.14 -0.14)">
       <use xlink:href="#DejaVuSans-2212"/>
       <use xlink:href="#DejaVuSans-36" x="83.789062"/>
      </g>
     </g>
    </g>
    <g id="xtick_16">
     <g id="line2d_40">
      <g>
       <use xlink:href="#mf01ed977e3" x="112.655" y="504.009625" style="stroke: #000000; stroke-width: 1.5"/>
      </g>
     </g>
     <g id="text_40">
      <!-- −4 -->
      <g transform="translate(102.335469 524.147437) scale(0.14 -0.14)">
       <use xlink:href="#DejaVuSans-2212"/>
       <use xlink:href="#DejaVuSans-34" x="83.789062"/>
      </g>
     </g>
    </g>
    <g id="xtick_17">
     <g id="line2d_41">
      <g>
       <use xlink:href="#mf01ed977e3" x="171.8875" y="504.009625" style="stroke: #000000; stroke-width: 1.5"/>
      </g>
     </g>
     <g id="text_41">
      <!-- −2 -->
      <g transform="translate(161.567969 524.147437) scale(0.14 -0.14)">
       <use xlink:href="#DejaVuSans-2212"/>
       <use xlink:href="#DejaVuSans-32" x="83.789062"/>
      </g>
     </g>
    </g>
    <g id="xtick_18">
     <g id="line2d_42">
      <g>
       <use xlink:href="#mf01ed977e3" x="231.12" y="504.009625" style="stroke: #000000; stroke-width: 1.5"/>
      </g>
     </g>
     <g id="text_42">
      <!-- 0 -->
      <g transform="translate(226.66625 524.147437) scale(0.14 -0.14)">
       <use xlink:href="#DejaVuSans-30"/>
      </g>
     </g>
    </g>
    <g id="xtick_19">
     <g id="line2d_43">
      <g>
       <use xlink:href="#mf01ed977e3" x="290.3525" y="504.009625" style="stroke: #000000; stroke-width: 1.5"/>
      </g>
     </g>
     <g id="text_43">
      <!-- 2 -->
      <g transform="translate(285.89875 524.147437) scale(0.14 -0.14)">
       <use xlink:href="#DejaVuSans-32"/>
      </g>
     </g>
    </g>
    <g id="xtick_20">
     <g id="line2d_44">
      <g>
       <use xlink:href="#mf01ed977e3" x="349.585" y="504.009625" style="stroke: #000000; stroke-width: 1.5"/>
      </g>
     </g>
     <g id="text_44">
      <!-- 4 -->
      <g transform="translate(345.13125 524.147437) scale(0.14 -0.14)">
       <use xlink:href="#DejaVuSans-34"/>
      </g>
     </g>
    </g>
    <g id="xtick_21">
     <g id="line2d_45">
      <g>
       <use xlink:href="#mf01ed977e3" x="408.8175" y="504.009625" style="stroke: #000000; stroke-width: 1.5"/>
      </g>
     </g>
     <g id="text_45">
      <!-- 6 -->
      <g transform="translate(404.36375 524.147437) scale(0.14 -0.14)">
       <use xlink:href="#DejaVuSans-36"/>
      </g>
     </g>
    </g>
    <g id="text_46">
     <!-- Fitness effect $(\Delta)$ -->
     <g transform="translate(162.96 543.2165) scale(0.16 -0.16)">
      <use xlink:href="#DejaVuSans-46" transform="translate(0 0.015625)"/>
      <use xlink:href="#DejaVuSans-69" transform="translate(57.519531 0.015625)"/>
      <use xlink:href="#DejaVuSans-74" transform="translate(85.302734 0.015625)"/>
      <use xlink:href="#DejaVuSans-6e" transform="translate(124.511719 0.015625)"/>
      <use xlink:href="#DejaVuSans-65" transform="translate(187.890625 0.015625)"/>
      <use xlink:href="#DejaVuSans-73" transform="translate(249.414062 0.015625)"/>
      <use xlink:href="#DejaVuSans-73" transform="translate(301.513672 0.015625)"/>
      <use xlink:href="#DejaVuSans-20" transform="translate(353.613281 0.015625)"/>
      <use xlink:href="#DejaVuSans-65" transform="translate(385.400391 0.015625)"/>
      <use xlink:href="#DejaVuSans-66" transform="translate(446.923828 0.015625)"/>
      <use xlink:href="#DejaVuSans-66" transform="translate(482.128906 0.015625)"/>
      <use xlink:href="#DejaVuSans-65" transform="translate(517.333984 0.015625)"/>
      <use xlink:href="#DejaVuSans-63" transform="translate(578.857422 0.015625)"/>
      <use xlink:href="#DejaVuSans-74" transform="translate(633.837891 0.015625)"/>
      <use xlink:href="#DejaVuSans-20" transform="translate(673.046875 0.015625)"/>
      <use xlink:href="#DejaVuSans-28" transform="translate(704.833984 0.015625)"/>
      <use xlink:href="#DejaVuSans-394" transform="translate(743.847656 0.015625)"/>
      <use xlink:href="#DejaVuSans-29" transform="translate(812.255859 0.015625)"/>
     </g>
    </g>
    <g id="text_47">
     <!-- 1e−2 -->
     <g transform="translate(370.656562 540.696812) scale(0.14 -0.14)">
      <use xlink:href="#DejaVuSans-31"/>
      <use xlink:href="#DejaVuSans-65" x="63.623047"/>
      <use xlink:href="#DejaVuSans-2212" x="125.146484"/>
      <use xlink:href="#DejaVuSans-32" x="208.935547"/>
     </g>
    </g>
   </g>
   <g id="matplotlib.axis_6">
    <g id="ytick_11">
     <g id="line2d_46">
      <g>
       <use xlink:href="#m940e78fdb0" x="43.4225" y="494.009625" style="stroke: #000000; stroke-width: 1.5"/>
      </g>
     </g>
     <g id="text_48">
      <!-- 0 -->
      <g transform="translate(25.015 499.328531) scale(0.14 -0.14)">
       <use xlink:href="#DejaVuSans-30"/>
      </g>
     </g>
    </g>
    <g id="ytick_12">
     <g id="line2d_47">
      <g>
       <use xlink:href="#m940e78fdb0" x="43.4225" y="461.028661" style="stroke: #000000; stroke-width: 1.5"/>
      </g>
     </g>
     <g id="text_49">
      <!-- 25 -->
      <g transform="translate(16.1075 466.347567) scale(0.14 -0.14)">
       <use xlink:href="#DejaVuSans-32"/>
       <use xlink:href="#DejaVuSans-35" x="63.623047"/>
      </g>
     </g>
    </g>
    <g id="ytick_13">
     <g id="line2d_48">
      <g>
       <use xlink:href="#m940e78fdb0" x="43.4225" y="428.047697" style="stroke: #000000; stroke-width: 1.5"/>
      </g>
     </g>
     <g id="text_50">
      <!-- 50 -->
      <g transform="translate(16.1075 433.366604) scale(0.14 -0.14)">
       <use xlink:href="#DejaVuSans-35"/>
       <use xlink:href="#DejaVuSans-30" x="63.623047"/>
      </g>
     </g>
    </g>
    <g id="ytick_14">
     <g id="line2d_49">
      <g>
       <use xlink:href="#m940e78fdb0" x="43.4225" y="395.066734" style="stroke: #000000; stroke-width: 1.5"/>
      </g>
     </g>
     <g id="text_51">
      <!-- 75 -->
      <g transform="translate(16.1075 400.38564) scale(0.14 -0.14)">
       <use xlink:href="#DejaVuSans-37"/>
       <use xlink:href="#DejaVuSans-35" x="63.623047"/>
      </g>
     </g>
    </g>
    <g id="ytick_15">
     <g id="line2d_50">
      <g>
       <use xlink:href="#m940e78fdb0" x="43.4225" y="362.08577" style="stroke: #000000; stroke-width: 1.5"/>
      </g>
     </g>
     <g id="text_52">
      <!-- 100 -->
      <g transform="translate(7.2 367.404676) scale(0.14 -0.14)">
       <use xlink:href="#DejaVuSans-31"/>
       <use xlink:href="#DejaVuSans-30" x="63.623047"/>
       <use xlink:href="#DejaVuSans-30" x="127.246094"/>
      </g>
     </g>
    </g>
    <g id="ytick_16">
     <g id="line2d_51">
      <g>
       <use xlink:href="#m940e78fdb0" x="43.4225" y="329.104806" style="stroke: #000000; stroke-width: 1.5"/>
      </g>
     </g>
     <g id="text_53">
      <!-- 125 -->
      <g transform="translate(7.2 334.423712) scale(0.14 -0.14)">
       <use xlink:href="#DejaVuSans-31"/>
       <use xlink:href="#DejaVuSans-32" x="63.623047"/>
       <use xlink:href="#DejaVuSans-35" x="127.246094"/>
      </g>
     </g>
    </g>
   </g>
   <g id="line2d_52">
    <path d="M 71.19225 475.552987 
L 391.04775 475.552987 
" clip-path="url(#p4b0fd7482f)" style="fill: none; stroke-dasharray: 3.7,1.6; stroke-dashoffset: 0; stroke: #808080"/>
   </g>
   <g id="line2d_53">
    <path d="M 53.4225 494.999054 
L 71.19225 475.552987 
" clip-path="url(#p4b0fd7482f)" style="fill: none; stroke-dasharray: 3.7,1.6; stroke-dashoffset: 0; stroke: #808080"/>
   </g>
   <g id="line2d_54">
    <path d="M 408.8175 494.999054 
L 391.04775 475.552987 
" clip-path="url(#p4b0fd7482f)" style="fill: none; stroke-dasharray: 3.7,1.6; stroke-dashoffset: 0; stroke: #808080"/>
   </g>
   <g id="line2d_55">
    <path d="M 142.27125 494.999054 
L 151.156125 475.552987 
" clip-path="url(#p4b0fd7482f)" style="fill: none; stroke-dasharray: 3.7,1.6; stroke-dashoffset: 0; stroke: #808080"/>
   </g>
   <g id="line2d_56">
    <path d="M 319.96875 494.999054 
L 311.083875 475.552987 
" clip-path="url(#p4b0fd7482f)" style="fill: none; stroke-dasharray: 3.7,1.6; stroke-dashoffset: 0; stroke: #808080"/>
   </g>
   <g id="line2d_57">
    <path d="M 231.12 494.999054 
L 231.12 475.552987 
" clip-path="url(#p4b0fd7482f)" style="fill: none; stroke-dasharray: 3.7,1.6; stroke-dashoffset: 0; stroke: #808080"/>
   </g>
   <g id="patch_25">
    <path d="M 43.4225 494.009625 
L 43.4225 313.029625 
" style="fill: none; stroke: #000000; stroke-width: 1.5; stroke-linejoin: miter; stroke-linecap: square"/>
   </g>
   <g id="patch_26">
    <path d="M 53.4225 504.009625 
L 408.8175 504.009625 
" style="fill: none; stroke: #000000; stroke-width: 1.5; stroke-linejoin: miter; stroke-linecap: square"/>
   </g>
   <g id="text_54">
    <!-- C -->
    <g transform="translate(17.883 300.237187) scale(0.18 -0.18)">
     <defs>
      <path id="DejaVuSans-Bold-43" d="M 4288 256 
Q 3956 84 3597 -3 
Q 3238 -91 2847 -91 
Q 1681 -91 1000 561 
Q 319 1213 319 2328 
Q 319 3447 1000 4098 
Q 1681 4750 2847 4750 
Q 3238 4750 3597 4662 
Q 3956 4575 4288 4403 
L 4288 3438 
Q 3953 3666 3628 3772 
Q 3303 3878 2944 3878 
Q 2300 3878 1931 3465 
Q 1563 3053 1563 2328 
Q 1563 1606 1931 1193 
Q 2300 781 2944 781 
Q 3303 781 3628 887 
Q 3953 994 4288 1222 
L 4288 256 
z
" transform="scale(0.015625)"/>
     </defs>
     <use xlink:href="#DejaVuSans-Bold-43"/>
    </g>
   </g>
   <g id="text_55">
    <!-- $p_{KS} = 0.76$ -->
    <g transform="translate(71.19225 331.172375) scale(0.12 -0.12)">
     <use xlink:href="#DejaVuSans-Oblique-70" transform="translate(0 0.78125)"/>
     <use xlink:href="#DejaVuSans-Oblique-4b" transform="translate(63.476562 -15.625) scale(0.7)"/>
     <use xlink:href="#DejaVuSans-Oblique-53" transform="translate(109.379883 -15.625) scale(0.7)"/>
     <use xlink:href="#DejaVuSans-3d" transform="translate(176.030273 0.78125)"/>
     <use xlink:href="#DejaVuSans-30" transform="translate(279.301758 0.78125)"/>
     <use xlink:href="#DejaVuSans-2e" transform="translate(342.924805 0.78125)"/>
     <use xlink:href="#DejaVuSans-37" transform="translate(366.961914 0.78125)"/>
     <use xlink:href="#DejaVuSans-36" transform="translate(430.584961 0.78125)"/>
    </g>
   </g>
   <g id="legend_3">
    <g id="patch_27">
     <path d="M 311.390625 332.94775 
L 335.390625 332.94775 
L 335.390625 324.54775 
L 311.390625 324.54775 
z
" style="fill: #802f95; fill-opacity: 0.75; stroke: #000000; stroke-width: 1.1; stroke-linejoin: miter"/>
    </g>
    <g id="text_56">
     <!-- Evolved -->
     <g transform="translate(344.990625 332.94775) scale(0.12 -0.12)">
      <use xlink:href="#DejaVuSans-45"/>
      <use xlink:href="#DejaVuSans-76" x="63.183594"/>
      <use xlink:href="#DejaVuSans-6f" x="122.363281"/>
      <use xlink:href="#DejaVuSans-6c" x="183.544922"/>
      <use xlink:href="#DejaVuSans-76" x="211.328125"/>
      <use xlink:href="#DejaVuSans-65" x="270.507812"/>
      <use xlink:href="#DejaVuSans-64" x="332.03125"/>
     </g>
    </g>
    <g id="line2d_58">
     <path d="M 311.390625 346.3615 
L 335.390625 346.3615 
" style="fill: none; stroke: #ff4126; stroke-width: 1.1; stroke-linecap: square"/>
    </g>
    <g id="text_57">
     <!-- DFE Evo -->
     <g transform="translate(344.990625 350.5615) scale(0.12 -0.12)">
      <use xlink:href="#DejaVuSans-44"/>
      <use xlink:href="#DejaVuSans-46" x="77.001953"/>
      <use xlink:href="#DejaVuSans-45" x="134.521484"/>
      <use xlink:href="#DejaVuSans-20" x="197.705078"/>
      <use xlink:href="#DejaVuSans-45" x="229.492188"/>
      <use xlink:href="#DejaVuSans-76" x="292.675781"/>
      <use xlink:href="#DejaVuSans-6f" x="351.855469"/>
     </g>
    </g>
    <g id="patch_28">
     <path d="M 311.390625 368.17525 
L 335.390625 368.17525 
L 335.390625 359.77525 
L 311.390625 359.77525 
z
" style="fill: #808080; fill-opacity: 0.4; stroke: #000000; stroke-width: 1.1; stroke-linejoin: miter"/>
    </g>
    <g id="text_58">
     <!-- Ancestor -->
     <g transform="translate(344.990625 368.17525) scale(0.12 -0.12)">
      <use xlink:href="#DejaVuSans-41"/>
      <use xlink:href="#DejaVuSans-6e" x="68.408203"/>
      <use xlink:href="#DejaVuSans-63" x="131.787109"/>
      <use xlink:href="#DejaVuSans-65" x="186.767578"/>
      <use xlink:href="#DejaVuSans-73" x="248.291016"/>
      <use xlink:href="#DejaVuSans-74" x="300.390625"/>
      <use xlink:href="#DejaVuSans-6f" x="339.599609"/>
      <use xlink:href="#DejaVuSans-72" x="400.78125"/>
     </g>
    </g>
   </g>
  </g>
  <g id="axes_4">
   <g id="patch_29">
    <path d="M 476.8725 494.009625 
L 832.2675 494.009625 
L 832.2675 313.029625 
L 476.8725 313.029625 
z
" style="fill: #ffffff"/>
   </g>
   <g id="patch_30">
    <path d="M 458.775151 494.009625 
L 458.775151 478.358148 
L 468.786476 478.358148 
L 468.786476 478.645542 
L 478.797802 478.645542 
L 478.797802 478.645542 
L 488.809127 478.645542 
L 488.809127 478.645542 
L 498.820453 478.645542 
L 498.820453 478.358148 
L 508.831779 478.358148 
L 508.831779 478.358148 
L 518.843104 478.358148 
L 518.843104 478.645542 
L 528.85443 478.645542 
L 528.85443 477.78336 
L 538.865755 477.78336 
L 538.865755 478.214451 
L 548.877081 478.214451 
L 548.877081 477.927057 
L 558.888407 477.927057 
L 558.888407 477.352269 
L 568.899732 477.352269 
L 568.899732 476.921178 
L 578.911058 476.921178 
L 578.911058 475.196814 
L 588.922383 475.196814 
L 588.922383 474.190935 
L 598.933709 474.190935 
L 598.933709 471.891783 
L 608.945035 471.891783 
L 608.945035 469.880025 
L 618.95636 469.880025 
L 618.95636 463.269964 
L 628.967686 463.269964 
L 628.967686 443.439778 
L 638.979012 443.439778 
L 638.979012 389.409708 
L 648.990337 389.409708 
L 648.990337 338.972062 
L 659.001663 338.972062 
L 659.001663 494.009625 
" clip-path="url(#p6a3b0cfb1a)" style="fill: #802f95; fill-opacity: 0.75; stroke: #000000; stroke-width: 1.1; stroke-linejoin: miter"/>
   </g>
   <g id="patch_31">
    <path d="M 476.8725 494.009625 
L 832.2675 494.009625 
L 832.2675 478.645542 
L 476.8725 478.645542 
z
" clip-path="url(#p6a3b0cfb1a)" style="fill: #ffffff"/>
   </g>
   <g id="patch_32">
    <path d="M 358.017285 494.009625 
L 358.017285 493.817842 
L 373.019644 493.817842 
L 373.019644 494.009625 
L 388.022004 494.009625 
L 388.022004 494.009625 
L 403.024364 494.009625 
L 403.024364 494.009625 
L 418.026724 494.009625 
L 418.026724 493.721951 
L 433.029084 493.721951 
L 433.029084 493.721951 
L 448.031444 493.721951 
L 448.031444 493.146602 
L 463.033804 493.146602 
L 463.033804 493.530168 
L 478.036164 493.530168 
L 478.036164 493.626059 
L 493.038524 493.626059 
L 493.038524 493.434277 
L 508.040884 493.434277 
L 508.040884 493.050711 
L 523.043244 493.050711 
L 523.043244 492.95482 
L 538.045604 492.95482 
L 538.045604 492.571254 
L 553.047964 492.571254 
L 553.047964 491.132883 
L 568.050324 491.132883 
L 568.050324 490.653426 
L 583.052683 490.653426 
L 583.052683 488.639706 
L 598.055043 488.639706 
L 598.055043 480.776611 
L 613.057403 480.776611 
L 613.057403 463.899723 
L 628.059763 463.899723 
L 628.059763 407.803249 
L 643.062123 407.803249 
L 643.062123 454.790039 
L 658.064483 454.790039 
L 658.064483 482.023199 
L 673.066843 482.023199 
L 673.066843 490.078077 
L 688.069203 490.078077 
L 688.069203 492.763037 
L 703.071563 492.763037 
L 703.071563 493.242494 
L 718.073923 493.242494 
L 718.073923 493.434277 
L 733.076283 493.434277 
L 733.076283 493.817842 
L 748.078643 493.817842 
L 748.078643 493.721951 
L 763.081003 493.721951 
L 763.081003 494.009625 
L 778.083362 494.009625 
L 778.083362 494.009625 
L 793.085722 494.009625 
L 793.085722 493.817842 
L 808.088082 493.817842 
L 808.088082 494.009625 
" clip-path="url(#p6a3b0cfb1a)" style="fill: #808080; fill-opacity: 0.4; stroke: #000000; stroke-width: 1.1; stroke-linejoin: miter"/>
   </g>
   <g id="patch_33">
    <path d="M 457.036854 494.009625 
L 457.036854 493.065853 
L 465.26144 493.065853 
L 465.26144 494.009625 
L 473.486026 494.009625 
L 473.486026 494.009625 
L 481.710611 494.009625 
L 481.710611 494.009625 
L 489.935197 494.009625 
L 489.935197 494.009625 
L 498.159783 494.009625 
L 498.159783 494.009625 
L 506.384369 494.009625 
L 506.384369 494.009625 
L 514.608954 494.009625 
L 514.608954 494.009625 
L 522.83354 494.009625 
L 522.83354 493.200678 
L 531.058126 493.200678 
L 531.058126 494.009625 
L 539.282712 494.009625 
L 539.282712 493.335502 
L 547.507297 493.335502 
L 547.507297 493.335502 
L 555.731883 493.335502 
L 555.731883 491.582784 
L 563.956469 491.582784 
L 563.956469 491.852433 
L 572.181055 491.852433 
L 572.181055 490.504187 
L 580.40564 490.504187 
L 580.40564 489.290767 
L 588.630226 489.290767 
L 588.630226 488.077346 
L 596.854812 488.077346 
L 596.854812 484.03261 
L 605.079398 484.03261 
L 605.079398 476.886911 
L 613.303983 476.886911 
L 613.303983 466.909896 
L 621.528569 466.909896 
L 621.528569 451.270252 
L 629.753155 451.270252 
L 629.753155 414.463157 
L 637.977741 414.463157 
L 637.977741 401.789652 
L 646.202326 401.789652 
L 646.202326 453.157795 
L 654.426912 453.157795 
L 654.426912 475.808315 
L 662.651498 475.808315 
L 662.651498 480.796822 
L 670.876084 480.796822 
L 670.876084 487.538048 
L 679.100669 487.538048 
L 679.100669 490.639012 
L 687.325255 490.639012 
L 687.325255 491.447959 
L 695.549841 491.447959 
L 695.549841 493.335502 
L 703.774427 493.335502 
L 703.774427 494.009625 
" clip-path="url(#p6a3b0cfb1a)" style="fill: none; stroke: #ff4126; stroke-width: 1.1; stroke-linejoin: miter"/>
   </g>
   <g id="matplotlib.axis_7">
    <g id="xtick_22">
     <g id="line2d_59">
      <g>
       <use xlink:href="#mf01ed977e3" x="476.8725" y="504.009625" style="stroke: #000000; stroke-width: 1.5"/>
      </g>
     </g>
     <g id="text_59">
      <!-- −6 -->
      <g transform="translate(466.552969 524.147437) scale(0.14 -0.14)">
       <use xlink:href="#DejaVuSans-2212"/>
       <use xlink:href="#DejaVuSans-36" x="83.789062"/>
      </g>
     </g>
    </g>
    <g id="xtick_23">
     <g id="line2d_60">
      <g>
       <use xlink:href="#mf01ed977e3" x="536.105" y="504.009625" style="stroke: #000000; stroke-width: 1.5"/>
      </g>
     </g>
     <g id="text_60">
      <!-- −4 -->
      <g transform="translate(525.785469 524.147437) scale(0.14 -0.14)">
       <use xlink:href="#DejaVuSans-2212"/>
       <use xlink:href="#DejaVuSans-34" x="83.789062"/>
      </g>
     </g>
    </g>
    <g id="xtick_24">
     <g id="line2d_61">
      <g>
       <use xlink:href="#mf01ed977e3" x="595.3375" y="504.009625" style="stroke: #000000; stroke-width: 1.5"/>
      </g>
     </g>
     <g id="text_61">
      <!-- −2 -->
      <g transform="translate(585.017969 524.147437) scale(0.14 -0.14)">
       <use xlink:href="#DejaVuSans-2212"/>
       <use xlink:href="#DejaVuSans-32" x="83.789062"/>
      </g>
     </g>
    </g>
    <g id="xtick_25">
     <g id="line2d_62">
      <g>
       <use xlink:href="#mf01ed977e3" x="654.57" y="504.009625" style="stroke: #000000; stroke-width: 1.5"/>
      </g>
     </g>
     <g id="text_62">
      <!-- 0 -->
      <g transform="translate(650.11625 524.147437) scale(0.14 -0.14)">
       <use xlink:href="#DejaVuSans-30"/>
      </g>
     </g>
    </g>
    <g id="xtick_26">
     <g id="line2d_63">
      <g>
       <use xlink:href="#mf01ed977e3" x="713.8025" y="504.009625" style="stroke: #000000; stroke-width: 1.5"/>
      </g>
     </g>
     <g id="text_63">
      <!-- 2 -->
      <g transform="translate(709.34875 524.147437) scale(0.14 -0.14)">
       <use xlink:href="#DejaVuSans-32"/>
      </g>
     </g>
    </g>
    <g id="xtick_27">
     <g id="line2d_64">
      <g>
       <use xlink:href="#mf01ed977e3" x="773.035" y="504.009625" style="stroke: #000000; stroke-width: 1.5"/>
      </g>
     </g>
     <g id="text_64">
      <!-- 4 -->
      <g transform="translate(768.58125 524.147437) scale(0.14 -0.14)">
       <use xlink:href="#DejaVuSans-34"/>
      </g>
     </g>
    </g>
    <g id="xtick_28">
     <g id="line2d_65">
      <g>
       <use xlink:href="#mf01ed977e3" x="832.2675" y="504.009625" style="stroke: #000000; stroke-width: 1.5"/>
      </g>
     </g>
     <g id="text_65">
      <!-- 6 -->
      <g transform="translate(827.81375 524.147437) scale(0.14 -0.14)">
       <use xlink:href="#DejaVuSans-36"/>
      </g>
     </g>
    </g>
    <g id="text_66">
     <!-- Fitness effect $(\Delta)$ -->
     <g transform="translate(586.41 543.2165) scale(0.16 -0.16)">
      <use xlink:href="#DejaVuSans-46" transform="translate(0 0.015625)"/>
      <use xlink:href="#DejaVuSans-69" transform="translate(57.519531 0.015625)"/>
      <use xlink:href="#DejaVuSans-74" transform="translate(85.302734 0.015625)"/>
      <use xlink:href="#DejaVuSans-6e" transform="translate(124.511719 0.015625)"/>
      <use xlink:href="#DejaVuSans-65" transform="translate(187.890625 0.015625)"/>
      <use xlink:href="#DejaVuSans-73" transform="translate(249.414062 0.015625)"/>
      <use xlink:href="#DejaVuSans-73" transform="translate(301.513672 0.015625)"/>
      <use xlink:href="#DejaVuSans-20" transform="translate(353.613281 0.015625)"/>
      <use xlink:href="#DejaVuSans-65" transform="translate(385.400391 0.015625)"/>
      <use xlink:href="#DejaVuSans-66" transform="translate(446.923828 0.015625)"/>
      <use xlink:href="#DejaVuSans-66" transform="translate(482.128906 0.015625)"/>
      <use xlink:href="#DejaVuSans-65" transform="translate(517.333984 0.015625)"/>
      <use xlink:href="#DejaVuSans-63" transform="translate(578.857422 0.015625)"/>
      <use xlink:href="#DejaVuSans-74" transform="translate(633.837891 0.015625)"/>
      <use xlink:href="#DejaVuSans-20" transform="translate(673.046875 0.015625)"/>
      <use xlink:href="#DejaVuSans-28" transform="translate(704.833984 0.015625)"/>
      <use xlink:href="#DejaVuSans-394" transform="translate(743.847656 0.015625)"/>
      <use xlink:href="#DejaVuSans-29" transform="translate(812.255859 0.015625)"/>
     </g>
    </g>
    <g id="text_67">
     <!-- 1e−2 -->
     <g transform="translate(794.106562 540.696812) scale(0.14 -0.14)">
      <use xlink:href="#DejaVuSans-31"/>
      <use xlink:href="#DejaVuSans-65" x="63.623047"/>
      <use xlink:href="#DejaVuSans-2212" x="125.146484"/>
      <use xlink:href="#DejaVuSans-32" x="208.935547"/>
     </g>
    </g>
   </g>
   <g id="matplotlib.axis_8">
    <g id="ytick_17">
     <g id="line2d_66">
      <g>
       <use xlink:href="#m940e78fdb0" x="466.8725" y="494.009625" style="stroke: #000000; stroke-width: 1.5"/>
      </g>
     </g>
     <g id="text_68">
      <!-- 0 -->
      <g transform="translate(448.465 499.328531) scale(0.14 -0.14)">
       <use xlink:href="#DejaVuSans-30"/>
      </g>
     </g>
    </g>
    <g id="ytick_18">
     <g id="line2d_67">
      <g>
       <use xlink:href="#m940e78fdb0" x="466.8725" y="441.81622" style="stroke: #000000; stroke-width: 1.5"/>
      </g>
     </g>
     <g id="text_69">
      <!-- 50 -->
      <g transform="translate(439.5575 447.135127) scale(0.14 -0.14)">
       <use xlink:href="#DejaVuSans-35"/>
       <use xlink:href="#DejaVuSans-30" x="63.623047"/>
      </g>
     </g>
    </g>
    <g id="ytick_19">
     <g id="line2d_68">
      <g>
       <use xlink:href="#m940e78fdb0" x="466.8725" y="389.622816" style="stroke: #000000; stroke-width: 1.5"/>
      </g>
     </g>
     <g id="text_70">
      <!-- 100 -->
      <g transform="translate(430.65 394.941722) scale(0.14 -0.14)">
       <use xlink:href="#DejaVuSans-31"/>
       <use xlink:href="#DejaVuSans-30" x="63.623047"/>
       <use xlink:href="#DejaVuSans-30" x="127.246094"/>
      </g>
     </g>
    </g>
    <g id="ytick_20">
     <g id="line2d_69">
      <g>
       <use xlink:href="#m940e78fdb0" x="466.8725" y="337.429411" style="stroke: #000000; stroke-width: 1.5"/>
      </g>
     </g>
     <g id="text_71">
      <!-- 150 -->
      <g transform="translate(430.65 342.748317) scale(0.14 -0.14)">
       <use xlink:href="#DejaVuSans-31"/>
       <use xlink:href="#DejaVuSans-35" x="63.623047"/>
       <use xlink:href="#DejaVuSans-30" x="127.246094"/>
      </g>
     </g>
    </g>
   </g>
   <g id="line2d_70">
    <path d="M 494.64225 475.25008 
L 814.49775 475.25008 
" clip-path="url(#p6a3b0cfb1a)" style="fill: none; stroke-dasharray: 3.7,1.6; stroke-dashoffset: 0; stroke: #808080"/>
   </g>
   <g id="line2d_71">
    <path d="M 476.8725 494.792526 
L 494.64225 475.25008 
" clip-path="url(#p6a3b0cfb1a)" style="fill: none; stroke-dasharray: 3.7,1.6; stroke-dashoffset: 0; stroke: #808080"/>
   </g>
   <g id="line2d_72">
    <path d="M 832.2675 494.792526 
L 814.49775 475.25008 
" clip-path="url(#p6a3b0cfb1a)" style="fill: none; stroke-dasharray: 3.7,1.6; stroke-dashoffset: 0; stroke: #808080"/>
   </g>
   <g id="line2d_73">
    <path d="M 565.72125 494.792526 
L 574.606125 475.25008 
" clip-path="url(#p6a3b0cfb1a)" style="fill: none; stroke-dasharray: 3.7,1.6; stroke-dashoffset: 0; stroke: #808080"/>
   </g>
   <g id="line2d_74">
    <path d="M 743.41875 494.792526 
L 734.533875 475.25008 
" clip-path="url(#p6a3b0cfb1a)" style="fill: none; stroke-dasharray: 3.7,1.6; stroke-dashoffset: 0; stroke: #808080"/>
   </g>
   <g id="line2d_75">
    <path d="M 654.57 494.792526 
L 654.57 475.25008 
" clip-path="url(#p6a3b0cfb1a)" style="fill: none; stroke-dasharray: 3.7,1.6; stroke-dashoffset: 0; stroke: #808080"/>
   </g>
   <g id="patch_34">
    <path d="M 466.8725 494.009625 
L 466.8725 313.029625 
" style="fill: none; stroke: #000000; stroke-width: 1.5; stroke-linejoin: miter; stroke-linecap: square"/>
   </g>
   <g id="patch_35">
    <path d="M 476.8725 504.009625 
L 832.2675 504.009625 
" style="fill: none; stroke: #000000; stroke-width: 1.5; stroke-linejoin: miter; stroke-linecap: square"/>
   </g>
   <g id="text_72">
    <!-- D -->
    <g transform="translate(441.333 300.237187) scale(0.18 -0.18)">
     <defs>
      <path id="DejaVuSans-Bold-44" d="M 1791 3756 
L 1791 909 
L 2222 909 
Q 2959 909 3348 1275 
Q 3738 1641 3738 2338 
Q 3738 3031 3350 3393 
Q 2963 3756 2222 3756 
L 1791 3756 
z
M 588 4666 
L 1856 4666 
Q 2919 4666 3439 4514 
Q 3959 4363 4331 4000 
Q 4659 3684 4818 3271 
Q 4978 2859 4978 2338 
Q 4978 1809 4818 1395 
Q 4659 981 4331 666 
Q 3956 303 3431 151 
Q 2906 0 1856 0 
L 588 0 
L 588 4666 
z
" transform="scale(0.015625)"/>
     </defs>
     <use xlink:href="#DejaVuSans-Bold-44"/>
    </g>
   </g>
   <g id="text_73">
    <!-- $p_{KS} = 0.92$ -->
    <g transform="translate(494.64225 331.172375) scale(0.12 -0.12)">
     <use xlink:href="#DejaVuSans-Oblique-70" transform="translate(0 0.78125)"/>
     <use xlink:href="#DejaVuSans-Oblique-4b" transform="translate(63.476562 -15.625) scale(0.7)"/>
     <use xlink:href="#DejaVuSans-Oblique-53" transform="translate(109.379883 -15.625) scale(0.7)"/>
     <use xlink:href="#DejaVuSans-3d" transform="translate(176.030273 0.78125)"/>
     <use xlink:href="#DejaVuSans-30" transform="translate(279.301758 0.78125)"/>
     <use xlink:href="#DejaVuSans-2e" transform="translate(342.924805 0.78125)"/>
     <use xlink:href="#DejaVuSans-39" transform="translate(374.711914 0.78125)"/>
     <use xlink:href="#DejaVuSans-32" transform="translate(436.584961 0.78125)"/>
    </g>
   </g>
   <g id="legend_4">
    <g id="patch_36">
     <path d="M 734.840625 332.94775 
L 758.840625 332.94775 
L 758.840625 324.54775 
L 734.840625 324.54775 
z
" style="fill: #802f95; fill-opacity: 0.75; stroke: #000000; stroke-width: 1.1; stroke-linejoin: miter"/>
    </g>
    <g id="text_74">
     <!-- Evolved -->
     <g transform="translate(768.440625 332.94775) scale(0.12 -0.12)">
      <use xlink:href="#DejaVuSans-45"/>
      <use xlink:href="#DejaVuSans-76" x="63.183594"/>
      <use xlink:href="#DejaVuSans-6f" x="122.363281"/>
      <use xlink:href="#DejaVuSans-6c" x="183.544922"/>
      <use xlink:href="#DejaVuSans-76" x="211.328125"/>
      <use xlink:href="#DejaVuSans-65" x="270.507812"/>
      <use xlink:href="#DejaVuSans-64" x="332.03125"/>
     </g>
    </g>
    <g id="patch_37">
     <path d="M 734.840625 350.5615 
L 758.840625 350.5615 
L 758.840625 342.1615 
L 734.840625 342.1615 
z
" style="fill: #808080; fill-opacity: 0.4; stroke: #000000; stroke-width: 1.1; stroke-linejoin: miter"/>
    </g>
    <g id="text_75">
     <!-- Ancestor -->
     <g transform="translate(768.440625 350.5615) scale(0.12 -0.12)">
      <use xlink:href="#DejaVuSans-41"/>
      <use xlink:href="#DejaVuSans-6e" x="68.408203"/>
      <use xlink:href="#DejaVuSans-63" x="131.787109"/>
      <use xlink:href="#DejaVuSans-65" x="186.767578"/>
      <use xlink:href="#DejaVuSans-73" x="248.291016"/>
      <use xlink:href="#DejaVuSans-74" x="300.390625"/>
      <use xlink:href="#DejaVuSans-6f" x="339.599609"/>
      <use xlink:href="#DejaVuSans-72" x="400.78125"/>
     </g>
    </g>
    <g id="line2d_76">
     <path d="M 734.840625 363.97525 
L 758.840625 363.97525 
" style="fill: none; stroke: #ff4126; stroke-width: 1.1; stroke-linecap: square"/>
    </g>
    <g id="text_76">
     <!-- Anc DFE -->
     <g transform="translate(768.440625 368.17525) scale(0.12 -0.12)">
      <use xlink:href="#DejaVuSans-41"/>
      <use xlink:href="#DejaVuSans-6e" x="68.408203"/>
      <use xlink:href="#DejaVuSans-63" x="131.787109"/>
      <use xlink:href="#DejaVuSans-20" x="186.767578"/>
      <use xlink:href="#DejaVuSans-44" x="218.554688"/>
      <use xlink:href="#DejaVuSans-46" x="295.556641"/>
      <use xlink:href="#DejaVuSans-45" x="353.076172"/>
     </g>
    </g>
   </g>
  </g>
 </g>
 <defs>
  <clipPath id="pb06a0660a6">
   <rect x="53.4225" y="33.669625" width="355.395" height="180.98"/>
  </clipPath>
  <clipPath id="p90f69c9304">
   <rect x="476.8725" y="33.669625" width="355.395" height="180.98"/>
  </clipPath>
  <clipPath id="p4b0fd7482f">
   <rect x="53.4225" y="313.029625" width="355.395" height="180.98"/>
  </clipPath>
  <clipPath id="p6a3b0cfb1a">
   <rect x="476.8725" y="313.029625" width="355.395" height="180.98"/>
  </clipPath>
 </defs>
</svg>
