<?xml version="1.0" encoding="utf-8" standalone="no"?>
<!DOCTYPE svg PUBLIC "-//W3C//DTD SVG 1.1//EN"
  "http://www.w3.org/Graphics/SVG/1.1/DTD/svg11.dtd">
<svg xmlns:xlink="http://www.w3.org/1999/xlink" width="979.088437pt" height="753.789894pt" viewBox="0 0 979.088437 753.789894" xmlns="http://www.w3.org/2000/svg" version="1.1">
 <metadata>
  <rdf:RDF xmlns:dc="http://purl.org/dc/elements/1.1/" xmlns:cc="http://creativecommons.org/ns#" xmlns:rdf="http://www.w3.org/1999/02/22-rdf-syntax-ns#">
   <cc:Work>
    <dc:type rdf:resource="http://purl.org/dc/dcmitype/StillImage"/>
    <dc:date>2026-01-12T18:33:52.776939</dc:date>
    <dc:format>image/svg+xml</dc:format>
    <dc:creator>
     <cc:Agent>
      <dc:title>Matplotlib v3.9.4, https://matplotlib.org/</dc:title>
     </cc:Agent>
    </dc:creator>
   </cc:Work>
  </rdf:RDF>
 </metadata>
 <defs>
  <style type="text/css">*{stroke-linejoin: round; stroke-linecap: butt}</style>
 </defs>
 <g id="figure_1">
  <g id="patch_1">
   <path d="M 0 753.789894 
L 979.088437 753.789894 
L 979.088437 0 
L 0 0 
z
" style="fill: #ffffff"/>
  </g>
  <g id="axes_1">
   <g id="patch_2">
    <path d="M 79.088437 321.873391 
L 475.888437 321.873391 
L 475.888437 38.775519 
L 79.088437 38.775519 
z
" style="fill: #ffffff"/>
   </g>
   <g id="PolyCollection_1">
    <defs>
     <path id="m4c733838f1" d="M 97.124801 -702.14629 
L 97.124801 -702.14629 
L 104.339347 -697.566734 
L 111.553892 -693.116536 
L 118.768437 -688.200757 
L 125.982983 -683.460797 
L 133.197528 -678.214305 
L 140.412074 -673.095769 
L 147.626619 -667.392163 
L 154.841165 -661.252425 
L 162.05571 -656.187781 
L 169.270256 -650.924014 
L 176.484801 -645.349376 
L 183.699347 -637.244563 
L 190.913892 -631.293577 
L 198.128437 -625.451976 
L 205.342983 -619.044556 
L 212.557528 -609.071905 
L 219.772074 -599.648399 
L 226.986619 -590.32654 
L 234.201165 -578.120618 
L 241.41571 -581.705915 
L 248.630256 -571.592122 
L 255.844801 -553.701391 
L 263.059347 -556.567509 
L 270.273892 -546.71184 
L 277.488437 -546.694168 
L 284.702983 -528.833201 
L 291.917528 -522.426186 
L 299.132074 -517.465665 
L 306.346619 -535.443882 
L 313.561165 -505.470143 
L 320.77571 -499.846291 
L 327.990256 -501.689944 
L 335.204801 -489.190025 
L 342.419347 -486.051361 
L 349.633892 -487.852119 
L 356.848437 -488.769085 
L 364.062983 -467.305873 
L 371.277528 -474.87486 
L 378.492074 -470.769102 
L 385.706619 -450.330364 
L 392.921165 -467.543488 
L 400.13571 -488.592333 
L 407.350256 -460.75348 
L 414.564801 -462.963761 
L 421.779347 -472.720335 
L 428.993892 -461.914457 
L 436.208437 -444.784588 
L 443.422983 -459.400485 
L 450.637528 -459.25729 
L 457.852074 -459.442884 
L 457.852074 -626.528944 
L 457.852074 -626.528944 
L 450.637528 -620.306334 
L 443.422983 -627.72051 
L 436.208437 -628.70367 
L 428.993892 -638.599449 
L 421.779347 -632.084313 
L 414.564801 -634.085834 
L 407.350256 -638.589655 
L 400.13571 -635.269691 
L 392.921165 -641.778434 
L 385.706619 -644.053906 
L 378.492074 -642.243427 
L 371.277528 -640.675695 
L 364.062983 -647.049954 
L 356.848437 -641.776808 
L 349.633892 -643.407035 
L 342.419347 -646.944049 
L 335.204801 -647.129833 
L 327.990256 -646.155738 
L 320.77571 -652.407164 
L 313.561165 -653.408856 
L 306.346619 -644.534744 
L 299.132074 -654.092927 
L 291.917528 -655.338554 
L 284.702983 -657.744167 
L 277.488437 -653.800794 
L 270.273892 -659.953859 
L 263.059347 -660.243811 
L 255.844801 -666.3608 
L 248.630256 -663.127855 
L 241.41571 -663.720826 
L 234.201165 -671.872846 
L 226.986619 -668.00958 
L 219.772074 -667.925796 
L 212.557528 -669.192685 
L 205.342983 -668.888561 
L 198.128437 -670.13951 
L 190.913892 -672.571449 
L 183.699347 -674.25074 
L 176.484801 -677.111062 
L 169.270256 -679.194232 
L 162.05571 -681.601143 
L 154.841165 -684.706288 
L 147.626619 -686.676587 
L 140.412074 -688.500994 
L 133.197528 -690.639534 
L 125.982983 -692.88063 
L 118.768437 -695.128101 
L 111.553892 -697.653199 
L 104.339347 -699.790416 
L 97.124801 -702.14629 
z
" style="stroke: #802f95; stroke-opacity: 0.2"/>
    </defs>
    <g clip-path="url(#pe7fbe12d9d)">
     <use xlink:href="#m4c733838f1" x="0" y="753.789894" style="fill: #802f95; fill-opacity: 0.2; stroke: #802f95; stroke-opacity: 0.2"/>
    </g>
   </g>
   <g id="matplotlib.axis_1">
    <g id="xtick_1">
     <g id="line2d_1">
      <defs>
       <path id="m88b5222802" d="M 0 0 
L 0 6 
" style="stroke: #000000; stroke-width: 1.5"/>
      </defs>
      <g>
       <use xlink:href="#m88b5222802" x="97.124801" y="321.873391" style="stroke: #000000; stroke-width: 1.5"/>
      </g>
     </g>
     <g id="text_1">
      <!-- 0 -->
      <g transform="translate(92.671051 342.011203) scale(0.14 -0.14)">
       <defs>
        <path id="DejaVuSans-30" d="M 2034 4250 
Q 1547 4250 1301 3770 
Q 1056 3291 1056 2328 
Q 1056 1369 1301 889 
Q 1547 409 2034 409 
Q 2525 409 2770 889 
Q 3016 1369 3016 2328 
Q 3016 3291 2770 3770 
Q 2525 4250 2034 4250 
z
M 2034 4750 
Q 2819 4750 3233 4129 
Q 3647 3509 3647 2328 
Q 3647 1150 3233 529 
Q 2819 -91 2034 -91 
Q 1250 -91 836 529 
Q 422 1150 422 2328 
Q 422 3509 836 4129 
Q 1250 4750 2034 4750 
z
" transform="scale(0.015625)"/>
       </defs>
       <use xlink:href="#DejaVuSans-30"/>
      </g>
     </g>
    </g>
    <g id="xtick_2">
     <g id="line2d_2">
      <g>
       <use xlink:href="#m88b5222802" x="183.012247" y="321.873391" style="stroke: #000000; stroke-width: 1.5"/>
      </g>
     </g>
     <g id="text_2">
      <!-- 500 -->
      <g transform="translate(169.650997 342.011203) scale(0.14 -0.14)">
       <defs>
        <path id="DejaVuSans-35" d="M 691 4666 
L 3169 4666 
L 3169 4134 
L 1269 4134 
L 1269 2991 
Q 1406 3038 1543 3061 
Q 1681 3084 1819 3084 
Q 2600 3084 3056 2656 
Q 3513 2228 3513 1497 
Q 3513 744 3044 326 
Q 2575 -91 1722 -91 
Q 1428 -91 1123 -41 
Q 819 9 494 109 
L 494 744 
Q 775 591 1075 516 
Q 1375 441 1709 441 
Q 2250 441 2565 725 
Q 2881 1009 2881 1497 
Q 2881 1984 2565 2268 
Q 2250 2553 1709 2553 
Q 1456 2553 1204 2497 
Q 953 2441 691 2322 
L 691 4666 
z
" transform="scale(0.015625)"/>
       </defs>
       <use xlink:href="#DejaVuSans-35"/>
       <use xlink:href="#DejaVuSans-30" x="63.623047"/>
       <use xlink:href="#DejaVuSans-30" x="127.246094"/>
      </g>
     </g>
    </g>
    <g id="xtick_3">
     <g id="line2d_3">
      <g>
       <use xlink:href="#m88b5222802" x="268.899693" y="321.873391" style="stroke: #000000; stroke-width: 1.5"/>
      </g>
     </g>
     <g id="text_3">
      <!-- 1000 -->
      <g transform="translate(251.084693 342.011203) scale(0.14 -0.14)">
       <defs>
        <path id="DejaVuSans-31" d="M 794 531 
L 1825 531 
L 1825 4091 
L 703 3866 
L 703 4441 
L 1819 4666 
L 2450 4666 
L 2450 531 
L 3481 531 
L 3481 0 
L 794 0 
L 794 531 
z
" transform="scale(0.015625)"/>
       </defs>
       <use xlink:href="#DejaVuSans-31"/>
       <use xlink:href="#DejaVuSans-30" x="63.623047"/>
       <use xlink:href="#DejaVuSans-30" x="127.246094"/>
       <use xlink:href="#DejaVuSans-30" x="190.869141"/>
      </g>
     </g>
    </g>
    <g id="xtick_4">
     <g id="line2d_4">
      <g>
       <use xlink:href="#m88b5222802" x="354.787139" y="321.873391" style="stroke: #000000; stroke-width: 1.5"/>
      </g>
     </g>
     <g id="text_4">
      <!-- 1500 -->
      <g transform="translate(336.972139 342.011203) scale(0.14 -0.14)">
       <use xlink:href="#DejaVuSans-31"/>
       <use xlink:href="#DejaVuSans-35" x="63.623047"/>
       <use xlink:href="#DejaVuSans-30" x="127.246094"/>
       <use xlink:href="#DejaVuSans-30" x="190.869141"/>
      </g>
     </g>
    </g>
    <g id="xtick_5">
     <g id="line2d_5">
      <g>
       <use xlink:href="#m88b5222802" x="440.674585" y="321.873391" style="stroke: #000000; stroke-width: 1.5"/>
      </g>
     </g>
     <g id="text_5">
      <!-- 2000 -->
      <g transform="translate(422.859585 342.011203) scale(0.14 -0.14)">
       <defs>
        <path id="DejaVuSans-32" d="M 1228 531 
L 3431 531 
L 3431 0 
L 469 0 
L 469 531 
Q 828 903 1448 1529 
Q 2069 2156 2228 2338 
Q 2531 2678 2651 2914 
Q 2772 3150 2772 3378 
Q 2772 3750 2511 3984 
Q 2250 4219 1831 4219 
Q 1534 4219 1204 4116 
Q 875 4013 500 3803 
L 500 4441 
Q 881 4594 1212 4672 
Q 1544 4750 1819 4750 
Q 2544 4750 2975 4387 
Q 3406 4025 3406 3419 
Q 3406 3131 3298 2873 
Q 3191 2616 2906 2266 
Q 2828 2175 2409 1742 
Q 1991 1309 1228 531 
z
" transform="scale(0.015625)"/>
       </defs>
       <use xlink:href="#DejaVuSans-32"/>
       <use xlink:href="#DejaVuSans-30" x="63.623047"/>
       <use xlink:href="#DejaVuSans-30" x="127.246094"/>
       <use xlink:href="#DejaVuSans-30" x="190.869141"/>
      </g>
     </g>
    </g>
    <g id="text_6">
     <!-- Time -->
     <g transform="translate(257.914687 361.080266) scale(0.16 -0.16)">
      <defs>
       <path id="DejaVuSans-54" d="M -19 4666 
L 3928 4666 
L 3928 4134 
L 2272 4134 
L 2272 0 
L 1638 0 
L 1638 4134 
L -19 4134 
L -19 4666 
z
" transform="scale(0.015625)"/>
       <path id="DejaVuSans-69" d="M 603 3500 
L 1178 3500 
L 1178 0 
L 603 0 
L 603 3500 
z
M 603 4863 
L 1178 4863 
L 1178 4134 
L 603 4134 
L 603 4863 
z
" transform="scale(0.015625)"/>
       <path id="DejaVuSans-6d" d="M 3328 2828 
Q 3544 3216 3844 3400 
Q 4144 3584 4550 3584 
Q 5097 3584 5394 3201 
Q 5691 2819 5691 2113 
L 5691 0 
L 5113 0 
L 5113 2094 
Q 5113 2597 4934 2840 
Q 4756 3084 4391 3084 
Q 3944 3084 3684 2787 
Q 3425 2491 3425 1978 
L 3425 0 
L 2847 0 
L 2847 2094 
Q 2847 2600 2669 2842 
Q 2491 3084 2119 3084 
Q 1678 3084 1418 2786 
Q 1159 2488 1159 1978 
L 1159 0 
L 581 0 
L 581 3500 
L 1159 3500 
L 1159 2956 
Q 1356 3278 1631 3431 
Q 1906 3584 2284 3584 
Q 2666 3584 2933 3390 
Q 3200 3197 3328 2828 
z
" transform="scale(0.015625)"/>
       <path id="DejaVuSans-65" d="M 3597 1894 
L 3597 1613 
L 953 1613 
Q 991 1019 1311 708 
Q 1631 397 2203 397 
Q 2534 397 2845 478 
Q 3156 559 3463 722 
L 3463 178 
Q 3153 47 2828 -22 
Q 2503 -91 2169 -91 
Q 1331 -91 842 396 
Q 353 884 353 1716 
Q 353 2575 817 3079 
Q 1281 3584 2069 3584 
Q 2775 3584 3186 3129 
Q 3597 2675 3597 1894 
z
M 3022 2063 
Q 3016 2534 2758 2815 
Q 2500 3097 2075 3097 
Q 1594 3097 1305 2825 
Q 1016 2553 972 2059 
L 3022 2063 
z
" transform="scale(0.015625)"/>
      </defs>
      <use xlink:href="#DejaVuSans-54"/>
      <use xlink:href="#DejaVuSans-69" x="57.958984"/>
      <use xlink:href="#DejaVuSans-6d" x="85.742188"/>
      <use xlink:href="#DejaVuSans-65" x="183.154297"/>
     </g>
    </g>
   </g>
   <g id="matplotlib.axis_2">
    <g id="ytick_1">
     <g id="line2d_6">
      <defs>
       <path id="m4dc892d5ea" d="M 0 0 
L -6 0 
" style="stroke: #000000; stroke-width: 1.5"/>
      </defs>
      <g>
       <use xlink:href="#m4dc892d5ea" x="79.088437" y="317.720036" style="stroke: #000000; stroke-width: 1.5"/>
      </g>
     </g>
     <g id="text_7">
      <!-- −3.0 -->
      <g transform="translate(35.5925 323.038942) scale(0.14 -0.14)">
       <defs>
        <path id="DejaVuSans-2212" d="M 678 2272 
L 4684 2272 
L 4684 1741 
L 678 1741 
L 678 2272 
z
" transform="scale(0.015625)"/>
        <path id="DejaVuSans-33" d="M 2597 2516 
Q 3050 2419 3304 2112 
Q 3559 1806 3559 1356 
Q 3559 666 3084 287 
Q 2609 -91 1734 -91 
Q 1441 -91 1130 -33 
Q 819 25 488 141 
L 488 750 
Q 750 597 1062 519 
Q 1375 441 1716 441 
Q 2309 441 2620 675 
Q 2931 909 2931 1356 
Q 2931 1769 2642 2001 
Q 2353 2234 1838 2234 
L 1294 2234 
L 1294 2753 
L 1863 2753 
Q 2328 2753 2575 2939 
Q 2822 3125 2822 3475 
Q 2822 3834 2567 4026 
Q 2313 4219 1838 4219 
Q 1578 4219 1281 4162 
Q 984 4106 628 3988 
L 628 4550 
Q 988 4650 1302 4700 
Q 1616 4750 1894 4750 
Q 2613 4750 3031 4423 
Q 3450 4097 3450 3541 
Q 3450 3153 3228 2886 
Q 3006 2619 2597 2516 
z
" transform="scale(0.015625)"/>
        <path id="DejaVuSans-2e" d="M 684 794 
L 1344 794 
L 1344 0 
L 684 0 
L 684 794 
z
" transform="scale(0.015625)"/>
       </defs>
       <use xlink:href="#DejaVuSans-2212"/>
       <use xlink:href="#DejaVuSans-33" x="83.789062"/>
       <use xlink:href="#DejaVuSans-2e" x="147.412109"/>
       <use xlink:href="#DejaVuSans-30" x="179.199219"/>
      </g>
     </g>
    </g>
    <g id="ytick_2">
     <g id="line2d_7">
      <g>
       <use xlink:href="#m4dc892d5ea" x="79.088437" y="273.373964" style="stroke: #000000; stroke-width: 1.5"/>
      </g>
     </g>
     <g id="text_8">
      <!-- −2.5 -->
      <g transform="translate(35.5925 278.69287) scale(0.14 -0.14)">
       <use xlink:href="#DejaVuSans-2212"/>
       <use xlink:href="#DejaVuSans-32" x="83.789062"/>
       <use xlink:href="#DejaVuSans-2e" x="147.412109"/>
       <use xlink:href="#DejaVuSans-35" x="179.199219"/>
      </g>
     </g>
    </g>
    <g id="ytick_3">
     <g id="line2d_8">
      <g>
       <use xlink:href="#m4dc892d5ea" x="79.088437" y="229.027892" style="stroke: #000000; stroke-width: 1.5"/>
      </g>
     </g>
     <g id="text_9">
      <!-- −2.0 -->
      <g transform="translate(35.5925 234.346798) scale(0.14 -0.14)">
       <use xlink:href="#DejaVuSans-2212"/>
       <use xlink:href="#DejaVuSans-32" x="83.789062"/>
       <use xlink:href="#DejaVuSans-2e" x="147.412109"/>
       <use xlink:href="#DejaVuSans-30" x="179.199219"/>
      </g>
     </g>
    </g>
    <g id="ytick_4">
     <g id="line2d_9">
      <g>
       <use xlink:href="#m4dc892d5ea" x="79.088437" y="184.68182" style="stroke: #000000; stroke-width: 1.5"/>
      </g>
     </g>
     <g id="text_10">
      <!-- −1.5 -->
      <g transform="translate(35.5925 190.000726) scale(0.14 -0.14)">
       <use xlink:href="#DejaVuSans-2212"/>
       <use xlink:href="#DejaVuSans-31" x="83.789062"/>
       <use xlink:href="#DejaVuSans-2e" x="147.412109"/>
       <use xlink:href="#DejaVuSans-35" x="179.199219"/>
      </g>
     </g>
    </g>
    <g id="ytick_5">
     <g id="line2d_10">
      <g>
       <use xlink:href="#m4dc892d5ea" x="79.088437" y="140.335748" style="stroke: #000000; stroke-width: 1.5"/>
      </g>
     </g>
     <g id="text_11">
      <!-- −1.0 -->
      <g transform="translate(35.5925 145.654654) scale(0.14 -0.14)">
       <use xlink:href="#DejaVuSans-2212"/>
       <use xlink:href="#DejaVuSans-31" x="83.789062"/>
       <use xlink:href="#DejaVuSans-2e" x="147.412109"/>
       <use xlink:href="#DejaVuSans-30" x="179.199219"/>
      </g>
     </g>
    </g>
    <g id="ytick_6">
     <g id="line2d_11">
      <g>
       <use xlink:href="#m4dc892d5ea" x="79.088437" y="95.989676" style="stroke: #000000; stroke-width: 1.5"/>
      </g>
     </g>
     <g id="text_12">
      <!-- −0.5 -->
      <g transform="translate(35.5925 101.308582) scale(0.14 -0.14)">
       <use xlink:href="#DejaVuSans-2212"/>
       <use xlink:href="#DejaVuSans-30" x="83.789062"/>
       <use xlink:href="#DejaVuSans-2e" x="147.412109"/>
       <use xlink:href="#DejaVuSans-35" x="179.199219"/>
      </g>
     </g>
    </g>
    <g id="ytick_7">
     <g id="line2d_12">
      <g>
       <use xlink:href="#m4dc892d5ea" x="79.088437" y="51.643604" style="stroke: #000000; stroke-width: 1.5"/>
      </g>
     </g>
     <g id="text_13">
      <!-- 0.0 -->
      <g transform="translate(47.324062 56.96251) scale(0.14 -0.14)">
       <use xlink:href="#DejaVuSans-30"/>
       <use xlink:href="#DejaVuSans-2e" x="63.623047"/>
       <use xlink:href="#DejaVuSans-30" x="95.410156"/>
      </g>
     </g>
    </g>
    <g id="text_14">
     <!-- Log Correlation -->
     <g transform="translate(28.265 241.268205) rotate(-90) scale(0.16 -0.16)">
      <defs>
       <path id="DejaVuSans-4c" d="M 628 4666 
L 1259 4666 
L 1259 531 
L 3531 531 
L 3531 0 
L 628 0 
L 628 4666 
z
" transform="scale(0.015625)"/>
       <path id="DejaVuSans-6f" d="M 1959 3097 
Q 1497 3097 1228 2736 
Q 959 2375 959 1747 
Q 959 1119 1226 758 
Q 1494 397 1959 397 
Q 2419 397 2687 759 
Q 2956 1122 2956 1747 
Q 2956 2369 2687 2733 
Q 2419 3097 1959 3097 
z
M 1959 3584 
Q 2709 3584 3137 3096 
Q 3566 2609 3566 1747 
Q 3566 888 3137 398 
Q 2709 -91 1959 -91 
Q 1206 -91 779 398 
Q 353 888 353 1747 
Q 353 2609 779 3096 
Q 1206 3584 1959 3584 
z
" transform="scale(0.015625)"/>
       <path id="DejaVuSans-67" d="M 2906 1791 
Q 2906 2416 2648 2759 
Q 2391 3103 1925 3103 
Q 1463 3103 1205 2759 
Q 947 2416 947 1791 
Q 947 1169 1205 825 
Q 1463 481 1925 481 
Q 2391 481 2648 825 
Q 2906 1169 2906 1791 
z
M 3481 434 
Q 3481 -459 3084 -895 
Q 2688 -1331 1869 -1331 
Q 1566 -1331 1297 -1286 
Q 1028 -1241 775 -1147 
L 775 -588 
Q 1028 -725 1275 -790 
Q 1522 -856 1778 -856 
Q 2344 -856 2625 -561 
Q 2906 -266 2906 331 
L 2906 616 
Q 2728 306 2450 153 
Q 2172 0 1784 0 
Q 1141 0 747 490 
Q 353 981 353 1791 
Q 353 2603 747 3093 
Q 1141 3584 1784 3584 
Q 2172 3584 2450 3431 
Q 2728 3278 2906 2969 
L 2906 3500 
L 3481 3500 
L 3481 434 
z
" transform="scale(0.015625)"/>
       <path id="DejaVuSans-20" transform="scale(0.015625)"/>
       <path id="DejaVuSans-43" d="M 4122 4306 
L 4122 3641 
Q 3803 3938 3442 4084 
Q 3081 4231 2675 4231 
Q 1875 4231 1450 3742 
Q 1025 3253 1025 2328 
Q 1025 1406 1450 917 
Q 1875 428 2675 428 
Q 3081 428 3442 575 
Q 3803 722 4122 1019 
L 4122 359 
Q 3791 134 3420 21 
Q 3050 -91 2638 -91 
Q 1578 -91 968 557 
Q 359 1206 359 2328 
Q 359 3453 968 4101 
Q 1578 4750 2638 4750 
Q 3056 4750 3426 4639 
Q 3797 4528 4122 4306 
z
" transform="scale(0.015625)"/>
       <path id="DejaVuSans-72" d="M 2631 2963 
Q 2534 3019 2420 3045 
Q 2306 3072 2169 3072 
Q 1681 3072 1420 2755 
Q 1159 2438 1159 1844 
L 1159 0 
L 581 0 
L 581 3500 
L 1159 3500 
L 1159 2956 
Q 1341 3275 1631 3429 
Q 1922 3584 2338 3584 
Q 2397 3584 2469 3576 
Q 2541 3569 2628 3553 
L 2631 2963 
z
" transform="scale(0.015625)"/>
       <path id="DejaVuSans-6c" d="M 603 4863 
L 1178 4863 
L 1178 0 
L 603 0 
L 603 4863 
z
" transform="scale(0.015625)"/>
       <path id="DejaVuSans-61" d="M 2194 1759 
Q 1497 1759 1228 1600 
Q 959 1441 959 1056 
Q 959 750 1161 570 
Q 1363 391 1709 391 
Q 2188 391 2477 730 
Q 2766 1069 2766 1631 
L 2766 1759 
L 2194 1759 
z
M 3341 1997 
L 3341 0 
L 2766 0 
L 2766 531 
Q 2569 213 2275 61 
Q 1981 -91 1556 -91 
Q 1019 -91 701 211 
Q 384 513 384 1019 
Q 384 1609 779 1909 
Q 1175 2209 1959 2209 
L 2766 2209 
L 2766 2266 
Q 2766 2663 2505 2880 
Q 2244 3097 1772 3097 
Q 1472 3097 1187 3025 
Q 903 2953 641 2809 
L 641 3341 
Q 956 3463 1253 3523 
Q 1550 3584 1831 3584 
Q 2591 3584 2966 3190 
Q 3341 2797 3341 1997 
z
" transform="scale(0.015625)"/>
       <path id="DejaVuSans-74" d="M 1172 4494 
L 1172 3500 
L 2356 3500 
L 2356 3053 
L 1172 3053 
L 1172 1153 
Q 1172 725 1289 603 
Q 1406 481 1766 481 
L 2356 481 
L 2356 0 
L 1766 0 
Q 1100 0 847 248 
Q 594 497 594 1153 
L 594 3053 
L 172 3053 
L 172 3500 
L 594 3500 
L 594 4494 
L 1172 4494 
z
" transform="scale(0.015625)"/>
       <path id="DejaVuSans-6e" d="M 3513 2113 
L 3513 0 
L 2938 0 
L 2938 2094 
Q 2938 2591 2744 2837 
Q 2550 3084 2163 3084 
Q 1697 3084 1428 2787 
Q 1159 2491 1159 1978 
L 1159 0 
L 581 0 
L 581 3500 
L 1159 3500 
L 1159 2956 
Q 1366 3272 1645 3428 
Q 1925 3584 2291 3584 
Q 2894 3584 3203 3211 
Q 3513 2838 3513 2113 
z
" transform="scale(0.015625)"/>
      </defs>
      <use xlink:href="#DejaVuSans-4c"/>
      <use xlink:href="#DejaVuSans-6f" x="53.962891"/>
      <use xlink:href="#DejaVuSans-67" x="115.144531"/>
      <use xlink:href="#DejaVuSans-20" x="178.621094"/>
      <use xlink:href="#DejaVuSans-43" x="210.408203"/>
      <use xlink:href="#DejaVuSans-6f" x="280.232422"/>
      <use xlink:href="#DejaVuSans-72" x="341.414062"/>
      <use xlink:href="#DejaVuSans-72" x="380.777344"/>
      <use xlink:href="#DejaVuSans-65" x="419.640625"/>
      <use xlink:href="#DejaVuSans-6c" x="481.164062"/>
      <use xlink:href="#DejaVuSans-61" x="508.947266"/>
      <use xlink:href="#DejaVuSans-74" x="570.226562"/>
      <use xlink:href="#DejaVuSans-69" x="609.435547"/>
      <use xlink:href="#DejaVuSans-6f" x="637.21875"/>
      <use xlink:href="#DejaVuSans-6e" x="698.400391"/>
     </g>
    </g>
   </g>
   <g id="line2d_13">
    <path d="M 97.124801 51.643604 
L 100.768511 53.430885 
L 104.412221 55.218166 
L 108.055931 57.005447 
L 111.69964 58.792728 
L 115.34335 60.580009 
L 118.98706 62.36729 
L 122.63077 64.154571 
L 126.27448 65.941852 
L 129.91819 67.729133 
L 133.561899 69.516415 
L 137.205609 71.303696 
L 140.849319 73.090977 
L 144.493029 74.878258 
L 148.136739 76.665539 
L 151.780449 78.45282 
L 155.424158 80.240101 
L 159.067868 82.027382 
L 162.711578 83.814663 
L 166.355288 85.601944 
L 169.998998 87.389225 
L 173.642707 89.176506 
L 177.286417 90.963788 
L 180.930127 92.751069 
L 184.573837 94.53835 
L 188.217547 96.325631 
L 191.861257 98.112912 
L 195.504966 99.900193 
L 199.148676 101.687474 
L 202.792386 103.474755 
L 206.436096 105.262036 
L 210.079806 107.049317 
L 213.723516 108.836598 
L 217.367225 110.623879 
L 221.010935 112.411161 
L 224.654645 114.198442 
L 228.298355 115.985723 
L 231.942065 117.773004 
L 235.585775 119.560285 
L 239.229484 121.347566 
L 242.873194 123.134847 
L 246.516904 124.922128 
L 250.160614 126.709409 
L 253.804324 128.49669 
L 257.448033 130.283971 
L 261.091743 132.071252 
L 264.735453 133.858534 
L 268.379163 135.645815 
L 272.022873 137.433096 
L 275.666583 139.220377 
L 279.310292 141.007658 
L 282.954002 142.794939 
L 286.597712 144.58222 
L 290.241422 146.369501 
L 293.885132 148.156782 
L 297.528842 149.944063 
L 301.172551 151.731344 
L 304.816261 153.518625 
L 308.459971 155.305907 
L 312.103681 157.093188 
L 315.747391 158.880469 
L 319.3911 160.66775 
L 323.03481 162.455031 
L 326.67852 164.242312 
L 330.32223 166.029593 
L 333.96594 167.816874 
L 337.60965 169.604155 
L 341.253359 171.391436 
L 344.897069 173.178717 
L 348.540779 174.965998 
L 352.184489 176.75328 
L 355.828199 178.540561 
L 359.471909 180.327842 
L 363.115618 182.115123 
L 366.759328 183.902404 
L 370.403038 185.689685 
L 374.046748 187.476966 
L 377.690458 189.264247 
L 381.334168 191.051528 
L 384.977877 192.838809 
L 388.621587 194.62609 
L 392.265297 196.413371 
L 395.909007 198.200653 
L 399.552717 199.987934 
L 403.196426 201.775215 
L 406.840136 203.562496 
L 410.483846 205.349777 
L 414.127556 207.137058 
L 417.771266 208.924339 
L 421.414976 210.71162 
L 425.058685 212.498901 
L 428.702395 214.286182 
L 432.346105 216.073463 
L 435.989815 217.860744 
L 439.633525 219.648025 
L 443.277235 221.435307 
L 446.920944 223.222588 
L 450.564654 225.009869 
L 454.208364 226.79715 
L 457.852074 228.584431 
" clip-path="url(#pe7fbe12d9d)" style="fill: none; stroke: #ff0000; stroke-width: 2.5; stroke-linecap: square"/>
   </g>
   <g id="line2d_14">
    <path d="M 97.124801 51.643604 
L 104.339347 55.111319 
L 111.553892 58.405026 
L 118.768437 62.125465 
L 125.982983 65.61918 
L 133.197528 69.362974 
L 140.412074 72.991512 
L 147.626619 76.755519 
L 154.841165 80.810537 
L 162.05571 84.895432 
L 169.270256 88.730771 
L 176.484801 92.559675 
L 183.699347 98.042242 
L 190.913892 101.85738 
L 198.128437 105.994151 
L 205.342983 109.823335 
L 212.557528 114.657599 
L 219.772074 120.002796 
L 226.986619 124.621834 
L 234.201165 128.793161 
L 241.41571 131.076523 
L 248.630256 136.429905 
L 255.844801 143.758798 
L 263.059347 145.384234 
L 270.273892 150.457044 
L 277.488437 153.542413 
L 284.702983 160.50121 
L 291.917528 164.907524 
L 299.132074 168.010597 
L 306.346619 163.800581 
L 313.561165 174.350394 
L 320.77571 177.663166 
L 327.990256 179.867053 
L 335.204801 185.629965 
L 342.419347 187.292188 
L 349.633892 188.160316 
L 356.848437 188.516947 
L 364.062983 196.61198 
L 371.277528 196.014616 
L 378.492074 197.283629 
L 385.706619 206.597759 
L 392.921165 199.128933 
L 400.13571 191.858881 
L 407.350256 204.118326 
L 414.564801 205.265096 
L 421.779347 201.387569 
L 428.993892 203.532941 
L 436.208437 217.045765 
L 443.422983 210.229396 
L 450.637528 214.008082 
L 457.852074 210.80398 
" clip-path="url(#pe7fbe12d9d)" style="fill: none; stroke: #802f95; stroke-width: 2; stroke-linecap: square"/>
   </g>
   <g id="line2d_15">
    <path d="M 97.124801 57.601926 
L 100.768511 59.383153 
L 104.412221 61.16438 
L 108.055931 62.945607 
L 111.69964 64.726834 
L 115.34335 66.508061 
L 118.98706 68.289287 
L 122.63077 70.070514 
L 126.27448 71.851741 
L 129.91819 73.632968 
L 133.561899 75.414195 
L 137.205609 77.195422 
L 140.849319 78.976649 
L 144.493029 80.757876 
L 148.136739 82.539103 
L 151.780449 84.32033 
L 155.424158 86.101557 
L 159.067868 87.882784 
L 162.711578 89.664011 
L 166.355288 91.445238 
L 169.998998 93.226465 
L 173.642707 95.007692 
L 177.286417 96.788919 
L 180.930127 98.570146 
L 184.573837 100.351373 
L 188.217547 102.1326 
L 191.861257 103.913827 
L 195.504966 105.695054 
L 199.148676 107.47628 
L 202.792386 109.257507 
L 206.436096 111.038734 
L 210.079806 112.819961 
L 213.723516 114.601188 
L 217.367225 116.382415 
L 221.010935 118.163642 
L 224.654645 119.944869 
L 228.298355 121.726096 
L 231.942065 123.507323 
L 235.585775 125.28855 
L 239.229484 127.069777 
L 242.873194 128.851004 
L 246.516904 130.632231 
L 250.160614 132.413458 
L 253.804324 134.194685 
L 257.448033 135.975912 
L 261.091743 137.757139 
L 264.735453 139.538366 
L 268.379163 141.319593 
L 272.022873 143.10082 
L 275.666583 144.882047 
L 279.310292 146.663274 
L 282.954002 148.4445 
L 286.597712 150.225727 
L 290.241422 152.006954 
L 293.885132 153.788181 
L 297.528842 155.569408 
L 301.172551 157.350635 
L 304.816261 159.131862 
L 308.459971 160.913089 
L 312.103681 162.694316 
L 315.747391 164.475543 
L 319.3911 166.25677 
L 323.03481 168.037997 
L 326.67852 169.819224 
L 330.32223 171.600451 
L 333.96594 173.381678 
L 337.60965 175.162905 
L 341.253359 176.944132 
L 344.897069 178.725359 
L 348.540779 180.506586 
L 352.184489 182.287813 
L 355.828199 184.06904 
L 359.471909 185.850267 
L 363.115618 187.631493 
L 366.759328 189.41272 
L 370.403038 191.193947 
L 374.046748 192.975174 
L 377.690458 194.756401 
L 381.334168 196.537628 
L 384.977877 198.318855 
L 388.621587 200.100082 
L 392.265297 201.881309 
L 395.909007 203.662536 
L 399.552717 205.443763 
L 403.196426 207.22499 
L 406.840136 209.006217 
L 410.483846 210.787444 
L 414.127556 212.568671 
L 417.771266 214.349898 
L 421.414976 216.131125 
L 425.058685 217.912352 
L 428.702395 219.693579 
L 432.346105 221.474806 
L 435.989815 223.256033 
L 439.633525 225.03726 
L 443.277235 226.818487 
L 446.920944 228.599713 
L 450.564654 230.38094 
L 454.208364 232.162167 
L 457.852074 233.943394 
" clip-path="url(#pe7fbe12d9d)" style="fill: none; stroke: #322694; stroke-width: 2; stroke-linecap: square"/>
   </g>
   <g id="patch_3">
    <path d="M 79.088437 321.873391 
L 79.088437 38.775519 
" style="fill: none; stroke: #000000; stroke-width: 1.5; stroke-linejoin: miter; stroke-linecap: square"/>
   </g>
   <g id="patch_4">
    <path d="M 475.888437 321.873391 
L 475.888437 38.775519 
" style="fill: none; stroke: #000000; stroke-width: 1.5; stroke-linejoin: miter; stroke-linecap: square"/>
   </g>
   <g id="patch_5">
    <path d="M 79.088437 321.873391 
L 475.888437 321.873391 
" style="fill: none; stroke: #000000; stroke-width: 1.5; stroke-linejoin: miter; stroke-linecap: square"/>
   </g>
   <g id="patch_6">
    <path d="M 79.088437 38.775519 
L 475.888437 38.775519 
" style="fill: none; stroke: #000000; stroke-width: 1.5; stroke-linejoin: miter; stroke-linecap: square"/>
   </g>
   <g id="text_15">
    <!-- A -->
    <g transform="translate(39.408437 20.877187) scale(0.18 -0.18)">
     <defs>
      <path id="DejaVuSans-Bold-41" d="M 3419 850 
L 1538 850 
L 1241 0 
L 31 0 
L 1759 4666 
L 3194 4666 
L 4922 0 
L 3713 0 
L 3419 850 
z
M 1838 1716 
L 3116 1716 
L 2478 3572 
L 1838 1716 
z
" transform="scale(0.015625)"/>
     </defs>
     <use xlink:href="#DejaVuSans-Bold-41"/>
    </g>
   </g>
   <g id="legend_1">
    <g id="line2d_16">
     <path d="M 88.988438 273.54386 
L 99.988438 273.54386 
L 110.988438 273.54386 
" style="fill: none; stroke: #ff0000; stroke-width: 2.5; stroke-linecap: square"/>
    </g>
    <g id="text_16">
     <!-- $\tau_{th} \approx 1052$ -->
     <g transform="translate(119.788438 277.39386) scale(0.11 -0.11)">
      <defs>
       <path id="DejaVuSans-Oblique-3c4" d="M 2103 638 
Q 2188 488 2525 488 
L 2800 488 
L 2706 0 
L 2363 0 
Q 1800 0 1600 300 
Q 1403 606 1534 1269 
L 1856 2925 
L 541 2925 
L 653 3500 
L 3881 3500 
L 3769 2925 
L 2444 2925 
L 2113 1234 
Q 2025 781 2103 638 
z
" transform="scale(0.015625)"/>
       <path id="DejaVuSans-Oblique-74" d="M 2706 3500 
L 2619 3053 
L 1472 3053 
L 1100 1153 
Q 1081 1047 1072 975 
Q 1063 903 1063 863 
Q 1063 663 1183 572 
Q 1303 481 1569 481 
L 2150 481 
L 2053 0 
L 1503 0 
Q 991 0 739 200 
Q 488 400 488 806 
Q 488 878 497 964 
Q 506 1050 525 1153 
L 897 3053 
L 409 3053 
L 500 3500 
L 978 3500 
L 1172 4494 
L 1747 4494 
L 1556 3500 
L 2706 3500 
z
" transform="scale(0.015625)"/>
       <path id="DejaVuSans-Oblique-68" d="M 3566 2113 
L 3156 0 
L 2578 0 
L 2988 2091 
Q 3016 2238 3031 2350 
Q 3047 2463 3047 2528 
Q 3047 2791 2881 2937 
Q 2716 3084 2419 3084 
Q 1956 3084 1617 2771 
Q 1278 2459 1178 1941 
L 800 0 
L 225 0 
L 1172 4863 
L 1747 4863 
L 1375 2950 
Q 1594 3244 1934 3414 
Q 2275 3584 2650 3584 
Q 3113 3584 3367 3334 
Q 3622 3084 3622 2631 
Q 3622 2519 3608 2391 
Q 3594 2263 3566 2113 
z
" transform="scale(0.015625)"/>
       <path id="DejaVuSans-2248" d="M 4684 1947 
L 4684 1388 
Q 4356 1144 4076 1036 
Q 3797 928 3494 928 
Q 3150 928 2694 1113 
Q 2663 1125 2641 1134 
Q 2622 1141 2575 1159 
Q 2091 1350 1797 1350 
Q 1522 1350 1253 1231 
Q 984 1113 678 850 
L 678 1409 
Q 1006 1653 1286 1761 
Q 1566 1869 1869 1869 
Q 2213 1869 2672 1684 
Q 2706 1669 2722 1663 
Q 2741 1656 2788 1638 
Q 3272 1447 3566 1447 
Q 3834 1447 4098 1564 
Q 4363 1681 4684 1947 
z
M 4684 3163 
L 4684 2606 
Q 4356 2359 4076 2251 
Q 3797 2144 3494 2144 
Q 3150 2144 2694 2328 
Q 2663 2341 2641 2350 
Q 2622 2356 2575 2375 
Q 2091 2566 1797 2566 
Q 1522 2566 1253 2447 
Q 984 2328 678 2069 
L 678 2625 
Q 1006 2869 1286 2976 
Q 1566 3084 1869 3084 
Q 2213 3084 2672 2900 
Q 2703 2888 2719 2881 
Q 2741 2872 2788 2853 
Q 3272 2663 3566 2663 
Q 3834 2663 4098 2780 
Q 4363 2897 4684 3163 
z
" transform="scale(0.015625)"/>
      </defs>
      <use xlink:href="#DejaVuSans-Oblique-3c4" transform="translate(0 0.78125)"/>
      <use xlink:href="#DejaVuSans-Oblique-74" transform="translate(60.205078 -15.625) scale(0.7)"/>
      <use xlink:href="#DejaVuSans-Oblique-68" transform="translate(87.651367 -15.625) scale(0.7)"/>
      <use xlink:href="#DejaVuSans-2248" transform="translate(154.233398 0.78125)"/>
      <use xlink:href="#DejaVuSans-31" transform="translate(257.504883 0.78125)"/>
      <use xlink:href="#DejaVuSans-30" transform="translate(321.12793 0.78125)"/>
      <use xlink:href="#DejaVuSans-35" transform="translate(384.750977 0.78125)"/>
      <use xlink:href="#DejaVuSans-32" transform="translate(448.374023 0.78125)"/>
     </g>
    </g>
    <g id="line2d_17">
     <path d="M 88.988438 289.689797 
L 99.988438 289.689797 
L 110.988438 289.689797 
" style="fill: none; stroke: #802f95; stroke-width: 2; stroke-linecap: square"/>
    </g>
    <g id="text_17">
     <!-- Simulation -->
     <g transform="translate(119.788438 293.539797) scale(0.11 -0.11)">
      <defs>
       <path id="DejaVuSans-53" d="M 3425 4513 
L 3425 3897 
Q 3066 4069 2747 4153 
Q 2428 4238 2131 4238 
Q 1616 4238 1336 4038 
Q 1056 3838 1056 3469 
Q 1056 3159 1242 3001 
Q 1428 2844 1947 2747 
L 2328 2669 
Q 3034 2534 3370 2195 
Q 3706 1856 3706 1288 
Q 3706 609 3251 259 
Q 2797 -91 1919 -91 
Q 1588 -91 1214 -16 
Q 841 59 441 206 
L 441 856 
Q 825 641 1194 531 
Q 1563 422 1919 422 
Q 2459 422 2753 634 
Q 3047 847 3047 1241 
Q 3047 1584 2836 1778 
Q 2625 1972 2144 2069 
L 1759 2144 
Q 1053 2284 737 2584 
Q 422 2884 422 3419 
Q 422 4038 858 4394 
Q 1294 4750 2059 4750 
Q 2388 4750 2728 4690 
Q 3069 4631 3425 4513 
z
" transform="scale(0.015625)"/>
       <path id="DejaVuSans-75" d="M 544 1381 
L 544 3500 
L 1119 3500 
L 1119 1403 
Q 1119 906 1312 657 
Q 1506 409 1894 409 
Q 2359 409 2629 706 
Q 2900 1003 2900 1516 
L 2900 3500 
L 3475 3500 
L 3475 0 
L 2900 0 
L 2900 538 
Q 2691 219 2414 64 
Q 2138 -91 1772 -91 
Q 1169 -91 856 284 
Q 544 659 544 1381 
z
M 1991 3584 
L 1991 3584 
z
" transform="scale(0.015625)"/>
      </defs>
      <use xlink:href="#DejaVuSans-53"/>
      <use xlink:href="#DejaVuSans-69" x="63.476562"/>
      <use xlink:href="#DejaVuSans-6d" x="91.259766"/>
      <use xlink:href="#DejaVuSans-75" x="188.671875"/>
      <use xlink:href="#DejaVuSans-6c" x="252.050781"/>
      <use xlink:href="#DejaVuSans-61" x="279.833984"/>
      <use xlink:href="#DejaVuSans-74" x="341.113281"/>
      <use xlink:href="#DejaVuSans-69" x="380.322266"/>
      <use xlink:href="#DejaVuSans-6f" x="408.105469"/>
      <use xlink:href="#DejaVuSans-6e" x="469.287109"/>
     </g>
    </g>
    <g id="line2d_18">
     <path d="M 88.988438 305.835735 
L 99.988438 305.835735 
L 110.988438 305.835735 
" style="fill: none; stroke: #322694; stroke-width: 2; stroke-linecap: square"/>
    </g>
    <g id="text_18">
     <!-- $\tau_{fit} \approx 1056$ -->
     <g transform="translate(119.788438 309.685735) scale(0.11 -0.11)">
      <defs>
       <path id="DejaVuSans-Oblique-66" d="M 3059 4863 
L 2969 4384 
L 2419 4384 
Q 2106 4384 1964 4261 
Q 1822 4138 1753 3809 
L 1691 3500 
L 2638 3500 
L 2553 3053 
L 1606 3053 
L 1013 0 
L 434 0 
L 1031 3053 
L 481 3053 
L 563 3500 
L 1113 3500 
L 1159 3744 
Q 1278 4363 1576 4613 
Q 1875 4863 2516 4863 
L 3059 4863 
z
" transform="scale(0.015625)"/>
       <path id="DejaVuSans-Oblique-69" d="M 1172 4863 
L 1747 4863 
L 1606 4134 
L 1031 4134 
L 1172 4863 
z
M 909 3500 
L 1484 3500 
L 800 0 
L 225 0 
L 909 3500 
z
" transform="scale(0.015625)"/>
       <path id="DejaVuSans-36" d="M 2113 2584 
Q 1688 2584 1439 2293 
Q 1191 2003 1191 1497 
Q 1191 994 1439 701 
Q 1688 409 2113 409 
Q 2538 409 2786 701 
Q 3034 994 3034 1497 
Q 3034 2003 2786 2293 
Q 2538 2584 2113 2584 
z
M 3366 4563 
L 3366 3988 
Q 3128 4100 2886 4159 
Q 2644 4219 2406 4219 
Q 1781 4219 1451 3797 
Q 1122 3375 1075 2522 
Q 1259 2794 1537 2939 
Q 1816 3084 2150 3084 
Q 2853 3084 3261 2657 
Q 3669 2231 3669 1497 
Q 3669 778 3244 343 
Q 2819 -91 2113 -91 
Q 1303 -91 875 529 
Q 447 1150 447 2328 
Q 447 3434 972 4092 
Q 1497 4750 2381 4750 
Q 2619 4750 2861 4703 
Q 3103 4656 3366 4563 
z
" transform="scale(0.015625)"/>
      </defs>
      <use xlink:href="#DejaVuSans-Oblique-3c4" transform="translate(0 0.78125)"/>
      <use xlink:href="#DejaVuSans-Oblique-66" transform="translate(60.205078 -15.625) scale(0.7)"/>
      <use xlink:href="#DejaVuSans-Oblique-69" transform="translate(84.848633 -15.625) scale(0.7)"/>
      <use xlink:href="#DejaVuSans-Oblique-74" transform="translate(104.296875 -15.625) scale(0.7)"/>
      <use xlink:href="#DejaVuSans-2248" transform="translate(153.959961 0.78125)"/>
      <use xlink:href="#DejaVuSans-31" transform="translate(257.231445 0.78125)"/>
      <use xlink:href="#DejaVuSans-30" transform="translate(320.854492 0.78125)"/>
      <use xlink:href="#DejaVuSans-35" transform="translate(384.477539 0.78125)"/>
      <use xlink:href="#DejaVuSans-36" transform="translate(448.100586 0.78125)"/>
     </g>
    </g>
   </g>
  </g>
  <g id="axes_2">
   <g id="patch_7">
    <path d="M 575.088438 321.873391 
L 971.888438 321.873391 
L 971.888438 38.775519 
L 575.088438 38.775519 
z
" style="fill: #ffffff"/>
   </g>
   <g id="PolyCollection_2">
    <defs>
     <path id="m958cbb0420" d="M 593.124801 -702.14629 
L 593.124801 -702.14629 
L 633.205609 -679.241702 
L 673.286417 -654.907948 
L 713.367225 -628.898297 
L 753.448033 -603.280416 
L 793.528842 -576.642958 
L 833.60965 -546.123004 
L 873.690458 -513.739871 
L 913.771266 -477.979939 
L 953.852074 -444.784588 
L 953.852074 -572.987757 
L 953.852074 -572.987757 
L 913.771266 -590.27229 
L 873.690458 -605.81094 
L 833.60965 -621.39769 
L 793.528842 -637.85082 
L 753.448033 -653.130435 
L 713.367225 -664.84222 
L 673.286417 -678.275338 
L 633.205609 -690.30083 
L 593.124801 -702.14629 
z
" style="stroke: #802f95; stroke-opacity: 0.2"/>
    </defs>
    <g clip-path="url(#pa69eb473cd)">
     <use xlink:href="#m958cbb0420" x="0" y="753.789894" style="fill: #802f95; fill-opacity: 0.2; stroke: #802f95; stroke-opacity: 0.2"/>
    </g>
   </g>
   <g id="matplotlib.axis_3">
    <g id="xtick_6">
     <g id="line2d_19">
      <g>
       <use xlink:href="#m88b5222802" x="593.124801" y="321.873391" style="stroke: #000000; stroke-width: 1.5"/>
      </g>
     </g>
     <g id="text_19">
      <!-- 0 -->
      <g transform="translate(588.671051 342.011203) scale(0.14 -0.14)">
       <use xlink:href="#DejaVuSans-30"/>
      </g>
     </g>
    </g>
    <g id="xtick_7">
     <g id="line2d_20">
      <g>
       <use xlink:href="#m88b5222802" x="673.286417" y="321.873391" style="stroke: #000000; stroke-width: 1.5"/>
      </g>
     </g>
     <g id="text_20">
      <!-- 2 -->
      <g transform="translate(668.832667 342.011203) scale(0.14 -0.14)">
       <use xlink:href="#DejaVuSans-32"/>
      </g>
     </g>
    </g>
    <g id="xtick_8">
     <g id="line2d_21">
      <g>
       <use xlink:href="#m88b5222802" x="753.448033" y="321.873391" style="stroke: #000000; stroke-width: 1.5"/>
      </g>
     </g>
     <g id="text_21">
      <!-- 4 -->
      <g transform="translate(748.994283 342.011203) scale(0.14 -0.14)">
       <defs>
        <path id="DejaVuSans-34" d="M 2419 4116 
L 825 1625 
L 2419 1625 
L 2419 4116 
z
M 2253 4666 
L 3047 4666 
L 3047 1625 
L 3713 1625 
L 3713 1100 
L 3047 1100 
L 3047 0 
L 2419 0 
L 2419 1100 
L 313 1100 
L 313 1709 
L 2253 4666 
z
" transform="scale(0.015625)"/>
       </defs>
       <use xlink:href="#DejaVuSans-34"/>
      </g>
     </g>
    </g>
    <g id="xtick_9">
     <g id="line2d_22">
      <g>
       <use xlink:href="#m88b5222802" x="833.60965" y="321.873391" style="stroke: #000000; stroke-width: 1.5"/>
      </g>
     </g>
     <g id="text_22">
      <!-- 6 -->
      <g transform="translate(829.1559 342.011203) scale(0.14 -0.14)">
       <use xlink:href="#DejaVuSans-36"/>
      </g>
     </g>
    </g>
    <g id="xtick_10">
     <g id="line2d_23">
      <g>
       <use xlink:href="#m88b5222802" x="913.771266" y="321.873391" style="stroke: #000000; stroke-width: 1.5"/>
      </g>
     </g>
     <g id="text_23">
      <!-- 8 -->
      <g transform="translate(909.317516 342.011203) scale(0.14 -0.14)">
       <defs>
        <path id="DejaVuSans-38" d="M 2034 2216 
Q 1584 2216 1326 1975 
Q 1069 1734 1069 1313 
Q 1069 891 1326 650 
Q 1584 409 2034 409 
Q 2484 409 2743 651 
Q 3003 894 3003 1313 
Q 3003 1734 2745 1975 
Q 2488 2216 2034 2216 
z
M 1403 2484 
Q 997 2584 770 2862 
Q 544 3141 544 3541 
Q 544 4100 942 4425 
Q 1341 4750 2034 4750 
Q 2731 4750 3128 4425 
Q 3525 4100 3525 3541 
Q 3525 3141 3298 2862 
Q 3072 2584 2669 2484 
Q 3125 2378 3379 2068 
Q 3634 1759 3634 1313 
Q 3634 634 3220 271 
Q 2806 -91 2034 -91 
Q 1263 -91 848 271 
Q 434 634 434 1313 
Q 434 1759 690 2068 
Q 947 2378 1403 2484 
z
M 1172 3481 
Q 1172 3119 1398 2916 
Q 1625 2713 2034 2713 
Q 2441 2713 2670 2916 
Q 2900 3119 2900 3481 
Q 2900 3844 2670 4047 
Q 2441 4250 2034 4250 
Q 1625 4250 1398 4047 
Q 1172 3844 1172 3481 
z
" transform="scale(0.015625)"/>
       </defs>
       <use xlink:href="#DejaVuSans-38"/>
      </g>
     </g>
    </g>
    <g id="text_24">
     <!-- Time -->
     <g transform="translate(753.914688 361.080266) scale(0.16 -0.16)">
      <use xlink:href="#DejaVuSans-54"/>
      <use xlink:href="#DejaVuSans-69" x="57.958984"/>
      <use xlink:href="#DejaVuSans-6d" x="85.742188"/>
      <use xlink:href="#DejaVuSans-65" x="183.154297"/>
     </g>
    </g>
   </g>
   <g id="matplotlib.axis_4">
    <g id="ytick_8">
     <g id="line2d_24">
      <g>
       <use xlink:href="#m4dc892d5ea" x="575.088438" y="315.405359" style="stroke: #000000; stroke-width: 1.5"/>
      </g>
     </g>
     <g id="text_25">
      <!-- −0.06 -->
      <g transform="translate(522.685 320.724266) scale(0.14 -0.14)">
       <use xlink:href="#DejaVuSans-2212"/>
       <use xlink:href="#DejaVuSans-30" x="83.789062"/>
       <use xlink:href="#DejaVuSans-2e" x="147.412109"/>
       <use xlink:href="#DejaVuSans-30" x="179.199219"/>
       <use xlink:href="#DejaVuSans-36" x="242.822266"/>
      </g>
     </g>
    </g>
    <g id="ytick_9">
     <g id="line2d_25">
      <g>
       <use xlink:href="#m4dc892d5ea" x="575.088438" y="271.445067" style="stroke: #000000; stroke-width: 1.5"/>
      </g>
     </g>
     <g id="text_26">
      <!-- −0.05 -->
      <g transform="translate(522.685 276.763973) scale(0.14 -0.14)">
       <use xlink:href="#DejaVuSans-2212"/>
       <use xlink:href="#DejaVuSans-30" x="83.789062"/>
       <use xlink:href="#DejaVuSans-2e" x="147.412109"/>
       <use xlink:href="#DejaVuSans-30" x="179.199219"/>
       <use xlink:href="#DejaVuSans-35" x="242.822266"/>
      </g>
     </g>
    </g>
    <g id="ytick_10">
     <g id="line2d_26">
      <g>
       <use xlink:href="#m4dc892d5ea" x="575.088438" y="227.484774" style="stroke: #000000; stroke-width: 1.5"/>
      </g>
     </g>
     <g id="text_27">
      <!-- −0.04 -->
      <g transform="translate(522.685 232.80368) scale(0.14 -0.14)">
       <use xlink:href="#DejaVuSans-2212"/>
       <use xlink:href="#DejaVuSans-30" x="83.789062"/>
       <use xlink:href="#DejaVuSans-2e" x="147.412109"/>
       <use xlink:href="#DejaVuSans-30" x="179.199219"/>
       <use xlink:href="#DejaVuSans-34" x="242.822266"/>
      </g>
     </g>
    </g>
    <g id="ytick_11">
     <g id="line2d_27">
      <g>
       <use xlink:href="#m4dc892d5ea" x="575.088438" y="183.524482" style="stroke: #000000; stroke-width: 1.5"/>
      </g>
     </g>
     <g id="text_28">
      <!-- −0.03 -->
      <g transform="translate(522.685 188.843388) scale(0.14 -0.14)">
       <use xlink:href="#DejaVuSans-2212"/>
       <use xlink:href="#DejaVuSans-30" x="83.789062"/>
       <use xlink:href="#DejaVuSans-2e" x="147.412109"/>
       <use xlink:href="#DejaVuSans-30" x="179.199219"/>
       <use xlink:href="#DejaVuSans-33" x="242.822266"/>
      </g>
     </g>
    </g>
    <g id="ytick_12">
     <g id="line2d_28">
      <g>
       <use xlink:href="#m4dc892d5ea" x="575.088438" y="139.564189" style="stroke: #000000; stroke-width: 1.5"/>
      </g>
     </g>
     <g id="text_29">
      <!-- −0.02 -->
      <g transform="translate(522.685 144.883095) scale(0.14 -0.14)">
       <use xlink:href="#DejaVuSans-2212"/>
       <use xlink:href="#DejaVuSans-30" x="83.789062"/>
       <use xlink:href="#DejaVuSans-2e" x="147.412109"/>
       <use xlink:href="#DejaVuSans-30" x="179.199219"/>
       <use xlink:href="#DejaVuSans-32" x="242.822266"/>
      </g>
     </g>
    </g>
    <g id="ytick_13">
     <g id="line2d_29">
      <g>
       <use xlink:href="#m4dc892d5ea" x="575.088438" y="95.603896" style="stroke: #000000; stroke-width: 1.5"/>
      </g>
     </g>
     <g id="text_30">
      <!-- −0.01 -->
      <g transform="translate(522.685 100.922803) scale(0.14 -0.14)">
       <use xlink:href="#DejaVuSans-2212"/>
       <use xlink:href="#DejaVuSans-30" x="83.789062"/>
       <use xlink:href="#DejaVuSans-2e" x="147.412109"/>
       <use xlink:href="#DejaVuSans-30" x="179.199219"/>
       <use xlink:href="#DejaVuSans-31" x="242.822266"/>
      </g>
     </g>
    </g>
    <g id="ytick_14">
     <g id="line2d_30">
      <g>
       <use xlink:href="#m4dc892d5ea" x="575.088438" y="51.643604" style="stroke: #000000; stroke-width: 1.5"/>
      </g>
     </g>
     <g id="text_31">
      <!-- 0.00 -->
      <g transform="translate(534.416563 56.96251) scale(0.14 -0.14)">
       <use xlink:href="#DejaVuSans-30"/>
       <use xlink:href="#DejaVuSans-2e" x="63.623047"/>
       <use xlink:href="#DejaVuSans-30" x="95.410156"/>
       <use xlink:href="#DejaVuSans-30" x="159.033203"/>
      </g>
     </g>
    </g>
    <g id="text_32">
     <!-- Log Correlation -->
     <g transform="translate(515.3575 241.268205) rotate(-90) scale(0.16 -0.16)">
      <use xlink:href="#DejaVuSans-4c"/>
      <use xlink:href="#DejaVuSans-6f" x="53.962891"/>
      <use xlink:href="#DejaVuSans-67" x="115.144531"/>
      <use xlink:href="#DejaVuSans-20" x="178.621094"/>
      <use xlink:href="#DejaVuSans-43" x="210.408203"/>
      <use xlink:href="#DejaVuSans-6f" x="280.232422"/>
      <use xlink:href="#DejaVuSans-72" x="341.414062"/>
      <use xlink:href="#DejaVuSans-72" x="380.777344"/>
      <use xlink:href="#DejaVuSans-65" x="419.640625"/>
      <use xlink:href="#DejaVuSans-6c" x="481.164062"/>
      <use xlink:href="#DejaVuSans-61" x="508.947266"/>
      <use xlink:href="#DejaVuSans-74" x="570.226562"/>
      <use xlink:href="#DejaVuSans-69" x="609.435547"/>
      <use xlink:href="#DejaVuSans-6f" x="637.21875"/>
      <use xlink:href="#DejaVuSans-6e" x="698.400391"/>
     </g>
    </g>
   </g>
   <g id="line2d_31">
    <path d="M 593.124801 51.643604 
L 596.768511 53.162232 
L 600.412221 54.68086 
L 604.055931 56.199489 
L 607.69964 57.718117 
L 611.34335 59.236745 
L 614.98706 60.755373 
L 618.63077 62.274002 
L 622.27448 63.79263 
L 625.91819 65.311258 
L 629.561899 66.829887 
L 633.205609 68.348515 
L 636.849319 69.867143 
L 640.493029 71.385772 
L 644.136739 72.9044 
L 647.780449 74.423028 
L 651.424158 75.941656 
L 655.067868 77.460285 
L 658.711578 78.978913 
L 662.355288 80.497541 
L 665.998998 82.01617 
L 669.642707 83.534798 
L 673.286417 85.053426 
L 676.930127 86.572054 
L 680.573837 88.090683 
L 684.217547 89.609311 
L 687.861257 91.127939 
L 691.504966 92.646568 
L 695.148676 94.165196 
L 698.792386 95.683824 
L 702.436096 97.202452 
L 706.079806 98.721081 
L 709.723516 100.239709 
L 713.367225 101.758337 
L 717.010935 103.276966 
L 720.654645 104.795594 
L 724.298355 106.314222 
L 727.942065 107.83285 
L 731.585775 109.351479 
L 735.229484 110.870107 
L 738.873194 112.388735 
L 742.516904 113.907364 
L 746.160614 115.425992 
L 749.804324 116.94462 
L 753.448033 118.463249 
L 757.091743 119.981877 
L 760.735453 121.500505 
L 764.379163 123.019133 
L 768.022873 124.537762 
L 771.666583 126.05639 
L 775.310292 127.575018 
L 778.954002 129.093647 
L 782.597712 130.612275 
L 786.241422 132.130903 
L 789.885132 133.649531 
L 793.528842 135.16816 
L 797.172551 136.686788 
L 800.816261 138.205416 
L 804.459971 139.724045 
L 808.103681 141.242673 
L 811.747391 142.761301 
L 815.3911 144.279929 
L 819.03481 145.798558 
L 822.67852 147.317186 
L 826.32223 148.835814 
L 829.96594 150.354443 
L 833.60965 151.873071 
L 837.253359 153.391699 
L 840.897069 154.910327 
L 844.540779 156.428956 
L 848.184489 157.947584 
L 851.828199 159.466212 
L 855.471909 160.984841 
L 859.115618 162.503469 
L 862.759328 164.022097 
L 866.403038 165.540726 
L 870.046748 167.059354 
L 873.690458 168.577982 
L 877.334168 170.09661 
L 880.977877 171.615239 
L 884.621587 173.133867 
L 888.265297 174.652495 
L 891.909007 176.171124 
L 895.552717 177.689752 
L 899.196426 179.20838 
L 902.840136 180.727008 
L 906.483846 182.245637 
L 910.127556 183.764265 
L 913.771266 185.282893 
L 917.414976 186.801522 
L 921.058685 188.32015 
L 924.702395 189.838778 
L 928.346105 191.357406 
L 931.989815 192.876035 
L 935.633525 194.394663 
L 939.277235 195.913291 
L 942.920944 197.43192 
L 946.564654 198.950548 
L 950.208364 200.469176 
L 953.852074 201.987804 
" clip-path="url(#pa69eb473cd)" style="fill: none; stroke: #ff4126; stroke-width: 2.5; stroke-linecap: square"/>
   </g>
   <g id="line2d_32">
    <path d="M 593.124801 51.643604 
L 633.205609 69.018627 
L 673.286417 87.198251 
L 713.367225 106.919635 
L 753.448033 125.584468 
L 793.528842 146.543005 
L 833.60965 170.029547 
L 873.690458 194.014488 
L 913.771266 219.663779 
L 953.852074 244.903721 
" clip-path="url(#pa69eb473cd)" style="fill: none; stroke: #802f95; stroke-width: 2; stroke-linecap: square"/>
   </g>
   <g id="patch_8">
    <path d="M 575.088438 321.873391 
L 575.088438 38.775519 
" style="fill: none; stroke: #000000; stroke-width: 1.5; stroke-linejoin: miter; stroke-linecap: square"/>
   </g>
   <g id="patch_9">
    <path d="M 971.888438 321.873391 
L 971.888438 38.775519 
" style="fill: none; stroke: #000000; stroke-width: 1.5; stroke-linejoin: miter; stroke-linecap: square"/>
   </g>
   <g id="patch_10">
    <path d="M 575.088438 321.873391 
L 971.888438 321.873391 
" style="fill: none; stroke: #000000; stroke-width: 1.5; stroke-linejoin: miter; stroke-linecap: square"/>
   </g>
   <g id="patch_11">
    <path d="M 575.088438 38.775519 
L 971.888438 38.775519 
" style="fill: none; stroke: #000000; stroke-width: 1.5; stroke-linejoin: miter; stroke-linecap: square"/>
   </g>
   <g id="text_33">
    <!-- B -->
    <g transform="translate(535.408438 20.877187) scale(0.18 -0.18)">
     <defs>
      <path id="DejaVuSans-Bold-42" d="M 2456 2859 
Q 2741 2859 2887 2984 
Q 3034 3109 3034 3353 
Q 3034 3594 2887 3720 
Q 2741 3847 2456 3847 
L 1791 3847 
L 1791 2859 
L 2456 2859 
z
M 2497 819 
Q 2859 819 3042 972 
Q 3225 1125 3225 1434 
Q 3225 1738 3044 1889 
Q 2863 2041 2497 2041 
L 1791 2041 
L 1791 819 
L 2497 819 
z
M 3616 2497 
Q 4003 2384 4215 2081 
Q 4428 1778 4428 1338 
Q 4428 663 3972 331 
Q 3516 0 2584 0 
L 588 0 
L 588 4666 
L 2394 4666 
Q 3366 4666 3802 4372 
Q 4238 4078 4238 3431 
Q 4238 3091 4078 2852 
Q 3919 2613 3616 2497 
z
" transform="scale(0.015625)"/>
     </defs>
     <use xlink:href="#DejaVuSans-Bold-42"/>
    </g>
   </g>
   <g id="legend_2">
    <g id="line2d_33">
     <path d="M 584.988438 289.689797 
L 595.988438 289.689797 
L 606.988438 289.689797 
" style="fill: none; stroke: #ff4126; stroke-width: 2.5; stroke-linecap: square"/>
    </g>
    <g id="text_34">
     <!-- $\tau_{th} \approx 263$ -->
     <g transform="translate(615.788437 293.539797) scale(0.11 -0.11)">
      <use xlink:href="#DejaVuSans-Oblique-3c4" transform="translate(0 0.78125)"/>
      <use xlink:href="#DejaVuSans-Oblique-74" transform="translate(60.205078 -15.625) scale(0.7)"/>
      <use xlink:href="#DejaVuSans-Oblique-68" transform="translate(87.651367 -15.625) scale(0.7)"/>
      <use xlink:href="#DejaVuSans-2248" transform="translate(154.233398 0.78125)"/>
      <use xlink:href="#DejaVuSans-32" transform="translate(257.504883 0.78125)"/>
      <use xlink:href="#DejaVuSans-36" transform="translate(321.12793 0.78125)"/>
      <use xlink:href="#DejaVuSans-33" transform="translate(384.750977 0.78125)"/>
     </g>
    </g>
    <g id="line2d_34">
     <path d="M 584.988438 305.835735 
L 595.988438 305.835735 
L 606.988438 305.835735 
" style="fill: none; stroke: #802f95; stroke-width: 2; stroke-linecap: square"/>
    </g>
    <g id="text_35">
     <!-- Simulation -->
     <g transform="translate(615.788437 309.685735) scale(0.11 -0.11)">
      <use xlink:href="#DejaVuSans-53"/>
      <use xlink:href="#DejaVuSans-69" x="63.476562"/>
      <use xlink:href="#DejaVuSans-6d" x="91.259766"/>
      <use xlink:href="#DejaVuSans-75" x="188.671875"/>
      <use xlink:href="#DejaVuSans-6c" x="252.050781"/>
      <use xlink:href="#DejaVuSans-61" x="279.833984"/>
      <use xlink:href="#DejaVuSans-74" x="341.113281"/>
      <use xlink:href="#DejaVuSans-69" x="380.322266"/>
      <use xlink:href="#DejaVuSans-6f" x="408.105469"/>
      <use xlink:href="#DejaVuSans-6e" x="469.287109"/>
     </g>
    </g>
   </g>
  </g>
  <g id="axes_3">
   <g id="patch_12">
    <path d="M 79.088437 704.055519 
L 475.888437 704.055519 
L 475.888437 420.957646 
L 79.088437 420.957646 
z
" style="fill: #ffffff"/>
   </g>
   <g id="PolyCollection_3">
    <defs>
     <path id="m96089d1cc5" d="M 97.124801 -319.964162 
L 97.124801 -319.964162 
L 103.45335 -318.525886 
L 109.781898 -316.922371 
L 116.110447 -315.268318 
L 122.438996 -313.614066 
L 128.767544 -311.976198 
L 135.096093 -310.358804 
L 141.424642 -308.593342 
L 147.75319 -306.832277 
L 154.081739 -304.779297 
L 160.410288 -302.780333 
L 166.738836 -301.337347 
L 173.067385 -299.306005 
L 179.395934 -297.173363 
L 185.724482 -295.300873 
L 192.053031 -293.353104 
L 198.381579 -291.182213 
L 204.710128 -289.145221 
L 211.038677 -286.304925 
L 217.367225 -284.34165 
L 223.695774 -281.640618 
L 230.024323 -278.960212 
L 236.352871 -276.341397 
L 242.68142 -273.954163 
L 249.009969 -271.768111 
L 255.338517 -269.080663 
L 261.667066 -266.177475 
L 267.995615 -262.934424 
L 274.324163 -259.924368 
L 280.652712 -256.33112 
L 286.98126 -252.935555 
L 293.309809 -249.769569 
L 299.638358 -245.800501 
L 305.966906 -241.3251 
L 312.295455 -237.279573 
L 318.624004 -232.639244 
L 324.952552 -229.088883 
L 331.281101 -224.146859 
L 337.60965 -217.11917 
L 343.938198 -212.286902 
L 350.266747 -206.439032 
L 356.595296 -202.087812 
L 362.923844 -196.880857 
L 369.252393 -194.307667 
L 375.580941 -188.360406 
L 381.90949 -182.577063 
L 388.238039 -175.195107 
L 394.566587 -164.392535 
L 400.895136 -158.069492 
L 407.223685 -148.722589 
L 413.552233 -141.47941 
L 419.880782 -131.569987 
L 426.209331 -123.377222 
L 432.537879 -110.773732 
L 438.866428 -102.258027 
L 445.194977 -88.763838 
L 451.523525 -74.077114 
L 457.852074 -62.60246 
L 457.852074 -200.350271 
L 457.852074 -200.350271 
L 451.523525 -205.949496 
L 445.194977 -212.339715 
L 438.866428 -216.116621 
L 432.537879 -220.556441 
L 426.209331 -224.83818 
L 419.880782 -228.921898 
L 413.552233 -232.176771 
L 407.223685 -237.217405 
L 400.895136 -239.772234 
L 394.566587 -242.667447 
L 388.238039 -245.866999 
L 381.90949 -249.933871 
L 375.580941 -252.530087 
L 369.252393 -255.476753 
L 362.923844 -259.29207 
L 356.595296 -261.992973 
L 350.266747 -263.779671 
L 343.938198 -267.007603 
L 337.60965 -269.236553 
L 331.281101 -270.570777 
L 324.952552 -272.8696 
L 318.624004 -274.843238 
L 312.295455 -276.842716 
L 305.966906 -279.502888 
L 299.638358 -280.940264 
L 293.309809 -283.292901 
L 286.98126 -284.659895 
L 280.652712 -285.923239 
L 274.324163 -287.728528 
L 267.995615 -289.480981 
L 261.667066 -290.953058 
L 255.338517 -292.485268 
L 249.009969 -293.821369 
L 242.68142 -295.663204 
L 236.352871 -297.027717 
L 230.024323 -298.244119 
L 223.695774 -299.610332 
L 217.367225 -300.972177 
L 211.038677 -302.278838 
L 204.710128 -303.322688 
L 198.381579 -304.445883 
L 192.053031 -305.623137 
L 185.724482 -306.550869 
L 179.395934 -307.365973 
L 173.067385 -308.53829 
L 166.738836 -309.88088 
L 160.410288 -311.140747 
L 154.081739 -312.171768 
L 147.75319 -312.979062 
L 141.424642 -314.019847 
L 135.096093 -314.889373 
L 128.767544 -315.875587 
L 122.438996 -316.720534 
L 116.110447 -317.493572 
L 109.781898 -318.314498 
L 103.45335 -319.182355 
L 97.124801 -319.964162 
z
" style="stroke: #802f95; stroke-opacity: 0.2"/>
    </defs>
    <g clip-path="url(#p7b23cca118)">
     <use xlink:href="#m96089d1cc5" x="0" y="753.789894" style="fill: #802f95; fill-opacity: 0.2; stroke: #802f95; stroke-opacity: 0.2"/>
    </g>
   </g>
   <g id="matplotlib.axis_5">
    <g id="xtick_11">
     <g id="line2d_35">
      <g>
       <use xlink:href="#m88b5222802" x="97.124801" y="704.055519" style="stroke: #000000; stroke-width: 1.5"/>
      </g>
     </g>
     <g id="text_36">
      <!-- 0 -->
      <g transform="translate(92.671051 724.193331) scale(0.14 -0.14)">
       <use xlink:href="#DejaVuSans-30"/>
      </g>
     </g>
    </g>
    <g id="xtick_12">
     <g id="line2d_36">
      <g>
       <use xlink:href="#m88b5222802" x="160.410288" y="704.055519" style="stroke: #000000; stroke-width: 1.5"/>
      </g>
     </g>
     <g id="text_37">
      <!-- 10 -->
      <g transform="translate(151.502788 724.193331) scale(0.14 -0.14)">
       <use xlink:href="#DejaVuSans-31"/>
       <use xlink:href="#DejaVuSans-30" x="63.623047"/>
      </g>
     </g>
    </g>
    <g id="xtick_13">
     <g id="line2d_37">
      <g>
       <use xlink:href="#m88b5222802" x="223.695774" y="704.055519" style="stroke: #000000; stroke-width: 1.5"/>
      </g>
     </g>
     <g id="text_38">
      <!-- 20 -->
      <g transform="translate(214.788274 724.193331) scale(0.14 -0.14)">
       <use xlink:href="#DejaVuSans-32"/>
       <use xlink:href="#DejaVuSans-30" x="63.623047"/>
      </g>
     </g>
    </g>
    <g id="xtick_14">
     <g id="line2d_38">
      <g>
       <use xlink:href="#m88b5222802" x="286.98126" y="704.055519" style="stroke: #000000; stroke-width: 1.5"/>
      </g>
     </g>
     <g id="text_39">
      <!-- 30 -->
      <g transform="translate(278.07376 724.193331) scale(0.14 -0.14)">
       <use xlink:href="#DejaVuSans-33"/>
       <use xlink:href="#DejaVuSans-30" x="63.623047"/>
      </g>
     </g>
    </g>
    <g id="xtick_15">
     <g id="line2d_39">
      <g>
       <use xlink:href="#m88b5222802" x="350.266747" y="704.055519" style="stroke: #000000; stroke-width: 1.5"/>
      </g>
     </g>
     <g id="text_40">
      <!-- 40 -->
      <g transform="translate(341.359247 724.193331) scale(0.14 -0.14)">
       <use xlink:href="#DejaVuSans-34"/>
       <use xlink:href="#DejaVuSans-30" x="63.623047"/>
      </g>
     </g>
    </g>
    <g id="xtick_16">
     <g id="line2d_40">
      <g>
       <use xlink:href="#m88b5222802" x="413.552233" y="704.055519" style="stroke: #000000; stroke-width: 1.5"/>
      </g>
     </g>
     <g id="text_41">
      <!-- 50 -->
      <g transform="translate(404.644733 724.193331) scale(0.14 -0.14)">
       <use xlink:href="#DejaVuSans-35"/>
       <use xlink:href="#DejaVuSans-30" x="63.623047"/>
      </g>
     </g>
    </g>
    <g id="text_42">
     <!-- Time -->
     <g transform="translate(257.914687 743.262394) scale(0.16 -0.16)">
      <use xlink:href="#DejaVuSans-54"/>
      <use xlink:href="#DejaVuSans-69" x="57.958984"/>
      <use xlink:href="#DejaVuSans-6d" x="85.742188"/>
      <use xlink:href="#DejaVuSans-65" x="183.154297"/>
     </g>
    </g>
   </g>
   <g id="matplotlib.axis_6">
    <g id="ytick_15">
     <g id="line2d_41">
      <g>
       <use xlink:href="#m4dc892d5ea" x="79.088437" y="697.400024" style="stroke: #000000; stroke-width: 1.5"/>
      </g>
     </g>
     <g id="text_43">
      <!-- −0.25 -->
      <g transform="translate(26.685 702.718931) scale(0.14 -0.14)">
       <use xlink:href="#DejaVuSans-2212"/>
       <use xlink:href="#DejaVuSans-30" x="83.789062"/>
       <use xlink:href="#DejaVuSans-2e" x="147.412109"/>
       <use xlink:href="#DejaVuSans-32" x="179.199219"/>
       <use xlink:href="#DejaVuSans-35" x="242.822266"/>
      </g>
     </g>
    </g>
    <g id="ytick_16">
     <g id="line2d_42">
      <g>
       <use xlink:href="#m4dc892d5ea" x="79.088437" y="644.685166" style="stroke: #000000; stroke-width: 1.5"/>
      </g>
     </g>
     <g id="text_44">
      <!-- −0.20 -->
      <g transform="translate(26.685 650.004072) scale(0.14 -0.14)">
       <use xlink:href="#DejaVuSans-2212"/>
       <use xlink:href="#DejaVuSans-30" x="83.789062"/>
       <use xlink:href="#DejaVuSans-2e" x="147.412109"/>
       <use xlink:href="#DejaVuSans-32" x="179.199219"/>
       <use xlink:href="#DejaVuSans-30" x="242.822266"/>
      </g>
     </g>
    </g>
    <g id="ytick_17">
     <g id="line2d_43">
      <g>
       <use xlink:href="#m4dc892d5ea" x="79.088437" y="591.970307" style="stroke: #000000; stroke-width: 1.5"/>
      </g>
     </g>
     <g id="text_45">
      <!-- −0.15 -->
      <g transform="translate(26.685 597.289213) scale(0.14 -0.14)">
       <use xlink:href="#DejaVuSans-2212"/>
       <use xlink:href="#DejaVuSans-30" x="83.789062"/>
       <use xlink:href="#DejaVuSans-2e" x="147.412109"/>
       <use xlink:href="#DejaVuSans-31" x="179.199219"/>
       <use xlink:href="#DejaVuSans-35" x="242.822266"/>
      </g>
     </g>
    </g>
    <g id="ytick_18">
     <g id="line2d_44">
      <g>
       <use xlink:href="#m4dc892d5ea" x="79.088437" y="539.255449" style="stroke: #000000; stroke-width: 1.5"/>
      </g>
     </g>
     <g id="text_46">
      <!-- −0.10 -->
      <g transform="translate(26.685 544.574355) scale(0.14 -0.14)">
       <use xlink:href="#DejaVuSans-2212"/>
       <use xlink:href="#DejaVuSans-30" x="83.789062"/>
       <use xlink:href="#DejaVuSans-2e" x="147.412109"/>
       <use xlink:href="#DejaVuSans-31" x="179.199219"/>
       <use xlink:href="#DejaVuSans-30" x="242.822266"/>
      </g>
     </g>
    </g>
    <g id="ytick_19">
     <g id="line2d_45">
      <g>
       <use xlink:href="#m4dc892d5ea" x="79.088437" y="486.54059" style="stroke: #000000; stroke-width: 1.5"/>
      </g>
     </g>
     <g id="text_47">
      <!-- −0.05 -->
      <g transform="translate(26.685 491.859496) scale(0.14 -0.14)">
       <use xlink:href="#DejaVuSans-2212"/>
       <use xlink:href="#DejaVuSans-30" x="83.789062"/>
       <use xlink:href="#DejaVuSans-2e" x="147.412109"/>
       <use xlink:href="#DejaVuSans-30" x="179.199219"/>
       <use xlink:href="#DejaVuSans-35" x="242.822266"/>
      </g>
     </g>
    </g>
    <g id="ytick_20">
     <g id="line2d_46">
      <g>
       <use xlink:href="#m4dc892d5ea" x="79.088437" y="433.825731" style="stroke: #000000; stroke-width: 1.5"/>
      </g>
     </g>
     <g id="text_48">
      <!-- 0.00 -->
      <g transform="translate(38.416562 439.144638) scale(0.14 -0.14)">
       <use xlink:href="#DejaVuSans-30"/>
       <use xlink:href="#DejaVuSans-2e" x="63.623047"/>
       <use xlink:href="#DejaVuSans-30" x="95.410156"/>
       <use xlink:href="#DejaVuSans-30" x="159.033203"/>
      </g>
     </g>
    </g>
    <g id="text_49">
     <!-- Log Correlation -->
     <g transform="translate(19.3575 623.450332) rotate(-90) scale(0.16 -0.16)">
      <use xlink:href="#DejaVuSans-4c"/>
      <use xlink:href="#DejaVuSans-6f" x="53.962891"/>
      <use xlink:href="#DejaVuSans-67" x="115.144531"/>
      <use xlink:href="#DejaVuSans-20" x="178.621094"/>
      <use xlink:href="#DejaVuSans-43" x="210.408203"/>
      <use xlink:href="#DejaVuSans-6f" x="280.232422"/>
      <use xlink:href="#DejaVuSans-72" x="341.414062"/>
      <use xlink:href="#DejaVuSans-72" x="380.777344"/>
      <use xlink:href="#DejaVuSans-65" x="419.640625"/>
      <use xlink:href="#DejaVuSans-6c" x="481.164062"/>
      <use xlink:href="#DejaVuSans-61" x="508.947266"/>
      <use xlink:href="#DejaVuSans-74" x="570.226562"/>
      <use xlink:href="#DejaVuSans-69" x="609.435547"/>
      <use xlink:href="#DejaVuSans-6f" x="637.21875"/>
      <use xlink:href="#DejaVuSans-6e" x="698.400391"/>
     </g>
    </g>
   </g>
   <g id="line2d_47">
    <path d="M 97.124801 433.825731 
L 103.45335 434.839645 
L 109.781898 435.878766 
L 116.110447 436.942808 
L 122.438996 438.031717 
L 128.767544 439.146828 
L 135.096093 440.289752 
L 141.424642 441.463166 
L 147.75319 442.668541 
L 154.081739 443.906301 
L 160.410288 445.177859 
L 166.738836 446.484381 
L 173.067385 447.826533 
L 179.395934 449.206036 
L 185.724482 450.624323 
L 192.053031 452.082776 
L 198.381579 453.584813 
L 204.710128 455.131723 
L 211.038677 456.723509 
L 217.367225 458.362057 
L 223.695774 460.051738 
L 230.024323 461.795665 
L 236.352871 463.595781 
L 242.68142 465.455045 
L 249.009969 467.375798 
L 255.338517 469.361927 
L 261.667066 471.417281 
L 267.995615 473.543964 
L 274.324163 475.745245 
L 280.652712 478.026078 
L 286.98126 480.390343 
L 293.309809 482.842372 
L 299.638358 485.386107 
L 305.966906 488.029629 
L 312.295455 490.779942 
L 318.624004 493.639231 
L 324.952552 496.617 
L 331.281101 499.717292 
L 337.60965 502.948992 
L 343.938198 506.32613 
L 350.266747 509.851073 
L 356.595296 513.533451 
L 362.923844 517.382601 
L 369.252393 521.413997 
L 375.580941 525.640187 
L 381.90949 530.079683 
L 388.238039 534.755088 
L 394.566587 539.673117 
L 400.895136 544.858596 
L 407.223685 550.340622 
L 413.552233 556.134932 
L 419.880782 562.266 
L 426.209331 568.768089 
L 432.537879 575.672817 
L 438.866428 582.998105 
L 445.194977 590.776059 
L 451.523525 599.064086 
L 457.852074 607.893514 
" clip-path="url(#p7b23cca118)" style="fill: none; stroke: #ff0000; stroke-width: 2.5; stroke-linecap: square"/>
   </g>
   <g id="line2d_48">
    <path d="M 97.124801 433.825731 
L 103.45335 434.935773 
L 109.781898 436.17146 
L 116.110447 437.408949 
L 122.438996 438.622593 
L 128.767544 439.864002 
L 135.096093 441.165805 
L 141.424642 442.483299 
L 147.75319 443.884224 
L 154.081739 445.314361 
L 160.410288 446.829354 
L 166.738836 448.18078 
L 173.067385 449.867746 
L 179.395934 451.520226 
L 185.724482 452.864023 
L 192.053031 454.301773 
L 198.381579 455.975846 
L 204.710128 457.555939 
L 211.038677 459.498012 
L 217.367225 461.13298 
L 223.695774 463.164419 
L 230.024323 465.187728 
L 236.352871 467.105337 
L 242.68142 468.98121 
L 249.009969 470.995154 
L 255.338517 473.006928 
L 261.667066 475.224627 
L 267.995615 477.582191 
L 274.324163 479.963446 
L 280.652712 482.662714 
L 286.98126 484.992169 
L 293.309809 487.258658 
L 299.638358 490.419511 
L 305.966906 493.3759 
L 312.295455 496.728749 
L 318.624004 500.048653 
L 324.952552 502.810652 
L 331.281101 506.431075 
L 337.60965 510.612032 
L 343.938198 514.142641 
L 350.266747 518.680542 
L 356.595296 521.749501 
L 362.923844 525.70343 
L 369.252393 528.897684 
L 375.580941 533.344647 
L 381.90949 537.534427 
L 388.238039 543.258841 
L 394.566587 550.259903 
L 400.895136 554.869031 
L 407.223685 560.819897 
L 413.552233 566.961803 
L 419.880782 573.543951 
L 426.209331 579.682192 
L 432.537879 588.124807 
L 438.866428 594.60257 
L 445.194977 603.238117 
L 451.523525 613.776589 
L 457.852074 622.313528 
" clip-path="url(#p7b23cca118)" style="fill: none; stroke: #802f95; stroke-width: 2; stroke-linecap: square"/>
   </g>
   <g id="patch_13">
    <path d="M 79.088437 704.055519 
L 79.088437 420.957646 
" style="fill: none; stroke: #000000; stroke-width: 1.5; stroke-linejoin: miter; stroke-linecap: square"/>
   </g>
   <g id="patch_14">
    <path d="M 475.888437 704.055519 
L 475.888437 420.957646 
" style="fill: none; stroke: #000000; stroke-width: 1.5; stroke-linejoin: miter; stroke-linecap: square"/>
   </g>
   <g id="patch_15">
    <path d="M 79.088437 704.055519 
L 475.888437 704.055519 
" style="fill: none; stroke: #000000; stroke-width: 1.5; stroke-linejoin: miter; stroke-linecap: square"/>
   </g>
   <g id="patch_16">
    <path d="M 79.088437 420.957646 
L 475.888437 420.957646 
" style="fill: none; stroke: #000000; stroke-width: 1.5; stroke-linejoin: miter; stroke-linecap: square"/>
   </g>
   <g id="text_50">
    <!-- C -->
    <g transform="translate(39.408437 403.059315) scale(0.18 -0.18)">
     <defs>
      <path id="DejaVuSans-Bold-43" d="M 4288 256 
Q 3956 84 3597 -3 
Q 3238 -91 2847 -91 
Q 1681 -91 1000 561 
Q 319 1213 319 2328 
Q 319 3447 1000 4098 
Q 1681 4750 2847 4750 
Q 3238 4750 3597 4662 
Q 3956 4575 4288 4403 
L 4288 3438 
Q 3953 3666 3628 3772 
Q 3303 3878 2944 3878 
Q 2300 3878 1931 3465 
Q 1563 3053 1563 2328 
Q 1563 1606 1931 1193 
Q 2300 781 2944 781 
Q 3303 781 3628 887 
Q 3953 994 4288 1222 
L 4288 256 
z
" transform="scale(0.015625)"/>
     </defs>
     <use xlink:href="#DejaVuSans-Bold-43"/>
    </g>
   </g>
   <g id="legend_3">
    <g id="line2d_49">
     <path d="M 88.988438 671.871925 
L 99.988438 671.871925 
L 110.988438 671.871925 
" style="fill: none; stroke: #ff0000; stroke-width: 2.5; stroke-linecap: square"/>
    </g>
    <g id="text_51">
     <!-- Theory -->
     <g transform="translate(119.788438 675.721925) scale(0.11 -0.11)">
      <defs>
       <path id="DejaVuSans-68" d="M 3513 2113 
L 3513 0 
L 2938 0 
L 2938 2094 
Q 2938 2591 2744 2837 
Q 2550 3084 2163 3084 
Q 1697 3084 1428 2787 
Q 1159 2491 1159 1978 
L 1159 0 
L 581 0 
L 581 4863 
L 1159 4863 
L 1159 2956 
Q 1366 3272 1645 3428 
Q 1925 3584 2291 3584 
Q 2894 3584 3203 3211 
Q 3513 2838 3513 2113 
z
" transform="scale(0.015625)"/>
       <path id="DejaVuSans-79" d="M 2059 -325 
Q 1816 -950 1584 -1140 
Q 1353 -1331 966 -1331 
L 506 -1331 
L 506 -850 
L 844 -850 
Q 1081 -850 1212 -737 
Q 1344 -625 1503 -206 
L 1606 56 
L 191 3500 
L 800 3500 
L 1894 763 
L 2988 3500 
L 3597 3500 
L 2059 -325 
z
" transform="scale(0.015625)"/>
      </defs>
      <use xlink:href="#DejaVuSans-54"/>
      <use xlink:href="#DejaVuSans-68" x="61.083984"/>
      <use xlink:href="#DejaVuSans-65" x="124.462891"/>
      <use xlink:href="#DejaVuSans-6f" x="185.986328"/>
      <use xlink:href="#DejaVuSans-72" x="247.167969"/>
      <use xlink:href="#DejaVuSans-79" x="288.28125"/>
     </g>
    </g>
    <g id="line2d_50">
     <path d="M 88.988438 688.017862 
L 99.988438 688.017862 
L 110.988438 688.017862 
" style="fill: none; stroke: #802f95; stroke-width: 2; stroke-linecap: square"/>
    </g>
    <g id="text_52">
     <!-- Simulation -->
     <g transform="translate(119.788438 691.867862) scale(0.11 -0.11)">
      <use xlink:href="#DejaVuSans-53"/>
      <use xlink:href="#DejaVuSans-69" x="63.476562"/>
      <use xlink:href="#DejaVuSans-6d" x="91.259766"/>
      <use xlink:href="#DejaVuSans-75" x="188.671875"/>
      <use xlink:href="#DejaVuSans-6c" x="252.050781"/>
      <use xlink:href="#DejaVuSans-61" x="279.833984"/>
      <use xlink:href="#DejaVuSans-74" x="341.113281"/>
      <use xlink:href="#DejaVuSans-69" x="380.322266"/>
      <use xlink:href="#DejaVuSans-6f" x="408.105469"/>
      <use xlink:href="#DejaVuSans-6e" x="469.287109"/>
     </g>
    </g>
   </g>
  </g>
  <g id="axes_4">
   <g id="patch_17">
    <path d="M 575.088438 704.055519 
L 971.888438 704.055519 
L 971.888438 420.957646 
L 575.088438 420.957646 
z
" style="fill: #ffffff"/>
   </g>
   <g id="PolyCollection_4">
    <defs>
     <path id="m383043b598" d="M 593.124801 -319.964162 
L 593.124801 -319.964162 
L 633.205609 -309.167631 
L 673.286417 -297.697435 
L 713.367225 -285.437271 
L 753.448033 -273.361775 
L 793.528842 -260.805682 
L 833.60965 -246.419498 
L 873.690458 -231.155067 
L 913.771266 -214.298915 
L 953.852074 -198.651629 
L 953.852074 -259.082731 
L 953.852074 -259.082731 
L 913.771266 -267.230138 
L 873.690458 -274.554588 
L 833.60965 -281.901711 
L 793.528842 -289.65722 
L 753.448033 -296.859569 
L 713.367225 -302.380151 
L 673.286417 -308.712116 
L 633.205609 -314.38057 
L 593.124801 -319.964162 
z
" style="stroke: #802f95; stroke-opacity: 0.2"/>
    </defs>
    <g clip-path="url(#p64fb4c0fc0)">
     <use xlink:href="#m383043b598" x="0" y="753.789894" style="fill: #802f95; fill-opacity: 0.2; stroke: #802f95; stroke-opacity: 0.2"/>
    </g>
   </g>
   <g id="matplotlib.axis_7">
    <g id="xtick_17">
     <g id="line2d_51">
      <g>
       <use xlink:href="#m88b5222802" x="593.124801" y="704.055519" style="stroke: #000000; stroke-width: 1.5"/>
      </g>
     </g>
     <g id="text_53">
      <!-- 0 -->
      <g transform="translate(588.671051 724.193331) scale(0.14 -0.14)">
       <use xlink:href="#DejaVuSans-30"/>
      </g>
     </g>
    </g>
    <g id="xtick_18">
     <g id="line2d_52">
      <g>
       <use xlink:href="#m88b5222802" x="673.286417" y="704.055519" style="stroke: #000000; stroke-width: 1.5"/>
      </g>
     </g>
     <g id="text_54">
      <!-- 2 -->
      <g transform="translate(668.832667 724.193331) scale(0.14 -0.14)">
       <use xlink:href="#DejaVuSans-32"/>
      </g>
     </g>
    </g>
    <g id="xtick_19">
     <g id="line2d_53">
      <g>
       <use xlink:href="#m88b5222802" x="753.448033" y="704.055519" style="stroke: #000000; stroke-width: 1.5"/>
      </g>
     </g>
     <g id="text_55">
      <!-- 4 -->
      <g transform="translate(748.994283 724.193331) scale(0.14 -0.14)">
       <use xlink:href="#DejaVuSans-34"/>
      </g>
     </g>
    </g>
    <g id="xtick_20">
     <g id="line2d_54">
      <g>
       <use xlink:href="#m88b5222802" x="833.60965" y="704.055519" style="stroke: #000000; stroke-width: 1.5"/>
      </g>
     </g>
     <g id="text_56">
      <!-- 6 -->
      <g transform="translate(829.1559 724.193331) scale(0.14 -0.14)">
       <use xlink:href="#DejaVuSans-36"/>
      </g>
     </g>
    </g>
    <g id="xtick_21">
     <g id="line2d_55">
      <g>
       <use xlink:href="#m88b5222802" x="913.771266" y="704.055519" style="stroke: #000000; stroke-width: 1.5"/>
      </g>
     </g>
     <g id="text_57">
      <!-- 8 -->
      <g transform="translate(909.317516 724.193331) scale(0.14 -0.14)">
       <use xlink:href="#DejaVuSans-38"/>
      </g>
     </g>
    </g>
    <g id="text_58">
     <!-- Time -->
     <g transform="translate(753.914688 743.262394) scale(0.16 -0.16)">
      <use xlink:href="#DejaVuSans-54"/>
      <use xlink:href="#DejaVuSans-69" x="57.958984"/>
      <use xlink:href="#DejaVuSans-6d" x="85.742188"/>
      <use xlink:href="#DejaVuSans-65" x="183.154297"/>
     </g>
    </g>
   </g>
   <g id="matplotlib.axis_8">
    <g id="ytick_21">
     <g id="line2d_56">
      <g>
       <use xlink:href="#m4dc892d5ea" x="575.088438" y="682.484381" style="stroke: #000000; stroke-width: 1.5"/>
      </g>
     </g>
     <g id="text_59">
      <!-- −0.12 -->
      <g transform="translate(522.685 687.803287) scale(0.14 -0.14)">
       <use xlink:href="#DejaVuSans-2212"/>
       <use xlink:href="#DejaVuSans-30" x="83.789062"/>
       <use xlink:href="#DejaVuSans-2e" x="147.412109"/>
       <use xlink:href="#DejaVuSans-31" x="179.199219"/>
       <use xlink:href="#DejaVuSans-32" x="242.822266"/>
      </g>
     </g>
    </g>
    <g id="ytick_22">
     <g id="line2d_57">
      <g>
       <use xlink:href="#m4dc892d5ea" x="575.088438" y="641.041273" style="stroke: #000000; stroke-width: 1.5"/>
      </g>
     </g>
     <g id="text_60">
      <!-- −0.10 -->
      <g transform="translate(522.685 646.360179) scale(0.14 -0.14)">
       <use xlink:href="#DejaVuSans-2212"/>
       <use xlink:href="#DejaVuSans-30" x="83.789062"/>
       <use xlink:href="#DejaVuSans-2e" x="147.412109"/>
       <use xlink:href="#DejaVuSans-31" x="179.199219"/>
       <use xlink:href="#DejaVuSans-30" x="242.822266"/>
      </g>
     </g>
    </g>
    <g id="ytick_23">
     <g id="line2d_58">
      <g>
       <use xlink:href="#m4dc892d5ea" x="575.088438" y="599.598164" style="stroke: #000000; stroke-width: 1.5"/>
      </g>
     </g>
     <g id="text_61">
      <!-- −0.08 -->
      <g transform="translate(522.685 604.917071) scale(0.14 -0.14)">
       <use xlink:href="#DejaVuSans-2212"/>
       <use xlink:href="#DejaVuSans-30" x="83.789062"/>
       <use xlink:href="#DejaVuSans-2e" x="147.412109"/>
       <use xlink:href="#DejaVuSans-30" x="179.199219"/>
       <use xlink:href="#DejaVuSans-38" x="242.822266"/>
      </g>
     </g>
    </g>
    <g id="ytick_24">
     <g id="line2d_59">
      <g>
       <use xlink:href="#m4dc892d5ea" x="575.088438" y="558.155056" style="stroke: #000000; stroke-width: 1.5"/>
      </g>
     </g>
     <g id="text_62">
      <!-- −0.06 -->
      <g transform="translate(522.685 563.473962) scale(0.14 -0.14)">
       <use xlink:href="#DejaVuSans-2212"/>
       <use xlink:href="#DejaVuSans-30" x="83.789062"/>
       <use xlink:href="#DejaVuSans-2e" x="147.412109"/>
       <use xlink:href="#DejaVuSans-30" x="179.199219"/>
       <use xlink:href="#DejaVuSans-36" x="242.822266"/>
      </g>
     </g>
    </g>
    <g id="ytick_25">
     <g id="line2d_60">
      <g>
       <use xlink:href="#m4dc892d5ea" x="575.088438" y="516.711948" style="stroke: #000000; stroke-width: 1.5"/>
      </g>
     </g>
     <g id="text_63">
      <!-- −0.04 -->
      <g transform="translate(522.685 522.030854) scale(0.14 -0.14)">
       <use xlink:href="#DejaVuSans-2212"/>
       <use xlink:href="#DejaVuSans-30" x="83.789062"/>
       <use xlink:href="#DejaVuSans-2e" x="147.412109"/>
       <use xlink:href="#DejaVuSans-30" x="179.199219"/>
       <use xlink:href="#DejaVuSans-34" x="242.822266"/>
      </g>
     </g>
    </g>
    <g id="ytick_26">
     <g id="line2d_61">
      <g>
       <use xlink:href="#m4dc892d5ea" x="575.088438" y="475.26884" style="stroke: #000000; stroke-width: 1.5"/>
      </g>
     </g>
     <g id="text_64">
      <!-- −0.02 -->
      <g transform="translate(522.685 480.587746) scale(0.14 -0.14)">
       <use xlink:href="#DejaVuSans-2212"/>
       <use xlink:href="#DejaVuSans-30" x="83.789062"/>
       <use xlink:href="#DejaVuSans-2e" x="147.412109"/>
       <use xlink:href="#DejaVuSans-30" x="179.199219"/>
       <use xlink:href="#DejaVuSans-32" x="242.822266"/>
      </g>
     </g>
    </g>
    <g id="ytick_27">
     <g id="line2d_62">
      <g>
       <use xlink:href="#m4dc892d5ea" x="575.088438" y="433.825731" style="stroke: #000000; stroke-width: 1.5"/>
      </g>
     </g>
     <g id="text_65">
      <!-- 0.00 -->
      <g transform="translate(534.416563 439.144638) scale(0.14 -0.14)">
       <use xlink:href="#DejaVuSans-30"/>
       <use xlink:href="#DejaVuSans-2e" x="63.623047"/>
       <use xlink:href="#DejaVuSans-30" x="95.410156"/>
       <use xlink:href="#DejaVuSans-30" x="159.033203"/>
      </g>
     </g>
    </g>
    <g id="text_66">
     <!-- Log Correlation -->
     <g transform="translate(515.3575 623.450332) rotate(-90) scale(0.16 -0.16)">
      <use xlink:href="#DejaVuSans-4c"/>
      <use xlink:href="#DejaVuSans-6f" x="53.962891"/>
      <use xlink:href="#DejaVuSans-67" x="115.144531"/>
      <use xlink:href="#DejaVuSans-20" x="178.621094"/>
      <use xlink:href="#DejaVuSans-43" x="210.408203"/>
      <use xlink:href="#DejaVuSans-6f" x="280.232422"/>
      <use xlink:href="#DejaVuSans-72" x="341.414062"/>
      <use xlink:href="#DejaVuSans-72" x="380.777344"/>
      <use xlink:href="#DejaVuSans-65" x="419.640625"/>
      <use xlink:href="#DejaVuSans-6c" x="481.164062"/>
      <use xlink:href="#DejaVuSans-61" x="508.947266"/>
      <use xlink:href="#DejaVuSans-74" x="570.226562"/>
      <use xlink:href="#DejaVuSans-69" x="609.435547"/>
      <use xlink:href="#DejaVuSans-6f" x="637.21875"/>
      <use xlink:href="#DejaVuSans-6e" x="698.400391"/>
     </g>
    </g>
   </g>
   <g id="line2d_63">
    <path d="M 593.124801 433.825731 
L 596.768511 436.425345 
L 600.412221 439.024958 
L 604.055931 441.624571 
L 607.69964 444.224184 
L 611.34335 446.823797 
L 614.98706 449.42341 
L 618.63077 452.023023 
L 622.27448 454.622637 
L 625.91819 457.22225 
L 629.561899 459.821863 
L 633.205609 462.421476 
L 636.849319 465.021089 
L 640.493029 467.620702 
L 644.136739 470.220316 
L 647.780449 472.819929 
L 651.424158 475.419542 
L 655.067868 478.019155 
L 658.711578 480.618768 
L 662.355288 483.218381 
L 665.998998 485.817994 
L 669.642707 488.417608 
L 673.286417 491.017221 
L 676.930127 493.616834 
L 680.573837 496.216447 
L 684.217547 498.81606 
L 687.861257 501.415673 
L 691.504966 504.015287 
L 695.148676 506.6149 
L 698.792386 509.214513 
L 702.436096 511.814126 
L 706.079806 514.413739 
L 709.723516 517.013352 
L 713.367225 519.612965 
L 717.010935 522.212579 
L 720.654645 524.812192 
L 724.298355 527.411805 
L 727.942065 530.011418 
L 731.585775 532.611031 
L 735.229484 535.210644 
L 738.873194 537.810257 
L 742.516904 540.409871 
L 746.160614 543.009484 
L 749.804324 545.609097 
L 753.448033 548.20871 
L 757.091743 550.808323 
L 760.735453 553.407936 
L 764.379163 556.00755 
L 768.022873 558.607163 
L 771.666583 561.206776 
L 775.310292 563.806389 
L 778.954002 566.406002 
L 782.597712 569.005615 
L 786.241422 571.605228 
L 789.885132 574.204842 
L 793.528842 576.804455 
L 797.172551 579.404068 
L 800.816261 582.003681 
L 804.459971 584.603294 
L 808.103681 587.202907 
L 811.747391 589.802521 
L 815.3911 592.402134 
L 819.03481 595.001747 
L 822.67852 597.60136 
L 826.32223 600.200973 
L 829.96594 602.800586 
L 833.60965 605.400199 
L 837.253359 607.999813 
L 840.897069 610.599426 
L 844.540779 613.199039 
L 848.184489 615.798652 
L 851.828199 618.398265 
L 855.471909 620.997878 
L 859.115618 623.597492 
L 862.759328 626.197105 
L 866.403038 628.796718 
L 870.046748 631.396331 
L 873.690458 633.995944 
L 877.334168 636.595557 
L 880.977877 639.19517 
L 884.621587 641.794784 
L 888.265297 644.394397 
L 891.909007 646.99401 
L 895.552717 649.593623 
L 899.196426 652.193236 
L 902.840136 654.792849 
L 906.483846 657.392463 
L 910.127556 659.992076 
L 913.771266 662.591689 
L 917.414976 665.191302 
L 921.058685 667.790915 
L 924.702395 670.390528 
L 928.346105 672.990141 
L 931.989815 675.589755 
L 935.633525 678.189368 
L 939.277235 680.788981 
L 942.920944 683.388594 
L 946.564654 685.988207 
L 950.208364 688.58782 
L 953.852074 691.187434 
" clip-path="url(#p64fb4c0fc0)" style="fill: none; stroke: #ff4126; stroke-width: 2.5; stroke-linecap: square"/>
   </g>
   <g id="line2d_64">
    <path d="M 593.124801 433.825731 
L 633.205609 442.015793 
L 673.286417 450.585118 
L 713.367225 459.881183 
L 753.448033 468.679222 
L 793.528842 478.558443 
L 833.60965 489.629289 
L 873.690458 500.935066 
L 913.771266 513.025367 
L 953.852074 524.922713 
" clip-path="url(#p64fb4c0fc0)" style="fill: none; stroke: #802f95; stroke-width: 2; stroke-linecap: square"/>
   </g>
   <g id="patch_18">
    <path d="M 575.088438 704.055519 
L 575.088438 420.957646 
" style="fill: none; stroke: #000000; stroke-width: 1.5; stroke-linejoin: miter; stroke-linecap: square"/>
   </g>
   <g id="patch_19">
    <path d="M 971.888438 704.055519 
L 971.888438 420.957646 
" style="fill: none; stroke: #000000; stroke-width: 1.5; stroke-linejoin: miter; stroke-linecap: square"/>
   </g>
   <g id="patch_20">
    <path d="M 575.088438 704.055519 
L 971.888438 704.055519 
" style="fill: none; stroke: #000000; stroke-width: 1.5; stroke-linejoin: miter; stroke-linecap: square"/>
   </g>
   <g id="patch_21">
    <path d="M 575.088438 420.957646 
L 971.888438 420.957646 
" style="fill: none; stroke: #000000; stroke-width: 1.5; stroke-linejoin: miter; stroke-linecap: square"/>
   </g>
   <g id="text_67">
    <!-- D -->
    <g transform="translate(535.408438 403.059315) scale(0.18 -0.18)">
     <defs>
      <path id="DejaVuSans-Bold-44" d="M 1791 3756 
L 1791 909 
L 2222 909 
Q 2959 909 3348 1275 
Q 3738 1641 3738 2338 
Q 3738 3031 3350 3393 
Q 2963 3756 2222 3756 
L 1791 3756 
z
M 588 4666 
L 1856 4666 
Q 2919 4666 3439 4514 
Q 3959 4363 4331 4000 
Q 4659 3684 4818 3271 
Q 4978 2859 4978 2338 
Q 4978 1809 4818 1395 
Q 4659 981 4331 666 
Q 3956 303 3431 151 
Q 2906 0 1856 0 
L 588 0 
L 588 4666 
z
" transform="scale(0.015625)"/>
     </defs>
     <use xlink:href="#DejaVuSans-Bold-44"/>
    </g>
   </g>
   <g id="legend_4">
    <g id="line2d_65">
     <path d="M 584.988438 671.871925 
L 595.988438 671.871925 
L 606.988438 671.871925 
" style="fill: none; stroke: #ff4126; stroke-width: 2.5; stroke-linecap: square"/>
    </g>
    <g id="text_68">
     <!-- $\tau_{new} \approx 72$ -->
     <g transform="translate(615.788437 675.721925) scale(0.11 -0.11)">
      <defs>
       <path id="DejaVuSans-Oblique-6e" d="M 3566 2113 
L 3156 0 
L 2578 0 
L 2988 2091 
Q 3016 2238 3031 2350 
Q 3047 2463 3047 2528 
Q 3047 2791 2881 2937 
Q 2716 3084 2419 3084 
Q 1956 3084 1622 2776 
Q 1288 2469 1184 1941 
L 800 0 
L 225 0 
L 903 3500 
L 1478 3500 
L 1363 2950 
Q 1603 3253 1940 3418 
Q 2278 3584 2650 3584 
Q 3113 3584 3367 3334 
Q 3622 3084 3622 2631 
Q 3622 2519 3608 2391 
Q 3594 2263 3566 2113 
z
" transform="scale(0.015625)"/>
       <path id="DejaVuSans-Oblique-65" d="M 3078 2063 
Q 3088 2113 3092 2166 
Q 3097 2219 3097 2272 
Q 3097 2653 2873 2875 
Q 2650 3097 2266 3097 
Q 1838 3097 1509 2826 
Q 1181 2556 1013 2059 
L 3078 2063 
z
M 3578 1613 
L 903 1613 
Q 884 1494 878 1425 
Q 872 1356 872 1306 
Q 872 872 1139 634 
Q 1406 397 1894 397 
Q 2269 397 2603 481 
Q 2938 566 3225 728 
L 3116 159 
Q 2806 34 2476 -28 
Q 2147 -91 1806 -91 
Q 1078 -91 686 257 
Q 294 606 294 1247 
Q 294 1794 489 2264 
Q 684 2734 1063 3103 
Q 1306 3334 1642 3459 
Q 1978 3584 2356 3584 
Q 2950 3584 3301 3228 
Q 3653 2872 3653 2272 
Q 3653 2128 3634 1964 
Q 3616 1800 3578 1613 
z
" transform="scale(0.015625)"/>
       <path id="DejaVuSans-Oblique-77" d="M 544 3500 
L 1113 3500 
L 1259 684 
L 2566 3500 
L 3231 3500 
L 3425 684 
L 4666 3500 
L 5241 3500 
L 3641 0 
L 2969 0 
L 2797 2900 
L 1459 0 
L 781 0 
L 544 3500 
z
" transform="scale(0.015625)"/>
       <path id="DejaVuSans-37" d="M 525 4666 
L 3525 4666 
L 3525 4397 
L 1831 0 
L 1172 0 
L 2766 4134 
L 525 4134 
L 525 4666 
z
" transform="scale(0.015625)"/>
      </defs>
      <use xlink:href="#DejaVuSans-Oblique-3c4" transform="translate(0 0.78125)"/>
      <use xlink:href="#DejaVuSans-Oblique-6e" transform="translate(60.205078 -15.625) scale(0.7)"/>
      <use xlink:href="#DejaVuSans-Oblique-65" transform="translate(104.570312 -15.625) scale(0.7)"/>
      <use xlink:href="#DejaVuSans-Oblique-77" transform="translate(147.636719 -15.625) scale(0.7)"/>
      <use xlink:href="#DejaVuSans-2248" transform="translate(227.104492 0.78125)"/>
      <use xlink:href="#DejaVuSans-37" transform="translate(330.375977 0.78125)"/>
      <use xlink:href="#DejaVuSans-32" transform="translate(393.999023 0.78125)"/>
     </g>
    </g>
    <g id="line2d_66">
     <path d="M 584.988438 688.017862 
L 595.988438 688.017862 
L 606.988438 688.017862 
" style="fill: none; stroke: #802f95; stroke-width: 2; stroke-linecap: square"/>
    </g>
    <g id="text_69">
     <!-- Simulation -->
     <g transform="translate(615.788437 691.867862) scale(0.11 -0.11)">
      <use xlink:href="#DejaVuSans-53"/>
      <use xlink:href="#DejaVuSans-69" x="63.476562"/>
      <use xlink:href="#DejaVuSans-6d" x="91.259766"/>
      <use xlink:href="#DejaVuSans-75" x="188.671875"/>
      <use xlink:href="#DejaVuSans-6c" x="252.050781"/>
      <use xlink:href="#DejaVuSans-61" x="279.833984"/>
      <use xlink:href="#DejaVuSans-74" x="341.113281"/>
      <use xlink:href="#DejaVuSans-69" x="380.322266"/>
      <use xlink:href="#DejaVuSans-6f" x="408.105469"/>
      <use xlink:href="#DejaVuSans-6e" x="469.287109"/>
     </g>
    </g>
   </g>
  </g>
 </g>
 <defs>
  <clipPath id="pe7fbe12d9d">
   <rect x="79.088437" y="38.775519" width="396.8" height="283.097872"/>
  </clipPath>
  <clipPath id="pa69eb473cd">
   <rect x="575.088438" y="38.775519" width="396.8" height="283.097872"/>
  </clipPath>
  <clipPath id="p7b23cca118">
   <rect x="79.088437" y="420.957646" width="396.8" height="283.097872"/>
  </clipPath>
  <clipPath id="p64fb4c0fc0">
   <rect x="575.088438" y="420.957646" width="396.8" height="283.097872"/>
  </clipPath>
 </defs>
</svg>
