<?xml version="1.0" encoding="utf-8" standalone="no"?>
<!DOCTYPE svg PUBLIC "-//W3C//DTD SVG 1.1//EN"
  "http://www.w3.org/Graphics/SVG/1.1/DTD/svg11.dtd">
<svg xmlns:xlink="http://www.w3.org/1999/xlink" width="979.088437pt" height="753.789894pt" viewBox="0 0 979.088437 753.789894" xmlns="http://www.w3.org/2000/svg" version="1.1">
 <metadata>
  <rdf:RDF xmlns:dc="http://purl.org/dc/elements/1.1/" xmlns:cc="http://creativecommons.org/ns#" xmlns:rdf="http://www.w3.org/1999/02/22-rdf-syntax-ns#">
   <cc:Work>
    <dc:type rdf:resource="http://purl.org/dc/dcmitype/StillImage"/>
    <dc:date>2026-01-12T15:31:02.214585</dc:date>
    <dc:format>image/svg+xml</dc:format>
    <dc:creator>
     <cc:Agent>
      <dc:title>Matplotlib v3.9.4, https://matplotlib.org/</dc:title>
     </cc:Agent>
    </dc:creator>
   </cc:Work>
  </rdf:RDF>
 </metadata>
 <defs>
  <style type="text/css">*{stroke-linejoin: round; stroke-linecap: butt}</style>
 </defs>
 <g id="figure_1">
  <g id="patch_1">
   <path d="M 0 753.789894 
L 979.088437 753.789894 
L 979.088437 0 
L 0 0 
z
" style="fill: #ffffff"/>
  </g>
  <g id="axes_1">
   <g id="patch_2">
    <path d="M 79.088437 321.873391 
L 475.888437 321.873391 
L 475.888437 38.775519 
L 79.088437 38.775519 
z
" style="fill: #ffffff"/>
   </g>
   <g id="PolyCollection_1">
    <defs>
     <path id="md8b0ac9a86" d="M 97.124801 -702.14629 
L 97.124801 -702.14629 
L 104.339347 -696.89862 
L 111.553892 -691.154448 
L 118.768437 -686.237207 
L 125.982983 -679.461942 
L 133.197528 -674.686954 
L 140.412074 -668.214728 
L 147.626619 -662.730347 
L 154.841165 -657.104235 
L 162.05571 -649.265833 
L 169.270256 -642.759256 
L 176.484801 -638.242295 
L 183.699347 -624.601842 
L 190.913892 -615.507639 
L 198.128437 -604.619103 
L 205.342983 -598.85909 
L 212.557528 -587.093807 
L 219.772074 -568.331499 
L 226.986619 -575.626398 
L 234.201165 -567.94566 
L 241.41571 -547.315913 
L 248.630256 -539.068643 
L 255.844801 -540.759805 
L 263.059347 -532.413138 
L 270.273892 -534.433435 
L 277.488437 -519.56214 
L 284.702983 -499.523038 
L 291.917528 -510.892873 
L 299.132074 -508.425458 
L 306.346619 -526.462981 
L 313.561165 -501.55448 
L 320.77571 -516.526706 
L 327.990256 -500.740579 
L 335.204801 -508.103604 
L 342.419347 -483.504739 
L 349.633892 -484.039865 
L 356.848437 -470.823732 
L 364.062983 -499.097517 
L 371.277528 -469.278188 
L 378.492074 -471.450928 
L 385.706619 -501.336614 
L 392.921165 -493.655573 
L 400.13571 -468.465482 
L 407.350256 -451.114847 
L 414.564801 -482.766136 
L 421.779347 -490.400951 
L 428.993892 -447.475964 
L 436.208437 -465.748429 
L 443.422983 -477.921318 
L 450.637528 -444.784588 
L 457.852074 -469.652383 
L 457.852074 -629.141499 
L 457.852074 -629.141499 
L 450.637528 -643.285893 
L 443.422983 -634.778575 
L 436.208437 -632.896474 
L 428.993892 -635.502737 
L 421.779347 -626.738247 
L 414.564801 -630.604451 
L 407.350256 -634.043646 
L 400.13571 -640.470852 
L 392.921165 -633.41068 
L 385.706619 -636.98896 
L 378.492074 -635.973026 
L 371.277528 -649.045919 
L 364.062983 -640.460202 
L 356.848437 -641.736249 
L 349.633892 -636.442175 
L 342.419347 -637.268589 
L 335.204801 -637.721249 
L 327.990256 -636.189655 
L 320.77571 -635.209161 
L 313.561165 -650.549159 
L 306.346619 -640.213905 
L 299.132074 -648.113309 
L 291.917528 -646.361072 
L 284.702983 -655.227484 
L 277.488437 -649.345266 
L 270.273892 -642.827283 
L 263.059347 -646.664395 
L 255.844801 -648.583294 
L 248.630256 -658.734456 
L 241.41571 -660.087967 
L 234.201165 -656.925932 
L 226.986619 -661.587195 
L 219.772074 -674.262975 
L 212.557528 -667.970429 
L 205.342983 -668.908577 
L 198.128437 -671.80168 
L 190.913892 -673.280642 
L 183.699347 -675.059183 
L 176.484801 -671.721818 
L 169.270256 -675.317801 
L 162.05571 -677.023142 
L 154.841165 -679.377037 
L 147.626619 -682.920127 
L 140.412074 -687.185433 
L 133.197528 -689.2988 
L 125.982983 -691.266676 
L 118.768437 -694.007299 
L 111.553892 -696.879976 
L 104.339347 -699.327486 
L 97.124801 -702.14629 
z
" style="stroke: #802f95; stroke-opacity: 0.2"/>
    </defs>
    <g clip-path="url(#p24b339a92f)">
     <use xlink:href="#md8b0ac9a86" x="0" y="753.789894" style="fill: #802f95; fill-opacity: 0.2; stroke: #802f95; stroke-opacity: 0.2"/>
    </g>
   </g>
   <g id="matplotlib.axis_1">
    <g id="xtick_1">
     <g id="line2d_1">
      <defs>
       <path id="m5b610e7eee" d="M 0 0 
L 0 6 
" style="stroke: #000000; stroke-width: 1.5"/>
      </defs>
      <g>
       <use xlink:href="#m5b610e7eee" x="97.124801" y="321.873391" style="stroke: #000000; stroke-width: 1.5"/>
      </g>
     </g>
     <g id="text_1">
      <!-- 0 -->
      <g transform="translate(92.671051 342.011203) scale(0.14 -0.14)">
       <defs>
        <path id="DejaVuSans-30" d="M 2034 4250 
Q 1547 4250 1301 3770 
Q 1056 3291 1056 2328 
Q 1056 1369 1301 889 
Q 1547 409 2034 409 
Q 2525 409 2770 889 
Q 3016 1369 3016 2328 
Q 3016 3291 2770 3770 
Q 2525 4250 2034 4250 
z
M 2034 4750 
Q 2819 4750 3233 4129 
Q 3647 3509 3647 2328 
Q 3647 1150 3233 529 
Q 2819 -91 2034 -91 
Q 1250 -91 836 529 
Q 422 1150 422 2328 
Q 422 3509 836 4129 
Q 1250 4750 2034 4750 
z
" transform="scale(0.015625)"/>
       </defs>
       <use xlink:href="#DejaVuSans-30"/>
      </g>
     </g>
    </g>
    <g id="xtick_2">
     <g id="line2d_2">
      <g>
       <use xlink:href="#m5b610e7eee" x="166.495431" y="321.873391" style="stroke: #000000; stroke-width: 1.5"/>
      </g>
     </g>
     <g id="text_2">
      <!-- 500 -->
      <g transform="translate(153.134181 342.011203) scale(0.14 -0.14)">
       <defs>
        <path id="DejaVuSans-35" d="M 691 4666 
L 3169 4666 
L 3169 4134 
L 1269 4134 
L 1269 2991 
Q 1406 3038 1543 3061 
Q 1681 3084 1819 3084 
Q 2600 3084 3056 2656 
Q 3513 2228 3513 1497 
Q 3513 744 3044 326 
Q 2575 -91 1722 -91 
Q 1428 -91 1123 -41 
Q 819 9 494 109 
L 494 744 
Q 775 591 1075 516 
Q 1375 441 1709 441 
Q 2250 441 2565 725 
Q 2881 1009 2881 1497 
Q 2881 1984 2565 2268 
Q 2250 2553 1709 2553 
Q 1456 2553 1204 2497 
Q 953 2441 691 2322 
L 691 4666 
z
" transform="scale(0.015625)"/>
       </defs>
       <use xlink:href="#DejaVuSans-35"/>
       <use xlink:href="#DejaVuSans-30" x="63.623047"/>
       <use xlink:href="#DejaVuSans-30" x="127.246094"/>
      </g>
     </g>
    </g>
    <g id="xtick_3">
     <g id="line2d_3">
      <g>
       <use xlink:href="#m5b610e7eee" x="235.86606" y="321.873391" style="stroke: #000000; stroke-width: 1.5"/>
      </g>
     </g>
     <g id="text_3">
      <!-- 1000 -->
      <g transform="translate(218.05106 342.011203) scale(0.14 -0.14)">
       <defs>
        <path id="DejaVuSans-31" d="M 794 531 
L 1825 531 
L 1825 4091 
L 703 3866 
L 703 4441 
L 1819 4666 
L 2450 4666 
L 2450 531 
L 3481 531 
L 3481 0 
L 794 0 
L 794 531 
z
" transform="scale(0.015625)"/>
       </defs>
       <use xlink:href="#DejaVuSans-31"/>
       <use xlink:href="#DejaVuSans-30" x="63.623047"/>
       <use xlink:href="#DejaVuSans-30" x="127.246094"/>
       <use xlink:href="#DejaVuSans-30" x="190.869141"/>
      </g>
     </g>
    </g>
    <g id="xtick_4">
     <g id="line2d_4">
      <g>
       <use xlink:href="#m5b610e7eee" x="305.236689" y="321.873391" style="stroke: #000000; stroke-width: 1.5"/>
      </g>
     </g>
     <g id="text_4">
      <!-- 1500 -->
      <g transform="translate(287.421689 342.011203) scale(0.14 -0.14)">
       <use xlink:href="#DejaVuSans-31"/>
       <use xlink:href="#DejaVuSans-35" x="63.623047"/>
       <use xlink:href="#DejaVuSans-30" x="127.246094"/>
       <use xlink:href="#DejaVuSans-30" x="190.869141"/>
      </g>
     </g>
    </g>
    <g id="xtick_5">
     <g id="line2d_5">
      <g>
       <use xlink:href="#m5b610e7eee" x="374.607319" y="321.873391" style="stroke: #000000; stroke-width: 1.5"/>
      </g>
     </g>
     <g id="text_5">
      <!-- 2000 -->
      <g transform="translate(356.792319 342.011203) scale(0.14 -0.14)">
       <defs>
        <path id="DejaVuSans-32" d="M 1228 531 
L 3431 531 
L 3431 0 
L 469 0 
L 469 531 
Q 828 903 1448 1529 
Q 2069 2156 2228 2338 
Q 2531 2678 2651 2914 
Q 2772 3150 2772 3378 
Q 2772 3750 2511 3984 
Q 2250 4219 1831 4219 
Q 1534 4219 1204 4116 
Q 875 4013 500 3803 
L 500 4441 
Q 881 4594 1212 4672 
Q 1544 4750 1819 4750 
Q 2544 4750 2975 4387 
Q 3406 4025 3406 3419 
Q 3406 3131 3298 2873 
Q 3191 2616 2906 2266 
Q 2828 2175 2409 1742 
Q 1991 1309 1228 531 
z
" transform="scale(0.015625)"/>
       </defs>
       <use xlink:href="#DejaVuSans-32"/>
       <use xlink:href="#DejaVuSans-30" x="63.623047"/>
       <use xlink:href="#DejaVuSans-30" x="127.246094"/>
       <use xlink:href="#DejaVuSans-30" x="190.869141"/>
      </g>
     </g>
    </g>
    <g id="xtick_6">
     <g id="line2d_6">
      <g>
       <use xlink:href="#m5b610e7eee" x="443.977948" y="321.873391" style="stroke: #000000; stroke-width: 1.5"/>
      </g>
     </g>
     <g id="text_6">
      <!-- 2500 -->
      <g transform="translate(426.162948 342.011203) scale(0.14 -0.14)">
       <use xlink:href="#DejaVuSans-32"/>
       <use xlink:href="#DejaVuSans-35" x="63.623047"/>
       <use xlink:href="#DejaVuSans-30" x="127.246094"/>
       <use xlink:href="#DejaVuSans-30" x="190.869141"/>
      </g>
     </g>
    </g>
    <g id="text_7">
     <!-- Time -->
     <g transform="translate(257.914687 361.080266) scale(0.16 -0.16)">
      <defs>
       <path id="DejaVuSans-54" d="M -19 4666 
L 3928 4666 
L 3928 4134 
L 2272 4134 
L 2272 0 
L 1638 0 
L 1638 4134 
L -19 4134 
L -19 4666 
z
" transform="scale(0.015625)"/>
       <path id="DejaVuSans-69" d="M 603 3500 
L 1178 3500 
L 1178 0 
L 603 0 
L 603 3500 
z
M 603 4863 
L 1178 4863 
L 1178 4134 
L 603 4134 
L 603 4863 
z
" transform="scale(0.015625)"/>
       <path id="DejaVuSans-6d" d="M 3328 2828 
Q 3544 3216 3844 3400 
Q 4144 3584 4550 3584 
Q 5097 3584 5394 3201 
Q 5691 2819 5691 2113 
L 5691 0 
L 5113 0 
L 5113 2094 
Q 5113 2597 4934 2840 
Q 4756 3084 4391 3084 
Q 3944 3084 3684 2787 
Q 3425 2491 3425 1978 
L 3425 0 
L 2847 0 
L 2847 2094 
Q 2847 2600 2669 2842 
Q 2491 3084 2119 3084 
Q 1678 3084 1418 2786 
Q 1159 2488 1159 1978 
L 1159 0 
L 581 0 
L 581 3500 
L 1159 3500 
L 1159 2956 
Q 1356 3278 1631 3431 
Q 1906 3584 2284 3584 
Q 2666 3584 2933 3390 
Q 3200 3197 3328 2828 
z
" transform="scale(0.015625)"/>
       <path id="DejaVuSans-65" d="M 3597 1894 
L 3597 1613 
L 953 1613 
Q 991 1019 1311 708 
Q 1631 397 2203 397 
Q 2534 397 2845 478 
Q 3156 559 3463 722 
L 3463 178 
Q 3153 47 2828 -22 
Q 2503 -91 2169 -91 
Q 1331 -91 842 396 
Q 353 884 353 1716 
Q 353 2575 817 3079 
Q 1281 3584 2069 3584 
Q 2775 3584 3186 3129 
Q 3597 2675 3597 1894 
z
M 3022 2063 
Q 3016 2534 2758 2815 
Q 2500 3097 2075 3097 
Q 1594 3097 1305 2825 
Q 1016 2553 972 2059 
L 3022 2063 
z
" transform="scale(0.015625)"/>
      </defs>
      <use xlink:href="#DejaVuSans-54"/>
      <use xlink:href="#DejaVuSans-69" x="57.958984"/>
      <use xlink:href="#DejaVuSans-6d" x="85.742188"/>
      <use xlink:href="#DejaVuSans-65" x="183.154297"/>
     </g>
    </g>
   </g>
   <g id="matplotlib.axis_2">
    <g id="ytick_1">
     <g id="line2d_7">
      <defs>
       <path id="m6017f829a7" d="M 0 0 
L -6 0 
" style="stroke: #000000; stroke-width: 1.5"/>
      </defs>
      <g>
       <use xlink:href="#m6017f829a7" x="79.088437" y="290.599078" style="stroke: #000000; stroke-width: 1.5"/>
      </g>
     </g>
     <g id="text_8">
      <!-- −3.0 -->
      <g transform="translate(35.5925 295.917984) scale(0.14 -0.14)">
       <defs>
        <path id="DejaVuSans-2212" d="M 678 2272 
L 4684 2272 
L 4684 1741 
L 678 1741 
L 678 2272 
z
" transform="scale(0.015625)"/>
        <path id="DejaVuSans-33" d="M 2597 2516 
Q 3050 2419 3304 2112 
Q 3559 1806 3559 1356 
Q 3559 666 3084 287 
Q 2609 -91 1734 -91 
Q 1441 -91 1130 -33 
Q 819 25 488 141 
L 488 750 
Q 750 597 1062 519 
Q 1375 441 1716 441 
Q 2309 441 2620 675 
Q 2931 909 2931 1356 
Q 2931 1769 2642 2001 
Q 2353 2234 1838 2234 
L 1294 2234 
L 1294 2753 
L 1863 2753 
Q 2328 2753 2575 2939 
Q 2822 3125 2822 3475 
Q 2822 3834 2567 4026 
Q 2313 4219 1838 4219 
Q 1578 4219 1281 4162 
Q 984 4106 628 3988 
L 628 4550 
Q 988 4650 1302 4700 
Q 1616 4750 1894 4750 
Q 2613 4750 3031 4423 
Q 3450 4097 3450 3541 
Q 3450 3153 3228 2886 
Q 3006 2619 2597 2516 
z
" transform="scale(0.015625)"/>
        <path id="DejaVuSans-2e" d="M 684 794 
L 1344 794 
L 1344 0 
L 684 0 
L 684 794 
z
" transform="scale(0.015625)"/>
       </defs>
       <use xlink:href="#DejaVuSans-2212"/>
       <use xlink:href="#DejaVuSans-33" x="83.789062"/>
       <use xlink:href="#DejaVuSans-2e" x="147.412109"/>
       <use xlink:href="#DejaVuSans-30" x="179.199219"/>
      </g>
     </g>
    </g>
    <g id="ytick_2">
     <g id="line2d_8">
      <g>
       <use xlink:href="#m6017f829a7" x="79.088437" y="250.773165" style="stroke: #000000; stroke-width: 1.5"/>
      </g>
     </g>
     <g id="text_9">
      <!-- −2.5 -->
      <g transform="translate(35.5925 256.092072) scale(0.14 -0.14)">
       <use xlink:href="#DejaVuSans-2212"/>
       <use xlink:href="#DejaVuSans-32" x="83.789062"/>
       <use xlink:href="#DejaVuSans-2e" x="147.412109"/>
       <use xlink:href="#DejaVuSans-35" x="179.199219"/>
      </g>
     </g>
    </g>
    <g id="ytick_3">
     <g id="line2d_9">
      <g>
       <use xlink:href="#m6017f829a7" x="79.088437" y="210.947253" style="stroke: #000000; stroke-width: 1.5"/>
      </g>
     </g>
     <g id="text_10">
      <!-- −2.0 -->
      <g transform="translate(35.5925 216.266159) scale(0.14 -0.14)">
       <use xlink:href="#DejaVuSans-2212"/>
       <use xlink:href="#DejaVuSans-32" x="83.789062"/>
       <use xlink:href="#DejaVuSans-2e" x="147.412109"/>
       <use xlink:href="#DejaVuSans-30" x="179.199219"/>
      </g>
     </g>
    </g>
    <g id="ytick_4">
     <g id="line2d_10">
      <g>
       <use xlink:href="#m6017f829a7" x="79.088437" y="171.121341" style="stroke: #000000; stroke-width: 1.5"/>
      </g>
     </g>
     <g id="text_11">
      <!-- −1.5 -->
      <g transform="translate(35.5925 176.440247) scale(0.14 -0.14)">
       <use xlink:href="#DejaVuSans-2212"/>
       <use xlink:href="#DejaVuSans-31" x="83.789062"/>
       <use xlink:href="#DejaVuSans-2e" x="147.412109"/>
       <use xlink:href="#DejaVuSans-35" x="179.199219"/>
      </g>
     </g>
    </g>
    <g id="ytick_5">
     <g id="line2d_11">
      <g>
       <use xlink:href="#m6017f829a7" x="79.088437" y="131.295428" style="stroke: #000000; stroke-width: 1.5"/>
      </g>
     </g>
     <g id="text_12">
      <!-- −1.0 -->
      <g transform="translate(35.5925 136.614335) scale(0.14 -0.14)">
       <use xlink:href="#DejaVuSans-2212"/>
       <use xlink:href="#DejaVuSans-31" x="83.789062"/>
       <use xlink:href="#DejaVuSans-2e" x="147.412109"/>
       <use xlink:href="#DejaVuSans-30" x="179.199219"/>
      </g>
     </g>
    </g>
    <g id="ytick_6">
     <g id="line2d_12">
      <g>
       <use xlink:href="#m6017f829a7" x="79.088437" y="91.469516" style="stroke: #000000; stroke-width: 1.5"/>
      </g>
     </g>
     <g id="text_13">
      <!-- −0.5 -->
      <g transform="translate(35.5925 96.788422) scale(0.14 -0.14)">
       <use xlink:href="#DejaVuSans-2212"/>
       <use xlink:href="#DejaVuSans-30" x="83.789062"/>
       <use xlink:href="#DejaVuSans-2e" x="147.412109"/>
       <use xlink:href="#DejaVuSans-35" x="179.199219"/>
      </g>
     </g>
    </g>
    <g id="ytick_7">
     <g id="line2d_13">
      <g>
       <use xlink:href="#m6017f829a7" x="79.088437" y="51.643604" style="stroke: #000000; stroke-width: 1.5"/>
      </g>
     </g>
     <g id="text_14">
      <!-- 0.0 -->
      <g transform="translate(47.324062 56.96251) scale(0.14 -0.14)">
       <use xlink:href="#DejaVuSans-30"/>
       <use xlink:href="#DejaVuSans-2e" x="63.623047"/>
       <use xlink:href="#DejaVuSans-30" x="95.410156"/>
      </g>
     </g>
    </g>
    <g id="text_15">
     <!-- Log Correlation -->
     <g transform="translate(28.265 241.268205) rotate(-90) scale(0.16 -0.16)">
      <defs>
       <path id="DejaVuSans-4c" d="M 628 4666 
L 1259 4666 
L 1259 531 
L 3531 531 
L 3531 0 
L 628 0 
L 628 4666 
z
" transform="scale(0.015625)"/>
       <path id="DejaVuSans-6f" d="M 1959 3097 
Q 1497 3097 1228 2736 
Q 959 2375 959 1747 
Q 959 1119 1226 758 
Q 1494 397 1959 397 
Q 2419 397 2687 759 
Q 2956 1122 2956 1747 
Q 2956 2369 2687 2733 
Q 2419 3097 1959 3097 
z
M 1959 3584 
Q 2709 3584 3137 3096 
Q 3566 2609 3566 1747 
Q 3566 888 3137 398 
Q 2709 -91 1959 -91 
Q 1206 -91 779 398 
Q 353 888 353 1747 
Q 353 2609 779 3096 
Q 1206 3584 1959 3584 
z
" transform="scale(0.015625)"/>
       <path id="DejaVuSans-67" d="M 2906 1791 
Q 2906 2416 2648 2759 
Q 2391 3103 1925 3103 
Q 1463 3103 1205 2759 
Q 947 2416 947 1791 
Q 947 1169 1205 825 
Q 1463 481 1925 481 
Q 2391 481 2648 825 
Q 2906 1169 2906 1791 
z
M 3481 434 
Q 3481 -459 3084 -895 
Q 2688 -1331 1869 -1331 
Q 1566 -1331 1297 -1286 
Q 1028 -1241 775 -1147 
L 775 -588 
Q 1028 -725 1275 -790 
Q 1522 -856 1778 -856 
Q 2344 -856 2625 -561 
Q 2906 -266 2906 331 
L 2906 616 
Q 2728 306 2450 153 
Q 2172 0 1784 0 
Q 1141 0 747 490 
Q 353 981 353 1791 
Q 353 2603 747 3093 
Q 1141 3584 1784 3584 
Q 2172 3584 2450 3431 
Q 2728 3278 2906 2969 
L 2906 3500 
L 3481 3500 
L 3481 434 
z
" transform="scale(0.015625)"/>
       <path id="DejaVuSans-20" transform="scale(0.015625)"/>
       <path id="DejaVuSans-43" d="M 4122 4306 
L 4122 3641 
Q 3803 3938 3442 4084 
Q 3081 4231 2675 4231 
Q 1875 4231 1450 3742 
Q 1025 3253 1025 2328 
Q 1025 1406 1450 917 
Q 1875 428 2675 428 
Q 3081 428 3442 575 
Q 3803 722 4122 1019 
L 4122 359 
Q 3791 134 3420 21 
Q 3050 -91 2638 -91 
Q 1578 -91 968 557 
Q 359 1206 359 2328 
Q 359 3453 968 4101 
Q 1578 4750 2638 4750 
Q 3056 4750 3426 4639 
Q 3797 4528 4122 4306 
z
" transform="scale(0.015625)"/>
       <path id="DejaVuSans-72" d="M 2631 2963 
Q 2534 3019 2420 3045 
Q 2306 3072 2169 3072 
Q 1681 3072 1420 2755 
Q 1159 2438 1159 1844 
L 1159 0 
L 581 0 
L 581 3500 
L 1159 3500 
L 1159 2956 
Q 1341 3275 1631 3429 
Q 1922 3584 2338 3584 
Q 2397 3584 2469 3576 
Q 2541 3569 2628 3553 
L 2631 2963 
z
" transform="scale(0.015625)"/>
       <path id="DejaVuSans-6c" d="M 603 4863 
L 1178 4863 
L 1178 0 
L 603 0 
L 603 4863 
z
" transform="scale(0.015625)"/>
       <path id="DejaVuSans-61" d="M 2194 1759 
Q 1497 1759 1228 1600 
Q 959 1441 959 1056 
Q 959 750 1161 570 
Q 1363 391 1709 391 
Q 2188 391 2477 730 
Q 2766 1069 2766 1631 
L 2766 1759 
L 2194 1759 
z
M 3341 1997 
L 3341 0 
L 2766 0 
L 2766 531 
Q 2569 213 2275 61 
Q 1981 -91 1556 -91 
Q 1019 -91 701 211 
Q 384 513 384 1019 
Q 384 1609 779 1909 
Q 1175 2209 1959 2209 
L 2766 2209 
L 2766 2266 
Q 2766 2663 2505 2880 
Q 2244 3097 1772 3097 
Q 1472 3097 1187 3025 
Q 903 2953 641 2809 
L 641 3341 
Q 956 3463 1253 3523 
Q 1550 3584 1831 3584 
Q 2591 3584 2966 3190 
Q 3341 2797 3341 1997 
z
" transform="scale(0.015625)"/>
       <path id="DejaVuSans-74" d="M 1172 4494 
L 1172 3500 
L 2356 3500 
L 2356 3053 
L 1172 3053 
L 1172 1153 
Q 1172 725 1289 603 
Q 1406 481 1766 481 
L 2356 481 
L 2356 0 
L 1766 0 
Q 1100 0 847 248 
Q 594 497 594 1153 
L 594 3053 
L 172 3053 
L 172 3500 
L 594 3500 
L 594 4494 
L 1172 4494 
z
" transform="scale(0.015625)"/>
       <path id="DejaVuSans-6e" d="M 3513 2113 
L 3513 0 
L 2938 0 
L 2938 2094 
Q 2938 2591 2744 2837 
Q 2550 3084 2163 3084 
Q 1697 3084 1428 2787 
Q 1159 2491 1159 1978 
L 1159 0 
L 581 0 
L 581 3500 
L 1159 3500 
L 1159 2956 
Q 1366 3272 1645 3428 
Q 1925 3584 2291 3584 
Q 2894 3584 3203 3211 
Q 3513 2838 3513 2113 
z
" transform="scale(0.015625)"/>
      </defs>
      <use xlink:href="#DejaVuSans-4c"/>
      <use xlink:href="#DejaVuSans-6f" x="53.962891"/>
      <use xlink:href="#DejaVuSans-67" x="115.144531"/>
      <use xlink:href="#DejaVuSans-20" x="178.621094"/>
      <use xlink:href="#DejaVuSans-43" x="210.408203"/>
      <use xlink:href="#DejaVuSans-6f" x="280.232422"/>
      <use xlink:href="#DejaVuSans-72" x="341.414062"/>
      <use xlink:href="#DejaVuSans-72" x="380.777344"/>
      <use xlink:href="#DejaVuSans-65" x="419.640625"/>
      <use xlink:href="#DejaVuSans-6c" x="481.164062"/>
      <use xlink:href="#DejaVuSans-61" x="508.947266"/>
      <use xlink:href="#DejaVuSans-74" x="570.226562"/>
      <use xlink:href="#DejaVuSans-69" x="609.435547"/>
      <use xlink:href="#DejaVuSans-6f" x="637.21875"/>
      <use xlink:href="#DejaVuSans-6e" x="698.400391"/>
     </g>
    </g>
   </g>
   <g id="line2d_14">
    <path d="M 97.124801 51.643604 
L 100.768511 53.630877 
L 104.412221 55.618149 
L 108.055931 57.605422 
L 111.69964 59.592695 
L 115.34335 61.579968 
L 118.98706 63.567241 
L 122.63077 65.554513 
L 126.27448 67.541786 
L 129.91819 69.529059 
L 133.561899 71.516332 
L 137.205609 73.503604 
L 140.849319 75.490877 
L 144.493029 77.47815 
L 148.136739 79.465423 
L 151.780449 81.452696 
L 155.424158 83.439968 
L 159.067868 85.427241 
L 162.711578 87.414514 
L 166.355288 89.401787 
L 169.998998 91.38906 
L 173.642707 93.376332 
L 177.286417 95.363605 
L 180.930127 97.350878 
L 184.573837 99.338151 
L 188.217547 101.325424 
L 191.861257 103.312696 
L 195.504966 105.299969 
L 199.148676 107.287242 
L 202.792386 109.274515 
L 206.436096 111.261788 
L 210.079806 113.24906 
L 213.723516 115.236333 
L 217.367225 117.223606 
L 221.010935 119.210879 
L 224.654645 121.198152 
L 228.298355 123.185424 
L 231.942065 125.172697 
L 235.585775 127.15997 
L 239.229484 129.147243 
L 242.873194 131.134516 
L 246.516904 133.121788 
L 250.160614 135.109061 
L 253.804324 137.096334 
L 257.448033 139.083607 
L 261.091743 141.07088 
L 264.735453 143.058152 
L 268.379163 145.045425 
L 272.022873 147.032698 
L 275.666583 149.019971 
L 279.310292 151.007244 
L 282.954002 152.994516 
L 286.597712 154.981789 
L 290.241422 156.969062 
L 293.885132 158.956335 
L 297.528842 160.943608 
L 301.172551 162.93088 
L 304.816261 164.918153 
L 308.459971 166.905426 
L 312.103681 168.892699 
L 315.747391 170.879972 
L 319.3911 172.867244 
L 323.03481 174.854517 
L 326.67852 176.84179 
L 330.32223 178.829063 
L 333.96594 180.816335 
L 337.60965 182.803608 
L 341.253359 184.790881 
L 344.897069 186.778154 
L 348.540779 188.765427 
L 352.184489 190.752699 
L 355.828199 192.739972 
L 359.471909 194.727245 
L 363.115618 196.714518 
L 366.759328 198.701791 
L 370.403038 200.689063 
L 374.046748 202.676336 
L 377.690458 204.663609 
L 381.334168 206.650882 
L 384.977877 208.638155 
L 388.621587 210.625427 
L 392.265297 212.6127 
L 395.909007 214.599973 
L 399.552717 216.587246 
L 403.196426 218.574519 
L 406.840136 220.561791 
L 410.483846 222.549064 
L 414.127556 224.536337 
L 417.771266 226.52361 
L 421.414976 228.510883 
L 425.058685 230.498155 
L 428.702395 232.485428 
L 432.346105 234.472701 
L 435.989815 236.459974 
L 439.633525 238.447247 
L 443.277235 240.434519 
L 446.920944 242.421792 
L 450.564654 244.409065 
L 454.208364 246.396338 
L 457.852074 248.383611 
" clip-path="url(#p24b339a92f)" style="fill: none; stroke: #ff0000; stroke-width: 2.5; stroke-linecap: square"/>
   </g>
   <g id="line2d_15">
    <path d="M 97.124801 51.643604 
L 104.339347 55.676841 
L 111.553892 59.772682 
L 118.768437 63.667641 
L 125.982983 68.425585 
L 133.197528 71.797017 
L 140.412074 76.089813 
L 147.626619 80.964657 
L 154.841165 85.549257 
L 162.05571 90.645406 
L 169.270256 94.751365 
L 176.484801 98.807837 
L 183.699347 103.959381 
L 190.913892 109.395753 
L 198.128437 115.579502 
L 205.342983 119.90606 
L 212.557528 126.257776 
L 219.772074 132.492657 
L 226.986619 135.183097 
L 234.201165 141.354098 
L 241.41571 150.087954 
L 248.630256 154.888344 
L 255.844801 159.118344 
L 263.059347 164.251127 
L 270.273892 165.159534 
L 277.488437 169.336191 
L 284.702983 176.414633 
L 291.917528 175.162921 
L 299.132074 175.52051 
L 306.346619 170.451451 
L 313.561165 177.738074 
L 320.77571 177.92196 
L 327.990256 185.324776 
L 335.204801 180.877467 
L 342.419347 193.40323 
L 349.633892 193.548874 
L 356.848437 197.509903 
L 364.062983 184.011034 
L 371.277528 194.62784 
L 378.492074 200.077917 
L 385.706619 184.627107 
L 392.921165 190.256767 
L 400.13571 199.321727 
L 407.350256 211.210647 
L 414.564801 197.1046 
L 421.779347 195.220295 
L 428.993892 212.300543 
L 436.208437 204.467442 
L 443.422983 197.439947 
L 450.637528 209.754653 
L 457.852074 204.392953 
" clip-path="url(#p24b339a92f)" style="fill: none; stroke: #802f95; stroke-width: 2; stroke-linecap: square"/>
   </g>
   <g id="line2d_16">
    <path d="M 97.124801 66.669682 
L 100.768511 68.3665 
L 104.412221 70.063318 
L 108.055931 71.760136 
L 111.69964 73.456954 
L 115.34335 75.153773 
L 118.98706 76.850591 
L 122.63077 78.547409 
L 126.27448 80.244227 
L 129.91819 81.941045 
L 133.561899 83.637863 
L 137.205609 85.334681 
L 140.849319 87.0315 
L 144.493029 88.728318 
L 148.136739 90.425136 
L 151.780449 92.121954 
L 155.424158 93.818772 
L 159.067868 95.51559 
L 162.711578 97.212409 
L 166.355288 98.909227 
L 169.998998 100.606045 
L 173.642707 102.302863 
L 177.286417 103.999681 
L 180.930127 105.696499 
L 184.573837 107.393317 
L 188.217547 109.090136 
L 191.861257 110.786954 
L 195.504966 112.483772 
L 199.148676 114.18059 
L 202.792386 115.877408 
L 206.436096 117.574226 
L 210.079806 119.271044 
L 213.723516 120.967863 
L 217.367225 122.664681 
L 221.010935 124.361499 
L 224.654645 126.058317 
L 228.298355 127.755135 
L 231.942065 129.451953 
L 235.585775 131.148772 
L 239.229484 132.84559 
L 242.873194 134.542408 
L 246.516904 136.239226 
L 250.160614 137.936044 
L 253.804324 139.632862 
L 257.448033 141.32968 
L 261.091743 143.026499 
L 264.735453 144.723317 
L 268.379163 146.420135 
L 272.022873 148.116953 
L 275.666583 149.813771 
L 279.310292 151.510589 
L 282.954002 153.207407 
L 286.597712 154.904226 
L 290.241422 156.601044 
L 293.885132 158.297862 
L 297.528842 159.99468 
L 301.172551 161.691498 
L 304.816261 163.388316 
L 308.459971 165.085135 
L 312.103681 166.781953 
L 315.747391 168.478771 
L 319.3911 170.175589 
L 323.03481 171.872407 
L 326.67852 173.569225 
L 330.32223 175.266043 
L 333.96594 176.962862 
L 337.60965 178.65968 
L 341.253359 180.356498 
L 344.897069 182.053316 
L 348.540779 183.750134 
L 352.184489 185.446952 
L 355.828199 187.14377 
L 359.471909 188.840589 
L 363.115618 190.537407 
L 366.759328 192.234225 
L 370.403038 193.931043 
L 374.046748 195.627861 
L 377.690458 197.324679 
L 381.334168 199.021498 
L 384.977877 200.718316 
L 388.621587 202.415134 
L 392.265297 204.111952 
L 395.909007 205.80877 
L 399.552717 207.505588 
L 403.196426 209.202406 
L 406.840136 210.899225 
L 410.483846 212.596043 
L 414.127556 214.292861 
L 417.771266 215.989679 
L 421.414976 217.686497 
L 425.058685 219.383315 
L 428.702395 221.080133 
L 432.346105 222.776952 
L 435.989815 224.47377 
L 439.633525 226.170588 
L 443.277235 227.867406 
L 446.920944 229.564224 
L 450.564654 231.261042 
L 454.208364 232.957861 
L 457.852074 234.654679 
" clip-path="url(#p24b339a92f)" style="fill: none; stroke: #322694; stroke-width: 2; stroke-linecap: square"/>
   </g>
   <g id="patch_3">
    <path d="M 79.088437 321.873391 
L 79.088437 38.775519 
" style="fill: none; stroke: #000000; stroke-width: 1.5; stroke-linejoin: miter; stroke-linecap: square"/>
   </g>
   <g id="patch_4">
    <path d="M 475.888437 321.873391 
L 475.888437 38.775519 
" style="fill: none; stroke: #000000; stroke-width: 1.5; stroke-linejoin: miter; stroke-linecap: square"/>
   </g>
   <g id="patch_5">
    <path d="M 79.088437 321.873391 
L 475.888438 321.873391 
" style="fill: none; stroke: #000000; stroke-width: 1.5; stroke-linejoin: miter; stroke-linecap: square"/>
   </g>
   <g id="patch_6">
    <path d="M 79.088437 38.775519 
L 475.888438 38.775519 
" style="fill: none; stroke: #000000; stroke-width: 1.5; stroke-linejoin: miter; stroke-linecap: square"/>
   </g>
   <g id="text_16">
    <!-- A -->
    <g transform="translate(39.408437 20.877187) scale(0.18 -0.18)">
     <defs>
      <path id="DejaVuSans-Bold-41" d="M 3419 850 
L 1538 850 
L 1241 0 
L 31 0 
L 1759 4666 
L 3194 4666 
L 4922 0 
L 3713 0 
L 3419 850 
z
M 1838 1716 
L 3116 1716 
L 2478 3572 
L 1838 1716 
z
" transform="scale(0.015625)"/>
     </defs>
     <use xlink:href="#DejaVuSans-Bold-41"/>
    </g>
   </g>
   <g id="legend_1">
    <g id="line2d_17">
     <path d="M 88.988438 273.54386 
L 99.988438 273.54386 
L 110.988438 273.54386 
" style="fill: none; stroke: #ff0000; stroke-width: 2.5; stroke-linecap: square"/>
    </g>
    <g id="text_17">
     <!-- $\tau_{th} \approx 1052$ -->
     <g transform="translate(119.788438 277.39386) scale(0.11 -0.11)">
      <defs>
       <path id="DejaVuSans-Oblique-3c4" d="M 2103 638 
Q 2188 488 2525 488 
L 2800 488 
L 2706 0 
L 2363 0 
Q 1800 0 1600 300 
Q 1403 606 1534 1269 
L 1856 2925 
L 541 2925 
L 653 3500 
L 3881 3500 
L 3769 2925 
L 2444 2925 
L 2113 1234 
Q 2025 781 2103 638 
z
" transform="scale(0.015625)"/>
       <path id="DejaVuSans-Oblique-74" d="M 2706 3500 
L 2619 3053 
L 1472 3053 
L 1100 1153 
Q 1081 1047 1072 975 
Q 1063 903 1063 863 
Q 1063 663 1183 572 
Q 1303 481 1569 481 
L 2150 481 
L 2053 0 
L 1503 0 
Q 991 0 739 200 
Q 488 400 488 806 
Q 488 878 497 964 
Q 506 1050 525 1153 
L 897 3053 
L 409 3053 
L 500 3500 
L 978 3500 
L 1172 4494 
L 1747 4494 
L 1556 3500 
L 2706 3500 
z
" transform="scale(0.015625)"/>
       <path id="DejaVuSans-Oblique-68" d="M 3566 2113 
L 3156 0 
L 2578 0 
L 2988 2091 
Q 3016 2238 3031 2350 
Q 3047 2463 3047 2528 
Q 3047 2791 2881 2937 
Q 2716 3084 2419 3084 
Q 1956 3084 1617 2771 
Q 1278 2459 1178 1941 
L 800 0 
L 225 0 
L 1172 4863 
L 1747 4863 
L 1375 2950 
Q 1594 3244 1934 3414 
Q 2275 3584 2650 3584 
Q 3113 3584 3367 3334 
Q 3622 3084 3622 2631 
Q 3622 2519 3608 2391 
Q 3594 2263 3566 2113 
z
" transform="scale(0.015625)"/>
       <path id="DejaVuSans-2248" d="M 4684 1947 
L 4684 1388 
Q 4356 1144 4076 1036 
Q 3797 928 3494 928 
Q 3150 928 2694 1113 
Q 2663 1125 2641 1134 
Q 2622 1141 2575 1159 
Q 2091 1350 1797 1350 
Q 1522 1350 1253 1231 
Q 984 1113 678 850 
L 678 1409 
Q 1006 1653 1286 1761 
Q 1566 1869 1869 1869 
Q 2213 1869 2672 1684 
Q 2706 1669 2722 1663 
Q 2741 1656 2788 1638 
Q 3272 1447 3566 1447 
Q 3834 1447 4098 1564 
Q 4363 1681 4684 1947 
z
M 4684 3163 
L 4684 2606 
Q 4356 2359 4076 2251 
Q 3797 2144 3494 2144 
Q 3150 2144 2694 2328 
Q 2663 2341 2641 2350 
Q 2622 2356 2575 2375 
Q 2091 2566 1797 2566 
Q 1522 2566 1253 2447 
Q 984 2328 678 2069 
L 678 2625 
Q 1006 2869 1286 2976 
Q 1566 3084 1869 3084 
Q 2213 3084 2672 2900 
Q 2703 2888 2719 2881 
Q 2741 2872 2788 2853 
Q 3272 2663 3566 2663 
Q 3834 2663 4098 2780 
Q 4363 2897 4684 3163 
z
" transform="scale(0.015625)"/>
      </defs>
      <use xlink:href="#DejaVuSans-Oblique-3c4" transform="translate(0 0.78125)"/>
      <use xlink:href="#DejaVuSans-Oblique-74" transform="translate(60.205078 -15.625) scale(0.7)"/>
      <use xlink:href="#DejaVuSans-Oblique-68" transform="translate(87.651367 -15.625) scale(0.7)"/>
      <use xlink:href="#DejaVuSans-2248" transform="translate(154.233398 0.78125)"/>
      <use xlink:href="#DejaVuSans-31" transform="translate(257.504883 0.78125)"/>
      <use xlink:href="#DejaVuSans-30" transform="translate(321.12793 0.78125)"/>
      <use xlink:href="#DejaVuSans-35" transform="translate(384.750977 0.78125)"/>
      <use xlink:href="#DejaVuSans-32" transform="translate(448.374023 0.78125)"/>
     </g>
    </g>
    <g id="line2d_18">
     <path d="M 88.988438 289.689797 
L 99.988438 289.689797 
L 110.988438 289.689797 
" style="fill: none; stroke: #802f95; stroke-width: 2; stroke-linecap: square"/>
    </g>
    <g id="text_18">
     <!-- Simulation -->
     <g transform="translate(119.788438 293.539797) scale(0.11 -0.11)">
      <defs>
       <path id="DejaVuSans-53" d="M 3425 4513 
L 3425 3897 
Q 3066 4069 2747 4153 
Q 2428 4238 2131 4238 
Q 1616 4238 1336 4038 
Q 1056 3838 1056 3469 
Q 1056 3159 1242 3001 
Q 1428 2844 1947 2747 
L 2328 2669 
Q 3034 2534 3370 2195 
Q 3706 1856 3706 1288 
Q 3706 609 3251 259 
Q 2797 -91 1919 -91 
Q 1588 -91 1214 -16 
Q 841 59 441 206 
L 441 856 
Q 825 641 1194 531 
Q 1563 422 1919 422 
Q 2459 422 2753 634 
Q 3047 847 3047 1241 
Q 3047 1584 2836 1778 
Q 2625 1972 2144 2069 
L 1759 2144 
Q 1053 2284 737 2584 
Q 422 2884 422 3419 
Q 422 4038 858 4394 
Q 1294 4750 2059 4750 
Q 2388 4750 2728 4690 
Q 3069 4631 3425 4513 
z
" transform="scale(0.015625)"/>
       <path id="DejaVuSans-75" d="M 544 1381 
L 544 3500 
L 1119 3500 
L 1119 1403 
Q 1119 906 1312 657 
Q 1506 409 1894 409 
Q 2359 409 2629 706 
Q 2900 1003 2900 1516 
L 2900 3500 
L 3475 3500 
L 3475 0 
L 2900 0 
L 2900 538 
Q 2691 219 2414 64 
Q 2138 -91 1772 -91 
Q 1169 -91 856 284 
Q 544 659 544 1381 
z
M 1991 3584 
L 1991 3584 
z
" transform="scale(0.015625)"/>
      </defs>
      <use xlink:href="#DejaVuSans-53"/>
      <use xlink:href="#DejaVuSans-69" x="63.476562"/>
      <use xlink:href="#DejaVuSans-6d" x="91.259766"/>
      <use xlink:href="#DejaVuSans-75" x="188.671875"/>
      <use xlink:href="#DejaVuSans-6c" x="252.050781"/>
      <use xlink:href="#DejaVuSans-61" x="279.833984"/>
      <use xlink:href="#DejaVuSans-74" x="341.113281"/>
      <use xlink:href="#DejaVuSans-69" x="380.322266"/>
      <use xlink:href="#DejaVuSans-6f" x="408.105469"/>
      <use xlink:href="#DejaVuSans-6e" x="469.287109"/>
     </g>
    </g>
    <g id="line2d_19">
     <path d="M 88.988438 305.835735 
L 99.988438 305.835735 
L 110.988438 305.835735 
" style="fill: none; stroke: #322694; stroke-width: 2; stroke-linecap: square"/>
    </g>
    <g id="text_19">
     <!-- $\tau_{fit} \approx 1232$ -->
     <g transform="translate(119.788438 309.685735) scale(0.11 -0.11)">
      <defs>
       <path id="DejaVuSans-Oblique-66" d="M 3059 4863 
L 2969 4384 
L 2419 4384 
Q 2106 4384 1964 4261 
Q 1822 4138 1753 3809 
L 1691 3500 
L 2638 3500 
L 2553 3053 
L 1606 3053 
L 1013 0 
L 434 0 
L 1031 3053 
L 481 3053 
L 563 3500 
L 1113 3500 
L 1159 3744 
Q 1278 4363 1576 4613 
Q 1875 4863 2516 4863 
L 3059 4863 
z
" transform="scale(0.015625)"/>
       <path id="DejaVuSans-Oblique-69" d="M 1172 4863 
L 1747 4863 
L 1606 4134 
L 1031 4134 
L 1172 4863 
z
M 909 3500 
L 1484 3500 
L 800 0 
L 225 0 
L 909 3500 
z
" transform="scale(0.015625)"/>
      </defs>
      <use xlink:href="#DejaVuSans-Oblique-3c4" transform="translate(0 0.78125)"/>
      <use xlink:href="#DejaVuSans-Oblique-66" transform="translate(60.205078 -15.625) scale(0.7)"/>
      <use xlink:href="#DejaVuSans-Oblique-69" transform="translate(84.848633 -15.625) scale(0.7)"/>
      <use xlink:href="#DejaVuSans-Oblique-74" transform="translate(104.296875 -15.625) scale(0.7)"/>
      <use xlink:href="#DejaVuSans-2248" transform="translate(153.959961 0.78125)"/>
      <use xlink:href="#DejaVuSans-31" transform="translate(257.231445 0.78125)"/>
      <use xlink:href="#DejaVuSans-32" transform="translate(320.854492 0.78125)"/>
      <use xlink:href="#DejaVuSans-33" transform="translate(384.477539 0.78125)"/>
      <use xlink:href="#DejaVuSans-32" transform="translate(448.100586 0.78125)"/>
     </g>
    </g>
   </g>
  </g>
  <g id="axes_2">
   <g id="patch_7">
    <path d="M 575.088438 321.873391 
L 971.888438 321.873391 
L 971.888438 38.775519 
L 575.088438 38.775519 
z
" style="fill: #ffffff"/>
   </g>
   <g id="PolyCollection_2">
    <defs>
     <path id="mb54b1e87a7" d="M 593.124801 -702.14629 
L 593.124801 -702.14629 
L 633.205609 -679.837308 
L 673.286417 -658.432897 
L 713.367225 -632.582781 
L 753.448033 -605.525915 
L 793.528842 -585.997866 
L 833.60965 -549.730403 
L 873.690458 -512.934444 
L 913.771266 -479.286834 
L 953.852074 -444.784588 
L 953.852074 -551.711401 
L 953.852074 -551.711401 
L 913.771266 -574.695985 
L 873.690458 -599.854549 
L 833.60965 -616.148508 
L 793.528842 -631.910035 
L 753.448033 -647.711332 
L 713.367225 -661.70203 
L 673.286417 -677.151569 
L 633.205609 -689.486354 
L 593.124801 -702.14629 
z
" style="stroke: #802f95; stroke-opacity: 0.2"/>
    </defs>
    <g clip-path="url(#p370560462f)">
     <use xlink:href="#mb54b1e87a7" x="0" y="753.789894" style="fill: #802f95; fill-opacity: 0.2; stroke: #802f95; stroke-opacity: 0.2"/>
    </g>
   </g>
   <g id="matplotlib.axis_3">
    <g id="xtick_7">
     <g id="line2d_20">
      <g>
       <use xlink:href="#m5b610e7eee" x="593.124801" y="321.873391" style="stroke: #000000; stroke-width: 1.5"/>
      </g>
     </g>
     <g id="text_20">
      <!-- 0 -->
      <g transform="translate(588.671051 342.011203) scale(0.14 -0.14)">
       <use xlink:href="#DejaVuSans-30"/>
      </g>
     </g>
    </g>
    <g id="xtick_8">
     <g id="line2d_21">
      <g>
       <use xlink:href="#m5b610e7eee" x="673.286417" y="321.873391" style="stroke: #000000; stroke-width: 1.5"/>
      </g>
     </g>
     <g id="text_21">
      <!-- 2 -->
      <g transform="translate(668.832667 342.011203) scale(0.14 -0.14)">
       <use xlink:href="#DejaVuSans-32"/>
      </g>
     </g>
    </g>
    <g id="xtick_9">
     <g id="line2d_22">
      <g>
       <use xlink:href="#m5b610e7eee" x="753.448033" y="321.873391" style="stroke: #000000; stroke-width: 1.5"/>
      </g>
     </g>
     <g id="text_22">
      <!-- 4 -->
      <g transform="translate(748.994283 342.011203) scale(0.14 -0.14)">
       <defs>
        <path id="DejaVuSans-34" d="M 2419 4116 
L 825 1625 
L 2419 1625 
L 2419 4116 
z
M 2253 4666 
L 3047 4666 
L 3047 1625 
L 3713 1625 
L 3713 1100 
L 3047 1100 
L 3047 0 
L 2419 0 
L 2419 1100 
L 313 1100 
L 313 1709 
L 2253 4666 
z
" transform="scale(0.015625)"/>
       </defs>
       <use xlink:href="#DejaVuSans-34"/>
      </g>
     </g>
    </g>
    <g id="xtick_10">
     <g id="line2d_23">
      <g>
       <use xlink:href="#m5b610e7eee" x="833.60965" y="321.873391" style="stroke: #000000; stroke-width: 1.5"/>
      </g>
     </g>
     <g id="text_23">
      <!-- 6 -->
      <g transform="translate(829.1559 342.011203) scale(0.14 -0.14)">
       <defs>
        <path id="DejaVuSans-36" d="M 2113 2584 
Q 1688 2584 1439 2293 
Q 1191 2003 1191 1497 
Q 1191 994 1439 701 
Q 1688 409 2113 409 
Q 2538 409 2786 701 
Q 3034 994 3034 1497 
Q 3034 2003 2786 2293 
Q 2538 2584 2113 2584 
z
M 3366 4563 
L 3366 3988 
Q 3128 4100 2886 4159 
Q 2644 4219 2406 4219 
Q 1781 4219 1451 3797 
Q 1122 3375 1075 2522 
Q 1259 2794 1537 2939 
Q 1816 3084 2150 3084 
Q 2853 3084 3261 2657 
Q 3669 2231 3669 1497 
Q 3669 778 3244 343 
Q 2819 -91 2113 -91 
Q 1303 -91 875 529 
Q 447 1150 447 2328 
Q 447 3434 972 4092 
Q 1497 4750 2381 4750 
Q 2619 4750 2861 4703 
Q 3103 4656 3366 4563 
z
" transform="scale(0.015625)"/>
       </defs>
       <use xlink:href="#DejaVuSans-36"/>
      </g>
     </g>
    </g>
    <g id="xtick_11">
     <g id="line2d_24">
      <g>
       <use xlink:href="#m5b610e7eee" x="913.771266" y="321.873391" style="stroke: #000000; stroke-width: 1.5"/>
      </g>
     </g>
     <g id="text_24">
      <!-- 8 -->
      <g transform="translate(909.317516 342.011203) scale(0.14 -0.14)">
       <defs>
        <path id="DejaVuSans-38" d="M 2034 2216 
Q 1584 2216 1326 1975 
Q 1069 1734 1069 1313 
Q 1069 891 1326 650 
Q 1584 409 2034 409 
Q 2484 409 2743 651 
Q 3003 894 3003 1313 
Q 3003 1734 2745 1975 
Q 2488 2216 2034 2216 
z
M 1403 2484 
Q 997 2584 770 2862 
Q 544 3141 544 3541 
Q 544 4100 942 4425 
Q 1341 4750 2034 4750 
Q 2731 4750 3128 4425 
Q 3525 4100 3525 3541 
Q 3525 3141 3298 2862 
Q 3072 2584 2669 2484 
Q 3125 2378 3379 2068 
Q 3634 1759 3634 1313 
Q 3634 634 3220 271 
Q 2806 -91 2034 -91 
Q 1263 -91 848 271 
Q 434 634 434 1313 
Q 434 1759 690 2068 
Q 947 2378 1403 2484 
z
M 1172 3481 
Q 1172 3119 1398 2916 
Q 1625 2713 2034 2713 
Q 2441 2713 2670 2916 
Q 2900 3119 2900 3481 
Q 2900 3844 2670 4047 
Q 2441 4250 2034 4250 
Q 1625 4250 1398 4047 
Q 1172 3844 1172 3481 
z
" transform="scale(0.015625)"/>
       </defs>
       <use xlink:href="#DejaVuSans-38"/>
      </g>
     </g>
    </g>
    <g id="text_25">
     <!-- Time -->
     <g transform="translate(753.914688 361.080266) scale(0.16 -0.16)">
      <use xlink:href="#DejaVuSans-54"/>
      <use xlink:href="#DejaVuSans-69" x="57.958984"/>
      <use xlink:href="#DejaVuSans-6d" x="85.742188"/>
      <use xlink:href="#DejaVuSans-65" x="183.154297"/>
     </g>
    </g>
   </g>
   <g id="matplotlib.axis_4">
    <g id="ytick_8">
     <g id="line2d_25">
      <g>
       <use xlink:href="#m6017f829a7" x="575.088438" y="304.674423" style="stroke: #000000; stroke-width: 1.5"/>
      </g>
     </g>
     <g id="text_26">
      <!-- −0.06 -->
      <g transform="translate(522.685 309.993329) scale(0.14 -0.14)">
       <use xlink:href="#DejaVuSans-2212"/>
       <use xlink:href="#DejaVuSans-30" x="83.789062"/>
       <use xlink:href="#DejaVuSans-2e" x="147.412109"/>
       <use xlink:href="#DejaVuSans-30" x="179.199219"/>
       <use xlink:href="#DejaVuSans-36" x="242.822266"/>
      </g>
     </g>
    </g>
    <g id="ytick_9">
     <g id="line2d_26">
      <g>
       <use xlink:href="#m6017f829a7" x="575.088438" y="262.50262" style="stroke: #000000; stroke-width: 1.5"/>
      </g>
     </g>
     <g id="text_27">
      <!-- −0.05 -->
      <g transform="translate(522.685 267.821526) scale(0.14 -0.14)">
       <use xlink:href="#DejaVuSans-2212"/>
       <use xlink:href="#DejaVuSans-30" x="83.789062"/>
       <use xlink:href="#DejaVuSans-2e" x="147.412109"/>
       <use xlink:href="#DejaVuSans-30" x="179.199219"/>
       <use xlink:href="#DejaVuSans-35" x="242.822266"/>
      </g>
     </g>
    </g>
    <g id="ytick_10">
     <g id="line2d_27">
      <g>
       <use xlink:href="#m6017f829a7" x="575.088438" y="220.330817" style="stroke: #000000; stroke-width: 1.5"/>
      </g>
     </g>
     <g id="text_28">
      <!-- −0.04 -->
      <g transform="translate(522.685 225.649723) scale(0.14 -0.14)">
       <use xlink:href="#DejaVuSans-2212"/>
       <use xlink:href="#DejaVuSans-30" x="83.789062"/>
       <use xlink:href="#DejaVuSans-2e" x="147.412109"/>
       <use xlink:href="#DejaVuSans-30" x="179.199219"/>
       <use xlink:href="#DejaVuSans-34" x="242.822266"/>
      </g>
     </g>
    </g>
    <g id="ytick_11">
     <g id="line2d_28">
      <g>
       <use xlink:href="#m6017f829a7" x="575.088438" y="178.159013" style="stroke: #000000; stroke-width: 1.5"/>
      </g>
     </g>
     <g id="text_29">
      <!-- −0.03 -->
      <g transform="translate(522.685 183.47792) scale(0.14 -0.14)">
       <use xlink:href="#DejaVuSans-2212"/>
       <use xlink:href="#DejaVuSans-30" x="83.789062"/>
       <use xlink:href="#DejaVuSans-2e" x="147.412109"/>
       <use xlink:href="#DejaVuSans-30" x="179.199219"/>
       <use xlink:href="#DejaVuSans-33" x="242.822266"/>
      </g>
     </g>
    </g>
    <g id="ytick_12">
     <g id="line2d_29">
      <g>
       <use xlink:href="#m6017f829a7" x="575.088438" y="135.98721" style="stroke: #000000; stroke-width: 1.5"/>
      </g>
     </g>
     <g id="text_30">
      <!-- −0.02 -->
      <g transform="translate(522.685 141.306116) scale(0.14 -0.14)">
       <use xlink:href="#DejaVuSans-2212"/>
       <use xlink:href="#DejaVuSans-30" x="83.789062"/>
       <use xlink:href="#DejaVuSans-2e" x="147.412109"/>
       <use xlink:href="#DejaVuSans-30" x="179.199219"/>
       <use xlink:href="#DejaVuSans-32" x="242.822266"/>
      </g>
     </g>
    </g>
    <g id="ytick_13">
     <g id="line2d_30">
      <g>
       <use xlink:href="#m6017f829a7" x="575.088438" y="93.815407" style="stroke: #000000; stroke-width: 1.5"/>
      </g>
     </g>
     <g id="text_31">
      <!-- −0.01 -->
      <g transform="translate(522.685 99.134313) scale(0.14 -0.14)">
       <use xlink:href="#DejaVuSans-2212"/>
       <use xlink:href="#DejaVuSans-30" x="83.789062"/>
       <use xlink:href="#DejaVuSans-2e" x="147.412109"/>
       <use xlink:href="#DejaVuSans-30" x="179.199219"/>
       <use xlink:href="#DejaVuSans-31" x="242.822266"/>
      </g>
     </g>
    </g>
    <g id="ytick_14">
     <g id="line2d_31">
      <g>
       <use xlink:href="#m6017f829a7" x="575.088438" y="51.643604" style="stroke: #000000; stroke-width: 1.5"/>
      </g>
     </g>
     <g id="text_32">
      <!-- 0.00 -->
      <g transform="translate(534.416563 56.96251) scale(0.14 -0.14)">
       <use xlink:href="#DejaVuSans-30"/>
       <use xlink:href="#DejaVuSans-2e" x="63.623047"/>
       <use xlink:href="#DejaVuSans-30" x="95.410156"/>
       <use xlink:href="#DejaVuSans-30" x="159.033203"/>
      </g>
     </g>
    </g>
    <g id="text_33">
     <!-- Log Correlation -->
     <g transform="translate(515.3575 241.268205) rotate(-90) scale(0.16 -0.16)">
      <use xlink:href="#DejaVuSans-4c"/>
      <use xlink:href="#DejaVuSans-6f" x="53.962891"/>
      <use xlink:href="#DejaVuSans-67" x="115.144531"/>
      <use xlink:href="#DejaVuSans-20" x="178.621094"/>
      <use xlink:href="#DejaVuSans-43" x="210.408203"/>
      <use xlink:href="#DejaVuSans-6f" x="280.232422"/>
      <use xlink:href="#DejaVuSans-72" x="341.414062"/>
      <use xlink:href="#DejaVuSans-72" x="380.777344"/>
      <use xlink:href="#DejaVuSans-65" x="419.640625"/>
      <use xlink:href="#DejaVuSans-6c" x="481.164062"/>
      <use xlink:href="#DejaVuSans-61" x="508.947266"/>
      <use xlink:href="#DejaVuSans-74" x="570.226562"/>
      <use xlink:href="#DejaVuSans-69" x="609.435547"/>
      <use xlink:href="#DejaVuSans-6f" x="637.21875"/>
      <use xlink:href="#DejaVuSans-6e" x="698.400391"/>
     </g>
    </g>
   </g>
   <g id="line2d_32">
    <path d="M 593.124801 51.643604 
L 596.768511 53.100448 
L 600.412221 54.557292 
L 604.055931 56.014136 
L 607.69964 57.47098 
L 611.34335 58.927824 
L 614.98706 60.384668 
L 618.63077 61.841513 
L 622.27448 63.298357 
L 625.91819 64.755201 
L 629.561899 66.212045 
L 633.205609 67.668889 
L 636.849319 69.125733 
L 640.493029 70.582577 
L 644.136739 72.039421 
L 647.780449 73.496265 
L 651.424158 74.95311 
L 655.067868 76.409954 
L 658.711578 77.866798 
L 662.355288 79.323642 
L 665.998998 80.780486 
L 669.642707 82.23733 
L 673.286417 83.694174 
L 676.930127 85.151018 
L 680.573837 86.607862 
L 684.217547 88.064707 
L 687.861257 89.521551 
L 691.504966 90.978395 
L 695.148676 92.435239 
L 698.792386 93.892083 
L 702.436096 95.348927 
L 706.079806 96.805771 
L 709.723516 98.262615 
L 713.367225 99.719459 
L 717.010935 101.176304 
L 720.654645 102.633148 
L 724.298355 104.089992 
L 727.942065 105.546836 
L 731.585775 107.00368 
L 735.229484 108.460524 
L 738.873194 109.917368 
L 742.516904 111.374212 
L 746.160614 112.831056 
L 749.804324 114.287901 
L 753.448033 115.744745 
L 757.091743 117.201589 
L 760.735453 118.658433 
L 764.379163 120.115277 
L 768.022873 121.572121 
L 771.666583 123.028965 
L 775.310292 124.485809 
L 778.954002 125.942653 
L 782.597712 127.399498 
L 786.241422 128.856342 
L 789.885132 130.313186 
L 793.528842 131.77003 
L 797.172551 133.226874 
L 800.816261 134.683718 
L 804.459971 136.140562 
L 808.103681 137.597406 
L 811.747391 139.05425 
L 815.3911 140.511095 
L 819.03481 141.967939 
L 822.67852 143.424783 
L 826.32223 144.881627 
L 829.96594 146.338471 
L 833.60965 147.795315 
L 837.253359 149.252159 
L 840.897069 150.709003 
L 844.540779 152.165847 
L 848.184489 153.622692 
L 851.828199 155.079536 
L 855.471909 156.53638 
L 859.115618 157.993224 
L 862.759328 159.450068 
L 866.403038 160.906912 
L 870.046748 162.363756 
L 873.690458 163.8206 
L 877.334168 165.277444 
L 880.977877 166.734289 
L 884.621587 168.191133 
L 888.265297 169.647977 
L 891.909007 171.104821 
L 895.552717 172.561665 
L 899.196426 174.018509 
L 902.840136 175.475353 
L 906.483846 176.932197 
L 910.127556 178.389041 
L 913.771266 179.845886 
L 917.414976 181.30273 
L 921.058685 182.759574 
L 924.702395 184.216418 
L 928.346105 185.673262 
L 931.989815 187.130106 
L 935.633525 188.58695 
L 939.277235 190.043794 
L 942.920944 191.500638 
L 946.564654 192.957483 
L 950.208364 194.414327 
L 953.852074 195.871171 
" clip-path="url(#p370560462f)" style="fill: none; stroke: #ff4126; stroke-width: 2.5; stroke-linecap: square"/>
   </g>
   <g id="line2d_33">
    <path d="M 593.124801 51.643604 
L 633.205609 69.128063 
L 673.286417 85.997661 
L 713.367225 106.647488 
L 753.448033 127.17127 
L 793.528842 144.835943 
L 833.60965 170.850438 
L 873.690458 197.395397 
L 913.771266 226.798484 
L 953.852074 255.541899 
" clip-path="url(#p370560462f)" style="fill: none; stroke: #802f95; stroke-width: 2; stroke-linecap: square"/>
   </g>
   <g id="patch_8">
    <path d="M 575.088438 321.873391 
L 575.088438 38.775519 
" style="fill: none; stroke: #000000; stroke-width: 1.5; stroke-linejoin: miter; stroke-linecap: square"/>
   </g>
   <g id="patch_9">
    <path d="M 971.888438 321.873391 
L 971.888438 38.775519 
" style="fill: none; stroke: #000000; stroke-width: 1.5; stroke-linejoin: miter; stroke-linecap: square"/>
   </g>
   <g id="patch_10">
    <path d="M 575.088438 321.873391 
L 971.888438 321.873391 
" style="fill: none; stroke: #000000; stroke-width: 1.5; stroke-linejoin: miter; stroke-linecap: square"/>
   </g>
   <g id="patch_11">
    <path d="M 575.088438 38.775519 
L 971.888438 38.775519 
" style="fill: none; stroke: #000000; stroke-width: 1.5; stroke-linejoin: miter; stroke-linecap: square"/>
   </g>
   <g id="text_34">
    <!-- B -->
    <g transform="translate(535.408438 20.877187) scale(0.18 -0.18)">
     <defs>
      <path id="DejaVuSans-Bold-42" d="M 2456 2859 
Q 2741 2859 2887 2984 
Q 3034 3109 3034 3353 
Q 3034 3594 2887 3720 
Q 2741 3847 2456 3847 
L 1791 3847 
L 1791 2859 
L 2456 2859 
z
M 2497 819 
Q 2859 819 3042 972 
Q 3225 1125 3225 1434 
Q 3225 1738 3044 1889 
Q 2863 2041 2497 2041 
L 1791 2041 
L 1791 819 
L 2497 819 
z
M 3616 2497 
Q 4003 2384 4215 2081 
Q 4428 1778 4428 1338 
Q 4428 663 3972 331 
Q 3516 0 2584 0 
L 588 0 
L 588 4666 
L 2394 4666 
Q 3366 4666 3802 4372 
Q 4238 4078 4238 3431 
Q 4238 3091 4078 2852 
Q 3919 2613 3616 2497 
z
" transform="scale(0.015625)"/>
     </defs>
     <use xlink:href="#DejaVuSans-Bold-42"/>
    </g>
   </g>
   <g id="legend_2">
    <g id="line2d_34">
     <path d="M 584.988438 289.689797 
L 595.988438 289.689797 
L 606.988438 289.689797 
" style="fill: none; stroke: #ff4126; stroke-width: 2.5; stroke-linecap: square"/>
    </g>
    <g id="text_35">
     <!-- $\tau_{th} \approx 263$ -->
     <g transform="translate(615.788437 293.539797) scale(0.11 -0.11)">
      <use xlink:href="#DejaVuSans-Oblique-3c4" transform="translate(0 0.78125)"/>
      <use xlink:href="#DejaVuSans-Oblique-74" transform="translate(60.205078 -15.625) scale(0.7)"/>
      <use xlink:href="#DejaVuSans-Oblique-68" transform="translate(87.651367 -15.625) scale(0.7)"/>
      <use xlink:href="#DejaVuSans-2248" transform="translate(154.233398 0.78125)"/>
      <use xlink:href="#DejaVuSans-32" transform="translate(257.504883 0.78125)"/>
      <use xlink:href="#DejaVuSans-36" transform="translate(321.12793 0.78125)"/>
      <use xlink:href="#DejaVuSans-33" transform="translate(384.750977 0.78125)"/>
     </g>
    </g>
    <g id="line2d_35">
     <path d="M 584.988438 305.835735 
L 595.988438 305.835735 
L 606.988438 305.835735 
" style="fill: none; stroke: #802f95; stroke-width: 2; stroke-linecap: square"/>
    </g>
    <g id="text_36">
     <!-- Simulation -->
     <g transform="translate(615.788437 309.685735) scale(0.11 -0.11)">
      <use xlink:href="#DejaVuSans-53"/>
      <use xlink:href="#DejaVuSans-69" x="63.476562"/>
      <use xlink:href="#DejaVuSans-6d" x="91.259766"/>
      <use xlink:href="#DejaVuSans-75" x="188.671875"/>
      <use xlink:href="#DejaVuSans-6c" x="252.050781"/>
      <use xlink:href="#DejaVuSans-61" x="279.833984"/>
      <use xlink:href="#DejaVuSans-74" x="341.113281"/>
      <use xlink:href="#DejaVuSans-69" x="380.322266"/>
      <use xlink:href="#DejaVuSans-6f" x="408.105469"/>
      <use xlink:href="#DejaVuSans-6e" x="469.287109"/>
     </g>
    </g>
   </g>
  </g>
  <g id="axes_3">
   <g id="patch_12">
    <path d="M 79.088437 704.055519 
L 475.888437 704.055519 
L 475.888437 420.957646 
L 79.088437 420.957646 
z
" style="fill: #ffffff"/>
   </g>
   <g id="PolyCollection_3">
    <defs>
     <path id="m7336fad525" d="M 97.124801 -319.964162 
L 97.124801 -319.964162 
L 103.136922 -318.317185 
L 109.149044 -316.523979 
L 115.161165 -315.08961 
L 121.173286 -313.642931 
L 127.185407 -311.864672 
L 133.197528 -310.434435 
L 139.20965 -308.867297 
L 145.221771 -306.982597 
L 151.233892 -305.244198 
L 157.246013 -303.521889 
L 163.258134 -301.737207 
L 169.270256 -300.111172 
L 175.282377 -298.292595 
L 181.294498 -296.157648 
L 187.306619 -293.93149 
L 193.318741 -291.929323 
L 199.330862 -289.769546 
L 205.342983 -287.629136 
L 211.355104 -285.724511 
L 217.367225 -284.319827 
L 223.379347 -282.144592 
L 229.391468 -279.490129 
L 235.403589 -277.336172 
L 241.41571 -275.716001 
L 247.427831 -273.582886 
L 253.439953 -271.050296 
L 259.452074 -268.336627 
L 265.464195 -265.943436 
L 271.476316 -262.361481 
L 277.488437 -259.994637 
L 283.500559 -256.410758 
L 289.51268 -251.857206 
L 295.524801 -248.047016 
L 301.536922 -244.193745 
L 307.549044 -241.224532 
L 313.561165 -238.075391 
L 319.573286 -233.51824 
L 325.585407 -228.580385 
L 331.597528 -224.077406 
L 337.60965 -221.142354 
L 343.621771 -216.216292 
L 349.633892 -212.591232 
L 355.646013 -208.486205 
L 361.658134 -202.997753 
L 367.670256 -197.870498 
L 373.682377 -192.953359 
L 379.694498 -189.18026 
L 385.706619 -182.205935 
L 391.718741 -176.313503 
L 397.730862 -165.823088 
L 403.742983 -159.75087 
L 409.755104 -149.650823 
L 415.767225 -142.907995 
L 421.779347 -132.363326 
L 427.791468 -121.793143 
L 433.803589 -111.679107 
L 439.81571 -102.254349 
L 445.827831 -88.419859 
L 451.839953 -73.443903 
L 457.852074 -62.60246 
L 457.852074 -203.289196 
L 457.852074 -203.289196 
L 451.839953 -206.539133 
L 445.827831 -213.117693 
L 439.81571 -214.65673 
L 433.803589 -221.875632 
L 427.791468 -224.811609 
L 421.779347 -226.079048 
L 415.767225 -228.388993 
L 409.755104 -235.320891 
L 403.742983 -235.636483 
L 397.730862 -240.532263 
L 391.718741 -242.580443 
L 385.706619 -245.423719 
L 379.694498 -247.003761 
L 373.682377 -248.977792 
L 367.670256 -251.053331 
L 361.658134 -253.820232 
L 355.646013 -256.595177 
L 349.633892 -259.198966 
L 343.621771 -261.093777 
L 337.60965 -263.147599 
L 331.597528 -265.651961 
L 325.585407 -268.475009 
L 319.573286 -271.206996 
L 313.561165 -273.307551 
L 307.549044 -274.878277 
L 301.536922 -276.152764 
L 295.524801 -278.2303 
L 289.51268 -280.203333 
L 283.500559 -281.944938 
L 277.488437 -284.177031 
L 271.476316 -285.806178 
L 265.464195 -287.168241 
L 259.452074 -289.088808 
L 253.439953 -291.122503 
L 247.427831 -291.799416 
L 241.41571 -293.140786 
L 235.403589 -294.726207 
L 229.391468 -295.643132 
L 223.379347 -297.571958 
L 217.367225 -298.0105 
L 211.355104 -299.185411 
L 205.342983 -300.432528 
L 199.330862 -301.707963 
L 193.318741 -302.920293 
L 187.306619 -304.245476 
L 181.294498 -305.650607 
L 175.282377 -306.155535 
L 169.270256 -307.915678 
L 163.258134 -308.787015 
L 157.246013 -309.718507 
L 151.233892 -311.178702 
L 145.221771 -312.197173 
L 139.20965 -313.233307 
L 133.197528 -314.269935 
L 127.185407 -315.370267 
L 121.173286 -316.272005 
L 115.161165 -317.397615 
L 109.149044 -318.354058 
L 103.136922 -319.184365 
L 97.124801 -319.964162 
z
" style="stroke: #802f95; stroke-opacity: 0.2"/>
    </defs>
    <g clip-path="url(#p4e3787d8e6)">
     <use xlink:href="#m7336fad525" x="0" y="753.789894" style="fill: #802f95; fill-opacity: 0.2; stroke: #802f95; stroke-opacity: 0.2"/>
    </g>
   </g>
   <g id="matplotlib.axis_5">
    <g id="xtick_12">
     <g id="line2d_36">
      <g>
       <use xlink:href="#m5b610e7eee" x="97.124801" y="704.055519" style="stroke: #000000; stroke-width: 1.5"/>
      </g>
     </g>
     <g id="text_37">
      <!-- 0 -->
      <g transform="translate(92.671051 724.193331) scale(0.14 -0.14)">
       <use xlink:href="#DejaVuSans-30"/>
      </g>
     </g>
    </g>
    <g id="xtick_13">
     <g id="line2d_37">
      <g>
       <use xlink:href="#m5b610e7eee" x="157.246013" y="704.055519" style="stroke: #000000; stroke-width: 1.5"/>
      </g>
     </g>
     <g id="text_38">
      <!-- 10 -->
      <g transform="translate(148.338513 724.193331) scale(0.14 -0.14)">
       <use xlink:href="#DejaVuSans-31"/>
       <use xlink:href="#DejaVuSans-30" x="63.623047"/>
      </g>
     </g>
    </g>
    <g id="xtick_14">
     <g id="line2d_38">
      <g>
       <use xlink:href="#m5b610e7eee" x="217.367225" y="704.055519" style="stroke: #000000; stroke-width: 1.5"/>
      </g>
     </g>
     <g id="text_39">
      <!-- 20 -->
      <g transform="translate(208.459725 724.193331) scale(0.14 -0.14)">
       <use xlink:href="#DejaVuSans-32"/>
       <use xlink:href="#DejaVuSans-30" x="63.623047"/>
      </g>
     </g>
    </g>
    <g id="xtick_15">
     <g id="line2d_39">
      <g>
       <use xlink:href="#m5b610e7eee" x="277.488437" y="704.055519" style="stroke: #000000; stroke-width: 1.5"/>
      </g>
     </g>
     <g id="text_40">
      <!-- 30 -->
      <g transform="translate(268.580937 724.193331) scale(0.14 -0.14)">
       <use xlink:href="#DejaVuSans-33"/>
       <use xlink:href="#DejaVuSans-30" x="63.623047"/>
      </g>
     </g>
    </g>
    <g id="xtick_16">
     <g id="line2d_40">
      <g>
       <use xlink:href="#m5b610e7eee" x="337.60965" y="704.055519" style="stroke: #000000; stroke-width: 1.5"/>
      </g>
     </g>
     <g id="text_41">
      <!-- 40 -->
      <g transform="translate(328.70215 724.193331) scale(0.14 -0.14)">
       <use xlink:href="#DejaVuSans-34"/>
       <use xlink:href="#DejaVuSans-30" x="63.623047"/>
      </g>
     </g>
    </g>
    <g id="xtick_17">
     <g id="line2d_41">
      <g>
       <use xlink:href="#m5b610e7eee" x="397.730862" y="704.055519" style="stroke: #000000; stroke-width: 1.5"/>
      </g>
     </g>
     <g id="text_42">
      <!-- 50 -->
      <g transform="translate(388.823362 724.193331) scale(0.14 -0.14)">
       <use xlink:href="#DejaVuSans-35"/>
       <use xlink:href="#DejaVuSans-30" x="63.623047"/>
      </g>
     </g>
    </g>
    <g id="xtick_18">
     <g id="line2d_42">
      <g>
       <use xlink:href="#m5b610e7eee" x="457.852074" y="704.055519" style="stroke: #000000; stroke-width: 1.5"/>
      </g>
     </g>
     <g id="text_43">
      <!-- 60 -->
      <g transform="translate(448.944574 724.193331) scale(0.14 -0.14)">
       <use xlink:href="#DejaVuSans-36"/>
       <use xlink:href="#DejaVuSans-30" x="63.623047"/>
      </g>
     </g>
    </g>
    <g id="text_44">
     <!-- Time -->
     <g transform="translate(257.914687 743.262394) scale(0.16 -0.16)">
      <use xlink:href="#DejaVuSans-54"/>
      <use xlink:href="#DejaVuSans-69" x="57.958984"/>
      <use xlink:href="#DejaVuSans-6d" x="85.742188"/>
      <use xlink:href="#DejaVuSans-65" x="183.154297"/>
     </g>
    </g>
   </g>
   <g id="matplotlib.axis_6">
    <g id="ytick_15">
     <g id="line2d_43">
      <g>
       <use xlink:href="#m6017f829a7" x="79.088437" y="703.451979" style="stroke: #000000; stroke-width: 1.5"/>
      </g>
     </g>
     <g id="text_45">
      <!-- −0.30 -->
      <g transform="translate(26.685 708.770885) scale(0.14 -0.14)">
       <use xlink:href="#DejaVuSans-2212"/>
       <use xlink:href="#DejaVuSans-30" x="83.789062"/>
       <use xlink:href="#DejaVuSans-2e" x="147.412109"/>
       <use xlink:href="#DejaVuSans-33" x="179.199219"/>
       <use xlink:href="#DejaVuSans-30" x="242.822266"/>
      </g>
     </g>
    </g>
    <g id="ytick_16">
     <g id="line2d_44">
      <g>
       <use xlink:href="#m6017f829a7" x="79.088437" y="658.514271" style="stroke: #000000; stroke-width: 1.5"/>
      </g>
     </g>
     <g id="text_46">
      <!-- −0.25 -->
      <g transform="translate(26.685 663.833177) scale(0.14 -0.14)">
       <use xlink:href="#DejaVuSans-2212"/>
       <use xlink:href="#DejaVuSans-30" x="83.789062"/>
       <use xlink:href="#DejaVuSans-2e" x="147.412109"/>
       <use xlink:href="#DejaVuSans-32" x="179.199219"/>
       <use xlink:href="#DejaVuSans-35" x="242.822266"/>
      </g>
     </g>
    </g>
    <g id="ytick_17">
     <g id="line2d_45">
      <g>
       <use xlink:href="#m6017f829a7" x="79.088437" y="613.576563" style="stroke: #000000; stroke-width: 1.5"/>
      </g>
     </g>
     <g id="text_47">
      <!-- −0.20 -->
      <g transform="translate(26.685 618.895469) scale(0.14 -0.14)">
       <use xlink:href="#DejaVuSans-2212"/>
       <use xlink:href="#DejaVuSans-30" x="83.789062"/>
       <use xlink:href="#DejaVuSans-2e" x="147.412109"/>
       <use xlink:href="#DejaVuSans-32" x="179.199219"/>
       <use xlink:href="#DejaVuSans-30" x="242.822266"/>
      </g>
     </g>
    </g>
    <g id="ytick_18">
     <g id="line2d_46">
      <g>
       <use xlink:href="#m6017f829a7" x="79.088437" y="568.638855" style="stroke: #000000; stroke-width: 1.5"/>
      </g>
     </g>
     <g id="text_48">
      <!-- −0.15 -->
      <g transform="translate(26.685 573.957761) scale(0.14 -0.14)">
       <use xlink:href="#DejaVuSans-2212"/>
       <use xlink:href="#DejaVuSans-30" x="83.789062"/>
       <use xlink:href="#DejaVuSans-2e" x="147.412109"/>
       <use xlink:href="#DejaVuSans-31" x="179.199219"/>
       <use xlink:href="#DejaVuSans-35" x="242.822266"/>
      </g>
     </g>
    </g>
    <g id="ytick_19">
     <g id="line2d_47">
      <g>
       <use xlink:href="#m6017f829a7" x="79.088437" y="523.701147" style="stroke: #000000; stroke-width: 1.5"/>
      </g>
     </g>
     <g id="text_49">
      <!-- −0.10 -->
      <g transform="translate(26.685 529.020053) scale(0.14 -0.14)">
       <use xlink:href="#DejaVuSans-2212"/>
       <use xlink:href="#DejaVuSans-30" x="83.789062"/>
       <use xlink:href="#DejaVuSans-2e" x="147.412109"/>
       <use xlink:href="#DejaVuSans-31" x="179.199219"/>
       <use xlink:href="#DejaVuSans-30" x="242.822266"/>
      </g>
     </g>
    </g>
    <g id="ytick_20">
     <g id="line2d_48">
      <g>
       <use xlink:href="#m6017f829a7" x="79.088437" y="478.763439" style="stroke: #000000; stroke-width: 1.5"/>
      </g>
     </g>
     <g id="text_50">
      <!-- −0.05 -->
      <g transform="translate(26.685 484.082346) scale(0.14 -0.14)">
       <use xlink:href="#DejaVuSans-2212"/>
       <use xlink:href="#DejaVuSans-30" x="83.789062"/>
       <use xlink:href="#DejaVuSans-2e" x="147.412109"/>
       <use xlink:href="#DejaVuSans-30" x="179.199219"/>
       <use xlink:href="#DejaVuSans-35" x="242.822266"/>
      </g>
     </g>
    </g>
    <g id="ytick_21">
     <g id="line2d_49">
      <g>
       <use xlink:href="#m6017f829a7" x="79.088437" y="433.825731" style="stroke: #000000; stroke-width: 1.5"/>
      </g>
     </g>
     <g id="text_51">
      <!-- 0.00 -->
      <g transform="translate(38.416562 439.144638) scale(0.14 -0.14)">
       <use xlink:href="#DejaVuSans-30"/>
       <use xlink:href="#DejaVuSans-2e" x="63.623047"/>
       <use xlink:href="#DejaVuSans-30" x="95.410156"/>
       <use xlink:href="#DejaVuSans-30" x="159.033203"/>
      </g>
     </g>
    </g>
    <g id="text_52">
     <!-- Log Correlation -->
     <g transform="translate(19.3575 623.450332) rotate(-90) scale(0.16 -0.16)">
      <use xlink:href="#DejaVuSans-4c"/>
      <use xlink:href="#DejaVuSans-6f" x="53.962891"/>
      <use xlink:href="#DejaVuSans-67" x="115.144531"/>
      <use xlink:href="#DejaVuSans-20" x="178.621094"/>
      <use xlink:href="#DejaVuSans-43" x="210.408203"/>
      <use xlink:href="#DejaVuSans-6f" x="280.232422"/>
      <use xlink:href="#DejaVuSans-72" x="341.414062"/>
      <use xlink:href="#DejaVuSans-72" x="380.777344"/>
      <use xlink:href="#DejaVuSans-65" x="419.640625"/>
      <use xlink:href="#DejaVuSans-6c" x="481.164062"/>
      <use xlink:href="#DejaVuSans-61" x="508.947266"/>
      <use xlink:href="#DejaVuSans-74" x="570.226562"/>
      <use xlink:href="#DejaVuSans-69" x="609.435547"/>
      <use xlink:href="#DejaVuSans-6f" x="637.21875"/>
      <use xlink:href="#DejaVuSans-6e" x="698.400391"/>
     </g>
    </g>
   </g>
   <g id="line2d_50">
    <path d="M 97.124801 433.825731 
L 103.136922 434.690024 
L 109.149044 435.57587 
L 115.161165 436.483132 
L 121.173286 437.413191 
L 127.185407 438.367623 
L 133.197528 439.346865 
L 139.20965 440.352313 
L 145.221771 441.385471 
L 151.233892 442.447336 
L 157.246013 443.538517 
L 163.258134 444.660695 
L 169.270256 445.814969 
L 175.282377 447.00149 
L 181.294498 448.221366 
L 187.306619 449.475848 
L 193.318741 450.767022 
L 199.330862 452.096967 
L 205.342983 453.466873 
L 211.355104 454.877515 
L 217.367225 456.33122 
L 223.379347 457.830307 
L 229.391468 459.375474 
L 235.403589 460.968702 
L 241.41571 462.615992 
L 247.427831 464.320244 
L 253.439953 466.077902 
L 259.452074 467.891889 
L 265.464195 469.766401 
L 271.476316 471.703989 
L 277.488437 473.713759 
L 283.500559 475.798496 
L 289.51268 477.957987 
L 295.524801 480.202163 
L 301.536922 482.536387 
L 307.549044 484.962584 
L 313.561165 487.486773 
L 319.573286 490.110687 
L 325.585407 492.839648 
L 331.597528 495.69022 
L 337.60965 498.677804 
L 343.621771 501.810785 
L 349.633892 505.092541 
L 355.646013 508.528617 
L 361.658134 512.134518 
L 367.670256 515.926558 
L 373.682377 519.913398 
L 379.694498 524.101504 
L 385.706619 528.507603 
L 391.718741 533.152383 
L 397.730862 538.046113 
L 403.742983 543.215527 
L 409.755104 548.69955 
L 415.767225 554.527224 
L 421.779347 560.728183 
L 427.791468 567.334588 
L 433.803589 574.359408 
L 439.81571 581.850823 
L 445.827831 589.867119 
L 451.839953 598.497674 
L 457.852074 607.749223 
" clip-path="url(#p4e3787d8e6)" style="fill: none; stroke: #ff0000; stroke-width: 2.5; stroke-linecap: square"/>
   </g>
   <g id="line2d_51">
    <path d="M 97.124801 433.825731 
L 103.136922 435.039119 
L 109.149044 436.350875 
L 115.161165 437.546281 
L 121.173286 438.832426 
L 127.185407 440.172424 
L 133.197528 441.437709 
L 139.20965 442.739592 
L 145.221771 444.200009 
L 151.233892 445.578444 
L 157.246013 447.169696 
L 163.258134 448.527783 
L 169.270256 449.776469 
L 175.282377 451.565829 
L 181.294498 452.885766 
L 187.306619 454.70141 
L 193.318741 456.365085 
L 199.330862 458.051139 
L 205.342983 459.759062 
L 211.355104 461.334933 
L 217.367225 462.62473 
L 223.379347 463.931618 
L 229.391468 466.223263 
L 235.403589 467.758704 
L 241.41571 469.3615 
L 247.427831 471.098743 
L 253.439953 472.703494 
L 259.452074 475.077176 
L 265.464195 477.234055 
L 271.476316 479.706064 
L 277.488437 481.70406 
L 283.500559 484.612045 
L 289.51268 487.759624 
L 295.524801 490.651236 
L 301.536922 493.616639 
L 307.549044 495.738489 
L 313.561165 498.098422 
L 319.573286 501.427276 
L 325.585407 505.262196 
L 331.597528 508.92521 
L 337.60965 511.644917 
L 343.621771 515.134859 
L 349.633892 517.894794 
L 355.646013 521.249203 
L 361.658134 525.380901 
L 367.670256 529.327979 
L 373.682377 532.824318 
L 379.694498 535.697883 
L 385.706619 539.975066 
L 391.718741 544.342921 
L 397.730862 550.612219 
L 403.742983 556.096217 
L 409.755104 561.304036 
L 415.767225 568.1414 
L 421.779347 574.568707 
L 427.791468 580.487518 
L 433.803589 587.012524 
L 439.81571 595.334354 
L 445.827831 603.021118 
L 451.839953 613.798376 
L 457.852074 620.844066 
" clip-path="url(#p4e3787d8e6)" style="fill: none; stroke: #802f95; stroke-width: 2; stroke-linecap: square"/>
   </g>
   <g id="patch_13">
    <path d="M 79.088437 704.055519 
L 79.088437 420.957646 
" style="fill: none; stroke: #000000; stroke-width: 1.5; stroke-linejoin: miter; stroke-linecap: square"/>
   </g>
   <g id="patch_14">
    <path d="M 475.888437 704.055519 
L 475.888437 420.957646 
" style="fill: none; stroke: #000000; stroke-width: 1.5; stroke-linejoin: miter; stroke-linecap: square"/>
   </g>
   <g id="patch_15">
    <path d="M 79.088437 704.055519 
L 475.888438 704.055519 
" style="fill: none; stroke: #000000; stroke-width: 1.5; stroke-linejoin: miter; stroke-linecap: square"/>
   </g>
   <g id="patch_16">
    <path d="M 79.088437 420.957646 
L 475.888438 420.957646 
" style="fill: none; stroke: #000000; stroke-width: 1.5; stroke-linejoin: miter; stroke-linecap: square"/>
   </g>
   <g id="text_53">
    <!-- C -->
    <g transform="translate(39.408437 403.059315) scale(0.18 -0.18)">
     <defs>
      <path id="DejaVuSans-Bold-43" d="M 4288 256 
Q 3956 84 3597 -3 
Q 3238 -91 2847 -91 
Q 1681 -91 1000 561 
Q 319 1213 319 2328 
Q 319 3447 1000 4098 
Q 1681 4750 2847 4750 
Q 3238 4750 3597 4662 
Q 3956 4575 4288 4403 
L 4288 3438 
Q 3953 3666 3628 3772 
Q 3303 3878 2944 3878 
Q 2300 3878 1931 3465 
Q 1563 3053 1563 2328 
Q 1563 1606 1931 1193 
Q 2300 781 2944 781 
Q 3303 781 3628 887 
Q 3953 994 4288 1222 
L 4288 256 
z
" transform="scale(0.015625)"/>
     </defs>
     <use xlink:href="#DejaVuSans-Bold-43"/>
    </g>
   </g>
   <g id="legend_3">
    <g id="line2d_52">
     <path d="M 88.988438 671.871925 
L 99.988438 671.871925 
L 110.988438 671.871925 
" style="fill: none; stroke: #ff0000; stroke-width: 2.5; stroke-linecap: square"/>
    </g>
    <g id="text_54">
     <!-- Theory -->
     <g transform="translate(119.788438 675.721925) scale(0.11 -0.11)">
      <defs>
       <path id="DejaVuSans-68" d="M 3513 2113 
L 3513 0 
L 2938 0 
L 2938 2094 
Q 2938 2591 2744 2837 
Q 2550 3084 2163 3084 
Q 1697 3084 1428 2787 
Q 1159 2491 1159 1978 
L 1159 0 
L 581 0 
L 581 4863 
L 1159 4863 
L 1159 2956 
Q 1366 3272 1645 3428 
Q 1925 3584 2291 3584 
Q 2894 3584 3203 3211 
Q 3513 2838 3513 2113 
z
" transform="scale(0.015625)"/>
       <path id="DejaVuSans-79" d="M 2059 -325 
Q 1816 -950 1584 -1140 
Q 1353 -1331 966 -1331 
L 506 -1331 
L 506 -850 
L 844 -850 
Q 1081 -850 1212 -737 
Q 1344 -625 1503 -206 
L 1606 56 
L 191 3500 
L 800 3500 
L 1894 763 
L 2988 3500 
L 3597 3500 
L 2059 -325 
z
" transform="scale(0.015625)"/>
      </defs>
      <use xlink:href="#DejaVuSans-54"/>
      <use xlink:href="#DejaVuSans-68" x="61.083984"/>
      <use xlink:href="#DejaVuSans-65" x="124.462891"/>
      <use xlink:href="#DejaVuSans-6f" x="185.986328"/>
      <use xlink:href="#DejaVuSans-72" x="247.167969"/>
      <use xlink:href="#DejaVuSans-79" x="288.28125"/>
     </g>
    </g>
    <g id="line2d_53">
     <path d="M 88.988438 688.017862 
L 99.988438 688.017862 
L 110.988438 688.017862 
" style="fill: none; stroke: #802f95; stroke-width: 2; stroke-linecap: square"/>
    </g>
    <g id="text_55">
     <!-- Simulation -->
     <g transform="translate(119.788438 691.867862) scale(0.11 -0.11)">
      <use xlink:href="#DejaVuSans-53"/>
      <use xlink:href="#DejaVuSans-69" x="63.476562"/>
      <use xlink:href="#DejaVuSans-6d" x="91.259766"/>
      <use xlink:href="#DejaVuSans-75" x="188.671875"/>
      <use xlink:href="#DejaVuSans-6c" x="252.050781"/>
      <use xlink:href="#DejaVuSans-61" x="279.833984"/>
      <use xlink:href="#DejaVuSans-74" x="341.113281"/>
      <use xlink:href="#DejaVuSans-69" x="380.322266"/>
      <use xlink:href="#DejaVuSans-6f" x="408.105469"/>
      <use xlink:href="#DejaVuSans-6e" x="469.287109"/>
     </g>
    </g>
   </g>
  </g>
  <g id="axes_4">
   <g id="patch_17">
    <path d="M 575.088438 704.055519 
L 971.888438 704.055519 
L 971.888438 420.957646 
L 575.088438 420.957646 
z
" style="fill: #ffffff"/>
   </g>
   <g id="PolyCollection_4">
    <defs>
     <path id="m2a0ea489ee" d="M 593.124801 -319.964162 
L 593.124801 -319.964162 
L 633.205609 -309.002412 
L 673.286417 -298.485132 
L 713.367225 -285.783409 
L 753.448033 -272.488736 
L 793.528842 -262.893426 
L 833.60965 -245.073031 
L 873.690458 -226.992954 
L 913.771266 -210.459851 
L 953.852074 -193.506813 
L 953.852074 -246.046415 
L 953.852074 -246.046415 
L 913.771266 -257.34013 
L 873.690458 -269.702052 
L 833.60965 -277.708258 
L 793.528842 -285.452848 
L 753.448033 -293.21698 
L 713.367225 -300.091454 
L 673.286417 -307.682746 
L 633.205609 -313.743571 
L 593.124801 -319.964162 
z
" style="stroke: #802f95; stroke-opacity: 0.2"/>
    </defs>
    <g clip-path="url(#p71aa15297a)">
     <use xlink:href="#m2a0ea489ee" x="0" y="753.789894" style="fill: #802f95; fill-opacity: 0.2; stroke: #802f95; stroke-opacity: 0.2"/>
    </g>
   </g>
   <g id="matplotlib.axis_7">
    <g id="xtick_19">
     <g id="line2d_54">
      <g>
       <use xlink:href="#m5b610e7eee" x="593.124801" y="704.055519" style="stroke: #000000; stroke-width: 1.5"/>
      </g>
     </g>
     <g id="text_56">
      <!-- 0 -->
      <g transform="translate(588.671051 724.193331) scale(0.14 -0.14)">
       <use xlink:href="#DejaVuSans-30"/>
      </g>
     </g>
    </g>
    <g id="xtick_20">
     <g id="line2d_55">
      <g>
       <use xlink:href="#m5b610e7eee" x="673.286417" y="704.055519" style="stroke: #000000; stroke-width: 1.5"/>
      </g>
     </g>
     <g id="text_57">
      <!-- 2 -->
      <g transform="translate(668.832667 724.193331) scale(0.14 -0.14)">
       <use xlink:href="#DejaVuSans-32"/>
      </g>
     </g>
    </g>
    <g id="xtick_21">
     <g id="line2d_56">
      <g>
       <use xlink:href="#m5b610e7eee" x="753.448033" y="704.055519" style="stroke: #000000; stroke-width: 1.5"/>
      </g>
     </g>
     <g id="text_58">
      <!-- 4 -->
      <g transform="translate(748.994283 724.193331) scale(0.14 -0.14)">
       <use xlink:href="#DejaVuSans-34"/>
      </g>
     </g>
    </g>
    <g id="xtick_22">
     <g id="line2d_57">
      <g>
       <use xlink:href="#m5b610e7eee" x="833.60965" y="704.055519" style="stroke: #000000; stroke-width: 1.5"/>
      </g>
     </g>
     <g id="text_59">
      <!-- 6 -->
      <g transform="translate(829.1559 724.193331) scale(0.14 -0.14)">
       <use xlink:href="#DejaVuSans-36"/>
      </g>
     </g>
    </g>
    <g id="xtick_23">
     <g id="line2d_58">
      <g>
       <use xlink:href="#m5b610e7eee" x="913.771266" y="704.055519" style="stroke: #000000; stroke-width: 1.5"/>
      </g>
     </g>
     <g id="text_60">
      <!-- 8 -->
      <g transform="translate(909.317516 724.193331) scale(0.14 -0.14)">
       <use xlink:href="#DejaVuSans-38"/>
      </g>
     </g>
    </g>
    <g id="text_61">
     <!-- Time -->
     <g transform="translate(753.914688 743.262394) scale(0.16 -0.16)">
      <use xlink:href="#DejaVuSans-54"/>
      <use xlink:href="#DejaVuSans-69" x="57.958984"/>
      <use xlink:href="#DejaVuSans-6d" x="85.742188"/>
      <use xlink:href="#DejaVuSans-65" x="183.154297"/>
     </g>
    </g>
   </g>
   <g id="matplotlib.axis_8">
    <g id="ytick_22">
     <g id="line2d_59">
      <g>
       <use xlink:href="#m6017f829a7" x="575.088438" y="682.484381" style="stroke: #000000; stroke-width: 1.5"/>
      </g>
     </g>
     <g id="text_62">
      <!-- −0.12 -->
      <g transform="translate(522.685 687.803287) scale(0.14 -0.14)">
       <use xlink:href="#DejaVuSans-2212"/>
       <use xlink:href="#DejaVuSans-30" x="83.789062"/>
       <use xlink:href="#DejaVuSans-2e" x="147.412109"/>
       <use xlink:href="#DejaVuSans-31" x="179.199219"/>
       <use xlink:href="#DejaVuSans-32" x="242.822266"/>
      </g>
     </g>
    </g>
    <g id="ytick_23">
     <g id="line2d_60">
      <g>
       <use xlink:href="#m6017f829a7" x="575.088438" y="641.041273" style="stroke: #000000; stroke-width: 1.5"/>
      </g>
     </g>
     <g id="text_63">
      <!-- −0.10 -->
      <g transform="translate(522.685 646.360179) scale(0.14 -0.14)">
       <use xlink:href="#DejaVuSans-2212"/>
       <use xlink:href="#DejaVuSans-30" x="83.789062"/>
       <use xlink:href="#DejaVuSans-2e" x="147.412109"/>
       <use xlink:href="#DejaVuSans-31" x="179.199219"/>
       <use xlink:href="#DejaVuSans-30" x="242.822266"/>
      </g>
     </g>
    </g>
    <g id="ytick_24">
     <g id="line2d_61">
      <g>
       <use xlink:href="#m6017f829a7" x="575.088438" y="599.598164" style="stroke: #000000; stroke-width: 1.5"/>
      </g>
     </g>
     <g id="text_64">
      <!-- −0.08 -->
      <g transform="translate(522.685 604.917071) scale(0.14 -0.14)">
       <use xlink:href="#DejaVuSans-2212"/>
       <use xlink:href="#DejaVuSans-30" x="83.789062"/>
       <use xlink:href="#DejaVuSans-2e" x="147.412109"/>
       <use xlink:href="#DejaVuSans-30" x="179.199219"/>
       <use xlink:href="#DejaVuSans-38" x="242.822266"/>
      </g>
     </g>
    </g>
    <g id="ytick_25">
     <g id="line2d_62">
      <g>
       <use xlink:href="#m6017f829a7" x="575.088438" y="558.155056" style="stroke: #000000; stroke-width: 1.5"/>
      </g>
     </g>
     <g id="text_65">
      <!-- −0.06 -->
      <g transform="translate(522.685 563.473962) scale(0.14 -0.14)">
       <use xlink:href="#DejaVuSans-2212"/>
       <use xlink:href="#DejaVuSans-30" x="83.789062"/>
       <use xlink:href="#DejaVuSans-2e" x="147.412109"/>
       <use xlink:href="#DejaVuSans-30" x="179.199219"/>
       <use xlink:href="#DejaVuSans-36" x="242.822266"/>
      </g>
     </g>
    </g>
    <g id="ytick_26">
     <g id="line2d_63">
      <g>
       <use xlink:href="#m6017f829a7" x="575.088438" y="516.711948" style="stroke: #000000; stroke-width: 1.5"/>
      </g>
     </g>
     <g id="text_66">
      <!-- −0.04 -->
      <g transform="translate(522.685 522.030854) scale(0.14 -0.14)">
       <use xlink:href="#DejaVuSans-2212"/>
       <use xlink:href="#DejaVuSans-30" x="83.789062"/>
       <use xlink:href="#DejaVuSans-2e" x="147.412109"/>
       <use xlink:href="#DejaVuSans-30" x="179.199219"/>
       <use xlink:href="#DejaVuSans-34" x="242.822266"/>
      </g>
     </g>
    </g>
    <g id="ytick_27">
     <g id="line2d_64">
      <g>
       <use xlink:href="#m6017f829a7" x="575.088438" y="475.26884" style="stroke: #000000; stroke-width: 1.5"/>
      </g>
     </g>
     <g id="text_67">
      <!-- −0.02 -->
      <g transform="translate(522.685 480.587746) scale(0.14 -0.14)">
       <use xlink:href="#DejaVuSans-2212"/>
       <use xlink:href="#DejaVuSans-30" x="83.789062"/>
       <use xlink:href="#DejaVuSans-2e" x="147.412109"/>
       <use xlink:href="#DejaVuSans-30" x="179.199219"/>
       <use xlink:href="#DejaVuSans-32" x="242.822266"/>
      </g>
     </g>
    </g>
    <g id="ytick_28">
     <g id="line2d_65">
      <g>
       <use xlink:href="#m6017f829a7" x="575.088438" y="433.825731" style="stroke: #000000; stroke-width: 1.5"/>
      </g>
     </g>
     <g id="text_68">
      <!-- 0.00 -->
      <g transform="translate(534.416563 439.144638) scale(0.14 -0.14)">
       <use xlink:href="#DejaVuSans-30"/>
       <use xlink:href="#DejaVuSans-2e" x="63.623047"/>
       <use xlink:href="#DejaVuSans-30" x="95.410156"/>
       <use xlink:href="#DejaVuSans-30" x="159.033203"/>
      </g>
     </g>
    </g>
    <g id="text_69">
     <!-- Log Correlation -->
     <g transform="translate(515.3575 623.450332) rotate(-90) scale(0.16 -0.16)">
      <use xlink:href="#DejaVuSans-4c"/>
      <use xlink:href="#DejaVuSans-6f" x="53.962891"/>
      <use xlink:href="#DejaVuSans-67" x="115.144531"/>
      <use xlink:href="#DejaVuSans-20" x="178.621094"/>
      <use xlink:href="#DejaVuSans-43" x="210.408203"/>
      <use xlink:href="#DejaVuSans-6f" x="280.232422"/>
      <use xlink:href="#DejaVuSans-72" x="341.414062"/>
      <use xlink:href="#DejaVuSans-72" x="380.777344"/>
      <use xlink:href="#DejaVuSans-65" x="419.640625"/>
      <use xlink:href="#DejaVuSans-6c" x="481.164062"/>
      <use xlink:href="#DejaVuSans-61" x="508.947266"/>
      <use xlink:href="#DejaVuSans-74" x="570.226562"/>
      <use xlink:href="#DejaVuSans-69" x="609.435547"/>
      <use xlink:href="#DejaVuSans-6f" x="637.21875"/>
      <use xlink:href="#DejaVuSans-6e" x="698.400391"/>
     </g>
    </g>
   </g>
   <g id="line2d_66">
    <path d="M 593.124801 433.825731 
L 596.768511 436.425345 
L 600.412221 439.024958 
L 604.055931 441.624571 
L 607.69964 444.224184 
L 611.34335 446.823797 
L 614.98706 449.42341 
L 618.63077 452.023023 
L 622.27448 454.622637 
L 625.91819 457.22225 
L 629.561899 459.821863 
L 633.205609 462.421476 
L 636.849319 465.021089 
L 640.493029 467.620702 
L 644.136739 470.220316 
L 647.780449 472.819929 
L 651.424158 475.419542 
L 655.067868 478.019155 
L 658.711578 480.618768 
L 662.355288 483.218381 
L 665.998998 485.817994 
L 669.642707 488.417608 
L 673.286417 491.017221 
L 676.930127 493.616834 
L 680.573837 496.216447 
L 684.217547 498.81606 
L 687.861257 501.415673 
L 691.504966 504.015287 
L 695.148676 506.6149 
L 698.792386 509.214513 
L 702.436096 511.814126 
L 706.079806 514.413739 
L 709.723516 517.013352 
L 713.367225 519.612965 
L 717.010935 522.212579 
L 720.654645 524.812192 
L 724.298355 527.411805 
L 727.942065 530.011418 
L 731.585775 532.611031 
L 735.229484 535.210644 
L 738.873194 537.810257 
L 742.516904 540.409871 
L 746.160614 543.009484 
L 749.804324 545.609097 
L 753.448033 548.20871 
L 757.091743 550.808323 
L 760.735453 553.407936 
L 764.379163 556.00755 
L 768.022873 558.607163 
L 771.666583 561.206776 
L 775.310292 563.806389 
L 778.954002 566.406002 
L 782.597712 569.005615 
L 786.241422 571.605228 
L 789.885132 574.204842 
L 793.528842 576.804455 
L 797.172551 579.404068 
L 800.816261 582.003681 
L 804.459971 584.603294 
L 808.103681 587.202907 
L 811.747391 589.802521 
L 815.3911 592.402134 
L 819.03481 595.001747 
L 822.67852 597.60136 
L 826.32223 600.200973 
L 829.96594 602.800586 
L 833.60965 605.400199 
L 837.253359 607.999813 
L 840.897069 610.599426 
L 844.540779 613.199039 
L 848.184489 615.798652 
L 851.828199 618.398265 
L 855.471909 620.997878 
L 859.115618 623.597492 
L 862.759328 626.197105 
L 866.403038 628.796718 
L 870.046748 631.396331 
L 873.690458 633.995944 
L 877.334168 636.595557 
L 880.977877 639.19517 
L 884.621587 641.794784 
L 888.265297 644.394397 
L 891.909007 646.99401 
L 895.552717 649.593623 
L 899.196426 652.193236 
L 902.840136 654.792849 
L 906.483846 657.392463 
L 910.127556 659.992076 
L 913.771266 662.591689 
L 917.414976 665.191302 
L 921.058685 667.790915 
L 924.702395 670.390528 
L 928.346105 672.990141 
L 931.989815 675.589755 
L 935.633525 678.189368 
L 939.277235 680.788981 
L 942.920944 683.388594 
L 946.564654 685.988207 
L 950.208364 688.58782 
L 953.852074 691.187434 
" clip-path="url(#p71aa15297a)" style="fill: none; stroke: #ff4126; stroke-width: 2.5; stroke-linecap: square"/>
   </g>
   <g id="line2d_67">
    <path d="M 593.124801 433.825731 
L 633.205609 442.416902 
L 673.286417 450.705955 
L 713.367225 460.852462 
L 753.448033 470.937036 
L 793.528842 479.616757 
L 833.60965 492.399249 
L 873.690458 505.442391 
L 913.771266 519.889904 
L 953.852074 534.01328 
" clip-path="url(#p71aa15297a)" style="fill: none; stroke: #802f95; stroke-width: 2; stroke-linecap: square"/>
   </g>
   <g id="patch_18">
    <path d="M 575.088438 704.055519 
L 575.088438 420.957646 
" style="fill: none; stroke: #000000; stroke-width: 1.5; stroke-linejoin: miter; stroke-linecap: square"/>
   </g>
   <g id="patch_19">
    <path d="M 971.888438 704.055519 
L 971.888438 420.957646 
" style="fill: none; stroke: #000000; stroke-width: 1.5; stroke-linejoin: miter; stroke-linecap: square"/>
   </g>
   <g id="patch_20">
    <path d="M 575.088438 704.055519 
L 971.888438 704.055519 
" style="fill: none; stroke: #000000; stroke-width: 1.5; stroke-linejoin: miter; stroke-linecap: square"/>
   </g>
   <g id="patch_21">
    <path d="M 575.088438 420.957646 
L 971.888438 420.957646 
" style="fill: none; stroke: #000000; stroke-width: 1.5; stroke-linejoin: miter; stroke-linecap: square"/>
   </g>
   <g id="text_70">
    <!-- D -->
    <g transform="translate(535.408438 403.059315) scale(0.18 -0.18)">
     <defs>
      <path id="DejaVuSans-Bold-44" d="M 1791 3756 
L 1791 909 
L 2222 909 
Q 2959 909 3348 1275 
Q 3738 1641 3738 2338 
Q 3738 3031 3350 3393 
Q 2963 3756 2222 3756 
L 1791 3756 
z
M 588 4666 
L 1856 4666 
Q 2919 4666 3439 4514 
Q 3959 4363 4331 4000 
Q 4659 3684 4818 3271 
Q 4978 2859 4978 2338 
Q 4978 1809 4818 1395 
Q 4659 981 4331 666 
Q 3956 303 3431 151 
Q 2906 0 1856 0 
L 588 0 
L 588 4666 
z
" transform="scale(0.015625)"/>
     </defs>
     <use xlink:href="#DejaVuSans-Bold-44"/>
    </g>
   </g>
   <g id="legend_4">
    <g id="line2d_68">
     <path d="M 584.988438 671.871925 
L 595.988438 671.871925 
L 606.988438 671.871925 
" style="fill: none; stroke: #ff4126; stroke-width: 2.5; stroke-linecap: square"/>
    </g>
    <g id="text_71">
     <!-- $\tau_{new} \approx 72$ -->
     <g transform="translate(615.788437 675.721925) scale(0.11 -0.11)">
      <defs>
       <path id="DejaVuSans-Oblique-6e" d="M 3566 2113 
L 3156 0 
L 2578 0 
L 2988 2091 
Q 3016 2238 3031 2350 
Q 3047 2463 3047 2528 
Q 3047 2791 2881 2937 
Q 2716 3084 2419 3084 
Q 1956 3084 1622 2776 
Q 1288 2469 1184 1941 
L 800 0 
L 225 0 
L 903 3500 
L 1478 3500 
L 1363 2950 
Q 1603 3253 1940 3418 
Q 2278 3584 2650 3584 
Q 3113 3584 3367 3334 
Q 3622 3084 3622 2631 
Q 3622 2519 3608 2391 
Q 3594 2263 3566 2113 
z
" transform="scale(0.015625)"/>
       <path id="DejaVuSans-Oblique-65" d="M 3078 2063 
Q 3088 2113 3092 2166 
Q 3097 2219 3097 2272 
Q 3097 2653 2873 2875 
Q 2650 3097 2266 3097 
Q 1838 3097 1509 2826 
Q 1181 2556 1013 2059 
L 3078 2063 
z
M 3578 1613 
L 903 1613 
Q 884 1494 878 1425 
Q 872 1356 872 1306 
Q 872 872 1139 634 
Q 1406 397 1894 397 
Q 2269 397 2603 481 
Q 2938 566 3225 728 
L 3116 159 
Q 2806 34 2476 -28 
Q 2147 -91 1806 -91 
Q 1078 -91 686 257 
Q 294 606 294 1247 
Q 294 1794 489 2264 
Q 684 2734 1063 3103 
Q 1306 3334 1642 3459 
Q 1978 3584 2356 3584 
Q 2950 3584 3301 3228 
Q 3653 2872 3653 2272 
Q 3653 2128 3634 1964 
Q 3616 1800 3578 1613 
z
" transform="scale(0.015625)"/>
       <path id="DejaVuSans-Oblique-77" d="M 544 3500 
L 1113 3500 
L 1259 684 
L 2566 3500 
L 3231 3500 
L 3425 684 
L 4666 3500 
L 5241 3500 
L 3641 0 
L 2969 0 
L 2797 2900 
L 1459 0 
L 781 0 
L 544 3500 
z
" transform="scale(0.015625)"/>
       <path id="DejaVuSans-37" d="M 525 4666 
L 3525 4666 
L 3525 4397 
L 1831 0 
L 1172 0 
L 2766 4134 
L 525 4134 
L 525 4666 
z
" transform="scale(0.015625)"/>
      </defs>
      <use xlink:href="#DejaVuSans-Oblique-3c4" transform="translate(0 0.78125)"/>
      <use xlink:href="#DejaVuSans-Oblique-6e" transform="translate(60.205078 -15.625) scale(0.7)"/>
      <use xlink:href="#DejaVuSans-Oblique-65" transform="translate(104.570312 -15.625) scale(0.7)"/>
      <use xlink:href="#DejaVuSans-Oblique-77" transform="translate(147.636719 -15.625) scale(0.7)"/>
      <use xlink:href="#DejaVuSans-2248" transform="translate(227.104492 0.78125)"/>
      <use xlink:href="#DejaVuSans-37" transform="translate(330.375977 0.78125)"/>
      <use xlink:href="#DejaVuSans-32" transform="translate(393.999023 0.78125)"/>
     </g>
    </g>
    <g id="line2d_69">
     <path d="M 584.988438 688.017862 
L 595.988438 688.017862 
L 606.988438 688.017862 
" style="fill: none; stroke: #802f95; stroke-width: 2; stroke-linecap: square"/>
    </g>
    <g id="text_72">
     <!-- Simulation -->
     <g transform="translate(615.788437 691.867862) scale(0.11 -0.11)">
      <use xlink:href="#DejaVuSans-53"/>
      <use xlink:href="#DejaVuSans-69" x="63.476562"/>
      <use xlink:href="#DejaVuSans-6d" x="91.259766"/>
      <use xlink:href="#DejaVuSans-75" x="188.671875"/>
      <use xlink:href="#DejaVuSans-6c" x="252.050781"/>
      <use xlink:href="#DejaVuSans-61" x="279.833984"/>
      <use xlink:href="#DejaVuSans-74" x="341.113281"/>
      <use xlink:href="#DejaVuSans-69" x="380.322266"/>
      <use xlink:href="#DejaVuSans-6f" x="408.105469"/>
      <use xlink:href="#DejaVuSans-6e" x="469.287109"/>
     </g>
    </g>
   </g>
  </g>
 </g>
 <defs>
  <clipPath id="p24b339a92f">
   <rect x="79.088437" y="38.775519" width="396.8" height="283.097872"/>
  </clipPath>
  <clipPath id="p370560462f">
   <rect x="575.088438" y="38.775519" width="396.8" height="283.097872"/>
  </clipPath>
  <clipPath id="p4e3787d8e6">
   <rect x="79.088437" y="420.957646" width="396.8" height="283.097872"/>
  </clipPath>
  <clipPath id="p71aa15297a">
   <rect x="575.088438" y="420.957646" width="396.8" height="283.097872"/>
  </clipPath>
 </defs>
</svg>
